<?xml version="1.0" encoding="UTF-8"?>
<svg id="_レイヤー_2" data-name="レイヤー 2" xmlns="http://www.w3.org/2000/svg" viewBox="0 0 273.98 51.1">
  <g id="_レイヤー_1-2" data-name="レイヤー 1">
    <g>
      <g>
        <path d="M7.38,14.14c-.43,0-.71-.22-1.49-.77-2.98-2.08-4.5-2.6-5.89-3.07,.84-.12,1.55-.22,2.64-.22,3.75,0,5.58,1.43,5.58,2.95,0,.71-.34,1.12-.84,1.12Zm2.48-6.79c-.34,0-.68-.25-1.12-.65C5.74,3.97,4,3.44,3.1,3.16c.68-.09,1.21-.16,1.95-.16,3.97,0,5.77,1.77,5.77,3.16,0,.47-.22,1.18-.96,1.18Zm-.71,16.19c-1.18,.87-1.3,.99-2.11,1.8-.22,.25-.53,.46-.81,.46-.65,0-3.01-1.7-3.01-4.19,0-.25,.03-.43,.09-.71,.62,.81,1.98,1.8,2.45,1.8,1.98,0,11.69-7.88,16.71-14.26l.19,.12c-1.05,2.67-4.62,8.59-13.52,14.98Z"/>
        <path d="M52.74,12.37c-.06,0-2.48-.28-3.22-.37-1.18-.12-2.26-.19-3.1-.19-.96,0-1.67,.06-3.81,.22,.25,.16,1.18,.87,1.36,1.02,.09,.09,.19,.22,.19,.37s-.56,.99-.65,1.15c-.12,.22-.19,.53-.22,.68-1.49,5.05-4.46,10.29-9.7,11.88l-.09-.15c4.87-3.66,7.66-11.13,7.66-13.33,0-.74-.25-1.02-.59-1.4-4.59,.65-5.55,.99-6.76,1.46-.59,.22-.74,.28-.96,.28-.59,0-2.6-1.43-2.6-3.35,0-.47,.09-.74,.19-1.05,.96,1.46,1.77,1.98,3.01,1.98,.34,0,13.02-1.4,14.94-1.58,.31-.03,1.61-.5,1.89-.5,.16,0,3.32,.59,3.32,2.02,0,.87-.59,.87-.84,.87Zm-6.98-6.39c-.99,.03-2.57,.09-3.53,.19-1.61,.19-4.68,.5-4.87,.5-.53,0-2.7-.43-2.45-2.91,1.02,.87,2.08,1.15,3.72,1.15,1.77,0,4-.28,5.77-.81,.65-.19,1.12-.34,1.36-.34,.81,0,2.64,.34,2.64,1.33,0,.81-.71,.84-2.64,.9Z"/>
        <path d="M77.84,8.93c-.9,.47-3.94,3.88-4.59,4.5,.99,.68,1.12,.74,1.12,1.05,0,.12-.15,.81-.19,.93-.12,.74-.16,2.36-.16,4.06,0,.99,.09,5.3,.09,6.2,0,.37,0,1.33-.9,1.33-.78,0-1.21-1.15-1.21-1.74,0-.25,.19-1.36,.22-1.58,.15-1.83,.28-4.56,.28-6.39,0-1.95-.06-2.39-.28-2.95-1.36,1.18-5.33,4.56-8.93,5.71l-.09-.31c5.27-3.16,12.5-10.85,12.5-12.28,0-.46-.43-.71-1.46-1.33,.5-.09,.71-.16,.99-.16,1.86,0,3.35,1.83,3.35,2.2,0,.34-.25,.47-.74,.74Z"/>
        <path d="M114.74,12.37c-.06,0-2.48-.28-3.22-.37-1.18-.12-2.26-.19-3.1-.19-.96,0-1.67,.06-3.81,.22,.25,.16,1.18,.87,1.36,1.02,.09,.09,.19,.22,.19,.37s-.56,.99-.65,1.15c-.12,.22-.19,.53-.22,.68-1.49,5.05-4.46,10.29-9.7,11.88l-.09-.15c4.87-3.66,7.66-11.13,7.66-13.33,0-.74-.25-1.02-.59-1.4-4.59,.65-5.55,.99-6.76,1.46-.59,.22-.74,.28-.96,.28-.59,0-2.6-1.43-2.6-3.35,0-.47,.09-.74,.19-1.05,.96,1.46,1.77,1.98,3.01,1.98,.34,0,13.02-1.4,14.94-1.58,.31-.03,1.61-.5,1.89-.5,.16,0,3.32,.59,3.32,2.02,0,.87-.59,.87-.84,.87Zm-6.98-6.39c-.99,.03-2.57,.09-3.53,.19-1.61,.19-4.68,.5-4.87,.5-.53,0-2.7-.43-2.45-2.91,1.02,.87,2.08,1.15,3.72,1.15,1.77,0,4-.28,5.77-.81,.65-.19,1.12-.34,1.36-.34,.81,0,2.64,.34,2.64,1.33,0,.81-.71,.84-2.64,.9Z"/>
        <path d="M143.75,12.09c-.59,.31-.65,.43-1.05,1.36-5.02,12.03-13.36,13.58-15.07,13.74l-.06-.22c1.92-.81,10.6-5.71,13.15-15.53-.9,.06-9.83,.87-11.81,1.74-.19,.09-.93,.56-1.12,.56-.78,0-3.04-1.83-3.04-3.69,0-.28,.03-.53,.22-1.05,.53,.81,1.58,2.02,3.22,2.02,1.49,0,11.97-.81,12.43-1.02,.28-.12,1.15-1.12,1.4-1.12,.34,0,2.64,1.64,2.64,2.36,0,.4-.4,.62-.9,.87Zm-3.72-6.02c-2.39,.12-7.41,.56-8.12,.68-1.52,.22-1.67,.25-2.17,.25-.99,0-2.48-1.4-2.48-3.35,1.36,1.27,2.33,1.46,4.03,1.46,2.08,0,6.08-.43,7.38-1.02,.62-.28,.71-.34,.99-.34,.56,0,2.54,.43,2.54,1.4,0,.62-.4,.84-2.17,.93Z"/>
        <path d="M174.97,24.84c-.65,0-.99-.53-1.27-.99-2.48-4.09-4.19-6.14-6.95-8.19-5.52,6.95-10.79,8.9-13.7,9.49l-.03-.25c7.19-3.16,14.76-12.65,16.46-18.42-1.18,.16-6.33,1.12-8,1.77-.28,.12-1.43,.74-1.67,.74-.47,0-2.17-1.52-2.17-3.13,0-.62,.12-1.02,.28-1.33,1.18,1.86,1.71,1.89,2.33,1.89,.87,0,7.6-.65,8.87-1.39,.22-.12,1.18-.87,1.43-.87,.34,0,2.64,1.95,2.64,2.48,0,.34-.22,.4-1.21,.77-.22,.09-.25,.15-.65,.9-1.36,2.64-2.14,4.16-4.12,6.82,3.72,1.64,8.87,5.33,8.87,8.25,0,.84-.34,1.46-1.09,1.46Z"/>
        <path d="M192.33,14.36c-.93,0-1.12-.4-1.7-1.89-.09-.22-.59-1.46-1.43-2.08,0,1.27,.03,12.9,.03,13.86,0,.4,.06,2.08,.06,2.45,0,.34,0,1.86-1.46,1.86-.53,0-.99-.25-.99-1.08,0-.43,.15-2.36,.15-2.73,.12-2.76,.19-6.2,.22-10.39-.59,1.52-2.14,5.05-5.15,7.69l-.16-.15c2.42-3.44,4.53-9.89,5.12-13.61-.93,0-2.42,0-3.91,.28l-.62-1.24c1.09,.09,2.39,.19,4.77,.22,0-1.18-.06-4.09-.16-4.96-.09-.81-.31-1.64-.46-2.23l2.91,.93c.4,.12,.53,.25,.53,.43,0,.34-.25,.47-.9,.81V7.53h.81l.59-.93c.12-.19,.31-.37,.5-.37,.22,0,.37,.16,.56,.31l.99,.93c.22,.19,.31,.28,.31,.46,0,.28-.25,.34-.46,.34h-3.29v1.67c.81,.25,4.25,1.36,4.25,3.32,0,.59-.37,1.09-1.12,1.09Zm17.7,2.42h-5.4l1.15,.59c.19,.09,.4,.31,.4,.47,0,.31-.12,.37-1.05,.74-.37,.87-.87,2.08-1.95,3.66,4.81,1.89,5.67,3.16,5.67,4.37,0,.65-.5,1.18-1.12,1.18s-1.02-.34-2.17-1.46c-1.05-1.05-2.82-2.26-3.5-2.7-1.55,1.77-4.09,3.81-11.19,4.46v-.19c5.8-1.64,8.22-4.06,9.39-5.36-1.08-.59-2.23-1.12-3.75-1.67-.09,.22-.56,1.24-.65,1.46-.37,.71-.81,.78-1.27,.78-.59,0-1.24-.19-1.24-.87,0-.28,.06-.53,.5-1.21,.93-1.43,1.77-3.1,2.36-4.25h-.99c-.53,0-2.2,0-3.66,.28l-.59-1.24c2.42,.22,4.5,.22,4.74,.22h.84c1.77-3.75,1.74-4.4,1.67-5.21l2.57,.99c.19,.06,.5,.19,.5,.53,0,.28-.09,.31-.9,.68-.22,.43-1.27,2.51-1.49,3.01h7.81l1.02-1.33c.25-.34,.34-.4,.5-.4,.12,0,.25,.06,.53,.34l1.46,1.33c.16,.15,.31,.28,.31,.47,0,.31-.31,.34-.5,.34Zm-13.8-7.66c-1.05,0-1.24-.78-1.55-2.42-.43-2.33-1.09-3.44-1.61-4.22l.19-.15c3.41,1.89,4.22,4.22,4.22,5.27,0,.46-.12,1.52-1.24,1.52Zm2.29,7.66c-.31,.59-1.24,2.48-1.83,3.72,.81,.06,2.23,.31,4.4,.99,1.33-1.95,1.67-3.19,2.02-4.71h-4.59Zm2.91-9.09c-1.21,0-1.3-.81-1.52-2.57,0-.12-.34-2.76-1.08-4.06l.12-.16c2.54,1.58,3.66,3.57,3.66,5.24,0,1.3-.77,1.55-1.18,1.55Zm7.47-2.79c-2.76,3.38-3.5,4.28-5.71,6.05l-.19-.16c2.48-4.43,3.81-6.82,3.69-8.93l2.85,1.83c.16,.09,.43,.34,.43,.56,0,.4-.31,.46-1.09,.65Z"/>
        <path d="M241.34,26.11h-23.16c-.78,0-2.26,.03-3.66,.28l-.62-1.24c2.11,.19,4.31,.22,4.78,.22h6.63c.03-5.8,.06-19.29-.15-22.29-.06-1.12-.25-1.64-.43-2.14l3.47,1.02c.19,.06,.46,.15,.46,.47,0,.19,0,.4-1.02,1.05,0,.78-.09,4.12-.09,4.84v2.98h5.86l1.36-1.8c.16-.22,.34-.4,.46-.4,.16,0,.31,.16,.56,.34l2.14,1.83c.15,.12,.31,.25,.31,.47,0,.28-.25,.31-.46,.31h-10.23v7.84c0,.37,.03,4,.03,5.49h9.3l1.46-1.83c.22-.25,.31-.37,.5-.37,.12,0,.34,.12,.56,.31l2.11,1.83c.19,.16,.31,.28,.31,.47,0,.28-.25,.34-.46,.34Z"/>
        <path d="M256.22,10.76c-.65,2.64-2.42,6.45-3.88,8.71-.9,1.43-3.47,4.9-8.46,7.13l-.09-.19c2.42-1.86,5.8-5.77,7.44-9.21,1.18-2.45,2.33-4.9,2.82-7.6h-4.31c-.4,0-2.14,.03-3.63,.31l-.62-1.24c2.05,.16,4.19,.19,4.74,.19h3.78l.81-.74c.16-.16,.28-.25,.43-.25,.12,0,.28,.09,.46,.28l1.3,1.36c.19,.19,.25,.31,.25,.43,0,.34-.59,.62-1.05,.81Zm3.6-8.53c0,2.11-.03,11.35-.03,13.24,0,1.52,.09,8.28,.09,9.64,0,1.24,0,3.32-3.69,3.78-.28-.96-.53-1.46-1.15-1.98-.68-.59-1.4-1.12-2.17-1.4v-.15c.25,.03,3.13,.15,3.57,.15,1.18,0,1.3-.34,1.3-1.43,0-.53-.06-2.95-.06-3.41,0-.96,.09-10.82,.09-12.87,0-1.27-.03-5.12-.28-6.17-.06-.28-.34-1.4-.4-1.64l3.35,.87c.28,.06,.43,.16,.43,.4,0,.31-.19,.53-1.05,.96Zm10.48,23.16c-4.46-2.48-9.86-10.23-10.02-19.81h.34c.5,3.32,1.24,5.15,1.77,6.48,2.14-1.67,4.68-4.22,5.33-6.54l2.79,2.33c.22,.19,.25,.31,.25,.46,0,.59-.62,.53-1.64,.47-2.23,1.61-4.25,2.95-6.48,3.84,3.84,8.28,9.15,9.98,11.35,10.39v.19c-1.27,.25-2.36,.47-3.69,2.2Z"/>
      </g>
      <g>
        <path d="M34.44,41.1c-.52-.78-1.53-2.31-3.4-2.31-2.24,0-3.35,2.28-3.35,4.72,0,2.72,1.32,4.93,3.67,4.93,1.99,0,2.97-1.82,3.33-2.54l.38,.22c-.55,1.08-1.53,2.96-4.13,2.96-2.96,0-4.4-2.4-4.4-5.15,0-3.28,2.03-5.6,4.4-5.6,.35,0,.76,.04,1.18,.17,.11,.03,.77,.21,.85,.21,.29,0,.67-.17,.94-.34l.99,2.52-.46,.21Z"/>
        <path d="M40.37,39.05h-.67c-.57,0-.99,.31-.99,.97v7.38c0,.63,.39,.97,.99,.97h.67v.45h-4.44v-.45h.66c.57,0,1.01-.31,1.01-.97v-7.38c0-.63-.39-.97-1.01-.97h-.66v-.46h4.44v.46Z"/>
        <path d="M49.87,38.59l.98,2.66-.41,.18c-.5-.88-1.36-2.38-2.84-2.38-.71,0-.99,.41-.99,.97v7.38c0,.62,.39,.97,1.01,.97h.7v.45h-4.52v-.45h.71c.59,0,.99-.32,.99-.97v-7.38c0-.69-.39-.97-.98-.97-1.5,0-2.35,1.51-2.86,2.38l-.41-.18,.98-2.66h7.63Z"/>
        <path d="M61.47,39.05c-.69,0-1.34,.18-1.89,1.16l-2.35,4.26v2.93c0,.6,.36,.97,1.01,.97h.7v.45h-4.52v-.45h.7c.62,0,1.01-.35,1.01-.97v-2.77l-2.49-4.37c-.67-1.16-1.3-1.2-1.75-1.2v-.46h3.82v.46h-.39c-.42,0-.69,.14-.69,.5,0,.22,.08,.39,.11,.43l2.27,3.95,2.07-3.77c.07-.13,.17-.41,.17-.59,0-.45-.5-.53-.77-.53h-.56v-.46h3.56v.46Z"/>
        <path d="M75.78,38.59l.98,2.66-.41,.18c-.5-.88-1.36-2.38-2.84-2.38-.71,0-.99,.41-.99,.97v7.38c0,.62,.39,.97,1.01,.97h.7v.45h-4.52v-.45h.71c.59,0,.99-.32,.99-.97v-7.38c0-.69-.39-.97-.98-.97-1.5,0-2.35,1.51-2.86,2.38l-.41-.18,.98-2.66h7.63Z"/>
        <path d="M80.38,43.74v3.66c0,.6,.35,.97,.99,.97h1.08c2.35,0,3.1-1.29,3.7-2.31l.41,.18-.98,2.58h-7.83v-.45h.52c.57,0,.99-.31,.99-.97v-7.38c0-.63-.39-.97-.99-.97h-.52v-.46h7.65l.91,2.27-.38,.24c-.77-1.23-1.67-2.04-3-2.04h-1.56c-.59,0-.99,.32-.99,.97v3.28h1.6c1.06,0,1.58-.45,1.58-1.39v-.36h.45v4.01h-.45v-.42c0-1.01-.73-1.39-1.58-1.39h-1.6Z"/>
        <path d="M91.32,38.59c1.72,0,3.87,.49,3.87,2.44,0,.64-.24,1.3-.92,1.88-.57,.48-1.09,.63-1.67,.78l1.6,3.5c.32,.7,.88,1.18,1.68,1.18h.24v.45h-2.4l-2.27-5h-1.62v3.59c0,.62,.39,.97,.99,.97h.45v.45h-3.99v-.45h.43c.62,0,1.01-.35,1.01-.97v-7.38c0-.6-.36-.97-1.01-.97h-.43v-.46h4.05Zm-1.5,4.78h1.5c1.3,0,2.54-.7,2.54-2.21,0-.97-.52-2.1-2.35-2.1h-.69c-.6,0-.99,.34-.99,.97v3.35Z"/>
        <path d="M100.91,38.59c1.72,0,3.87,.49,3.87,2.44,0,.64-.24,1.3-.92,1.88-.57,.48-1.09,.63-1.67,.78l1.6,3.5c.32,.7,.88,1.18,1.68,1.18h.24v.45h-2.4l-2.27-5h-1.62v3.59c0,.62,.39,.97,.99,.97h.45v.45h-3.99v-.45h.43c.62,0,1.01-.35,1.01-.97v-7.38c0-.6-.36-.97-1.01-.97h-.43v-.46h4.05Zm-1.5,4.78h1.5c1.3,0,2.54-.7,2.54-2.21,0-.97-.52-2.1-2.35-2.1h-.69c-.6,0-.99,.34-.99,.97v3.35Z"/>
        <path d="M109.49,45.21l-.69,2.13c-.04,.11-.08,.25-.08,.46,0,.52,.39,.56,.59,.56h.39v.45h-3.04v-.45h.46c.59,0,1.09-.6,1.32-1.29l2.76-8.49,1.23-.27,3.07,9.09c.28,.81,.64,.95,1.04,.95h.31v.45h-3.45v-.45h.42c.21,0,.57-.2,.57-.62,0-.15-.04-.25-.13-.52l-.67-2.02h-4.1Zm2.02-6.16l-1.86,5.71h3.8l-1.93-5.71Z"/>
        <path d="M125.93,41.1c-.52-.78-1.53-2.31-3.4-2.31-2.24,0-3.35,2.28-3.35,4.72,0,2.72,1.32,4.93,3.67,4.93,1.99,0,2.97-1.82,3.33-2.54l.38,.22c-.55,1.08-1.53,2.96-4.13,2.96-2.96,0-4.4-2.4-4.4-5.15,0-3.28,2.03-5.6,4.4-5.6,.35,0,.76,.04,1.18,.17,.11,.03,.77,.21,.85,.21,.29,0,.67-.17,.94-.34l.99,2.52-.46,.21Z"/>
        <path d="M130.15,43.74v3.66c0,.6,.35,.97,.99,.97h1.08c2.35,0,3.1-1.29,3.7-2.31l.41,.18-.98,2.58h-7.83v-.45h.52c.57,0,.99-.31,.99-.97v-7.38c0-.63-.39-.97-.99-.97h-.52v-.46h7.65l.91,2.27-.38,.24c-.77-1.23-1.67-2.04-3-2.04h-1.56c-.59,0-.99,.32-.99,.97v3.28h1.6c1.06,0,1.58-.45,1.58-1.39v-.36h.45v4.01h-.45v-.42c0-1.01-.73-1.39-1.58-1.39h-1.6Z"/>
        <path d="M148.45,40.79l-.42,.17c-.45-.78-1.26-2.17-3.05-2.17-1.58,0-1.92,1.25-1.92,1.85,0,1.16,.84,1.6,2.68,2.24,.48,.17,.94,.36,1.37,.59,1.09,.56,1.83,1.22,1.83,2.59,0,1.89-1.48,3.03-3.04,3.03-.49,0-.98-.11-1.5-.28-.39-.14-.49-.14-.57-.14-.45,0-.95,.29-1.12,.39l-1.04-2.7,.53-.25c.38,.66,.6,1.01,1.11,1.46,.59,.52,1.48,1.04,2.52,1.04,.94,0,2.07-.63,2.07-2.12,0-1.29-.83-1.74-2.61-2.35-1.98-.67-3.25-1.4-3.25-3.08,0-1.47,1.02-2.72,2.82-2.72,.27,0,.62,.03,.99,.11,.15,.04,.73,.15,.84,.15,.49,0,.64-.14,.78-.27l.97,2.47Z"/>
        <path d="M152.77,45.21l-.69,2.13c-.04,.11-.08,.25-.08,.46,0,.52,.39,.56,.59,.56h.39v.45h-3.04v-.45h.46c.59,0,1.09-.6,1.32-1.29l2.76-8.49,1.23-.27,3.07,9.09c.28,.81,.64,.95,1.04,.95h.31v.45h-3.45v-.45h.42c.21,0,.57-.2,.57-.62,0-.15-.04-.25-.13-.52l-.67-2.02h-4.1Zm2.02-6.16l-1.86,5.71h3.8l-1.93-5.71Z"/>
        <path d="M165.96,42.51l3.11,4.97c.32,.52,.97,.88,1.65,.88h.2v.45h-3.96v-.45h.34c.27,0,.56-.15,.56-.46,0-.21-.1-.42-.2-.57l-2.48-3.96-1.33,1.44v2.59c0,.62,.39,.97,1.01,.97h.39v.45h-3.89v-.45h.39c.57,0,.99-.31,.99-.97v-7.38c0-.63-.39-.97-.99-.97h-.39v-.46h3.89v.46h-.39c-.6,0-1.01,.34-1.01,.97v4.13l3.82-4.17c.14-.15,.18-.34,.18-.45,0-.41-.43-.48-.74-.48h-.36v-.46h3.95v.46h-.25c-1.27,0-1.88,.6-2.24,1.01l-2.24,2.45Z"/>
        <path d="M175.83,39.05h-.41c-.6,0-1.01,.32-1.01,.97v5.81c0,1.51,.94,2.72,2.63,2.72,1.37,0,2.62-.88,2.62-2.83v-5.43c0-1.23-.76-1.23-1.33-1.23v-.46h3.19v.46h-.29c-.81,0-1.11,.5-1.11,1.23v5.5c0,1.7-.98,3.29-3.28,3.29-1.41,0-3.54-.74-3.54-3.11v-5.95c0-.63-.39-.97-.99-.97h-.49v-.46h4.01v.46Z"/>
        <path d="M186.45,38.59c1.72,0,3.87,.49,3.87,2.44,0,.64-.24,1.3-.92,1.88-.57,.48-1.09,.63-1.67,.78l1.6,3.5c.32,.7,.88,1.18,1.68,1.18h.24v.45h-2.4l-2.27-5h-1.62v3.59c0,.62,.39,.97,.99,.97h.45v.45h-3.99v-.45h.43c.62,0,1.01-.35,1.01-.97v-7.38c0-.6-.36-.97-1.01-.97h-.43v-.46h4.05Zm-1.5,4.78h1.5c1.3,0,2.54-.7,2.54-2.21,0-.97-.52-2.1-2.35-2.1h-.69c-.6,0-.99,.34-.99,.97v3.35Z"/>
        <path d="M195.03,45.21l-.69,2.13c-.04,.11-.08,.25-.08,.46,0,.52,.39,.56,.59,.56h.39v.45h-3.04v-.45h.46c.59,0,1.09-.6,1.32-1.29l2.76-8.49,1.23-.27,3.07,9.09c.28,.81,.64,.95,1.04,.95h.31v.45h-3.45v-.45h.42c.21,0,.57-.2,.57-.62,0-.15-.04-.25-.13-.52l-.67-2.02h-4.1Zm2.02-6.16l-1.86,5.71h3.8l-1.93-5.71Z"/>
        <path d="M208.37,39.05h-.43c-.56,0-.99,.29-.99,.97v8.05c0,1.79-1.15,3.03-2.73,3.03-.73,0-1.34-.32-1.34-1.01,0-.32,.2-.81,.8-.81,.42,0,.62,.13,.81,.74,.08,.27,.25,.36,.52,.36,.63,0,.84-.53,.84-1.37v-8.99c0-.63-.39-.97-.99-.97h-.57v-.46h4.1v.46Z"/>
        <path d="M214.53,49.08c-2.7,0-4.58-2.21-4.58-5.38s1.85-5.38,4.58-5.36c2.69,0,4.57,2.21,4.57,5.36s-1.86,5.38-4.57,5.38Zm3.24-5.5c0-1.33-.39-4.79-3.24-4.79-3.14,0-3.25,4.12-3.25,5.06,0,1.39,.42,4.78,3.25,4.78,3.11,0,3.24-4.08,3.24-5.04Z"/>
        <path d="M226.99,40.79l-.42,.17c-.45-.78-1.26-2.17-3.05-2.17-1.58,0-1.92,1.25-1.92,1.85,0,1.16,.84,1.6,2.68,2.24,.48,.17,.94,.36,1.37,.59,1.09,.56,1.83,1.22,1.83,2.59,0,1.89-1.48,3.03-3.04,3.03-.49,0-.98-.11-1.5-.28-.39-.14-.49-.14-.57-.14-.45,0-.95,.29-1.12,.39l-1.04-2.7,.53-.25c.38,.66,.6,1.01,1.11,1.46,.59,.52,1.48,1.04,2.52,1.04,.94,0,2.07-.63,2.07-2.12,0-1.29-.83-1.74-2.61-2.35-1.98-.67-3.25-1.4-3.25-3.08,0-1.47,1.02-2.72,2.82-2.72,.27,0,.62,.03,.99,.11,.15,.04,.73,.15,.84,.15,.49,0,.64-.14,.78-.27l.97,2.47Z"/>
        <path d="M232.34,39.05h-.41c-.6,0-1.01,.32-1.01,.97v5.81c0,1.51,.94,2.72,2.63,2.72,1.37,0,2.62-.88,2.62-2.83v-5.43c0-1.23-.76-1.23-1.33-1.23v-.46h3.19v.46h-.29c-.81,0-1.11,.5-1.11,1.23v5.5c0,1.7-.98,3.29-3.28,3.29-1.41,0-3.54-.74-3.54-3.11v-5.95c0-.63-.39-.97-.99-.97h-.49v-.46h4.01v.46Z"/>
        <path d="M243.31,39.05h-.67c-.57,0-.99,.31-.99,.97v7.38c0,.63,.39,.97,.99,.97h.67v.45h-4.44v-.45h.66c.57,0,1.01-.31,1.01-.97v-7.38c0-.63-.39-.97-1.01-.97h-.66v-.46h4.44v.46Z"/>
      </g>
    </g>
  </g>
</svg>