<?xml version="1.0" encoding="UTF-8"?>
<svg id="_レイヤー_2" data-name="レイヤー 2" xmlns="http://www.w3.org/2000/svg" viewBox="0 0 719.36 162.62">
  <defs>
    <style>
      .cls-1 {
        fill: #80562e;
      }

      .cls-2 {
        fill: #d8d6c4;
      }

      .cls-3 {
        fill: #ad7e45;
      }

      .cls-4 {
        fill: #221714;
        stroke: #221714;
        stroke-miterlimit: 10;
        stroke-width: .98px;
      }
    </style>
  </defs>
  <g id="_レイヤー_1-2" data-name="レイヤー 1">
    <g>
      <g>
        <g>
          <path class="cls-1" d="m139.14,82.76l-3.9-4.08c7.32-3.06,8.85-6.27,9.07-12.28h-13.41v-4.63h30.43v4.63h-11.77c-.29,7.18-2.19,12.17-10.42,16.36Zm17.09-29.81v.91l2.04-1.68c1.42,1.31,2.26,2.29,3.32,3.9l-2.08,1.68c-1.06-1.57-1.97-2.66-3.28-3.86v3.68h-21.24v-4.63h21.24Zm4.66-4.52c1.46,1.27,2.26,2.3,3.42,3.9l-2.11,1.68c-1.06-1.57-1.93-2.62-3.35-3.86l2.04-1.71Z"/>
          <path class="cls-1" d="m197.15,64.03v5.32h-29.88v-5.32h29.88Z"/>
          <path class="cls-1" d="m212.9,63.05c2.15,1.2,4.77,2.95,6.85,4.48,1.64-2.7,2.77-5.54,3.32-8.31h-9.4c-2.62,4.08-5.98,8.05-9.18,10.6l-3.9-3.24c5.03-3.61,9.91-10.68,11.92-16.03l4.88,1.57c-.33.84-.69,1.68-1.13,2.51h9.58l3.53,2c-2.7,12.06-9.36,22.12-19.82,26.13l-3.53-4.23c4.3-1.42,7.91-3.94,10.71-7-2.19-1.71-4.85-3.57-7-4.77l3.17-3.72Z"/>
          <path class="cls-1" d="m251.75,54.23c3.24-.26,7.29-.69,10.09-1.06l.62,4.96c-1.71.11-4.63.47-5.94.77-.66.14-2.11.8-2.73,1.24-4.19,2.84-6.45,6.23-6.45,10.24s3.39,6.52,12.42,6.89l-.66,4.99c-10.82-.36-16.98-4.19-16.98-11.66,0-4.41,2.15-8.38,5.87-11.48-3.64.36-9.98.84-14.39,1.09l-.4-4.88c5.03-.18,14.68-.76,18.55-1.09Zm6.08,8.23c1.02,1.24,2.15,3.02,2.92,4.63l-2.51,1.42c-.69-1.57-1.75-3.24-2.84-4.63l2.44-1.42Zm4.37-2.08c1.06,1.24,2.15,2.99,2.92,4.59l-2.55,1.38c-.66-1.57-1.68-3.21-2.77-4.63l2.4-1.35Z"/>
          <path class="cls-1" d="m269.58,83.71c-1.06-1.24-2.11-2.48-3.24-3.75,7-1.42,9.44-4.08,10.38-7.94h-5.25v-21.54h24.34v21.54h-6.56v4.7c0,1.64.25,1.89,1.46,1.93,1.06.04,2.77.04,3.9,0,1.13-.04,1.28-.29,1.35-3.72l4.63.73c-.44,6.78-1.31,7.58-5.61,7.69-1.42.04-3.46.04-4.77,0-4.81-.15-5.83-1.28-5.83-6.6v-4.74h-2.73c-1.24,5.68-4.12,9.47-12.06,11.7Zm6.63-27.04h14.65v-2.19h-14.65v2.19Zm0,5.65h14.65v-2.19h-14.65v2.19Zm0,5.68h14.65v-2.22h-14.65v2.22Z"/>
          <path class="cls-1" d="m325.95,51.86l2.37,3.5c-2.73,2.19-6.78,5.65-9.22,7.98,1.06-.33,2.19-.51,3.39-.51,5.98,0,9.4,4.52,9.4,9.47,0,6.2-4.3,10.17-12.94,10.17-6.01,0-9.25-2.48-9.25-6.16,0-3.21,2.95-5.79,7.29-5.79s6.67,2.3,7.47,6.52c1.57-.91,2.4-2.41,2.4-4.55,0-2.99-2.33-5.58-5.79-5.58-1.17,0-3.1.26-4.48.73-3.21,1.13-7.21,4.19-10.53,7.29l-3.28-3.79c5.5-3.94,12.5-10.17,16.43-14.14-2.91.29-8.38.58-12.32.76l-.29-4.77c5.47,0,14.58-.51,19.35-1.13Zm-8.93,22.55c-1.79,0-2.92.73-2.92,1.82,0,1.24,1.28,2,4.37,2,.66,0,1.28,0,1.86-.07-.29-2.41-1.35-3.75-3.32-3.75Z"/>
          <path class="cls-1" d="m141.86,106.86h-10.71v20.55h-2.95v-23.39h13.66v2.84Z"/>
          <path class="cls-1" d="m176.92,131.85v4.66h-22.96v1.79h-4.81v-21.79h-5.14v-4.63h5.14v-7.25h4.81v7.25h4.52v-7.62h4.7v7.62h4.81v-7.58h4.85v7.58h5.28v4.63h-5.28v11.66h-14.36v-11.66h-4.52v15.34h22.96Zm-13.74-15.34v7.21h4.81v-7.21h-4.81Z"/>
          <path class="cls-1" d="m187.57,135.24v2.08h-4.7v-30.1h29.3v30.1h-4.92v-2.08h-19.68Zm7.21-16.47v-7.11h-7.21v7.11h7.21Zm0,11.95v-7.51h-7.21v7.51h7.21Zm12.46-11.95v-7.11h-7.65v7.11h7.65Zm0,11.95v-7.51h-7.65v7.51h7.65Z"/>
          <path class="cls-1" d="m227.3,137.21v1.09h-4.74v-12.06c-1.06.58-2.11,1.13-3.21,1.64l-2.77-3.97c5.43-2,10.64-5.83,15.01-11.84h4.41c4.55,6.05,9.88,9.69,15.41,11.84l-2.99,4.01c-1.02-.47-2.04-.98-3.06-1.53v11.91h-4.88v-1.09h-13.19Zm3.32-30.97c-2.26,3.61-5.54,6.85-8.96,9.29l-3.93-2.88c3.32-2.04,6.45-4.85,8.6-8.02l4.3,1.6Zm9.8,16.8c-2.26-1.82-4.48-4.01-6.67-6.71-2.11,2.7-4.26,4.88-6.49,6.71h13.15Zm.07,9.8v-5.39h-13.19v5.39h13.19Zm.47-28.35c3.86,2.99,6.96,5.72,9.4,8.53l-4.34,2.29c-2.22-2.77-5.25-5.65-8.93-8.67l3.86-2.15Z"/>
          <path class="cls-1" d="m287.28,132.36v4.41h-27.26v1.53h-4.85v-32.79h31.41v4.37h-26.56v22.48h27.26Zm-22.15-19.93c3.03,1.89,5.79,3.79,8.27,5.68,1.86-2.48,3.32-5.17,4.41-8.05l4.59,1.38c-1.38,3.39-3.21,6.59-5.43,9.51,2.73,2.33,5.1,4.63,7.03,6.96l-3.79,3.43c-1.71-2.26-3.79-4.55-6.27-6.81-2.66,2.88-5.76,5.39-9.26,7.58l-3.86-3.1c3.72-2.11,6.96-4.63,9.66-7.43-2.59-2.11-5.5-4.23-8.71-6.23l3.35-2.92Z"/>
          <path class="cls-1" d="m299.28,113.38c.55-2.66.95-5.39,1.2-8.12l4.99.62c-.33,2.4-.77,4.81-1.28,7.18.25-.04.51-.04.73-.04,5.87,0,8.45,2.77,8.45,8.71s-.98,10.24-2.33,12.5c-1.28,2.19-2.88,2.99-5.46,2.99-1.86,0-3.83-.22-5.39-.62l.29-4.59c1.35.44,2.84.62,4.04.66,1.13,0,1.64-.11,2.19-.87,1.09-1.49,1.79-4.88,1.79-9.84,0-3.53-.98-4.45-3.83-4.45-.51,0-1.02.04-1.53.04-1.93,7.25-4.55,13.85-7.76,18.62l-4.41-2.37c2.99-3.97,5.5-9.55,7.21-15.74-2.11.29-4.3.69-6.38,1.17l-.95-4.59c2.66-.51,5.68-.95,8.42-1.24Zm25.07,13.19l-4.92,1.28c-.51-4.77-2.22-9.88-6.05-13.77l4.01-2.48c4.19,4.37,6.49,10.42,6.96,14.98Zm-7.25-20.99c1.49,1.31,2.33,2.26,3.54,3.9l-2.19,1.79c-1.09-1.68-2.04-2.62-3.46-3.9l2.11-1.79Zm4.15-2.3c1.49,1.28,2.29,2.26,3.53,3.9l-2.22,1.75c-1.09-1.6-2-2.62-3.42-3.9l2.11-1.75Z"/>
          <path class="cls-1" d="m341.33,133.97c4.19.11,14.39.07,19.28-.18l-.76,3.93c-4.7.15-14.58.18-19.17.04-3.39-.11-5.57-.84-7.98-3.28-1.86,1.57-3.61,2.81-5.17,3.94l-1.79-4.19c1.28-.69,2.73-1.53,4.23-2.55v-8.6h-3.72v-4.19h8.2v12.03c2.11,2.33,4.12,2.99,6.89,3.06Zm-11.4-29c2.15,2.33,3.75,4.48,4.74,6.52l-4.04,2.22c-.87-2.11-2.29-4.34-4.23-6.63l3.54-2.11Zm16.47,24.56c-1.68,1.68-4.04,3.02-6.27,4.12l-3.75-2.48c1.93-.69,3.94-1.71,5.5-2.84h-6.27v-3.53h5.21v-2.26h-4.59v-3.46h4.59v-1.35h-.66c-3.68-.07-4.34-.87-4.34-4.66v-3.32h6.2v-1.49h-6.45v-3.1h10.42v7.69h-6.23v.22c0,1.13.15,1.31.84,1.35h2.15c.62-.04.73-.11.76-1.27l3.72.58c-.29,3.06-.91,3.83-3.24,3.97h1.38v1.38h4.12v-1.38h1.93c-2.7-.26-3.21-1.35-3.21-4.63v-3.32h6.71v-1.49h-7.03v-3.1h11.08v7.69h-6.74v.22c0,1.13.15,1.31.91,1.35h2.29c.69-.04.77-.15.8-1.27l3.83.58c-.36,3.46-1.09,4.01-4.3,4.04h-1.64v1.31h4.81v3.46h-4.81v2.26h5.83v3.53h-6.63c2.4,1.24,4.41,2.48,6.3,3.72l-4.15,1.86c-1.79-1.35-4.01-2.7-6.63-4.19l2.59-1.38h-8.13l3.1,1.2Zm3.1-4.74v-2.26h-4.12v2.26h4.12Z"/>
          <path class="cls-1" d="m372.39,106.53c-1.06,4.55-1.6,10.2-1.6,15.41s.58,10.24,1.82,13.92l-4.99,1.24c-1.28-4.34-1.79-9.4-1.79-14.9s.55-11.59,1.49-16.36l5.06.69Zm12.1,6.08c-.11-2.55-.15-4.96-.15-6.81h5.17c-.04.51-.04,1.06-.07,1.64l1.75-1.28c1.38,1.42,2.19,2.44,3.21,4.08l-2.19,1.64c-.91-1.49-1.71-2.55-2.77-3.68-.04,1.02-.04,2.08-.04,3.1v1.31h5.39v4.52h-5.25c.11,3.42.29,6.74.4,9.11,2.15.98,4.01,2.3,5.79,3.75l-2.88,3.79c-.98-.95-2-1.79-3.03-2.48-.58,3.61-2.8,5.54-7.54,5.54-5.1,0-8.02-2.99-8.02-6.27s3.17-6.01,7.83-6.01c.98,0,1.93.07,2.84.22-.07-2.19-.22-4.88-.33-7.65h-9.84v-4.52h9.69Zm-2.44,15.96c-2.11,0-3.32.84-3.32,2.04,0,1.09,1.2,2.04,3.28,2.04,2.51,0,3.02-1.02,3.06-3.68-.98-.25-1.97-.4-3.02-.4Zm12.24-25.43c1.42,1.31,2.19,2.37,3.28,4.04l-2.22,1.6c-.98-1.64-1.82-2.73-3.21-4.04l2.15-1.6Z"/>
          <path class="cls-1" d="m414.08,112.1c-.58,1.13-1.27,2.99-1.64,4.3,1.64-1.64,4.37-4.01,5.87-5.03,1.75-1.17,3.39-1.68,4.77-1.68,2.66,0,4.55,1.75,4.55,5.72,0,1.89-.22,4.41-.47,6.92-.29,2.84-.55,5.72-.55,7.36,0,1.09.33,1.38,1.09,1.38,1.28,0,3.32-.69,4.92-1.93l.47,5.25c-2.26,1.06-4.74,1.57-6.27,1.57-3.35,0-5.1-1.6-5.1-6.12,0-1.97.18-4.23.4-6.96.18-1.93.47-4.41.47-6.08,0-1.42-.4-1.89-1.09-1.89-.62,0-1.17.25-1.93.8-1.86,1.24-4.99,3.97-7.8,6.85-.11,5.79-.14,11.44-.14,14.83h-5.07c.11-2.33.18-5.54.25-9.07-1.31,1.68-2.62,3.5-3.72,5.03l-3.75-3.28c2.15-2.55,4.92-6.23,5.98-8.09.58-.98,1.17-2.22,1.68-3.61l.04-3.02c-1.79.18-4.37.4-6.3.55l-.36-4.63c1.6,0,4.34-.15,6.7-.36.04-2.22.07-4.19.07-5.68h5.06c-.07,1.46-.15,3.35-.22,5.5l2.08,1.38Z"/>
          <path class="cls-1" d="m458.61,106.53l2.37,3.5c-2.73,2.19-6.78,5.65-9.22,7.98,1.06-.33,2.19-.51,3.39-.51,5.98,0,9.4,4.52,9.4,9.47,0,6.19-4.3,10.17-12.94,10.17-6.01,0-9.26-2.48-9.26-6.16,0-3.21,2.95-5.79,7.29-5.79s6.67,2.29,7.47,6.52c1.57-.91,2.4-2.4,2.4-4.55,0-2.99-2.33-5.57-5.79-5.57-1.17,0-3.1.25-4.48.73-3.21,1.13-7.21,4.19-10.53,7.29l-3.28-3.79c5.5-3.94,12.5-10.17,16.43-14.14-2.91.29-8.38.58-12.31.77l-.29-4.77c5.47,0,14.58-.51,19.35-1.13Zm-8.93,22.55c-1.79,0-2.91.73-2.91,1.82,0,1.24,1.28,2,4.37,2,.66,0,1.28,0,1.86-.07-.29-2.41-1.35-3.75-3.32-3.75Z"/>
          <path class="cls-1" d="m472.72,127.95v-7.32h-3.13v-4.26h3.13v-5.72h-3.71v-4.34h11.51v4.34h-3.13v5.72h2.66v4.26h-2.66v6.3c1.13-.25,2.19-.51,3.1-.73l.37,4.01c-3.35,1.06-8.42,2.51-11.44,3.28l-.98-4.7c1.13-.22,2.66-.51,4.3-.84Zm16.36,5.03v-3.5h-7.32v-4.19h7.32v-2.88h-7.47v-16.91h20v16.91h-7.83v2.88h7.65v4.19h-7.65v3.5h9.04v4.23h-23.65v-4.23h9.91Zm-3.02-20.77h3.02v-2.59h-3.02v2.59Zm0,6.09h3.02v-2.66h-3.02v2.66Zm10.97-6.09v-2.59h-3.24v2.59h3.24Zm0,6.09v-2.66h-3.24v2.66h3.24Z"/>
          <path class="cls-1" d="m511.9,136.66v1.68h-4.74v-27h12.24v-7.14h4.88v7.14h12.86v27h-4.88v-1.68h-20.37Zm7.51-15.01v-5.83h-7.51v5.83h7.51Zm0,10.53v-6.16h-7.51v6.16h7.51Zm12.86-10.53v-5.83h-7.98v5.83h7.98Zm0,10.53v-6.16h-7.98v6.16h7.98Z"/>
          <path class="cls-1" d="m541.42,135.72h10.71v-20.55h2.95v23.39h-13.66v-2.84Z"/>
          <path class="cls-1" d="m569.77,133.38c0,2.66-2.19,4.92-4.96,4.92s-4.96-2.26-4.96-4.96,2.22-4.96,4.96-4.96,4.96,2.19,4.96,4.96v.04Zm-7.83,0c0,1.53,1.28,2.84,2.88,2.84s2.92-1.28,2.92-2.88-1.31-2.92-2.92-2.92-2.88,1.31-2.88,2.92v.04Z"/>
        </g>
        <g>
          <path class="cls-3" d="m671.43,26.81c-.12.22.15.57-.19.7-.22-.18-.37-.52-.7-.55-.42.14-.86.28-1.25.41-.34-.12-.54-.42-.9-.42-.24-.1-.49.19-.86.15-.53-.26-1.16-.3-1.74-.19-.26.19-.31.62-.63.54-.29-.03-.27-.54-.76-.55-.62.04-1.43.19-2.31-.21-.11.54-.46.74-.83.9-.05.02-.07.14-.1.22.1.33.19.66.43.97.19.03.41.06.65.1-.07.16-.12.26-.17.38.21.34.51.44.82.49.14-.1.26-.18.44-.32.96.55,1.89.51,2.84.2.2.06.41.11.57.16.31-.15.57-.27.82-.39,1.59.47,3.16.61,4.68.12.25-.29.35-.56.34-1.03-.18-.54-.28-1.25-.64-1.76-.23-.08-.4-.1-.52.09Z"/>
          <path class="cls-3" d="m260.13,26.76c-.16.06-.36.13-.55.2-.17-.16-.34-.32-.43-.4-.37-.13-.57.1-.83.16-.39-.16-.8-.32-1.3-.21-.13.25-.34.49-.64.5-.1,0-.2-.04-.3-.05-.03-.18-.05-.35-.08-.55-.12-.12-.25-.27-.4-.39-.05-.05-.13-.05-.2-.07q-.6.28-1.33.24c-.24.16-.49.31-.74.48.08.42.15.81.23,1.21-.24.47-.2,1.03-.29,1.32-.19.53-.61.49-.63.96.32.14.62.43.99.21-.02-.18-.04-.35-.06-.53.31-.22.61-.43.92-.65.46.5.88.98,1.42,1.3.29.06.6.12.9.18.27-.22.43-.63.78-.65.13.07.26.14.42.22.33-.24.75-.45,1.1-.27.48.24.99.1,1.45.37.05.03.13,0,.22,0,.2-.21.41-.44.67-.71-.16-.38.19-.7.11-1.2-.51-.41-.65-1.38-1.4-1.66Zm-5.95,1.24c-.1,0-.12-.06-.06-.11.02-.02.07-.03.09-.02.02,0,.04.05.05.08-.03.02-.06.05-.08.05Zm2.07.81c-.1-.02-.12-.08-.03-.14.03-.02.07,0,.1.03.01,0,.02.05.03.08-.03.01-.06.04-.09.04Z"/>
          <path class="cls-3" d="m101.17,25.78c-.27-.07-.4.1-.55.2-.27.04-.5-.37-.79-.1-.02.19.21.27.05.68-.11.16-.33.49-.53.8-.29-.16-.3-.43-.32-.7-.02-.29.25-.55.06-.89-.54-.08-1.05.13-1.53.29-.2-.24-.51-.18-.63-.51.27-.11.57.06.83-.14.1-.12.22-.22.14-.48-.62.13-1.26.19-1.88.04-.45-.11-.9-.12-1.35-.19-.06,0-.13.06-.19.09-.03.38,0,.79-.35,1.07-.13-.15-.38-.02-.49-.3.06-.05.11-.11.17-.15.09-.05.2-.07.13-.33-.39-.16-.81-.21-1.22-.02-.08.45.23.6.27.87.07.82.14,1.59.21,2.42.14.08.35.29.45.23.45-.27.83.18,1.27.12.09-.1.2-.2.3-.3h0c.31-.08.61.28.93.03.32-.24.58.3.97.15.06-.17.13-.48.42-.43.24.06.29.49.77.54.29-.02.79.1,1.25-.08.1-.33-.33-.37-.18-.71.48-.05.63.68,1.07.74.22-.05.38-.22.47-.43.11-.3-.12-.68.21-.86.26.02.48.46.78.14-.05-.31.22-.56.03-.99-.17-.31-.5-.57-.76-.79Zm-6.28,2.31s.06-.05.09-.08c.22.03.18.27.22.44-.16-.04-.26-.17-.32-.36Zm5.99-1.62l-.05-.05.07-.03v.08Z"/>
          <path class="cls-3" d="m534.23,28.03c-.03-.17-.06-.34-.09-.52-.22-.05-.42-.1-.6-.14-.04-.16-.07-.28-.1-.4-1.09-.18-2.87,0-3.96.5-.26-.1-.18-.58-.46-.65-1.56-.35-1.91-.3-2.45.33.07.09.13.17.19.25-.15.05-.35-.03-.51.17-.22.44-.24,1.11-.76,1.36-.17.14-.39-.17-.6.07-.07.36-.45.54-.41.99.35.47.68-.08.99,0,.39.09.76.17,1.09-.07.2.15.34.3.61.26.38-.51,1.05-.08,1.48-.54.31.05.38.48.67.46.26.08.47-.13.67-.18.25.08.47.27.64.21.73-.26,1.39.03,2.06.26.09.03.2-.02.34-.04.04-.16.09-.31.13-.47.21-.18.52-.29.37-.7-.27-.22-.51.27-.72-.1-.02-.26.08-.42.31-.56.44-.05.85.1,1.13.66.05.1.1.12.14.09.21-.18.41-.3.38-.58-.07-.42-.39-.43-.53-.67Zm-3.13-.51q.18-.28.55-.22-.24.31-.55.22Zm2.02,2.33c-.09-.01-.18-.03-.3-.04.17-.23.25-.17.3.04Z"/>
          <path class="cls-3" d="m719.27,27.93c-.14-.35-.29-.59-.56-.64-.21.03-.32.18-.35.45-.01.25.25.45.12.72-.09.29-.27.42-.54.54-.44-.2-.99-.04-1.45-.38-.3.13-.57.24-.82.35-.16.14-.09.48-.38.49-.12-.03-.29-.08-.45-.11-.02-.19-.03-.31-.05-.46-.48-.04-.97-.08-1.44-.12-.13-.2-.14-.47-.46-.56-.05,0-.22,0-.36,0-.18-.21-.16-.57-.52-.65-.38.08-.87.09-1.24.52q.2,1.44-.19,2.02c-.17.02-.34-.19-.58.06-.07.41-.37.71-.78.97.92.62,1.88.21,2.65.58.37-.16.42-.62.79-.73.11.02.28.04.46.07.17.25.33.49.48.71,1.67-.16,3.14-.66,4.63-.89.41-.39.84-.72,1.13-1.33-.23-.51-.06-1.09-.09-1.61Z"/>
          <path class="cls-3" d="m45.23,25.43c-.22.18-.39.33-.57.45-.21.15-.5,0-.7.25-.1.23-.16.5-.37.63q-.33.05-.65-.16c-.1-.26.25-.31.16-.57-.31-.56-.72.01-1.18-.15-.02-.04-.1-.18-.2-.35-.16.11-.31.21-.5.34-.57-.36-1.12.24-1.69.11-.15.2-.27.36-.38.5-.22.13-.42.15-.64.03-.18-.03-.11-.47-.38-.37-.18.19-.34.46-.62.41-.2-.32-.47-.44-.75-.42-.19.1-.27.23-.31.43.02.43.03.88.34,1.24.41.06.77.31,1.03.71.03.23-.25.14-.19.44.42.25.85-.05,1.22-.16.15.17.26.28.35.38.32.05.57-.12.81-.36.02-.1.04-.21.06-.32.26.1.5.32.79.22.33-.03.5-.51.73-.49.8.12,1.33.7,1.88.92.43-.02.42-.58.8-.67.43.21.95.3,1.49.25.31-.21.63-.4.94-.61.08-.06.13-.19.2-.29-.06-.42-.18-.78-.39-1.16-.48-.27-.97-.61-1.31-1.25Zm-8.02,1.61c-.08-.06-.12-.19-.21-.34.21-.04.37-.07.54-.1.03.15.06.29.09.42-.15.14-.29.11-.41.02Zm1.29,1.08q.13-.2.37-.04c-.12.15-.24.16-.37.04Zm1.58-.13v.44c-.08-.09-.17-.19,0-.44Zm.32-1.16c-.1-.12-.17-.21-.27-.32.32-.16.37-.06.27.32Z"/>
          <path class="cls-3" d="m384.17,27.19c-.53.05-.99-.37-1.49-.42-.1.18-.18.32-.3.54-.28-.58-.71-.13-1.05-.26-.13-.13-.25-.24-.4-.39-.28.24-.78-.01-.88.66.08.17.15.32.21.46-.17.26-.29.55-.61.64-.19.07-.34-.2-.61-.23-.19.17-.44.33-.72.3-.25-.07-.19-.64-.57-.51-.18.31-.22.69-.26,1.08.22-.01.47-.17.43.29-.32.28-.74-.05-1.17.47-.19.31-.47.84-.7,1.4.43.39.69-.33,1.07-.15.21.15.42.31.63.46.25-.23.66-.04.8-.52-.14-.12-.24-.21-.35-.31.09-.18.23-.24.37-.27.23.07.34.49.65.34.18-.09.24-.3.33-.48.23-.04.49.01.65-.31.09-.19.25-.25.42-.29-.05-.26-.06-.51.25-.67.35.45.72.91.99,1.25,1.18.7,2.18.38,3.13-.21.3.14.56.35.88.03.08-.34-.05-.82.27-1.1-.19-.39-.35-.74-.47-.99-.52-.4-1.1-.33-1.5-.8Zm-4.63,3.05s-.08,0-.09-.01c-.17-.31-.34-.62-.51-.94.1-.06.16-.1.22-.14.23.04.26.41.46.42.07.29,0,.49-.09.68Zm3.9-1.76c-.02.14-.08.22-.2.27-.06-.08-.12-.17-.19-.26.14-.11.26-.11.39-.01Zm-1.06,1.39c-.06-.46.08-.65.38-.67.09.28.26.31.48.29.16-.01.22.16.22.37-.36,0-.72,0-1.08,0Z"/>
          <path class="cls-3" d="m653.7,27.15c-.49-.28-.97-.57-1.47-.53-.31-.24-.48-.64-.76-.67-.97-.13-1.59.85-2.44.85,0,.39.39.49.28.87-.16.14-.32.16-.57-.07-.06-.11.02-.45-.16-.58-.47-.22-.6.46-1.03.52-.25.08-.62-.26-.95.14.11.68.68.46.97.74-.05.24-.18.31-.32.38-.33-.03-.67-.32-1.06,0-.02.12-.06.29-.08.46-.02.13,0,.26,0,.37q.47.26,1.2.09c.36.1.31.54.44.84.14-.03.27-.05.4-.08.25.1.37.44.65.46.11-.1.21-.2.3-.28.3-.02.58-.04.82-.05.27.08.46.36.76.25.04-.08.12-.18.14-.3.02-.11-.07-.26.15-.39.65-.08,1.38-.16,2.1-.25.27-.24.57-.4.76-.82-.11-.61.41-1.33-.12-1.96Zm-2.98,2.34c-.02-.07-.05-.13-.07-.21,0-.01.05-.04.07-.06.02.06.05.13.06.2,0,.02-.04.05-.07.07Zm.61-1.68c-.2.13.02.48-.18.64-.08-.28-.15-.56-.23-.88.32-.14.56-.13.82.05-.14.07-.26.12-.4.18Zm.75,1.21c-.09,0-.11-.05-.05-.11.02-.02.06-.02.08-.01.02,0,.03.05.04.07-.03.02-.05.05-.07.05Zm.54-1.59c-.05-.01-.1-.05-.16-.08.08-.09.15-.12.22,0,0,0-.04.07-.06.07Z"/>
          <path class="cls-3" d="m338.35,27.86c.03-.17.06-.38.1-.58-.17-.35-.39-.64-.67-.84-.05-.04-.14,0-.21,0-.11.14-.06.43-.2.48-.53.14-.47-.52-.74-.69-.14-.06-.27-.07-.42.08-.11.33-.23.69-.34.99.17.55.64.48.85.86-.07.29-.06.61-.23.85-.31.14-.52-.25-.87-.21-.36.1-.77.22-1.19.31-.14.03-.28-.02-.36-.27.12-.91.94-.72,1.33-1.22-.39-.49-.83-.49-1.24-.28-.14-.11-.15-.24-.15-.36-.3.09-.6.18-.84.25-.64-.23-.94-.9-1.36-1.26-.3-.03-.45.1-.5.43.2,1.07.89,1.85,1.07,2.93.06.36-.27.63-.09,1.1.45-.1.63.53,1.03.74.82.22,1.57-.42,2.34-.26.16-.17.25-.29.19-.6.01-.12-.32-.12-.2-.46.35-.42.75-.13,1.14-.12.01.29.02.5.03.72.29-.01.3.42.56.55.48-.36,1.17-.06,1.65-.66-.06-.4.39-.63.31-.91-.11-.41.21-.62.14-1-.36-.2-.87.03-1.15-.56Z"/>
          <path class="cls-3" d="m686.11,27.04c.1-.22.22-.44-.11-.65-.19.1-.41.22-.42.22-.34.29-.32.59-.53.66-.17-.01-.33-.08-.43-.33.05-.14.12-.31-.12-.52-.29.18-.7-.03-1.05.17-.58.33-1.17.3-1.63.22-.48.16-.83.26-1.17.38-.21.07-.39.21-.51.6-.01.29.16.68.02,1.13.42.04.26.7.66.89.4.17.89.3,1.28.63.62-.18,1.15.22,1.72.14.16.22.32.4.6.46.66-.27,1.39-.44,1.95-.95.17-.28.31-.48.43-.69.12-.22.23-.45.36-.69,0-.39.08-.79-.03-1.07-.27-.59-.64-.64-1.03-.6Zm-2.09.29c-.09.03-.18,0-.2-.14.08-.13.17-.11.25-.02.05.05.04.14-.05.17Z"/>
          <path class="cls-3" d="m127.16,26.72c-.15.2-.29.4-.48.65-.24-.45-.64-.34-.95-.51-.33-.28-.53-.77-.95-.86-.08.14-.16.28-.25.46-.15.05-.32.11-.43.14-.26-.11-.19-.43-.35-.55-.2-.09-.41-.09-.61,0-.09.13-.18.26-.25.34-.66.28-1.18-.35-1.65-.31-.44.11-.51.57-.92.71-.35-.4-.7-.79-1.3-.47-.04.45-.53.58-.64,1.09.18.44.05.97.3,1.4.28.48.76.89,1.04.75.07-.22.15-.46.21-.64.18-.22.35-.26.53-.2.21.16.27.53.55.6.58-.04,1.07-.36,1.46-.95.14.23.25.38.32.51.35.22.64-.14.96-.07.08.17.16.32.41.34.23-.28.57-.14.91-.17.39-.03.76-.13,1.03.13.4-.09.71-.16,1.02-.25.05-.01.09-.09.14-.14-.1-.17-.3-.3-.13-.56.19-.22.4.15.58-.02.19-.11.27-.29.29-.54-.19-.42-.42-.81-.85-.9Z"/>
          <path class="cls-3" d="m245.31,28.03c.12-.29.16-.57-.02-.83-.29-.02-.26.41-.49.49-.16-.15-.32-.31-.47-.45-.03-.51-.11-.95-.54-1.18-.34-.05-.72-.16-1.01.21-.08.2.05.42-.16.51-.3.02-.69-.1-.91.09-.35.3-.69.13-1.02.21l.02-.02s-.02,0-.03,0c0,.01,0,.01.01.03-.08.07-.15.14-.19.18-.81-.08-1.49-.59-2.27-.77-.28.38-.58.68-.93.88q-.81.04-1.17.31c.29.38.79-.04,1.06.48-.06.28-.13.59-.21.98-.15-.2-.24-.32-.33-.43,0,0,.01-.02.02-.02-.02,0-.03,0-.04,0l.02.04c-.36.1-.63.37-.83.71,0,.2.08.28.22.38.72-.44,1.57-.08,2.29-.49.25.1.45.18.63.25.11.16.19.3.27.42,1.04.39,2.11.32,3.15.55.26.06.58.08.79-.34-.04-.13-.08-.29-.12-.43-.23-.18-.42.21-.61.05-.2-.12-.4-.23-.52-.49.29-.19.64.12.92-.2-.02-.18-.04-.38-.06-.57.3-.09.57-.25.66-.16.43.56.07.74.03,1.02.29.14.17.67.45.81.22.02.35-.09.4-.34-.05-.16-.15-.31-.1-.5.36-.3.88-.25,1.17-.76-.26-.35-.64.01-.88-.33.27-.33.61.05.84-.23Zm-6.68-.35v-.11s.04.02.04.02l-.04.1Zm1.53-.02s.04.06.05.08c-.02.02-.04.05-.07.07-.02-.03-.05-.06-.05-.09,0-.03.04-.05.06-.07Zm1.07,1.97c-.64.39-.79-.67-1.32-.49.41-.37.78-.79,1.41-.72-.05.49-.25.84-.09,1.21Zm.4-2.18c.39-.08.72-.15.91.48-.33-.18-.6-.32-.91-.48Zm1.49,0c.23-.18.42-.18.61.01-.19.09-.38.19-.61-.01Z"/>
          <path class="cls-3" d="m566.41,28.4c-.24-.19-.53.31-.84.1-.23-.09-.23-.44-.45-.6-.24-.08-.52-.17-.81-.26-.62.26-1.22.68-1.93.79-.2-.08-.44-.17-.67-.27-.39.13-.76.26-1.15.39-.33-.06-.67-.31-1.01.01-.1.32.22.43.22.74-.06.31-.1.67-.27.92-.31.25-.72.19-.96.66.16.28.39.38.63.54.22-.03.46-.06.7-.09.21.06.34.39.61.27.1-.15.2-.31.34-.52.23.04.47.07.62.1.38.19.51.67.97.68.52-.44,1.27-.37,1.8-.96.26.2.46.36.68.52.38-.15.75-.28,1.11-.45.32-.14.54-.45.67-.83.1-.32.14-.68.2-.97-.13-.28-.18-.56-.46-.76Z"/>
          <path class="cls-3" d="m624.26,26.36c-.18.14-.32.26-.47.38-.35-.31-.74-.61-1.11-.47-.47.17-.79-.41-1.2-.24-.24.41-.23.95-.54,1.28-.33-.05-.24-.65-.69-.69-.21-.02-.33.43-.73.53-.2,0-.52,0-.83,0-.31-.06-.54-.47-.94-.23,0,.59,0,1.21,0,1.89.1.21.22.48.32.7.48.45,1.03.52,1.45.79.34-.03.37-.5.64-.55.55-.11,1.14.14,1.58-.24.39.15.7.26,1.02.38.7-.26,1.42-.51,2.12-.8.23-.09.47-.23.53-.6-.1-.47-.2-.94-.32-1.5-.32-.25-.58-.45-.83-.65Zm-2.4,1.37c.01-.17.08-.25.23-.27.09.31,0,.38-.23.27Z"/>
          <path class="cls-3" d="m216.08,27.72s0,.03,0,.04c.02,0,.03,0,.05-.01,0-.01-.01-.02-.02-.03,0,0-.02,0-.03,0Z"/>
          <path class="cls-3" d="m215.44,27.64c-.16.16-.32.11-.47-.06,0-.18.01-.36-.21-.56-.36-.04-.76-.29-1.07-.72-.4.24-.75.43-1.07.47-.23.25-.03.61-.26.77-.22,0-.32-.16-.38-.4,0-.28.33-.34.26-.7-.47-.16-.72.5-1.33.5-.19-.12-.57.07-.85.09-.31-.08-.44-.38-.7-.3-.03.11-.06.23-.07.27-.02.41.43.44.3.86-.19.08-.39.16-.59.24,0,.21.01.38.02.5-.21.46-.41.88-.58,1.32-.06.16-.02.35.11.49.25-.26.64-.05.87-.39.03-.18.06-.34.08-.52.45.3.4.89.52,1.35.35-.07.47-.48.83-.62.43-.01.88-.28,1.34-.53.67.62,1.41.81,2.22.61.13-.21.26-.42.37-.61.29-.04.4.41.69.32.46-.28.47-.92.68-1.28-.02-.44-.37-.55-.32-.9.07-.12.16-.13.25-.1.02-.17,0-.32-.12-.44-.27-.09-.36.2-.51.36Z"/>
          <path class="cls-3" d="m322.86,28.98c.03-.16.15-.36-.02-.62-.23-.04-.51-.09-.79-.15-.17-.31-.33-.6-.5-.94-.14.06-.26-.26-.45-.06-.02.28.27.28.29.51-.03.2-.14.29-.32.34-.15-.14-.31-.3-.48-.45-.18-.01-.36-.05-.54.11-.21.31-.44.65-.67.98-.07.18.06.45-.24.61-.12-.16-.26-.35-.36-.48-.02-.55-.08-.97-.22-1.38h-.23c-.09.55-.18,1.09-.28,1.66-.14.06-.29.18-.41.15-.42-.13-.83-.13-1.26-.06-.59.09-1.12-.13-1.56-.65-.07-.08-.12-.09-.18-.02-.23.18-.29.51-.41.78.05.16.1.32.15.51-.06.19-.14.38-.22.61.11.3.23.62.37,1,.64-.03,1.26-.06,1.84-.08.13-.2.21-.33.27-.43.25-.05.33.42.61.19.28-.22-.3-.83.23-.96.41.33.53.93.82,1.33.44.47.7-.15.99-.23.16.11.28.2.41.29.16-.15.29-.29.45-.45.25-.05.53-.1.8-.15.03-.15.06-.27.08-.38.71.28,1.43,0,2.13.11.33-.36.37-.79.4-.93-.05-.88-.56-.22-.68-.74Zm-7.52,1.77c-.13-.13-.11-.28-.02-.43.16.02.22.14.2.33-.06.03-.12.06-.18.09Zm1.06-.43c0-.07,0-.13-.01-.2.15.05.05.12.01.2Zm4.58.17c-.25,0-.46-.08-.6-.37.11-.17.21-.33.3-.46.12-.35-.2-.44-.21-.69.33-.19.55-.05.73.37-.1.35-.23.74-.21,1.16Z"/>
          <path class="cls-3" d="m154.39,26.55c-.02-.21.05-.45-.15-.58-.17.05-.34.1-.43.13-.32-.07-.34-.46-.58-.48-.31-.02-.63-.09-.93.08-.09.16-.16.31-.34.27-.11-.11-.22-.22-.42-.42-.29.05-.56.09-.85.14-.2.28-.38.54-.54.77-.27.13-.5.25-.74.11-.21-.19.09-.54-.07-.64-.57-.29-.45.7-.88.56-.23-.12.02-.57-.28-.61-.41.11-.38.76-.73.92-.2.17-.5-.04-.71.32.25.19-.15.45.04.7.13.05.26.09.41.15.18.2.18.58.48.77.3-.07.61.22.98.26.19-.08.37-.25.6-.19.15.09.3.18.4.24.43.08.74-.23,1.1-.26.26.12.51.3.86.28.09-.03.23-.06.36-.13.22-.13.44-.28.69-.44.14.06.31.13.47.21q1.48-.37,1.87-1.09c.05-.61-.44-.68-.61-1.06Z"/>
          <path class="cls-3" d="m168.33,26.54c.05-.25.08-.45.12-.65q-.68-.43-1.64-.47c-.07-.06-.17-.12-.25-.21-.11-.11-.21-.24-.41-.21-.28.19-.54.53-.92.52-.35,0-.71,0-1.09,0-.16.12-.34.27-.52.41-.17-.04-.37-.16-.51-.09-.5.26-.97.14-1.44-.05-.05-.02-.12.07-.2.12.04.24.08.49.12.72-.14.19-.26.35-.37.51-.04.41-.1.82.2,1.22.28.19.69.22.96.54.35-.13.65-.25.85-.32.31.04.52.07.73.09.24.02.43.35.72.14.19-.1-.05-.42.14-.55.26-.17.45.26.75.12.15-.28.32-.6.5-.93.51.15.64.91,1.19,1.04.11.01.28,0,.45-.13.09-.15.19-.32.29-.47.17.12.32.22.51.35.3-.15.63-.32.95-.48-.1-.86-.58-1.09-1.14-1.21Z"/>
          <path class="cls-3" d="m369.08,27.62c-.54-.13-1.03.01-1.52.08-.14.14-.28.27-.4.38-.38.08-.59-.32-.94-.46-.16.34-.6.07-.75.53.23.04.44.14.55.44-.36.23-.59.82-1.18.6-.12-.27-.39-.47-.63-.71.02-.13.03-.27.05-.43-.18-.08-.36-.16-.53-.24-.1-.26-.13-.55-.4-.55-.31.13-.15.59-.46.86-.22.08-.51.38-.95.29-.13-.11-.3-.25-.46-.38-.14.03-.21.12-.22.29.14.4.4.58.74.61.54.05.86.47,1.17.96-.26.2-.4-.29-.69,0,.02.35-.18.78.17,1.21.39-.09.78.14,1.16.25.27-.42-.16-.83.12-1.2h.3c.36.72.69,1.55,1.54,1.1.29-.26.15-.7.33-1.04.25-.13.54-.27.79-.4.22.09.33.26.42.53.11.29-.21.64-.02.97.1.15.21.26.36.25.26-.02.35-.47.66-.37.14.12.29.24.46.38.23-.26.46-.53.64-.74-.05-.3-.12-.47.02-.65.15-.01.31-.03.46-.04.2-.14.24-.35.26-.62-.06-.4-.18-.82-.36-1.21-.25-.25-.51-.49-.73-.7Zm-.37,2.8c-.23.13-.39,0-.54-.21-.05-.3.01-.59.1-.87.15-.12.15-.12.56.59,0,.18,0,.35-.12.49Zm.08-1.82s-.06-.06-.09-.09c.02-.03.04-.07.07-.07.02,0,.04.05.06.08-.01.03-.02.05-.04.08Z"/>
          <path class="cls-3" d="m416.23,26.88c-.33-.1-.54-.03-.72.1-.25.17-.48-.21-.77.04-.29-.01-.32.62-.69.61-.27-.16-.3-.63-.66-.73-.46.43-1.08-.12-1.61.32-.1.18-.22.39-.3.53-.56.42-1.12.54-1.64.59-.19.23-.35.4-.33.77.18.2.39.43.58.64.08.37.06.77.41.91.25.04.42-.33.69-.23.3.11.49-.36.8-.23.11.18.21.35.28.46.32-.04.48-.22.65-.37-.02-.16-.25-.2-.14-.43.12-.18.26-.28.42-.18.3.2.25.69.58.86.3.06.64.26,1.03,0,.16-.63-.15-1.29,0-2.01.76.26.61,1.33,1.14,1.77.71.19,1.01-.56,1.42-.95.09-.65-.21-1.09-.3-1.58-.35-.3-.55-.75-.84-.87Z"/>
          <path class="cls-3" d="m200.06,27.54c-.2-.25-.2-.64-.48-.74-.27-.11-.58.04-.83-.22-.08-.18-.17-.37-.25-.53-.15-.08-.29-.14-.44.01.03.36.24.69.16,1.17q-.61-.03-1.22-.71c-.11-.22-.02-.55-.29-.79-.63-.37-1.33-.8-2.14-.61-.03.2-.05.36-.07.52-.16.21-.35.28-.59.16-.1-.15-.21-.32-.34-.52-.71.2-1.48-.07-2.19.52.28.61.16,1.39.64,1.91.12-.2.22-.37.2-.35.64-.2,1.11-.57,1.59-.45.17-.21.24-.44.46-.45.28.05.45.44.77.43.39-.23.67-.79,1.24-.72.39.54.86,1.05,1.12,1.87-.48.05-.41.78-.8.98-.37-.4-.73-.79-1.06-1.15-.32.04-.39.34-.54.52-.14.17-.44.16-.4.54.12.32.4.08.57.29.15.47.33.94.69,1.25.36.15.69.01.95-.19.23.12.38.27.6.14.04-.08.09-.19.14-.29-.17-.33-.61.03-.7-.48.17-.47.38-.93.74-1.24.05-.04.13-.03.19-.04.15.06.25.19.3.35,0,.4-.32.7-.23,1.2.19-.01.38.16.58-.1.09-.21-.04-.41-.04-.63,0-.27-.04-.54.11-.72.16-.17.29-.17.46,0,.19.48.13,1.16.43,1.65.27.15.41-.05.56-.26.15-.21.38-.21.59-.29.21-.08.4-.18.58-.44.04-.21.08-.46-.05-.77-.21-.45-.68-.53-.97-.84Zm-4.92-1.77c.16-.13.32-.13.49,0-.16.21-.32.19-.49,0Z"/>
          <path class="cls-3" d="m354.01,28.54c-.25-.17-.57-.15-.76-.46-.19-.16.01-.56-.32-.71-.19.09-.5-.2-.69.21.02.33.26.43.37.65.13.25.22.53.32.76.16.13.41-.03.39.33-.51.45-.51.45-.94.47-.5-.61-.51-1.39-.45-2.22-.11-.15-.22-.33-.35-.48-.14-.18-.13-.52-.39-.57-.33.08-.18.7-.55.75-.13-.18-.27-.36-.39-.52-.52-.11-.81.28-1.05.64-.44.15-.84-.03-1.31.24-.06.42-.51.5-.8.86.22.37.7.2.75.71-.15.25-.41.08-.65.31.03.37-.44.42-.48.87.05.07.1.14.14.2.6.09.64-.75,1.01-1.01.24.06.42.17.55.46.03.26-.06.6.15.82.7.39,1.38.39,2,.04.38.13.69.24.96.34.37-.14.71-.26,1.15-.43.26-.54.84-.72,1.36-1.22-.25-.33.19-.65,0-1.03Zm-3.88,1.24s-.06,0-.09-.02c-.01,0-.01-.05-.02-.07.03-.01.06-.04.08-.03.09.02.1.08.02.13Z"/>
          <path class="cls-3" d="m290.09,27.23c-.61-.19-.85.33-1.14.46-.36-.15-.41-.55-.59-.74-.18-.2-.47-.3-.69-.52-.27.2-.54.41-.8.6-.69-.16-1.32.02-1.91.43-.12.22-.23.44-.35.67.06.25.12.5.17.76.01.08-.02.17-.03.25-.09.1-.19.1-.3.03-.09-.34-.08-.81-.56-.83-.04.33-.08.66-.11.91.05.38.42.3.4.65-.23.41-.58-.39-.83.16.25.25.48.5.81.57.38-.1.66-.51,1.07-.49.21.14.1.54.39.64.27-.07.6-.08.87-.25.37-.22.69.11,1.02.01.21-.12.4-.23.49-.28.6,0,1.1.22,1.52-.33-.01-.19-.03-.39-.04-.57.31-.2.55.19.86.08.18-.36.36-.73.54-1.1-.2-.57-.53-.95-.79-1.12Z"/>
          <path class="cls-3" d="m70.69,24.83c-.39-.12-.64.39-1.02.31-.33.03-.55-.42-1.03-.29-.16.1-.44.28-.69.43,0,.22,0,.38,0,.56-.29,0-.58,0-.86,0-.06,0-.13-.07-.2-.11-.04-.11-.07-.23-.11-.35-.23-.09-.46-.21-.69-.26-.14-.03-.27.07-.33.34.1.26.21.57.31.83-.09.27-.2.37-.36.31-.29-.15-.04-.7-.35-.83-.51.31-.17.94-.38,1.33-.16.22-.41.39-.29.85.23.22.61.25.79.62.21-.04.38-.07.58-.1.07.14.15.29.2.38.5.05.92.09,1.34.12.06,0,.12-.08.18-.11.24-.24-.04-.74.31-.93.37.09.13.83.56.85.34.02.5-.49.95-.46.19-.02.39.39.71.23.22-.12-.01-.55.28-.62.17.14.34.29.46.41.32.04.56.01.69-.18.19-.31.15-.58.13-.89-.37-.81-.6-1.76-1.18-2.43Zm-3.18,2.25c-.27-.14-.45-.28-.48-.6.14-.35.37-.32.61-.18.06.27-.03.5-.14.78Z"/>
          <path class="cls-3" d="m457.76,28c-.09.03-.23.05-.35.13-.12.07-.2.26-.41.17-.2-.3-.42-.64-.66-1.01-.45-.08-.88-.23-1.27-.6-.52.38-1.04.3-1.48.12-.49.11-.9.21-1.29.3-.07.25-.12.45-.17.62-.22.26-.52-.05-.76.29-.03.64.18,1.3.21,1.95q.86.57.96.45c.02-.26-.38-.32-.19-.66.37-.16.41.4.68.49.3.1.58.29.78.4.44-.01.51-.62.87-.58.18.3.04.91.53.85.29-.11.31-.43.39-.7.67.42,1.34.78,2.15.29.21-.53.56-1.04.64-1.7-.14-.36-.27-.68-.63-.82Zm-4.61-.07c-.08.12-.16.12-.24,0,.08-.11.16-.13.24,0Zm-.13,1.14s-.06-.02-.09-.03c-.02-.04-.04-.07-.06-.11.06-.4.3-.25.5-.26-.04.24-.18.34-.34.4Zm1.39-.34c-.11-.38-.22-.74-.32-1.06.07-.32.21-.4.41-.35.22.16.11.38.08.59-.03.22.11.38.2.57-.15.1-.24.16-.37.25Z"/>
          <path class="cls-3" d="m595.74,28.17c-.19-.14-.2-.57-.48-.6-.35.21-.35.81-.74.95q-1.34-.55-2.41-.29c-.31-.23-.7-.21-1.08-.22-.06-.14-.11-.29-.19-.48-.74.45-1.53.7-1.98,1.56.09.35.32.29.44.43.1.41.04.77-.17,1.11-.02.03.04.15.07.25.26-.06.53-.11.82-.17.39.35.9.18,1.3.4.47.26.91.03,1.36.1.83.13,1.54-.16,2.06-1.04.08-.14.22-.23.33-.18.31.14,0,.56.33.71.48-.16.71-.74,1.03-1.19.23-.33.26-.69.25-1.08-.28-.36-.64,0-.94-.24Zm-4.79-.12s.03,0,.04-.01c-.02.03-.04.06-.06.09,0-.03,0-.07.02-.08Zm.45.89c.06,0,.12-.02.18-.03-.04.22-.11.09-.18.03Z"/>
          <path class="cls-3" d="m637.89,26.86c-.26.1-.56.21-.92.35-.37-.42-.86-.51-1.37-.5-.49,0-.97-.4-1.54.05-.19.26-.46.61-.74.99-.04.29-.09.59-.29.82-.19.15-.48.21-.52.72.06.18.15.46.23.7.4.31.79.24,1.14.18.29-.16.46-.53.8-.46.34.01.48.51.8.55.34-.02.34-.59.65-.61.42-.07.57.54,1.04.52.22-.12.51-.28.81-.44.28.05.56.1.88.16.26-.46.82-.49,1.04-1.16-.23-.34-.36-.79-.42-1.19-.5-.47-1.01-.62-1.58-.68Zm-2.82.62c-.05-.01-.1-.05-.15-.07.08-.1.15-.09.22.01-.02.02-.05.06-.07.06Z"/>
          <path class="cls-3" d="m610.86,28.25c-.18.02-.2.23-.28.33-.63-.28-1.25-.56-1.9-.86-.29.06-.6.13-.84.18-.35-.06-.59-.32-.89-.24-.27.02-.45.26-.68.4-.73-.15-1.48.11-2.23-.14-.19.31-.34.62-.65.69-.07.02-.12.19-.17.27.12.4.39.69.39,1.13-.04.3-.28.54-.13,1.01q.62.27,1.67-.05c.31.08.66.18,1.04.28.56-.43,1.22-.23,1.9-.32.39-.29.84-.53,1.36-.55.39-.02.76-.23,1.15-.54,0-.47.49-.67.51-1.16-.05-.21-.1-.38-.26-.42Zm-3.82,1.61c-.2.04-.42.11-.64-.09.1-.3.2-.6.29-.87.29-.09.52.05.54.31.04.32.3.35.36.6-.16.35-.37,0-.56.05Z"/>
          <path class="cls-3" d="m700.83,27.47c-.43-.41-.93-.37-1.38-.46-.47.2-.91.52-1.34.54-.5.02-.98.13-1.46.28-.23-.15-.44-.29-.66-.43-.18.17-.41.22-.52.62.13.6.16,1.31-.1,1.97.35.27.64.5.92.72,1.19.29,2.26-.24,3.41-.69.44.44.96.63,1.65.3.21-.24.5-.56.82-.92-.27-.57.03-1.27-.4-1.76-.29-.25-.66.09-.93-.17Z"/>
          <path class="cls-3" d="m307.33,28.92c-.1-.1-.24-.24-.34-.35-.09-.58-.04-1.15-.43-1.51q-.74-.02-.73.16c.11.1.22.19.34.29-.05.19-.1.36-.16.54-.43.07-.85.14-1.26.21-.41-.4-.82-.7-1.29-.66-.45.34-.48.95-.68,1.32-.42.12-.54-.31-.72-.44-.52-.22-.85.03-1.15.11-.41-.17-.75-.37-.85-.92-.19-.01-.36-.03-.52-.04-.16.25-.29.46-.41.65-.21.08-.42.16-.58.23-.16.29-.38.49-.36.84.08.27.33.14.43.27.11.22-.05.48.15.68.34.55.79.24,1.15.07.24.14.3.42.52.39.16-.13.44-.06.48-.42-.02-.28-.28-.42-.23-.79.35-.07.71-.04,1.07.03-.06.49-.37.9.03,1.33.33.02.65-.28.98-.18.14.12.26.22.35.3.19-.05.31-.12.35-.32-.05-.16-.09-.31-.14-.47.27-.22.21-.7.58-.89-.02.29.26.4.19.72-.05.17-.43,0-.23.44.41.08.83.39,1.31.28v-.57c.65-.52,1.28-.23,1.87.04.23-.05.36-.2.48-.46-.23-.21-.05-.55-.16-.9Zm-8.27.35c-.14.07-.26.03-.44-.18.12-.13.19-.21.27-.3.1.06.19.11.26.16.05.16.03.27-.08.32Zm.9-.16l.04-.07.02.08h-.06Zm6.39.06s-.16-.04-.17-.09c-.06-.22.05-.29.2-.31.1.15.14.3-.03.4Z"/>
          <path class="cls-3" d="m517.43,27.66c-.25-.31-.55-.49-.88-.57-.15.18-.28.33-.37.43-.47.05-.79-.28-1.23-.44-.12.21-.26.47-.32.59-.52.16-.89.33-1.27.38-.42.06-.84.02-1.3.02-.16-.08-.36-.18-.54-.26-.22.12-.41.22-.61.32-.19.1-.39.19-.58.29.09.24.32.28.34.53-.02.47-.56.41-.57.99-.09.29.42.28.32.67-.24.32-.58.11-.98.29.9.3,1.69.16,2.48.09.12-.01.22-.2.31-.28.01-.23.02-.4.04-.7.21.28.26.64.63.7.45-.37,1-.25,1.49-.03.25-.25.28-.64.63-.74.21.04.44.33.74.28.61-.14,1.04-.69,1.5-.97.2-.35.02-.59.01-.84-.02-.28.27-.43.18-.75Zm-1.46.85c-.02-.07-.07-.16-.05-.21.02-.05.1-.07.16-.1.02.07.08.17.06.21-.02.06-.11.07-.17.11Z"/>
          <path class="cls-3" d="m485.69,27.38c-.42.12-.85.47-1.37.4-.3-.22-.4-.74-.54-.8-.47-.19-.71-.16-.97-.05-.24.5-.57.86-1.2.74-.47-.74-1.22-.51-1.78-.54-.47-.18-.43-.81-.76-.96-.34.28-.01.52-.06.76-.04.25-.2.48-.12.76.24.2.38.49.46.83.03.11.02.18-.06.23-.29.13-.64-.16-1.03.38-.09.13-.14.52-.21.86.13.26.28.33.48.3.42-.26.4-1.07.97-1.22.17,0,.35.14.53.33.14.32.14.8.63.89.18-.12.43-.28.69-.44.4.25.82.22,1.25.22.77-.01,1.53-.38,2.27,0,.37-.29.72-.49.99-.97-.17-.37.11-.72.07-1.13-.02-.21.04-.45-.24-.59Zm-2.6,2.36c-.04.07-.09.05-.13-.04,0-.01.04-.06.06-.07.02,0,.04.02.06.04,0,.03,0,.06,0,.08Z"/>
          <path class="cls-3" d="m501.64,27.74c-.11.14-.21.25-.3.35-.38-.08-.49-.53-.77-.75-.25.04-.34.44-.62.43-.42-.13-.44-.8-.87-1-.19.06-.42.14-.6.2-.27-.07-.38-.39-.63-.34-.24.24-.44.57-.82.64-.67-.28-1.4-.15-2.19-.13.2.41.55.46.64.86-.23.4-.64.51-.94.81-.03.03-.12-.04-.19-.06-.17-.16.16-.41-.12-.6-.5.14-.4.79-.6,1.14.13.39.34.54.59.64q.73-.21,1.24-.05c1.26-.03,2.3-.24,3.36-.47.55.59,1.13.41,1.67.06.36.21.68.41,1.14.15.26-.29.4-.89.87-1.13-.45,0-.57-.53-.85-.76Zm-2.82.64c.22-.29.43-.39.69-.09-.3.5-.3.49-.69.09Z"/>
          <path class="cls-3" d="m276.76,27.87c-.33.06-.67.28-1.02.1-.18-.07-.09-.45-.33-.47-.31-.06-.4.24-.54.49-.38.07-.58-.25-.8-.55-.05-.25-.1-.49-.15-.73-.36-.01-.54.51-1.01.36-.3.04,0-.43-.15-.58-.14-.03-.28-.07-.4.07-.22.2.08.75-.38.85-.15-.56-.27-1.12-.7-1.44-.17-.02-.36-.11-.42.21.08.34.41.33.51.63-.2.14.13.58-.23.63-.14-.19-.26-.4-.41-.57-.12-.13-.25-.13-.41.15.34.41.26,1.01.33,1.55.25.24.49.45.34.94-.17.14-.39.28-.58.47-.08.08-.25.22-.04.46.65-.4,1.33-.4,2.02-.04.34-.26.58-.7,1.09-.77.45.59,1.21.38,1.78.87.34-.06.68-.12,1.06-.2-.07-.23-.12-.39-.17-.57.18-.12.36-.24.57-.38,0-.46.38-.72.41-1.12-.1-.24-.23-.29-.38-.35Zm-3.74.57l.04-.07.02.08h-.06Zm1.86-.43c.12-.04.23-.01.32.13-.17.16-.28.14-.32-.13Zm.29,1.02c.1-.28.23-.54.54-.46-.09.22-.18.43-.25.61-.15.08-.22,0-.29-.15Z"/>
          <path class="cls-3" d="m402.93,27.54c-.35-.06-.66-.11-.96-.16-.31-.11-.51-.52-.87-.45-.23.04-.24.29-.3.49-.07.19-.02.46-.19.56-.48.22-1.02-.12-1.41.26-.14.33.34.44.06.74-.29-.08-.59-.16-.88-.24-.22-.61-.66-.89-1-1.22-.35.15-.23.63-.5.76-.3.14-.29.6-.55.79-.28.07-.49-.39-.83-.16-.03.07-.09.18-.16.33.32.29.63.57.95.87.08-.22.15-.41.22-.61.29.02.44.45.74.39.19.07.3-.26.45-.17.13.11.18.21.15.35-.14.2-.44-.06-.55.36.1.18.2.4.44.52.11-.03.24-.07.42-.12.16.08.27.37.29.37.68,0,1.11-.13,1.36-.37.24-.54-.31-.51-.13-.99.48.27,1.01.27,1.49.42.08.2.08.42.38.35.25-.89.92-1,1.57-1,.26-.31.59-.46.62-.99-.22-.18-.44-.38-.64-.54-.07-.22-.12-.38-.18-.54Zm-.65.93s-.05-.06-.04-.08c0-.02.04-.04.06-.06.02.03.05.06.05.08,0,.02-.04.04-.06.06Z"/>
          <path class="cls-3" d="m86.12,25.82c-.33-.07-.47.36-.77.45-.15-.15-.31-.31-.48-.47-.18,0-.35,0-.53,0-.03-.16-.1-.23-.23-.21-.02.16.04.25.17.29-.04.26-.07.52-.25.71-.21.11-.4.35-.7.15-.04-.27-.09-.56-.13-.86-.16-.17-.32-.33-.47-.49-.39.15-.56.73-.99.72,0,0,0,0,0,0-.11-.08-.21-.17-.25-.2-.56-.05-.83.43-1.13.7-.24-.16-.42-.28-.63-.42-.13.39.04.84-.26,1.13.17.38.2.84.49,1.25.49,0,1.02,0,1.46,0q.5.5.86.33-.25-1.11-.17-1.63c.47.38.83.91,1.17,1.43.5,0,.94-.28,1.41-.18.19.05.37.25.74.15.16-.06.47-.17.75-.27.24-.36.47-.7.67-1,.06-.32.05-.58-.08-.91-.24-.12-.31-.62-.67-.69Zm-5.84,1.82l-.08-.03.08-.03v.06Zm1.37-1.16c-.09-.19-.15-.34.09-.33,0,.07,0,.15-.01.22,0,.04-.04.06-.08.12Z"/>
          <path class="cls-3" d="m431.25,28.14c-.26.16-.54.34-.76.48-.14.22-.02.54-.43.62-.11-.37-.32-.67-.28-1.1.09-.14.18-.27.27-.4-.64-.29-1.28-.55-1.88-.07-.48-.21-.89-.61-1.38-.11-.02.22-.04.47-.06.73-.63-.37-1.16-.02-1.69.35-.09.06-.2.05-.28.07-.09-.09-.17-.17-.24-.24-.05.12-.1.23-.15.34-.15.17-.45.04-.51.39.03.28.17.48.39.76.41-.13.66.47,1.08.55.32.06.64,0,.95-.12.64.35,1.32.17,2.06.15.07.12.16.26.25.41.2-.1.39-.2.57-.28.19.08.35.15.51.22.36-.15.69-.3,1.02-.44.35-.56.69-1.11,1.01-1.62.03-.43-.07-.67-.42-.7Zm-5.41,1.78c.1-.42.27-.35.46-.28-.03.45-.2.43-.46.28Zm3.77.37c-.24.04-.42-.17-.63-.35-.05-.15-.09-.32-.15-.49-.22-.2-.45-.4-.67-.6-.21-.03-.4.2-.62.04-.14-.18-.01-.29.09-.44.97-.12,1.48.85,2.11,1.42.01.2,0,.33-.14.41Zm.46-.41c.08-.06.16-.11.22.03-.08.08-.16.09-.22-.03Z"/>
          <path class="cls-3" d="m578.6,28.57c-.11-.15-.23-.32-.37-.51-.27.03-.55.07-.83.1-.33.63-.77,1.03-1.37,1.16-.38-.31-.3-1.14-1.04-1.27-.1-.03-.18.3-.35.43-.18.14-.44,0-.62.28-.07.19-.15.43-.22.63.04.45.3.77.23,1.18-.14.2-.33.14-.49.2-.02-.26.04-.53-.08-.77-.17-.2-.3-.48-.54-.5-.18.14-.31.3-.34.53.06.15.11.3.17.45.07.47-.48.46-.42.92.49.36.94-.13,1.41-.11.5.02.96-.18,1.44-.3.23.18.43.34.65.51.41,0,.83.14,1.19-.13.24-.39.05-.81.17-1.16.49,0,.77.6,1.24.71.46-.08.86-.31,1.19-.83.1-.38.22-.8.03-1.2-.32-.38-.71-.15-1.05-.32Zm-1.71,1.61c.12-.18.18-.07.25,0-.07,0-.15,0-.25,0Z"/>
          <path class="cls-3" d="m112.16,25.78c-.3-.13-.61-.39-.95-.27-.1.21.07.26.08.39-.31.14-.22.78-.65.81-.17-.07-.37-.14-.53-.2-.32.06-.54.39-.87.28-.12-.13-.25-.28-.5-.56-.41.6-.95.74-1.39,1.03-.28-.12-.4-.52-.77-.31-.05.65-.18,1.32-.35,1.97,0,.02.04.06.07.1.18.14.21-.2.36-.16.12.13.25.26.36.38.49,0,.95,0,1.4,0,.41-.18.8-.36,1.19-.53.38.09.72.18,1.04.26.51-.16.99-.31,1.46-.46.32-.32.63-.61.78-1.09-.13-.62-.29-1.21-.73-1.63Z"/>
          <path class="cls-3" d="m139.11,26.52c-.15-.24-.06-.63-.4-.83-.11.32-.33.51-.62.55-.3-.15-.4-.52-.55-.84-.39,0-.34.65-.63.71-.41-.02-.18-.7-.55-.73q-.33.45-.48,1.28c-.44,0-.28-.68-.64-.66-.19.37-.4.74-.26,1.23.01.05-.05.14-.09.21-.17.03-.34.07-.49.09-.13.17-.21.31-.15.52.08.42.43.19.65.43.04.1.1.26.17.41.06.14.04.35.21.41.09-.13.19-.26.3-.41,1.05.42,2.15.08,3.25.2.36-.54.9-.68,1.42-.98.05-.7-.51-1.04-.52-1.55-.26-.29-.43.21-.64-.05Zm-3.66,1.64c.11-.12.16-.17.21-.23.18.07.23.28.31.47q-.25.2-.52-.24Zm1.7-1.58l.04-.07.02.08h-.06Z"/>
          <path class="cls-3" d="m470.38,26.87c-.41,0-.76,0-1.06.22q0,.65-.34.77c-.21-.35-.19-.86-.5-1.17-.7-.4-1.1.64-1.67.57-.36.56-.53,1.13-.66,1.72.17.41.61.25.81.62.19.21.06.62.35.87.33.11.71-.04,1.06-.05.3-.34.41-.9.86-.92.28.26-.15.63.13.86.06.02.16.09.19.05.63-.58,1.34-.93,2.09-1.16.12-.04.23-.21.32-.35.06-.1.07-.24.11-.38-.16-.3-.31-.6-.51-.97-.3-.4-.93-.12-1.18-.69Zm-1.89,1.79c.08-.12.16-.1.24,0-.08.09-.16.13-.24,0Zm1.62.25c.02-.11.04-.22.07-.33.19.03.32.15.41.35-.16.26-.31.2-.48-.01Z"/>
          <path class="cls-3" d="m57.24,24.87c-.23-.03-.37.07-.47.25h0c-.34.1-.68.2-1.01.3-.42-.29-.86-.42-1.35-.47-.41.59-.8,1.21-1.33,1.65-.13.11-.24.34-.09.63.08.13.23.06.36.09h0c.34.34.69.69,1.04,1.04.24.09.23-.44.45-.28.12.16.23.32.33.46.39.15.73-.04,1.06-.13.34.07.65.43,1.03.14.12-.23-.19-.49.06-.77.08-.04.21-.09.3-.13.25.09.38.37.63.29.38-.22.43-.65.43-1.21-.21-.18-.2-.59-.47-.95-.38-.09-.58-.71-.97-.92Zm-3.88,2.42v-.36c.12-.21.27-.23.47-.07-.05.34-.22.45-.47.43Zm1.49-.89c-.13-.2-.02-.26.1-.34.08.17.09.3-.1.34Z"/>
          <path class="cls-3" d="m228.51,29.16c.09-.38-.13-.75-.06-1.18.06-.34-.1-.69-.29-.93-.2-.18-.39-.29-.59-.08v.36c-.18.11-.32.25-.54.19-.2-.17-.26-.47-.33-.77.09-.12.26-.16.28-.41-.28-.43-.65-.76-1.04-1.06-.19.05-.36.1-.55.15-.56-.43-1.13-.72-1.69-.14-.15.34-.16.59,0,.94.08.06.23.17.34.25.21.1.37-.2.55,0,.02.21-.19.37-.09.62.05.23.33.32.3.64-.11.3-.46.26-.53.61.14.39.5.27.7.49.13.17.07.46.27.57.29-.13.54-.41,1.01-.41.21.33.7.11,1.03.47-.04.25-.09.47.16.63.17-.08.36-.17.54-.25.25.05.37.43.66.33.07-.36-.21-.63-.12-1.01Z"/>
          <path class="cls-3" d="m550.73,29.36c-.05-.02-.13.03-.2.05.02.12.06.25-.06.35h-.2c-.33-.14-.24-.53-.48-.69-.21.06-.45.13-.64.19-.52-.15-.99-.28-1.4-.4-.44.29-.37.91-.62,1.22-.19.03-.33.04-.46-.07-.11-.24.27-.45-.02-.74-.25.18-.52.38-.82.59-.22-.1-.45-.2-.62-.27-.48.09-.74.43-.92.92-.47.06-.83.11-1.18.16-.33.04-.7-.19-.95.22.04.35.24.4.4.44.52.13,1.04.26,1.57.32.42.05.85.07,1.26-.12.21-.09.38-.2.48-.46.02-.06.12-.08.16-.1.36-.14.54.13.71.43.3.09.61.17.92.26.75-.49,1.51-.81,2.35-.76.4.02.75-.21,1.03-.49.09-.31.19-.55.06-.84-.11-.07-.23-.16-.37-.22Zm-5.56.92c.08-.23.19-.2.32-.11-.08.25-.19.2-.32.11Z"/>
          <path class="cls-3" d="m443.64,29.98c-.05.54-.33.85-.75,1.08-.18-.11-.46.07-.66-.21-.12-.3-.07-.59.05-.87.15-.25.47-.27.51-.66-.02-.15-.04-.33-.28-.39-.32.06-.43.62-.78.73-.56.14-1.04-.18-1.54-.45-.16.06-.33.12-.5.18-.5.01-.93-.37-1.42-.42-.07.14-.13.24-.18.34.25.53.73.28,1.16.59-.32.07-.55.19-.71.44-.06.1-.1.23-.15.36.15.31.29.61.43.93.23.02.43.03.69.05.18.11.33.41.6.43.36,0,.72.06,1.06,0,.66-.13,1.36-.03,1.96-.47.42-.31.83-.64,1.26-.79.16-.38.17-.66-.04-.92-.25-.13-.48.02-.71.08Z"/>
          <path class="cls-3" d="m181.47,27.01s.02.02.03.03c0,0,.02-.02.02-.02-.02,0-.03,0-.05-.01,0,0,0,0,0,0Z"/>
          <path class="cls-3" d="m179.95,24.73c-.12.06-.29.14-.34.17-.23.25.05.52-.18.67-.3-.05-.21-.55-.47-.65-.23-.04-.42.02-.51.32,0,.45.42.37.57.68-.4.37-.66.84-.83,1.36q.03.97.33,1.5c.03.05.12.04.18.06.42-.12.06-.72.33-.96.26.43.33.94.64,1.23.16-.03.29-.06.4-.08.18.12.25.39.48.35.16-.12.32-.24.48-.36.17.11.23.4.53.26-.04-.37.15-.7.18-1.17-.14-.3-.21-.69-.26-1.08-.26-.24-.45-.6-.77-.69-.21-.85-.53-1.55-.76-1.59Zm-.44,2.2c0,.07,0,.13,0,.2-.13-.05-.04-.12,0-.2Zm1.24,1.34c-.08-.12-.1-.23.01-.33.12.12.14.23-.01.33Z"/>
          <path class="cls-3" d="m184.6,26.09c-.83-.5-1.78-.83-2.5-1.51-.26.03-.43.07-.56.35.09.32.19.68.28,1.03.44.4.99.57,1.3,1.15.03.06.01.16.02.25-.13.25-.5.18-.52.59.19.23.44.42.43.83,0,.04.11.09.19.16.21-.06.45-.13.64-.19.26.05.4.32.64.25.29-.16.56-.35.6-.9-.18-.42-.38-.88-.59-1.38.01-.14.03-.31.07-.64Z"/>
          <path class="cls-3" d="m228.61,25.57q-.72.49-.71.71c.19.19.4-.09.6.04.19,0,.18.4.47.27.13-.47-.07-.77-.37-1.02Z"/>
          <path class="cls-3" d="m192.81,28.45c-.23.1-.43.25-.54.55-.05.3.03.5.31.6.17-.17.35-.36.56-.57-.07-.34-.09-.57-.34-.58Z"/>
          <path class="cls-3" d="m230.1,28.22c.41.32.84.28,1.33.15q-.41-.56-1.33-.15Z"/>
          <path class="cls-3" d="m364.58,28.07c.17.4.31.85.75.87.2-.26.08-.52.1-.76-.28-.02-.5-.53-.86-.11Z"/>
          <path class="cls-3" d="m365.43,28.18s.03,0,.04,0c0-.01,0-.02.01-.04-.02,0-.03,0-.05-.01,0,.01,0,.03,0,.04Z"/>
          <path class="cls-3" d="m229.18,27.44c-.2.05-.28.19-.35.35.07.31.2.55.49.55.17-.1.3-.24.29-.49-.06-.24-.2-.34-.43-.41Z"/>
          <path class="cls-3" d="m715.91,28.29c.18-.24.34-.43.14-.71-.23.02-.4.13-.42.45.04.13.11.22.28.25Z"/>
          <path class="cls-3" d="m176.91,26.75c.06.04.13.07.2.11.11-.31.17-.61.04-.96-.22.25-.29.53-.25.85Z"/>
          <path class="cls-3" d="m352.37,26.81c.09-.13.14-.24.1-.38-.22-.21-.41-.15-.61.01.1.32.24.39.51.36Z"/>
          <path class="cls-3" d="m360.57,30.24c.44.18.69,0,.92-.34-.37-.3-.59.03-.92.34Z"/>
          <path class="cls-3" d="m481.58,26.64c-.17-.39-.31-.41-.46-.07.09.29.23.3.46.07Z"/>
          <path class="cls-3" d="m478.38,28.06c0,.17.03.34.23.33.08-.23.17-.46.25-.69-.22-.02-.4.06-.48.36Z"/>
          <path class="cls-3" d="m478.86,27.7s.02,0,.03,0h0s0-.02-.02-.03c0,0,0,.02,0,.03Z"/>
          <path class="cls-3" d="m177.68,27.43c-.16.01-.29.1-.32.34.16.15.31.14.45-.03.03-.14,0-.24-.12-.32Z"/>
          <path class="cls-3" d="m181.52,27.02c.15.04.3.09.46.11.14.02.27-.04.27-.28-.28-.2-.51-.06-.73.17Z"/>
          <path class="cls-3" d="m242.26,26.08q-.34.07-.4.34c.2.11.3-.01.4-.34Z"/>
          <path class="cls-3" d="m364.52,27.35c-.03-.07-.04-.18-.08-.19-.05-.02-.14.02-.17.07-.06.13,0,.24.11.25.04,0,.09-.08.14-.13Z"/>
          <path class="cls-3" d="m368.08,27.16c-.09-.21-.18-.4-.41-.18.11.16.17.43.41.18Z"/>
          <path class="cls-3" d="m317.08,28.72c.07-.12.03-.22-.06-.3-.16.02-.23.14-.24.33.11.19.22.13.3-.02Z"/>
          <path class="cls-3" d="m193.81,29.45c-.05.01-.12.1-.13.17-.04.15.04.26.15.28.12.02.19-.08.19-.23-.02-.14-.09-.24-.21-.21Z"/>
          <path class="cls-3" d="m718.09,27.94c.09-.27-.02-.36-.23-.35-.04.09-.08.19-.13.29.12.11.23.2.36.05Z"/>
          <path class="cls-3" d="m336.24,30.31c.31.38.31.38.57.13-.18-.14-.32-.45-.57-.13Z"/>
          <path class="cls-3" d="m336.81,30.44s.02.01.03.02v-.03h0s-.01,0-.02,0Z"/>
          <path class="cls-3" d="m409.31,30.08c.03.19.11.29.31.12-.08-.11-.12-.4-.31-.12Z"/>
          <path class="cls-3" d="m543.56,30.24c.07-.08.16-.16.08-.3-.13-.07-.26-.09-.39.05.08.13.13.31.31.25Z"/>
          <path class="cls-3" d="m67.1,24.94c-.16.07-.25.21-.28.42.12-.03.23-.05.33-.07.06-.17.05-.27-.05-.35Z"/>
          <path class="cls-3" d="m66.82,25.36s-.02,0-.03,0c0,0,0,.02,0,.02,0,0,0,0,.01,0,0-.01.01-.02.01-.04Z"/>
          <path class="cls-3" d="m126.75,26.36c-.11-.13-.2-.22-.44.12.21-.06.29.24.44-.12Z"/>
          <path class="cls-3" d="m200.61,27.38c.11-.07.12-.18.07-.4-.15,0-.25,0-.28.14.03.16.11.23.21.26Z"/>
          <path class="cls-3" d="m439.85,28.81c-.11-.11-.21-.16-.3.03.11.08.21.08.3-.03Z"/>
          <path class="cls-3" d="m335.65,28.42c.07-.13.03-.25-.06-.3-.04-.03-.12.03-.18.05,0,.04,0,.08.02.11.06.09.1.21.22.15Z"/>
          <path class="cls-3" d="m146.43,28.45c.08.05.18.06.2-.13-.07-.06-.14-.12-.21-.19-.1.14-.09.25.02.32Z"/>
          <path class="cls-3" d="m431.09,27.47c-.15-.16-.29-.18-.43,0,.14.25.29.23.43,0Z"/>
          <path class="cls-3" d="m42.15,28.79c-.06,0-.11.01-.17.02.06.06.13.18.17-.02Z"/>
          <path class="cls-3" d="m301.59,27.77s-.02-.07-.03-.07c-.03,0-.06.01-.09.02,0,.03.02.07.02.07.04,0,.07-.01.1-.02Z"/>
          <path class="cls-3" d="m191.63,28.49c.09.11.18.16.25-.02-.1-.1-.18-.07-.25.02Z"/>
          <path class="cls-3" d="m216.13,27.75c.1.14.19.3.34.04-.12-.1-.23-.08-.34-.04Z"/>
          <path class="cls-3" d="m252.96,28.52s0-.07-.03-.08c-.03-.02-.07-.03-.1-.02-.09.05-.08.1.03.13.03,0,.06-.02.09-.03Z"/>
          <path class="cls-3" d="m270.05,29.21c.09-.09.1-.18.01-.28-.1.09-.09.18-.01.28Z"/>
          <polygon class="cls-3" points="484.26 26.15 484.18 26.17 484.25 26.2 484.26 26.15"/>
          <path class="cls-3" d="m302.91,26.95s-.04-.07-.06-.09c-.07-.05-.13-.03-.15.07,0,.03.03.07.05.1.06-.03.11-.06.17-.08Z"/>
          <path class="cls-3" d="m191.23,30.39c.11-.09.08-.19.01-.29-.1.09-.09.19-.01.29Z"/>
          <path class="cls-3" d="m380.71,30.08c.12-.18,0-.25-.06-.35,0,.12-.03.25.06.35Z"/>
          <path class="cls-3" d="m380.65,29.73s0-.05,0-.08c-.01,0-.02,0-.03.01,0,0,0,.02,0,.02,0,.02.02.03.03.04Z"/>
          <path class="cls-3" d="m361.53,30.78c.12-.16.1-.28-.05-.37-.12.16-.1.28.05.37Z"/>
          <path class="cls-3" d="m84.05,25.53s.03.04.05.06c.01,0,.01,0,.02,0,0-.01,0-.02,0-.03-.02-.01-.05-.02-.07-.03Z"/>
          <polygon class="cls-3" points="400.58 30.63 400.62 30.56 400.55 30.55 400.58 30.63"/>
          <rect class="cls-3" x="443.63" y="29.98" width="0" height="0"/>
          <path class="cls-3" d="m443.48,29.89c-.03.06.06.13.15.09,0-.15-.03-.29-.15-.09Z"/>
          <path class="cls-3" d="m208.98,30.48s-.04.04-.07.07c.02.03.04.07.06.08.02,0,.04-.05.07-.07-.02-.03-.04-.07-.06-.08Z"/>
          <path class="cls-3" d="m240.62,27.03s.03,0,.05.01c-.02-.07-.04-.08-.05-.01Z"/>
          <polygon class="cls-3" points="225.82 29.73 225.89 29.7 225.83 29.65 225.82 29.73"/>
          <path class="cls-3" d="m334.09,26.94c-.03-.07-.05-.07-.07.01v.02s0,0,0,0c.02-.01.04-.02.06-.03Z"/>
          <path class="cls-3" d="m236.74,28.53s-.06.09-.09.14c.07.02.15.04.09-.14Z"/>
        </g>
        <g>
          <path class="cls-3" d="m634.96,157.31c-.12.22.15.57-.19.7-.22-.18-.37-.52-.7-.55-.42.14-.86.28-1.25.41-.34-.12-.54-.42-.9-.42-.24-.1-.49.2-.86.15-.53-.26-1.16-.3-1.74-.19-.26.19-.31.62-.63.54-.29-.03-.27-.54-.76-.55-.62.04-1.43.19-2.31-.21-.11.54-.46.74-.83.91-.05.02-.07.14-.1.22.1.33.19.66.42.97.19.03.42.06.65.1-.07.16-.12.26-.17.38.21.34.51.45.82.49.14-.1.26-.19.44-.32.96.55,1.89.51,2.84.2.2.06.41.11.57.16.31-.15.57-.28.82-.39,1.59.47,3.16.61,4.68.12.25-.29.35-.56.34-1.03-.18-.53-.28-1.25-.64-1.76-.23-.08-.4-.1-.52.09Z"/>
          <path class="cls-3" d="m223.67,157.27c-.16.06-.36.13-.55.2-.17-.16-.34-.32-.43-.4-.36-.13-.57.1-.83.17-.39-.16-.8-.32-1.3-.21-.13.25-.34.49-.64.5-.1,0-.2-.04-.3-.05-.03-.18-.06-.34-.09-.55-.12-.12-.25-.27-.4-.39-.05-.05-.13-.05-.2-.07q-.6.28-1.33.24c-.24.15-.49.31-.74.47.08.42.15.81.23,1.21-.24.47-.2,1.03-.29,1.32-.19.53-.62.49-.63.96.32.14.62.43.99.21-.02-.18-.04-.35-.06-.54.31-.22.61-.43.92-.65.46.5.88.98,1.42,1.3.29.06.6.12.9.18.27-.21.43-.63.78-.65.13.07.26.14.42.22.33-.24.75-.45,1.1-.27.48.24.99.1,1.45.37.05.03.13,0,.22,0,.2-.21.41-.44.66-.71-.16-.38.19-.7.11-1.2-.51-.41-.65-1.38-1.4-1.66Zm-5.95,1.24c-.1,0-.12-.06-.06-.11.02-.02.07-.03.09-.02.02,0,.04.05.05.08-.03.02-.06.05-.08.05Zm2.07.81c-.1-.02-.12-.08-.03-.14.02-.02.07,0,.1.03.02,0,.02.05.03.08-.03.01-.06.04-.09.04Z"/>
          <path class="cls-3" d="m64.71,156.28c-.27-.07-.4.1-.55.2-.27.04-.51-.37-.79-.1-.02.2.2.27.05.68-.11.16-.33.49-.53.8-.29-.16-.3-.43-.32-.7-.02-.29.25-.55.06-.89-.54-.08-1.04.13-1.53.29-.2-.24-.51-.18-.63-.5.27-.11.57.06.83-.14.1-.12.22-.22.13-.48-.62.13-1.26.19-1.88.05-.45-.11-.9-.12-1.35-.19-.06,0-.13.06-.19.09-.03.38,0,.78-.35,1.07-.13-.15-.38-.02-.49-.3.06-.05.11-.11.17-.15.09-.05.2-.07.13-.34-.39-.16-.81-.21-1.22-.02-.08.45.23.6.27.87.07.81.14,1.59.21,2.42.14.08.35.29.45.23.45-.27.83.18,1.27.13.09-.1.19-.2.3-.3h0c.31-.08.61.28.93.03.32-.24.58.3.97.14.06-.17.12-.48.42-.43.24.06.29.49.77.54.29-.02.79.1,1.25-.07.1-.33-.33-.37-.18-.71.48-.05.63.68,1.07.73.22-.05.38-.22.47-.43.11-.3-.12-.68.21-.86.26.02.48.46.78.14-.05-.31.22-.56.03-1-.17-.31-.5-.57-.76-.79Zm-6.28,2.31s.06-.05.09-.08c.23.03.18.27.22.44-.16-.04-.26-.17-.32-.36Zm5.99-1.62l-.05-.05.07-.03v.08Z"/>
          <path class="cls-3" d="m497.77,158.53c-.03-.17-.06-.34-.09-.52-.22-.05-.42-.1-.6-.14-.04-.16-.07-.28-.1-.4-1.09-.18-2.87,0-3.96.5-.26-.1-.18-.58-.46-.65-1.56-.34-1.91-.3-2.45.33.07.09.13.17.19.25-.16.05-.35-.03-.52.17-.22.44-.24,1.11-.76,1.36-.17.14-.4-.17-.6.07-.07.36-.46.54-.41.99.35.47.68-.08.99,0,.39.09.76.17,1.09-.07.2.15.34.3.61.26.38-.51,1.05-.08,1.48-.54.3.05.38.48.67.46.26.08.47-.14.67-.18.25.08.47.27.65.21.72-.26,1.39.03,2.06.26.09.03.2-.02.34-.04.04-.16.09-.31.13-.47.21-.18.52-.29.37-.7-.27-.22-.52.27-.72-.1-.02-.26.08-.42.31-.56.44-.05.85.1,1.13.66.05.1.1.12.14.09.21-.18.41-.3.38-.58-.07-.42-.39-.42-.53-.67Zm-3.12-.51q.18-.28.54-.22-.24.31-.54.22Zm2.02,2.33c-.09-.01-.18-.03-.3-.04.17-.23.25-.17.3.04Z"/>
          <path class="cls-3" d="m682.81,158.43c-.14-.35-.29-.59-.56-.64-.21.04-.32.18-.35.45-.01.25.24.45.12.72-.09.29-.27.43-.54.54-.44-.2-1-.04-1.45-.38-.3.13-.57.24-.82.35-.16.14-.09.48-.38.49-.12-.03-.29-.08-.45-.11-.02-.19-.03-.31-.05-.46-.49-.04-.97-.08-1.44-.12-.13-.2-.14-.47-.46-.56-.05,0-.22,0-.36,0-.18-.21-.15-.57-.52-.65-.38.08-.87.09-1.25.52q.2,1.44-.19,2.02c-.17.02-.34-.19-.58.06-.07.41-.37.71-.78.97.92.62,1.88.21,2.66.58.37-.16.42-.62.79-.73.11.02.28.05.46.08.17.25.33.48.48.71,1.67-.16,3.14-.66,4.63-.89.41-.39.84-.72,1.13-1.33-.23-.51-.06-1.09-.09-1.61Z"/>
          <path class="cls-3" d="m8.76,155.93c-.22.18-.39.33-.57.45-.21.15-.5,0-.7.26-.1.23-.16.49-.37.63q-.33.05-.65-.16c-.1-.26.25-.31.16-.57-.31-.56-.71.01-1.18-.15-.02-.04-.1-.18-.2-.35-.16.11-.31.21-.5.34-.57-.36-1.12.24-1.69.11-.15.2-.27.36-.38.5-.22.13-.42.15-.64.03-.18-.03-.11-.47-.38-.37-.18.19-.34.46-.62.41-.2-.32-.47-.44-.75-.42-.19.1-.27.23-.31.43.02.43.03.88.34,1.24.41.06.77.31,1.03.71.03.23-.25.14-.19.44.43.25.85-.05,1.23-.16.15.16.26.28.35.38.32.05.57-.12.81-.36.02-.09.04-.21.06-.32.26.1.5.32.79.22.33-.03.5-.51.73-.49.8.12,1.33.7,1.88.92.43-.02.42-.58.8-.67.43.21.95.3,1.49.25.31-.2.63-.4.94-.61.08-.06.13-.19.2-.29-.06-.42-.18-.78-.39-1.15-.48-.27-.97-.61-1.31-1.25Zm-8.02,1.61c-.08-.06-.12-.19-.21-.34.21-.04.37-.07.54-.1.03.15.06.29.09.43-.15.14-.29.11-.41.01Zm1.29,1.08q.13-.2.37-.04c-.12.15-.24.16-.37.04Zm1.58-.13v.44c-.08-.09-.17-.19,0-.44Zm.32-1.16c-.1-.12-.17-.21-.27-.33.32-.16.37-.05.27.33Z"/>
          <path class="cls-3" d="m347.71,157.69c-.53.05-.99-.37-1.49-.42-.1.18-.18.32-.3.54-.28-.58-.71-.13-1.05-.26-.13-.13-.25-.24-.4-.39-.28.24-.78-.01-.88.66.08.17.15.32.21.46-.17.26-.29.55-.61.64-.19.07-.34-.2-.61-.23-.2.17-.44.33-.72.29-.25-.07-.2-.64-.57-.51-.18.31-.22.69-.26,1.08.22-.01.47-.17.43.29-.32.28-.73-.05-1.17.47-.19.31-.48.84-.7,1.4.43.39.69-.33,1.07-.15.21.15.42.31.63.46.24-.23.66-.04.8-.52-.14-.12-.25-.21-.35-.31.1-.18.23-.24.37-.27.23.07.34.49.65.34.18-.09.24-.3.33-.48.23-.04.49.01.65-.31.09-.19.25-.25.42-.29-.05-.26-.06-.51.25-.67.35.44.72.91.99,1.25,1.18.7,2.19.38,3.13-.21.3.14.56.35.88.04.08-.34-.05-.82.27-1.1-.19-.39-.35-.74-.47-.99-.52-.4-1.1-.33-1.5-.8Zm-4.63,3.05s-.08,0-.09-.01c-.17-.31-.34-.62-.51-.94.1-.06.16-.1.22-.14.23.04.26.41.46.42.07.29,0,.49-.09.68Zm3.89-1.76c-.02.14-.08.22-.2.27-.06-.08-.12-.17-.19-.26.14-.11.26-.11.39-.01Zm-1.06,1.39c-.06-.46.09-.65.38-.67.09.28.26.31.48.29.16-.01.22.16.22.37-.36,0-.73,0-1.08,0Z"/>
          <path class="cls-3" d="m617.24,157.65c-.49-.28-.97-.57-1.47-.53-.31-.24-.48-.64-.76-.67-.97-.13-1.59.85-2.44.86,0,.39.39.49.28.87-.16.14-.32.16-.57-.07-.06-.11.02-.45-.16-.58-.47-.22-.59.46-1.03.52-.25.08-.62-.26-.95.14.11.68.68.46.97.74-.05.24-.18.31-.32.38-.33-.03-.67-.32-1.06,0-.02.12-.07.29-.08.46-.02.13,0,.26,0,.37q.47.26,1.2.09c.36.1.32.54.44.84.14-.03.28-.05.4-.08.25.1.37.44.65.46.11-.1.21-.2.3-.28.3-.02.58-.04.82-.05.27.08.46.36.76.25.04-.08.11-.18.14-.3.02-.11-.07-.26.15-.39.65-.08,1.38-.16,2.1-.25.27-.23.57-.4.76-.81-.11-.62.41-1.33-.12-1.96Zm-2.98,2.34c-.02-.07-.05-.14-.07-.21,0-.01.05-.04.07-.06.02.06.05.13.06.2,0,.02-.04.05-.07.07Zm.61-1.68c-.2.13.02.48-.18.64-.07-.29-.15-.56-.23-.88.33-.14.56-.13.82.05-.14.07-.26.12-.4.18Zm.75,1.21c-.08,0-.11-.05-.05-.11.02-.02.06-.02.08,0,.02,0,.03.04.04.07-.03.02-.05.05-.07.05Zm.54-1.59c-.05-.02-.1-.05-.16-.08.08-.09.15-.12.22,0,0,0-.04.07-.06.07Z"/>
          <path class="cls-3" d="m301.89,158.36c.03-.17.06-.38.1-.59-.17-.35-.39-.64-.68-.84-.05-.04-.13,0-.21,0-.11.14-.06.43-.2.48-.53.14-.47-.53-.74-.69-.14-.06-.28-.07-.42.08-.11.33-.23.69-.34.98.17.55.64.48.85.86-.07.29-.06.6-.23.85-.31.14-.52-.25-.87-.21-.36.09-.77.22-1.18.31-.14.03-.28-.02-.36-.27.12-.91.94-.72,1.33-1.22-.39-.49-.83-.49-1.24-.28-.14-.11-.15-.24-.15-.36-.3.09-.6.18-.84.25-.64-.23-.93-.9-1.36-1.26-.3-.03-.45.1-.5.43.2,1.07.89,1.85,1.07,2.93.06.36-.27.63-.09,1.11.45-.1.63.53,1.03.74.82.22,1.57-.42,2.34-.26.16-.17.25-.3.19-.6,0-.12-.32-.12-.2-.46.35-.42.75-.13,1.14-.12.01.29.02.5.03.72.29-.01.3.42.56.55.48-.36,1.17-.06,1.65-.66-.07-.4.39-.63.31-.91-.11-.41.21-.62.14-1-.36-.2-.87.03-1.15-.55Z"/>
          <path class="cls-3" d="m649.65,157.54c.11-.22.22-.44-.11-.65-.19.1-.41.22-.42.22-.34.29-.31.59-.53.66-.17,0-.33-.08-.43-.33.05-.14.12-.31-.12-.52-.29.18-.7-.03-1.06.16-.58.33-1.17.3-1.63.22-.48.15-.83.26-1.17.38-.21.07-.39.21-.51.6-.01.28.16.68.02,1.13.42.04.26.7.66.89.4.17.89.3,1.28.63.62-.18,1.15.22,1.72.14.16.22.32.4.6.46.66-.27,1.39-.44,1.95-.95.17-.28.31-.48.43-.69.12-.21.23-.45.36-.69,0-.39.09-.79-.03-1.07-.27-.59-.64-.64-1.03-.6Zm-2.09.3c-.09.03-.18,0-.2-.14.08-.13.17-.11.25-.02.05.05.04.14-.05.17Z"/>
          <path class="cls-3" d="m90.69,157.22c-.15.2-.29.4-.48.65-.24-.45-.64-.34-.95-.51-.33-.28-.53-.76-.95-.86-.08.14-.16.29-.25.45-.15.05-.32.11-.43.14-.26-.11-.19-.43-.35-.55-.2-.09-.41-.09-.61,0-.09.13-.18.26-.25.34-.66.28-1.19-.35-1.65-.31-.44.11-.51.57-.92.71-.35-.4-.7-.79-1.3-.47-.04.45-.53.58-.64,1.09.18.44.05.97.3,1.4.28.48.76.89,1.04.75.07-.22.15-.46.21-.64.18-.22.35-.26.53-.2.21.16.27.53.55.6.58-.04,1.07-.36,1.46-.94.14.22.25.38.32.51.35.22.64-.14.96-.07.08.17.16.32.41.34.23-.28.57-.14.91-.17.39-.03.76-.13,1.03.13.4-.1.71-.16,1.02-.25.05-.01.09-.09.14-.14-.1-.17-.29-.3-.13-.56.19-.22.4.15.58-.02.19-.11.27-.29.29-.54-.19-.42-.42-.81-.85-.9Z"/>
          <path class="cls-3" d="m208.85,158.53c.12-.29.16-.57-.03-.83-.28-.02-.26.41-.49.49-.16-.15-.32-.31-.47-.46-.03-.51-.11-.94-.54-1.18-.34-.05-.72-.16-1.01.21-.08.2.05.42-.16.51-.3.02-.69-.1-.91.09-.35.3-.69.13-1.02.21l.02-.02s-.02,0-.03,0c0,.01,0,.01.01.03-.08.07-.15.14-.19.17-.81-.08-1.49-.59-2.27-.77-.28.38-.58.68-.93.88q-.81.04-1.17.31c.29.38.79-.04,1.06.47-.06.28-.13.59-.21.98-.15-.2-.24-.32-.33-.43,0,0,.01-.02.02-.02-.02,0-.03,0-.04,0l.02.04c-.36.1-.63.37-.83.71,0,.2.08.28.22.38.72-.44,1.57-.08,2.29-.49.25.1.45.18.63.25.11.16.19.3.27.41,1.04.39,2.11.32,3.15.55.26.06.58.08.79-.34-.04-.13-.08-.29-.12-.43-.23-.18-.41.2-.61.04-.21-.12-.4-.22-.52-.49.29-.19.64.12.92-.2-.02-.18-.04-.38-.06-.57.3-.09.58-.25.66-.16.43.56.07.74.03,1.02.29.15.17.67.45.81.22.02.35-.09.4-.34-.05-.16-.15-.31-.1-.5.36-.31.88-.25,1.17-.76-.26-.35-.64.01-.88-.33.27-.33.6.05.84-.23Zm-6.68-.36v-.11s.04.02.04.02l-.04.1Zm1.53-.02s.04.06.05.08c-.02.02-.04.05-.06.07-.02-.03-.05-.06-.05-.08,0-.03.04-.05.06-.07Zm1.07,1.97c-.64.39-.79-.67-1.32-.49.41-.37.78-.79,1.41-.72-.05.49-.25.84-.09,1.21Zm.4-2.18c.39-.08.72-.15.91.48-.33-.18-.6-.32-.91-.48Zm1.49,0c.23-.18.42-.18.61.01-.19.09-.38.19-.61-.01Z"/>
          <path class="cls-3" d="m529.95,158.91c-.24-.19-.53.31-.84.1-.23-.09-.23-.44-.45-.6-.24-.08-.52-.17-.81-.26-.62.26-1.22.68-1.93.79-.21-.08-.44-.17-.67-.27-.39.13-.76.26-1.15.39-.33-.06-.67-.31-1.01,0-.1.32.22.43.22.74-.06.31-.1.67-.27.92-.3.25-.72.19-.96.66.16.28.39.38.63.54.22-.03.46-.06.7-.09.21.05.34.39.61.27.1-.15.2-.31.34-.52.23.04.47.07.62.09.38.19.51.67.97.68.52-.44,1.27-.37,1.8-.96.26.2.46.36.68.52.38-.15.75-.28,1.11-.45.32-.14.54-.45.67-.83.1-.32.14-.68.2-.97-.13-.29-.18-.56-.46-.76Z"/>
          <path class="cls-3" d="m587.8,156.86c-.18.14-.32.26-.48.38-.35-.31-.74-.61-1.11-.47-.47.17-.79-.41-1.2-.24-.24.41-.23.95-.54,1.28-.33-.05-.24-.66-.69-.69-.21-.02-.33.43-.73.53-.2,0-.52,0-.83,0-.3-.06-.54-.47-.94-.23,0,.6,0,1.21,0,1.88.1.21.22.48.32.7.48.45,1.03.52,1.45.79.34-.03.37-.5.64-.55.55-.11,1.14.14,1.58-.24.39.15.69.26,1.02.39.7-.26,1.42-.51,2.12-.8.23-.09.47-.23.53-.6-.1-.47-.2-.94-.32-1.5-.32-.25-.58-.45-.83-.65Zm-2.4,1.37c.01-.17.09-.25.23-.27.09.31,0,.38-.23.27Z"/>
          <path class="cls-3" d="m179.61,158.22s0,.03,0,.04c.02,0,.03,0,.05-.01,0-.01-.01-.02-.02-.03,0,0-.02,0-.03,0Z"/>
          <path class="cls-3" d="m178.98,158.14c-.16.16-.32.11-.47-.06,0-.18.01-.36-.21-.57-.36-.04-.76-.29-1.07-.72-.4.24-.75.43-1.07.47-.23.25-.03.61-.26.77-.22,0-.32-.16-.38-.4,0-.28.33-.34.26-.7-.46-.16-.72.5-1.33.5-.19-.12-.57.07-.85.09-.31-.08-.44-.38-.7-.3-.03.11-.06.23-.07.27-.02.41.43.44.3.86-.2.08-.39.16-.59.24,0,.21.02.38.02.5-.21.46-.41.88-.58,1.32-.06.16-.02.35.11.49.25-.26.64-.05.87-.39.03-.18.06-.34.08-.52.45.3.4.89.52,1.35.35-.07.47-.48.83-.62.43-.01.88-.28,1.34-.53.67.62,1.41.81,2.22.61.13-.21.26-.42.37-.61.29-.04.4.41.69.32.46-.28.47-.92.69-1.28-.02-.44-.36-.55-.33-.9.07-.12.16-.13.25-.11.02-.17,0-.32-.12-.44-.27-.1-.36.2-.51.36Z"/>
          <path class="cls-3" d="m286.4,159.48c.03-.16.15-.37-.02-.62-.23-.04-.51-.1-.79-.15-.17-.31-.33-.6-.5-.93-.14.06-.26-.26-.45-.06-.02.28.27.28.29.52-.03.2-.14.29-.32.34-.15-.14-.32-.29-.48-.45-.18-.01-.35-.05-.54.11-.21.31-.44.65-.67.99-.07.18.06.45-.24.61-.12-.16-.26-.35-.36-.48-.02-.55-.08-.97-.22-1.38-.06,0-.13,0-.24,0-.09.55-.18,1.09-.27,1.66-.14.06-.29.18-.41.15-.42-.13-.83-.13-1.26-.06-.59.09-1.12-.13-1.56-.65-.07-.08-.12-.09-.18-.02-.23.18-.29.51-.41.78.05.16.1.32.15.51-.06.19-.13.38-.21.61.11.3.23.62.37,1,.64-.03,1.26-.06,1.84-.08.12-.2.21-.33.27-.43.25-.05.33.43.61.19.28-.22-.3-.83.22-.96.41.33.53.93.82,1.33.44.47.7-.15.99-.23.16.11.28.19.41.29.16-.15.29-.29.45-.45.25-.05.53-.1.8-.15.03-.15.06-.27.08-.38.71.28,1.43-.01,2.13.11.33-.36.37-.79.4-.92-.06-.88-.56-.22-.68-.74Zm-7.52,1.77c-.13-.13-.11-.28-.02-.43.16.02.22.14.2.33-.06.03-.12.06-.18.09Zm1.06-.43c0-.07,0-.13-.01-.2.15.05.05.12.01.2Zm4.58.17c-.25,0-.46-.08-.6-.37.11-.16.21-.33.3-.46.12-.35-.2-.44-.21-.69.33-.2.55-.05.73.37-.1.35-.23.74-.21,1.16Z"/>
          <path class="cls-3" d="m117.92,157.05c-.02-.21.05-.45-.15-.58-.17.05-.34.1-.43.13-.32-.07-.34-.46-.58-.48-.31-.02-.63-.09-.93.08-.09.16-.16.31-.34.27-.11-.11-.22-.22-.42-.42-.29.05-.56.09-.85.14-.2.28-.38.54-.54.77-.27.13-.5.25-.74.11-.21-.18.09-.54-.07-.64-.57-.29-.45.7-.87.56-.23-.12.01-.57-.28-.61-.41.11-.38.76-.73.92-.2.17-.5-.04-.71.32.25.19-.15.45.04.7.13.05.26.09.41.15.18.2.18.58.48.77.3-.07.61.22.98.26.19-.08.37-.25.6-.19.15.09.3.18.4.24.43.09.74-.23,1.1-.26.26.12.51.3.86.28.09-.03.23-.06.36-.13.22-.13.44-.28.69-.44.14.06.31.13.47.21q1.48-.37,1.87-1.09c.05-.61-.44-.67-.61-1.05Z"/>
          <path class="cls-3" d="m131.86,157.04c.05-.25.08-.45.12-.65q-.68-.43-1.64-.47c-.07-.06-.17-.12-.25-.21-.11-.11-.21-.24-.41-.21-.28.19-.54.53-.92.52-.35,0-.71,0-1.09,0-.16.12-.34.26-.52.41-.17-.04-.37-.16-.51-.09-.5.26-.97.14-1.44-.05-.05-.02-.12.07-.2.12.04.25.08.5.12.72-.14.19-.25.35-.37.51-.04.42-.1.82.2,1.22.28.19.69.22.96.54.35-.13.65-.25.85-.32.31.04.52.07.73.09.24.02.43.35.72.14.19-.1-.05-.43.14-.55.26-.17.45.26.75.12.15-.28.32-.6.5-.93.51.15.64.91,1.19,1.04.11.01.28,0,.45-.13.09-.15.19-.32.29-.47.17.12.32.22.51.35.3-.15.63-.32.95-.48-.1-.86-.58-1.09-1.14-1.21Z"/>
          <path class="cls-3" d="m332.62,158.12c-.54-.13-1.03.01-1.52.08-.14.14-.28.27-.4.38-.38.08-.59-.32-.93-.46-.16.34-.6.07-.75.53.23.05.44.14.55.44-.36.23-.59.82-1.18.6-.12-.27-.39-.47-.63-.71.01-.14.03-.27.05-.43-.18-.08-.36-.16-.53-.24-.1-.26-.13-.56-.4-.55-.31.13-.15.58-.46.86-.22.08-.52.38-.95.3-.13-.11-.3-.25-.46-.38-.14.03-.21.12-.22.29.14.4.4.58.74.61.54.05.86.47,1.17.95-.26.2-.4-.29-.69,0,.02.35-.18.78.17,1.21.39-.09.78.14,1.16.25.27-.42-.16-.83.12-1.2h.3c.36.72.69,1.55,1.54,1.1.29-.26.15-.69.33-1.04.25-.13.54-.27.79-.4.23.1.34.26.42.53.11.29-.21.64-.02.97.1.15.21.26.36.25.26-.02.35-.47.66-.37.14.12.29.24.46.39.23-.27.46-.53.65-.74-.05-.3-.12-.47.02-.65.15-.01.31-.02.46-.04.2-.14.24-.35.26-.62-.06-.4-.18-.82-.36-1.21-.25-.25-.51-.49-.73-.7Zm-.37,2.81c-.23.13-.39,0-.54-.22-.05-.3.01-.59.1-.87.15-.12.15-.12.56.59,0,.18,0,.35-.12.49Zm.08-1.82s-.06-.06-.09-.08c.02-.03.04-.07.07-.07.02,0,.04.05.06.08-.01.03-.02.05-.04.08Z"/>
          <path class="cls-3" d="m379.76,157.38c-.33-.1-.54-.03-.72.1-.25.17-.48-.21-.77.04-.29-.02-.32.62-.69.6-.27-.16-.3-.63-.66-.73-.46.43-1.07-.12-1.61.32-.1.18-.22.39-.31.53-.56.42-1.11.54-1.64.59-.19.23-.35.4-.33.78.18.2.39.43.58.64.08.37.06.77.41.91.25.04.42-.33.69-.23.3.11.49-.36.8-.23.11.18.21.35.28.46.32-.04.48-.22.66-.37-.03-.16-.25-.2-.14-.43.12-.18.26-.28.42-.18.3.2.25.69.58.86.3.06.64.26,1.03,0,.16-.63-.15-1.28,0-2.01.76.26.61,1.33,1.14,1.77.71.19,1.01-.56,1.42-.95.09-.65-.21-1.09-.3-1.58-.35-.3-.55-.75-.84-.87Z"/>
          <path class="cls-3" d="m163.6,158.04c-.2-.25-.2-.64-.48-.75-.27-.11-.58.04-.83-.21-.08-.18-.17-.37-.25-.53-.15-.08-.29-.14-.44.01.03.36.24.69.16,1.17q-.61-.03-1.22-.71c-.11-.22-.02-.55-.29-.79-.63-.37-1.33-.8-2.14-.61-.03.2-.05.36-.07.52-.16.21-.35.28-.59.16-.1-.15-.21-.32-.34-.52-.71.2-1.48-.07-2.19.52.28.61.16,1.39.64,1.91.12-.2.22-.37.2-.35.64-.2,1.11-.56,1.59-.45.17-.21.24-.44.46-.45.28.05.45.44.77.43.39-.23.67-.79,1.24-.72.39.54.86,1.05,1.12,1.86-.48.05-.41.78-.8.99-.37-.4-.73-.79-1.06-1.16-.32.04-.39.34-.54.52-.14.17-.44.16-.4.54.12.32.4.08.58.29.15.47.33.94.69,1.25.36.15.69.01.95-.19.23.12.38.27.6.14.04-.08.09-.19.14-.29-.17-.33-.62.03-.7-.48.17-.47.38-.93.74-1.24.05-.04.13-.03.19-.04.15.06.25.19.3.35,0,.41-.31.69-.23,1.2.19,0,.38.16.58-.1.09-.21-.04-.41-.04-.63,0-.27-.04-.54.11-.71.16-.17.29-.17.46,0,.19.49.13,1.16.43,1.65.27.15.41-.05.56-.26.15-.21.38-.21.59-.29.21-.08.4-.18.58-.44.04-.2.08-.46-.05-.77-.21-.45-.68-.53-.97-.84Zm-4.92-1.77c.16-.13.32-.13.49,0-.16.21-.32.19-.49,0Z"/>
          <path class="cls-3" d="m317.55,159.04c-.26-.17-.57-.15-.76-.46-.19-.17.01-.56-.31-.71-.19.09-.5-.2-.69.21.02.33.26.43.37.65.13.25.22.53.32.76.15.13.41-.03.39.33-.51.45-.51.45-.94.47-.5-.61-.51-1.39-.45-2.22-.11-.15-.22-.32-.35-.48-.14-.18-.13-.52-.39-.57-.33.08-.18.7-.55.75-.13-.18-.27-.36-.38-.52-.52-.11-.81.29-1.05.64-.44.15-.84-.03-1.31.24-.06.42-.51.5-.8.86.22.37.7.2.75.71-.15.25-.41.08-.65.31.03.37-.44.42-.48.87.05.07.1.14.14.2.6.08.64-.75,1.01-1.02.24.06.42.17.55.46.03.26-.06.6.15.82.69.39,1.38.39,2,.04.38.13.69.24.96.34.37-.14.71-.26,1.15-.43.26-.55.84-.72,1.36-1.22-.25-.33.19-.66,0-1.04Zm-3.88,1.24s-.06,0-.09-.02c-.01,0-.01-.05-.02-.07.03-.01.06-.04.08-.03.09.02.1.08.02.12Z"/>
          <path class="cls-3" d="m253.62,157.73c-.61-.19-.85.33-1.14.46-.36-.15-.41-.55-.59-.74-.18-.2-.47-.3-.69-.52-.27.2-.54.41-.8.6-.69-.16-1.32.01-1.9.43-.12.22-.23.44-.36.67.06.25.12.5.17.76.01.08-.02.17-.03.25-.09.1-.18.1-.3.03-.09-.34-.08-.81-.56-.83-.04.33-.08.66-.11.91.05.38.42.3.4.65-.23.41-.58-.39-.83.16.25.25.48.5.81.57.38-.1.66-.51,1.07-.49.21.14.11.54.39.64.27-.07.6-.08.87-.25.37-.22.69.11,1.02.02.2-.12.4-.23.49-.28.6,0,1.1.21,1.52-.33-.01-.19-.03-.39-.04-.57.31-.2.55.19.86.08.18-.36.36-.73.54-1.1-.2-.57-.53-.95-.79-1.12Z"/>
          <path class="cls-3" d="m34.23,155.33c-.39-.12-.64.39-1.02.31-.33.03-.55-.42-1.03-.29-.16.1-.44.28-.69.43,0,.22,0,.38,0,.56-.29,0-.58,0-.86,0-.06,0-.13-.07-.19-.11-.04-.11-.07-.23-.1-.35-.23-.09-.46-.21-.69-.26-.14-.03-.27.07-.33.34.1.26.21.57.31.83-.09.26-.2.36-.36.31-.29-.15-.04-.71-.35-.83-.51.31-.17.94-.38,1.33-.16.23-.41.39-.29.85.23.22.61.25.79.62.21-.04.38-.07.58-.1.07.14.15.29.2.38.5.05.92.09,1.34.12.06,0,.12-.08.18-.11.24-.24-.04-.74.31-.93.37.09.13.83.56.85.34.02.5-.49.95-.46.19-.02.39.39.71.23.22-.12-.01-.55.28-.62.17.15.34.29.46.41.32.04.56.01.69-.18.19-.31.15-.58.13-.89-.37-.81-.6-1.76-1.18-2.43Zm-3.18,2.25c-.27-.14-.45-.28-.48-.6.14-.35.37-.32.61-.18.06.27-.03.5-.14.78Z"/>
          <path class="cls-3" d="m421.3,158.5c-.09.03-.23.05-.35.13-.12.07-.2.26-.41.17-.2-.3-.42-.64-.66-1.01-.45-.08-.88-.23-1.27-.6-.52.38-1.04.3-1.48.12-.49.11-.9.21-1.29.3-.07.25-.12.45-.17.62-.22.26-.52-.05-.76.29-.03.64.18,1.3.21,1.95q.86.57.96.46c.02-.26-.38-.32-.19-.66.37-.17.41.4.68.49.3.1.58.29.78.4.44-.01.51-.62.87-.58.18.3.04.91.53.85.29-.1.31-.43.39-.7.67.42,1.34.78,2.15.29.21-.53.56-1.04.64-1.7-.14-.36-.27-.68-.63-.82Zm-4.61-.07c-.08.12-.16.12-.24,0,.08-.12.16-.13.24,0Zm-.13,1.14s-.06-.02-.09-.03c-.02-.04-.04-.07-.06-.11.06-.39.3-.25.5-.26-.04.23-.18.34-.34.4Zm1.39-.34c-.11-.38-.22-.74-.31-1.06.07-.32.21-.4.41-.35.22.16.11.38.08.59-.03.22.12.39.2.57-.15.1-.24.16-.37.25Z"/>
          <path class="cls-3" d="m559.28,158.67c-.19-.14-.2-.57-.48-.6-.35.21-.35.81-.74.94q-1.34-.55-2.41-.29c-.31-.23-.7-.22-1.08-.22-.06-.14-.11-.29-.19-.49-.74.45-1.53.7-1.98,1.56.09.36.32.29.44.43.1.41.04.77-.17,1.11-.02.03.04.15.07.25.26-.06.53-.11.82-.17.39.35.9.18,1.3.4.47.26.91.03,1.36.1.83.13,1.54-.16,2.06-1.04.08-.14.22-.23.33-.18.31.14,0,.56.33.71.48-.15.71-.73,1.03-1.19.23-.33.26-.7.25-1.08-.28-.36-.64,0-.94-.24Zm-4.79-.12s.03,0,.04-.01c-.02.03-.04.06-.06.09,0-.03,0-.07.02-.08Zm.45.89c.06,0,.12-.02.18-.03-.04.22-.11.09-.18.03Z"/>
          <path class="cls-3" d="m601.42,157.36c-.26.1-.56.21-.92.35-.37-.42-.86-.51-1.37-.5-.49.01-.97-.4-1.54.05-.19.26-.46.61-.74.99-.04.29-.09.59-.29.82-.2.15-.48.21-.52.72.06.18.15.46.23.7.4.31.79.24,1.14.18.29-.15.46-.52.8-.45.34.01.48.51.8.54.34-.02.34-.59.65-.61.42-.07.57.54,1.04.52.22-.12.51-.28.81-.44.28.05.56.1.88.16.26-.47.82-.49,1.04-1.17-.23-.34-.36-.79-.42-1.19-.5-.47-1.01-.62-1.58-.69Zm-2.82.62c-.05-.01-.1-.05-.15-.07.08-.1.15-.09.22.01-.02.02-.05.06-.07.06Z"/>
          <path class="cls-3" d="m574.4,158.75c-.17.02-.2.23-.28.33-.63-.28-1.25-.56-1.9-.86-.29.06-.6.13-.84.18-.35-.06-.59-.32-.89-.24-.27.02-.45.26-.68.4-.73-.15-1.48.11-2.23-.14-.19.31-.34.62-.65.69-.07.02-.12.19-.18.27.12.4.39.69.39,1.13-.04.3-.28.54-.13,1.01q.62.27,1.67-.05c.31.08.66.17,1.05.28.56-.43,1.22-.23,1.9-.32.39-.29.84-.53,1.36-.55.39-.02.76-.23,1.15-.54,0-.47.49-.67.51-1.16-.05-.22-.1-.38-.26-.42Zm-3.82,1.61c-.2.04-.42.11-.64-.09.1-.29.2-.6.29-.87.29-.09.52.05.54.31.04.32.3.35.36.6-.16.35-.37,0-.56.05Z"/>
          <path class="cls-3" d="m664.37,157.97c-.43-.41-.93-.37-1.38-.46-.47.2-.91.52-1.34.54-.5.02-.98.13-1.46.28-.23-.15-.44-.29-.66-.43-.18.17-.41.22-.52.62.13.6.16,1.31-.1,1.97.35.27.64.5.92.72,1.19.29,2.26-.24,3.41-.69.44.44.96.63,1.65.3.21-.24.5-.56.82-.92-.27-.57.03-1.27-.4-1.75-.3-.25-.66.09-.93-.16Z"/>
          <path class="cls-3" d="m270.86,159.42c-.1-.1-.24-.24-.34-.35-.09-.58-.04-1.15-.43-1.51q-.74-.01-.73.16c.11.09.22.19.34.29-.05.19-.1.36-.16.54-.43.07-.85.14-1.26.21-.41-.4-.82-.7-1.29-.66-.45.34-.48.95-.68,1.32-.42.12-.54-.31-.72-.44-.52-.22-.85.03-1.15.11-.41-.17-.75-.37-.85-.92-.19-.02-.36-.03-.52-.04-.16.25-.29.46-.41.65-.21.08-.42.16-.58.23-.16.29-.38.48-.36.84.08.27.33.14.43.27.11.22-.05.48.15.68.34.55.79.24,1.15.07.24.14.3.42.52.39.16-.13.44-.06.48-.42-.02-.28-.28-.43-.23-.79.35-.07.71-.04,1.07.03-.06.48-.37.9.03,1.34.33.02.66-.28.98-.19.15.12.26.22.35.3.19-.05.31-.12.35-.32-.05-.16-.09-.31-.14-.47.27-.22.21-.7.58-.89-.02.29.26.4.19.72-.05.17-.43,0-.23.44.41.08.83.39,1.31.28v-.57c.65-.52,1.28-.23,1.87.04.23-.06.36-.2.48-.46-.23-.21-.05-.55-.16-.9Zm-8.27.35c-.13.07-.26.03-.44-.18.12-.13.19-.21.27-.31.1.06.19.11.26.16.05.16.03.27-.08.32Zm.9-.16l.04-.07.02.08h-.06Zm6.39.06s-.16-.04-.17-.09c-.06-.22.04-.29.2-.31.1.15.14.3-.03.4Z"/>
          <path class="cls-3" d="m480.97,158.16c-.25-.31-.55-.49-.88-.57-.15.18-.28.33-.37.44-.47.05-.79-.28-1.23-.44-.12.21-.26.47-.32.59-.52.16-.89.33-1.27.38-.42.06-.84.02-1.3.02-.16-.08-.36-.17-.54-.26-.22.12-.41.22-.61.32-.19.1-.39.2-.58.29.09.24.32.28.34.53-.02.47-.56.41-.57.99-.09.28.42.28.32.66-.24.32-.58.11-.98.29.9.3,1.69.16,2.48.09.12-.01.22-.2.31-.28.01-.23.02-.4.04-.7.21.29.26.64.63.7.45-.37,1-.25,1.49-.03.25-.25.27-.64.62-.74.21.04.44.33.74.28.61-.14,1.04-.69,1.5-.97.2-.35.02-.59.01-.84-.02-.28.27-.43.18-.75Zm-1.46.85c-.02-.07-.07-.16-.05-.21.02-.05.1-.07.16-.1.02.07.08.17.06.21-.03.06-.11.07-.17.11Z"/>
          <path class="cls-3" d="m449.22,157.88c-.42.12-.85.47-1.37.4-.3-.22-.39-.74-.54-.8-.47-.19-.71-.16-.97-.05-.24.5-.57.86-1.2.74-.47-.74-1.22-.51-1.78-.54-.47-.18-.43-.81-.76-.96-.34.28-.01.52-.06.76-.05.25-.2.48-.12.76.24.2.38.49.46.83.03.11.02.18-.06.23-.29.13-.65-.16-1.03.38-.08.13-.14.52-.21.86.13.26.28.33.48.3.42-.26.4-1.07.97-1.22.17,0,.35.14.53.33.14.32.14.8.63.89.18-.12.43-.27.69-.44.4.26.82.22,1.25.22.77-.01,1.53-.38,2.27,0,.37-.29.72-.49.99-.97-.17-.37.11-.72.07-1.12-.02-.22.04-.45-.24-.59Zm-2.6,2.36c-.04.07-.09.05-.12-.04,0-.01.04-.06.06-.07.02,0,.04.02.06.04,0,.03.01.06,0,.08Z"/>
          <path class="cls-3" d="m465.18,158.24c-.11.14-.21.25-.3.35-.38-.08-.49-.53-.77-.75-.24.04-.34.44-.62.43-.42-.13-.44-.8-.87-1-.19.06-.43.14-.6.2-.27-.07-.38-.39-.63-.34-.24.24-.44.57-.82.64-.67-.28-1.4-.15-2.19-.13.2.4.55.46.64.86-.23.4-.64.51-.94.81-.03.03-.12-.04-.19-.06-.17-.16.16-.41-.12-.6-.5.13-.4.79-.6,1.14.13.39.34.54.59.64q.73-.21,1.24-.05c1.26-.04,2.3-.24,3.36-.47.55.59,1.13.41,1.67.06.36.21.68.41,1.14.15.26-.29.4-.89.87-1.13-.45,0-.57-.53-.85-.76Zm-2.82.64c.22-.29.43-.39.69-.09-.3.5-.3.49-.69.09Z"/>
          <path class="cls-3" d="m240.3,158.37c-.33.06-.66.28-1.02.1-.19-.07-.09-.45-.33-.47-.31-.06-.4.24-.54.49-.38.07-.58-.25-.8-.55-.05-.25-.1-.49-.15-.73-.36-.01-.54.51-1.01.36-.3.04,0-.43-.15-.58-.14-.03-.28-.07-.4.07-.22.2.07.75-.38.85-.15-.56-.27-1.12-.7-1.44-.17-.02-.36-.11-.42.21.07.34.41.34.51.63-.2.14.13.58-.23.63-.14-.19-.26-.4-.41-.57-.12-.13-.25-.13-.41.15.34.4.26,1.01.33,1.55.25.24.49.45.34.94-.17.14-.39.28-.58.47-.08.08-.25.22-.04.46.65-.4,1.33-.4,2.02-.04.34-.26.58-.7,1.09-.77.44.59,1.2.38,1.78.87.34-.06.68-.12,1.06-.2-.07-.23-.12-.39-.17-.57.18-.12.37-.24.57-.38,0-.46.38-.72.41-1.12-.1-.24-.23-.29-.38-.35Zm-3.73.57l.04-.07.02.08h-.06Zm1.86-.43c.12-.05.23-.01.32.13-.17.16-.28.14-.32-.13Zm.29,1.02c.1-.28.23-.54.54-.46-.09.22-.18.43-.25.61-.15.09-.22,0-.29-.15Z"/>
          <path class="cls-3" d="m366.46,158.04c-.35-.06-.66-.11-.96-.16-.31-.11-.51-.52-.87-.45-.23.04-.24.29-.3.49-.07.19-.02.46-.19.56-.49.22-1.02-.12-1.41.26-.14.33.34.44.06.74-.29-.08-.59-.16-.88-.24-.22-.61-.66-.89-1-1.22-.35.15-.23.63-.5.76-.3.14-.29.6-.55.79-.28.07-.49-.39-.83-.16-.03.07-.09.18-.17.33.32.29.63.57.95.87.08-.22.15-.41.22-.61.29.02.44.45.74.39.19.07.3-.27.45-.17.13.11.18.21.15.35-.14.2-.44-.06-.55.36.1.18.2.4.44.52.11-.03.24-.07.42-.12.15.08.27.37.29.37.68,0,1.11-.13,1.36-.37.24-.54-.31-.51-.13-1,.48.27,1.01.27,1.49.42.08.2.08.42.38.35.25-.89.91-1,1.57-1,.26-.31.59-.46.62-.99-.22-.18-.45-.38-.64-.54-.07-.22-.12-.38-.18-.54Zm-.65.93s-.05-.06-.04-.08c0-.02.04-.04.06-.06.02.03.05.05.05.08,0,.02-.04.04-.06.06Z"/>
          <path class="cls-3" d="m49.66,156.32c-.33-.07-.47.36-.77.45-.15-.15-.31-.31-.48-.47-.18,0-.36,0-.53,0-.03-.16-.1-.23-.23-.21-.02.16.04.25.17.29-.04.26-.07.52-.25.71-.21.11-.4.35-.7.15-.04-.26-.09-.56-.13-.86-.16-.17-.32-.33-.47-.49-.39.15-.56.73-.99.72,0,0,0,0,0,.01-.11-.09-.21-.17-.25-.2-.56-.05-.83.42-1.13.7-.24-.16-.42-.28-.63-.42-.13.39.04.84-.26,1.13.17.39.19.85.49,1.25.49,0,1.02,0,1.46,0q.5.5.87.34-.25-1.11-.17-1.63c.47.38.83.91,1.17,1.43.5,0,.94-.28,1.41-.18.19.05.37.25.74.15.16-.06.47-.17.75-.27.25-.37.47-.7.67-1,.06-.32.05-.58-.08-.92-.24-.12-.31-.62-.66-.69Zm-5.84,1.82l-.08-.03.08-.03v.06Zm1.37-1.16c-.09-.19-.15-.34.09-.33,0,.07,0,.15-.01.22,0,.04-.04.06-.08.12Z"/>
          <path class="cls-3" d="m394.79,158.64c-.26.16-.54.34-.76.48-.14.22-.02.54-.43.62-.1-.37-.32-.67-.28-1.1.09-.14.18-.27.27-.4-.64-.29-1.28-.55-1.88-.07-.48-.21-.89-.61-1.38-.11-.02.22-.04.47-.06.74-.63-.37-1.17-.02-1.7.35-.08.06-.2.05-.28.07-.09-.09-.17-.17-.24-.24-.05.12-.1.23-.15.35-.15.17-.45.04-.51.39.04.28.18.48.39.76.41-.13.66.47,1.09.55.32.07.64,0,.95-.12.64.35,1.33.17,2.06.15.07.12.16.26.24.41.2-.1.39-.2.57-.28.19.08.35.15.51.22.35-.15.69-.3,1.02-.44.35-.56.69-1.11,1.01-1.62.03-.43-.07-.67-.42-.7Zm-5.41,1.77c.1-.42.27-.35.46-.28-.03.45-.2.43-.46.28Zm3.77.37c-.23.04-.42-.17-.63-.35-.04-.15-.09-.32-.15-.49-.22-.2-.45-.4-.67-.6-.21-.04-.4.2-.62.04-.14-.18-.02-.29.09-.44.97-.12,1.48.84,2.12,1.42,0,.2,0,.33-.14.41Zm.46-.41c.08-.06.16-.11.22.03-.08.08-.16.1-.22-.03Z"/>
          <path class="cls-3" d="m542.14,159.07c-.11-.15-.23-.32-.37-.51-.27.03-.55.07-.83.1-.33.63-.77,1.03-1.36,1.16-.38-.31-.3-1.14-1.04-1.27-.1-.03-.18.3-.35.43-.18.14-.44,0-.62.28-.07.19-.15.43-.22.63.04.45.3.77.23,1.18-.14.2-.33.14-.49.2-.02-.26.04-.53-.08-.77-.17-.2-.3-.48-.54-.5-.18.14-.31.3-.34.53.06.15.11.3.17.45.07.47-.48.46-.42.92.48.36.94-.13,1.41-.11.5.02.96-.18,1.44-.3.23.18.44.34.65.51.41,0,.83.14,1.19-.13.24-.39.05-.81.17-1.16.49,0,.77.6,1.24.71.46-.08.86-.31,1.19-.83.1-.38.22-.8.03-1.2-.32-.38-.71-.15-1.05-.32Zm-1.71,1.61c.12-.18.18-.07.25,0-.08,0-.15,0-.25,0Z"/>
          <path class="cls-3" d="m75.7,156.28c-.3-.13-.61-.39-.95-.27-.1.21.07.26.08.39-.31.14-.22.78-.65.81-.17-.07-.37-.14-.53-.2-.33.06-.54.39-.87.28-.12-.13-.25-.28-.5-.56-.41.6-.95.74-1.39,1.03-.28-.12-.4-.52-.76-.31-.05.65-.18,1.32-.35,1.97,0,.02.04.06.07.1.18.14.21-.2.36-.16.12.13.25.26.36.38.49,0,.95,0,1.4,0,.4-.18.8-.36,1.19-.53.38.1.72.18,1.04.26.51-.16.99-.31,1.46-.46.32-.32.63-.61.78-1.09-.13-.62-.29-1.21-.73-1.63Z"/>
          <path class="cls-3" d="m102.65,157.02c-.15-.24-.06-.64-.4-.83-.11.32-.33.51-.62.55-.3-.15-.4-.52-.55-.84-.39,0-.34.64-.63.71-.41-.02-.18-.7-.55-.73q-.33.45-.48,1.29c-.44,0-.28-.68-.64-.66-.19.37-.4.74-.26,1.23.01.05-.06.14-.09.21-.17.03-.35.07-.49.09-.13.17-.21.31-.15.52.08.42.43.19.65.43.04.1.1.25.17.41.06.14.04.35.21.41.09-.13.19-.26.29-.41,1.06.42,2.15.08,3.25.21.36-.54.9-.68,1.42-.98.05-.7-.51-1.04-.51-1.55-.26-.29-.44.21-.64-.05Zm-3.66,1.64c.11-.12.16-.17.21-.23.18.07.23.28.31.47q-.25.2-.52-.24Zm1.7-1.58l.04-.07.02.08h-.06Z"/>
          <path class="cls-3" d="m433.92,157.37c-.41,0-.76,0-1.06.22q0,.65-.34.78c-.21-.35-.19-.86-.5-1.17-.71-.4-1.11.64-1.67.57-.36.56-.53,1.13-.66,1.72.17.41.61.25.81.62.19.2.06.62.35.87.33.11.71-.04,1.06-.05.3-.34.41-.9.86-.92.28.26-.15.63.13.86.06.02.16.09.19.05.63-.58,1.34-.93,2.09-1.16.12-.04.23-.21.32-.35.06-.1.07-.24.11-.38-.16-.3-.31-.6-.51-.97-.3-.4-.93-.12-1.18-.69Zm-1.89,1.79c.08-.12.16-.1.24,0-.08.09-.16.13-.24,0Zm1.62.25c.02-.11.04-.22.06-.33.19.03.32.15.41.35-.15.26-.31.21-.48-.01Z"/>
          <path class="cls-3" d="m20.78,155.37c-.23-.03-.37.07-.47.25h0c-.34.1-.68.2-1.01.3-.42-.29-.86-.42-1.35-.47-.41.59-.8,1.21-1.33,1.65-.13.11-.24.34-.09.63.08.13.23.06.36.09h0c.34.34.69.69,1.04,1.04.24.09.23-.44.45-.28.12.16.23.32.33.46.39.15.73-.04,1.06-.13.34.07.65.43,1.03.14.12-.23-.19-.49.06-.77.08-.04.21-.09.3-.13.24.09.38.37.63.29.38-.22.43-.65.43-1.21-.21-.18-.2-.59-.47-.95-.38-.09-.58-.71-.97-.92Zm-3.88,2.42c0-.12,0-.24,0-.36.12-.21.27-.23.48-.07-.05.34-.23.45-.47.43Zm1.49-.89c-.13-.2-.02-.27.1-.34.08.17.09.3-.1.34Z"/>
          <path class="cls-3" d="m192.05,159.66c.09-.38-.14-.75-.06-1.18.06-.34-.1-.69-.29-.93-.2-.18-.39-.29-.59-.08v.36c-.18.11-.32.25-.54.19-.2-.17-.26-.47-.33-.77.09-.12.26-.16.28-.41-.28-.43-.65-.76-1.04-1.06-.19.05-.37.1-.55.15-.56-.43-1.13-.72-1.69-.14-.15.34-.16.59,0,.94.08.06.24.17.34.25.21.1.37-.2.55,0,.02.21-.19.37-.09.62.05.23.33.32.3.64-.11.3-.46.26-.53.61.14.39.5.27.7.49.13.18.07.46.27.57.29-.13.54-.41,1.01-.41.21.33.7.1,1.03.47-.04.25-.09.47.16.63.16-.08.36-.16.54-.25.25.05.37.43.66.33.07-.36-.21-.63-.12-1.02Z"/>
          <path class="cls-3" d="m514.26,159.86c-.05-.03-.13.03-.2.05.02.12.06.25-.06.35h-.2c-.33-.14-.23-.53-.48-.69-.21.06-.45.13-.64.19-.52-.15-.99-.28-1.4-.4-.44.29-.37.91-.62,1.22-.19.03-.34.04-.46-.07-.11-.24.26-.45-.02-.73-.25.18-.52.38-.82.59-.22-.1-.45-.2-.62-.27-.48.09-.74.43-.93.92-.47.06-.83.11-1.18.16-.33.04-.7-.19-.95.22.04.35.24.4.4.44.52.13,1.04.26,1.57.32.42.05.85.07,1.26-.12.21-.1.37-.2.48-.46.02-.06.12-.08.16-.1.36-.14.54.13.71.43.3.09.61.17.92.26.75-.49,1.51-.81,2.35-.76.4.02.75-.21,1.03-.49.09-.31.19-.55.06-.84-.11-.07-.23-.16-.37-.22Zm-5.56.92c.08-.23.19-.2.32-.11-.08.25-.19.2-.32.11Z"/>
          <path class="cls-3" d="m407.17,160.48c-.05.54-.33.85-.75,1.08-.19-.11-.46.07-.66-.21-.12-.3-.07-.59.05-.87.15-.25.47-.27.51-.67-.02-.15-.04-.33-.28-.39-.32.06-.43.62-.78.73-.56.14-1.04-.18-1.54-.45-.16.06-.33.12-.5.18-.5.02-.93-.37-1.42-.42-.07.14-.13.24-.18.34.25.53.73.28,1.16.59-.33.07-.55.19-.71.44-.06.1-.1.23-.15.36.15.31.29.61.43.92.23.02.43.03.69.05.18.12.33.41.6.43.35,0,.71.06,1.06,0,.66-.13,1.36-.04,1.96-.47.42-.31.83-.64,1.26-.79.16-.38.17-.66-.04-.92-.25-.13-.48.02-.71.08Z"/>
          <path class="cls-3" d="m145.01,157.51s.02.02.03.03c0,0,.02-.01.02-.02-.02,0-.03,0-.05-.01,0,0,0,0,0,0Z"/>
          <path class="cls-3" d="m143.48,155.23c-.12.06-.29.14-.34.17-.23.25.05.52-.18.67-.31-.05-.21-.55-.47-.65-.23-.04-.42.02-.51.32,0,.45.42.37.57.68-.4.37-.66.84-.83,1.36q.03.97.33,1.5c.03.05.12.04.18.06.41-.11.06-.72.33-.96.26.44.33.94.64,1.23.16-.03.29-.06.4-.08.18.12.25.39.48.35.16-.12.32-.24.48-.36.17.11.23.4.53.26-.05-.37.15-.7.18-1.17-.15-.3-.21-.69-.26-1.08-.26-.24-.45-.6-.77-.69-.21-.85-.53-1.54-.76-1.59Zm-.44,2.2c0,.07,0,.14,0,.2-.13-.05-.04-.12,0-.2Zm1.25,1.34c-.09-.12-.1-.23,0-.34.12.12.14.23,0,.34Z"/>
          <path class="cls-3" d="m148.14,156.59c-.83-.5-1.78-.83-2.5-1.51-.26.03-.43.07-.56.35.09.32.19.68.28,1.03.44.4.99.57,1.3,1.15.03.06.01.16.02.25-.13.25-.5.18-.52.59.19.23.44.42.43.84,0,.04.11.09.19.16.21-.06.45-.14.64-.19.26.05.4.32.64.25.29-.16.56-.35.6-.9-.18-.41-.38-.88-.59-1.38.01-.14.03-.31.07-.64Z"/>
          <path class="cls-3" d="m192.15,156.07q-.72.49-.71.71c.19.19.4-.09.6.04.19,0,.18.4.47.27.13-.47-.06-.77-.37-1.02Z"/>
          <path class="cls-3" d="m156.34,158.95c-.23.11-.43.25-.54.55-.05.3.03.5.31.6.17-.17.36-.36.56-.57-.07-.34-.09-.57-.34-.58Z"/>
          <path class="cls-3" d="m193.64,158.72c.41.32.85.28,1.33.15q-.41-.56-1.33-.15Z"/>
          <path class="cls-3" d="m328.11,158.57c.17.4.31.85.75.88.2-.26.08-.52.1-.76-.28-.02-.5-.53-.86-.11Z"/>
          <path class="cls-3" d="m328.97,158.68s.03,0,.04,0c0-.01,0-.02.01-.04-.02,0-.03,0-.05-.01,0,.01,0,.03,0,.04Z"/>
          <path class="cls-3" d="m192.71,157.94c-.2.05-.28.19-.35.35.07.31.2.55.49.55.17-.1.3-.24.29-.49-.06-.24-.2-.34-.43-.42Z"/>
          <path class="cls-3" d="m679.44,158.79c.18-.24.34-.43.14-.7-.23.02-.4.13-.42.45.04.13.11.22.28.25Z"/>
          <path class="cls-3" d="m140.45,157.25c.06.03.13.06.2.11.11-.31.17-.62.04-.96-.22.25-.3.53-.25.86Z"/>
          <path class="cls-3" d="m315.91,157.31c.09-.13.14-.24.1-.38-.22-.21-.41-.15-.61.01.09.32.24.39.51.36Z"/>
          <path class="cls-3" d="m324.1,160.74c.44.19.69,0,.92-.34-.37-.3-.59.03-.92.34Z"/>
          <path class="cls-3" d="m445.11,157.14c-.17-.39-.31-.41-.46-.07.09.29.23.3.46.07Z"/>
          <path class="cls-3" d="m441.92,158.56c.01.17.03.34.23.33.08-.23.17-.46.25-.69-.22-.02-.4.06-.48.36Z"/>
          <path class="cls-3" d="m442.4,158.2s.02,0,.03,0h0s0-.02-.02-.03c0,0,0,.02,0,.03Z"/>
          <path class="cls-3" d="m141.22,157.93c-.16.01-.29.11-.32.35.16.15.3.13.44-.03.03-.14,0-.24-.12-.32Z"/>
          <path class="cls-3" d="m145.06,157.52c.15.04.3.09.46.11.14.01.27-.04.27-.28-.29-.2-.51-.06-.73.17Z"/>
          <path class="cls-3" d="m205.8,156.58q-.34.07-.4.35c.2.11.3-.01.4-.35Z"/>
          <path class="cls-3" d="m328.06,157.85c-.03-.07-.04-.18-.08-.19-.05-.02-.14.02-.17.07-.06.13,0,.24.11.25.04,0,.09-.09.14-.13Z"/>
          <path class="cls-3" d="m331.61,157.66c-.09-.21-.18-.4-.41-.18.11.16.18.43.41.18Z"/>
          <path class="cls-3" d="m280.62,159.22c.06-.11.03-.22-.06-.3-.16.02-.23.14-.24.32.11.19.22.13.31-.02Z"/>
          <path class="cls-3" d="m157.35,159.95c-.05.01-.12.1-.13.17-.04.15.04.26.15.28.12.02.19-.08.19-.23-.02-.15-.09-.25-.21-.21Z"/>
          <path class="cls-3" d="m681.63,158.44c.09-.27-.02-.35-.23-.35-.04.09-.08.19-.13.29.12.11.23.2.36.05Z"/>
          <path class="cls-3" d="m299.78,160.81c.31.38.31.38.57.13-.18-.13-.32-.45-.57-.13Z"/>
          <path class="cls-3" d="m300.35,160.94s.02.01.03.02v-.03s0,0-.02,0c0,0,0,0,0,0Z"/>
          <path class="cls-3" d="m372.85,160.58c.03.19.11.29.31.12-.08-.11-.12-.4-.31-.12Z"/>
          <path class="cls-3" d="m507.1,160.74c.07-.08.15-.16.08-.3-.13-.07-.26-.09-.39.05.08.13.13.31.31.25Z"/>
          <path class="cls-3" d="m30.64,155.44c-.16.07-.25.21-.28.42.12-.03.23-.05.33-.07.06-.17.05-.27-.05-.35Z"/>
          <path class="cls-3" d="m30.35,155.86s-.02,0-.04,0c0,0,0,.02,0,.02,0,0,0,0,.01,0,0-.01,0-.02.01-.04Z"/>
          <path class="cls-3" d="m90.29,156.86c-.11-.13-.21-.22-.44.12.21-.06.29.24.44-.12Z"/>
          <path class="cls-3" d="m164.15,157.88c.11-.07.12-.18.07-.4-.15,0-.25,0-.28.14.03.16.11.23.21.26Z"/>
          <path class="cls-3" d="m403.39,159.31c-.11-.11-.21-.16-.3.03.11.08.21.08.3-.03Z"/>
          <path class="cls-3" d="m299.19,158.92c.07-.13.03-.24-.06-.3-.04-.03-.12.03-.18.04,0,.04,0,.08.02.11.06.09.1.21.22.15Z"/>
          <path class="cls-3" d="m109.96,158.95c.08.05.18.06.2-.13-.07-.06-.14-.12-.21-.19-.1.13-.09.25.02.32Z"/>
          <path class="cls-3" d="m394.63,157.97c-.15-.16-.29-.18-.43,0,.14.25.29.23.43,0Z"/>
          <path class="cls-3" d="m5.69,159.29c-.06,0-.11.01-.17.02.06.06.13.18.17-.02Z"/>
          <path class="cls-3" d="m265.13,158.27s-.02-.07-.02-.07c-.03,0-.06.01-.09.02,0,.03.02.07.02.07.03,0,.06-.01.09-.02Z"/>
          <path class="cls-3" d="m155.17,158.99c.09.11.18.16.25-.02-.1-.1-.18-.07-.25.02Z"/>
          <path class="cls-3" d="m179.66,158.25c.1.14.19.3.34.04-.11-.1-.23-.08-.34-.04Z"/>
          <path class="cls-3" d="m216.5,159.02s0-.07-.03-.08c-.03-.02-.07-.03-.1-.02-.09.05-.08.1.03.13.03,0,.06-.02.09-.03Z"/>
          <path class="cls-3" d="m233.59,159.71c.09-.09.1-.18.01-.28-.1.09-.09.18-.01.28Z"/>
          <polygon class="cls-3" points="447.79 156.65 447.71 156.67 447.79 156.7 447.79 156.65"/>
          <path class="cls-3" d="m266.45,157.45s-.04-.07-.06-.09c-.07-.05-.13-.03-.15.07,0,.03.03.07.05.1.06-.03.11-.05.17-.08Z"/>
          <path class="cls-3" d="m154.77,160.89c.11-.09.08-.19.01-.29-.1.09-.09.19-.01.29Z"/>
          <path class="cls-3" d="m344.25,160.58c.12-.17,0-.25-.06-.35,0,.12-.03.25.06.35Z"/>
          <path class="cls-3" d="m344.19,160.23s0-.05,0-.08c-.01,0-.02,0-.03,0,0,0,0,.02,0,.03,0,.01.02.03.03.04Z"/>
          <path class="cls-3" d="m325.06,161.28c.12-.16.1-.28-.05-.37-.12.16-.1.28.05.37Z"/>
          <path class="cls-3" d="m47.58,156.03s.03.04.05.06c.01,0,.01,0,.02,0,0-.01,0-.02,0-.03-.02,0-.05-.02-.07-.03Z"/>
          <polygon class="cls-3" points="364.11 161.13 364.15 161.06 364.08 161.05 364.11 161.13"/>
          <polygon class="cls-3" points="407.17 160.48 407.17 160.48 407.17 160.48 407.17 160.48 407.17 160.48"/>
          <path class="cls-3" d="m407.02,160.39c-.03.06.06.13.15.09,0-.15-.03-.29-.15-.09Z"/>
          <path class="cls-3" d="m172.51,160.98s-.04.04-.07.07c.02.03.04.07.06.08.02,0,.04-.04.07-.07-.02-.03-.04-.08-.06-.08Z"/>
          <path class="cls-3" d="m204.16,157.53s.03,0,.05.01c-.02-.07-.04-.08-.05-.01Z"/>
          <polygon class="cls-3" points="189.36 160.23 189.43 160.2 189.37 160.15 189.36 160.23"/>
          <path class="cls-3" d="m297.63,157.44c-.03-.07-.05-.07-.07.01v.02s0,0,.01,0c.02,0,.04-.02.06-.03Z"/>
          <path class="cls-3" d="m200.28,159.03s-.06.09-.09.14c.07.02.15.05.09-.14Z"/>
        </g>
      </g>
      <g>
        <g>
          <path class="cls-3" d="m464.66,87.17c.08-.6.15-1.2.22-1.79.31-2.65.91-5.22,1.99-7.66.18-.4.36-.8.49-1.21.35-1.1.68-2.21,1-3.33.63-2.22,1.25-4.44,1.88-6.66.44-1.52.88-3.05,1.35-4.56.69-2.19,1.42-4.36,2.11-6.54.67-2.16,1.32-4.34,1.95-6.51.6-2.04,1.16-4.1,1.75-6.15.41-1.44.89-2.87,1.24-4.32.35-1.42.54-2.88.85-4.3.47-2.23.96-4.47,1.49-6.69.48-1.99,1.02-3.96,1.55-5.94.38-1.41.81-2.81,1.17-4.23.16-.64.09-1.24-.79-1.33-.13-.01-.24-.15-.38-.19-.64-.2-1.27-.4-1.92-.57-.56-.15-1.14-.22-1.68-.4-1.24-.43-2.45-.99-3.71-1.35-1.55-.44-3.15-.73-4.72-1.11-1.2-.29-2.39-.62-3.59-.91-1.31-.32-2.63-.58-3.92-.94-1.62-.45-3.21-1-4.82-1.47-1.29-.38-2.61-.65-3.87-1.07-1.55-.52-3.04-1.22-4.6-1.71-2.32-.73-4.67-1.33-7-2-1.66-.48-3.31-1.02-4.97-1.5-1.15-.33-2.3-.62-3.46-.91-1.32-.33-2.63-.67-3.96-.96-.21-.05-.62.05-.66.18-.21.6-.33,1.23-.49,1.85-.15.61-.32,1.25-.36,1.88,0,.03,0,.07.02.09.01.02.04.02.05.03.19.06.36.15.55.21.18.06.37.07.56.13.1.03.19.07.29.1.02,0,.05.02.08.02.02,0,.05,0,.07,0,.06,0,.11,0,.17.02.19.05.39.09.58.13.02,0,.05,0,.07,0,.03,0,.04-.04.06-.06.14-.23.3-.44.49-.64.12-.14.23-.28.39-.38.28-.18.73-.31,1.03-.12.65.41.97,1.16.78,1.82-.21.74-1.06,1.49-1.71,1.47-.36,0-.79-.23-.97-.55-.11-.19-.16-.41-.2-.62-.57-.19-1.2-.21-1.79-.28-.19-.02-.4-.04-.59-.04-.02,0-.04,0-.05,0-.02,0-.03.03-.04.05-.23.47-.3,1.01-.45,1.51-.22.71-.49,1.41-.69,2.12,0,.03-.02.06,0,.09.01.03.04.04.07.05.14.06.28.14.42.19.46.18.91.46,1.38.49.09,0,.6.17.64.13.23-.28.44-.45.76-.61.22-.11.49-.24.75-.15.93.34,1.49,1.73,1.12,2.65-.28.7-.89.99-1.72.83-.74-.14-.8-.25-.82-1.22,0-.15-.09-.42-.2-.44-.41-.12-.81-.27-1.23-.38-.39-.11-.79-.1-1.17-.23-.04-.01-.07-.02-.11-.02-.07.01-.11.08-.14.14-.12.22-.25.43-.37.65-.12.24-.19.53-.28.78-.19.54-.38,1.08-.56,1.63-.09.29-.08.58-.16.87,0,.02-.01.04,0,.07.01.03.04.05.08.07.84.42,1.74.73,2.66.92.2.04.48-.18.64-.29.23-.16.43-.33.72-.32.28,0,.55.12.74.32.45.46.57,1.26.33,1.84-.15.35-.42.83-.72.91-.97.24-1.85-.48-1.97-1.42-.62-.19-1.26-.28-1.8-.57-.56-.3-.84-.16-1.02.34-.35.98-.69,1.97-.98,2.97-.08.26-.32.97-.12,1.2.15.17.65.32.87.45.43.25.98.4,1.46.53.18.05.43-.12.64-.21.39-.16.76-.38,1.16-.48.15-.04.5.19.53.33.13.82.16,1.62-.41,2.33-.49.62-1.32.56-1.66-.15-.12-.25-.1-.55-.22-.8-.08-.17-.26-.35-.44-.41-.31-.11-.66-.09-.97-.2-.34-.12-.71-.16-1.06-.24-.03,0-.07-.02-.11,0-.05.01-.07.06-.1.1-.27.48-.33,1.09-.53,1.61-.25.64-.51,1.29-.65,1.96-.04.17-.18.63-.09.78.05.08.39.25.49.32.44.32.94.49,1.46.65.36.12.81.33.94-.32.02-.09.21-.18.33-.21.65-.19,1.36.19,1.53.84.09.34.16.71.11,1.05-.04.28-.24.72-.43.75-.64.1-1.37.02-1.9-.39-.21-.17-.37-.43-.34-.69-.6-.19-1.13-.47-1.75-.63-.68-.17-.95.02-1.15.69-.27.9-.56,1.79-.85,2.68-.13.42-.11.8.32,1.03.23.12.48.2.7.33.55.31,1.12.32,1.66.07,1.28-.57,1.92-.18,1.91,1.19,0,.78-.28,1.06-1.19,1.21-.56.09-.86-.16-1.12-.84-.07-.18-.36-.44-.48-.41-.58.12-1.1.06-1.65-.19-.67-.31-.95-.09-1.09.64-.09.46-.25.92-.46,1.34-.47.98-.11,1.96.89,2.33.11.04.23.09.33.15.88.53.88.53,1.68-.11.36-.29.75-.34,1.11-.08.6.44.66,1.43.16,1.98-.14.16-.27.35-.45.46-.4.23-.81.41-1.3.15-.48-.25-.14-.6-.14-.9,0-.37-.04-.68-.49-.77-.47-.09-.96-.14-1.41-.31-.6-.22-.9.07-1.06.54-.33,1.11-.64,2.25-1.04,3.33-.04.1-.08.21-.04.32.05.14.21.21.35.26.57.21,1.13.43,1.72.59.18.05.47-.08.64-.21.57-.44,1.38-.39,1.83.14.45.54.48,1.86.06,2.4-.34.44-1.24.8-1.6.64-.41-.18-.59-.49-.73-.88-.07-.2-.15-.38-.17-.59,0-.06.04-.55.02-.56-.39-.23-.87-.28-1.28-.47-.27-.12-.58-.16-.87-.23-.03,0-.07-.02-.1,0-.03,0-.05.03-.07.05-.23.22-.35.46-.45.75-.22.7-.43,1.4-.65,2.11-.11.37-.22.74-.33,1.1-.08.27-.34.75-.29,1.03,0,.05.06.07.11.08.65.17,1.3.33,1.94.54.31.1.41.07.6-.21.12-.17.31-.28.51-.34.43-.13,1-.17,1.29.26.65.95.53,2.05-.29,2.88-.19.2-.53.37-.8.36-.55-.03-1.09-.61-1.13-1.16-.03-.45-.31-.65-.65-.78-.55-.21-1.12-.38-1.7-.49-.14-.03-.45.23-.5.41-.34,1.22-.58,2.48-.95,3.69-.18.61-.08.9.59,1.01.35.06.68.21,1.03.27.14.02.46.11.59.07.02,0,.04-.02.05-.03.21-.16.52-.48.81-.47.36,0,.73,0,1.07.1.21.06.43.25.53.44.42.76.2,1.49-.22,2.14-.27.43-.54.96-1.25.83-.46-.08-.95-.34-1.19-.74-.1-.17-.2-.34-.22-.53,0-.08,0-.17.01-.25.03-.25.12-.4-.08-.54-.18-.13-.55-.17-.76-.21-.52-.11-1.06-.17-1.58-.26-.06.29-.12.68-.24,1.05-.22.7-.46,1.4-.69,2.09-.21.63-.32,1.33-.54,1.94.57.21,1.12.46,1.74.54.39.06.68.17.93-.19.35-.49,1.46-.9,1.92-.32.49.61.88,1.25.54,2.12-.22.54-.58.76-1.09.74-.55-.01-1.15-.04-1.21-.84,0-.14-.23-.36-.38-.39-.8-.18-1.61-.33-2.42-.46-.39-.06-.68.06-.7.51,0,.12-.04.23-.08.34-.32,1.04-.68,2.06-.96,3.11-.15.54.28.93.86.92.18,0,.38.07.55.15.76.34,1.61.25,1.95-.22.41-.55,1.06-.75,1.66-.51,1,.41,1.2,2.02.34,2.71-.33.27-.66.34-1.11.29-.77-.09-1.23-.4-1.32-1.18-.02-.13-.12-.25-.17-.37.03.06-1.21-.01-1.31-.03-.42-.08-.84-.18-1.25-.28-.58-.15-1.25,2.63-1.37,3.04-.04.17,0,.48.12.56.38.25.79.5,1.23.63,1.84.53,3.68,1.05,5.53,1.52,1.22.31,2.45.53,3.68.79.31.07.64.12.93.23,1.14.41,2.26.86,3.4,1.27,1.19.43,2.39.83,3.59,1.24,1.07.37,2.13.76,3.21,1.08,1.31.4,2.64.71,3.95,1.11,1.13.34,2.24.75,3.36,1.1.6.19,1.22.28,1.82.45,1.37.39,2.74.83,4.11,1.22,2.36.67,4.73,1.31,7.08,2.01.44.13.84.32,1.31.29.12,0,.24.04.36.07.91.2,1.83.39,2.74.6.63.14,1.35.16,1.88.47,1.22.73,2.61.88,3.9,1.37.61.23,1.26.39,1.91.55.36.09.75.13.82-.4Z"/>
          <path class="cls-4" d="m446.6,8.47c-.15-.13-.2-.17-.25-.21-.44-.37-.42-.57.09-.84.15-.08.28-.21.42-.32-.09.07-.68-.67-.67-.84,0-.48.47-.3.73-.57.2-.2.17-.47.14-.74-.1-.84-.52-1.72.22-2.53.43-.47.16-1,.1-1.55-.02-.15.05-.34.2-.38.21-.05.43.2.6.29.24.14.49.21.74.3,1.22.41,2.46.74,3.68,1.13.75.24,1.48.6,2.24.78,1.18.28,2.32.69,3.48,1.03.62.18,1.24.35,1.87.48.8.16,1.58.4,2.34.64.52.17,1.05.33,1.59.46,1.04.25,2.09.45,3.13.69.85.2,1.69.42,2.53.62.26.06.4.21.25.46-.19.3-.44.56-.64.86-.1.15-.23.38-.18.5.25.55,0,.83-.48,1.02-.07.03-.14.09-.19.12-.17.11.31.78.33.91.08.48-.59.63-.6,1.13-.01.57.69,1.2-.13,1.54-.43.18-.19.5-.1.74.24.68.04.92-.72.91-1.37,0-2.62-.49-3.92-.8-.42-.1-.86-.13-1.26-.26-1.69-.54-3.4-1.07-5.19-1.35-.23-.04-.46-.12-.68-.18-.61-.17-3.26-.88-3.87-1.07-.51-.16-1.02-.36-1.53-.53-.74-.26-1.47-.53-2.23-.75-.82-.24-1.66-.43-2.5-.64-.15-.04-.32-.04-.46-.11-.11-.05-.26-.19-.26-.27.01-.12.13-.27.24-.33.27-.13.56-.22.94-.36Zm.37-2.23c.17.38.43.69.37.92-.08.28-.42.49-.65.74.42.35.36.69-.19,1.2.99.36,1.97.73,2.96,1.06.45.15.94.23,1.4.36.3.08.6.19.89.29,1.12.36,4.31,1.33,5.43,1.62,2.04.53,4.08,1.02,6.12,1.47,1.41.31,2.74.92,4.22.73-.08,0-.12-.69-.12-.75.02-.35.18-.57.53-.69.05-.02.09-.28.03-.34-.34-.38-.1-1.14.25-1.46.07-.07.16-.13.21-.21.11-.19-.09-.51-.18-.67-.25-.4-.35-.74.21-1.01.18-.09.42-.47.38-.51-.37-.43,0-.67.21-.95.14-.2.29-.4.47-.63-.23-.09-.41-.16-.59-.22-.42-.15-.83-.17-1.26-.3-.49-.14-.97-.32-1.47-.45-.83-.21-1.68-.39-2.51-.63-.95-.27-1.88-.62-2.84-.88-1.5-.4-5.13-1.3-6.65-1.73-1.37-.39-2.72-.88-4.09-1.32-.79-.26-1.48-.46-2.19-.91.13.08.1.7.06.84-.07.28-.25.61-.38.87-.22.42-.35.75-.2,1.29.23.82.43,1.76-.41,2.29Z"/>
        </g>
        <g>
          <path class="cls-2" d="m436.66,46.67c-.22.69-.47,1.35-.75,1.98-.28.63-.61,1.22-.99,1.76-.38.54-.83,1.01-1.36,1.39-.62.45-1.28.72-1.97.82-.69.1-1.4.04-2.13-.19l-4.85-1.49,5.66-18.43,4.85,1.49c.72.22,1.35.57,1.87,1.04.52.47.91,1.07,1.17,1.79.22.62.34,1.24.36,1.88.02.64-.03,1.28-.15,1.94-.12.65-.27,1.31-.47,1.97-.2.66-.4,1.32-.6,2-.21.67-.42,1.35-.64,2.04Zm-.57-5.94c.2-.89.21-1.66,0-2.3-.32-1-.97-1.66-1.97-1.96l-2.54-.78-4.12,13.41,2.54.78c1,.31,1.91.13,2.73-.52.53-.42.97-1.1,1.33-2.04.36-.94.73-2.04,1.13-3.32.39-1.28.69-2.36.89-3.25Z"/>
          <path class="cls-2" d="m444.5,57.07l.19-3.99-5.45-1.68-2.09,3.41-2.23-.69,10.73-16.87,1.69.52-.59,19.98-2.23-.69Zm.74-15.35l-4.67,7.52,4.25,1.3.42-8.82Z"/>
          <path class="cls-2" d="m456.32,43.28l-4.89,15.91-2.1-.64,4.89-15.91-3.8-1.17.77-2.51,9.71,2.98-.77,2.51-3.8-1.17Z"/>
          <path class="cls-2" d="m463.62,62.94l.19-3.99-5.46-1.68-2.09,3.41-2.23-.69,10.73-16.87,1.69.52-.6,19.98-2.23-.69Zm.74-15.35l-4.67,7.52,4.25,1.31.42-8.82Z"/>
        </g>
      </g>
    </g>
  </g>
</svg>