<?xml version="1.0" encoding="UTF-8"?>
<svg id="_レイヤー_2" data-name="レイヤー 2" xmlns="http://www.w3.org/2000/svg" xmlns:xlink="http://www.w3.org/1999/xlink" viewBox="0 0 186.82 261.09">
  <defs>
    <style>
      .cls-1 {
        clip-path: url(#clippath);
      }

      .cls-2 {
        stroke: #03040c;
        stroke-width: .67px;
      }

      .cls-2, .cls-3, .cls-4 {
        stroke-miterlimit: 10;
      }

      .cls-2, .cls-4 {
        fill: none;
      }

      .cls-5 {
        fill: #f4ccd1;
      }

      .cls-6 {
        fill: #e9ceaa;
      }

      .cls-7 {
        fill: #ea9e7e;
      }

      .cls-8, .cls-3 {
        fill: #fff;
      }

      .cls-9 {
        fill: #e4e4e4;
      }

      .cls-10 {
        fill: #a05623;
      }

      .cls-11 {
        fill: #ceddee;
      }

      .cls-12 {
        fill: #221714;
      }

      .cls-13 {
        fill: #4880b9;
      }

      .cls-3, .cls-4 {
        stroke: #fff;
        stroke-width: .99px;
      }
    </style>
    <clipPath id="clippath">
      <path class="cls-3" d="m63.83,80.48l-.33,22.2-19.45,10.35-7.26,24.64-24.06-10.34s16.15-15.51,17.47-19.16c1.32-3.65,10.87-26.77,21.43-32.24l12.19,4.56Z"/>
    </clipPath>
  </defs>
  <g id="_レイヤー_1-2" data-name="レイヤー 1">
    <g>
      <g>
        <g>
          <path class="cls-7" d="m38.12,180.25s2.96,55.97,5.94,58.71c2.97,2.74,10.01,7.16,10.01,7.16,0,0-15.87-3.07-16.13-4.77-3.3-21.61-8.71-60.5-8.71-60.5l8.9-.61Z"/>
          <path class="cls-7" d="m25.6,181.47s1.98,55.37,4.29,58.71c2.3,3.35,6.27,7.91,6.27,7.91l-10.89-5.48-7.91-61.45,8.24.3Z"/>
          <path class="cls-11" d="m44.06,238.97s15.16,8.21,11.86,8.21-18.95-4.31-18.95-4.31l.24-3.19s10.47,2.63,6.85-.71Z"/>
          <path class="cls-11" d="m29.88,240.18s12.19,13.39,8.9,12.78c-3.29-.61-13.95-7.66-13.95-7.66l-.33-4.87s9.66,6.44,5.38-.25Z"/>
          <path class="cls-7" d="m57.24,104.21s10.8,27.6,17.56,29.35c6.63,1.72,8.48,2.52,6.51,2.82-1.97.31-6.11-2.2-4.79-1.6,1.31.62,7.09,5.92,4.12,5.62-2.96-.3-4.61-1.52-4.61-1.52,0,0,3.95,1.22,1.65,1.22s-7.59-7.3-11.21-11.25c-3.63-3.96-16.15-22.21-16.15-22.21l6.92-2.44Z"/>
          <polygon class="cls-5" points="36.15 127.93 38.45 181.47 28.9 182.08 20.66 126.41 36.15 127.93"/>
          <path class="cls-5" d="m30.54,130.07l-2.96,52.62-9.89.62s-10.22-42.9-1.32-56.89l14.17,3.66Z"/>
          <g>
            <path class="cls-8" d="m63.83,80.48l-.33,22.2-19.45,10.35-7.26,24.64-24.06-10.34s16.15-15.51,17.47-19.16c1.32-3.65,10.87-26.77,21.43-32.24l12.19,4.56Z"/>
            <g class="cls-1">
              <path class="cls-2" d="m84.05,94.14s-24.83-12.42-34.95-21.44"/>
              <path class="cls-2" d="m79.25,98.37s-32.12-18.22-36.13-23.02"/>
              <path class="cls-2" d="m75.8,103.28s-27.45-14.24-34.65-20.48"/>
              <path class="cls-2" d="m71.39,108.03s-32.78-17.41-35.83-22.05"/>
              <path class="cls-2" d="m66.11,112.18s-24.23-10.48-32.91-19.27"/>
              <path class="cls-2" d="m63.92,118.22s-30.81-14.8-36.31-22.13"/>
              <path class="cls-2" d="m57.51,123.09s-28.41-14.39-33.61-20.76"/>
              <path class="cls-2" d="m54.71,127.2s-28.71-10.33-34.13-18.1"/>
              <path class="cls-2" d="m48.11,132.96s-26.76-12.74-31.51-21.32"/>
              <path class="cls-2" d="m44.28,137.35s-23.18-10.77-31.6-20.88"/>
              <path class="cls-2" d="m40.73,142.71s-27.06-13.71-32.55-21.04"/>
              <path class="cls-2" d="m37.37,147.18s-24.62-11-33.6-20.77"/>
            </g>
            <path class="cls-4" d="m63.83,80.48l-.33,22.2-19.45,10.35-7.26,24.64-24.06-10.34s16.15-15.51,17.47-19.16c1.32-3.65,10.87-26.77,21.43-32.24l12.19,4.56Z"/>
          </g>
          <path class="cls-7" d="m63.18,89s-8.9-5.48-13.85-11.88l8.24-5.47s5.93-25.25,17.14-19.77c11.21,5.47,5.6,8.52,4.61,12.78-.99,4.26-.33,7.61-.33,7.61,0,0-4,2.11-6.64,3.33-2.97,1.36-7.46-2.56-7.46-2.56l-1.72,15.97Z"/>
          <path class="cls-10" d="m85.26,58.27l-12.53,5.17s0-3.04-.99-3.04-4.29,2.74-4.29,2.74l-.66-3.04-10.88,3.65,2.64-4.87-3.63-1.82s23.73-19.47,30.33,1.22Z"/>
          <path class="cls-7" d="m24.04,123.97s-13.42,8.46-16.06,11.8c-2.64,3.35-.67,10.06-4.3,9.46-3.62-.61-3.93,3.17-3.56-4.91.25-5.38,21.94-19.69,21.94-19.69l1.98,3.34Z"/>
        </g>
        <path class="cls-12" d="m77.15,68.3c-.19.23-.54.25-.78.06-.24-.19-.28-.53-.09-.76.19-.23.54-.26.78-.06.24.19.28.53.09.76Z"/>
      </g>
      <g>
        <g>
          <path class="cls-6" d="m158.38,98.06l4.13,122.38s16.4,14.82,9.63,10.86c-9.38-5.5-19.92-9.33-19.92-9.33l-11.68-81.62-8.53,84.3s-25.14,6.67-20.93,3.83c4.52-3.05,12.2-11.36,12.2-11.36l-4.38-119.77,39.48.7Z"/>
          <polygon class="cls-13" points="141.08 33.12 165.66 44.52 153.06 53.76 162.51 115.03 116.98 118.37 116.96 60.3 107.97 51.56 119.64 37.26 141.08 33.12"/>
          <polygon class="cls-8" points="141.08 33.12 141.31 38.94 139.36 44.12 127.57 37.3 127.45 34.39 141.08 33.12"/>
          <path class="cls-13" d="m165.66,44.52s21.12,33.01,21.16,34.11c.04,1.09-19.49,25.91-19.49,25.91l-5.25-5.26,13.54-21.66-21.51-24.99,11.55-8.11Z"/>
          <path class="cls-7" d="m163.48,98.5s-11.52,9.95-1.58,14.62c3.8,1.79,10.5,2.18,7.55.48-2.95-1.7-4.5-2.46-4.5-2.46l1.89-9.09-3.37-3.55Z"/>
          <path class="cls-13" d="m118.35,59.16s-19.67,21.54-17.78,23.65c1.88,2.11,17.5,14.59,17.5,14.59l-3.45,3.78s-23.57-13.25-25.5-16.45c-1.93-3.21,19.54-33.99,19.54-33.99l9.69,8.43Z"/>
          <path class="cls-7" d="m118.07,97.4s6.59,2.64,3.82,5.67c-2.75,3.03-8.71,7.27-10.91,6.26-2.2-1.01,3.49-2.68,3.49-2.68l.61-6.45,2.98-2.8Z"/>
          <polygon class="cls-7" points="141.27 28.09 141.17 35.3 137.34 38.73 128.92 35.07 128.28 27.16 141.27 28.09"/>
          <path class="cls-7" d="m148.72,17.17c-1.84.81-4.93,2.37-4.93,2.37,0,0,2.66,8.54-.27,11.3-3.5,3.29-13.71-.3-14.41-1.13-.78-.94-7.82-14.71-7.82-14.71l13.94-11.46s15.06,12.95,13.49,13.64Z"/>
          <path class="cls-10" d="m137.32,1.96l-6.82,9.74-.41,7.67s-3.36-3.14-3.27-.96c.09,2.18,1.46,3.46,1.46,3.46l-1.46,3.72s-7.62-8.69-5.74-15.69c1.89-6.99,20-13.18,16.25-7.93Z"/>
        </g>
        <path class="cls-12" d="m141.16,12.45c-.19.23-.54.25-.78.06-.24-.19-.28-.53-.09-.76.19-.23.54-.26.77-.06.24.19.28.53.09.76Z"/>
      </g>
      <g>
        <g>
          <path class="cls-7" d="m121.47,181.44s-15.18,5.84-18.93,2.82c-3.75-3.03-4.83-7.28-6.33-2.35-1.51,4.94,3.14,6.38,3.14,6.38l14.06.32,8.06-7.18Z"/>
          <path class="cls-9" d="m134.97,204.49s13.93,22.57,2.3,24.51c-11.63,1.95-14.77-5.81-14.77-5.81,0,0-4.84,9.98-17.32-2.9-12.49-12.88,7.5-23.96,7.5-23.96l22.29,8.17Z"/>
          <polygon class="cls-13" points="134.3 180.94 138.76 209.47 103.79 199.13 125.27 173.78 134.3 180.94"/>
          <path class="cls-7" d="m135.4,163.07c11.3,5.19,10.27,22.3-6.2,18.42-16.46-3.88-9.48-25.62,6.2-18.42Z"/>
          <path class="cls-10" d="m127.99,161.7s12.37,5.29,11.72,18.58c0,0,7.68-6.6,1.92-13.8-5.75-7.2-13.64-4.78-13.64-4.78Z"/>
          <polygon class="cls-7" points="137.05 228.55 145.19 256 141.86 256.98 128.42 228.28 137.05 228.55"/>
          <polygon class="cls-7" points="111.48 225.04 98.21 247.29 93.89 244.52 105.19 220.29 111.48 225.04"/>
          <path class="cls-11" d="m144.29,251.81s-12.35,10.43-7.72,9.18c4.64-1.24,8.62-4.99,8.62-4.99l-.9-4.2Z"/>
          <path class="cls-11" d="m100.12,244.58s-17.99-2.83-12.96-.47c5.04,2.36,11.05,3.18,11.05,3.18l1.91-2.71Z"/>
          <path class="cls-7" d="m135.09,188.14s9.68,11.63,11.9,18c2.22,6.37,3.37,8.06.76,9.38-7.14,3.63-4.55-3.84-4.16-5.5.39-1.66-11.5-14.4-11.5-14.4,0,0-8.64-10.8,3-7.48Z"/>
        </g>
        <path class="cls-12" d="m124.14,167.92c-.19.23-.54.26-.78.06-.24-.19-.28-.53-.09-.76.19-.23.54-.25.78-.06.24.19.28.53.09.76Z"/>
      </g>
    </g>
  </g>
</svg>