<?xml version="1.0" encoding="UTF-8"?>
<svg id="_レイヤー_2" data-name="レイヤー 2" xmlns="http://www.w3.org/2000/svg" xmlns:xlink="http://www.w3.org/1999/xlink" viewBox="0 0 380.73 222.44">
  <defs>
    <style>
      .cls-1 {
        clip-path: url(#clippath);
      }

      .cls-2 {
        fill: #f4ccd1;
      }

      .cls-3 {
        fill: #f3cc67;
      }

      .cls-4 {
        fill: #03040c;
      }

      .cls-5 {
        fill: #e9ceaa;
      }

      .cls-6 {
        fill: #ea9e7e;
      }

      .cls-7 {
        fill: #fff;
      }

      .cls-8 {
        fill: #e4e4e4;
      }

      .cls-9 {
        fill: #a05623;
      }

      .cls-10 {
        fill: #b8c9e5;
      }

      .cls-11 {
        fill: #dbad71;
      }

      .cls-12 {
        fill: #d7d7d8;
      }

      .cls-13 {
        fill: #da505a;
      }

      .cls-14 {
        fill: #221714;
      }

      .cls-15 {
        fill: #3b5d95;
      }

      .cls-16 {
        fill: #7c4f38;
      }

      .cls-17 {
        clip-path: url(#clippath-1);
      }
    </style>
    <clipPath id="clippath">
      <path class="cls-2" d="m161.99,149.51l-12.48,14.42s33.51,1.25,42.05-1.88l-5.25-13.16-24.31.62Z"/>
    </clipPath>
    <clipPath id="clippath-1">
      <path class="cls-7" d="m118.18,69.28l8.18,51.91-25.85,1.1s4.29-55.51,10.51-61.63l7.16,8.63Z"/>
    </clipPath>
  </defs>
  <g id="_レイヤー_1-2" data-name="レイヤー 1">
    <g>
      <g>
        <g>
          <polygon class="cls-6" points="158.05 161.11 142.02 195.2 145.3 196.73 164.62 162.37 158.05 161.11"/>
          <polygon class="cls-6" points="175.45 161.43 192.19 191.52 196.04 190.06 182.68 159.23 175.45 161.43"/>
          <polygon class="cls-7" points="192.08 191.17 193.52 194.65 197.79 192.46 196.13 189.78 192.08 191.17"/>
          <polygon class="cls-7" points="142.02 195.08 139.98 199.36 142.61 200.92 145.53 196.5 142.02 195.08"/>
          <path class="cls-13" d="m140.96,198.1l-11.5-1.25s11.5,8.15,12.48,7.52c.98-.63,1.31-4.7,1.31-4.7l-2.3-1.57Z"/>
          <polygon class="cls-13" points="193.52 194.65 188.27 204.06 200.42 195.59 197.79 192.46 193.52 194.65"/>
          <g>
            <path class="cls-2" d="m161.99,149.51l-12.48,14.42s33.51,1.25,42.05-1.88l-5.25-13.16-24.31.62Z"/>
            <g class="cls-1">
              <g>
                <path class="cls-7" d="m190.24,137.52c0,.45.38.82.84.82s.84-.37.84-.82-.37-.82-.84-.82-.84.37-.84.82Z"/>
                <path class="cls-7" d="m184.09,137.52c0,.45.37.82.84.82s.84-.37.84-.82-.37-.82-.84-.82-.84.37-.84.82Z"/>
                <path class="cls-7" d="m177.94,137.52c0,.45.38.82.84.82s.84-.37.84-.82-.38-.82-.84-.82-.84.36-.84.82Z"/>
                <path class="cls-7" d="m171.78,137.52c0,.45.37.82.84.82s.84-.37.84-.82-.38-.82-.84-.82-.84.36-.84.82Z"/>
                <path class="cls-7" d="m165.62,137.52c0,.45.38.82.84.82s.84-.37.84-.82-.38-.82-.84-.82-.84.37-.84.82Z"/>
                <path class="cls-7" d="m159.47,137.52c0,.45.37.82.84.82s.84-.37.84-.82-.38-.82-.84-.82-.84.37-.84.82Z"/>
                <path class="cls-7" d="m153.32,137.52c0,.45.38.82.84.82s.84-.37.84-.82-.37-.82-.84-.82-.84.37-.84.82Z"/>
                <path class="cls-7" d="m147.16,137.52c0,.45.38.82.84.82s.84-.37.84-.82-.38-.82-.84-.82-.84.37-.84.82Z"/>
                <path class="cls-7" d="m192.67,141.7c0,.45.38.82.84.82s.84-.37.84-.82-.37-.82-.84-.82-.84.37-.84.82Z"/>
                <path class="cls-7" d="m186.52,141.7c0,.45.38.82.84.82s.84-.37.84-.82-.37-.82-.84-.82-.84.37-.84.82Z"/>
                <path class="cls-7" d="m180.36,141.7c0,.45.38.82.84.82s.84-.37.84-.82-.38-.82-.84-.82-.84.37-.84.82Z"/>
                <path class="cls-7" d="m174.21,141.7c0,.45.38.82.84.82s.84-.37.84-.82-.38-.82-.84-.82-.84.37-.84.82Z"/>
                <path class="cls-7" d="m168.05,141.7c0,.45.38.82.84.82s.84-.37.84-.82-.38-.82-.84-.82-.84.37-.84.82Z"/>
                <path class="cls-7" d="m161.9,141.7c0,.45.38.82.84.82s.84-.37.84-.82-.38-.82-.84-.82-.84.37-.84.82Z"/>
                <path class="cls-7" d="m155.74,141.7c0,.45.38.82.84.82s.84-.37.84-.82-.37-.82-.84-.82-.84.37-.84.82Z"/>
                <path class="cls-7" d="m149.59,141.7c0,.45.38.82.84.82s.84-.37.84-.82-.38-.82-.84-.82-.84.37-.84.82Z"/>
                <path class="cls-7" d="m189.87,145.71c0,.45.38.82.84.82s.84-.37.84-.82-.37-.82-.84-.82-.84.37-.84.82Z"/>
                <path class="cls-7" d="m183.72,145.71c0,.45.37.82.84.82s.84-.37.84-.82-.37-.82-.84-.82-.84.37-.84.82Z"/>
                <path class="cls-7" d="m177.56,145.71c0,.45.38.82.84.82s.84-.37.84-.82-.38-.82-.84-.82-.84.37-.84.82Z"/>
                <path class="cls-7" d="m171.41,145.71c0,.45.38.82.84.82s.84-.37.84-.82-.38-.82-.84-.82-.84.37-.84.82Z"/>
                <path class="cls-7" d="m165.26,145.71c0,.45.38.82.84.82s.84-.37.84-.82-.38-.82-.84-.82-.84.37-.84.82Z"/>
                <path class="cls-7" d="m159.1,145.71c0,.45.37.82.84.82s.84-.37.84-.82-.37-.82-.84-.82-.84.37-.84.82Z"/>
                <path class="cls-7" d="m152.95,145.71c0,.45.37.82.84.82s.84-.37.84-.82-.37-.82-.84-.82-.84.37-.84.82Z"/>
                <path class="cls-7" d="m146.79,145.71c0,.45.38.82.84.82s.84-.36.84-.82-.38-.82-.84-.82-.84.37-.84.82Z"/>
                <path class="cls-7" d="m192.3,149.89c0,.45.38.82.84.82s.84-.37.84-.82-.38-.82-.84-.82-.84.37-.84.82Z"/>
                <path class="cls-7" d="m186.14,149.89c0,.45.38.82.84.82s.84-.37.84-.82-.38-.82-.84-.82-.84.37-.84.82Z"/>
                <path class="cls-7" d="m179.99,149.89c0,.45.38.82.84.82s.84-.37.84-.82-.38-.82-.84-.82-.84.37-.84.82Z"/>
                <path class="cls-7" d="m173.83,149.89c0,.45.38.82.84.82s.84-.37.84-.82-.38-.82-.84-.82-.84.37-.84.82Z"/>
                <path class="cls-7" d="m167.68,149.89c0,.45.38.82.84.82s.84-.37.84-.82-.37-.82-.84-.82-.84.37-.84.82Z"/>
                <path class="cls-7" d="m161.52,149.89c0,.45.37.82.84.82s.84-.37.84-.82-.38-.82-.84-.82-.84.37-.84.82Z"/>
                <path class="cls-7" d="m155.37,149.89c0,.45.38.82.84.82s.84-.37.84-.82-.38-.82-.84-.82-.84.37-.84.82Z"/>
                <path class="cls-7" d="m149.22,149.89c0,.45.38.82.84.82s.84-.37.84-.82-.37-.82-.84-.82-.84.37-.84.82Z"/>
                <path class="cls-7" d="m189.5,153.89c0,.45.38.82.84.82s.84-.37.84-.82-.38-.82-.84-.82-.84.37-.84.82Z"/>
                <path class="cls-7" d="m183.35,153.89c0,.45.37.82.84.82s.84-.37.84-.82-.38-.82-.84-.82-.84.37-.84.82Z"/>
                <path class="cls-7" d="m177.19,153.9c0,.45.37.82.84.82s.84-.37.84-.82-.37-.82-.84-.82-.84.37-.84.82Z"/>
                <path class="cls-7" d="m171.04,153.9c0,.45.38.82.84.82s.84-.37.84-.82-.38-.82-.84-.82-.84.37-.84.82Z"/>
                <path class="cls-7" d="m164.88,153.9c0,.45.38.82.84.82s.84-.37.84-.82-.38-.82-.84-.82-.84.37-.84.82Z"/>
                <path class="cls-7" d="m158.73,153.9c0,.45.38.82.84.82s.84-.37.84-.82-.37-.82-.84-.82-.84.37-.84.82Z"/>
                <path class="cls-7" d="m152.57,153.9c0,.45.38.82.84.82s.84-.36.84-.82-.38-.82-.84-.82-.84.37-.84.82Z"/>
                <path class="cls-7" d="m146.42,153.9c0,.45.37.82.84.82s.84-.36.84-.82-.38-.82-.84-.82-.84.37-.84.82Z"/>
                <path class="cls-7" d="m191.93,158.08c0,.45.37.82.84.82s.84-.37.84-.82-.38-.82-.84-.82-.84.37-.84.82Z"/>
                <path class="cls-7" d="m185.77,158.08c0,.45.38.82.84.82s.84-.37.84-.82-.37-.82-.84-.82-.84.37-.84.82Z"/>
                <path class="cls-7" d="m179.62,158.08c0,.46.38.82.84.82s.84-.36.84-.82-.37-.82-.84-.82-.84.37-.84.82Z"/>
                <path class="cls-7" d="m173.46,158.08c0,.46.38.82.84.82s.84-.37.84-.82-.38-.82-.84-.82-.84.37-.84.82Z"/>
                <path class="cls-7" d="m167.31,158.08c0,.46.38.82.84.82s.84-.37.84-.82-.38-.82-.84-.82-.84.37-.84.82Z"/>
                <path class="cls-7" d="m161.15,158.08c0,.45.38.82.84.82s.84-.37.84-.82-.38-.82-.84-.82-.84.37-.84.82Z"/>
                <path class="cls-7" d="m155,158.08c0,.45.38.82.84.82s.84-.37.84-.82-.38-.82-.84-.82-.84.37-.84.82Z"/>
                <path class="cls-7" d="m148.84,158.08c0,.45.38.82.84.82s.84-.37.84-.82-.38-.82-.84-.82-.84.37-.84.82Z"/>
                <path class="cls-7" d="m189.13,162.08c0,.45.37.82.84.82s.84-.37.84-.82-.38-.82-.84-.82-.84.37-.84.82Z"/>
                <path class="cls-7" d="m182.97,162.08c0,.45.38.82.84.82s.84-.37.84-.82-.38-.82-.84-.82-.84.37-.84.82Z"/>
                <path class="cls-7" d="m176.82,162.08c0,.45.37.82.84.82s.84-.37.84-.82-.37-.82-.84-.82-.84.37-.84.82Z"/>
                <path class="cls-7" d="m170.67,162.08c0,.45.37.82.84.82s.84-.37.84-.82-.37-.82-.84-.82-.84.37-.84.82Z"/>
                <path class="cls-7" d="m164.51,162.08c0,.45.38.82.84.82s.84-.37.84-.82-.37-.82-.84-.82-.84.37-.84.82Z"/>
                <path class="cls-7" d="m158.36,162.08c0,.45.37.82.84.82s.84-.37.84-.82-.37-.82-.84-.82-.84.37-.84.82Z"/>
                <path class="cls-7" d="m152.2,162.08c0,.45.38.82.84.82s.84-.37.84-.82-.38-.82-.84-.82-.84.37-.84.82Z"/>
                <path class="cls-7" d="m146.05,162.09c0,.45.37.82.84.82s.84-.37.84-.82-.38-.82-.84-.82-.84.37-.84.82Z"/>
                <path class="cls-7" d="m191.55,166.27c0,.46.37.82.84.82s.84-.37.84-.82-.38-.82-.84-.82-.84.37-.84.82Z"/>
                <path class="cls-7" d="m185.4,166.27c0,.46.37.82.84.82s.84-.37.84-.82-.38-.82-.84-.82-.84.37-.84.82Z"/>
                <path class="cls-7" d="m179.24,166.27c0,.45.38.82.84.82s.84-.37.84-.82-.38-.82-.84-.82-.84.37-.84.82Z"/>
                <path class="cls-7" d="m173.09,166.27c0,.45.38.82.84.82s.84-.37.84-.82-.38-.82-.84-.82-.84.37-.84.82Z"/>
                <path class="cls-7" d="m166.94,166.27c0,.45.38.82.84.82s.84-.37.84-.82-.38-.82-.84-.82-.84.37-.84.82Z"/>
                <path class="cls-7" d="m160.78,166.27c0,.45.37.82.84.82s.84-.37.84-.82-.37-.82-.84-.82-.84.37-.84.82Z"/>
                <path class="cls-7" d="m154.63,166.27c0,.45.38.82.84.82s.84-.37.84-.82-.38-.82-.84-.82-.84.37-.84.82Z"/>
                <path class="cls-7" d="m148.47,166.27c0,.45.38.82.84.82s.84-.37.84-.82-.38-.82-.84-.82-.84.37-.84.82Z"/>
                <path class="cls-7" d="m188.76,170.27c0,.45.37.82.84.82s.84-.37.84-.82-.38-.82-.84-.82-.84.37-.84.82Z"/>
                <path class="cls-7" d="m182.6,170.27c0,.45.38.82.84.82s.84-.37.84-.82-.38-.82-.84-.82-.84.37-.84.82Z"/>
                <path class="cls-7" d="m176.45,170.27c0,.45.38.82.84.82s.84-.37.84-.82-.38-.82-.84-.82-.84.37-.84.82Z"/>
                <path class="cls-7" d="m170.29,170.27c0,.45.37.82.84.82s.84-.37.84-.82-.37-.82-.84-.82-.84.37-.84.82Z"/>
                <path class="cls-7" d="m164.14,170.27c0,.45.37.82.84.82s.84-.37.84-.82-.37-.82-.84-.82-.84.37-.84.82Z"/>
                <path class="cls-7" d="m157.98,170.27c0,.46.38.82.84.82s.84-.36.84-.82-.38-.82-.84-.82-.84.37-.84.82Z"/>
                <path class="cls-7" d="m151.83,170.27c0,.45.38.82.84.82s.84-.36.84-.82-.38-.82-.84-.82-.84.37-.84.82Z"/>
                <path class="cls-7" d="m145.67,170.27c0,.45.38.82.84.82s.84-.37.84-.82-.37-.82-.84-.82-.84.37-.84.82Z"/>
                <path class="cls-7" d="m191.18,174.46c0,.45.38.82.84.82s.84-.37.84-.82-.38-.82-.84-.82-.84.37-.84.82Z"/>
                <path class="cls-7" d="m185.03,174.46c0,.45.37.82.84.82s.84-.37.84-.82-.38-.82-.84-.82-.84.37-.84.82Z"/>
                <path class="cls-7" d="m178.87,174.46c0,.45.37.82.84.82s.84-.37.84-.82-.38-.82-.84-.82-.84.37-.84.82Z"/>
                <path class="cls-7" d="m172.72,174.46c0,.45.38.82.84.82s.84-.37.84-.82-.38-.82-.84-.82-.84.37-.84.82Z"/>
                <path class="cls-7" d="m166.56,174.46c0,.45.38.82.84.82s.84-.37.84-.82-.38-.82-.84-.82-.84.37-.84.82Z"/>
                <path class="cls-7" d="m160.41,174.46c0,.45.38.82.84.82s.84-.36.84-.82-.37-.82-.84-.82-.84.37-.84.82Z"/>
                <path class="cls-7" d="m154.26,174.46c0,.45.38.82.84.82s.84-.37.84-.82-.38-.82-.84-.82-.84.37-.84.82Z"/>
                <path class="cls-7" d="m148.1,174.46c0,.45.38.82.84.82s.84-.37.84-.82-.38-.82-.84-.82-.84.37-.84.82Z"/>
              </g>
            </g>
          </g>
          <path class="cls-10" d="m179.4,92.77s-4.6,36.37-25.29,60.19l36.46,2.51s-4.93-52.98-2.3-64.58l-8.87,1.88Z"/>
          <path class="cls-6" d="m180.89,110.38l33.61,24.28s2.44,7.49,4.62,4.4c2.18-3.09-2.07-8.11-2.07-8.11l-31.08-24.38s-10.09-6.56-5.08,3.81Z"/>
          <path class="cls-6" d="m189.25,75.22c-9.3-2.12-10.12,3.31-11.83,6.58-.33.63-2.63,1.25-2.63,1.25,0,0-5.4,9.08,7.74,10.02,13.14.94,21.83-14.41,6.72-17.86Z"/>
          <path class="cls-9" d="m183.83,74.86l2.47,11.33s3.28.94,2.95,2.2c-.33,1.25-1.97,1.25-1.97,1.25l-.66,3.13s15.89-2.36,10.33-12.55c-3.83-7.01-13.12-5.36-13.12-5.36Z"/>
          <path class="cls-9" d="m196.33,86.08s2.1,9.69,10.05,9.98c0,0,4.14,5.98,3.77,2.98-.36-3-2.06-4-2.06-4,0,0-2.75-9.96-11.77-8.96Z"/>
          <path class="cls-4" d="m195.19,136.45l-11.56,4.3s2.69,7.53,9.68,5.11c6.99-2.42,1.61-10.48,1.88-9.41Z"/>
          <path class="cls-4" d="m183.55,140.77c-.02-.08-2.03-8.64-3.46-17.44-1.92-11.86-1.92-18.5,0-19.75,1.3-.84,2.46-1.06,3.46-.64,1.88.78,2.48,3.49,2.51,3.61l-.17.04s-.61-2.74-2.4-3.48c-.94-.39-2.04-.18-3.29.63-4.47,2.89,3.45,36.66,3.53,37l-.17.04Z"/>
          <rect class="cls-4" x="192.42" y="116.73" width=".18" height="20.09" transform="translate(-26.91 56.16) rotate(-15.53)"/>
        </g>
        <g>
          <polygon class="cls-4" points="249.21 102.77 258.36 157.16 291.92 181.73 292.63 197.85 302.48 183.07 271.86 148.8 271.86 98.45 249.21 102.77"/>
          <polygon class="cls-4" points="248.13 98.67 214.36 195.36 201.69 191.33 221.39 202.75 267.24 101.31 248.13 98.67"/>
          <polygon class="cls-8" points="244.42 27.27 241.6 104.49 280.3 105.83 264.12 40.03 254.27 24.59 244.42 27.27"/>
          <path class="cls-8" d="m250.93,48.47l46.96,47.17,6.81-3.67-47.93-50.46s-8.14-3.24-5.85,6.96Z"/>
          <path class="cls-6" d="m300.69,94.89s-.18,11.54,4.44,6.76c4.62-4.77-.42-9.68-.42-9.68l-4.02,2.92Z"/>
          <path class="cls-6" d="m243.35,5.31l-4.79,14.17,4.27.97s.27,12.25,9.64,4.79c7.63-6.08,6.41-31.7-9.12-19.92Z"/>
          <path class="cls-9" d="m256.8,15.4l-1.55-.13s.39-1.23.45-2.91c.17-4.37-2.26-.39-2.26-.39l-14.3-7.83,3.36-.19-2.13-1.55s9.7-4.79,14.68-.84c6.5,5.15,1.75,13.84,1.75,13.84Z"/>
          <path class="cls-4" d="m242.96,51.58l15.23,13.09s-2.74,10.35-6.4,9.75c-3.65-.61-13.7-8.83-13.1-9.75.61-.91,4.26-13.09,4.26-13.09Z"/>
          <path class="cls-4" d="m256.45,65.61s11.67,5.29,15.94,5.6l-.19,1.99s-7.24-.59-16.61-5.98l.86-1.62Z"/>
          <path class="cls-4" d="m243.32,52.9l1.17-17.47s-4.72,15.04-2.89,21.13l1.72-3.66Z"/>
        </g>
        <g>
          <polygon class="cls-6" points="345.55 143.89 368.19 196.72 368.06 209.91 374.4 194.24 356.1 142.54 345.55 143.89"/>
          <polygon class="cls-6" points="318.29 141.94 300.56 203.63 289.3 215.71 307.73 202.37 328.14 141.94 318.29 141.94"/>
          <polygon class="cls-3" points="367.97 206.66 365.95 222.44 373.69 200.96 380.73 207.67 374.4 194.24 367.97 206.66"/>
          <polygon class="cls-3" points="299.39 207.4 283.11 219.16 304.92 209.13 304.22 215.13 307.73 202.37 299.39 207.4"/>
          <path class="cls-2" d="m336.66,21.95l-12.75,32.7,9.14,16.12s-16.89,57.07-16.4,73.8l60.7,2.95-33.05-81.45s12.04-34.72-7.66-44.12Z"/>
          <path class="cls-6" d="m336.74,3.31s-6.61,13.18-11.68,14l5.96,1.84s-.1,10.52,8.37,5.21c8.47-5.31,13.89-29.58-2.64-21.05Z"/>
          <path class="cls-16" d="m349.4,80.43c-.04-.09-4.45-9.3-8.22-18.99-2.22-5.7-3.8-10.46-4.69-14.13-1.17-4.84-1.14-7.81.08-9.1.83-.86,2.09-.95,3.76-.24,5.35,2.27,11.41,7.75,18.01,16.3,4.89,6.34,8.28,12.09,8.31,12.15l-1.04.61c-.03-.06-3.39-5.76-8.23-12.03-6.38-8.26-12.43-13.76-17.52-15.92-1.16-.49-1.97-.5-2.41-.04-.98,1.03-1.66,5.24,4.86,21.94,3.76,9.64,8.15,18.82,8.19,18.91l-1.09.52Z"/>
          <path class="cls-5" d="m345.73,77.48l22.52-16.11s14.07,14.1-1.41,24.17c-15.48,10.07-21.11-8.06-21.11-8.06Z"/>
          <path class="cls-6" d="m334.47,45.93l7.04,36.93-18.3,2.02s-10.02-9.13-7.03-.67c3.03,8.56,30.96,2.69,30.96,2.69l-1.41-41.63s-10.55-14.1-11.26.67Z"/>
          <path class="cls-9" d="m336.74,3.31s5.02,13.16,17.71,24.3l.11-5.31,7.21-.09-6.24-5.91,6.31-1.81s-12.5-12.53-17.25-13.2c-4.75-.67-7.85,2.01-7.85,2.01Z"/>
        </g>
        <path class="cls-14" d="m242.23,13.66c.18.22.51.24.75.06.23-.19.27-.51.08-.73-.18-.22-.52-.24-.75-.06-.23.18-.27.51-.08.73Z"/>
        <path class="cls-14" d="m332.89,14.31c.18.22.52.24.75.06.23-.18.27-.51.08-.73-.18-.22-.52-.25-.75-.06-.23.19-.27.51-.09.73Z"/>
        <path class="cls-14" d="m178.08,83.7c.18.22.51.25.75.06.23-.19.27-.51.08-.73-.18-.22-.52-.25-.75-.06-.23.19-.27.51-.08.73Z"/>
      </g>
      <g>
        <g>
          <polygon class="cls-12" points="103.46 115.14 84.8 136.58 93.75 146.23 110.34 129.89 118.42 147.17 135.04 139.49 123.97 117.12 103.46 115.14"/>
          <polygon class="cls-7" points="110.74 65.74 106.26 57.09 102.12 65.25 107.21 75.93 110.74 65.74"/>
          <path class="cls-6" d="m106.26,57.09l-8.36-11.69s-1.23-12.21-4.18-5.08c-2.95,7.14.62,7.13.62,7.13l9.85,15.25,2.06-5.61Z"/>
          <g>
            <path class="cls-7" d="m118.18,69.28l8.18,51.91-25.85,1.1s4.29-55.51,10.51-61.63l7.16,8.63Z"/>
            <g class="cls-17">
              <rect class="cls-15" x="111.79" y="45.78" width="1.36" height="57.42" transform="translate(24.77 176.99) rotate(-82.97)"/>
              <rect class="cls-15" x="112.15" y="54.31" width="1.36" height="57.42" transform="translate(16.68 184.9) rotate(-83)"/>
              <rect class="cls-15" x="112.51" y="62.85" width="1.36" height="57.42" transform="translate(8.46 192.69) rotate(-82.97)"/>
              <rect class="cls-15" x="112.87" y="71.39" width="1.36" height="57.42" transform="translate(.29 200.53) rotate(-82.96)"/>
              <rect class="cls-15" x="113.23" y="79.93" width="1.36" height="57.42" transform="translate(-7.78 208.48) rotate(-83.01)"/>
              <rect class="cls-15" x="113.59" y="88.46" width="1.36" height="57.42" transform="translate(-15.94 216.33) rotate(-83.01)"/>
            </g>
          </g>
          <path class="cls-6" d="m119.02,53.49c5.27,2.21,2.16,25.45-4.4,17.83-6.56-7.62-6.93-22.59,4.4-17.83Z"/>
          <path class="cls-4" d="m112.19,53.51s17.3,20.31,15.21,17.27c-2.09-3.05-3.88-6.61-3.88-6.61,0,0-.32-8.15-4.49-10.68-4.17-2.53-6.84.02-6.84.02Z"/>
          <path class="cls-4" d="m124.74,74.35c5.6-1.08,17.63,32.53,9.03,38.16-8.6,5.63-8.95-12.19-11.66-23.89-2.71-11.7-.04-13.75,2.63-14.26Z"/>
          <path class="cls-4" d="m122.96,77.41s-4.48-6.6-8,6.64c-3.53,13.25,10.46,18.81,10.46,18.81v-4.07s-11.91-2-8.67-11.68c3.24-9.68,7.41-6.64,7.41-6.64l-1.2-3.05Z"/>
          <polygon class="cls-7" points="119.1 77.42 125.95 81.48 125.08 88.6 116.75 87.1 119.1 77.42"/>
          <path class="cls-6" d="m125.08,88.6s16.67,8.61,17.28,12.68c.61,4.07,3,9.66,3.58,4.57.58-5.09-3.3-11.19-3.3-11.19l-16.68-13.19-.87,7.13Z"/>
          <polygon class="cls-6" points="88.37 136.57 75.94 155.95 77.14 158.5 90.76 140.13 88.37 136.57"/>
          <path class="cls-15" d="m75.94,155.95s-12.52-14.22-8.64-6.59c3.89,7.62,7.9,11.53,7.9,11.53l1.93-2.39-1.2-2.54Z"/>
          <polygon class="cls-6" points="127.91 143.07 138.38 162.9 136.6 164.43 123.46 144.61 127.91 143.07"/>
          <path class="cls-15" d="m136.6,164.43s-6.2,14.78-3.24,11.21c2.96-3.57,6.8-11.73,6.8-11.73l-1.79-1.01-1.78,1.53Z"/>
        </g>
        <path class="cls-4" d="m113.26,57.8c0,.28.22.5.5.5s.5-.22.5-.5-.22-.5-.5-.5-.5.22-.5.5Z"/>
      </g>
      <g>
        <path class="cls-11" d="m23.97,163.27s8.61,5.52,32.38,5.63c6.03.03,8.4-12.93,8.22-9.43-.18,3.5-4.27,11.61-4.27,11.61,0,0,26.48,17.95,19.73,17.31-6.75-.64-17.84-11.19-18.2-7.25-.36,3.94,15.29,13.27,12.67,14.59-2.62,1.32-19.02-8.88-21.65-11.5s-21-3.88-23.43-.59c-2.43,3.29-15.93,13.33-17.25,11.37-1.32-1.96,12.93-12.01,12.74-14.2-.19-2.19-4.29-14.25-4.29-14.25l3.36-3.29Z"/>
        <path class="cls-11" d="m18.76,154.83c4.57-.59,4.69-5.2,7.84-.58,3.15,4.62,1.05,14.22-7.43,11.86-8.48-2.36-25.2-10.69-15.94-11.16,9.27-.47,15.52-.13,15.52-.13Z"/>
        <path class="cls-9" d="m3.24,154.96s-2.49,2.76-3.16.98c-.66-1.78,3.16-.98,3.16-.98Z"/>
        <path class="cls-9" d="m25.7,157.07c-.63.67,1-7.37,6.19-6.58,5.19.79,12.73,4.26,8.65,5.35s-10.36-3.56-14.84,1.23Z"/>
        <path class="cls-4" d="m23.13,154.03c-.23.25-.21.65.04.88.25.23.65.21.88-.04.23-.25.21-.65-.04-.88-.25-.23-.65-.21-.88.04Z"/>
        <path class="cls-15" d="m22.27,175.78c.29-.15,7.16-3.65,8.94-10.06l-1.63-.45c-1.58,5.68-8.01,8.96-8.07,9l.76,1.51Z"/>
      </g>
    </g>
  </g>
</svg>