<?xml version="1.0" encoding="UTF-8"?>
<svg id="_レイヤー_2" data-name="レイヤー 2" xmlns="http://www.w3.org/2000/svg" viewBox="0 0 199.84 169.63">
  <defs>
    <style>
      .cls-1 {
        fill: rgba(255,255,255,.5);
      }

      .cls-2 {
        fill: #e3dea9;
      }

      .cls-3 {
        fill: #80a7a3;
      }

      .cls-4 {
        fill: #bac4b1;
      }

      .cls-5 {
        fill: #a98d4b;
      }

      .cls-6 {
        fill: #c0868f;
      }

      .cls-7 {
        fill: #d5ca8f;
      }

      .cls-8 {
        fill: #d4acaf;
      }

      .cls-9 {
        fill: #796956;
      }
    </style>
  </defs>
  <g id="_レイヤー_1-2" data-name="レイヤー 1">
    <g>
      <path class="cls-1" d="m33.07,90.86h135.72c0,21.69-20.38,63.96-67.89,63.96s-67.83-45.24-67.83-63.96Z"/>
      <g>
        <g>
          <rect class="cls-5" x="85.99" y="28.22" width="29.81" height="3.37"/>
          <path class="cls-5" d="m124.06,5.28c-.98,0-1.78.8-1.78,1.78,0,.62.31,1.16.79,1.48-2.31,3.42-8.01,11.46-10.24,10.87-2.21-.59-.75-9.74,0-13.73.11.02.22.03.33.03.98,0,1.78-.8,1.78-1.78s-.8-1.78-1.78-1.78-1.78.8-1.78,1.78c0,.71.42,1.32,1.02,1.61-1.8,3.8-6.18,12.68-7.51,12.18-1.34-.5-3.04-10.15-3.7-14.19.85-.13,1.51-.86,1.51-1.75,0-.98-.8-1.78-1.78-1.78s-1.78.8-1.78,1.78c0,.89.65,1.62,1.51,1.75-.66,4.03-2.36,13.68-3.7,14.19-1.34.5-5.72-8.39-7.52-12.19.59-.29,1.01-.89,1.01-1.6,0-.98-.8-1.78-1.78-1.78s-1.78.8-1.78,1.78.8,1.78,1.78,1.78c.12,0,.24,0,.35-.03.74,3.99,2.2,13.14,0,13.73-2.23.59-7.93-7.45-10.24-10.87.47-.32.79-.86.79-1.48,0-.98-.79-1.78-1.78-1.78s-1.78.8-1.78,1.78.8,1.78,1.78,1.78c.27,0,.51-.06.74-.16l7.51,16.73h29.81l7.51-16.73c.23.1.47.16.74.16.98,0,1.78-.8,1.78-1.78s-.8-1.78-1.78-1.78Z"/>
        </g>
        <path class="cls-3" d="m84.93,169.63s-.08,0-.12-.02c-.27-.07-.43-.34-.37-.61,3.57-14.51,16.33-14.68,16.45-14.68.28,0,.5.22.5.5,0,.28-.22.5-.5.5-.49,0-12.1.18-15.48,13.92-.06.23-.26.38-.49.38Z"/>
        <path class="cls-3" d="m116.87,169.63c-.23,0-.43-.15-.49-.38-3.38-13.73-14.99-13.92-15.48-13.92-.28,0-.5-.23-.5-.5,0-.28.22-.5.5-.5.13,0,12.88.17,16.46,14.68.07.27-.1.54-.37.61-.04.01-.08.02-.12.02Z"/>
        <path class="cls-8" d="m184.83,42.74c-1.89-1.65-2.6-14.62-2.6-14.62,0,0-.71,12.96-2.6,14.62-1.95,1.71-8.53,2.45-8.53,2.45,0,0,6.59.74,8.53,2.45,1.88,1.65,2.6,14.62,2.6,14.62,0,0,.71-12.96,2.6-14.62,1.95-1.71,8.53-2.45,8.53-2.45,0,0-6.58-.74-8.53-2.45Z"/>
        <path class="cls-4" d="m190.11,113.76c-1.42-1.24-1.95-11-1.95-11,0,0-.54,9.76-1.95,11-1.47,1.29-6.42,1.85-6.42,1.85,0,0,4.96.56,6.42,1.84,1.42,1.24,1.95,11,1.95,11,0,0,.54-9.76,1.95-11,1.46-1.29,6.42-1.84,6.42-1.84,0,0-4.96-.56-6.42-1.85Z"/>
        <path class="cls-2" d="m194.82,68.83c-1.11-.97-1.53-8.61-1.53-8.61,0,0-.42,7.63-1.53,8.61-1.15,1.01-5.03,1.44-5.03,1.44,0,0,3.88.44,5.03,1.44,1.11.97,1.53,8.61,1.53,8.61,0,0,.42-7.63,1.53-8.61,1.14-1,5.02-1.44,5.02-1.44,0,0-3.88-.44-5.02-1.44Z"/>
        <path class="cls-7" d="m24.46,25.66c-1.71-1.5-2.35-13.22-2.35-13.22,0,0-.65,11.72-2.35,13.22-1.76,1.54-7.72,2.22-7.72,2.22,0,0,5.96.67,7.72,2.21,1.71,1.5,2.35,13.22,2.35,13.22,0,0,.64-11.73,2.35-13.22,1.76-1.54,7.72-2.21,7.72-2.21,0,0-5.95-.67-7.72-2.22Z"/>
        <path class="cls-8" d="m15.76,133.32c-1.31-1.15-1.81-10.17-1.81-10.17,0,0-.5,9.02-1.81,10.17-1.36,1.19-5.94,1.71-5.94,1.71,0,0,4.58.52,5.94,1.7,1.31,1.15,1.81,10.17,1.81,10.17,0,0,.5-9.02,1.81-10.17,1.35-1.19,5.93-1.7,5.93-1.7,0,0-4.58-.52-5.93-1.71Z"/>
        <path class="cls-2" d="m8.08,88.91c-1.11-.97-1.53-8.61-1.53-8.61,0,0-.42,7.63-1.53,8.61-1.15,1.01-5.02,1.44-5.02,1.44,0,0,3.88.44,5.02,1.44,1.11.97,1.53,8.61,1.53,8.61,0,0,.42-7.63,1.53-8.61,1.15-1.01,5.03-1.44,5.03-1.44,0,0-3.88-.44-5.03-1.44Z"/>
        <path class="cls-6" d="m114.8,92.73c0,18.62-5.66,26.19-15.93,26.19s-15.73-7.44-15.73-26.06,5.73-25.93,15.86-25.93,15.79,7.24,15.79,25.8Zm-23.17.06c0,14.81,2.04,19.61,7.24,19.61s7.44-4.87,7.44-19.61-2.04-19.35-7.3-19.35-7.37,4.47-7.37,19.35Z"/>
        <path class="cls-5" d="m129.69,96.97h3.98v3.81c0,1.25.34,5.06,2.26,8.96,2.11,4.25,6.21,6.19,7.71,6.9l-2.45,3.56c-4.37-2.43-7.86-6.21-9.5-11.51-1.55,5.43-5.62,9.3-9.57,11.51l-2.48-3.49c3.68-1.62,6.31-3.98,8.05-7.46,1.25-2.53,2.01-5.67,2.01-8.47v-3.81Z"/>
        <path class="cls-3" d="m175.77,87.61l-3.75,4.74c-.12.16-.27.37-.43.6-.98,1.5-2.49,4.15-1.57,5.97-.65.85-1.44,1.06-1.94,1.1.47-2.41.81-4.84,1.01-7.28l.13-1.82c.86-.11,2.04-.65,2.76-2.1,2.23-.4,3.2-4.42,3.26-5.98l.03-.72c.12-2.78-.21-5.68-.21-5.68l-3.01,5.25c-.1.18-.22.4-.34.66-.75,1.63-1.86,4.48-.67,6.13-.52.94-1.26,1.26-1.76,1.38.1-2.45.08-4.9-.08-7.35-.04-.61-.08-1.21-.14-1.82.83-.24,1.92-.95,2.42-2.48,2.15-.72,2.51-4.85,2.33-6.41l-.07-.71c-.3-2.77-1.06-5.59-1.06-5.59l-2.19,5.64c-.07.19-.15.43-.23.7-.5,1.73-1.17,4.71.24,6.17-.37,1-1.07,1.44-1.54,1.62-.25-2.44-.65-4.86-1.16-7.26-.13-.59-.26-1.19-.41-1.78.79-.36,1.75-1.22,2.02-2.82,2.02-1.04,1.75-5.18,1.35-6.69-.06-.23-.12-.46-.18-.7-.71-2.69-1.88-5.37-1.89-5.36l-1.32,5.91c-.05.2-.09.45-.13.73-.23,1.78-.45,4.83,1.17,6.06-.21,1.05-.84,1.58-1.28,1.83-.62-2.37-1.37-4.71-2.24-7-.22-.57-.44-1.13-.67-1.7.72-.47,1.55-1.47,1.57-3.09,1.84-1.33.96-5.38.33-6.81l-.28-.66c-1.1-2.56-2.67-5.02-2.67-5.02l-.42,6.04c-.01.2-.02.46-.02.74.04,1.8.28,4.84,2.06,5.82-.06,1.07-.59,1.69-.98,2.01-.96-2.26-2.06-4.45-3.27-6.59l-.92-1.58c.64-.58,1.31-1.69,1.09-3.29,1.62-1.59.14-5.46-.69-6.78l-.38-.61c-1.47-2.36-3.39-4.56-3.39-4.56l.48,6.03c.02.2.05.45.09.73.3,1.78,1,4.74,2.91,5.44.1,1.07-.33,1.76-.68,2.13-1.29-2.08-2.7-4.1-4.21-6.03-.37-.48-.76-.95-1.14-1.42.55-.66,1.05-1.87.59-3.42,1.36-1.81-.67-5.42-1.69-6.6l-.46-.55c-1.81-2.12-4.03-4.01-4.03-4.01l1.37,5.9c.05.2.12.44.2.71.56,1.71,1.68,4.55,3.68,4.95.26,1.04-.07,1.79-.35,2.21-1.59-1.87-3.28-3.65-5.06-5.33-.45-.41-.89-.83-1.34-1.24.45-.74.76-2,.08-3.47.52-.99.18-2.31-.47-3.51-.65-1.2-1.6-2.26-2.18-2.77l-.54-.47c-2.11-1.82-4.57-3.38-4.58-3.37l2.23,5.62c.08.19.18.42.3.67.81,1.61,2.34,4.25,4.38,4.35.41.99.19,1.78-.02,2.23-1.85-1.61-3.79-3.12-5.8-4.53.13-1.42-.93-2.72-2.26-3.7-1.33-.97-2.92-1.6-3.8-1.82-3.29-.9-7.08-1.12-7.07-1.11,0,0,2.81,2.51,5.15,4.69.64.57,1.88,1.54,3.25,2.24,1.37.7,2.88,1.13,4.15.52,1.98,1.38,3.89,2.88,5.71,4.46-.42.29-1.15.6-2.16.41-.39-1.96-3.33-2.74-4.99-2.81-.27-.01-.5-.02-.69-.01-2.62.06-5.46.72-5.46.73l4.1,2.21.52.28c1.15.56,4.36,1.87,6.12.52,1.46.34,2.65-.11,3.33-.63.45.39.88.81,1.32,1.22,1.75,1.66,3.42,3.42,4.99,5.26-.45.22-1.23.43-2.2.08-.09-2-2.89-3.2-4.52-3.52-.26-.06-.49-.09-.68-.12-2.6-.32-5.51-.09-5.5-.09l3.73,2.8.47.35c1.05.72,4.04,2.5,5.98,1.42,1.39.55,2.63.29,3.39-.13.38.46.76.93,1.12,1.4,1.49,1.9,2.88,3.89,4.15,5.94-.48.15-1.28.24-2.19-.24.21-1.99-2.38-3.59-3.95-4.15-.25-.09-.47-.17-.66-.21-2.53-.71-5.44-.91-5.43-.9l3.27,3.32.42.42c.93.87,3.62,3.07,5.7,2.29,1.29.75,2.56.68,3.37.37l.9,1.55c1.19,2.11,2.27,4.27,3.22,6.5-.5.07-1.3.04-2.13-.57.5-1.94-1.82-3.9-3.28-4.69-.23-.13-.44-.23-.62-.31-2.39-1.07-5.24-1.71-5.24-1.7l2.74,3.77.36.47c.79,1,3.12,3.57,5.29,3.12,1.16.94,2.43,1.05,3.28.87.23.55.45,1.11.66,1.67.86,2.26,1.6,4.57,2.21,6.91-.51,0-1.29-.15-2.02-.88.79-1.84-1.21-4.13-2.54-5.13-.21-.16-.4-.3-.56-.4-2.2-1.42-4.92-2.47-4.92-2.46l2.15,4.13.28.52c.63,1.11,2.55,3.99,4.76,3.87,1.01,1.1,2.25,1.4,3.11,1.36.15.58.28,1.17.41,1.75.51,2.36.9,4.76,1.14,7.16-.5-.08-1.25-.34-1.86-1.17,1.05-1.7-.57-4.27-1.74-5.45-.18-.19-.35-.36-.5-.48-1.96-1.73-4.49-3.18-4.49-3.17l1.5,4.41.2.56c.45,1.19,1.92,4.33,4.12,4.54.83,1.24,2.01,1.72,2.87,1.81.05.6.1,1.2.13,1.79.16,2.41.18,4.83.08,7.25-.48-.15-1.19-.52-1.67-1.44,1.29-1.53.06-4.31-.91-5.66-.15-.21-.29-.4-.42-.55-1.68-2.01-3.97-3.82-3.97-3.81l.82,4.59.11.58c.28,1.25,1.26,4.58,3.41,5.11.64,1.35,1.73,2,2.57,2.21l-.13,1.79c-.2,2.41-.54,4.81-1,7.18-.45-.22-1.1-.7-1.44-1.67,1.51-1.32.7-4.25-.07-5.73-.12-.24-.23-.44-.33-.6-1.37-2.23-3.37-4.37-3.37-4.36l.14,4.66.02.59c.1,1.28.57,4.71,2.62,5.56.43,1.43,1.41,2.24,2.21,2.57l-.39,1.75c-.56,2.35-1.25,4.67-2.06,6.95-.41-.29-.98-.85-1.17-1.86,1.69-1.08,1.33-4.1.79-5.67-.08-.25-.16-.47-.24-.64-1.02-2.41-2.68-4.81-2.68-4.81l-.55,4.62-.07.59c-.1,1.27-.14,4.74,1.76,5.88.21,1.48,1.06,2.42,1.8,2.88l-.65,1.67c-.91,2.24-1.94,4.43-3.09,6.56-.37-.34-.85-.99-.88-2.02,1.83-.81,1.93-3.85,1.63-5.49-.04-.26-.09-.49-.14-.68-.65-2.54-1.93-5.16-1.93-5.15l-1.24,4.49-.15.57c-.29,1.24-.85,4.66.85,6.08,0,1.49.69,2.55,1.35,3.11l-.89,1.56c-1.24,2.08-2.58,4.09-4.03,6.03-.31-.39-.69-1.11-.57-2.13,1.93-.53,2.48-3.52,2.44-5.18,0-.27-.02-.5-.04-.69-.26-2.61-1.13-5.39-1.13-5.38l-1.9,4.25-.24.54c-.47,1.18-1.54,4.49-.07,6.14-.23,1.47.3,2.63.87,3.28l-1.12,1.41c-1.53,1.87-3.16,3.66-4.88,5.36-.25-.44-.52-1.2-.24-2.19,1.99-.24,2.98-3.11,3.18-4.76.04-.26.06-.49.06-.69.13-2.62-.31-5.5-.31-5.5l-2.52,3.92-.31.5c-.64,1.1-2.2,4.21-.98,6.06-.45,1.43-.09,2.65.38,3.37l-1.31,1.23c-1.79,1.62-3.67,3.15-5.62,4.58-.18-.47-.33-1.26.08-2.2,2,.06,3.4-2.64,3.85-4.24.07-.26.13-.49.17-.67.52-2.57.51-5.49.5-5.48l-3.07,3.51-.39.45c-.8.99-2.79,3.84-1.87,5.85-.65,1.34-.48,2.6-.12,3.39l-1.48,1.02c-2.01,1.34-4.1,2.58-6.24,3.69-.11-.49-.14-1.29.41-2.16,1.97.36,3.76-2.1,4.44-3.62.11-.24.2-.46.27-.64.89-2.46,1.32-5.35,1.31-5.35l-3.56,3.01-.45.39c-.94.87-3.33,3.38-2.72,5.51-.85,1.23-.87,2.5-.63,3.33l-1.62.78c-2.19,1.03-4.44,1.93-6.72,2.72-.04-.5.05-1.3.73-2.08,1.89.65,4.03-1.52,4.93-2.91.14-.22.27-.42.36-.59,1.25-2.3,2.1-5.09,2.09-5.09l-3.96,2.45-.5.32c-1.06.71-3.8,2.84-3.51,5.04-1.02,1.09-1.23,2.34-1.12,3.2l-1.72.53c-2.32.69-4.68,1.24-7.05,1.68.04-.5.25-1.28,1.03-1.94,1.77.92,4.21-.89,5.31-2.14.18-.2.33-.38.44-.53,1.58-2.09,2.84-4.72,2.83-4.72l-4.28,1.83-.54.24c-1.15.54-4.18,2.24-4.23,4.45-1.17.92-1.57,2.13-1.59,3-3.48.57-7.02.88-10.55.9-.28,0-.51.23-.51.51s.23.5.52.5c3.58-.03,7.17-.33,10.7-.91.3.81,1.09,1.84,2.66,2.23.88,2.09,5.03,2.14,6.56,1.85l.71-.12c2.74-.5,5.49-1.47,5.49-1.47l-5.79-1.77c-.19-.06-.44-.12-.71-.18-1.76-.37-4.78-.82-6.13.7-1.03-.3-1.51-.96-1.73-1.41,2.41-.44,4.8-1,7.15-1.7l1.74-.54c.41.75,1.35,1.65,2.96,1.8,1.19,1.93,5.29,1.36,6.77.84l.68-.23c2.63-.91,5.21-2.28,5.21-2.28l-5.99-.88c-.2-.03-.45-.05-.73-.07-1.8-.1-4.85-.1-5.96,1.62-1.06-.14-1.64-.72-1.92-1.14,2.32-.79,4.6-1.71,6.82-2.75l1.64-.8c.53.68,1.58,1.44,3.2,1.34,1.46,1.73,5.44.56,6.81-.18l.64-.33c2.47-1.29,4.81-3.03,4.81-3.03l-6.05.03c-.2,0-.46.01-.74.04-1.79.17-4.8.63-5.65,2.49-1.07.02-1.73-.46-2.07-.83,2.18-1.13,4.29-2.38,6.33-3.74l1.5-1.03c.62.6,1.78,1.18,3.36.85,1.7,1.5,5.46-.26,6.71-1.19l.58-.42c2.24-1.64,4.3-3.71,4.3-3.71l-5.98.92c-.2.03-.45.08-.72.14-1.75.43-4.66,1.34-5.22,3.3-1.06.18-1.78-.21-2.17-.51,1.98-1.45,3.88-3,5.7-4.65l1.33-1.24c.7.5,1.94.9,3.45.34,1.9,1.23,5.36-1.06,6.46-2.17l.51-.5c1.98-1.96,3.71-4.31,3.71-4.31l-5.78,1.8c-.19.06-.43.15-.69.25-1.66.68-4.41,2.02-4.67,4.04-1.02.33-1.79.06-2.23-.19,1.74-1.72,3.4-3.54,4.95-5.44l1.14-1.43c.77.39,2.05.61,3.46-.18,2.07.93,5.14-1.85,6.07-3.11l.43-.57c1.67-2.23,3.03-4.82,3.02-4.81l-5.45,2.64c-.18.09-.4.21-.65.35-1.54.93-4.06,2.65-4.02,4.69-.96.48-1.76.33-2.23.14,1.47-1.96,2.83-4.01,4.09-6.11l.91-1.58c.82.27,2.12.29,3.4-.69,2.18.61,4.81-2.6,5.54-3.98l.34-.63c1.31-2.46,2.27-5.22,2.27-5.22l-4.99,3.43c-.17.12-.37.27-.59.44-1.39,1.15-3.62,3.23-3.27,5.24-.88.62-1.69.59-2.18.48,1.16-2.16,2.21-4.38,3.13-6.66l.66-1.7c.85.14,2.14-.02,3.26-1.19,2.25.28,4.36-3.29,4.87-4.77l.24-.68c.93-2.63,1.46-5.5,1.45-5.5l-4.41,4.14c-.15.14-.32.32-.52.53-1.2,1.34-3.09,3.74-2.45,5.67-.78.75-1.58.83-2.09.8.82-2.31,1.52-4.66,2.09-7.05l.4-1.78c.86.02,2.11-.35,3.04-1.67,2.26-.06,3.82-3.9,4.1-5.44l.14-.7c.53-2.73.63-5.65.62-5.64Z"/>
        <path class="cls-3" d="m100.39,154.32c-3.53-.02-7.06-.32-10.55-.9-.02-.87-.42-2.07-1.59-3-.05-2.21-3.07-3.91-4.22-4.45l-.54-.24-4.28-1.83s1.25,2.63,2.83,4.72c.11.15.26.34.44.53,1.1,1.25,3.53,3.06,5.31,2.14.77.66.98,1.44,1.03,1.94-2.38-.43-4.73-.99-7.05-1.68l-1.72-.53c.11-.86-.1-2.12-1.12-3.2.29-2.2-2.45-4.32-3.51-5.04l-.5-.32-3.96-2.45s.84,2.79,2.09,5.09c.09.17.21.37.36.59.9,1.4,3.03,3.56,4.92,2.91.67.77.76,1.57.73,2.07-2.28-.78-4.53-1.69-6.71-2.71l-1.62-.78c.24-.83.22-2.11-.63-3.34.62-2.13-1.78-4.64-2.72-5.51l-.45-.39-3.56-3.01s.42,2.88,1.31,5.35c.06.18.15.4.26.64.68,1.52,2.46,3.97,4.43,3.62.54.86.52,1.67.41,2.16-2.14-1.12-4.23-2.35-6.24-3.69l-1.48-1.02c.36-.79.53-2.05-.12-3.39.93-2.01-1.07-4.86-1.87-5.85l-.38-.45-3.07-3.51s-.01,2.91.5,5.48c.04.19.09.42.17.67.45,1.6,1.85,4.29,3.85,4.24.4.94.26,1.72.08,2.2-1.95-1.42-3.83-2.95-5.62-4.58l-1.31-1.23c.47-.73.83-1.95.38-3.38,1.21-1.85-.34-4.96-.98-6.06l-.32-.5-2.52-3.92s-.45,2.88-.32,5.5c0,.19.03.42.07.69.2,1.65,1.19,4.52,3.18,4.76.27.98,0,1.74-.24,2.18-1.72-1.7-3.35-3.49-4.88-5.36l-1.12-1.41c.57-.65,1.11-1.8.87-3.28,1.48-1.65.4-4.96-.07-6.14l-.24-.54-1.9-4.25s-.87,2.78-1.13,5.39c-.02.19-.04.42-.04.69-.04,1.66.51,4.64,2.43,5.18.12,1.01-.26,1.73-.57,2.12-1.45-1.93-2.79-3.95-4.03-6.02l-.9-1.56c.67-.56,1.37-1.62,1.36-3.11,1.71-1.42,1.14-4.84.85-6.08l-.15-.57-1.24-4.49s-1.28,2.62-1.93,5.15c-.05.18-.1.41-.14.67-.29,1.63-.2,4.67,1.63,5.49-.04,1.02-.51,1.67-.88,2.02-1.14-2.13-2.17-4.32-3.08-6.56l-.65-1.67c.74-.45,1.59-1.4,1.81-2.88,1.9-1.14,1.85-4.61,1.76-5.88l-.07-.59-.55-4.62s-1.66,2.39-2.68,4.81c-.08.17-.16.39-.24.64-.54,1.57-.9,4.59.79,5.67-.19,1-.76,1.57-1.17,1.86-.82-2.27-1.5-4.6-2.06-6.95l-.39-1.76c.8-.33,1.78-1.14,2.22-2.57,2.05-.85,2.52-4.28,2.62-5.56l.02-.59.14-4.66s-1.99,2.13-3.37,4.36c-.1.16-.21.37-.33.6-.77,1.47-1.58,4.4-.07,5.72-.34.96-.98,1.44-1.43,1.67-.46-2.37-.79-4.77-1-7.18l-.13-1.79c.84-.21,1.93-.86,2.57-2.21,2.15-.53,3.13-3.87,3.41-5.12l.11-.58.83-4.59s-2.29,1.8-3.97,3.81c-.12.14-.27.33-.42.55-.97,1.35-2.21,4.12-.92,5.65-.48.9-1.19,1.28-1.67,1.43-.1-2.41-.08-4.84.07-7.25.04-.6.08-1.2.14-1.79.86-.08,2.04-.57,2.87-1.81,2.2-.21,3.67-3.36,4.13-4.54l.2-.56,1.5-4.41s-2.53,1.44-4.49,3.17c-.14.12-.31.29-.5.48-1.16,1.19-2.79,3.75-1.74,5.45-.61.82-1.36,1.09-1.86,1.17.25-2.4.64-4.79,1.14-7.15.13-.59.26-1.17.4-1.75.87.05,2.1-.26,3.11-1.36,2.21.12,4.13-2.77,4.76-3.87l.28-.52,2.15-4.13s-2.72,1.04-4.92,2.46c-.16.1-.35.24-.56.4-1.33,1-3.32,3.29-2.54,5.13-.73.72-1.51.88-2.02.88.61-2.34,1.35-4.64,2.21-6.9.21-.56.43-1.12.66-1.67.85.18,2.12.06,3.28-.87,2.17.45,4.5-2.12,5.29-3.12l.35-.47,2.74-3.77s-2.84.63-5.24,1.7c-.17.08-.38.18-.61.31-1.46.79-3.78,2.75-3.28,4.69-.82.6-1.62.64-2.12.57.95-2.22,2.03-4.39,3.22-6.49l.9-1.55c.81.3,2.08.38,3.38-.37,2.08.78,4.76-1.42,5.7-2.29l.42-.42,3.27-3.32s-2.91.2-5.43.9c-.19.05-.41.12-.66.21-1.56.56-4.15,2.15-3.95,4.15-.9.48-1.7.38-2.18.24,1.28-2.05,2.66-4.04,4.15-5.94.36-.47.75-.94,1.12-1.4.76.42,2,.68,3.39.13,1.94,1.08,4.92-.7,5.98-1.42l.47-.35,3.73-2.8s-2.9-.23-5.5.09c-.19.02-.42.06-.68.12-1.63.32-4.42,1.52-4.52,3.52-.96.34-1.74.13-2.2-.08,1.57-1.84,3.23-3.59,4.99-5.26.44-.41.87-.82,1.32-1.22.69.53,1.88.97,3.33.63,1.76,1.35,4.97.04,6.12-.52l.52-.28,4.1-2.21s-2.84-.67-5.46-.73c-.19,0-.42,0-.69.01-1.66.08-4.6.85-4.99,2.81-1,.19-1.74-.13-2.16-.41,1.82-1.59,3.73-3.08,5.71-4.46,1.28.61,2.79.18,4.15-.52,1.37-.7,2.62-1.67,3.25-2.24,2.34-2.18,5.14-4.69,5.15-4.69,0,0-3.78.21-7.07,1.11-.88.22-2.46.85-3.79,1.82-1.33.97-2.39,2.28-2.26,3.7-2.01,1.41-3.95,2.92-5.8,4.53-.22-.45-.44-1.24-.02-2.24,2.04-.1,3.57-2.75,4.38-4.35.12-.25.23-.48.3-.67l2.23-5.62s-2.47,1.55-4.58,3.37l-.54.47c-.58.52-1.53,1.58-2.18,2.77-.65,1.2-.99,2.52-.47,3.51-.68,1.47-.37,2.73.08,3.47-.46.4-.9.82-1.34,1.24-1.78,1.69-3.47,3.47-5.07,5.34-.28-.41-.61-1.16-.35-2.21,2-.4,3.13-3.24,3.69-4.95.08-.27.15-.51.2-.71l1.37-5.89s-2.21,1.9-4.02,4.01l-.46.55c-1.02,1.18-3.05,4.79-1.69,6.6-.46,1.55.04,2.75.59,3.42-.38.47-.77.94-1.14,1.42-1.51,1.93-2.92,3.95-4.22,6.03-.35-.37-.78-1.05-.68-2.13,1.91-.7,2.61-3.67,2.91-5.45.04-.28.07-.53.09-.73l.48-6.03s-1.91,2.2-3.38,4.56l-.38.61c-.84,1.32-2.31,5.2-.69,6.78-.22,1.6.45,2.71,1.09,3.29l-.92,1.58c-1.21,2.14-2.3,4.34-3.27,6.59-.39-.31-.93-.93-.99-2.01,1.79-.98,2.03-4.02,2.07-5.82,0-.28,0-.54-.02-.74l-.42-6.04s-1.56,2.46-2.67,5.02l-.28.66c-.63,1.43-1.51,5.48.33,6.81.02,1.62.85,2.62,1.57,3.09-.23.56-.46,1.13-.67,1.7-.87,2.29-1.62,4.63-2.24,7.01-.43-.25-1.06-.78-1.28-1.84,1.62-1.23,1.4-4.28,1.17-6.07-.04-.28-.09-.53-.13-.73l-1.32-5.91s-1.18,2.67-1.89,5.36c-.07.23-.12.46-.18.7-.4,1.51-.68,5.65,1.35,6.69.27,1.6,1.23,2.46,2.02,2.82-.15.59-.28,1.19-.41,1.78-.52,2.4-.91,4.83-1.16,7.27-.46-.18-1.17-.61-1.54-1.62,1.42-1.46.75-4.44.25-6.17-.08-.27-.16-.51-.23-.7l-2.19-5.64s-.76,2.82-1.06,5.59l-.07.71c-.17,1.55.18,5.68,2.33,6.41.5,1.54,1.58,2.25,2.42,2.48-.06.61-.1,1.21-.14,1.82-.16,2.45-.18,4.91-.08,7.36-.49-.11-1.24-.43-1.76-1.38,1.19-1.65.08-4.5-.67-6.13-.12-.26-.24-.48-.34-.66l-3.01-5.25s-.34,2.9-.22,5.68l.04.71c.06,1.56,1.03,5.58,3.26,5.98.72,1.45,1.9,1.99,2.76,2.1l.13,1.82c.21,2.45.54,4.88,1.01,7.29-.5-.04-1.29-.24-1.95-1.11.93-1.81-.58-4.46-1.57-5.97-.16-.24-.31-.44-.43-.6l-3.75-4.74s.1,2.91.62,5.64l.14.71c.28,1.53,1.84,5.38,4.11,5.44.93,1.32,2.18,1.69,3.04,1.67l.4,1.78c.57,2.39,1.27,4.74,2.09,7.05-.5.04-1.31-.04-2.09-.8.65-1.93-1.25-4.33-2.45-5.67-.19-.21-.37-.39-.52-.53l-4.42-4.14s.53,2.87,1.46,5.5l.24.67c.51,1.48,2.62,5.05,4.88,4.77,1.12,1.17,2.41,1.34,3.26,1.19l.66,1.7c.92,2.28,1.97,4.5,3.13,6.66-.49.12-1.3.15-2.19-.48.35-2.01-1.88-4.09-3.27-5.24-.22-.18-.42-.33-.59-.44l-4.99-3.43s.96,2.76,2.27,5.22l.34.63c.73,1.38,3.36,4.59,5.54,3.98,1.28.99,2.58.96,3.39.69l.91,1.58c1.25,2.11,2.62,4.15,4.09,6.12-.46.19-1.27.35-2.23-.15.05-2.04-2.47-3.76-4.02-4.69-.25-.14-.46-.26-.65-.35l-5.45-2.64s1.36,2.58,3.02,4.82l.43.57c.93,1.26,4,4.04,6.07,3.11,1.41.79,2.69.57,3.46.18l1.13,1.43c1.55,1.9,3.21,3.72,4.95,5.44-.43.25-1.2.53-2.23.19-.26-2.02-3-3.36-4.67-4.04-.26-.11-.5-.19-.69-.25l-5.78-1.8s1.73,2.35,3.7,4.31l.51.5c1.1,1.11,4.55,3.39,6.46,2.17,1.51.57,2.75.16,3.45-.34l1.34,1.24c1.82,1.65,3.72,3.2,5.71,4.65-.39.31-1.11.7-2.18.52-.55-1.96-3.47-2.87-5.22-3.3-.28-.06-.52-.11-.72-.14l-5.98-.92s2.06,2.07,4.3,3.71l.58.42c1.26.93,5.01,2.68,6.71,1.19,1.58.33,2.74-.25,3.36-.85l1.5,1.03c2.04,1.36,4.16,2.61,6.33,3.75-.34.37-.99.86-2.08.83-.84-1.86-3.86-2.32-5.65-2.49-.28-.02-.54-.03-.74-.04l-6.05-.03s2.34,1.74,4.81,3.03l.64.33c1.38.73,5.35,1.91,6.81.18,1.61.1,2.67-.65,3.2-1.34l1.64.8c2.22,1.04,4.5,1.96,6.82,2.76-.28.42-.85,1-1.93,1.14-1.11-1.71-4.16-1.72-5.96-1.62-.28.02-.53.04-.73.07l-5.99.88s2.57,1.37,5.21,2.28l.68.23c1.47.52,5.58,1.09,6.77-.85,1.61-.15,2.54-1.05,2.96-1.8l1.74.54c2.35.7,4.75,1.26,7.16,1.7-.22.45-.69,1.12-1.74,1.41-1.35-1.53-4.37-1.07-6.14-.7-.28.06-.52.12-.71.18l-5.79,1.77s2.75.97,5.49,1.47l.71.12c1.54.29,5.68.24,6.56-1.85,1.57-.39,2.36-1.42,2.66-2.22,3.54.58,7.12.88,10.7.91.29,0,.52-.22.52-.5s-.23-.5-.51-.51Z"/>
        <g>
          <path class="cls-9" d="m73.1,45.03c-.2-1.77.74-3.12,2.46-3.8,2.06-.81,3.87-.14,4.52,1.51.53,1.33.11,2.63-1.16,3.4l.04.1c1.66-.28,2.92.41,3.51,1.91.79,2-.13,3.94-2.29,4.79-1.87.74-3.4.46-4.59-1.09l1.61-1.25c.7,1.04,1.42,1.29,2.4.91,1.07-.42,1.46-1.4.98-2.6-.51-1.29-1.41-1.81-3-1.18l-.86.34-.6-1.51.79-.31c1.48-.58,1.83-1.45,1.38-2.6-.41-1.04-1.23-1.35-2.18-.97-.79.31-1.23,1.05-.96,2.18l-2.04.17Z"/>
          <path class="cls-9" d="m85.77,48.24c-1.38.24-1.87.35-1.96.37-.16.03-.17.01-.2-.14l-.21-1.24c-.02-.14-.01-.16.15-.19.09-.02.59-.07,1.97-.3l.38-.06-.37-2.2c-.15-.9-.26-1.32-.27-1.41-.03-.16-.01-.18.16-.21.09-.02.63-.07,2.16-.33l2.01-.34-.36-2.09-3.22.55c-.38.87-.87,1.73-1.46,2.56-.13.2-.21.29-.29.31-.08.01-.17-.07-.37-.24-.37-.36-.69-.56-1.02-.7,1.11-1.35,1.85-2.82,2.26-4.3.12-.42.2-.83.21-1.22.58.01,1.12.04,1.57.09.2.03.31.09.33.22.02.13-.05.2-.14.33-.11.13-.2.28-.3.63l-.2.73,6.49-1.1c1.52-.26,2.05-.38,2.15-.4.16-.03.18-.01.2.14l.2,1.16c.03.16.01.18-.14.2-.09.02-.63.08-2.16.33l-2.42.41.36,2.09,1.68-.29c1.54-.26,2.05-.38,2.15-.4.14-.02.16-.01.19.15l.2,1.18c.03.16.01.18-.13.2-.09.02-.62.07-2.16.34l-1.68.29.39,2.29,3.33-.57c1.38-.24,1.87-.35,1.96-.37.16-.03.18-.01.2.13l.21,1.24c.03.16.01.18-.14.2-.09.02-.59.07-1.97.3l-3.33.57.13.77c.28,1.65.45,2.48.47,2.56.03.16.01.18-.14.2l-1.4.24c-.17.03-.19.02-.22-.14-.02-.09-.12-.92-.4-2.57l-.13-.77-4.7.8Zm4.44-2.31l-.39-2.29-2.66.45.39,2.29,2.66-.45Z"/>
          <path class="cls-9" d="m102.16,46.56c.29.71.63,1.07,1.28,1.41.52.27,1.59.45,2.98.56,2.05.16,4.47.26,6.86.21-.25.28-.42.65-.52,1.09-.14.5-.12.5-.63.49-2.06-.05-3.97-.17-5.57-.3-1.64-.13-2.95-.35-3.68-.73-.71-.36-1.23-.87-1.57-1.56-.53.45-1.01.8-1.62,1.21-.17.1-.29.2-.38.31-.05.08-.12.15-.24.14-.09,0-.17-.12-.22-.24-.19-.43-.33-.87-.51-1.46.41-.16.66-.27.98-.43.43-.24.88-.55,1.3-.9l.28-3.54-.67-.05c-.83-.07-1.05-.05-1.13-.06-.17-.01-.19-.03-.18-.21l.1-1.21c.01-.16.03-.17.21-.16.08,0,.3.06,1.12.12l.91.07c.83.07,1.08.05,1.16.06.16.01.17.03.16.19,0,.09-.08.55-.15,1.54l-.28,3.45Zm-1.38-10.72c.18-.1.23-.09.34.01.68.74,1.3,1.57,1.81,2.53.07.13.05.16-.12.28l-.91.63c-.08.06-.15.08-.2.08-.05,0-.09-.04-.13-.12-.51-1-1.08-1.88-1.76-2.63-.12-.12-.1-.17.1-.26l.87-.51Zm4.33,10.86c-1.54-.12-2.08-.13-2.18-.14-.17-.01-.19-.03-.18-.19l.08-1.02c.01-.16.03-.17.21-.16.1,0,.63.08,2.17.21l1.79.14.07-.89-1.14-.09c-1.46-.12-1.99-.13-2.1-.14-.14-.01-.16-.03-.15-.19,0-.09.07-.49.15-1.43l.17-2.13c.07-.94.07-1.34.08-1.43.01-.18.03-.19.17-.18.11,0,.63.08,2.09.2l1.14.09.07-.86-1.73-.14c-1.54-.12-2.07-.13-2.16-.14-.16-.01-.17-.03-.16-.19l.08-1c.01-.16.03-.17.19-.16.09,0,.62.08,2.16.2l1.73.14c.03-.57,0-.94-.02-1.34.59.05,1.03.11,1.56.22.16.03.25.1.24.19,0,.08-.06.17-.12.28-.09.17-.13.42-.16.77l1.97.16c1.54.12,2.08.13,2.18.14.16.01.17.03.16.19l-.08,1c-.01.16-.03.17-.19.16-.1,0-.63-.08-2.17-.21l-1.97-.16-.07.86,1.24.1c1.46.12,1.97.13,2.08.13.16.01.17.03.16.21,0,.09-.07.49-.15,1.43l-.17,2.13c-.07.94-.07,1.34-.08,1.43-.01.16-.03.17-.19.16-.11,0-.62-.08-2.08-.2l-1.24-.1-.07.89,2.05.16c1.56.12,2.1.13,2.19.14.16.01.17.03.16.19l-.08,1.02c-.01.16-.03.17-.19.16-.09,0-.63-.08-2.19-.21l-2.05-.16c-.07.83-.06,1.16-.07,1.24-.01.14-.05.17-.19.16l-1.22-.1c-.14-.01-.17-.04-.16-.19,0-.08.05-.41.13-1.24l-1.79-.14Zm2.06-3.18l.08-1-1.92-.15-.08,1,1.92.15Zm.17-2.1l.07-.92-1.92-.15-.07.92,1.92.15Zm3.41,1.38l-1.98-.16-.08,1,1.99.16.08-1Zm-1.82-2.18l-.07.92,1.99.16.07-.92-1.99-.16Z"/>
          <path class="cls-9" d="m114.57,46.75c.15-.32.26-.58.37-.95.42.23.8.45,1.07.65.16.12.21.21.19.27-.03.09-.06.13-.16.2-.07.06-.2.27-.32.51-.4.79-.89,1.76-1.45,2.53-.16.21-.23.32-.32.29-.08-.03-.15-.14-.28-.3-.15-.19-.51-.55-.69-.68.61-.68,1.15-1.52,1.58-2.52Zm1.19-1.59c-.26-.08-.47-.1-.61-.08-.11.01-.16.01-.25-.02-.11-.04-.12-.14-.1-.3.06-.42.15-.84.27-1.34.39.19.7.31,1.06.44.44-.28.86-.57,1.27-.87-.3-.98-.69-1.97-1.16-2.89-.04-.08-.04-.13-.03-.16.02-.06.08-.09.17-.16l.82-.54c.17-.11.22-.11.29.05l.24.52c.5-.4,1.02-.88,1.47-1.34.24-.25.37-.43.55-.7.38.32.76.66,1.06.98.11.12.14.22.11.31-.03.09-.11.13-.2.15-.15.03-.24.1-.41.26-.71.63-1.29,1.1-2.03,1.62l.37.96c.52-.42,1.03-.85,1.54-1.3.28-.26.51-.5.76-.8.35.31.76.66,1.05,1,.11.12.14.18.11.27-.04.11-.1.15-.25.18-.19.05-.33.16-.67.42-1.22.97-2.44,1.84-3.48,2.52.5.16,1.02.31,1.57.45,0-.35,0-.7-.04-1.04-.01-.16.03-.19.24-.2l.79-.04c.12,0,.18.01.19.17.09,1.05.07,2.04-.01,3.05l.32-.9c.14-.41.19-.63.21-.7.05-.15.1-.23.27-.18.09.03.56.23,1.93.71l3.49,1.23c1.38.49,1.87.63,1.98.67.15.05.16.07.11.22-.03.09-.13.27-.24.59l-.19.53c-.39,1.1-.42,1.29-.45,1.38-.05.15-.07.16-.22.11l-1.1-.39c-.17-.06-.16-.07-.11-.22l.48-1.37-4.88-1.73-.48,1.37c-.05.15-.07.16-.22.11l-1.08-.38c-.17-.06-.17-.08-.12-.23.03-.07.08-.19.26-.65-.05.03-.12.04-.22.04h-.83c-.24.01-.27,0-.22-.18l.08-.71c-.27-.06-.52-.11-.76-.18l-1.46,4.13c-.49,1.38-.64,1.9-.67,1.98-.05.15-.07.16-.22.11l-1.14-.4c-.15-.05-.16-.07-.11-.22.03-.09.24-.58.73-1.96l1.41-4-1.22-.33Zm6.03,3.55c.14-.39.31-.77.43-1.25.44.22.86.42,1.25.63.17.09.24.17.21.28-.04.12-.1.2-.19.29-.07.09-.21.35-.38.74-.85,1.93-1.97,3.14-4.45,3.33-.19.02-.31.02-.39,0-.12-.04-.14-.17-.21-.45-.09-.41-.22-.75-.45-1.09,2.57.1,3.54-.88,4.19-2.48Zm-2.54-1.42c.2.02.23.03.22.2-.02.62-.13,1.7-.27,2.44-.04.16-.04.21-.28.21h-.84c-.24,0-.26-.04-.22-.21.21-.97.37-1.85.39-2.5,0-.17.04-.21.24-.19l.76.05Zm4.46-2.45c-1.32-.47-1.77-.59-1.86-.62-.13-.05-.14-.07-.09-.22l.32-.92c.05-.15.07-.16.21-.11.09.03.51.22,1.84.68l.56.2.34-.98-.89-.31c-1.4-.49-1.87-.63-1.96-.66-.15-.05-.16-.07-.11-.22l.33-.95c.05-.14.07-.15.22-.09.09.03.54.23,1.94.72l.89.31.04-.11c.25-.72.42-1.27.44-1.59.55.21.98.4,1.48.64.15.07.21.17.19.24-.04.12-.12.2-.21.26-.11.11-.18.27-.37.81l-.09.26,1.35.48c1.38.49,1.87.63,1.96.66.15.05.16.07.11.21l-.33.95c-.05.15-.07.16-.22.11-.09-.03-.56-.23-1.94-.72l-1.35-.48-.34.98.93.33c1.31.46,1.77.59,1.86.62.15.05.16.07.11.22l-.32.92c-.05.15-.07.16-.22.11-.09-.03-.53-.22-1.84-.68l-2.96-1.05Zm.75,7.89c-.08.22-.1.34-.03.43.07.09.19.17.45.26.3.11.53.09.66,0,.18-.12.34-.44.74-1.53.19.24.48.51.73.7.36.26.34.27.19.66-.45,1.09-.75,1.44-1.15,1.62-.41.16-.87.15-1.93-.23-.62-.22-.97-.38-1.2-.66-.21-.26-.27-.59-.04-1.22l1.05-2.96c.24-.68.37-1.1.46-1.54.49.19.9.37,1.36.6.16.07.23.17.2.26-.05.13-.11.18-.23.31-.12.14-.18.26-.47,1.1l-.78,2.21Z"/>
        </g>
      </g>
    </g>
  </g>
</svg>