<?xml version="1.0" encoding="UTF-8"?>
<svg id="_レイヤー_2" data-name="レイヤー 2" xmlns="http://www.w3.org/2000/svg" viewBox="0 0 78.66 189.69">
  <defs>
    <style>
      .cls-1 {
        fill: #03040c;
      }

      .cls-2 {
        fill: #fff;
      }

      .cls-3 {
        fill: #edaf92;
      }

      .cls-4 {
        fill: #7e4b22;
      }

      .cls-5 {
        fill: #913a23;
      }

      .cls-6 {
        fill: #666357;
      }

      .cls-7 {
        fill: #db5439;
      }

      .cls-8 {
        fill: #d73e60;
      }

      .cls-9 {
        fill: #221714;
      }

      .cls-10 {
        fill: #0f7b3b;
      }

      .cls-11 {
        fill: #37382b;
      }
    </style>
  </defs>
  <g id="_レイヤー_1-2" data-name="レイヤー 1">
    <g>
      <g>
        <polygon class="cls-6" points="26.78 85.18 9 83.31 10.54 77.5 27.39 77.81 26.78 85.18"/>
        <path class="cls-1" d="m10.51,79.14s-2.02-.35-4.37-1.04c-2.35-.69-4.2-8.68-5.04-3.82-.84,4.86-2.35,5.73.84,6.77,3.19,1.04,8.74,1.22,8.74,1.22l-.17-3.13Z"/>
        <g>
          <rect class="cls-10" x="1.94" y="65.01" width="25.63" height="14.54"/>
          <path class="cls-2" d="m7.09,68.7c0,.41-.34.74-.77.74s-.77-.33-.77-.74.35-.73.77-.73.77.33.77.73Z"/>
          <path class="cls-2" d="m12.84,68.7c0,.41-.35.74-.77.74s-.77-.33-.77-.74.34-.73.77-.73.77.33.77.73Z"/>
          <path class="cls-2" d="m18.6,68.7c0,.41-.35.74-.77.74s-.77-.33-.77-.74.34-.73.77-.73.77.33.77.73Z"/>
          <path class="cls-2" d="m24.35,68.7c0,.41-.35.74-.77.74s-.78-.33-.78-.74.35-.73.78-.73.77.33.77.73Z"/>
          <path class="cls-2" d="m4.56,71.78c0,.4-.35.74-.77.74s-.77-.34-.77-.74.34-.74.77-.74.77.33.77.74Z"/>
          <path class="cls-2" d="m10.31,71.78c0,.4-.35.74-.77.74s-.77-.34-.77-.74.35-.74.77-.74.77.33.77.74Z"/>
          <path class="cls-2" d="m16.07,71.78c0,.4-.35.74-.77.74s-.77-.34-.77-.74.35-.74.77-.74.77.33.77.74Z"/>
          <path class="cls-2" d="m21.82,71.78c0,.4-.35.74-.77.74s-.77-.34-.77-.74.35-.74.77-.74.77.33.77.74Z"/>
          <path class="cls-2" d="m27.57,71.78c0,.4-.34.74-.77.74s-.77-.34-.77-.74.35-.74.77-.74.77.33.77.74Z"/>
          <path class="cls-2" d="m4.56,65.83c0,.41-.35.74-.77.74s-.77-.33-.77-.74.34-.73.77-.73.77.33.77.73Z"/>
          <path class="cls-2" d="m10.31,65.83c0,.41-.35.74-.77.74s-.77-.33-.77-.74.35-.73.77-.73.77.33.77.73Z"/>
          <path class="cls-2" d="m16.07,65.83c0,.41-.35.74-.77.74s-.77-.33-.77-.74.35-.73.77-.73.77.33.77.73Z"/>
          <path class="cls-2" d="m21.82,65.83c0,.41-.35.74-.77.74s-.77-.33-.77-.74.35-.73.77-.73.77.33.77.73Z"/>
          <path class="cls-2" d="m27.57,65.83c0,.41-.34.74-.77.74s-.77-.33-.77-.74.35-.73.77-.73.77.33.77.73Z"/>
          <path class="cls-2" d="m7.09,75.47c0,.41-.34.74-.77.74s-.77-.33-.77-.74.35-.74.77-.74.77.33.77.74Z"/>
          <path class="cls-2" d="m12.84,75.47c0,.41-.35.74-.77.74s-.77-.33-.77-.74.34-.74.77-.74.77.33.77.74Z"/>
          <path class="cls-2" d="m18.6,75.47c0,.41-.35.74-.77.74s-.77-.33-.77-.74.34-.74.77-.74.77.33.77.74Z"/>
          <path class="cls-2" d="m24.35,75.47c0,.41-.35.74-.77.74s-.78-.33-.78-.74.35-.74.78-.74.77.33.77.74Z"/>
          <path class="cls-2" d="m4.56,78.55c0,.4-.35.73-.77.73s-.77-.33-.77-.73.34-.74.77-.74.77.33.77.74Z"/>
          <path class="cls-2" d="m10.31,78.55c0,.4-.35.73-.77.73s-.77-.33-.77-.73.35-.74.77-.74.77.33.77.74Z"/>
          <path class="cls-2" d="m16.07,78.55c0,.4-.35.73-.77.73s-.77-.33-.77-.73.35-.74.77-.74.77.33.77.74Z"/>
          <path class="cls-2" d="m21.82,78.55c0,.4-.35.73-.77.73s-.77-.33-.77-.73.35-.74.77-.74.77.33.77.74Z"/>
          <path class="cls-2" d="m27.57,78.55c0,.4-.34.73-.77.73s-.77-.33-.77-.73.35-.74.77-.74.77.33.77.74Z"/>
          <rect class="cls-8" x="13.73" y="65.01" width="2.83" height="14.54"/>
          <path class="cls-8" d="m14.95,65.3s-.67-8.43-2.48-6.71c-1.57,1.49-.65,2.07-1.74,1.04-1.09-1.04-2.62-3.86-2.62-3.86l-.24,1.38-1.33-.58s3.14,4.71,4.35,4.71.35-2.8,1.56-1.65c1.21,1.14,2.5,5.67,2.5,5.67Z"/>
          <path class="cls-8" d="m14.92,65.14s.67-8.43,2.48-6.71c1.57,1.5.65,2.07,1.74,1.04,1.09-1.04,2.62-3.86,2.62-3.86l.24,1.38,1.33-.58s-3.14,4.71-4.35,4.71-.35-2.81-1.56-1.66c-1.2,1.15-2.49,5.67-2.49,5.67Z"/>
        </g>
        <g>
          <path class="cls-1" d="m42.53,24.06l4.33,11.22s-24.56,29.79-24.05,29.84c3.67.35,8.08-27.48,8.08-27.48l-.46-8.87,12.1-4.71Z"/>
          <path class="cls-3" d="m32.55,25.48l.64,3.4,8.08-4.03-.8-4.68-.84-13.98-10.2-3-3.42,12.36,1.1,3.06s.53,5.22,2.03,5.79c1.49.57,3.41,1.08,3.41,1.08Z"/>
          <polygon class="cls-1" points="29.38 106.13 22.81 183.75 12.17 189.69 30.19 189.55 49.94 107.16 29.38 106.13"/>
          <polygon class="cls-1" points="51.94 117.76 52.67 136.99 78.66 173.99 67.56 186.88 69.12 174.01 36.91 143.84 31.77 117.76 51.94 117.76"/>
          <polygon class="cls-6" points="27.86 48.67 22.03 65.83 17.93 143.3 58.02 140.25 50.56 38.95 44.4 27.77 27.86 48.67"/>
          <path class="cls-4" d="m34.79,11.05s1.95-.3,2.4,1.8c.33,1.55.63,3.38.63,3.38l2.39,3.15s4.04-12.07.48-15.66c-5.71-5.75-13.33-3.09-13.33-3.09l1.94,1.33-2.39,1.99,3.72.75-2.67,1.57,6.83,4.79Z"/>
          <path class="cls-1" d="m62.8,109.07s-.93,8.47,4.04,7.83c4.97-.64,1.6-9.46,1.6-9.46l-5.64,1.63Z"/>
          <path class="cls-11" d="m28.01,51.99l.44-.44c.06.06.07.13.06.16.16-.77,5.57-5.69,10.58-9.92l.1-.09.21-3.94,3.89.45.07-.61-4.55-.52-.23,4.32c-.51.44-2.88,2.45-5.23,4.56-5.43,4.87-5.45,5.44-5.46,5.71,0,.12.04.23.12.31Z"/>
          <path class="cls-6" d="m50.56,38.95s10.69,35.53,17.88,68.49l-5.64,1.63-23.31-55.02s3.09-16.42,11.07-15.11Z"/>
          <path class="cls-11" d="m52.3,85.81l.57-.25c-.12-.27-11.74-27.03-12.81-36.65-.31-2.82.21-4.82,1.56-5.94,2.24-1.85,6.05-.7,6.09-.69l.18-.59c-.17-.05-4.17-1.26-6.66.8-1.52,1.26-2.12,3.44-1.78,6.48,1.08,9.72,12.74,36.56,12.86,36.83Z"/>
          <polygon class="cls-11" points="49.56 101.67 50.95 97.5 50.37 97.3 49.13 101.01 32.28 99.1 32.9 93.82 32.28 93.75 31.59 99.64 49.56 101.67"/>
        </g>
      </g>
      <path class="cls-5" d="m30.75,9.9s.07,0,.11-.03c.12-.06.16-.2.1-.32-.52-1.02-1.13-1.59-1.81-1.71-.78-.13-1.33.4-1.36.42-.09.09-.09.24,0,.33.09.09.24.1.33,0,0,0,.42-.39.95-.29.51.09,1.02.59,1.46,1.45.04.08.12.13.21.13Z"/>
      <path class="cls-9" d="m29.12,10.47c.05.33-.08.63-.29.67-.21.04-.43-.19-.48-.52-.05-.33.08-.63.29-.67.21-.04.43.19.48.52Z"/>
      <path class="cls-7" d="m27.9,19.85c.73,0,1.67-.34,2.34-1.58.07-.13.02-.3-.11-.37-.13-.07-.3-.02-.37.11-.94,1.75-2.36,1.21-2.42,1.19-.14-.06-.3.01-.36.15-.06.14.01.3.15.36.2.08.47.14.78.14Z"/>
    </g>
  </g>
</svg>