<?xml version="1.0" encoding="UTF-8"?><svg id="_レイヤー_2" xmlns="http://www.w3.org/2000/svg" viewBox="0 0 696.27 44.78"><defs><style>.cls-1{fill:none;stroke:#231815;stroke-miterlimit:10;stroke-width:1.03px;}.cls-2,.cls-3{stroke-width:0px;}.cls-3{fill:#fff;}</style></defs><g id="_レイヤー_1-2"><path class="cls-3" d="m25.27,17.1h-8.27c-1.86,2.18-4.09,4.32-5.5,5.59l.77.36h5.55l1.18-1.55c.14-.18.41-.45.64-.45.27,0,.54.18.77.36l2.5,1.68c.32.23.64.5.64.91,0,.59-.64.91-1.59,1.5-.05,1.14-.09,2.41-.09,4.86,0,.73,0,4.27.23,7.41,0,.32.05,1,.05,1.23,0,2.05-2.55,2.05-2.82,2.05-1.14,0-1.14-.5-1.05-2.23h-6.59c.05,1.27.05,1.73-.27,2.05-.64.68-1.86.91-2.5.91-.91,0-1.23-.41-1.23-1.05,0-.36.27-3.09.32-3.68.23-4.73.27-9.64.23-11.64-3.14,2.55-6,4.23-7.91,5.32l-.32-.36c2.32-1.86,5.04-4.18,8.18-7.36-.04-1.09-.09-1.41-.18-2.09l1.45.73c2.18-2.36,3.23-3.64,3.96-4.55h-6.05c-2.77,0-3.77.09-4.91.27l-.73-1.64c2.77.23,5.95.27,6.45.27h2.46v-6.73h-1.64c-2.77,0-3.77.09-4.91.32l-.73-1.68c2.73.23,5.96.27,6.46.27h.82c0-3.77-.05-5.41-.68-7.27l5.09,1.55c.18.05.59.18.59.59,0,.45-.14.55-1.55,1.32,0,.14-.04,2.55-.09,3.82h.59l1.23-1.82c.23-.32.41-.55.68-.55.36,0,.68.36.82.5l1.55,1.77c.18.18.27.32.36.5,1.86-3.27,1.95-3.68,2.32-5.5l3.86,2.86c.27.23.46.45.46.77,0,.5-.36.64-1.59.73-3.05,4.41-5.09,7-6.36,8.55h1.91l1.73-2.23c.18-.23.36-.55.68-.55s.59.23.86.45l2.41,2.18c.32.27.46.5.46.73,0,.41-.36.5-.68.5Zm-6.95,7.05h-6.68v6.18h6.68v-6.18Zm0,7.27h-6.68v6.32h6.68v-6.32Zm.27-22.14h-4.59c-.09,3.59-.14,4.86-.09,6.73h.36c2.23-2.91,3.59-5.05,4.59-6.73h-.27Zm19.86,27.36c-1.32.68-2.59.86-3.64,1-.23-2.64-1.05-3.77-3.14-5.41l.09-.18c1.77.45,3.68.64,4.18.64,2.46,0,2.46-2.41,2.46-2.77,0-1.27-.23-6.82-6.59-11.91,2.23-5.05,4.05-10.09,4.59-12.46h-5.73c-.09,3-.09,6.91-.09,10,0,12.77.09,18.64.32,23.59.04.64.04,1.09.04,1.18,0,1.82-1.86,2.23-2.82,2.23-.86,0-1.45-.23-1.45-1.41,0-.41.18-2.14.18-2.5.18-7.95.41-24,.41-25.41,0-3.32,0-7.46-.82-10.82l4.46,2.05h5.45l1.23-1.05c.18-.18.41-.41.64-.41s.45.27.68.5l2.86,2.82c.27.23.46.59.46.86,0,.5-.55.82-2.14,1.18-.77,1.05-5.59,7.5-7.27,9.41,6.5,3.23,9.55,7.86,9.55,12.09,0,3.09-1.73,5.59-3.91,6.77Z"/><path class="cls-3" d="m57.36,18.55c.91,1.68.91,3.32.91,3.95,0,7.86-3.05,10-5.23,10-1.09,0-2.32-1-2.32-2.32,0-1.05.36-1.41,1.68-2.73,2.41-2.41,4.41-5.36,4.64-8.77l.32-.14Zm10.68-7.36c.14.05.95.27.95.77,0,.55-1,1-1.5,1.18,0,2.95-.23,16.05-.23,18.68,0,.82,0,4.36.32,4.82.46.73,2.36.73,3.05.73,5.41,0,6.05-.36,6.5-1.36.55-1.18,1.55-5.45,1.77-6.82h.23c.27.95,1.05,5.09,1.46,5.86.09.14.54.95,1,1.27,1.04.73,1.14.77,1.14,1.27,0,.36-.36,1.91-2.36,2.68-2.32.91-4.5.91-7,.91-7.23,0-8.23,0-9.14-1.45-.77-1.23-.82-2.23-.82-8.59V14.69c0-3.05-.41-4-.73-4.86l5.36,1.36Zm-.27-9.91c8.91,1.82,8.91,7.23,8.91,7.55,0,.77-.55,2.59-2.32,2.59-1.5,0-1.82-.82-2.77-3.09-1.95-4.68-2.82-5.68-3.91-6.86l.09-.18Zm12.91,15.96c4.04,1.09,11.27,5.95,11.27,10.73,0,1.05-.73,2.82-2.36,2.82-1.41,0-2.32-1.32-3-3.5-1.41-4.36-4.36-8.36-6.05-9.77l.14-.27Z"/><path class="cls-3" d="m106.17,21.83c-2.77,0-3.77.14-4.91.32l-.73-1.68c1.77.18,4.46.27,6.32.27l1.5-1.59c.18-.18.36-.36.64-.36.23,0,.41.14.68.32l2.59,1.91c.14.09.32.27.32.5,0,.41-.32.64-.77.91-.27.18-.59.41-.91.64,0,1.14-.09,6.23-.09,7.27,0,6.36,5.82,7.14,12.32,7.14.18,0,11.59-.09,17.86-1.64v.32c-1.41,1.5-2.18,3-2.5,5.05-1.09,0-4.5.09-6.82.09-16.77,0-19.36-3-21.46-7.41-1.09,1.27-3.55,4.27-5.32,6.41,0,.82,0,1.36-.55,1.36-.36,0-.64-.32-.91-.64l-3.27-4.09c1.27-.05,3.32-.09,7.04-2.23v-12.86h-1.04Zm-3.32-19.36c4.64,1,8.32,3.14,8.32,6.18,0,1.64-1.41,2.36-2.23,2.36-1.59,0-2-1.09-3-3.86-.5-1.45-1.18-2.64-3.09-4.32v-.36Zm29.91,12.91l2.68-2.91c.5-.5.55-.55.73-.55.27,0,.68.36.82.5l3.32,2.86c.27.23.45.36.45.68,0,.41-.36.5-.68.5h-9.23c.04,1.64.18,10.55.23,11.55.04.91.27,5.59.27,5.82,0,2.09-1.86,2.45-2.59,2.45-.55,0-1.64-.27-1.64-1.64,0-1.59.18-4.09.18-5.68v-12.5h-7c-.27,13.46-7.09,16.73-8.32,17.27l-.14-.14c4.96-4.68,4.96-16.36,4.96-18.32,0-4.77-.55-9.73-.91-11.23l4.36,1.86c7.86-1.91,9.46-2.86,12.05-4.68l3.64,3.27c.27.27.36.5.36.68,0,.32-.27.5-.64.5-.23,0-1.27-.14-1.5-.14-.59,0-3.36.45-3.91.5-2.77.32-5.59.55-9.91.68,0,1.59-.05,7.96-.05,8.64h12.46Z"/><path class="cls-3" d="m164.67,11.42h-4.55l-.04,9c1.18-.41,3.32-1.09,3.55-1.18l.23.27c-.18.14-2.5,1.73-3.73,2.59,0,3,.14,12.64.14,14.77,0,2.73-.5,4.23-4.86,5.32-.77-2-.91-2.32-2-3.32-1.18-1.05-2.23-1.64-3.23-2.23v-.27c2.91.41,4.45.59,5.14.59,1.18,0,1.5-.09,1.5-1.36v-11.32c-.41.23-4.59,2.82-4.73,2.95-.18.41-.46,1.14-.96,1.14-.23,0-.32-.23-.41-.36l-2.68-4.82c1.77.14,2.64.23,8.77-1.68v-10.09h-1.91c-2.77,0-3.77.09-4.91.32l-.73-1.68c2.77.23,5.95.27,6.45.27h1.09v-4.64c0-2-.68-4.05-1-5l5.32,1.5c.23.05.5.23.5.59,0,.23-.09.41-.23.55-.18.23-1.09.91-1.23,1.09-.05.45-.05,3.95-.05,5.91h.09l1-1.86c.14-.18.32-.59.68-.59.27,0,.68.36.86.5l2.14,1.86c.27.23.45.41.45.68,0,.41-.36.5-.68.5Zm24.64,14.77h-9.54l2.68,1.18c.27.14.5.36.5.64,0,.41-.45.64-1.09.91-.59,1.27-1.32,2.73-3,4.82,4.41,1.59,8.5,4.5,8.5,6.45,0,1.45-1.05,2.05-1.86,2.05s-1.91-.77-2.5-1.32c-3.86-3.59-4.32-4-6.09-5.14-6.36,5.86-13.95,5.91-16.32,5.95v-.32c7.27-1.36,11.27-5.32,13.27-7.32-.68-.32-1.73-.82-4.09-1.68-1.04,1.77-1.27,2.14-2.36,2.14-.86,0-2.32-.41-2.32-1.27,0-.32.14-.59.27-.86.46-.86,2.91-5.18,3.41-6.23h-2.14c-3.18,0-4.05.18-4.91.32l-.77-1.68c2.18.18,4.32.27,6.5.27h1.86c1.14-2.41,2.36-5.55,2.5-6.64h-4.82c-3.18,0-4.05.14-4.91.27l-.77-1.64c2.18.18,4.32.27,6.5.27h8.59c.5-.95,2.32-5.14,2.82-7.36.05-.32.18-1.18.09-2.41l4.86,2.59c.27.18.32.55.32.59,0,.68-.68.82-1.77,1.05-.77.77-4.36,4.68-5.18,5.55h5.77l1.46-2.32c.18-.32.36-.59.68-.59s.59.32.82.5l2.82,2.32c.18.18.45.41.45.68,0,.45-.45.5-.73.5h-16.23l3.5,1.64c.18.09.41.23.41.55,0,.27-.14.5-1.59,1.09-.41.68-.54.91-1.68,3.36h10.36l1.59-2.27c.18-.27.36-.55.68-.55s.5.23.82.45l2.86,2.27c.18.14.45.41.45.68,0,.5-.41.5-.68.5Zm-1.73-18.73h-17.73c-2.77,0-3.77.09-4.91.32l-.77-1.68c2.77.23,6,.27,6.5.27h2.18c.04-.86.09-3.5-.68-5.73l5.27,1.55c.09.05.55.14.55.64,0,.77-1.05,1.05-1.27,1.14v2.41h5.41l1.5-2c.18-.27.41-.59.68-.59.32,0,.55.23.86.5l2.64,2c.18.14.46.41.46.68,0,.45-.41.5-.68.5Zm-16.32,9.27c-1.18,0-1.23-.09-2.5-4.41-.45-1.45-.64-2-1.59-3.45l.09-.23c1.41.59,6.09,2.55,6.09,5.91,0,1.36-1.09,2.18-2.09,2.18Zm1.46,9.46c-.59,1.32-1.55,3.59-2.59,5.59,2.77.36,4.23.68,5,.86.73-.91,3-3.77,3.32-6.45h-5.73Z"/><path class="cls-3" d="m265.25,9.33c.23.14.36.36.36.64,0,.73-.23.77-2.14,1.27-2,2.77-4.23,5.64-7.36,9.18.27-.05,3.27-.14,4.82-.23-.73-1.59-.95-1.82-1.45-2.5l.23-.36c2.55,1.23,5.86,2.77,5.86,5.82,0,.95-.5,2.18-1.91,2.18-1.14,0-1.55-.77-1.86-2.09-.09-.32-.41-1.77-.5-2.09-.59.18-1.27.36-2.18.64.05,2.59.18,14.32.18,16.09,0,2.23,0,3.91-2.36,3.91-1.32,0-1.36-.77-1.36-1.55.18-8.09.23-8.77.23-13.14-.23.32-.64.59-.95.82-.77,1.95-3.27,8.5-6.41,11.73l-.32-.18c3-8.68,3-11.23,3-12.32,0-.77-.05-1.59-.14-2.27l4.23,1.45c.23.09.46.18.59.36l.05-3.96c-1.68.5-4,1.09-5.41,1.45-.18.18-.55.59-.82.59-.32,0-.41-.32-.5-.64l-1.32-4.32c2.18.59,2.73.68,6.91.59,2.73-4.23,5.41-9.46,6.05-13.64l4.5,2.55Zm-16.14-.45c2.18.32,3.86.73,5.23,1.27,1.77-4.55,2-5.14,2.5-8.82l4.55,2.27c.27.14.41.27.41.55,0,.45-.46.73-1.59,1.05-1.04,1.23-1.32,1.59-4.82,5.5.55.41,1.77,1.27,1.77,3.14,0,1.23-.73,2.36-2.09,2.36-1.18,0-1.55-.82-2.09-2.09-1-2.27-1.77-2.91-4.04-4.86l.18-.36Zm10.64,16.14c3.91,2.14,5.36,2.95,5.36,5.18,0,1.64-1.14,2.36-2,2.36-1.5,0-1.68-1.18-2.05-3.36-.18-1.27-.86-2.86-1.68-3.91l.36-.27Zm6.27,5.09c.55,2.23.77,3.27.77,4.64,0,4.05-2.55,5.36-3.59,5.36-.73,0-1.73-.64-1.73-1.86,0-.73.04-.77,1.45-2.5.46-.59,2.73-3.36,2.82-5.68l.27.05Zm7.27-24.82c.23.14.36.32.36.64,0,.5-.14.59-1.41,1.18-2.5,4-4.23,6.36-8.95,9.95l-.23-.23c4.77-7.5,5.82-12.59,5.91-13.68l4.32,2.14Zm2.5,11.09c3.46,1.18,7.32,2.45,7.32,5.91,0,1.18-.86,1.96-1.86,1.96-1.09,0-1.23-.27-3.09-3.91-4,1.45-6.82,2.32-9.86,3.14-.09.32-.32,1.18-.96,1.18-.32,0-.59-.32-.68-.59l-1.32-4.59c1.23.45,2.09.55,4.14.5,2.14-5.09,2.55-9.09,2.59-9.23l4.27,1.5c.23.09.36.27.36.5,0,.36-.59.64-1.23.91-1.91,2.73-2.18,3.05-4.73,6.27.41,0,6-.32,7-.36-.27-.5-1.82-2.5-2.09-2.95l.14-.23Zm-2.68,10c.18.05.59.23.59.68,0,.68-.5,1-1.09,1.36v7.5c0,1.95.5,1.95,3.05,1.95,1.41,0,2.09-.23,2.5-1.41.55-1.45.91-2.86,1.09-4.36h.27c.14.86.77,4.23,1.95,5,.77.5.86.55.86.91,0,.41-.32,1.86-2.14,2.59-1.23.5-4.32.5-6.05.5-4.45,0-4.91-1.68-4.91-5.18,0-.91.09-5.09.09-5.96,0-2.14-.09-3.14-.27-4.5l4.05.91Zm.55-1.55c2.09.5,3.41,1,4.45,1.95.91.91,1.59,2.14,1.59,3.05,0,.55-.55,2.09-2,2.09-1.18,0-1.41-.55-2.32-3.36-.5-1.5-1.23-2.77-1.91-3.45l.18-.27Zm3.09-20.09c-.18,0-1.09,0-2.09.09l-.73-1.36c.95.09,1.09.09,2.68.14l1.59-1.45c.14-.14.36-.36.54-.36s.59.32.73.45l1.59,1.5c.18.18.36.36.36.59,0,.64-1.64,1.36-2.5,1.77,2.5,4.82,6.5,7.73,11.55,8.45v.27c-1.96.64-3.5,1.5-4.77,3.55-2.73-1.64-6.59-5.32-8.09-13.64h-.86Zm5.23,24.14c3.59,1.91,6.91,3.64,6.91,7.09,0,1.91-1.09,2.55-2.09,2.55-1.54,0-1.73-.95-2.32-3.55-.5-2.36-1.68-4.18-2.73-5.82l.23-.27Z"/><path class="cls-3" d="m308.02,31.65c-.95,3.32-2.77,7.55-11.23,10.14l-.27-.45c5.55-2.95,7.68-6.46,8.73-13.55h-3.68c-3.14,0-4,.18-4.91.32l-.73-1.68c2.14.18,4.32.27,6.45.27h4.73c0-1.36-.14-2.68-.59-4.32l4.05.95c.36.09,1,.27,1,.73,0,.32-.5.68-1,1.05v1.59h4.91l1.45-1.68c.14-.14.41-.59.68-.59s.64.27.91.55l1.86,1.64c.23.23.45.41.45.68,0,.5-.45.5-.68.5h-12.96l1.73.45c.32.09.73.27.73.64,0,.27-.09.32-1.09.86-.14.5-.14.55-.23.82h4.23l1.32-1.18c.09-.05.32-.32.41-.32s.32.14.64.36l2.23,1.59c.18.14.55.41.55.68,0,.23-1.32,1.41-1.46,1.55-.18.59-.91,3.59-1.09,4.23-1.41,4.27-2.82,4.91-6.09,5.14-.14-.68-.68-3.23-2.91-4.59l.09-.36c1.23.41,3.73.73,3.95.73.91,0,1.18-.73,1.77-2.59.86-2.73.91-3.55.91-4.14h-4.86Zm-5.64-23.23c-2.77,0-3.77.14-4.91.32l-.73-1.68c2.77.27,5.96.27,6.46.27h3.86c0-4.41-.09-5.18-.73-6.86l4.95,1.45c.73.23.77.23.91.41v-.27c1.5.05,5.68.23,5.68,2.82,0,1-.82,1.82-1.73,1.82s-1.23-.59-2.09-2.27c-.18-.32-.73-1.36-1.77-2-.09.55-.64.86-1.64,1.55v3.36h6.41l.86-1.36c.14-.18.41-.55.68-.55s.64.23.86.45l1.59,1.36c.23.23.45.41.45.73,0,.41-.41.45-.73.45h-10.14v2.77h4.27l1.27-1c.23-.18.45-.41.64-.41s.55.32.68.41l1.59,1.23c.23.18.59.45.59.68s-1.09,1.32-1.23,1.45c0,3.82,0,5.18.04,6.73,3.05-5.5,5.59-14.73,5.59-17.64,0-.68-.09-1.32-.18-2l4.82,2.36c.64.32.77.68.77.91,0,.32-.27.59-1.27.86-.59,1.23-3.09,7.32-3.41,8h6.5l1.45-2.23c.23-.36.41-.64.73-.64s.73.41.91.59l2.14,2.18c.36.36.46.45.46.68,0,.45-.36.5-.68.5h-5.41l2.86,1.45c.27.14.64.36.64.82s-.86.68-1.5.82c-.46,2.09-1.77,8.32-4.59,13.68,1.64,2.23,5.32,6,10.68,7.55v.27c-2.18.73-3.46,1.91-4.86,3.36-1.73-1.36-4.59-3.64-7.73-7.96-2.23,2.95-5.27,5.96-12.64,7.86l-.18-.41c4.36-2,8.95-6.64,11.14-10.64-1.59-4.73-1.91-10.46-1.91-12.32,0-1.09.09-1.82.14-2.36-1.86,2.55-3.41,3.95-4.41,4.86.05,1.77.05,1.95-.09,2.27-.18.41-.82,1.09-2.05,1.09-1.5,0-1.45-.68-1.45-2.36h-12.14c0,.59.04,2.82-2.32,2.82-1.32,0-1.5-1-1.5-1.55s.23-2.91.27-3.41c.09-1.95.09-3.5.09-4.59,0-1.68,0-4.32-.32-5.68l4,1.73h4v-2.77h-4.68Zm.41,3.86v3.64h4.27v-3.64h-4.27Zm0,4.73v3.77h4.27v-3.77h-4.27Zm12.23-1.09v-3.64h-4.36v3.64h4.36Zm0,4.86v-3.77h-4.36v3.77h4.36Zm9.27-6.91s-.32.55-.46.82c0,4.41,1.23,9.23,2.5,12.32,2.73-7.14,2.82-10.77,2.82-13.14h-4.86Z"/><path class="cls-3" d="m350.2,37.15c-.27.59-.64,1.55-1.27,1.55-.32,0-.59-.27-.82-.64l-2.68-4.59c.59.09,1,.14,1.54.14.64,0,1.27,0,6-1.18.09-8.77.09-9.73.14-15.09h-1.14c-2.77,0-3.77.14-4.91.32l-.77-1.68c2.64.23,5.59.27,6.82.27.05-9.59-.09-10.68-.5-13.5l4.91,1.64c.32.09.68.32.68.73,0,.73-.91,1.27-1.5,1.59-.09,2-.09,6.36-.09,9.55l1.68-1.77c.5-.5.55-.59.73-.59.32,0,.68.36.82.5l1.77,1.77c.36.36.41.45.41.73,0,.41-.41.45-.68.45h-4.77c0,5.86,0,6.68.05,14.09,3.14-.91,4.05-1.23,5.23-1.68l.18.41c-2.64,2.05-9.18,5.77-11.82,7Zm31.82,3.59c-1.36.27-8.18.27-10.09.27-7.77,0-9.59-.64-9.59-6,0-1.95.14-11.46.14-13.59-2.36,1.09-3.09,1.55-4.05,2.18l-1.36-1.18c1.64-.59,2.73-1.05,5.41-2.23-.05-1.41-.14-8.36-.14-9.91-.05-1.86-.18-2.64-.32-3.64l4.46,1.5c.73.23.86.45.86.73,0,.68-.86,1.14-1.45,1.41-.05,1.95-.14,4.32-.14,8.41l4.36-2.05c.05-3.64.14-11.86-.41-14.91l4.5,1.55c.54.18.86.32.86.68,0,.55-.18.64-1.45,1.55-.09,2.59-.18,7.18-.14,9.59l3.55-1.64,1.27-2.09c.5-.82.68-.95.91-.95s.54.14,1.14.55l2.27,1.5c.32.18.54.41.54.77,0,.68-.68,1.32-1.09,1.73.23,12.32.09,16.82-5.91,18.09-.18-1.77-1.41-3.5-2.5-4.41.05.55.09,3.23.09,3.59,0,2-1.86,2.45-2.59,2.45-.82,0-1.32-.27-1.32-1.59,0-.09.05-.55.05-1.23.09-2.14.14-4.77.23-14l-4.36,2.05c0,2,.05,11.95.05,14.18,0,1.27,0,2.77,1.32,3.18.64.23,6.5.23,7.68.23,6,0,6.68,0,8.46-7.14l.27.05c.04.18.27,4.18,1.32,5.68.14.23,1.14,1.14,1.14,1.41,0,.95-1.41,2.73-3.95,3.23Zm-3.73-26.64l-4.82,2.23c.04,3.23.14,9.68.18,12,1.23-.05,2.96-.09,3.59-.45,1.14-.68,1.14-5.05,1.14-6.64,0-.05-.05-5.36-.09-7.14Z"/><path class="cls-3" d="m410.15,12.96c1.45-2.91,2.45-6.73,2.68-7.59h-12.27c-3.14,0-4.04.14-4.91.27l-.73-1.64c2.14.18,4.32.27,6.46.27h27.41l2.14-2.18c.18-.18.59-.64.82-.64s.46.23.82.5l2.82,2.23c.18.14.45.36.45.68,0,.45-.45.5-.68.5h-17.32c-1.27,1.91-4.77,6.23-6.14,7.59h15.96l1.5-1.45c.36-.36.5-.55.77-.55.32,0,.59.18.91.45l2.41,2.05c.18.14.36.41.36.64,0,.45-.64.82-1.77,1.41-.05,3.77,0,12.32.14,18.5,0,.77.18,4.5.18,5.32,0,2.23-1.95,2.5-2.77,2.5-1.59,0-1.59-1.5-1.46-3.36h-24.82c.09,1.82,0,1.95-.14,2.23-.14.32-.91,1.36-2.59,1.36-.73,0-1.59-.23-1.59-1.68,0-.27.14-1.77.14-2.09.09-1.77.36-19.59.36-21.77,0-1.23-.14-3.59-.73-6.14l5.36,2.59h6.23Zm-7.05,1.09v23.32h5.23V14.05h-5.23Zm15.14,6.91v-6.91h-6.18v6.91h6.18Zm0,8v-6.91h-6.18v6.91h6.18Zm0,8.41v-7.32h-6.18v7.32h6.18Zm9.73,0V14.05h-5.96v23.32h5.96Z"/><path class="cls-3" d="m442.38,32.65c3.68-5,7.18-13.68,8.18-17.68h-1.54c-2.77,0-3.77.09-4.91.32l-.73-1.68c2.14.18,4.32.27,6.45.27h.95c0-1-.05-3.77-.18-6.91-3.5.73-5.68.68-7.23.64v-.36c5.5-1.73,8.95-3.41,11.18-4.73,1.36-.77,1.59-1.23,1.91-1.91l3.41,2.86c.18.18.36.5.36.73,0,.27-.14.55-1.05.55-.36,0-.73-.05-1.09-.09-1.77.73-2.73,1.05-4,1.45.09.77.09,4.36.09,7.77h.09l1.05-1.91c.14-.27.36-.64.68-.64s.64.32.86.55l2.23,1.91c.23.18.5.41.5.68,0,.41-.41.5-.73.5h-4.64l.05,3.73c2.14,1,5.91,3.09,5.91,5.86,0,1.59-1.09,2.14-1.91,2.14-1.36,0-1.59-.77-2.41-3.46-.68-2.14-1.09-3.09-1.59-3.82.05,7.09.09,9.95.41,17.09.09,2.18.09,3.36.09,3.41,0,.86,0,2.82-2.5,2.82-1.59,0-1.68-.95-1.68-2.09,0-1.27.32-7,.36-8.14.05-3.27.05-6.5-.04-9.73-1.96,4.05-4.73,7.41-8.32,10.05l-.23-.18Zm33.05-12.82l1.27-1.36c.23-.27.45-.45.77-.45.27,0,.55.23.73.41l1.95,1.77c.23.18.46.5.46.82,0,.41-.23.64-1.14,1.14-.05,1.77.36,9.64.36,11.23,0,2.36-2.14,2.36-2.5,2.36-.18,0-1.41,0-1.41-1,0-.18.05-.82.05-.95h-10.05c0,.18.05,1,.05,1.18l.14-.18,3.55,2.55c.23.18.45.45.45.77,0,.68-1.04.68-1.91.68-5.32,2.73-9.27,3.09-11.45,3.23v-.23c4.95-2.41,7.68-5,8.18-5.55-.27.09-.59.18-1.23.18-1.27,0-1.59-.36-1.59-1.36,0-1.45.18-8,.18-9.32,0-3.68-.09-4.32-.64-7.64l4.14,1.73h9.64Zm.95-14.18l1.18-2.05c.14-.27.36-.59.68-.59s.5.18.91.5l2.59,2.05c.23.18.46.41.46.73,0,.41-.41.45-.68.45h-9.32v3.73h2.91l1.05-1.82c.18-.32.36-.59.68-.59s.55.23.86.5l2.32,1.82c.23.18.45.36.45.73,0,.41-.36.45-.68.45h-7.59v4.09h6.68l1.55-2.18c.18-.27.41-.59.73-.59s.5.18.82.5l2.32,2.18c.23.23.45.41.45.73,0,.41-.36.45-.68.45h-19.5c-2.82,0-3.77.14-4.91.32l-.77-1.68c2.14.18,4.32.27,6.5.27h3.14v-4.09h-1.36c-2.77,0-3.77.14-4.91.32l-.73-1.68c2.73.27,5.73.27,7,.27,0-.09-.09-3.41-.14-3.73h-3.32c-2.77,0-3.77.14-4.91.32l-.73-1.68c2.14.23,4.32.27,6.45.27h2.5c-.09-2.09-.32-2.91-.95-4.86l5.23,1.55c.41.14.64.36.64.68,0,.68-.77,1-1.14,1.18q.05.55.05,1.45h4.18Zm-10.5,15.27v3.05h10.09v-3.05h-10.09Zm0,4.14v3.09h10.09v-3.09h-10.09Zm0,4.18v3.45h10.09v-3.45h-10.09Zm7,6.23c5.64.32,10.41,2.68,10.41,5.32,0,1.09-.96,2-2.14,2-1.32,0-2.54-1.41-3.23-2.23-1.09-1.32-2.14-2.59-5.05-4.86v-.23Z"/><path class="cls-3" d="m504.33,17.87c4,0,7.91,3.77,7.91,10.27,0,7.59-5.32,11.73-9.68,11.73-4.59,0-10.59-4.5-10.59-15.64,0-9,4.36-19.23,12.55-19.23,3.54,0,6.41,1.95,6.41,4.64,0,1.64-1.09,2.77-2.64,2.77-1.45,0-2.86-1.09-2.86-2.82,0-.23.18-1.32.18-1.55,0-1.18-1.14-1.5-1.96-1.5-1.68,0-5.86,1.82-6.68,15.27,2.68-3,5.5-3.96,7.36-3.96Zm-1.73,20.41c3.64,0,4.77-5.64,4.77-9.59,0-4.64-1.59-8.55-4.59-8.55-.41,0-3.23,0-5.86,3.55.14,4.73.41,14.59,5.68,14.59Z"/><path class="cls-3" d="m518.69,44.01c2.41-2.09,2.5-3.23,2.5-3.55,0-.45-.32-.55-.5-.64-.77-.27-2.27-.86-2.27-2.86,0-1.59,1.27-2.91,2.91-2.91,1.41,0,2.91,1.09,2.91,3,0,1.23-.64,4.36-4.77,7.73l-.77-.77Z"/><path class="cls-3" d="m530.37,37.78c2.5-4.91,3.32-6.41,7.36-11.23,5.82-7,7.82-9.41,7.82-14,0-2.05-1.05-6.14-5.32-6.14-2.23,0-4.77,1.14-4.77,3.5,0,.73.18.95.86,1.91.27.36.73,1.14.73,2.09,0,1.41-1.05,2.82-2.68,2.82-1.77,0-3-1.55-3-3.32,0-3.23,3.18-8.41,9.59-8.41,5.77,0,9.5,3.95,9.5,8.64,0,4.95-3.18,7.59-8.45,11.91-2.27,1.91-5.86,4.86-8.36,9.27h8.64c4.5,0,6.32-2.95,7.36-5.59l1,.36-2.23,9.41h-18.05v-1.23Z"/><path class="cls-3" d="m577.1,22.42c0,9.91-4.18,17.46-10.23,17.46s-10.23-7.77-10.23-17.46,4.23-17.41,10.23-17.41,10.23,7.73,10.23,17.41Zm-15.41,0c0,6.05.46,16,5.18,16s5.18-9.64,5.18-16c0-5.96-.45-15.96-5.18-15.96s-5.18,9.68-5.18,15.96Z"/><path class="cls-3" d="m603.46,22.42c0,9.91-4.18,17.46-10.23,17.46s-10.23-7.77-10.23-17.46,4.23-17.41,10.23-17.41,10.23,7.73,10.23,17.41Zm-15.41,0c0,6.05.45,16,5.18,16s5.18-9.64,5.18-16c0-5.96-.45-15.96-5.18-15.96s-5.18,9.68-5.18,15.96Z"/><path class="cls-3" d="m610.32,18.65l6.91-2v3.95c3.05-3.09,5.46-3.95,7.41-3.95s4.68,1,5.68,4.27c1.09-1.18,3.91-4.27,7.45-4.27,2.41,0,5.86,1.77,5.86,6.14v12.64c0,1.41.82,2.14,1.64,2.14h1.5v1.45h-9.86v-1.45h1.18c1,0,1.96-1,1.96-2.27v-11.64c0-2.77-1.86-4.5-3.91-4.5-2.23,0-4.41,1.77-5.73,3.73v12.55c0,1.14.77,2.14,1.77,2.14h1.36v1.45h-9.82v-1.45h1.18c1.18,0,1.91-1.27,1.91-2.27v-11.64c0-2.73-1.5-4.64-3.64-4.64-1.32,0-3.36.55-5.96,3.36v13.18c0,1,.68,2,1.96,2h1.18v1.45h-9.86v-1.45h1.46c1,0,1.68-.86,1.68-2v-13.82c0-1.09-.36-2.36-1.64-2.36-.14,0-.73,0-1.45.18l-.23-.91Zm36.77-4.32h-6.59v-.64c.59-.91.82-1.18,2.77-3.41,1.18-1.36,2.09-2.41,2.09-4,0-1.18-.64-1.77-1.46-1.77s-1.18.59-1.18,1.23c0,.32.27.91.27,1.27,0,.86-.86,1.32-1.45,1.32-.73,0-1.41-.59-1.41-1.41,0-1.18,1.27-3.27,4.09-3.27,2.27,0,3.55,1.32,3.55,2.91s-.82,2.36-3.14,4.18c-.46.36-1.27,1.09-1.73,1.64h2.64c1.04,0,1.64-.18,1.95-.86l.45.23-.86,2.59Z"/><path class="cls-3" d="m693.54,40.83c-1.36.14-3.23.27-7.41.27-11.64,0-13.91-.64-17-2.36-1.41-.77-5.18-3-7.64-8.27-1.59,6.14-4,9.14-7.18,11.41l-.32-.18c3.59-5.27,4.91-12.41,4.91-16.64,0-1.86-.23-3.18-.5-4.91l4.27.95c.36.09.86.36.86.86,0,.41-.14.45-.95.95-.09,2.32-.27,3.59-.64,5.55.95,2.23,1.82,3.27,2.23,3.77.09-8.5.09-11.77-.14-14.41h-3.27c-2.77,0-3.77.14-4.91.32l-.73-1.68c2.73.27,4.86.27,6.45.27h2.64v-7h-1.68c-2.77,0-3.77.14-4.91.32l-.73-1.68c2.73.27,5.96.27,6.46.27h.86c-.09-4.27-.09-5.18-.96-8.05l4.86,1.36c.59.18.68.32.68.59,0,.36-.09.45-1.04,1.45v4.64h1.5l1.27-1.95c.14-.23.45-.59.68-.59.27,0,.64.32.91.5l2.45,1.95c.23.18.45.41.45.73,0,.41-.41.45-.68.45h-6.59c0,1.95-.05,5.09-.05,7h1.96l1.04-2.05c.14-.27.41-.59.73-.59.18,0,.5.23.82.45l2.77,2.14c.18.14.46.36.46.68,0,.41-.36.45-.68.45h-8.64l1.77.77c.32.14.73.27.73.68,0,.36-.41.77-1,1.18l-.04,4.91h1.05l1.23-2.14c.09-.18.36-.59.73-.59.23,0,.5.27.82.5l2.64,2.14c.18.18.45.41.45.68,0,.45-.41.5-.73.5h-6.18v8.82c3.55,2.09,8.45,2.27,11.09,2.27,2.91,0,10.18-.32,17.55-1.82v.32c-1.64,1.09-2.36,2.82-2.73,4.77Zm-.64-33.32c-.82,7.18-1.46,13-7.14,12.77-.14-1.68-.54-3-3-5.23l.18-.27c.77.27,2.55.86,3.91.86.82,0,1.23,0,1.86-3.09.64-3.23.68-5.77.68-6.86h-5.32c0,10.14-8.32,14.27-11.27,15.68l-.27-.41c5.23-4.23,7.68-9.23,7.68-15.27-2.77,0-3.77.09-5.04.32l-.77-1.68c2.77.23,6,.27,6.5.27h8.36l1.14-1.05c.5-.5.54-.55.73-.55.27,0,.91.55.95.59l1.91,1.68c.32.27.32.41.32.55,0,.5-.82,1.18-1.41,1.68Zm-.77,16.64c0,1.14.23,6.82.23,8.09s0,2.64-2.14,2.64c-1.59,0-1.55-1.18-1.5-2.09h-9.59c0,.77,0,1.18-.18,1.45-.36.5-1.18,1-2.18,1-.5,0-1.41-.14-1.41-1.27,0-1.55.14-9.05.14-10.73,0-1.05-.14-2.05-.27-2.77l3.73,1.32h9l1.18-1.23c.23-.23.5-.59.82-.59.41,0,.82.32,1,.45l1.64,1.32c.23.18.55.41.55.91,0,.41-.14.5-1,1.5Zm-3.41-1.27h-9.59v8.82h9.59v-8.82Z"/><path class="cls-2" d="m25.27,17.1h-8.27c-1.86,2.18-4.09,4.32-5.5,5.59l.77.36h5.55l1.18-1.55c.14-.18.41-.45.64-.45.27,0,.54.18.77.36l2.5,1.68c.32.23.64.5.64.91,0,.59-.64.91-1.59,1.5-.05,1.14-.09,2.41-.09,4.86,0,.73,0,4.27.23,7.41,0,.32.05,1,.05,1.23,0,2.05-2.55,2.05-2.82,2.05-1.14,0-1.14-.5-1.05-2.23h-6.59c.05,1.27.05,1.73-.27,2.05-.64.68-1.86.91-2.5.91-.91,0-1.23-.41-1.23-1.05,0-.36.27-3.09.32-3.68.23-4.73.27-9.64.23-11.64-3.14,2.55-6,4.23-7.91,5.32l-.32-.36c2.32-1.86,5.04-4.18,8.18-7.36-.04-1.09-.09-1.41-.18-2.09l1.45.73c2.18-2.36,3.23-3.64,3.96-4.55h-6.05c-2.77,0-3.77.09-4.91.27l-.73-1.64c2.77.23,5.95.27,6.45.27h2.46v-6.73h-1.64c-2.77,0-3.77.09-4.91.32l-.73-1.68c2.73.23,5.96.27,6.46.27h.82c0-3.77-.05-5.41-.68-7.27l5.09,1.55c.18.05.59.18.59.59,0,.45-.14.55-1.55,1.32,0,.14-.04,2.55-.09,3.82h.59l1.23-1.82c.23-.32.41-.55.68-.55.36,0,.68.36.82.5l1.55,1.77c.18.18.27.32.36.5,1.86-3.27,1.95-3.68,2.32-5.5l3.86,2.86c.27.23.46.45.46.77,0,.5-.36.64-1.59.73-3.05,4.41-5.09,7-6.36,8.55h1.91l1.73-2.23c.18-.23.36-.55.68-.55s.59.23.86.45l2.41,2.18c.32.27.46.5.46.73,0,.41-.36.5-.68.5Zm-6.95,7.05h-6.68v6.18h6.68v-6.18Zm0,7.27h-6.68v6.32h6.68v-6.32Zm.27-22.14h-4.59c-.09,3.59-.14,4.86-.09,6.73h.36c2.23-2.91,3.59-5.05,4.59-6.73h-.27Zm19.86,27.36c-1.32.68-2.59.86-3.64,1-.23-2.64-1.05-3.77-3.14-5.41l.09-.18c1.77.45,3.68.64,4.18.64,2.46,0,2.46-2.41,2.46-2.77,0-1.27-.23-6.82-6.59-11.91,2.23-5.05,4.05-10.09,4.59-12.46h-5.73c-.09,3-.09,6.91-.09,10,0,12.77.09,18.64.32,23.59.04.64.04,1.09.04,1.18,0,1.82-1.86,2.23-2.82,2.23-.86,0-1.45-.23-1.45-1.41,0-.41.18-2.14.18-2.5.18-7.95.41-24,.41-25.41,0-3.32,0-7.46-.82-10.82l4.46,2.05h5.45l1.23-1.05c.18-.18.41-.41.64-.41s.45.27.68.5l2.86,2.82c.27.23.46.59.46.86,0,.5-.55.82-2.14,1.18-.77,1.05-5.59,7.5-7.27,9.41,6.5,3.23,9.55,7.86,9.55,12.09,0,3.09-1.73,5.59-3.91,6.77Z"/><path class="cls-2" d="m57.36,18.55c.91,1.68.91,3.32.91,3.95,0,7.86-3.05,10-5.23,10-1.09,0-2.32-1-2.32-2.32,0-1.05.36-1.41,1.68-2.73,2.41-2.41,4.41-5.36,4.64-8.77l.32-.14Zm10.68-7.36c.14.05.95.27.95.77,0,.55-1,1-1.5,1.18,0,2.95-.23,16.05-.23,18.68,0,.82,0,4.36.32,4.82.46.73,2.36.73,3.05.73,5.41,0,6.05-.36,6.5-1.36.55-1.18,1.55-5.45,1.77-6.82h.23c.27.95,1.05,5.09,1.46,5.86.09.14.54.95,1,1.27,1.04.73,1.14.77,1.14,1.27,0,.36-.36,1.91-2.36,2.68-2.32.91-4.5.91-7,.91-7.23,0-8.23,0-9.14-1.45-.77-1.23-.82-2.23-.82-8.59V14.69c0-3.05-.41-4-.73-4.86l5.36,1.36Zm-.27-9.91c8.91,1.82,8.91,7.23,8.91,7.55,0,.77-.55,2.59-2.32,2.59-1.5,0-1.82-.82-2.77-3.09-1.95-4.68-2.82-5.68-3.91-6.86l.09-.18Zm12.91,15.96c4.04,1.09,11.27,5.95,11.27,10.73,0,1.05-.73,2.82-2.36,2.82-1.41,0-2.32-1.32-3-3.5-1.41-4.36-4.36-8.36-6.05-9.77l.14-.27Z"/><path class="cls-2" d="m106.17,21.83c-2.77,0-3.77.14-4.91.32l-.73-1.68c1.77.18,4.46.27,6.32.27l1.5-1.59c.18-.18.36-.36.64-.36.23,0,.41.14.68.32l2.59,1.91c.14.09.32.27.32.5,0,.41-.32.64-.77.91-.27.18-.59.41-.91.64,0,1.14-.09,6.23-.09,7.27,0,6.36,5.82,7.14,12.32,7.14.18,0,11.59-.09,17.86-1.64v.32c-1.41,1.5-2.18,3-2.5,5.05-1.09,0-4.5.09-6.82.09-16.77,0-19.36-3-21.46-7.41-1.09,1.27-3.55,4.27-5.32,6.41,0,.82,0,1.36-.55,1.36-.36,0-.64-.32-.91-.64l-3.27-4.09c1.27-.05,3.32-.09,7.04-2.23v-12.86h-1.04Zm-3.32-19.36c4.64,1,8.32,3.14,8.32,6.18,0,1.64-1.41,2.36-2.23,2.36-1.59,0-2-1.09-3-3.86-.5-1.45-1.18-2.64-3.09-4.32v-.36Zm29.91,12.91l2.68-2.91c.5-.5.55-.55.73-.55.27,0,.68.36.82.5l3.32,2.86c.27.23.45.36.45.68,0,.41-.36.5-.68.5h-9.23c.04,1.64.18,10.55.23,11.55.04.91.27,5.59.27,5.82,0,2.09-1.86,2.45-2.59,2.45-.55,0-1.64-.27-1.64-1.64,0-1.59.18-4.09.18-5.68v-12.5h-7c-.27,13.46-7.09,16.73-8.32,17.27l-.14-.14c4.96-4.68,4.96-16.36,4.96-18.32,0-4.77-.55-9.73-.91-11.23l4.36,1.86c7.86-1.91,9.46-2.86,12.05-4.68l3.64,3.27c.27.27.36.5.36.68,0,.32-.27.5-.64.5-.23,0-1.27-.14-1.5-.14-.59,0-3.36.45-3.91.5-2.77.32-5.59.55-9.91.68,0,1.59-.05,7.96-.05,8.64h12.46Z"/><path class="cls-2" d="m164.67,11.42h-4.55l-.04,9c1.18-.41,3.32-1.09,3.55-1.18l.23.27c-.18.14-2.5,1.73-3.73,2.59,0,3,.14,12.64.14,14.77,0,2.73-.5,4.23-4.86,5.32-.77-2-.91-2.32-2-3.32-1.18-1.05-2.23-1.64-3.23-2.23v-.27c2.91.41,4.45.59,5.14.59,1.18,0,1.5-.09,1.5-1.36v-11.32c-.41.23-4.59,2.82-4.73,2.95-.18.41-.46,1.14-.96,1.14-.23,0-.32-.23-.41-.36l-2.68-4.82c1.77.14,2.64.23,8.77-1.68v-10.09h-1.91c-2.77,0-3.77.09-4.91.32l-.73-1.68c2.77.23,5.95.27,6.45.27h1.09v-4.64c0-2-.68-4.05-1-5l5.32,1.5c.23.05.5.23.5.59,0,.23-.09.41-.23.55-.18.23-1.09.91-1.23,1.09-.05.45-.05,3.95-.05,5.91h.09l1-1.86c.14-.18.32-.59.68-.59.27,0,.68.36.86.5l2.14,1.86c.27.23.45.41.45.68,0,.41-.36.5-.68.5Zm24.64,14.77h-9.54l2.68,1.18c.27.14.5.36.5.64,0,.41-.45.64-1.09.91-.59,1.27-1.32,2.73-3,4.82,4.41,1.59,8.5,4.5,8.5,6.45,0,1.45-1.05,2.05-1.86,2.05s-1.91-.77-2.5-1.32c-3.86-3.59-4.32-4-6.09-5.14-6.36,5.86-13.95,5.91-16.32,5.95v-.32c7.27-1.36,11.27-5.32,13.27-7.32-.68-.32-1.73-.82-4.09-1.68-1.04,1.77-1.27,2.14-2.36,2.14-.86,0-2.32-.41-2.32-1.27,0-.32.14-.59.27-.86.46-.86,2.91-5.18,3.41-6.23h-2.14c-3.18,0-4.05.18-4.91.32l-.77-1.68c2.18.18,4.32.27,6.5.27h1.86c1.14-2.41,2.36-5.55,2.5-6.64h-4.82c-3.18,0-4.05.14-4.91.27l-.77-1.64c2.18.18,4.32.27,6.5.27h8.59c.5-.95,2.32-5.14,2.82-7.36.05-.32.18-1.18.09-2.41l4.86,2.59c.27.18.32.55.32.59,0,.68-.68.82-1.77,1.05-.77.77-4.36,4.68-5.18,5.55h5.77l1.46-2.32c.18-.32.36-.59.68-.59s.59.32.82.5l2.82,2.32c.18.18.45.41.45.68,0,.45-.45.5-.73.5h-16.23l3.5,1.64c.18.09.41.23.41.55,0,.27-.14.5-1.59,1.09-.41.68-.54.91-1.68,3.36h10.36l1.59-2.27c.18-.27.36-.55.68-.55s.5.23.82.45l2.86,2.27c.18.14.45.41.45.68,0,.5-.41.5-.68.5Zm-1.73-18.73h-17.73c-2.77,0-3.77.09-4.91.32l-.77-1.68c2.77.23,6,.27,6.5.27h2.18c.04-.86.09-3.5-.68-5.73l5.27,1.55c.09.05.55.14.55.64,0,.77-1.05,1.05-1.27,1.14v2.41h5.41l1.5-2c.18-.27.41-.59.68-.59.32,0,.55.23.86.5l2.64,2c.18.14.46.41.46.68,0,.45-.41.5-.68.5Zm-16.32,9.27c-1.18,0-1.23-.09-2.5-4.41-.45-1.45-.64-2-1.59-3.45l.09-.23c1.41.59,6.09,2.55,6.09,5.91,0,1.36-1.09,2.18-2.09,2.18Zm1.46,9.46c-.59,1.32-1.55,3.59-2.59,5.59,2.77.36,4.23.68,5,.86.73-.91,3-3.77,3.32-6.45h-5.73Z"/><path class="cls-2" d="m265.25,9.33c.23.14.36.36.36.64,0,.73-.23.77-2.14,1.27-2,2.77-4.23,5.64-7.36,9.18.27-.05,3.27-.14,4.82-.23-.73-1.59-.95-1.82-1.45-2.5l.23-.36c2.55,1.23,5.86,2.77,5.86,5.82,0,.95-.5,2.18-1.91,2.18-1.14,0-1.55-.77-1.86-2.09-.09-.32-.41-1.77-.5-2.09-.59.18-1.27.36-2.18.64.05,2.59.18,14.32.18,16.09,0,2.23,0,3.91-2.36,3.91-1.32,0-1.36-.77-1.36-1.55.18-8.09.23-8.77.23-13.14-.23.32-.64.59-.95.82-.77,1.95-3.27,8.5-6.41,11.73l-.32-.18c3-8.68,3-11.23,3-12.32,0-.77-.05-1.59-.14-2.27l4.23,1.45c.23.09.46.18.59.36l.05-3.96c-1.68.5-4,1.09-5.41,1.45-.18.18-.55.59-.82.59-.32,0-.41-.32-.5-.64l-1.32-4.32c2.18.59,2.73.68,6.91.59,2.73-4.23,5.41-9.46,6.05-13.64l4.5,2.55Zm-16.14-.45c2.18.32,3.86.73,5.23,1.27,1.77-4.55,2-5.14,2.5-8.82l4.55,2.27c.27.14.41.27.41.55,0,.45-.46.73-1.59,1.05-1.04,1.23-1.32,1.59-4.82,5.5.55.41,1.77,1.27,1.77,3.14,0,1.23-.73,2.36-2.09,2.36-1.18,0-1.55-.82-2.09-2.09-1-2.27-1.77-2.91-4.04-4.86l.18-.36Zm10.64,16.14c3.91,2.14,5.36,2.95,5.36,5.18,0,1.64-1.14,2.36-2,2.36-1.5,0-1.68-1.18-2.05-3.36-.18-1.27-.86-2.86-1.68-3.91l.36-.27Zm6.27,5.09c.55,2.23.77,3.27.77,4.64,0,4.05-2.55,5.36-3.59,5.36-.73,0-1.73-.64-1.73-1.86,0-.73.04-.77,1.45-2.5.46-.59,2.73-3.36,2.82-5.68l.27.05Zm7.27-24.82c.23.14.36.32.36.64,0,.5-.14.59-1.41,1.18-2.5,4-4.23,6.36-8.95,9.95l-.23-.23c4.77-7.5,5.82-12.59,5.91-13.68l4.32,2.14Zm2.5,11.09c3.46,1.18,7.32,2.45,7.32,5.91,0,1.18-.86,1.96-1.86,1.96-1.09,0-1.23-.27-3.09-3.91-4,1.45-6.82,2.32-9.86,3.14-.09.32-.32,1.18-.96,1.18-.32,0-.59-.32-.68-.59l-1.32-4.59c1.23.45,2.09.55,4.14.5,2.14-5.09,2.55-9.09,2.59-9.23l4.27,1.5c.23.09.36.27.36.5,0,.36-.59.64-1.23.91-1.91,2.73-2.18,3.05-4.73,6.27.41,0,6-.32,7-.36-.27-.5-1.82-2.5-2.09-2.95l.14-.23Zm-2.68,10c.18.05.59.23.59.68,0,.68-.5,1-1.09,1.36v7.5c0,1.95.5,1.95,3.05,1.95,1.41,0,2.09-.23,2.5-1.41.55-1.45.91-2.86,1.09-4.36h.27c.14.86.77,4.23,1.95,5,.77.5.86.55.86.91,0,.41-.32,1.86-2.14,2.59-1.23.5-4.32.5-6.05.5-4.45,0-4.91-1.68-4.91-5.18,0-.91.09-5.09.09-5.96,0-2.14-.09-3.14-.27-4.5l4.05.91Zm.55-1.55c2.09.5,3.41,1,4.45,1.95.91.91,1.59,2.14,1.59,3.05,0,.55-.55,2.09-2,2.09-1.18,0-1.41-.55-2.32-3.36-.5-1.5-1.23-2.77-1.91-3.45l.18-.27Zm3.09-20.09c-.18,0-1.09,0-2.09.09l-.73-1.36c.95.09,1.09.09,2.68.14l1.59-1.45c.14-.14.36-.36.54-.36s.59.32.73.45l1.59,1.5c.18.18.36.36.36.59,0,.64-1.64,1.36-2.5,1.77,2.5,4.82,6.5,7.73,11.55,8.45v.27c-1.96.64-3.5,1.5-4.77,3.55-2.73-1.64-6.59-5.32-8.09-13.64h-.86Zm5.23,24.14c3.59,1.91,6.91,3.64,6.91,7.09,0,1.91-1.09,2.55-2.09,2.55-1.54,0-1.73-.95-2.32-3.55-.5-2.36-1.68-4.18-2.73-5.82l.23-.27Z"/><path class="cls-2" d="m308.02,31.65c-.95,3.32-2.77,7.55-11.23,10.14l-.27-.45c5.55-2.95,7.68-6.46,8.73-13.55h-3.68c-3.14,0-4,.18-4.91.32l-.73-1.68c2.14.18,4.32.27,6.45.27h4.73c0-1.36-.14-2.68-.59-4.32l4.05.95c.36.09,1,.27,1,.73,0,.32-.5.68-1,1.05v1.59h4.91l1.45-1.68c.14-.14.41-.59.68-.59s.64.27.91.55l1.86,1.64c.23.23.45.41.45.68,0,.5-.45.5-.68.5h-12.96l1.73.45c.32.09.73.27.73.64,0,.27-.09.32-1.09.86-.14.5-.14.55-.23.82h4.23l1.32-1.18c.09-.05.32-.32.41-.32s.32.14.64.36l2.23,1.59c.18.14.55.41.55.68,0,.23-1.32,1.41-1.46,1.55-.18.59-.91,3.59-1.09,4.23-1.41,4.27-2.82,4.91-6.09,5.14-.14-.68-.68-3.23-2.91-4.59l.09-.36c1.23.41,3.73.73,3.95.73.91,0,1.18-.73,1.77-2.59.86-2.73.91-3.55.91-4.14h-4.86Zm-5.64-23.23c-2.77,0-3.77.14-4.91.32l-.73-1.68c2.77.27,5.96.27,6.46.27h3.86c0-4.41-.09-5.18-.73-6.86l4.95,1.45c.73.23.77.23.91.41v-.27c1.5.05,5.68.23,5.68,2.82,0,1-.82,1.82-1.73,1.82s-1.23-.59-2.09-2.27c-.18-.32-.73-1.36-1.77-2-.09.55-.64.86-1.64,1.55v3.36h6.41l.86-1.36c.14-.18.41-.55.68-.55s.64.23.86.45l1.59,1.36c.23.23.45.41.45.73,0,.41-.41.45-.73.45h-10.14v2.77h4.27l1.27-1c.23-.18.45-.41.64-.41s.55.32.68.41l1.59,1.23c.23.18.59.45.59.68s-1.09,1.32-1.23,1.45c0,3.82,0,5.18.04,6.73,3.05-5.5,5.59-14.73,5.59-17.64,0-.68-.09-1.32-.18-2l4.82,2.36c.64.32.77.68.77.91,0,.32-.27.59-1.27.86-.59,1.23-3.09,7.32-3.41,8h6.5l1.45-2.23c.23-.36.41-.64.73-.64s.73.41.91.59l2.14,2.18c.36.36.46.45.46.68,0,.45-.36.5-.68.5h-5.41l2.86,1.45c.27.14.64.36.64.82s-.86.68-1.5.82c-.46,2.09-1.77,8.32-4.59,13.68,1.64,2.23,5.32,6,10.68,7.55v.27c-2.18.73-3.46,1.91-4.86,3.36-1.73-1.36-4.59-3.64-7.73-7.96-2.23,2.95-5.27,5.96-12.64,7.86l-.18-.41c4.36-2,8.95-6.64,11.14-10.64-1.59-4.73-1.91-10.46-1.91-12.32,0-1.09.09-1.82.14-2.36-1.86,2.55-3.41,3.95-4.41,4.86.05,1.77.05,1.95-.09,2.27-.18.41-.82,1.09-2.05,1.09-1.5,0-1.45-.68-1.45-2.36h-12.14c0,.59.04,2.82-2.32,2.82-1.32,0-1.5-1-1.5-1.55s.23-2.91.27-3.41c.09-1.95.09-3.5.09-4.59,0-1.68,0-4.32-.32-5.68l4,1.73h4v-2.77h-4.68Zm.41,3.86v3.64h4.27v-3.64h-4.27Zm0,4.73v3.77h4.27v-3.77h-4.27Zm12.23-1.09v-3.64h-4.36v3.64h4.36Zm0,4.86v-3.77h-4.36v3.77h4.36Zm9.27-6.91s-.32.55-.46.82c0,4.41,1.23,9.23,2.5,12.32,2.73-7.14,2.82-10.77,2.82-13.14h-4.86Z"/><path class="cls-2" d="m350.2,37.15c-.27.59-.64,1.55-1.27,1.55-.32,0-.59-.27-.82-.64l-2.68-4.59c.59.09,1,.14,1.54.14.64,0,1.27,0,6-1.18.09-8.77.09-9.73.14-15.09h-1.14c-2.77,0-3.77.14-4.91.32l-.77-1.68c2.64.23,5.59.27,6.82.27.05-9.59-.09-10.68-.5-13.5l4.91,1.64c.32.09.68.32.68.73,0,.73-.91,1.27-1.5,1.59-.09,2-.09,6.36-.09,9.55l1.68-1.77c.5-.5.55-.59.73-.59.32,0,.68.36.82.5l1.77,1.77c.36.36.41.45.41.73,0,.41-.41.45-.68.45h-4.77c0,5.86,0,6.68.05,14.09,3.14-.91,4.05-1.23,5.23-1.68l.18.41c-2.64,2.05-9.18,5.77-11.82,7Zm31.82,3.59c-1.36.27-8.18.27-10.09.27-7.77,0-9.59-.64-9.59-6,0-1.95.14-11.46.14-13.59-2.36,1.09-3.09,1.55-4.05,2.18l-1.36-1.18c1.64-.59,2.73-1.05,5.41-2.23-.05-1.41-.14-8.36-.14-9.91-.05-1.86-.18-2.64-.32-3.64l4.46,1.5c.73.23.86.45.86.73,0,.68-.86,1.14-1.45,1.41-.05,1.95-.14,4.32-.14,8.41l4.36-2.05c.05-3.64.14-11.86-.41-14.91l4.5,1.55c.54.18.86.32.86.68,0,.55-.18.64-1.45,1.55-.09,2.59-.18,7.18-.14,9.59l3.55-1.64,1.27-2.09c.5-.82.68-.95.91-.95s.54.14,1.14.55l2.27,1.5c.32.18.54.41.54.77,0,.68-.68,1.32-1.09,1.73.23,12.32.09,16.82-5.91,18.09-.18-1.77-1.41-3.5-2.5-4.41.05.55.09,3.23.09,3.59,0,2-1.86,2.45-2.59,2.45-.82,0-1.32-.27-1.32-1.59,0-.09.05-.55.05-1.23.09-2.14.14-4.77.23-14l-4.36,2.05c0,2,.05,11.95.05,14.18,0,1.27,0,2.77,1.32,3.18.64.23,6.5.23,7.68.23,6,0,6.68,0,8.46-7.14l.27.05c.04.18.27,4.18,1.32,5.68.14.23,1.14,1.14,1.14,1.41,0,.95-1.41,2.73-3.95,3.23Zm-3.73-26.64l-4.82,2.23c.04,3.23.14,9.68.18,12,1.23-.05,2.96-.09,3.59-.45,1.14-.68,1.14-5.05,1.14-6.64,0-.05-.05-5.36-.09-7.14Z"/><path class="cls-2" d="m410.15,12.96c1.45-2.91,2.45-6.73,2.68-7.59h-12.27c-3.14,0-4.04.14-4.91.27l-.73-1.64c2.14.18,4.32.27,6.46.27h27.41l2.14-2.18c.18-.18.59-.64.82-.64s.46.23.82.5l2.82,2.23c.18.14.45.36.45.68,0,.45-.45.5-.68.5h-17.32c-1.27,1.91-4.77,6.23-6.14,7.59h15.96l1.5-1.45c.36-.36.5-.55.77-.55.32,0,.59.18.91.45l2.41,2.05c.18.14.36.41.36.64,0,.45-.64.82-1.77,1.41-.05,3.77,0,12.32.14,18.5,0,.77.18,4.5.18,5.32,0,2.23-1.95,2.5-2.77,2.5-1.59,0-1.59-1.5-1.46-3.36h-24.82c.09,1.82,0,1.95-.14,2.23-.14.32-.91,1.36-2.59,1.36-.73,0-1.59-.23-1.59-1.68,0-.27.14-1.77.14-2.09.09-1.77.36-19.59.36-21.77,0-1.23-.14-3.59-.73-6.14l5.36,2.59h6.23Zm-7.05,1.09v23.32h5.23V14.05h-5.23Zm15.14,6.91v-6.91h-6.18v6.91h6.18Zm0,8v-6.91h-6.18v6.91h6.18Zm0,8.41v-7.32h-6.18v7.32h6.18Zm9.73,0V14.05h-5.96v23.32h5.96Z"/><path class="cls-2" d="m442.38,32.65c3.68-5,7.18-13.68,8.18-17.68h-1.54c-2.77,0-3.77.09-4.91.32l-.73-1.68c2.14.18,4.32.27,6.45.27h.95c0-1-.05-3.77-.18-6.91-3.5.73-5.68.68-7.23.64v-.36c5.5-1.73,8.95-3.41,11.18-4.73,1.36-.77,1.59-1.23,1.91-1.91l3.41,2.86c.18.18.36.5.36.73,0,.27-.14.55-1.05.55-.36,0-.73-.05-1.09-.09-1.77.73-2.73,1.05-4,1.45.09.77.09,4.36.09,7.77h.09l1.05-1.91c.14-.27.36-.64.68-.64s.64.32.86.55l2.23,1.91c.23.18.5.41.5.68,0,.41-.41.5-.73.5h-4.64l.05,3.73c2.14,1,5.91,3.09,5.91,5.86,0,1.59-1.09,2.14-1.91,2.14-1.36,0-1.59-.77-2.41-3.46-.68-2.14-1.09-3.09-1.59-3.82.05,7.09.09,9.95.41,17.09.09,2.18.09,3.36.09,3.41,0,.86,0,2.82-2.5,2.82-1.59,0-1.68-.95-1.68-2.09,0-1.27.32-7,.36-8.14.05-3.27.05-6.5-.04-9.73-1.96,4.05-4.73,7.41-8.32,10.05l-.23-.18Zm33.05-12.82l1.27-1.36c.23-.27.45-.45.77-.45.27,0,.55.23.73.41l1.95,1.77c.23.18.46.5.46.82,0,.41-.23.64-1.14,1.14-.05,1.77.36,9.64.36,11.23,0,2.36-2.14,2.36-2.5,2.36-.18,0-1.41,0-1.41-1,0-.18.05-.82.05-.95h-10.05c0,.18.05,1,.05,1.18l.14-.18,3.55,2.55c.23.18.45.45.45.77,0,.68-1.04.68-1.91.68-5.32,2.73-9.27,3.09-11.45,3.23v-.23c4.95-2.41,7.68-5,8.18-5.55-.27.09-.59.18-1.23.18-1.27,0-1.59-.36-1.59-1.36,0-1.45.18-8,.18-9.32,0-3.68-.09-4.32-.64-7.64l4.14,1.73h9.64Zm.95-14.18l1.18-2.05c.14-.27.36-.59.68-.59s.5.18.91.5l2.59,2.05c.23.18.46.41.46.73,0,.41-.41.45-.68.45h-9.32v3.73h2.91l1.05-1.82c.18-.32.36-.59.68-.59s.55.23.86.5l2.32,1.82c.23.18.45.36.45.73,0,.41-.36.45-.68.45h-7.59v4.09h6.68l1.55-2.18c.18-.27.41-.59.73-.59s.5.18.82.5l2.32,2.18c.23.23.45.41.45.73,0,.41-.36.45-.68.45h-19.5c-2.82,0-3.77.14-4.91.32l-.77-1.68c2.14.18,4.32.27,6.5.27h3.14v-4.09h-1.36c-2.77,0-3.77.14-4.91.32l-.73-1.68c2.73.27,5.73.27,7,.27,0-.09-.09-3.41-.14-3.73h-3.32c-2.77,0-3.77.14-4.91.32l-.73-1.68c2.14.23,4.32.27,6.45.27h2.5c-.09-2.09-.32-2.91-.95-4.86l5.23,1.55c.41.14.64.36.64.68,0,.68-.77,1-1.14,1.18q.05.55.05,1.45h4.18Zm-10.5,15.27v3.05h10.09v-3.05h-10.09Zm0,4.14v3.09h10.09v-3.09h-10.09Zm0,4.18v3.45h10.09v-3.45h-10.09Zm7,6.23c5.64.32,10.41,2.68,10.41,5.32,0,1.09-.96,2-2.14,2-1.32,0-2.54-1.41-3.23-2.23-1.09-1.32-2.14-2.59-5.05-4.86v-.23Z"/><path class="cls-2" d="m504.33,17.87c4,0,7.91,3.77,7.91,10.27,0,7.59-5.32,11.73-9.68,11.73-4.59,0-10.59-4.5-10.59-15.64,0-9,4.36-19.23,12.55-19.23,3.54,0,6.41,1.95,6.41,4.64,0,1.64-1.09,2.77-2.64,2.77-1.45,0-2.86-1.09-2.86-2.82,0-.23.18-1.32.18-1.55,0-1.18-1.14-1.5-1.96-1.5-1.68,0-5.86,1.82-6.68,15.27,2.68-3,5.5-3.96,7.36-3.96Zm-1.73,20.41c3.64,0,4.77-5.64,4.77-9.59,0-4.64-1.59-8.55-4.59-8.55-.41,0-3.23,0-5.86,3.55.14,4.73.41,14.59,5.68,14.59Z"/><path class="cls-2" d="m518.69,44.01c2.41-2.09,2.5-3.23,2.5-3.55,0-.45-.32-.55-.5-.64-.77-.27-2.27-.86-2.27-2.86,0-1.59,1.27-2.91,2.91-2.91,1.41,0,2.91,1.09,2.91,3,0,1.23-.64,4.36-4.77,7.73l-.77-.77Z"/><path class="cls-2" d="m530.37,37.78c2.5-4.91,3.32-6.41,7.36-11.23,5.82-7,7.82-9.41,7.82-14,0-2.05-1.05-6.14-5.32-6.14-2.23,0-4.77,1.14-4.77,3.5,0,.73.18.95.86,1.91.27.36.73,1.14.73,2.09,0,1.41-1.05,2.82-2.68,2.82-1.77,0-3-1.55-3-3.32,0-3.23,3.18-8.41,9.59-8.41,5.77,0,9.5,3.95,9.5,8.64,0,4.95-3.18,7.59-8.45,11.91-2.27,1.91-5.86,4.86-8.36,9.27h8.64c4.5,0,6.32-2.95,7.36-5.59l1,.36-2.23,9.41h-18.05v-1.23Z"/><path class="cls-2" d="m577.1,22.42c0,9.91-4.18,17.46-10.23,17.46s-10.23-7.77-10.23-17.46,4.23-17.41,10.23-17.41,10.23,7.73,10.23,17.41Zm-15.41,0c0,6.05.46,16,5.18,16s5.18-9.64,5.18-16c0-5.96-.45-15.96-5.18-15.96s-5.18,9.68-5.18,15.96Z"/><path class="cls-2" d="m603.46,22.42c0,9.91-4.18,17.46-10.23,17.46s-10.23-7.77-10.23-17.46,4.23-17.41,10.23-17.41,10.23,7.73,10.23,17.41Zm-15.41,0c0,6.05.45,16,5.18,16s5.18-9.64,5.18-16c0-5.96-.45-15.96-5.18-15.96s-5.18,9.68-5.18,15.96Z"/><path class="cls-2" d="m610.32,18.65l6.91-2v3.95c3.05-3.09,5.46-3.95,7.41-3.95s4.68,1,5.68,4.27c1.09-1.18,3.91-4.27,7.45-4.27,2.41,0,5.86,1.77,5.86,6.14v12.64c0,1.41.82,2.14,1.64,2.14h1.5v1.45h-9.86v-1.45h1.18c1,0,1.96-1,1.96-2.27v-11.64c0-2.77-1.86-4.5-3.91-4.5-2.23,0-4.41,1.77-5.73,3.73v12.55c0,1.14.77,2.14,1.77,2.14h1.36v1.45h-9.82v-1.45h1.18c1.18,0,1.91-1.27,1.91-2.27v-11.64c0-2.73-1.5-4.64-3.64-4.64-1.32,0-3.36.55-5.96,3.36v13.18c0,1,.68,2,1.96,2h1.18v1.45h-9.86v-1.45h1.46c1,0,1.68-.86,1.68-2v-13.82c0-1.09-.36-2.36-1.64-2.36-.14,0-.73,0-1.45.18l-.23-.91Zm36.77-4.32h-6.59v-.64c.59-.91.82-1.18,2.77-3.41,1.18-1.36,2.09-2.41,2.09-4,0-1.18-.64-1.77-1.46-1.77s-1.18.59-1.18,1.23c0,.32.27.91.27,1.27,0,.86-.86,1.32-1.45,1.32-.73,0-1.41-.59-1.41-1.41,0-1.18,1.27-3.27,4.09-3.27,2.27,0,3.55,1.32,3.55,2.91s-.82,2.36-3.14,4.18c-.46.36-1.27,1.09-1.73,1.64h2.64c1.04,0,1.64-.18,1.95-.86l.45.23-.86,2.59Z"/><path class="cls-2" d="m693.54,40.83c-1.36.14-3.23.27-7.41.27-11.64,0-13.91-.64-17-2.36-1.41-.77-5.18-3-7.64-8.27-1.59,6.14-4,9.14-7.18,11.41l-.32-.18c3.59-5.27,4.91-12.41,4.91-16.64,0-1.86-.23-3.18-.5-4.91l4.27.95c.36.09.86.36.86.86,0,.41-.14.45-.95.95-.09,2.32-.27,3.59-.64,5.55.95,2.23,1.82,3.27,2.23,3.77.09-8.5.09-11.77-.14-14.41h-3.27c-2.77,0-3.77.14-4.91.32l-.73-1.68c2.73.27,4.86.27,6.45.27h2.64v-7h-1.68c-2.77,0-3.77.14-4.91.32l-.73-1.68c2.73.27,5.96.27,6.46.27h.86c-.09-4.27-.09-5.18-.96-8.05l4.86,1.36c.59.18.68.32.68.59,0,.36-.09.45-1.04,1.45v4.64h1.5l1.27-1.95c.14-.23.45-.59.68-.59.27,0,.64.32.91.5l2.45,1.95c.23.18.45.41.45.73,0,.41-.41.45-.68.45h-6.59c0,1.95-.05,5.09-.05,7h1.96l1.04-2.05c.14-.27.41-.59.73-.59.18,0,.5.23.82.45l2.77,2.14c.18.14.46.36.46.68,0,.41-.36.45-.68.45h-8.64l1.77.77c.32.14.73.27.73.68,0,.36-.41.77-1,1.18l-.04,4.91h1.05l1.23-2.14c.09-.18.36-.59.73-.59.23,0,.5.27.82.5l2.64,2.14c.18.18.45.41.45.68,0,.45-.41.5-.73.5h-6.18v8.82c3.55,2.09,8.45,2.27,11.09,2.27,2.91,0,10.18-.32,17.55-1.82v.32c-1.64,1.09-2.36,2.82-2.73,4.77Zm-.64-33.32c-.82,7.18-1.46,13-7.14,12.77-.14-1.68-.54-3-3-5.23l.18-.27c.77.27,2.55.86,3.91.86.82,0,1.23,0,1.86-3.09.64-3.23.68-5.77.68-6.86h-5.32c0,10.14-8.32,14.27-11.27,15.68l-.27-.41c5.23-4.23,7.68-9.23,7.68-15.27-2.77,0-3.77.09-5.04.32l-.77-1.68c2.77.23,6,.27,6.5.27h8.36l1.14-1.05c.5-.5.54-.55.73-.55.27,0,.91.55.95.59l1.91,1.68c.32.27.32.41.32.55,0,.5-.82,1.18-1.41,1.68Zm-.77,16.64c0,1.14.23,6.82.23,8.09s0,2.64-2.14,2.64c-1.59,0-1.55-1.18-1.5-2.09h-9.59c0,.77,0,1.18-.18,1.45-.36.5-1.18,1-2.18,1-.5,0-1.41-.14-1.41-1.27,0-1.55.14-9.05.14-10.73,0-1.05-.14-2.05-.27-2.77l3.73,1.32h9l1.18-1.23c.23-.23.5-.59.82-.59.41,0,.82.32,1,.45l1.64,1.32c.23.18.55.41.55.91,0,.41-.14.5-1,1.5Zm-3.41-1.27h-9.59v8.82h9.59v-8.82Z"/><line class="cls-1" x1="197.2" y1=".36" x2="240.4" y2="43.55"/><line class="cls-1" x1="197.2" y1="43.55" x2="240.4" y2=".36"/></g></svg>