<?xml version="1.0" encoding="UTF-8"?>
<svg id="_レイヤー_2" data-name="レイヤー 2" xmlns="http://www.w3.org/2000/svg" xmlns:xlink="http://www.w3.org/1999/xlink" viewBox="0 0 118.9 158.44">
  <defs>
    <style>
      .cls-1 {
        clip-path: url(#clippath);
      }

      .cls-2 {
        fill: #03040c;
      }

      .cls-3 {
        fill: #e89775;
      }

      .cls-4 {
        fill: #ea9e7e;
      }

      .cls-5 {
        fill: #fff;
      }

      .cls-6 {
        fill: #a05623;
      }

      .cls-7 {
        fill: #85a72f;
      }

      .cls-8 {
        fill: #b8c9e5;
      }

      .cls-9 {
        fill: #9cabc2;
      }

      .cls-10 {
        fill: #a2c554;
      }
    </style>
    <clipPath id="clippath">
      <path class="cls-2" d="m55.93,82.82s9.72,2.54,11.94,2.18c2.21-.36,14.59,1.45,14.59,1.45h6.63l7.07-.36-1.32-34.84-19.6-5.09s-16.2,30.49-19.3,36.66Z"/>
    </clipPath>
  </defs>
  <g id="_レイヤー_1-2" data-name="レイヤー 1">
    <g>
      <g>
        <path class="cls-7" d="m.49,53.33c.06-.06,6.28-6.28,14.29-13.37,7.38-6.54,17.83-15.19,25.69-19.23l-.31-.61c-7.93,4.08-18.43,12.76-25.84,19.33C6.29,46.55.06,52.78,0,52.84l.49.49Z"/>
        <path class="cls-10" d="m42.46,23.72s.3,10.95,4.49,9.62c4.19-1.33,2.4-8.29-4.49-9.62Z"/>
        <path class="cls-10" d="m44.93,19.4s4.19-5.97,9.28-3.98c5.09,1.99.9,6.97-9.28,3.98Z"/>
        <path class="cls-10" d="m40.94,20.67s-6.59-7.63,2.7-13.27c0,0,.6,10.94-2.7,13.27Z"/>
        <path class="cls-7" d="m46.12,30.4l.47-.08c-.6-3.67-2.66-6.3-2.74-6.41l-.38.3s2.07,2.65,2.65,6.19Z"/>
        <path class="cls-7" d="m46.52,19.29s1.52-.66,5.04-1.31l-.09-.47c-3.58.66-5.08,1.32-5.14,1.34l.19.44Z"/>
        <path class="cls-7" d="m40.71,20.74l.46-.14s-1.46-4.92-.31-7.46l-.44-.2c-1.22,2.71.23,7.59.29,7.8Z"/>
        <polygon class="cls-7" points="25.44 30.34 26.84 12.51 26.16 12.46 24.76 30.29 25.44 30.34"/>
        <path class="cls-10" d="m27.9,9.54S34.2,6.97,32.42,0c0,0-7.27-.55-4.52,9.53Z"/>
        <path class="cls-10" d="m24.83,11.37s-1.46-8.25-4.36-5.68c-2.91,2.56-2.1,5.86,4.36,5.68Z"/>
        <path class="cls-7" d="m28.46,9.9h.48c0-3.55,2.36-6.97,2.38-7.01l-.39-.27c-.1.14-2.46,3.59-2.46,7.28Z"/>
        <polygon class="cls-7" points="24.65 12.26 25 11.94 21.29 7.91 20.94 8.23 24.65 12.26"/>
        <path class="cls-7" d="m29.01,44l.26-.64c-2.44-1-5.94-1.59-10.38-1.76-3.3-.13-5.92.04-5.95.04l.05.69c.1,0,10.37-.65,16.03,1.67Z"/>
        <path class="cls-10" d="m30.88,43.64s5.32-5.29,8.32-2.08c3,3.21-.67,8.69-8.32,2.08Z"/>
        <path class="cls-7" d="m30.97,43.86s4.59-1.84,6.79-.76l.21-.43c-2.4-1.17-6.99.67-7.18.75l.18.44Z"/>
        <path class="cls-10" d="m30.05,47.07s6.11,2.71,3.05,9.49c0,0-5.19,2.38-3.05-9.49Z"/>
        <rect class="cls-7" x="31.03" y="46.89" width=".48" height="8.17" transform="translate(-13.81 11.68) rotate(-17.4)"/>
      </g>
      <g>
        <polygon class="cls-3" points="69.31 96.59 79.99 155.08 84.45 154.34 79.03 97.31 69.31 96.59"/>
        <path class="cls-9" d="m79.17,151.72s-13.39,6.11-7.64,5.75c5.75-.36,12.37-2.09,13.7-2.45,1.33-.36,1.33-3.27,1.33-3.27l-4.93,2.3-2.45-2.33Z"/>
        <polygon class="cls-4" points="75.94 97.68 83.61 155.11 89.43 154.6 84.78 97.31 75.94 97.68"/>
        <path class="cls-8" d="m83.33,152.47s-13.26,5.77-7.79,5.94c5.47.17,15.14-.46,15.35-1.15.21-.69-1.34-4.7-1.34-4.7l-3.87,1.32-2.36-1.42Z"/>
        <path class="cls-8" d="m62.68,78.08l-4.86,20.69s2.65-1.09,6.63,1.45c3.98,2.54,7.96,1.09,13.26,1.45,5.31.36,17.68,1.45,17.68,1.45l-3.54-24.68-29.17-.36Z"/>
        <polygon class="cls-5" points="84.13 30.03 72.42 53.1 93.33 55.33 98.25 28.36 84.13 30.03"/>
        <g>
          <path class="cls-2" d="m55.93,82.82s9.72,2.54,11.94,2.18c2.21-.36,14.59,1.45,14.59,1.45h6.63l7.07-.36-1.32-34.84-19.6-5.09s-16.2,30.49-19.3,36.66Z"/>
          <g class="cls-1">
            <g>
              <path class="cls-5" d="m42.32,28.5c0,.63-.62,1.14-1.38,1.14s-1.39-.51-1.39-1.14.62-1.14,1.39-1.14,1.38.51,1.38,1.14Z"/>
              <path class="cls-5" d="m53.26,28.5c0,.63-.62,1.14-1.38,1.14s-1.38-.51-1.38-1.14.62-1.14,1.38-1.14,1.38.51,1.38,1.14Z"/>
              <path class="cls-5" d="m64.2,28.5c0,.63-.62,1.14-1.38,1.14s-1.39-.51-1.39-1.14.62-1.14,1.39-1.14,1.38.51,1.38,1.14Z"/>
              <path class="cls-5" d="m75.14,28.5c0,.63-.62,1.14-1.39,1.14s-1.38-.51-1.38-1.14.61-1.14,1.38-1.14,1.39.51,1.39,1.14Z"/>
              <path class="cls-5" d="m86.08,28.5c0,.63-.62,1.14-1.38,1.14s-1.39-.51-1.39-1.14.62-1.14,1.39-1.14,1.38.51,1.38,1.14Z"/>
              <path class="cls-5" d="m97.02,28.5c0,.63-.62,1.14-1.38,1.14s-1.38-.51-1.38-1.14.62-1.14,1.38-1.14,1.38.51,1.38,1.14Z"/>
              <path class="cls-5" d="m107.96,28.5c0,.63-.62,1.14-1.38,1.14s-1.38-.51-1.38-1.14.62-1.14,1.38-1.14,1.38.51,1.38,1.14Z"/>
              <path class="cls-5" d="m118.9,28.5c0,.63-.62,1.14-1.38,1.14s-1.38-.51-1.38-1.14.62-1.14,1.38-1.14,1.38.51,1.38,1.14Z"/>
              <path class="cls-5" d="m36.85,33.85c0,.63-.62,1.14-1.38,1.14s-1.39-.51-1.39-1.14.62-1.14,1.39-1.14,1.38.51,1.38,1.14Z"/>
              <path class="cls-5" d="m47.79,33.85c0,.63-.62,1.14-1.38,1.14s-1.38-.51-1.38-1.14.62-1.14,1.38-1.14,1.38.51,1.38,1.14Z"/>
              <path class="cls-5" d="m58.73,33.85c0,.63-.62,1.14-1.38,1.14s-1.38-.51-1.38-1.14.62-1.14,1.38-1.14,1.38.51,1.38,1.14Z"/>
              <path class="cls-5" d="m69.67,33.85c0,.63-.62,1.14-1.38,1.14s-1.38-.51-1.38-1.14.62-1.14,1.38-1.14,1.38.51,1.38,1.14Z"/>
              <path class="cls-5" d="m80.61,33.85c0,.63-.62,1.14-1.38,1.14s-1.38-.51-1.38-1.14.62-1.14,1.38-1.14,1.38.51,1.38,1.14Z"/>
              <path class="cls-5" d="m91.55,33.85c0,.63-.62,1.14-1.38,1.14s-1.38-.51-1.38-1.14.62-1.14,1.38-1.14,1.38.51,1.38,1.14Z"/>
              <path class="cls-5" d="m102.49,33.85c0,.63-.62,1.14-1.38,1.14s-1.38-.51-1.38-1.14.62-1.14,1.38-1.14,1.38.51,1.38,1.14Z"/>
              <path class="cls-5" d="m113.43,33.85c0,.63-.62,1.14-1.39,1.14s-1.38-.51-1.38-1.14.62-1.14,1.38-1.14,1.39.51,1.39,1.14Z"/>
              <path class="cls-5" d="m42.32,40.39c0,.62-.62,1.14-1.38,1.14s-1.39-.51-1.39-1.14.62-1.14,1.39-1.14,1.38.51,1.38,1.14Z"/>
              <path class="cls-5" d="m53.26,40.39c0,.62-.62,1.14-1.38,1.14s-1.38-.51-1.38-1.14.62-1.14,1.38-1.14,1.38.51,1.38,1.14Z"/>
              <path class="cls-5" d="m64.2,40.39c0,.62-.62,1.14-1.38,1.14s-1.39-.51-1.39-1.14.62-1.14,1.39-1.14,1.38.51,1.38,1.14Z"/>
              <path class="cls-5" d="m75.14,40.39c0,.62-.62,1.14-1.39,1.14s-1.38-.51-1.38-1.14.61-1.14,1.38-1.14,1.39.51,1.39,1.14Z"/>
              <path class="cls-5" d="m86.08,40.39c0,.62-.62,1.14-1.38,1.14s-1.39-.51-1.39-1.14.62-1.14,1.39-1.14,1.38.51,1.38,1.14Z"/>
              <path class="cls-5" d="m97.02,40.39c0,.62-.62,1.14-1.38,1.14s-1.38-.51-1.38-1.14.62-1.14,1.38-1.14,1.38.51,1.38,1.14Z"/>
              <ellipse class="cls-5" cx="106.57" cy="40.39" rx="1.38" ry="1.14"/>
              <path class="cls-5" d="m118.9,40.39c0,.62-.62,1.14-1.38,1.14s-1.38-.51-1.38-1.14.62-1.14,1.38-1.14,1.38.51,1.38,1.14Z"/>
              <path class="cls-5" d="m36.85,45.75c0,.63-.62,1.14-1.38,1.14s-1.39-.51-1.39-1.14.62-1.14,1.39-1.14,1.38.51,1.38,1.14Z"/>
              <path class="cls-5" d="m47.79,45.75c0,.63-.62,1.14-1.38,1.14s-1.38-.51-1.38-1.14.62-1.14,1.38-1.14,1.38.51,1.38,1.14Z"/>
              <path class="cls-5" d="m58.73,45.75c0,.63-.62,1.14-1.38,1.14s-1.38-.51-1.38-1.14.62-1.14,1.38-1.14,1.38.51,1.38,1.14Z"/>
              <path class="cls-5" d="m69.67,45.75c0,.63-.62,1.14-1.38,1.14s-1.38-.51-1.38-1.14.62-1.14,1.38-1.14,1.38.51,1.38,1.14Z"/>
              <path class="cls-5" d="m80.61,45.75c0,.63-.62,1.14-1.38,1.14s-1.38-.51-1.38-1.14.62-1.14,1.38-1.14,1.38.51,1.38,1.14Z"/>
              <path class="cls-5" d="m91.55,45.75c0,.63-.62,1.14-1.38,1.14s-1.38-.51-1.38-1.14.62-1.14,1.38-1.14,1.38.51,1.38,1.14Z"/>
              <path class="cls-5" d="m102.49,45.75c0,.63-.62,1.14-1.38,1.14s-1.38-.51-1.38-1.14.62-1.14,1.38-1.14,1.38.51,1.38,1.14Z"/>
              <path class="cls-5" d="m113.43,45.75c0,.63-.62,1.14-1.39,1.14s-1.38-.51-1.38-1.14.62-1.14,1.38-1.14,1.39.51,1.39,1.14Z"/>
              <path class="cls-5" d="m42.32,52.28c0,.63-.62,1.13-1.38,1.13s-1.39-.51-1.39-1.13.62-1.14,1.39-1.14,1.38.51,1.38,1.14Z"/>
              <path class="cls-5" d="m53.26,52.28c0,.63-.62,1.13-1.38,1.13s-1.38-.51-1.38-1.13.62-1.14,1.38-1.14,1.38.51,1.38,1.14Z"/>
              <path class="cls-5" d="m64.2,52.28c0,.63-.62,1.13-1.38,1.13s-1.39-.51-1.39-1.13.62-1.14,1.39-1.14,1.38.51,1.38,1.14Z"/>
              <path class="cls-5" d="m75.14,52.28c0,.63-.62,1.13-1.39,1.13s-1.38-.51-1.38-1.13.61-1.14,1.38-1.14,1.39.51,1.39,1.14Z"/>
              <path class="cls-5" d="m86.08,52.28c0,.63-.62,1.13-1.38,1.13s-1.39-.51-1.39-1.13.62-1.14,1.39-1.14,1.38.51,1.38,1.14Z"/>
              <path class="cls-5" d="m97.02,52.28c0,.63-.62,1.13-1.38,1.13s-1.38-.51-1.38-1.13.62-1.14,1.38-1.14,1.38.51,1.38,1.14Z"/>
              <path class="cls-5" d="m107.96,52.28c0,.63-.62,1.13-1.38,1.13s-1.38-.51-1.38-1.13.62-1.14,1.38-1.14,1.38.51,1.38,1.14Z"/>
              <path class="cls-5" d="m118.9,52.28c0,.63-.62,1.13-1.38,1.13s-1.38-.51-1.38-1.13.62-1.14,1.38-1.14,1.38.51,1.38,1.14Z"/>
              <path class="cls-5" d="m36.85,57.64c0,.63-.62,1.14-1.38,1.14s-1.39-.51-1.39-1.14.62-1.14,1.39-1.14,1.38.51,1.38,1.14Z"/>
              <path class="cls-5" d="m47.79,57.64c0,.63-.62,1.14-1.38,1.14s-1.38-.51-1.38-1.14.62-1.14,1.38-1.14,1.38.51,1.38,1.14Z"/>
              <path class="cls-5" d="m58.73,57.64c0,.63-.62,1.14-1.38,1.14s-1.38-.51-1.38-1.14.62-1.14,1.38-1.14,1.38.51,1.38,1.14Z"/>
              <path class="cls-5" d="m69.67,57.64c0,.63-.62,1.14-1.38,1.14s-1.38-.51-1.38-1.14.62-1.14,1.38-1.14,1.38.51,1.38,1.14Z"/>
              <path class="cls-5" d="m80.61,57.64c0,.63-.62,1.14-1.38,1.14s-1.38-.51-1.38-1.14.62-1.14,1.38-1.14,1.38.51,1.38,1.14Z"/>
              <path class="cls-5" d="m91.55,57.64c0,.63-.62,1.14-1.38,1.14s-1.38-.51-1.38-1.14.62-1.14,1.38-1.14,1.38.51,1.38,1.14Z"/>
              <path class="cls-5" d="m102.49,57.64c0,.63-.62,1.14-1.38,1.14s-1.38-.51-1.38-1.14.62-1.14,1.38-1.14,1.38.51,1.38,1.14Z"/>
              <path class="cls-5" d="m113.43,57.64c0,.63-.62,1.14-1.39,1.14s-1.38-.51-1.38-1.14.62-1.14,1.38-1.14,1.39.51,1.39,1.14Z"/>
              <path class="cls-5" d="m42.32,64.17c0,.63-.62,1.14-1.38,1.14s-1.39-.51-1.39-1.14.62-1.14,1.39-1.14,1.38.51,1.38,1.14Z"/>
              <path class="cls-5" d="m53.26,64.17c0,.63-.62,1.14-1.38,1.14s-1.38-.51-1.38-1.14.62-1.14,1.38-1.14,1.38.51,1.38,1.14Z"/>
              <path class="cls-5" d="m64.2,64.17c0,.63-.62,1.14-1.38,1.14s-1.39-.51-1.39-1.14.62-1.14,1.39-1.14,1.38.51,1.38,1.14Z"/>
              <path class="cls-5" d="m75.14,64.17c0,.63-.62,1.14-1.39,1.14s-1.38-.51-1.38-1.14.61-1.14,1.38-1.14,1.39.51,1.39,1.14Z"/>
              <path class="cls-5" d="m86.08,64.17c0,.63-.62,1.14-1.38,1.14s-1.39-.51-1.39-1.14.62-1.14,1.39-1.14,1.38.51,1.38,1.14Z"/>
              <path class="cls-5" d="m97.02,64.17c0,.63-.62,1.14-1.38,1.14s-1.38-.51-1.38-1.14.62-1.14,1.38-1.14,1.38.51,1.38,1.14Z"/>
              <ellipse class="cls-5" cx="106.57" cy="64.17" rx="1.38" ry="1.14"/>
              <path class="cls-5" d="m118.9,64.17c0,.63-.62,1.14-1.38,1.14s-1.38-.51-1.38-1.14.62-1.14,1.38-1.14,1.38.51,1.38,1.14Z"/>
              <path class="cls-5" d="m36.85,69.53c0,.63-.62,1.13-1.38,1.13s-1.39-.51-1.39-1.13.62-1.14,1.39-1.14,1.38.51,1.38,1.14Z"/>
              <path class="cls-5" d="m47.79,69.53c0,.63-.62,1.13-1.38,1.13s-1.38-.51-1.38-1.13.62-1.14,1.38-1.14,1.38.51,1.38,1.14Z"/>
              <path class="cls-5" d="m58.73,69.53c0,.63-.62,1.13-1.38,1.13s-1.38-.51-1.38-1.13.62-1.14,1.38-1.14,1.38.51,1.38,1.14Z"/>
              <path class="cls-5" d="m69.67,69.53c0,.63-.62,1.13-1.38,1.13s-1.38-.51-1.38-1.13.62-1.14,1.38-1.14,1.38.51,1.38,1.14Z"/>
              <path class="cls-5" d="m80.61,69.53c0,.63-.62,1.13-1.38,1.13s-1.38-.51-1.38-1.13.62-1.14,1.38-1.14,1.38.51,1.38,1.14Z"/>
              <path class="cls-5" d="m91.55,69.53c0,.63-.62,1.13-1.38,1.13s-1.38-.51-1.38-1.13.62-1.14,1.38-1.14,1.38.51,1.38,1.14Z"/>
              <path class="cls-5" d="m102.49,69.53c0,.63-.62,1.13-1.38,1.13s-1.38-.51-1.38-1.13.62-1.14,1.38-1.14,1.38.51,1.38,1.14Z"/>
              <path class="cls-5" d="m113.43,69.53c0,.63-.62,1.13-1.39,1.13s-1.38-.51-1.38-1.13.62-1.14,1.38-1.14,1.39.51,1.39,1.14Z"/>
              <path class="cls-5" d="m42.32,76.07c0,.63-.62,1.13-1.38,1.13s-1.39-.51-1.39-1.13.62-1.14,1.39-1.14,1.38.51,1.38,1.14Z"/>
              <path class="cls-5" d="m53.26,76.07c0,.63-.62,1.13-1.38,1.13s-1.38-.51-1.38-1.13.62-1.14,1.38-1.14,1.38.51,1.38,1.14Z"/>
              <path class="cls-5" d="m64.2,76.07c0,.63-.62,1.13-1.38,1.13s-1.39-.51-1.39-1.13.62-1.14,1.39-1.14,1.38.51,1.38,1.14Z"/>
              <path class="cls-5" d="m75.14,76.07c0,.63-.62,1.13-1.39,1.13s-1.38-.51-1.38-1.13.61-1.14,1.38-1.14,1.39.51,1.39,1.14Z"/>
              <path class="cls-5" d="m86.08,76.07c0,.63-.62,1.13-1.38,1.13s-1.39-.51-1.39-1.13.62-1.14,1.39-1.14,1.38.51,1.38,1.14Z"/>
              <path class="cls-5" d="m97.02,76.07c0,.63-.62,1.13-1.38,1.13s-1.38-.51-1.38-1.13.62-1.14,1.38-1.14,1.38.51,1.38,1.14Z"/>
              <path class="cls-5" d="m107.96,76.07c0,.63-.62,1.13-1.38,1.13s-1.38-.51-1.38-1.13.62-1.14,1.38-1.14,1.38.51,1.38,1.14Z"/>
              <path class="cls-5" d="m118.9,76.07c0,.63-.62,1.13-1.38,1.13s-1.38-.51-1.38-1.13.62-1.14,1.38-1.14,1.38.51,1.38,1.14Z"/>
              <path class="cls-5" d="m36.85,81.42c0,.63-.62,1.14-1.38,1.14s-1.39-.51-1.39-1.14.62-1.14,1.39-1.14,1.38.51,1.38,1.14Z"/>
              <path class="cls-5" d="m47.79,81.42c0,.63-.62,1.14-1.38,1.14s-1.38-.51-1.38-1.14.62-1.14,1.38-1.14,1.38.51,1.38,1.14Z"/>
              <path class="cls-5" d="m58.73,81.42c0,.63-.62,1.14-1.38,1.14s-1.38-.51-1.38-1.14.62-1.14,1.38-1.14,1.38.51,1.38,1.14Z"/>
              <path class="cls-5" d="m69.67,81.42c0,.63-.62,1.14-1.38,1.14s-1.38-.51-1.38-1.14.62-1.14,1.38-1.14,1.38.51,1.38,1.14Z"/>
              <path class="cls-5" d="m80.61,81.42c0,.63-.62,1.14-1.38,1.14s-1.38-.51-1.38-1.14.62-1.14,1.38-1.14,1.38.51,1.38,1.14Z"/>
              <path class="cls-5" d="m91.55,81.42c0,.63-.62,1.14-1.38,1.14s-1.38-.51-1.38-1.14.62-1.14,1.38-1.14,1.38.51,1.38,1.14Z"/>
              <path class="cls-5" d="m102.49,81.42c0,.63-.62,1.14-1.38,1.14s-1.38-.51-1.38-1.14.62-1.14,1.38-1.14,1.38.51,1.38,1.14Z"/>
              <path class="cls-5" d="m113.43,81.42c0,.63-.62,1.14-1.39,1.14s-1.38-.51-1.38-1.14.62-1.14,1.38-1.14,1.39.51,1.39,1.14Z"/>
              <path class="cls-5" d="m42.32,87.96c0,.63-.62,1.14-1.38,1.14s-1.39-.51-1.39-1.14.62-1.13,1.39-1.13,1.38.51,1.38,1.13Z"/>
              <path class="cls-5" d="m53.26,87.96c0,.63-.62,1.14-1.38,1.14s-1.38-.51-1.38-1.14.62-1.13,1.38-1.13,1.38.51,1.38,1.13Z"/>
              <path class="cls-5" d="m64.2,87.96c0,.63-.62,1.14-1.38,1.14s-1.39-.51-1.39-1.14.62-1.13,1.39-1.13,1.38.51,1.38,1.13Z"/>
              <path class="cls-5" d="m75.14,87.96c0,.63-.62,1.14-1.39,1.14s-1.38-.51-1.38-1.14.61-1.13,1.38-1.13,1.39.51,1.39,1.13Z"/>
              <path class="cls-5" d="m86.08,87.96c0,.63-.62,1.14-1.38,1.14s-1.39-.51-1.39-1.14.62-1.13,1.39-1.13,1.38.51,1.38,1.13Z"/>
              <path class="cls-5" d="m97.02,87.96c0,.63-.62,1.14-1.38,1.14s-1.38-.51-1.38-1.14.62-1.13,1.38-1.13,1.38.51,1.38,1.13Z"/>
              <path class="cls-5" d="m107.96,87.96c0,.63-.62,1.14-1.38,1.14s-1.38-.51-1.38-1.14.62-1.13,1.38-1.13,1.38.51,1.38,1.13Z"/>
              <path class="cls-5" d="m118.9,87.96c0,.63-.62,1.14-1.38,1.14s-1.38-.51-1.38-1.14.62-1.13,1.38-1.13,1.38.51,1.38,1.13Z"/>
              <path class="cls-5" d="m36.85,93.32c0,.63-.62,1.14-1.38,1.14s-1.39-.51-1.39-1.14.62-1.14,1.39-1.14,1.38.51,1.38,1.14Z"/>
              <path class="cls-5" d="m47.79,93.32c0,.63-.62,1.14-1.38,1.14s-1.38-.51-1.38-1.14.62-1.14,1.38-1.14,1.38.51,1.38,1.14Z"/>
              <path class="cls-5" d="m58.73,93.32c0,.63-.62,1.14-1.38,1.14s-1.38-.51-1.38-1.14.62-1.14,1.38-1.14,1.38.51,1.38,1.14Z"/>
              <path class="cls-5" d="m69.67,93.32c0,.63-.62,1.14-1.38,1.14s-1.38-.51-1.38-1.14.62-1.14,1.38-1.14,1.38.51,1.38,1.14Z"/>
              <path class="cls-5" d="m80.61,93.32c0,.63-.62,1.14-1.38,1.14s-1.38-.51-1.38-1.14.62-1.14,1.38-1.14,1.38.51,1.38,1.14Z"/>
              <path class="cls-5" d="m91.55,93.32c0,.63-.62,1.14-1.38,1.14s-1.38-.51-1.38-1.14.62-1.14,1.38-1.14,1.38.51,1.38,1.14Z"/>
              <path class="cls-5" d="m102.49,93.32c0,.63-.62,1.14-1.38,1.14s-1.38-.51-1.38-1.14.62-1.14,1.38-1.14,1.38.51,1.38,1.14Z"/>
              <path class="cls-5" d="m113.43,93.32c0,.63-.62,1.14-1.39,1.14s-1.38-.51-1.38-1.14.62-1.14,1.38-1.14,1.39.51,1.39,1.14Z"/>
              <path class="cls-5" d="m42.32,99.85c0,.63-.62,1.14-1.38,1.14s-1.39-.51-1.39-1.14.62-1.14,1.39-1.14,1.38.51,1.38,1.14Z"/>
              <path class="cls-5" d="m53.26,99.85c0,.63-.62,1.14-1.38,1.14s-1.38-.51-1.38-1.14.62-1.14,1.38-1.14,1.38.51,1.38,1.14Z"/>
              <path class="cls-5" d="m64.2,99.85c0,.63-.62,1.14-1.38,1.14s-1.39-.51-1.39-1.14.62-1.14,1.39-1.14,1.38.51,1.38,1.14Z"/>
              <path class="cls-5" d="m75.14,99.85c0,.63-.62,1.14-1.39,1.14s-1.38-.51-1.38-1.14.61-1.14,1.38-1.14,1.39.51,1.39,1.14Z"/>
              <path class="cls-5" d="m86.08,99.85c0,.63-.62,1.14-1.38,1.14s-1.39-.51-1.39-1.14.62-1.14,1.39-1.14,1.38.51,1.38,1.14Z"/>
              <path class="cls-5" d="m97.02,99.85c0,.63-.62,1.14-1.38,1.14s-1.38-.51-1.38-1.14.62-1.14,1.38-1.14,1.38.51,1.38,1.14Z"/>
              <path class="cls-5" d="m107.96,99.85c0,.63-.62,1.14-1.38,1.14s-1.38-.51-1.38-1.14.62-1.14,1.38-1.14,1.38.51,1.38,1.14Z"/>
              <path class="cls-5" d="m118.9,99.85c0,.63-.62,1.14-1.38,1.14s-1.38-.51-1.38-1.14.62-1.14,1.38-1.14,1.38.51,1.38,1.14Z"/>
              <path class="cls-5" d="m36.85,105.21c0,.63-.62,1.14-1.38,1.14s-1.39-.51-1.39-1.14.62-1.13,1.39-1.13,1.38.51,1.38,1.13Z"/>
              <path class="cls-5" d="m47.79,105.21c0,.63-.62,1.14-1.38,1.14s-1.38-.51-1.38-1.14.62-1.13,1.38-1.13,1.38.51,1.38,1.13Z"/>
              <path class="cls-5" d="m58.73,105.21c0,.63-.62,1.14-1.38,1.14s-1.38-.51-1.38-1.14.62-1.13,1.38-1.13,1.38.51,1.38,1.13Z"/>
              <path class="cls-5" d="m69.67,105.21c0,.63-.62,1.14-1.38,1.14s-1.38-.51-1.38-1.14.62-1.13,1.38-1.13,1.38.51,1.38,1.13Z"/>
              <path class="cls-5" d="m80.61,105.21c0,.63-.62,1.14-1.38,1.14s-1.38-.51-1.38-1.14.62-1.13,1.38-1.13,1.38.51,1.38,1.13Z"/>
              <path class="cls-5" d="m91.55,105.21c0,.63-.62,1.14-1.38,1.14s-1.38-.51-1.38-1.14.62-1.13,1.38-1.13,1.38.51,1.38,1.13Z"/>
              <path class="cls-5" d="m102.49,105.21c0,.63-.62,1.14-1.38,1.14s-1.38-.51-1.38-1.14.62-1.13,1.38-1.13,1.38.51,1.38,1.13Z"/>
              <path class="cls-5" d="m113.43,105.21c0,.63-.62,1.14-1.39,1.14s-1.38-.51-1.38-1.14.62-1.13,1.38-1.13,1.39.51,1.39,1.13Z"/>
            </g>
          </g>
        </g>
        <polygon class="cls-5" points="95.83 42.88 93.18 89.69 88.32 88.97 89.2 45.05 95.83 42.88"/>
        <path class="cls-4" d="m88.32,88.97s-6.19,10.16-3.54,8.35l2.65-1.81s-5.3,5.44-.44,4.35c4.86-1.09,6.19-10.16,6.19-10.16l-4.86-.73Z"/>
        <path class="cls-4" d="m90.22,34.12c7.94,1.57,17.53-13.56,1.15-19.92-5.12-1.99-8.31,4.21-10.8,4.71-3.5.71-1.37,13.03,9.65,15.21Z"/>
        <path class="cls-6" d="m88.1,13s7.31,10.52-2.58,18.43l10.54,3.14s8.97-1.94,9.15-10.58c.21-10.34-17.11-10.99-17.11-10.99Z"/>
        <path class="cls-2" d="m83.08,19.42c0,.28.22.51.49.51s.49-.23.49-.51-.22-.52-.49-.52-.49.23-.49.52Z"/>
      </g>
    </g>
  </g>
</svg>