<?xml version="1.0" encoding="UTF-8"?>
<svg id="_レイヤー_2" data-name="レイヤー 2" xmlns="http://www.w3.org/2000/svg" viewBox="0 0 199.84 169.63">
  <defs>
    <style>
      .cls-1 {
        fill: rgba(255,255,255,.5);
      }

      .cls-2 {
        fill: #e3dea9;
      }

      .cls-3 {
        fill: #80a7a3;
      }

      .cls-4 {
        fill: #bac4b1;
      }

      .cls-5 {
        fill: #a98d4b;
      }

      .cls-6 {
        fill: #c0868f;
      }

      .cls-7 {
        fill: #bdb3ab;
      }

      .cls-8 {
        fill: #d5ca8f;
      }

      .cls-9 {
        fill: #d4acaf;
      }

      .cls-10 {
        fill: #796956;
      }
    </style>
  </defs>
  <g id="_レイヤー_1-2" data-name="レイヤー 1">
    <g>
      <path class="cls-1" d="m33.07,90.87h135.72c0,21.69-20.38,63.96-67.89,63.96s-67.83-45.24-67.83-63.96Z"/>
      <g>
        <g>
          <rect class="cls-5" x="85.99" y="28.22" width="29.81" height="3.37"/>
          <path class="cls-5" d="m124.06,5.28c-.98,0-1.78.8-1.78,1.78,0,.62.31,1.16.79,1.48-2.31,3.42-8.01,11.46-10.24,10.87-2.21-.59-.75-9.74,0-13.73.11.02.22.03.33.03.98,0,1.78-.8,1.78-1.78s-.8-1.78-1.78-1.78-1.78.8-1.78,1.78c0,.71.42,1.32,1.02,1.61-1.8,3.81-6.18,12.68-7.51,12.18-1.34-.51-3.04-10.15-3.7-14.19.85-.13,1.51-.86,1.51-1.75,0-.98-.8-1.78-1.78-1.78s-1.78.8-1.78,1.78c0,.89.65,1.62,1.51,1.75-.66,4.04-2.36,13.68-3.7,14.19-1.34.5-5.72-8.39-7.52-12.19.59-.29,1.01-.89,1.01-1.6,0-.98-.8-1.78-1.78-1.78s-1.78.8-1.78,1.78.8,1.78,1.78,1.78c.12,0,.24-.01.35-.03.74,3.99,2.2,13.14,0,13.73-2.23.59-7.93-7.45-10.24-10.87.47-.32.79-.86.79-1.48,0-.98-.79-1.78-1.78-1.78s-1.78.8-1.78,1.78.8,1.78,1.78,1.78c.27,0,.51-.06.74-.16l7.51,16.73h29.81l7.51-16.73c.23.1.47.16.74.16.98,0,1.78-.8,1.78-1.78s-.8-1.78-1.78-1.78Z"/>
        </g>
        <path class="cls-3" d="m84.93,169.63s-.08,0-.12-.01c-.27-.07-.43-.34-.37-.61,3.57-14.51,16.33-14.68,16.45-14.68.28,0,.5.22.5.5,0,.28-.22.5-.5.5-.49,0-12.1.19-15.48,13.92-.06.23-.26.38-.49.38Z"/>
        <path class="cls-3" d="m116.87,169.63c-.23,0-.43-.15-.49-.38-3.38-13.73-14.99-13.92-15.48-13.92-.28,0-.5-.22-.5-.5,0-.28.22-.5.5-.5.13,0,12.88.17,16.46,14.68.07.27-.1.54-.37.61-.04,0-.08.01-.12.01Z"/>
        <g>
          <path class="cls-7" d="m77.32,125.98h3.34c1.95,0,3.56.67,3.56,2.88,0,1.33-.62,2.19-1.57,2.63l2.03,3.61h-2.45l-1.68-3.21h-1.05v3.21h-2.19v-9.12Zm3.17,4.19c1.04,0,1.61-.45,1.61-1.31s-.56-1.14-1.61-1.14h-.98v2.45h.98Z"/>
          <path class="cls-7" d="m85.4,133.15c0-1.47,1.15-2.26,3.87-2.56-.05-.56-.34-.89-1.05-.89-.55,0-1.12.22-1.82.61l-.76-1.43c.92-.55,1.91-.92,3-.92,1.8,0,2.82,1,2.82,3.18v3.95h-1.77l-.15-.7h-.06c-.57.51-1.22.87-1.99.87-1.29,0-2.07-.95-2.07-2.12Zm3.87-.12v-1.11c-1.36.17-1.8.58-1.8,1.06,0,.4.29.6.75.6s.73-.21,1.05-.55Z"/>
          <path class="cls-7" d="m93.13,128.13h1.77l.16.87h.04c.58-.56,1.29-1.04,2.23-1.04,1.52,0,2.17,1.09,2.17,2.83v4.31h-2.18v-4.04c0-.96-.26-1.23-.81-1.23-.49,0-.78.22-1.2.62v4.65h-2.18v-6.96Z"/>
          <path class="cls-7" d="m101.2,125.32h2.12v5.46h.06l2.11-2.64h2.36l-2.46,2.88,2.63,4.09h-2.36l-1.51-2.64-.83.94v1.7h-2.12v-9.78Z"/>
          <path class="cls-7" d="m108.85,126.04c0-.67.48-1.11,1.21-1.11s1.21.44,1.21,1.11-.49,1.13-1.21,1.13-1.21-.44-1.21-1.13Zm.12,2.09h2.18v6.96h-2.18v-6.96Z"/>
          <path class="cls-7" d="m112.88,128.13h1.78l.16.87h.04c.57-.56,1.28-1.04,2.23-1.04,1.52,0,2.17,1.09,2.17,2.83v4.31h-2.18v-4.04c0-.96-.26-1.23-.81-1.23-.49,0-.79.22-1.2.62v4.65h-2.18v-6.96Z"/>
          <path class="cls-7" d="m120.47,136.27c0-.57.33-1.04.98-1.37v-.06c-.37-.25-.64-.61-.64-1.2,0-.49.32-.98.78-1.3v-.05c-.5-.34-.96-.99-.96-1.81,0-1.69,1.41-2.52,2.91-2.52.4,0,.78.06,1.1.17h2.56v1.58h-1.06c.1.2.18.51.18.84,0,1.63-1.24,2.34-2.78,2.34-.23,0-.51-.04-.82-.12-.15.15-.22.24-.22.49,0,.32.28.47,1.03.47h1.1c1.71,0,2.69.52,2.69,1.79,0,1.47-1.53,2.51-3.95,2.51-1.61,0-2.92-.5-2.92-1.75Zm4.78-.38c0-.42-.37-.5-1.02-.5h-.66c-.5,0-.77-.02-.99-.09-.22.2-.32.39-.32.62,0,.49.59.74,1.47.74s1.52-.33,1.52-.77Zm-.8-5.41c0-.7-.38-1.06-.89-1.06s-.88.37-.88,1.06c0,.73.38,1.1.88,1.1s.89-.37.89-1.1Z"/>
        </g>
        <path class="cls-5" d="m75.7,105.44h-2.59c.25.36.47.71.62.99l-1.81.69h2.31v4.95h-5.59v.72h6.63s-.02.6-.05.9c-.15,2.35-.35,3.56-.81,4.09-.43.49-.92.65-1.52.72-.52.07-1.39.09-2.31.07-.04-.76-.35-1.75-.74-2.39.7.07,1.39.09,1.73.07.27,0,.43-.02.62-.16.12-.14.24-.49.31-1.14h-3.85v4.36h-2.57v-3.2c-1.48,1.32-3.32,2.41-5.19,3.07-.36-.61-1.1-1.57-1.65-2.06,1.7-.47,3.44-1.25,4.79-2.17h-1.23l-.09.31-2.64-.29c.44-1.36.94-3.36,1.25-5.03h4.75v-.72h-5.29v-1.88l-.09.09c-.49-.42-1.54-1.08-2.13-1.41,1.2-.96,2.3-2.55,2.91-4.07l2.44.67c-.11.27-.25.54-.38.81h3.63v1.55c.78-.87,1.43-1.95,1.81-3.04l2.48.63c-.11.29-.23.56-.36.85h4.61v1.99Zm-12.54,1.68c-.2-.49-.51-1.09-.83-1.64-.43.61-.87,1.17-1.32,1.64h2.15Zm2.93,4.95h-2.57l-.16.72h2.73v-.72Zm2.19-4.95c-.53-.43-1.43-1.01-1.97-1.3.14-.11.29-.25.43-.38h-1.77c.22.36.4.71.51.99l-1.5.69h4.3Zm3.11,0c-.24-.49-.63-1.12-1.03-1.68h-.4c-.43.63-.88,1.21-1.36,1.68h2.79Zm.27,2.12h-3v.72h3v-.72Z"/>
        <path class="cls-5" d="m127.81,96.14c-.64,1.59-1.41,3.21-2.31,4.8v18.32h-3.54v-13.05c-.57.69-1.13,1.34-1.72,1.9-.31-.9-1.31-2.98-1.93-3.93,2.36-2.18,4.68-5.68,6.01-9.2l3.49,1.15Zm15.44,18.65v3.52h-16.55v-3.52h8.27c.87-3.11,1.72-7.6,2.05-11.17l4.06.64c-.67,3.72-1.64,7.66-2.52,10.53h4.68Zm-10.38-15.44v-4.06h3.78v4.06h6.14v3.52h-15.62v-3.52h5.71Zm-2.75,14.88c-.05-2.49-.62-6.65-1.36-9.89l3.37-.59c.82,3.16,1.54,7.19,1.67,9.71l-3.67.77Z"/>
        <path class="cls-9" d="m184.83,42.74c-1.89-1.65-2.6-14.62-2.6-14.62,0,0-.71,12.96-2.6,14.62-1.95,1.71-8.53,2.45-8.53,2.45,0,0,6.59.74,8.53,2.45,1.88,1.65,2.6,14.62,2.6,14.62,0,0,.71-12.96,2.6-14.62,1.95-1.71,8.53-2.45,8.53-2.45,0,0-6.58-.74-8.53-2.45Z"/>
        <path class="cls-4" d="m190.11,113.76c-1.42-1.24-1.95-11-1.95-11,0,0-.54,9.76-1.95,11-1.47,1.29-6.42,1.85-6.42,1.85,0,0,4.96.56,6.42,1.84,1.42,1.24,1.95,11,1.95,11,0,0,.54-9.76,1.95-11,1.46-1.29,6.42-1.84,6.42-1.84,0,0-4.96-.56-6.42-1.85Z"/>
        <path class="cls-2" d="m194.82,68.84c-1.11-.97-1.53-8.61-1.53-8.61,0,0-.42,7.63-1.53,8.61-1.15,1.01-5.03,1.44-5.03,1.44,0,0,3.88.44,5.03,1.44,1.11.97,1.53,8.61,1.53,8.61,0,0,.42-7.63,1.53-8.61,1.14-1.01,5.02-1.44,5.02-1.44,0,0-3.88-.44-5.02-1.44Z"/>
        <path class="cls-8" d="m24.46,25.66c-1.71-1.5-2.35-13.22-2.35-13.22,0,0-.65,11.73-2.35,13.22-1.76,1.54-7.72,2.22-7.72,2.22,0,0,5.96.67,7.72,2.22,1.71,1.5,2.35,13.22,2.35,13.22,0,0,.64-11.72,2.35-13.22,1.76-1.55,7.72-2.22,7.72-2.22,0,0-5.95-.67-7.72-2.22Z"/>
        <path class="cls-9" d="m15.76,133.32c-1.31-1.15-1.81-10.17-1.81-10.17,0,0-.5,9.02-1.81,10.17-1.36,1.19-5.94,1.7-5.94,1.7,0,0,4.58.52,5.94,1.7,1.31,1.15,1.81,10.17,1.81,10.17,0,0,.5-9.02,1.81-10.17,1.35-1.19,5.93-1.7,5.93-1.7,0,0-4.58-.52-5.93-1.7Z"/>
        <path class="cls-2" d="m8.08,88.91c-1.11-.97-1.53-8.61-1.53-8.61,0,0-.42,7.63-1.53,8.61-1.15,1.01-5.02,1.44-5.02,1.44,0,0,3.88.44,5.02,1.44,1.11.97,1.53,8.61,1.53,8.61,0,0,.42-7.63,1.53-8.61,1.15-1.01,5.03-1.44,5.03-1.44,0,0-3.88-.44-5.03-1.44Z"/>
        <path class="cls-6" d="m83.61,80.82c1.12-9.02,7.24-13.89,15.47-13.89,9.02,0,15,4.87,15,13.56,0,5.59-2.44,9.81-10.13,16.98-6.91,6.19-10.2,9.87-12.24,13.95h22.57v6.58h-31.13v-5.86c2.96-6.19,7.17-11.71,14.35-18.62,6.58-6.32,8.03-8.95,8.03-13.1,0-4.41-2.57-6.98-6.58-6.98s-6.71,3.09-7.11,9.08l-8.23-1.71Z"/>
        <path class="cls-3" d="m175.77,87.61l-3.75,4.74c-.12.16-.27.36-.43.6-.98,1.5-2.49,4.15-1.57,5.97-.65.85-1.44,1.06-1.94,1.1.47-2.41.81-4.84,1.01-7.28l.13-1.82c.86-.11,2.04-.66,2.76-2.1,2.23-.4,3.2-4.42,3.26-5.98l.03-.71c.12-2.78-.21-5.68-.21-5.68l-3.01,5.25c-.1.18-.22.4-.34.66-.75,1.63-1.86,4.48-.67,6.13-.52.94-1.26,1.26-1.76,1.38.1-2.45.08-4.91-.08-7.35-.04-.61-.08-1.21-.14-1.82.83-.24,1.92-.95,2.42-2.48,2.15-.72,2.51-4.85,2.33-6.41l-.07-.71c-.3-2.77-1.06-5.59-1.06-5.59l-2.19,5.64c-.07.19-.15.43-.23.7-.5,1.73-1.17,4.71.24,6.17-.37,1.01-1.07,1.44-1.54,1.62-.25-2.44-.65-4.86-1.16-7.26-.13-.59-.26-1.19-.41-1.78.79-.36,1.75-1.22,2.02-2.82,2.02-1.04,1.75-5.18,1.35-6.68-.06-.23-.12-.46-.18-.7-.71-2.69-1.88-5.37-1.89-5.36l-1.32,5.91c-.05.2-.09.45-.13.73-.23,1.78-.45,4.83,1.17,6.06-.21,1.05-.84,1.58-1.28,1.83-.62-2.37-1.37-4.71-2.24-7-.22-.57-.44-1.13-.67-1.7.72-.47,1.55-1.47,1.57-3.09,1.84-1.33.96-5.38.33-6.81l-.28-.66c-1.1-2.56-2.67-5.02-2.67-5.02l-.42,6.04c-.01.2-.02.45-.02.74.04,1.8.28,4.84,2.06,5.82-.06,1.07-.59,1.69-.98,2.01-.96-2.25-2.06-4.45-3.27-6.59l-.92-1.58c.64-.57,1.31-1.69,1.09-3.29,1.62-1.59.14-5.46-.69-6.78l-.38-.61c-1.47-2.36-3.39-4.56-3.39-4.56l.48,6.03c.02.2.05.45.09.73.3,1.78,1,4.74,2.91,5.44.1,1.07-.33,1.76-.68,2.13-1.29-2.08-2.7-4.1-4.21-6.03-.37-.48-.76-.95-1.14-1.42.55-.66,1.05-1.87.59-3.42,1.36-1.81-.67-5.42-1.69-6.6l-.46-.55c-1.81-2.12-4.03-4.01-4.03-4.01l1.37,5.89c.05.2.12.44.2.71.56,1.71,1.68,4.55,3.68,4.95.26,1.05-.07,1.79-.35,2.21-1.59-1.87-3.28-3.65-5.06-5.33-.45-.41-.89-.83-1.34-1.24.45-.74.76-2,.08-3.47.52-.99.18-2.31-.47-3.51-.65-1.19-1.6-2.25-2.18-2.77l-.54-.47c-2.11-1.82-4.57-3.38-4.58-3.37l2.23,5.62c.08.19.18.42.3.67.81,1.61,2.34,4.25,4.38,4.35.41.99.19,1.78-.02,2.23-1.85-1.61-3.79-3.12-5.8-4.53.13-1.42-.93-2.73-2.26-3.7-1.33-.97-2.92-1.6-3.8-1.82-3.29-.9-7.08-1.12-7.07-1.11,0,0,2.81,2.51,5.15,4.69.64.57,1.88,1.54,3.25,2.24,1.37.7,2.88,1.13,4.15.52,1.98,1.39,3.89,2.88,5.71,4.46-.42.29-1.15.6-2.16.41-.39-1.96-3.33-2.74-4.99-2.81-.27-.01-.5-.02-.69-.01-2.62.07-5.46.72-5.46.73l4.1,2.21.52.28c1.15.56,4.36,1.87,6.12.52,1.46.34,2.65-.11,3.33-.63.45.4.88.81,1.32,1.22,1.75,1.66,3.42,3.42,4.99,5.26-.45.22-1.23.43-2.2.08-.09-2-2.89-3.2-4.52-3.52-.26-.06-.49-.09-.68-.11-2.6-.32-5.51-.1-5.5-.09l3.73,2.8.47.35c1.05.72,4.04,2.5,5.98,1.42,1.39.55,2.63.29,3.39-.13.38.46.76.93,1.12,1.4,1.49,1.9,2.88,3.89,4.15,5.94-.48.14-1.28.24-2.19-.25.21-1.99-2.38-3.59-3.95-4.15-.25-.09-.47-.17-.66-.22-2.53-.7-5.44-.91-5.43-.91l3.27,3.32.42.42c.93.87,3.62,3.07,5.7,2.29,1.29.75,2.56.68,3.37.37l.9,1.55c1.19,2.11,2.27,4.27,3.22,6.5-.5.07-1.3.04-2.13-.57.5-1.94-1.82-3.9-3.28-4.69-.23-.13-.44-.23-.62-.31-2.39-1.07-5.24-1.71-5.24-1.7l2.74,3.77.36.47c.79,1,3.12,3.57,5.29,3.12,1.16.94,2.43,1.05,3.28.87.23.55.45,1.11.66,1.67.86,2.26,1.6,4.57,2.21,6.91-.51,0-1.29-.15-2.02-.88.79-1.84-1.21-4.13-2.54-5.13-.21-.16-.4-.3-.56-.4-2.2-1.42-4.92-2.47-4.92-2.46l2.15,4.13.28.52c.63,1.11,2.55,4,4.76,3.87,1.01,1.1,2.25,1.4,3.11,1.36.15.58.28,1.17.41,1.75.51,2.36.9,4.75,1.14,7.16-.5-.08-1.25-.34-1.86-1.17,1.05-1.7-.57-4.27-1.74-5.45-.18-.19-.35-.35-.5-.48-1.96-1.73-4.49-3.18-4.49-3.17l1.5,4.41.2.56c.45,1.19,1.92,4.33,4.12,4.54.83,1.24,2.01,1.72,2.87,1.81.05.6.1,1.2.13,1.79.16,2.41.18,4.84.08,7.25-.48-.15-1.19-.52-1.67-1.44,1.29-1.53.06-4.31-.91-5.66-.15-.22-.29-.4-.42-.55-1.68-2.01-3.97-3.82-3.97-3.81l.82,4.59.11.58c.28,1.25,1.26,4.58,3.41,5.12.64,1.35,1.73,2,2.57,2.21l-.13,1.79c-.2,2.41-.54,4.81-1,7.18-.45-.22-1.1-.7-1.44-1.67,1.51-1.32.7-4.25-.07-5.73-.12-.24-.23-.44-.33-.6-1.37-2.23-3.37-4.37-3.37-4.36l.14,4.66.02.59c.1,1.27.57,4.71,2.62,5.56.43,1.43,1.41,2.24,2.21,2.57l-.39,1.75c-.56,2.35-1.25,4.67-2.06,6.95-.41-.29-.98-.85-1.17-1.87,1.69-1.08,1.33-4.1.79-5.67-.08-.25-.16-.47-.24-.65-1.02-2.41-2.68-4.81-2.68-4.81l-.55,4.62-.07.59c-.1,1.27-.14,4.74,1.76,5.88.21,1.48,1.06,2.42,1.8,2.87l-.65,1.67c-.91,2.24-1.94,4.43-3.09,6.56-.37-.34-.85-.99-.88-2.02,1.83-.81,1.93-3.85,1.63-5.49-.04-.26-.09-.49-.14-.67-.65-2.54-1.93-5.16-1.93-5.15l-1.24,4.49-.15.57c-.29,1.24-.85,4.66.85,6.08,0,1.49.69,2.56,1.35,3.11l-.89,1.56c-1.24,2.08-2.58,4.09-4.03,6.03-.31-.39-.69-1.1-.57-2.13,1.93-.53,2.48-3.52,2.44-5.18,0-.26-.02-.5-.04-.69-.26-2.61-1.13-5.39-1.13-5.39l-1.9,4.25-.24.54c-.47,1.18-1.54,4.49-.07,6.14-.23,1.48.3,2.63.87,3.28l-1.12,1.41c-1.53,1.88-3.16,3.67-4.88,5.36-.25-.44-.52-1.2-.24-2.19,1.99-.24,2.98-3.11,3.18-4.76.04-.26.06-.5.06-.69.13-2.62-.31-5.5-.31-5.5l-2.52,3.92-.31.5c-.64,1.1-2.2,4.21-.98,6.06-.45,1.43-.09,2.64.38,3.37l-1.31,1.23c-1.79,1.62-3.67,3.15-5.62,4.58-.18-.47-.33-1.26.08-2.2,2,.06,3.4-2.64,3.85-4.24.07-.25.13-.49.17-.67.52-2.57.51-5.49.5-5.48l-3.07,3.51-.39.45c-.8.99-2.79,3.84-1.87,5.85-.65,1.34-.48,2.6-.12,3.39l-1.48,1.02c-2.01,1.34-4.1,2.58-6.24,3.69-.11-.49-.14-1.3.41-2.16,1.97.36,3.76-2.1,4.44-3.62.11-.24.2-.46.27-.64.89-2.46,1.32-5.35,1.31-5.35l-3.56,3.01-.45.39c-.94.87-3.33,3.38-2.72,5.51-.85,1.23-.87,2.5-.63,3.33l-1.62.79c-2.19,1.03-4.44,1.93-6.72,2.72-.04-.5.05-1.3.73-2.08,1.89.65,4.03-1.52,4.93-2.92.14-.22.27-.42.36-.59,1.25-2.3,2.1-5.09,2.09-5.09l-3.96,2.45-.5.32c-1.06.71-3.8,2.84-3.51,5.04-1.02,1.09-1.23,2.34-1.12,3.2l-1.72.53c-2.32.68-4.68,1.24-7.05,1.67.04-.5.25-1.28,1.03-1.94,1.77.92,4.21-.89,5.31-2.14.18-.2.33-.38.44-.53,1.58-2.09,2.84-4.72,2.83-4.72l-4.28,1.82-.54.24c-1.15.54-4.18,2.24-4.23,4.45-1.17.92-1.57,2.13-1.59,3-3.48.57-7.02.87-10.55.9-.28,0-.51.23-.51.51s.23.5.52.5c3.58-.03,7.17-.33,10.7-.91.3.81,1.09,1.84,2.66,2.23.88,2.09,5.03,2.14,6.56,1.85l.71-.12c2.74-.5,5.49-1.48,5.49-1.48l-5.79-1.77c-.19-.06-.44-.12-.71-.18-1.76-.37-4.78-.82-6.13.7-1.03-.3-1.51-.96-1.73-1.41,2.41-.44,4.8-1.01,7.15-1.7l1.74-.54c.41.75,1.35,1.65,2.96,1.8,1.19,1.93,5.29,1.36,6.77.84l.68-.23c2.63-.91,5.21-2.28,5.21-2.28l-5.99-.88c-.2-.03-.45-.05-.73-.07-1.8-.1-4.85-.09-5.96,1.62-1.06-.14-1.64-.72-1.92-1.14,2.32-.79,4.6-1.71,6.82-2.75l1.64-.8c.53.68,1.58,1.44,3.2,1.34,1.46,1.73,5.44.56,6.81-.18l.64-.33c2.47-1.29,4.81-3.03,4.81-3.03l-6.05.02c-.2,0-.46.01-.74.04-1.79.17-4.8.63-5.65,2.49-1.07.02-1.73-.46-2.07-.83,2.18-1.13,4.29-2.38,6.33-3.75l1.5-1.03c.62.6,1.78,1.18,3.36.85,1.7,1.5,5.46-.26,6.71-1.18l.58-.42c2.24-1.64,4.3-3.71,4.3-3.71l-5.98.92c-.2.03-.45.08-.72.15-1.75.43-4.66,1.34-5.22,3.3-1.06.18-1.78-.21-2.17-.52,1.98-1.45,3.88-3,5.7-4.64l1.33-1.24c.7.5,1.94.91,3.45.34,1.9,1.23,5.36-1.06,6.46-2.17l.51-.5c1.98-1.96,3.71-4.31,3.71-4.31l-5.78,1.8c-.19.06-.43.15-.69.25-1.66.69-4.41,2.02-4.67,4.04-1.02.33-1.79.06-2.23-.19,1.74-1.72,3.4-3.54,4.95-5.44l1.14-1.43c.77.39,2.05.61,3.46-.18,2.07.93,5.14-1.85,6.07-3.11l.43-.57c1.67-2.23,3.03-4.82,3.02-4.81l-5.45,2.64c-.18.09-.4.21-.65.35-1.54.93-4.06,2.65-4.02,4.69-.96.48-1.76.33-2.23.14,1.47-1.96,2.83-4.01,4.09-6.11l.91-1.58c.82.27,2.12.3,3.4-.69,2.18.61,4.81-2.6,5.54-3.98l.34-.63c1.31-2.46,2.27-5.22,2.27-5.22l-4.99,3.43c-.17.12-.37.27-.59.44-1.39,1.15-3.62,3.23-3.27,5.24-.88.62-1.69.59-2.18.47,1.16-2.16,2.21-4.38,3.13-6.65l.66-1.7c.85.15,2.14-.02,3.26-1.19,2.25.28,4.36-3.29,4.87-4.77l.24-.67c.93-2.63,1.46-5.5,1.46-5.5l-4.42,4.14c-.15.14-.32.32-.52.53-1.2,1.34-3.09,3.74-2.45,5.67-.78.75-1.58.83-2.09.8.82-2.31,1.52-4.66,2.09-7.05l.4-1.78c.86.02,2.11-.35,3.04-1.67,2.26-.06,3.82-3.91,4.1-5.44l.14-.7c.53-2.73.63-5.65.62-5.64Z"/>
        <path class="cls-3" d="m100.39,154.32c-3.53-.03-7.06-.33-10.55-.9-.02-.87-.42-2.07-1.59-3-.05-2.21-3.07-3.9-4.22-4.45l-.54-.24-4.28-1.82s1.25,2.63,2.83,4.72c.11.15.26.33.44.53,1.1,1.25,3.53,3.06,5.31,2.14.77.66.98,1.44,1.03,1.94-2.38-.43-4.73-.99-7.05-1.67l-1.72-.53c.11-.86-.1-2.11-1.12-3.2.29-2.2-2.45-4.32-3.51-5.04l-.5-.32-3.96-2.45s.84,2.79,2.09,5.09c.09.17.21.37.36.59.9,1.4,3.03,3.56,4.92,2.92.67.77.76,1.57.73,2.07-2.28-.78-4.53-1.69-6.71-2.71l-1.62-.79c.24-.83.22-2.1-.63-3.33.62-2.13-1.78-4.64-2.72-5.51l-.45-.39-3.56-3.01s.42,2.88,1.31,5.35c.06.18.15.4.26.64.68,1.52,2.46,3.97,4.43,3.62.54.86.52,1.67.41,2.16-2.14-1.12-4.23-2.35-6.24-3.69l-1.48-1.02c.36-.79.53-2.05-.12-3.39.93-2.01-1.07-4.86-1.87-5.85l-.38-.45-3.07-3.51s-.01,2.91.5,5.48c.04.19.09.41.17.67.45,1.6,1.85,4.29,3.85,4.24.4.94.26,1.72.08,2.2-1.95-1.42-3.83-2.95-5.62-4.58l-1.31-1.23c.47-.73.83-1.95.38-3.37,1.21-1.85-.34-4.96-.98-6.06l-.32-.5-2.52-3.92s-.45,2.88-.32,5.5c0,.19.03.42.07.69.2,1.65,1.19,4.52,3.18,4.76.27.98,0,1.75-.24,2.18-1.72-1.7-3.35-3.49-4.88-5.36l-1.12-1.41c.57-.65,1.11-1.8.87-3.28,1.48-1.65.4-4.96-.07-6.14l-.24-.54-1.9-4.25s-.87,2.78-1.13,5.39c-.02.19-.04.42-.04.69-.04,1.66.51,4.65,2.43,5.18.12,1.01-.26,1.72-.57,2.12-1.45-1.93-2.79-3.95-4.03-6.03l-.9-1.56c.67-.56,1.37-1.62,1.36-3.11,1.71-1.41,1.14-4.84.85-6.08l-.15-.57-1.24-4.49s-1.28,2.61-1.93,5.15c-.05.18-.1.41-.14.67-.29,1.64-.2,4.67,1.63,5.48-.04,1.02-.51,1.67-.88,2.02-1.14-2.13-2.17-4.32-3.08-6.56l-.65-1.67c.74-.45,1.59-1.39,1.81-2.87,1.9-1.14,1.85-4.61,1.76-5.88l-.07-.59-.55-4.62s-1.66,2.39-2.68,4.81c-.08.17-.16.39-.24.65-.54,1.57-.9,4.59.79,5.67-.19,1-.76,1.57-1.17,1.86-.82-2.28-1.5-4.6-2.06-6.95l-.39-1.76c.8-.33,1.78-1.14,2.22-2.57,2.05-.84,2.52-4.28,2.62-5.56l.02-.59.14-4.66s-1.99,2.13-3.37,4.36c-.1.16-.21.37-.33.6-.77,1.48-1.58,4.4-.07,5.72-.34.96-.98,1.44-1.43,1.67-.46-2.37-.79-4.77-1-7.18l-.13-1.79c.84-.21,1.93-.86,2.57-2.21,2.15-.53,3.13-3.87,3.41-5.11l.11-.58.83-4.59s-2.29,1.8-3.97,3.81c-.12.15-.27.33-.42.55-.97,1.35-2.21,4.12-.92,5.65-.48.9-1.19,1.28-1.67,1.43-.1-2.41-.08-4.84.07-7.25.04-.6.08-1.2.14-1.79.86-.08,2.04-.57,2.87-1.81,2.2-.21,3.67-3.36,4.13-4.55l.2-.56,1.5-4.41s-2.53,1.44-4.49,3.17c-.14.12-.31.29-.5.48-1.16,1.18-2.79,3.75-1.74,5.45-.61.82-1.36,1.09-1.86,1.17.25-2.4.64-4.79,1.14-7.16.13-.59.26-1.17.4-1.75.87.04,2.1-.26,3.11-1.36,2.21.12,4.13-2.77,4.76-3.87l.28-.52,2.15-4.13s-2.72,1.04-4.92,2.46c-.16.1-.35.24-.56.4-1.33,1-3.32,3.29-2.54,5.13-.73.72-1.51.88-2.02.88.61-2.34,1.35-4.64,2.21-6.9.21-.56.43-1.12.66-1.67.85.17,2.12.06,3.28-.87,2.17.45,4.5-2.12,5.29-3.12l.35-.48,2.74-3.77s-2.84.63-5.24,1.7c-.17.08-.38.18-.61.31-1.46.79-3.78,2.75-3.28,4.69-.82.6-1.62.64-2.12.57.95-2.22,2.03-4.39,3.22-6.49l.9-1.55c.81.3,2.08.38,3.38-.37,2.08.78,4.76-1.42,5.7-2.29l.42-.42,3.27-3.32s-2.91.2-5.43.91c-.19.05-.41.12-.66.22-1.56.56-4.15,2.15-3.95,4.15-.9.48-1.7.39-2.18.24,1.28-2.05,2.66-4.04,4.15-5.94.36-.48.75-.94,1.12-1.4.76.42,2,.68,3.39.13,1.94,1.08,4.92-.7,5.98-1.42l.47-.35,3.73-2.8s-2.9-.23-5.5.09c-.19.02-.42.06-.68.11-1.63.32-4.42,1.52-4.52,3.52-.96.34-1.74.13-2.2-.08,1.57-1.84,3.23-3.59,4.99-5.26.44-.41.87-.82,1.32-1.22.69.53,1.88.97,3.33.63,1.76,1.35,4.97.04,6.12-.52l.52-.28,4.1-2.21s-2.84-.67-5.46-.73c-.19,0-.42,0-.69.01-1.66.08-4.6.85-4.99,2.81-1,.19-1.74-.13-2.16-.41,1.82-1.59,3.73-3.08,5.71-4.46,1.28.61,2.79.18,4.15-.52,1.37-.7,2.62-1.67,3.25-2.24,2.34-2.18,5.14-4.69,5.15-4.69,0,0-3.78.21-7.07,1.11-.88.22-2.46.85-3.79,1.82-1.33.97-2.39,2.28-2.26,3.7-2.01,1.41-3.95,2.92-5.8,4.53-.22-.45-.44-1.24-.02-2.24,2.04-.1,3.57-2.75,4.38-4.35.12-.25.23-.48.3-.67l2.23-5.62s-2.47,1.54-4.58,3.37l-.54.47c-.58.52-1.53,1.58-2.18,2.77-.65,1.2-.99,2.52-.47,3.51-.68,1.47-.37,2.73.08,3.47-.46.4-.9.82-1.34,1.24-1.78,1.69-3.47,3.47-5.07,5.34-.28-.41-.61-1.15-.35-2.21,2-.4,3.13-3.24,3.69-4.95.08-.27.15-.51.2-.71l1.37-5.89s-2.21,1.9-4.02,4.01l-.46.55c-1.02,1.18-3.05,4.79-1.69,6.6-.46,1.55.04,2.75.59,3.42-.38.47-.77.94-1.14,1.42-1.51,1.93-2.92,3.95-4.22,6.03-.35-.37-.78-1.05-.68-2.13,1.91-.7,2.61-3.67,2.91-5.45.04-.28.07-.53.09-.73l.48-6.03s-1.91,2.2-3.38,4.56l-.38.61c-.84,1.32-2.31,5.2-.69,6.78-.22,1.6.45,2.71,1.09,3.29l-.92,1.58c-1.21,2.14-2.3,4.34-3.27,6.59-.39-.31-.93-.93-.99-2.01,1.79-.98,2.03-4.02,2.07-5.82,0-.28,0-.54-.02-.74l-.42-6.04s-1.56,2.46-2.67,5.02l-.28.66c-.63,1.43-1.51,5.48.33,6.81.02,1.62.85,2.62,1.57,3.09-.23.56-.46,1.13-.67,1.7-.87,2.29-1.62,4.63-2.24,7.01-.43-.25-1.06-.78-1.28-1.84,1.62-1.23,1.4-4.28,1.17-6.07-.04-.28-.09-.53-.13-.73l-1.32-5.91s-1.18,2.67-1.89,5.36c-.07.23-.12.46-.18.7-.4,1.51-.68,5.64,1.35,6.68.27,1.59,1.23,2.46,2.02,2.82-.15.59-.28,1.18-.41,1.78-.52,2.4-.91,4.83-1.16,7.27-.46-.18-1.17-.61-1.54-1.62,1.42-1.46.75-4.44.25-6.17-.08-.27-.16-.51-.23-.7l-2.19-5.64s-.76,2.82-1.06,5.59l-.07.71c-.17,1.55.18,5.68,2.33,6.41.5,1.54,1.58,2.25,2.42,2.48-.06.61-.1,1.21-.14,1.82-.16,2.45-.18,4.91-.08,7.36-.49-.11-1.24-.43-1.76-1.38,1.19-1.65.08-4.5-.67-6.14-.12-.25-.24-.48-.34-.66l-3.01-5.25s-.34,2.9-.22,5.68l.04.71c.06,1.56,1.03,5.58,3.26,5.98.72,1.45,1.9,1.99,2.76,2.1l.13,1.82c.21,2.45.54,4.88,1.01,7.29-.5-.03-1.29-.24-1.95-1.1.93-1.81-.58-4.47-1.57-5.97-.16-.24-.31-.44-.43-.6l-3.75-4.74s.1,2.91.62,5.64l.14.7c.28,1.53,1.84,5.38,4.11,5.44.93,1.32,2.18,1.68,3.04,1.67l.4,1.78c.57,2.39,1.27,4.74,2.09,7.06-.5.04-1.31-.04-2.09-.8.65-1.93-1.25-4.33-2.45-5.67-.19-.21-.37-.39-.52-.53l-4.42-4.14s.53,2.87,1.46,5.5l.24.67c.51,1.48,2.62,5.05,4.88,4.77,1.12,1.17,2.41,1.34,3.26,1.19l.66,1.7c.92,2.28,1.97,4.5,3.13,6.66-.49.11-1.3.15-2.19-.48.35-2.01-1.88-4.09-3.27-5.24-.22-.18-.42-.33-.59-.44l-4.99-3.43s.96,2.76,2.27,5.22l.34.63c.73,1.38,3.36,4.59,5.54,3.98,1.28.99,2.58.96,3.39.69l.91,1.58c1.25,2.11,2.62,4.15,4.09,6.12-.46.18-1.27.35-2.23-.15.05-2.04-2.47-3.77-4.02-4.69-.25-.14-.46-.26-.65-.35l-5.45-2.64s1.36,2.58,3.02,4.82l.43.57c.93,1.25,4,4.04,6.07,3.11,1.41.78,2.69.57,3.46.18l1.13,1.43c1.55,1.9,3.21,3.72,4.95,5.44-.43.25-1.2.53-2.23.19-.26-2.02-3-3.36-4.67-4.04-.26-.1-.5-.19-.69-.25l-5.78-1.8s1.73,2.35,3.7,4.31l.51.5c1.1,1.1,4.55,3.4,6.46,2.17,1.51.57,2.75.16,3.45-.34l1.34,1.24c1.82,1.65,3.72,3.2,5.71,4.65-.39.31-1.11.7-2.18.52-.55-1.96-3.47-2.87-5.22-3.3-.28-.06-.52-.11-.72-.15l-5.98-.92s2.06,2.07,4.3,3.71l.58.42c1.26.93,5.01,2.68,6.71,1.19,1.58.34,2.74-.25,3.36-.85l1.5,1.03c2.04,1.36,4.16,2.62,6.33,3.75-.34.37-.99.86-2.08.83-.84-1.86-3.86-2.32-5.65-2.49-.28-.02-.54-.04-.74-.04l-6.05-.02s2.34,1.74,4.81,3.03l.64.33c1.38.73,5.35,1.91,6.81.18,1.61.1,2.67-.66,3.2-1.34l1.64.8c2.22,1.04,4.5,1.96,6.82,2.75-.28.42-.85,1-1.93,1.14-1.11-1.71-4.16-1.72-5.96-1.62-.28.02-.53.04-.73.07l-5.99.88s2.57,1.37,5.21,2.28l.68.23c1.47.52,5.58,1.09,6.77-.84,1.61-.15,2.54-1.05,2.96-1.8l1.74.54c2.35.69,4.75,1.26,7.16,1.7-.22.45-.69,1.12-1.74,1.41-1.35-1.53-4.37-1.08-6.14-.71-.28.06-.52.12-.71.18l-5.79,1.77s2.75.97,5.49,1.48l.71.12c1.54.29,5.68.24,6.56-1.85,1.57-.39,2.36-1.42,2.66-2.23,3.54.58,7.12.89,10.7.91.29,0,.52-.22.52-.5s-.23-.5-.51-.51Z"/>
        <g>
          <path class="cls-10" d="m56.61,55.67c-1.07.89-1.41,1.22-1.49,1.28-.12.1-.14.1-.25-.02l-.73-.88c-.1-.12-.1-.15.02-.25.07-.06.46-.34,1.53-1.23l3.12-2.6c-.45-.54-.73-.83-1.16-1.19.46-.36.92-.71,1.39-1.01.13-.09.26-.09.3-.04.09.11.12.21.15.33.05.19.22.42.59.86l3.36-2.79c1.07-.89,1.41-1.22,1.49-1.28.11-.09.13-.09.23.03l.73.88c.1.12.1.15-.01.24-.07.06-.46.34-1.53,1.23l-3.36,2.79.62.75,1.9-1.58c1.2-1,1.61-1.38,1.68-1.44.13-.11.16-.11.27.02.06.07.3.41.93,1.17l1.68,2.02c.63.76.92,1.06.98,1.13.1.12.1.14-.04.26-.07.06-.52.39-1.72,1.39l-1.02.85c2.04.04,4.23-.57,6.31-1.56,0,.44.05.85.18,1.28.09.31.13.43.03.51-.06.05-.18.09-.35.15-2.07.75-4.45,1.23-6.66.89,1.27,1.5,2.35,2.65,2.5,2.83.1.12.1.14-.02.25l-1.1.92c-.12.1-.14.1-.25-.02-.15-.18-1.06-1.42-2.29-2.93-.06,2.1-.72,4.17-1.81,6.07-.09.16-.16.28-.22.33-.1.08-.21.05-.49-.09-.42-.21-.78-.29-1.16-.34,1.27-1.89,2.09-3.77,2.31-5.78l-.8.66c-1.2,1-1.61,1.38-1.68,1.44-.12.1-.14.1-.25-.02-.07-.09-.3-.41-.93-1.17l-1.68-2.02c-.63-.76-.92-1.06-.98-1.13-.11-.13-.11-.16.01-.26.07-.06.52-.39,1.72-1.39l1.67-1.39-.62-.75-3.12,2.6Zm5.25-.04l-.71-.86-2.24,1.87.71.86,2.24-1.87Zm1.5,1.8l-.72-.87-2.24,1.87.72.87,2.24-1.87Zm-.94-3.72l.71.86,2.48-2.06-.71-.86-2.47,2.06Zm3.96-.27l-2.47,2.06.72.87,2.48-2.06-.72-.87Z"/>
          <path class="cls-10" d="m71.26,45.45c-1.34.55-1.78.75-1.87.78-.16.07-.18.06-.24-.07l-.47-1.15c-.06-.15-.05-.17.11-.23.09-.04.54-.19,1.88-.74l3.52-1.45-.1-.25c-.25-.62-.43-1-.66-1.31.54-.22,1.06-.4,1.62-.58.14-.04.25-.03.28.06.04.1.03.23.02.35.02.14.07.33.29.86l.1.24,3.71-1.53c1.33-.55,1.77-.76,1.86-.8.15-.06.17-.05.23.09l.47,1.15c.05.13.05.15-.1.21-.09.04-.55.21-1.88.75l-8.79,3.61Zm7.12-1.72c1.43-.59,1.92-.82,2.02-.87.15-.06.17-.05.23.09.04.09.13.41.46,1.21l.66,1.61c.32.78.48,1.09.52,1.18.06.15.05.17-.1.23-.1.04-.62.22-2.05.81l-1.49.61.61,1.49c.28.68.58,1.29.81,1.84.27.66.3,1.03.06,1.49-.21.4-.59.66-1.98,1.23-.44.2-.46.22-.76-.21-.26-.39-.55-.67-.9-.89.57-.17.94-.28,1.39-.47.52-.21.6-.44.45-.8l-1.25-3.04-1.65.68c-1.42.58-1.92.82-2.01.86-.16.07-.18.06-.24-.09-.04-.1-.14-.42-.46-1.21l-.66-1.61c-.33-.79-.48-1.08-.52-1.18-.06-.15-.05-.17.11-.23.09-.04.62-.22,2.03-.8l4.7-1.93Zm-4.24,8.12c.08-.31.12-.71.09-1,.47.01,1.07.04,1.53.11.15.03.24.07.28.18.05.12,0,.22-.07.32-.09.11-.15.25-.23.56-.25,1.02-.69,2.13-1.45,3.3-.13.19-.2.31-.28.34-.1.04-.21-.02-.44-.18-.34-.24-.75-.41-1.09-.47.84-1.1,1.36-2.11,1.66-3.16Zm5.43-7.04l-5.98,2.46.65,1.59,5.98-2.46-.65-1.59Zm1.73,3.29c.13-.18.17-.17.31-.08,1.24.75,2.64,1.19,4.26,1.3-.21.38-.31.75-.38,1.26-.05.3-.07.42-.17.47-.07.03-.2.01-.41-.04-1.56-.32-3-.92-4.25-1.75-.14-.1-.11-.14,0-.31l.65-.85Z"/>
          <path class="cls-10" d="m90.87,39.41c.16-.39.3-.76.45-1.16.17-.46.27-.89.34-1.39.47.15,1.05.41,1.36.61.16.09.23.15.24.24.01.11-.07.2-.14.26-.2.19-.3.41-.43.81-.3.81-.64,1.57-1.03,2.28.93-.12,1.34-.19,1.4-.19.17-.02.19-.02.21.13l.13,1.06c.02.16,0,.18-.17.2-.08,0-.57.04-2.01.22l-.49.06c-.34.49-.7.96-1.1,1.42l1.53-.19c.9-.11,1.32-.2,1.42-.21.17-.02.19,0,.21.17.01.09.04.56.24,2.17l.2,1.6c.28,2.21.37,2.63.38,2.75.02.14,0,.16-.17.18l-1.15.15c-.16.02-.18,0-.19-.14l-.07-.55-2.62.33.08.66c.02.16.02.17-.15.2l-1.19.15c-.16.02-.18,0-.2-.15-.01-.09-.04-.57-.32-2.75l-.27-2.1c-.21.21-.45.39-.68.58-.12.1-.21.15-.28.17-.11.01-.22-.07-.34-.31-.17-.3-.37-.55-.64-.75,1.33-.92,2.45-1.96,3.38-3.11l-1.2.15c-1.44.18-1.92.28-2.02.29-.17.02-.19,0-.21-.15l-.13-1.06c-.02-.16,0-.16.17-.18.09-.01.59-.06,2.03-.24l.6-.08-.2-1.57-.38.05c-1.12.14-1.48.22-1.58.23-.16.02-.18,0-.2-.13l-.13-1.04c-.02-.16,0-.18.15-.2.09-.01.46-.03,1.59-.17l.38-.05v-.06c-.13-.98-.2-1.4-.37-1.96.57-.06,1.04-.07,1.58-.09.16,0,.27.06.28.14.02.13-.02.23-.05.34-.07.2-.03.44.09,1.34v.09c.9-.11,1.26-.19,1.35-.2.16-.02.18,0,.2.15l.13,1.01Zm-2.07,5.96l.14,1.11,2.62-.33-.14-1.11-2.62.33Zm3.07,3.19l-.15-1.2-2.62.33.15,1.2,2.62-.33Zm-2.3-7.24l.32-.04c.33-.52.63-1.09.88-1.67h-.05c-.09.02-.46.03-1.35.14l.2,1.56Zm7.71-5.21c.21-.03.35-.06.41-.1.09-.04.15-.07.23-.08.13-.02.26.03.72.39.38.34.45.47.46.6s-.04.21-.12.3c-.08.09-.15.24-.24.62-.3,1.28-.61,2.41-1,3.61,1.8,1.25,2.23,2.16,2.4,3.46.21,1.64-.62,2.63-2.44,3.04q-.5.11-.64-.4c-.12-.45-.33-.79-.56-.99,1.49-.16,2.15-.64,2.03-1.57-.12-1-.59-1.72-2.46-3.06.48-1.43.82-2.8,1.11-4.35l-2.15.27,1.12,8.85c.27,2.12.44,3.22.45,3.3.02.16,0,.18-.15.2l-1.26.16c-.17.02-.19,0-.21-.15-.01-.1-.11-1.14-.38-3.29l-.86-6.83c-.27-2.17-.44-3.22-.45-3.33-.02-.16,0-.18.17-.2.1-.01.53-.04,1.41-.15l2.45-.31Z"/>
          <path class="cls-10" d="m101.71,39.77c.41-2.16,1.97-3.24,3.96-3.11,2.18.14,3.55,1.42,3.41,3.51-.09,1.35-.74,2.33-2.72,3.94-1.77,1.38-2.62,2.22-3.18,3.17l5.45.36-.1,1.59-7.52-.5.09-1.42c.81-1.45,1.92-2.72,3.76-4.27,1.69-1.42,2.08-2.03,2.15-3.04.07-1.06-.51-1.73-1.48-1.79-1-.07-1.67.64-1.86,2.08l-1.96-.54Z"/>
          <path class="cls-10" d="m111.13,39.79c.8-1.59,2.33-2.2,4.14-1.82,2.17.45,3.31,2.01,2.94,3.74-.29,1.4-1.35,2.26-2.84,2.2l-.02.11c1.54.68,2.21,1.95,1.88,3.52-.44,2.11-2.27,3.22-4.55,2.74-1.96-.41-3.09-1.48-3.24-3.43l2.04-.16c.01,1.26.47,1.86,1.5,2.07,1.12.23,1.98-.37,2.25-1.63.28-1.36-.19-2.29-1.86-2.63l-.9-.19.33-1.59.83.17c1.56.33,2.32-.21,2.58-1.41.23-1.09-.29-1.8-1.29-2.01-.83-.17-1.6.2-2,1.29l-1.8-.98Z"/>
          <path class="cls-10" d="m119.76,50.54l8.48,3.75c1.41.62,1.92.81,2.01.85.15.06.15.08.09.23l-.52,1.17c-.06.14-.08.15-.23.09-.09-.04-.57-.29-1.98-.91l-8.48-3.75-.28.63c-.06.15-.08.15-.25.08l-1.24-.55c-.14-.06-.15-.08-.09-.23.04-.09.51-1.07,1.38-3.05l2.78-6.3c.88-2,1.29-2.99,1.32-3.07.07-.16.09-.17.24-.1.09.04.57.29,1.94.89l7.84,3.46c1.36.6,1.83.78,1.92.81.16.07.17.09.1.25l-.51,1.15c-.06.15-.09.15-.25.08-.09-.04-.54-.27-1.9-.87l-8.38-3.7-4.01,9.08Zm5.57-6.58c.19-.07.21-.08.3.06.69,1.04,1.35,2.15,2,3.32.63-.37,1.26-.8,1.89-1.32.38-.32.72-.68.93-1,.43.36.79.73,1.15,1.17.11.14.16.23.11.34-.04.1-.15.14-.29.19-.19.07-.38.23-.7.49-.8.62-1.56,1.16-2.34,1.59.56,1.1,1.08,2.24,1.6,3.43.05.09.06.15.04.19-.02.04-.07.09-.2.14l-1.19.52c-.09.05-.16.05-.21.03-.04-.02-.08-.05-.1-.13-.44-1.21-.93-2.35-1.44-3.44-1.43.6-2.97.97-4.8,1.13-.21,0-.33.03-.41,0-.1-.05-.13-.18-.18-.46-.07-.4-.21-.77-.44-1.13,1.99-.08,3.62-.39,5.13-1.01-.61-1.18-1.26-2.31-1.95-3.44-.05-.08-.06-.13-.05-.16.02-.04.09-.08.19-.12l.95-.38Z"/>
          <path class="cls-10" d="m142.51,52.1c.59-.67.95-1.12,1.26-1.61.43.4.89.85,1.25,1.26.1.11.15.24.08.32-.07.08-.17.15-.27.19-.19.09-.45.32-.95.88l-.79.9,2.32,2.05c1.15,1.01,1.56,1.34,1.64,1.41.12.11.12.13.02.25-.06.07-.41.42-1.33,1.46l-1.22,1.38c-1.69,1.91-1.97,2.28-2.04,2.35-.11.12-.13.12-.25.01l-1.01-.9c-.12-.11-.12-.13-.01-.25l.44-.5-2.79-2.47-1.3,1.47c-1.26,1.42-1.88,2.17-1.93,2.23-.11.12-.13.12-.25.02l-1.06-.94c-.12-.11-.12-.13-.02-.25.06-.07.71-.75,1.96-2.16l1.32-1.49-2.64-2.33-.49.55c-.12.13-.14.13-.26.03l-1.01-.9c-.12-.11-.12-.13,0-.26.06-.07.4-.41,2.09-2.32l1.09-1.23c1.08-1.22,1.39-1.62,1.45-1.69.11-.12.13-.12.25-.02.08.07.45.45,1.6,1.46l2.16,1.91.71-.8Zm-6.57,2.11l2.64,2.33,2.2-2.48-2.64-2.33-2.2,2.48Zm6.11.98l-2.2,2.48,2.79,2.47,2.2-2.48-2.79-2.47Z"/>
        </g>
      </g>
    </g>
  </g>
</svg>