<?xml version="1.0" encoding="UTF-8"?>
<svg id="_レイヤー_2" data-name="レイヤー 2" xmlns="http://www.w3.org/2000/svg" viewBox="0 0 91.03 197.53">
  <defs>
    <style>
      .cls-1 {
        fill: #f9e3a7;
      }

      .cls-2 {
        fill: #ecaa8b;
      }

      .cls-3 {
        fill: #fff;
      }

      .cls-4 {
        fill: #e4e4e4;
      }

      .cls-5 {
        fill: #a05623;
      }

      .cls-6 {
        fill: #9dbbde;
      }

      .cls-7 {
        fill: #913a23;
      }

      .cls-8 {
        fill: #db5439;
      }

      .cls-9 {
        fill: #da4731;
      }

      .cls-10 {
        fill: #e0cbd3;
      }

      .cls-11 {
        fill: #221714;
      }
    </style>
  </defs>
  <g id="_レイヤー_1-2" data-name="レイヤー 1">
    <g>
      <g>
        <path class="cls-3" d="m22.89,107.3l-6.87,80.45,9.35,1.5,11-78.95-6.6,76.94,8.52.25s12.1-70.18,9.89-80.45l-25.29.25Z"/>
        <path class="cls-6" d="m25.36,189.55s-.03,0-.05,0l-9.35-1.5c-.15-.02-.26-.16-.24-.31l6.87-80.45c.01-.15.14-.27.29-.27l25.29-.25c.13,0,.26.09.29.23,2.19,10.21-9.4,77.69-9.89,80.56-.03.14-.15.25-.3.24l-8.52-.25c-.08,0-.16-.04-.21-.1-.05-.06-.08-.14-.07-.22l5.66-65.98-9.48,68.05c-.01.08-.05.15-.12.2-.05.04-.11.06-.17.06Zm-9.03-2.04l8.79,1.41,10.96-78.65c.02-.15.16-.26.32-.25.16.02.27.16.26.31l-6.57,76.63,7.96.23c.78-4.56,11.78-69.3,9.9-79.86l-24.78.25-6.83,79.92Z"/>
      </g>
      <g>
        <path class="cls-3" d="m23.39,55.02l-5.61,59.64,32.54-2.83s3.29-54.66-4.43-58.59l-5.61-.38-.55-1.4-9.57.16-6.75,3.39Z"/>
        <path class="cls-6" d="m17.78,114.95c-.08,0-.15-.03-.21-.09-.06-.06-.09-.15-.08-.23l5.61-59.64c0-.1.07-.19.16-.23l6.75-3.39s.08-.03.13-.03l9.57-.16h0c.12,0,.23.07.27.18l.49,1.23,5.43.37s.08.01.11.03c3.3,1.68,5.08,12.12,5.27,31.02.14,14-.67,27.7-.68,27.84,0,.14-.12.26-.27.27l-32.54,2.82s-.02,0-.03,0Zm5.89-59.75l-5.56,59.14,31.94-2.77c.11-1.93.79-14.61.66-27.55-.23-23.07-2.78-29.33-4.9-30.48l-5.55-.37c-.11,0-.21-.08-.25-.18l-.48-1.21-9.3.15-6.55,3.29Z"/>
      </g>
      <path class="cls-3" d="m23.99,62.82s-14.15,11.2-16.92,12.83c-2.77,1.63,10.3,9.8,10.3,9.8l-1.98,2.04s-10.43-4.08-14.79-8.16c-4.36-4.08,22.88-24.32,22.88-24.32l.51,7.82Z"/>
      <path class="cls-6" d="m15.55,87.61s-.07,0-.11-.02c-.03,0-2.66-1.04-5.78-2.56-4.21-2.04-7.27-3.95-9.1-5.66-.41-.38-.6-.89-.56-1.52.34-6,22.53-22.55,23.47-23.25.13-.1.31-.07.41.06.09.13.07.31-.06.41-.06.04-5.81,4.33-11.54,9.28-7.52,6.51-11.57,11.19-11.7,13.54-.03.45.1.8.38,1.06,3.96,3.71,13.12,7.47,14.52,8.03l1.59-1.65c-1.98-1.26-10.55-6.82-10.52-9.23,0-.37.19-.67.53-.87,2.72-1.61,16.75-12.69,16.89-12.81.12-.1.31-.08.41.05.1.12.08.31-.05.41-.58.46-14.2,11.23-16.95,12.85-.21.12-.24.27-.24.38,0,.52.66,1.9,5.21,5.28,2.63,1.95,5.31,3.63,5.34,3.64.08.05.12.12.13.21.01.09-.02.17-.08.24l-1.98,2.04c-.06.06-.13.09-.21.09Z"/>
      <path class="cls-2" d="m17.37,85.44s9.52,2.87,7.13,4.49c-1.5,1.02.08,1.02.08,1.02,0,0,.55.41-2.46,2.65-2.74,2.04-4.75,2.45-3.17,1.23,1.59-1.23,3.96-4.49,2.78-4.49s-6.34-2.86-6.34-2.86l1.98-2.04Z"/>
      <path class="cls-3" d="m47.98,61.5c3.88,1.08,14.68,14.45,17.05,14.86,2.38.41,4.75-15.1,4.75-15.1l-4.75-.82-.79,10.61s-8.72-11.84-10.7-14.7c-1.98-2.86-7.64-3.09-7.64-3.09l2.07,8.24Z"/>
      <path class="cls-6" d="m64.94,76.71s-.1,0-.14-.01c-1.12-.19-3.47-2.53-7.21-6.33-3.68-3.74-7.85-7.97-9.88-8.54-.16-.04-.25-.2-.2-.36.04-.16.2-.25.36-.2,2.18.61,6.23,4.71,10.14,8.69,2.9,2.95,5.9,5.99,6.89,6.16.03,0,.13.02.29-.09,1.68-1.21,3.47-10.6,4.09-14.48l-4.16-.71-.77,10.29c0,.12-.09.22-.21.26-.12.04-.24,0-.31-.11-.09-.12-8.74-11.87-10.7-14.7-1.88-2.71-7.36-2.96-7.41-2.97-.16,0-.28-.14-.28-.3,0-.16.15-.28.3-.28.06,0,1.46.06,3.14.48,2.28.57,3.87,1.49,4.73,2.73,1.69,2.44,8.39,11.56,10.23,14.05l.73-9.83c0-.08.05-.16.11-.21.07-.05.15-.07.23-.06l4.75.82c.16.03.26.17.24.33-.21,1.38-2.13,13.54-4.36,15.15-.19.14-.39.21-.58.21Z"/>
      <path class="cls-2" d="m66.22,61.66l1.59-.82,1.19-5.71s9.91-2.86,11.49-4.9c1.58-2.04-3.96.41-1.19-1.23,2.77-1.63-9.11,4.49-12.68,5.31-3.57.82-1.58,6.12-1.58,6.12l1.19,1.22Z"/>
      <path class="cls-1" d="m66.03,47.78l-1.8-11.02s19.07-.82,19.79.81c.72,1.63-1.44,9.39-1.44,9.39l-16.55.82Z"/>
      <path class="cls-4" d="m91.03,47.45c-1.98-.41-29.72.41-29.72.41,0,0,1.95,2.51,2.34,2.51s23.01-1.72,23.01-1.72l4.37-1.19Z"/>
      <path class="cls-9" d="m67.73,35.05c-1.38-.89-1.68-3.63-2.37.07-.69,3.7,3.59.71,2.37-.07Z"/>
      <path class="cls-9" d="m71.95,33.62c-1.63-.11-3.15-2.38-2.06,1.22,1.09,3.59,3.49-1.12,2.06-1.22Z"/>
      <path class="cls-9" d="m77.21,34.56c-1.16-1.18-.89-3.92-2.33-.46-1.45,3.46,3.35,1.49,2.33.46Z"/>
      <path class="cls-9" d="m82.03,34.48c-1.17-1.18-.88-3.92-2.34-.46-1.45,3.45,3.35,1.49,2.34.46Z"/>
      <polygon class="cls-3" points="66.65 40.03 83 39.62 82.68 42.88 67.29 43.29 66.65 40.03"/>
      <polygon class="cls-2" points="30.02 43.42 31.14 53.65 36.72 53.24 36.37 44.41 30.02 43.42"/>
      <path class="cls-2" d="m43.07,40.85c.26,4.12-4.37,8.07-11.93,4.66-8.01-3.61-6.13-12.12-6.13-12.12l10.61-9.02s.45,6.59,8.56,9.54l-1.56,3.06s.25.75.45,3.89Z"/>
      <path class="cls-5" d="m37.62,22.48l-7.73,12.99s-2.12-1.37-2.76.95c-.64,2.32.92,3.15.92,3.15l-.49,3.49s-10.18-9.09-1.4-17.51c4.83-4.63,11.45-3.06,11.45-3.06Z"/>
      <path class="cls-5" d="m22.26,33.77s-3.02-4.15-4.87.48c-1.85,4.63.46,7.73-.46,8.89-.93,1.16-3.71,0-3.71,0,0,0,2.78,3.86,6.03,2.32,1.87-.89,1.72-5.71,1.93-8.8.15-2.28,1.09-2.88,1.09-2.88Z"/>
      <g>
        <path class="cls-3" d="m22.4,31.96s-.97-20.08-1.61-21.63c-.65-1.54-6.46-2.7-3.23-4.25,3.23-1.54,6.13-2.32,6.13-2.32,0,0,2.26-3.48,3.23-3.48s5.17,1.16,5.17,1.16c0,0,5.16,0,5.16,1.54s-.64,3.09-.64,3.09l1.61,23.17-15.82,2.7Z"/>
        <path class="cls-6" d="m22.4,32.25c-.06,0-.13-.02-.18-.06-.07-.05-.11-.13-.11-.21-.27-5.57-1.08-20.3-1.59-21.53-.2-.49-1.18-1.01-2.03-1.48-1.18-.64-2.21-1.19-2.19-1.95.01-.59.66-.96,1.13-1.19,2.87-1.37,5.52-2.15,6.08-2.31.62-.94,2.4-3.52,3.41-3.52s4.76,1.04,5.21,1.16c.23,0,1.4.02,2.59.2,1.9.28,2.83.82,2.83,1.64,0,1.42-.52,2.82-.64,3.14l1.61,23.11c.01.15-.09.28-.24.31l-15.82,2.7s-.03,0-.05,0ZM26.92.58c-.5,0-1.94,1.74-2.98,3.34-.04.06-.1.1-.17.12-.03,0-2.92.79-6.08,2.3-.51.24-.8.49-.81.68,0,.41,1.04.97,1.88,1.43,1.04.56,2.01,1.09,2.29,1.76.62,1.48,1.49,18.7,1.62,21.4l15.23-2.6-1.59-22.91s0-.09.02-.13c0-.01.62-1.51.62-2.98,0-.45-.85-.84-2.33-1.06-1.26-.19-2.53-.19-2.54-.19-.03,0-.05,0-.08-.01-1.16-.32-4.32-1.15-5.09-1.15Z"/>
      </g>
      <path class="cls-8" d="m41.51,43.06c-.54,0-1.24-.21-1.69-.98-.1-.16-.04-.37.12-.46.16-.1.37-.04.47.12.51.87,1.38.62,1.42.61.18-.05.37.05.42.23.05.18-.05.37-.23.43-.13.04-.31.07-.51.07Z"/>
      <path class="cls-9" d="m67.89,40.3s-.9,2.78.64,2.78,2.45-2.25,2.45-2.25l-3.09-.53Z"/>
      <path class="cls-9" d="m75.99,42.82s.9-2.52,2.31-1.98c1.42.53,1.8,1.98,1.8,1.98h-4.11Z"/>
      <path class="cls-6" d="m25.22,8.8c-.39,0-.71-.32-1.11-.72-.37-.37-.83-.83-1.46-1.13-.14-.07-.21-.24-.14-.39.07-.15.24-.21.39-.14.71.34,1.21.84,1.62,1.24.27.27.55.55.7.55h0s.11-.03.17-.11c.11-.12.29-.12.41,0,.12.11.12.3,0,.41-.18.19-.38.28-.59.28h0Z"/>
      <path class="cls-6" d="m30.48,7.5c-.15,0-.27-.04-.36-.08-.57-.27-.7-1.11-.71-1.2-.02-.16.09-.31.25-.33.16-.02.3.09.33.25.03.2.16.65.39.76.11.05.25.02.43-.09.14-.08.32-.04.4.1.08.14.04.32-.1.4-.24.14-.45.19-.62.19Z"/>
      <path class="cls-7" d="m33.59,31.32s-.08,0-.11-.02c-.15-.06-.23-.24-.16-.39.04-.09.91-2.14,2.62-2.59.94-.25,1.92.02,2.94.81.13.1.15.29.05.42-.1.13-.29.15-.42.05-.86-.66-1.67-.9-2.41-.71-1.43.38-2.22,2.23-2.23,2.25-.05.12-.16.18-.28.18Z"/>
      <path class="cls-10" d="m35.26,189.26s21.16,8.52,13.19,6.77c-7.97-1.75-17.87-4.01-17.87-4.01l.55-2.76h4.12Z"/>
      <path class="cls-10" d="m23.71,189.76s12.1,8.02,10.17,7.77c-1.92-.25-16.49-3.26-16.49-3.26v-4.26l6.32-.25Z"/>
      <path class="cls-11" d="m38.84,34.89c.22.28.62.32.9.08.28-.24.32-.66.1-.95-.22-.28-.62-.32-.9-.08-.28.24-.32.66-.1.95Z"/>
      <g>
        <path class="cls-3" d="m44.28,57.07c0,.5-.41.91-.92.91s-.92-.41-.92-.91.41-.91.92-.91.92.41.92.91Z"/>
        <path class="cls-6" d="m43.36,58.26c-.67,0-1.21-.54-1.21-1.2s.54-1.2,1.21-1.2,1.21.54,1.21,1.2-.54,1.2-1.21,1.2Zm0-1.81c-.35,0-.63.28-.63.62s.28.62.63.62.63-.28.63-.62-.28-.62-.63-.62Z"/>
      </g>
      <g>
        <path class="cls-3" d="m29.46,59.28c0,.5-.41.91-.92.91s-.92-.41-.92-.91.41-.91.92-.91.92.41.92.91Z"/>
        <path class="cls-6" d="m28.54,60.48c-.67,0-1.21-.54-1.21-1.2s.54-1.2,1.21-1.2,1.21.54,1.21,1.2-.54,1.2-1.21,1.2Zm0-1.81c-.35,0-.63.28-.63.62s.28.62.63.62.63-.28.63-.62-.28-.62-.63-.62Z"/>
      </g>
      <g>
        <path class="cls-3" d="m46.33,67.33c0,.5-.41.91-.92.91s-.92-.41-.92-.91.41-.91.92-.91.92.41.92.91Z"/>
        <path class="cls-6" d="m45.41,68.53c-.67,0-1.21-.54-1.21-1.2s.54-1.2,1.21-1.2,1.21.54,1.21,1.2-.54,1.2-1.21,1.2Zm0-1.81c-.35,0-.63.28-.63.62s.28.62.63.62.63-.28.63-.62-.28-.62-.63-.62Z"/>
      </g>
      <g>
        <path class="cls-3" d="m46.94,77.7c0,.5-.41.91-.92.91s-.92-.41-.92-.91.41-.91.92-.91.92.41.92.91Z"/>
        <path class="cls-6" d="m46.02,78.9c-.67,0-1.21-.54-1.21-1.2s.54-1.2,1.21-1.2,1.21.54,1.21,1.2-.54,1.2-1.21,1.2Zm0-1.81c-.35,0-.63.28-.63.62s.28.62.63.62.63-.28.63-.62-.28-.62-.63-.62Z"/>
      </g>
      <g>
        <path class="cls-3" d="m47.35,87.47c0,.5-.41.91-.92.91s-.92-.4-.92-.91.41-.91.92-.91.92.41.92.91Z"/>
        <path class="cls-6" d="m46.43,88.66c-.67,0-1.21-.54-1.21-1.2s.54-1.2,1.21-1.2,1.21.54,1.21,1.2-.54,1.2-1.21,1.2Zm0-1.81c-.35,0-.63.28-.63.62s.28.62.63.62.63-.28.63-.62-.28-.62-.63-.62Z"/>
      </g>
      <g>
        <path class="cls-3" d="m30.99,69.65c.04.5-.33.94-.84.98-.51.04-.95-.33-1-.83-.04-.5.33-.94.84-.98.51-.04.95.32,1,.82Z"/>
        <path class="cls-6" d="m30.08,70.92c-.62,0-1.15-.47-1.21-1.09-.03-.31.07-.62.28-.87.21-.25.5-.4.83-.43.67-.06,1.25.43,1.31,1.09h0c.03.31-.07.62-.27.87-.21.25-.5.4-.83.43-.04,0-.07,0-.1,0Zm0-1.81s-.04,0-.05,0c-.17.01-.32.09-.43.22-.11.12-.15.28-.14.44.03.34.34.59.68.56.17-.01.32-.09.43-.22.11-.12.16-.28.14-.44h0c-.03-.32-.3-.56-.63-.56Z"/>
      </g>
      <g>
        <path class="cls-3" d="m32.39,79.73c.04.5-.33.94-.84.98-.51.04-.95-.33-1-.82-.04-.5.33-.94.84-.98.51-.04.95.33,1,.82Z"/>
        <path class="cls-6" d="m31.48,81c-.62,0-1.15-.47-1.21-1.09-.03-.31.07-.62.28-.87.21-.25.5-.4.83-.43.67-.06,1.25.43,1.31,1.09h0c.03.32-.07.62-.28.87-.21.25-.5.4-.83.43-.04,0-.07,0-.1,0Zm0-1.81s-.04,0-.05,0c-.17.02-.32.09-.43.22-.1.12-.16.28-.14.44.03.34.34.59.68.56.17-.01.32-.09.43-.22.1-.12.15-.28.14-.44h0c-.03-.32-.3-.56-.63-.56Z"/>
      </g>
      <g>
        <path class="cls-3" d="m33.65,89.58c.04.5-.33.94-.84.98-.51.04-.95-.33-1-.82-.04-.5.33-.94.84-.98.51-.04.95.33,1,.82Z"/>
        <path class="cls-6" d="m32.73,90.85c-.62,0-1.15-.47-1.21-1.09-.03-.32.07-.62.28-.87.21-.25.5-.4.83-.43.67-.05,1.25.43,1.31,1.09h0c.03.32-.07.62-.28.87-.21.25-.5.4-.83.43-.04,0-.07,0-.1,0Zm0-1.81s-.04,0-.05,0c-.17.01-.32.09-.43.22-.1.12-.16.28-.14.44.03.34.34.59.68.56.17-.01.32-.09.43-.22.11-.12.15-.28.14-.44h0c-.03-.32-.3-.56-.63-.56Z"/>
      </g>
      <path class="cls-9" d="m29.27,47.97l6.2,13.43,2.77-.82.2-10.88s2.57,8.03,2.57,14.56l1.98,16.33-2.38-.41-1.58-13.47s-1.64-1.52-5.15-3.27c-7.39-3.67-6.59-11.39-4.61-15.47Z"/>
    </g>
  </g>
</svg>