<svg xmlns="http://www.w3.org/2000/svg" width="795.42" height="152.4" viewBox="0 0 795.42 152.4">
  <g id="mv03-text" transform="translate(-161.92 -101.34)">
    <path id="パス_33" data-name="パス 33" d="M15.78-36.78c2.16-4.02,3.12-6,4.02-7.92,1.32-.36,2.52-.72,2.52-1.8,0-.48-.36-.78-.84-1.08l-5.4-3.12a21.831,21.831,0,0,1-.6,3.54c-.72,2.7-4.98,14.04-13.56,26.52l.36.24a43.372,43.372,0,0,0,9.48-9.84c-.12,11.28-.18,17.04-.24,19.32,0,2.16-.66,13.32-.66,13.74,0,1.44.6,2.04,2.1,2.04,2.52,0,3.06-1.5,3.06-3.78,0-.84-.06-2.52-.12-3.84-.18-4.44-.36-14.88-.36-23.4,0-3.9,0-5.4.12-7.44,1.08-.78,1.62-1.26,1.62-1.74a1.211,1.211,0,0,0-.66-.9ZM54.3-35.52c.3,0,.9-.06.9-.66a1.358,1.358,0,0,0-.6-.9l-3.9-3c-.42-.3-.84-.66-1.08-.66-.42,0-.66.36-1.02.9l-2.16,2.88H28.14c-.66,0-4.26,0-9.18-.42l1.2,2.4a42.516,42.516,0,0,1,7.02-.54H33.9V-20.4H30.72c-2.94,0-6.3-.12-9.24-.42l1.2,2.4a42.726,42.726,0,0,1,7.08-.54H33.9V-.72H26.52c-2.94,0-6.24-.12-9.18-.36l1.14,2.34A43.766,43.766,0,0,1,25.56.72H56.22c.36,0,.9,0,.9-.66,0-.36-.36-.66-.6-.9L53.04-3.9c-.36-.3-.78-.66-1.08-.66s-.66.42-.96.78L48.42-.72H38.16V-18.96h14.4c.36,0,.9,0,.9-.66a1.423,1.423,0,0,0-.6-.9l-3.84-2.76a2.847,2.847,0,0,0-1.08-.6c-.36,0-.78.48-.96.72L44.94-20.4H38.16V-35.52ZM30.12-49.8a29.114,29.114,0,0,1,3.72,7.86c.48,1.92.96,3.6,3,3.6,1.86,0,2.46-1.5,2.46-2.88,0-4.74-6.24-7.74-8.88-8.94Zm77.82,10.68c0-1.32-2.46-2.4-3.66-2.4a3.879,3.879,0,0,0-1.2.24c-3.12,1.08-6.6,2.28-9.36,2.94a17.082,17.082,0,0,1,.72-3.48c.78-2.22.84-2.46.84-3.18,0-1.98-3.42-3.9-6.24-3.9a4.451,4.451,0,0,0-3.54,1.38c4.02,1.5,4.62,2.16,4.62,4.86,0,.42-.12,4.26-.12,5.1a91.927,91.927,0,0,1-11.4,1.2,18.425,18.425,0,0,1-8.34-1.74c1.5,3.3,3.9,4.74,8.88,4.74a80.852,80.852,0,0,0,10.74-.84c-.18,4.86-.18,5.94-.18,8.94a59.049,59.049,0,0,1-8.7.72c-1.86,0-3.06-.06-3.06-1.08a3.6,3.6,0,0,1,1.02-2.1c-2.4.3-3.9,2.1-3.9,3.36,0,2.28,2.82,2.88,6.18,2.88a80.182,80.182,0,0,0,8.52-.54,114.655,114.655,0,0,0,.78,11.82,27.722,27.722,0,0,0-3.48-.18c-5.94,0-13.02,1.5-13.02,6.36,0,3.12,4.26,6.36,10.44,6.36,5.64,0,9.84-2.04,10.26-7.68a35.248,35.248,0,0,1,7.56,4.02C104.34.12,104.52.24,105.24.24c1.44,0,1.86-1.44,1.86-2.22,0-3.24-6.96-6.48-12.6-7.5a73.5,73.5,0,0,1-1.32-13.08,105.375,105.375,0,0,0,10.68-2.4c.6-.24,1.26-.54,1.26-1.44,0-1.5-2.34-2.16-3.42-2.16a3.693,3.693,0,0,0-1.08.18c-1.08.36-6.3,2.1-7.5,2.4-.06-2.46,0-6.36.18-8.7a82.728,82.728,0,0,0,13.56-3A1.484,1.484,0,0,0,107.94-39.12ZM90.54-6.6a4.431,4.431,0,0,1-1.92,4.2A11.549,11.549,0,0,1,82.74-.96c-4.74,0-6.6-1.68-6.6-2.88,0-2.28,3.96-3.48,8.4-3.48C88.38-7.32,89.7-6.9,90.54-6.6Zm67.8-35.1c0-1.86-2.34-3.78-6.54-4.92-7.14-1.86-9.24-2.46-12-5.04a4.24,4.24,0,0,0,1.2,3.12c1.92,2.58,3.36,3.18,6.96,4.86.66.3.96.54.96.9,0,.6-.12.72-3.36,3.84l.18.18a17.346,17.346,0,0,1,6.3-1.8c.66,0,3.72.48,4.38.48C157.38-40.08,158.34-40.32,158.34-41.7Zm4.98,21.3c0-4.38-1.44-12.96-10.38-12.96-3.78,0-6.48,1.26-11.76,4.32-3.84,2.22-4.2,2.22-4.98,2.22-1.62,0-2.52-1.02-3.72-2.46a7.553,7.553,0,0,0-.24,1.62,6.463,6.463,0,0,0,6.06,6.42c1.26,0,1.98-.9,4.44-3.96,2.52-3.18,6.42-6.24,9.78-6.24,4.98,0,6.12,6.66,6.12,10.56a32.24,32.24,0,0,1-14.28,26.4l.3.36C155.7,1.68,163.32-8.52,163.32-20.4ZM237.66-1.68A32.578,32.578,0,0,1,221.4-13.74c-5.58-7.98-8.76-20.58-9.18-31.02.6-.18,1.56-.54,1.56-1.5,0-.48-.18-.6-1.2-.84l-7.26-1.86a12.285,12.285,0,0,1,.54,4.56c0,6.72-.96,19.44-5.28,28.38-2.82,5.82-9.06,13.98-16.38,18.36l.24.48c21.42-7.74,25.38-26.76,25.98-47.16.3-.06.42-.06.66-.12.3,14.7,2.34,21.96,4.38,27.3,3.06,8.1,7.98,15.6,15.36,20.16a10.492,10.492,0,0,1,6.78-4.2Zm56.82-27.24c0-6.18-6-8.58-10.38-8.58a39.257,39.257,0,0,0-11.82,2.52,71.108,71.108,0,0,0-11.7,5.46c-2.82-4.38-3.18-4.98-3.18-5.88,0-2.34,3.36-2.34,5.46-2.34a27.87,27.87,0,0,1,6.42.6,7.819,7.819,0,0,0,2.64.66c.6,0,1.56-.42,1.56-1.92,0-4.32-6.12-6.84-10.02-6.84a11.086,11.086,0,0,0-2.64.36c1.92.96,6.48,3.12,6.48,4.8a.649.649,0,0,1-.42.66c-.18.06-7.56.72-8.16.78-2.46.18-5.22.42-5.22,3.36a5.465,5.465,0,0,0,.96,2.82c.42.72,2.76,3.84,3.3,4.56-7.62,4.26-7.86,4.38-9,4.38-1.32,0-2.76-1.56-3.36-2.16a2.837,2.837,0,0,0-.42,1.56,5.648,5.648,0,0,0,5.34,5.34,3.878,3.878,0,0,0,2.64-1.2,44.765,44.765,0,0,1,6.6-5.22A95.611,95.611,0,0,1,269.88-3.48c1.56,4.86,1.8,5.64,3.36,5.64,1.08,0,2.34-.84,2.34-2.82,0-5.22-6.12-14.94-13.38-26.28,11.22-6.78,18.18-8.82,21.84-8.82,2.88,0,6.24,1.74,6.24,5.7,0,7.02-9.9,8.28-14.16,8.28a11.111,11.111,0,0,1-3-.3v.36a18.691,18.691,0,0,0,9.54,2.46C291.84-19.26,294.48-25.2,294.48-28.92Zm63.66-12.54c0-4.68-7.62-5.52-10.86-5.46a27.77,27.77,0,0,1,6.84,5.04c1.86,1.92,1.98,2.16,2.7,2.16C357.42-39.72,358.14-40.14,358.14-41.46Zm-5.04,4.32c0-4.44-7.32-5.46-10.14-5.88a29.71,29.71,0,0,1,5.52,4.86c2.34,2.52,2.64,2.82,3.36,2.82C352.32-35.34,353.1-35.7,353.1-37.14Zm-1.14,5.7c0-1.98-4.8-3.06-5.58-3.06-.48,0-2.82.78-3.36.9a185.343,185.343,0,0,1-19.56,1.86,17.108,17.108,0,0,1-2.64-.18c.6-.9,3.6-5.28,4.26-6.3a12.942,12.942,0,0,1,1.32-1.5c1.02-1.08,1.32-1.38,1.32-1.8,0-1.5-3.96-4.68-7.08-4.68a4.342,4.342,0,0,0-2.52.72c2.16,1.2,3.12,1.68,3.12,3,0,2.94-7.62,16.92-15.54,24l.24.36c6.54-3.24,10.26-7.74,13.32-11.7,2.04,1.38,2.7,1.56,3.6,1.56,1.02,0,5.94-.84,7.08-.9,1.26.84,1.62,1.08,1.62,2.46,0,1.74-1.44,8.88-5.7,15.78A42.618,42.618,0,0,1,313.44,1.92l.18.42c14.58-5.82,18.66-16.62,20.34-21.36.3-.84,1.56-4.8,1.92-5.7.12-.36,1.68-1.8,1.68-2.28,0-.36-2.22-1.98-2.88-2.46.24,0,11.04-.48,11.22-.48.48,0,2.7.06,3.24.06C350.94-29.88,351.96-29.88,351.96-31.44ZM409.8-5.34c0-5.64-9.96-12.78-17.16-15.96a79.736,79.736,0,0,0,7.98-13.2c.78-1.44.84-1.56,1.26-1.74,1.92-.72,2.34-.84,2.34-1.5,0-1.02-4.44-4.8-5.1-4.8-.48,0-2.34,1.44-2.76,1.68-2.46,1.44-15.48,2.7-17.16,2.7-1.2,0-2.22-.06-4.5-3.66a5.517,5.517,0,0,0-.54,2.58c0,3.12,3.3,6.06,4.2,6.06a21.509,21.509,0,0,0,3.24-1.44c3.24-1.26,13.2-3.12,15.48-3.42-3.3,11.16-17.94,29.52-31.86,35.64l.06.48c5.64-1.14,15.84-4.92,26.52-18.36,5.34,3.96,8.64,7.92,13.44,15.84.54.9,1.2,1.92,2.46,1.92C409.14-2.52,409.8-3.72,409.8-5.34Zm56.22-13.2a5.483,5.483,0,0,0-1.8-4.02c-3.3-2.88-9.36-5.52-15.48-6.48.06-2.94.18-9.84.84-12.12a28.011,28.011,0,0,0,.84-3c0-1.92-5.88-3.18-6.78-3.18a8.377,8.377,0,0,0-3.96,1.44c3.12,1.08,4.44,1.68,4.8,3,.48,1.92.54,13.86.54,16.44,0,5.1-.06,14.58-.78,19.32a26.741,26.741,0,0,0-.42,4.02c0,1.56.84,5.04,2.82,5.04,2.34,0,2.34-3.54,2.34-4.8,0-1.38-.36-8.28-.36-9.84-.06-2.16.06-12.6.06-14.94,4.14,1.56,7.26,3.72,12.78,9.84.96,1.02,1.74,1.8,2.64,1.8C464.82-16.02,466.02-16.56,466.02-18.54Zm65.22-8.04c0-3.36-4.68-5.1-6.84-5.1a3.737,3.737,0,0,0-1.26.18c1.38,1.02,1.86,1.38,1.86,2.16s-.42,1.2-1.5,1.74c-1.74.84-7.62,3.66-11.7,6.06-.66-2.22-1.8-5.82-7.32-5.82a12.973,12.973,0,0,0-6.12,1.62c.78-1.44,1.32-2.28,6.72-10.08,3.42-.54,10.02-1.62,12.78-2.82a1.671,1.671,0,0,0,1.26-1.5c0-1.2-1.74-2.04-3.18-2.04-1.26,0-7.02,2.4-8.34,2.76a37.989,37.989,0,0,1,3.12-4.2,3.6,3.6,0,0,0,.96-2.1c0-1.26-2.52-3.48-5.46-3.48a4.552,4.552,0,0,0-3.66,1.44c2.76.36,4.08,1.62,4.08,2.46,0,1.02-2.46,5.46-3.3,6.84a46.83,46.83,0,0,1-6.96.72,7.915,7.915,0,0,1-6.18-2.22c-.12,3.12,1.86,5.34,5.94,5.34a32.341,32.341,0,0,0,5.34-.6c-2.94,4.86-6,9.72-10.26,13.38-.66.6-1.32,1.14-1.32,3.3,0,1.44.3,2.46,1.74,2.46,1.02,0,1.26-.06,3.96-4.26.96-1.56,3.84-5.16,7.5-5.16,3.78,0,4.62,3,5.16,6.18-3.42,2.28-10.8,7.74-10.8,13.38,0,7.44,12.6,7.44,15.9,7.44a79.4,79.4,0,0,0,9.18-.6c.78-.18,1.86-.84,1.86-1.92s-1.02-2.64-3.6-2.64a12.2,12.2,0,0,0-2.1.24,54.132,54.132,0,0,1-9.18,1.02c-1.74,0-9.6,0-9.6-4.56,0-3.24,4.56-7.62,8.58-10.14.06.9.06,4.98.06,5.88,0,1.02,0,4.44,2.22,4.44,2.16,0,2.16-3.96,2.16-5.22a40.686,40.686,0,0,0-.6-7.08,84.369,84.369,0,0,1,16.86-5.64C530.46-24.96,531.24-25.2,531.24-26.58ZM586.86-9.06c0-7.44-5.28-12.96-14.34-17.46l-.24.36c5.64,3.84,9.96,11.76,9.96,16.98,0,5.4-4.08,9-9.84,9a10.8,10.8,0,0,1-5.88-1.68c-2.7-1.8-3.3-4.56-3.3-8.1a29.618,29.618,0,0,1,.24-4.02,19.14,19.14,0,0,0,6.12,1.14c1.8,0,3.3-.18,3.3-1.32s-1.62-2.52-2.64-2.94a50.382,50.382,0,0,0-6.18-.54c1.56-7.62,1.68-8.16,2.46-11.28,1.68.06,3.3.12,3.3-1.5a3.584,3.584,0,0,0-2.22-2.76,47.372,47.372,0,0,1,3.06-8.7,7.586,7.586,0,0,0,.9-2.88c0-2.16-3.96-4.86-6.84-4.86a3.726,3.726,0,0,0-2.58.84c1.86.96,3.9,2.16,3.9,5.16a69.287,69.287,0,0,1-1.44,9.6c-4.38-1.02-7.92-1.86-11.58-5.52.06,3.78,1.8,4.8,6.78,7.5.48.24.66.48.66.9,0,.3-.06.6-.72,1.14-5.34,4.62-6.42,5.52-6.42,8.1,0,3.72,4.8,5.82,7.62,7.02a31.7,31.7,0,0,0-.72,6.12c0,1.92.3,5.34,2.04,7.5,2.46,3,6.66,4.26,10.44,4.26C576.84,3,586.86,1.02,586.86-9.06ZM563.58-29.04c-1.02,5.04-1.68,8.7-2.1,10.92-1.92-.54-5.82-1.8-5.82-4.38C555.66-24.96,559.08-28.92,563.58-29.04Zm90-11.4c0-.6-1.44-3.3-4.92-3.3a9.093,9.093,0,0,0-2.46.42c-2.58.78-6.84,1.62-10.32,2.4-5.94,1.26-7.44,1.62-21,4.86a16.712,16.712,0,0,1-2.58.36c-2.46,0-3.72-1.32-4.68-3.36a5.867,5.867,0,0,0-.96,3.18c0,3.48,3.06,5.4,4.38,5.4.6,0,.66-.06,3.24-1.2,5.94-2.7,18.12-6.9,21.6-6.78-6.84,5.4-13.02,11.82-13.02,21.12C622.86-3,639.48.24,642.96.24c.42,0,2.28,0,2.28-1.8,0-2.28-2.22-3.18-4.14-3.54-4.32-.84-15.3-2.94-15.3-13.2,0-8.46,6.48-17.1,13.56-19.5,2.58-.84,3.48-.84,11.7-.84C651.9-38.64,653.58-38.64,653.58-40.44Zm43.62,1.68c0-1.14-2.64-1.98-3.42-1.98-.72,0-1.02.18-3.66,1.38-1.26.6-3.3,1.32-4.5,1.74a28.723,28.723,0,0,1,2.22-3.78c1.5-2.16,1.5-2.16,1.5-2.76,0-1.56-3.66-4.08-6-4.08a4.179,4.179,0,0,0-2.94,1.2c3.18.84,3.54,2.28,3.54,2.94,0,1.26-1.14,4.2-2.52,7.62a33.359,33.359,0,0,1-7.02.96c-2.4,0-4.38-.36-5.82-2.4-.48,3.6,2.52,5.46,6.06,5.46a22.584,22.584,0,0,0,5.4-.78c-1.8,3.9-5.64,11.82-9.96,17.52a5.866,5.866,0,0,0-1.44,3.6c0,2.04,1.26,2.28,1.68,2.28,1.2,0,2.46-2.22,3.84-4.56,1.56-2.7,8.1-16.62,9.66-19.74a109.431,109.431,0,0,0,12.42-3.42A1.425,1.425,0,0,0,697.2-38.76Zm15.6,14.4c0-2.82-4.8-8.4-12.24-8.4a11.346,11.346,0,0,0-3.84.6c6.06,1.56,8.22,3.78,8.22,4.56,0,.72-.54.84-1.02.96-4.14.78-10.5,3.36-10.5,9.96,0,1.38.24,4.2.42,6.3-.9-.06-1.8-.18-3.12-.18-5.82,0-11.28,2.16-11.28,6.66,0,3.72,4.32,6.42,9.3,6.42A10.97,10.97,0,0,0,696,0a7.732,7.732,0,0,0,2.28-5.7,16.59,16.59,0,0,1,4.68,2.52c1.5,1.08,3.9,2.76,4.62,2.76a1.862,1.862,0,0,0,1.68-1.98c0-3.9-6.6-6.42-11.4-7.44a46.093,46.093,0,0,1-1.02-8.7c0-2.82.9-6.24,7.2-6.24,2.34,0,3.06.42,5.1,1.5a4.215,4.215,0,0,0,2.1.66A1.535,1.535,0,0,0,712.8-24.36ZM694.08-7.08c.18,5.76-4.38,6.3-6.48,6.3-2.04,0-5.88-.66-5.88-3.18,0-3.24,5.58-3.72,7.86-3.72A14.313,14.313,0,0,1,694.08-7.08ZM775.5-35.1c0-1.68-2.88-3.06-4.92-3.06-.06,0-15.48,1.38-16.86,1.5a54.245,54.245,0,0,1,.78-6.84c.12-.42.54-2.16.54-2.34,0-1.92-4.5-3.54-6.06-3.54A5.546,5.546,0,0,0,745.5-48c4.98,1.86,4.98,2.04,5.4,11.64-3.84.36-8.28,1.02-13.92,1.98-2.7.42-7.44,1.26-8.1,1.26-1.92,0-3.18-1.2-4.38-2.82a3.226,3.226,0,0,0-.48,1.68c0,2.46,2.88,6.18,4.92,6.18.54,0,.72-.12,2.46-1.02,5.88-3.18,15.9-4.5,19.56-4.92,0,2.16.12,6.18.12,6.48a10.557,10.557,0,0,0-3.48-.72c-4.14,0-7.02,4.32-7.02,8.7,0,5.16,3.78,9.12,6.78,9.12,1.5,0,2.7-.96,3.96-1.98C750.48-6,745.86.48,739.14,4.68l.24.42c11.04-3.9,16.86-12.36,16.86-21.42a17.774,17.774,0,0,0-2.58-9.48c-.06-1.08-.12-2.16-.12-3.72s0-2.94.06-4.8c1.86-.12,4.68-.3,7.2-.3,1.5,0,3.42.06,5.64.24,1.98.18,5.16.9,7.14.9A1.725,1.725,0,0,0,775.5-35.1ZM751.14-19.62c0,3.48-1.62,5.64-3.6,5.64-2.22,0-4.86-2.76-4.86-6.18s2.34-5.46,4.02-5.46C750.9-25.62,751.14-21.06,751.14-19.62Zm46.2,18.48c0-3.6-3.06-6.48-4.08-7.38-2.88-2.4-5.34-3.36-9.54-4.74l-.18.54A23.366,23.366,0,0,1,791.4-1.2c.6,1.98,1.08,3.54,3,3.54C796.26,2.34,797.34.54,797.34-1.14ZM57.24,95.88c0-.78-.24-1.02-1.26-2.04-.54-.54-1.56-5.88-1.68-6.96h-.42a22.556,22.556,0,0,1-1.86,6.06,3.817,3.817,0,0,1-2.04,2.22c-.78.36-11.16.36-13.2.36a1.41,1.41,0,0,1-1.5-1.32V86.94h6.6c0,.6-.06,1.98,1.68,1.98.66,0,2.76-.66,2.76-2.52,0-.42-.18-2.4-.18-2.88-.18-3.36-.24-8.58-.24-11.7,1.56-1.14,1.74-1.38,1.74-1.86,0-.36-.3-.66-.66-.96l-2.22-1.86c-.3-.24-.6-.54-.96-.54s-.66.36-.96.66l-1.5,1.5H18.9l-5.1-2.22c.12.66.3,1.38.42,2.52.18,1.5.18,5.22.18,10.62,0,1.44,0,6.24-.18,7.44a5.173,5.173,0,0,0-.06,1.02,1.417,1.417,0,0,0,1.5,1.5c.42,0,3.06-.3,2.94-2.7h3.3c-1.26,3.48-6.3,9.84-17.76,13.08l.06.48c10.56-.42,16.08-4.26,21.24-10.26,1.62-.42,2.22-.54,2.22-1.32,0-.54-.36-.78-.78-1.02l-1.86-.96h6.06a93.71,93.71,0,0,0,.3,10.2c.66,2.34,3.84,2.34,7.92,2.34,3.36,0,11.34,0,14.16-.48C55.32,98.64,57.24,97.68,57.24,95.88ZM41.88,79.62H18.54V75.6H41.88Zm0-5.46H18.54V70.2H41.88Zm0,11.34H18.54V81.06H41.88ZM54.96,55.56a1.868,1.868,0,0,0-.66-1.14L50.88,51.6a2.564,2.564,0,0,0-1.26-.66,2.67,2.67,0,0,0-1.26.72l-1.8,1.44H32.34V49.68c1.74-.96,1.92-1.08,1.92-1.68,0-.48-.48-.72-1.26-.9l-6.12-1.5a19.953,19.953,0,0,1,1.32,7.5H11.34a13.207,13.207,0,0,0-.42-2.22H10.5c-.18,2.1-1.74,3.96-3.36,5.34-2.7,2.22-3.54,2.94-3.54,4.44a2.167,2.167,0,0,0,2.34,2.22c2.76,0,5.4-3.18,5.52-8.34h35.4a42.963,42.963,0,0,1-1.74,4.5l.36.36c.78-.36,4.32-2.28,5.1-2.7a15.4,15.4,0,0,0,1.98.12C53.22,56.82,54.96,56.82,54.96,55.56Zm.18,7.68c0-.42-.24-.66-.6-.96l-2.76-2.34c-.36-.3-.78-.66-1.08-.66-.24,0-.6.3-.96.72L47.4,62.4H37.68V59.52c1.44-.78,1.74-1.14,1.74-1.56s-.12-.78-1.02-.96L33,55.74c.36.9.66,1.74.78,6.66h-7.5c0-.9,0-1.8.06-2.7,1.14-.72,1.62-1.08,1.62-1.44,0-.72-.84-.9-1.26-1.02l-5.1-1.2a31.762,31.762,0,0,1,.66,6.36H19.08c-.84,0-5.1-.06-9.24-.36l1.2,2.34a42.726,42.726,0,0,1,7.08-.54H22.2c-.12,4.02-.12,4.5,1.26,4.5a2.913,2.913,0,0,0,2.64-1.2c.24-.36.24-.66.18-3.3h7.5c0,.42-.12,2.28-.12,2.7,0,.84.36,1.56,1.44,1.56,2.82,0,2.7-2.28,2.64-4.26h16.5C54.66,63.84,55.14,63.78,55.14,63.24Zm61.62-9.72c0-3.84-6.96-5.94-11.16-5.64a22.968,22.968,0,0,1,6.78,5.28c1.56,1.8,2.04,2.34,2.82,2.34C116.1,55.5,116.76,54.66,116.76,53.52Zm-5.1,4.38c0-3.78-6.6-6.12-11.16-6.12a20.733,20.733,0,0,1,6.78,5.82c.9,1.14,1.8,2.22,2.88,2.22C111.12,59.82,111.66,58.92,111.66,57.9Zm-4.98,25.32c0-1.26-.12-2.04-2.52-4.62-3.9-4.2-6.24-7.14-7.62-8.94a52.459,52.459,0,0,0,7.74-3.48,2.137,2.137,0,0,0,1.38-1.86c0-1.38-2.16-1.68-2.7-1.68a4.5,4.5,0,0,0-2.16.78c-4.5,2.52-4.98,2.82-6.24,3.48A34.889,34.889,0,0,1,90.6,60c2.22-.9,4.44-1.74,6.66-2.82.6-.3,2.1-1.14,2.1-2.34,0-.9-1.32-1.56-2.46-1.56-1.2,0-6.18,3.36-7.38,3.96a26.046,26.046,0,0,1-1.44-7.56c-.18-2.1-4.5-2.34-5.04-2.34a5.8,5.8,0,0,0-5.4,3.06c2.58-.12,3.96-.06,5.16.72.96.66,1.2,1.2,4.02,7.26a25.342,25.342,0,0,1-8.46,1.74,13.058,13.058,0,0,1-5.4-1.2c1.56,3.06,5.4,3.84,7.38,3.84,2.28,0,3.6-.48,7.68-1.8a49,49,0,0,0,3.9,7.08,33.3,33.3,0,0,1-12.06,2.88,17.923,17.923,0,0,1-7.26-1.68c1.74,4.56,7.14,4.56,7.92,4.56,3.18,0,7.2-1.02,13.14-3.12,1.14,1.68,7.26,9.96,7.26,10.32a.407.407,0,0,1-.48.42h-.36A69.09,69.09,0,0,0,87.6,80.04c-3.42,0-14.22,0-14.22,8.88a8.3,8.3,0,0,0,2.46,5.88c2.28,2.28,8.16,4.08,15.9,4.08,7.98,0,8.28-.66,8.28-2.22,0-1.8-2.16-2.4-3.78-2.4a16.992,16.992,0,0,0-2.58.3,52.83,52.83,0,0,1-5.34.3c-1.56,0-12.3-.12-12.3-6.78,0-5.94,7.2-6.24,9.84-6.24,3.66,0,11.52,1.2,16.14,4.32,1.86,1.26,2.04,1.38,2.52,1.38C106.44,87.54,106.68,83.82,106.68,83.22ZM174,72.9c0-12.06-10.56-18.84-22.2-18.84-14.64,0-25.56,10.62-25.56,23.52a11.141,11.141,0,0,0,1.68,6.12c.42.54,2.82,2.76,3.24,3.36,1.8,2.52,2.34,3.3,3.72,3.3a3.477,3.477,0,0,0,1.92-.66c4.08-3.36,9.72-15.42,13.56-23.64,1.86-3.9,2.04-4.32,2.04-4.98,0-.84-.9-3.06-4.14-4.8a4.733,4.733,0,0,1,2.46-.36c10.44,0,18.6,6,18.6,16.14,0,9.12-6,17.58-18.84,22.14l.06.48C164.28,93.48,174,84.54,174,72.9ZM147.66,60.48c0,3.12-1.98,7.02-7.98,19.08-1.02,2.04-3.36,6.3-4.98,6.3-2.34,0-4.68-4.5-4.68-8.58,0-11.04,9.18-19.56,15.78-20.64A5.244,5.244,0,0,1,147.66,60.48Zm89.52,9a2.163,2.163,0,0,0-1.2-1.92c-.78-.54-1.14-2.04-2.1-5.94h-.48c-.54,2.1-1.32,5.1-2.64,6.36-1.08,1.08-5.64,1.08-7.74,1.08-1.08,0-5.46,0-5.88-.54-.48-.6-.36-10.44-.36-12.54h10.2a52.437,52.437,0,0,1-1.32,6l.3.3c.9-.54,5.16-3.36,6.12-3.96,2.4-.18,3.24-.3,3.24-1.38a1.672,1.672,0,0,0-.48-1.14l-3.66-3.24a1.336,1.336,0,0,0-1.02-.54c-.54,0-.78.24-1.26.6l-2.34,1.92H212.4v-4.5c.18-.18,1.14-.78,1.38-.96a1.05,1.05,0,0,0,.42-.84c0-.78-.84-.96-1.32-1.08l-5.7-1.44a26.323,26.323,0,0,1,1.08,8.82H193.14c0-1.92-.06-2.1-.42-2.94h-.48c-.12.84-.48,3.12-4.02,5.4-2.04,1.32-3.18,2.04-3.18,3.54a2.283,2.283,0,0,0,2.4,2.16c.18,0,4.8,0,5.58-6.72h19.56c0,1.5.06,8.22.06,9.54,0,5.94,0,7.44,6.12,7.44,3.24,0,12.3,0,15-.54C235.02,72.18,237.18,71.22,237.18,69.48ZM207.9,59.7c0-.36-.18-.6-.78-.9l-4.98-2.58c-.48,3.84-3.42,12.78-16.62,19.38l.24.48c11.64-2.4,16.38-8.04,19.98-15C207.72,60.48,207.9,60.42,207.9,59.7Zm28.92,37.26c0-.42-.42-.72-.66-.9l-3.78-3.18c-.6-.54-.9-.6-1.14-.6-.36,0-.6.36-.9.72l-2.64,3.18H212.22V82.02h17.4c.36,0,.96-.06.96-.66a1.29,1.29,0,0,0-.6-.9l-3.54-2.88c-.3-.24-.78-.66-1.14-.66-.24,0-.48.3-.96.78l-2.58,2.88H198.54c-1.08,0-4.5-.06-9.24-.42l1.2,2.4a41.465,41.465,0,0,1,7.08-.54h10.38V96.18H192.84c-3.06,0-6.18-.12-9.24-.42l1.2,2.4a43.364,43.364,0,0,1,7.08-.54h43.98C236.22,97.62,236.82,97.56,236.82,96.96Zm57.78-45.6a1.232,1.232,0,0,0-.48-.84l-2.88-2.46a1.416,1.416,0,0,0-.96-.42,2.047,2.047,0,0,0-1.08.66l-1.44,1.62H277.62l-4.98-2.52c.18,1.74.3,2.82.3,3.84,0,2.28-.18,13.68-.18,16.32A1.281,1.281,0,0,0,274.14,69c1.62,0,2.88-.78,2.82-2.46H288.3c0,2.88.06,17.16.06,20.4a54.833,54.833,0,0,1-.24,6.54c-.36.72-1.5.72-2.04.72-.6,0-6.06-.3-7.08-.36l-.12.42c5.46,2.1,6,4.38,6.48,6.48a12.8,12.8,0,0,0,4.56-1.98c2.4-1.68,2.4-3.12,2.4-8.52,0-5.22-.12-30.96-.12-36.78C294.12,52.26,294.6,51.84,294.6,51.36Zm-6.3,6H276.9v-6h11.4Zm0,7.74H276.9V58.8h11.4Zm-7.5,8.7c0-.3-.24-.54-.54-.78l-2.16-1.86a1.82,1.82,0,0,0-.96-.48,1.5,1.5,0,0,0-1.14.78l-1.02,1.32h-11.4l-4.38-2.16a55.9,55.9,0,0,1,.42,8.46c0,.54,0,6.96-.24,10.38-.06.66-.18,2.22-.18,2.58,0,.66.06,1.68,1.38,1.68,3.18,0,2.94-2.46,2.82-3.9h11.7c-.3,2.82.48,3,1.26,3a2.668,2.668,0,0,0,3-2.76c0-.48-.24-2.94-.24-3.48-.18-3.6-.18-8.16-.18-10.98C280.26,74.76,280.8,74.22,280.8,73.8Zm-5.7,6.72H263.4v-6.3h11.7Zm0,7.86H263.4V81.96h11.7ZM268.32,51.3a.936.936,0,0,0-.42-.78l-3.12-2.28a1.635,1.635,0,0,0-.72-.36c-.24,0-.48.3-.84.6l-1.56,1.44h-8.64l-5.58-2.64c.66,3.24.66,3.42.66,12,0,26.28,0,30-.48,36.78,0,.36-.18,1.92-.18,2.28,0,.78.42,1.56,1.74,1.56,2.46,0,3.06-1.8,3.06-3.36,0-2.34-.24-12.78-.24-14.94V66.54h10.26c-.12.72-.3,2.16,1.32,2.16,1.5,0,2.94-.9,2.94-2.34,0-.66-.24-5.28-.24-6.24V53.28C267.96,52.08,268.32,51.72,268.32,51.3Zm-6,6.06H252v-6h10.32Zm0,7.74H252V58.8h10.32Zm58.92,24.78a8.672,8.672,0,1,0-8.7,8.88A8.733,8.733,0,0,0,321.24,89.88Zm-1.74.06a6.932,6.932,0,1,1-6.96-7.14A7.029,7.029,0,0,1,319.5,89.94Z" transform="translate(160 153)"/>
  </g>
</svg>
