<svg xmlns="http://www.w3.org/2000/svg" width="650.52" height="149.64" viewBox="0 0 650.52 149.64">
  <g id="mv04-text" transform="translate(-162.28 -102.12)">
    <path id="パス_34" data-name="パス 34" d="M50.22-49.92c-2.7,2.88-9.9,4.62-15.66,5.82l-5.52-2.58c.6,3.18.9,6.12.9,13.98C29.94-12.12,27-5.4,19.14.78l.12.36c13.5-5.52,13.92-17.1,14.46-29.82h9.96c0,3.84.12,20.88.12,24.36,0,1.02-.12,5.4-.12,6.3,0,.78,0,1.86,1.5,1.86A3.029,3.029,0,0,0,48.42.66c0-.36-.54-14.82-.6-17.64-.06-1.86-.12-10.38-.18-11.7h8.7c.36,0,.96-.06.96-.66a1.29,1.29,0,0,0-.6-.9l-3.3-2.94a2.4,2.4,0,0,0-1.14-.66c-.36,0-.66.36-.96.78l-2.16,2.94H33.78V-42.96c3.6-.18,11.4-.66,18.6-1.62a7.6,7.6,0,0,0,1.56.24c.66,0,.96-.36.96-.66a1.325,1.325,0,0,0-.6-1.02ZM18-37.38V-45.3c1.26-.9,1.8-1.32,1.8-1.74,0-.54-.6-.84-1.02-.96l-5.94-1.86a12.688,12.688,0,0,1,.66,2.7c.18,1.2.48,8.16.54,9.78h-2.1c-.18,0-4.68,0-9.18-.42l1.2,2.4a42.373,42.373,0,0,1,7.02-.54h3.06c.06,3.96.18,10.5.18,11.82-8.94,3.24-10.2,3.12-11.94,3L4.62-15.9c.12.3.3.72.78.72.78,0,1.14-1.02,1.32-1.5,1.08-.6,6.36-3.54,7.56-4.2,0,5.46,0,13.2-.06,16.26-.06,1.32-.06,2.34-1.98,2.34-.9,0-3.84-.24-5.46-.42v.36a8.072,8.072,0,0,1,5.4,5.88C18.3,2.1,18.3-.24,18.3-9.06c0-1.98-.12-11.82-.18-14.04a86.2,86.2,0,0,0,8.64-5.46l-.12-.24c-1.2.48-7.2,2.7-8.52,3.24,0-2.28-.12-7.38-.12-10.38h8.04c.42,0,.96-.06.96-.6,0-.42-.3-.66-.6-.96l-2.82-2.34c-.48-.42-.84-.66-1.08-.66-.36,0-.72.42-.96.78l-1.62,2.34ZM102.72-24.6c0-6-.78-17.76-8.28-17.76C87.36-42.36,82.2-27,80.82-22.08c-.06.3-.18.6-.54.6-.6,0-.6-3.42-.6-4.32a43.086,43.086,0,0,1,3.36-16.08,6.941,6.941,0,0,0,.72-2.64c0-2.1-2.52-4.32-5.28-4.32a11.554,11.554,0,0,0-2.7.42c1.26.84,3.48,2.22,3.48,5.46a14.646,14.646,0,0,1-.24,2.28c-.84,4.86-2.1,12.78-2.1,17.34,0,5.4,1.08,12.42,4.62,12.42,1.2,0,1.44-1.02,1.44-1.68,0-.6-.42-3.66-.42-4.32,0-7.2,3.96-16.38,6.36-19.86.54-.78,2.22-3.24,4.62-3.24,4.5,0,4.74,10.92,4.74,14.88,0,10.74-3.06,22.32-13.44,29.82l.12.3c2.76-.6,6.54-3.48,8.52-5.28C100.2-6.42,102.72-13.56,102.72-24.6ZM177.06-.72c0-.36-.24-.6-.6-.9l-4.08-3.54a2.194,2.194,0,0,0-1.08-.6c-.36,0-.54.24-.96.72L167.52-1.5h-18c0-2.88-.06-9.9-.06-10.62V-27.3h19.8c.42,0,.9-.06.9-.6,0-.42-.3-.66-.6-.9l-4.14-3.54c-.48-.36-.78-.66-1.08-.66-.24,0-.6.36-.9.78l-2.64,3.48H149.46V-34.5c0-1.38.18-7.86.18-9.36,1.98-1.26,1.98-1.68,1.98-2.04,0-.6-.54-.78-.9-.9L144-48.78a12.146,12.146,0,0,1,.84,4.14c.42,5.82.36,31.92.3,43.14H132.3c-.9,0-5.16-.06-9.24-.42l1.2,2.4a42.726,42.726,0,0,1,7.08-.54h44.82C176.58-.06,177.06-.18,177.06-.72Zm62.76-42.72c0-3.72-6.36-5.94-10.2-5.76a21.783,21.783,0,0,1,5.58,4.86c2.1,2.64,2.34,2.94,3.12,2.94C239.16-41.4,239.82-42.3,239.82-43.44Zm-5.58,3.96c0-4.38-7.08-6.24-9.84-6.42a22.358,22.358,0,0,1,5.46,5.34c1.98,2.52,2.22,2.82,3.06,2.82C233.64-37.74,234.24-38.34,234.24-39.48Zm.36,6.3c0-1.2-1.74-2.4-3.66-2.4a5.29,5.29,0,0,0-1.68.36c-1.38.42-2.46.78-6.42,1.68-.06-1.2-.12-2.76-.12-5.22,0-.6.24-3.66.24-4.32,0-4.38-6.06-4.38-6.12-4.38a4.489,4.489,0,0,0-3.66,1.8c4.5.96,5.4,1.2,6.06,12.78a65.936,65.936,0,0,1-10.2,1.02,23.174,23.174,0,0,1-5.1-.66c1.08,1.74,4.14,3.84,9.18,3.84a58.269,58.269,0,0,0,6.3-.66c.12,2.4,0,8.94-.3,14.7-.18,3.9-.96,11.46-10.8,19.38l.18.3c9.42-4.08,15-10.2,15-23.4,0-4.44-.36-10.14-.48-11.52,1.74-.24,9.24-1.44,10.5-2.04C234.06-32.16,234.6-32.52,234.6-33.18Zm-36.24,7.92h-.42c-.36.9-4.2,9.96-5.22,12.12-.12.24-.78,1.68-1.26,1.68-.66,0-1.26-3.54-1.26-5.94a51.051,51.051,0,0,1,3.3-16.56,11.578,11.578,0,0,0,1.08-3.9c0-2.22-2.22-6.42-6.54-6.6a10.83,10.83,0,0,1,1.74,5.4,16.6,16.6,0,0,1-.18,2.52c-1.98,12.84-2.34,14.94-2.34,19.86,0,7.92,1.92,14.04,5.22,14.04a1.909,1.909,0,0,0,2.1-1.74v-3.6a15.78,15.78,0,0,1,.54-3.3C195.54-13.26,197.88-23.04,198.36-25.26Zm71.4-2.82a137.551,137.551,0,0,0,.72-14.4h23.7c.42,0,.96-.06.96-.66,0-.48-.3-.66-.6-.9l-3.9-3.24c-.54-.48-.78-.6-1.14-.6s-.6.36-.9.72l-2.46,3.24H253.38c-.48,0-5.04-.06-9.18-.42l1.14,2.4a42.969,42.969,0,0,1,7.08-.54h13.62a116.405,116.405,0,0,1-.54,14.4h-9.24c-.9,0-5.16-.06-9.24-.42l1.2,2.4a36.775,36.775,0,0,1,7.02-.54h10.08a31.522,31.522,0,0,1-2.22,9.54c-3.72,8.34-10.68,14.4-18.96,18.54l.06.66c22.74-6.78,24.54-21.9,25.38-28.74h.66c2.7,15.12,12.18,24.78,22.2,28.68a10.687,10.687,0,0,1,5.46-4.98v-.42a34.351,34.351,0,0,1-26.76-23.28h19.62c.42,0,.9-.12.9-.66,0-.42-.24-.6-.6-.9l-3.84-3.36c-.18-.12-.72-.6-1.08-.6-.3,0-.48.12-.96.78l-2.34,3.3Zm54.6-6.84c0-1.68-.06-2.46-.18-9.6.6-.54.84-.72,1.2-1.08.24-.24.6-.54.6-.9,0-.6-.54-.66-.9-.78l-6.06-1.56c.78,2.46,1.02,10.8,1.08,13.92h-4.5c-.84,0-5.1-.06-9.18-.42l1.14,2.4a42.727,42.727,0,0,1,7.08-.54h5.46a128.893,128.893,0,0,1-.48,15.84h-7.26c-1.8,0-5.52-.12-9.24-.42l1.2,2.4a40.718,40.718,0,0,1,7.08-.54h7.98c-1.5,8.28-6.78,15.84-15,18.9l.06.48C316.32.12,322.02-8.46,323.58-16.2h12.84c-.06,3-.42,17.28-.42,18.84,0,1.02,0,2.22,2.04,2.22.9,0,3.18-.6,3.18-2.52,0-4.08-.24-14.28-.36-18.54h15.48c.36,0,.9-.06.9-.6a1.485,1.485,0,0,0-.6-.96L353.28-21a1.647,1.647,0,0,0-1.08-.6c-.42,0-.6.3-.96.72l-2.88,3.24h-7.5c-.06-1.74-.12-4.68-.12-5.28,0-1.5.06-8.88.06-10.56h12.12c.42,0,.96-.06.96-.66a1.358,1.358,0,0,0-.6-.9l-3.24-3.12a1.647,1.647,0,0,0-1.08-.6c-.36,0-.72.42-.96.72l-2.58,3.12H340.8V-41.4c0-1.56,0-1.8.12-3.6,1.2-.9,1.8-1.5,1.8-1.92,0-.6-.42-.78-1.08-.96l-5.94-1.38c.9,4.5.9,9.54.9,14.34Zm12.3,1.44c0,7.08-.06,8.82-.24,15.84h-12.6c.54-3.66.54-11.88.54-15.84Zm82.08-7.44c0-4.56-7.56-4.8-8.64-4.8a17.694,17.694,0,0,0-3.72.42,21.053,21.053,0,0,1,7.08,3.24c.6.42,3.24,2.82,4.02,2.82C418.44-39.24,418.74-40.14,418.74-40.92Zm-5.52,4.56c0-3.48-6.42-4.92-9.6-4.92a12.378,12.378,0,0,0-2.4.24,21.05,21.05,0,0,1,7.5,4.5c1.44,1.2,2.34,1.98,2.88,1.98A1.687,1.687,0,0,0,413.22-36.36Zm2.94,16.92c0-8.1-10.56-15.06-16.68-15.3,8.46,5.22,11.22,11.16,11.22,11.76,0,2.04-6.6,2.58-7.5,2.64v.48a24.633,24.633,0,0,1,8.16,2.1c.48.18,2.7,1.5,3.3,1.5C416.16-16.26,416.16-18.96,416.16-19.44Zm-20.1-3.78c0-4.74-.3-10.38-7.32-10.38a14.11,14.11,0,0,0-3.24.36c1.14-2.58,2.16-4.74,3.48-7.14a5.331,5.331,0,0,0,.9-2.46c0-1.5-3.66-4.26-6.84-4.26a5.041,5.041,0,0,0-3,.96c.84.3,4.38,1.86,4.38,4.26,0,2.16-1.8,7.02-2.7,9.42-1.98.48-10.86,2.94-12.3,2.94-1.68,0-3-1.08-4.08-3.12a4.922,4.922,0,0,0-.72,2.4c0,3,3.18,5.52,4.98,5.52a4.629,4.629,0,0,0,2.52-1.08,50.471,50.471,0,0,1,8.46-3.84c-5.52,13.32-8.76,17.94-12.66,23.52a5.259,5.259,0,0,0-1.32,3.3c0,1.38.72,2.82,1.92,2.82,1.32,0,2.64-2.34,3.42-3.84a292.332,292.332,0,0,0,12.54-26.94,17.053,17.053,0,0,1,3.96-.6c4.02,0,4.02,4.2,4.02,6.54a39.616,39.616,0,0,1-4.2,17.94,2.722,2.722,0,0,1-2.34,1.74c-1.08,0-2.22-.42-7.44-4.02l-.18.24c3.9,5.64,4.02,6.12,4.44,8.64.18,1.02.42,1.98,1.8,1.98,1.74,0,4.2-1.92,5.82-3.84C393.66-6,396.06-16.14,396.06-23.22Zm34.44-3.72c0-1.74-.06-10.38-.06-12.3,1.14-1.08,1.2-1.32,1.26-1.62,4.86-1.2,9.06-2.64,14.82-4.62.18,0,1.26.12,1.56.12.48,0,1.14-.12,1.14-.78,0-.42-.42-.78-.84-1.08l-4.56-3.48a6.522,6.522,0,0,1-1.74,2.22,50.116,50.116,0,0,1-10.86,6.78,1.558,1.558,0,0,1-.6-.24l-4.92-1.5c.78,3.72.78,9.18.78,13.74,0,6.6-.18,17.28-.48,24.42,0,.24-.06,1.68-.06,2.16,0,.96.12,2.28,1.56,2.28.3,0,3.06-.36,3.12-2.7.06-.78,0-4.44,0-5.28h18.54c.42,0,.9-.06.9-.6a1.287,1.287,0,0,0-.6-.96l-3.3-2.82a1.705,1.705,0,0,0-1.02-.54c-.36,0-.66.36-.96.72l-2.28,2.76H430.62c-.12-10.62-.12-11.76-.12-15.24h17.52c.36,0,.9-.12.9-.66a1.232,1.232,0,0,0-.6-.9l-3.48-2.76a2.762,2.762,0,0,0-1.08-.6c-.36,0-.6.36-.9.78l-1.92,2.7Zm27.36-16.92-5.1-2.28c.72,3.78.72,10.8.72,16.26,0,6.96-.06,16.86-.12,23.64,0,1.26-.24,7.5-.24,8.88,0,1.2.12,2.16,1.56,2.16.24,0,3.24,0,3.24-3a10.616,10.616,0,0,0-.06-1.38c-.42-5.4-.3-41.46-.3-42.84H469.8c0,10.14.48,20.04.48,29.94,0,1.38-.3,1.56-1.74,1.56a27.809,27.809,0,0,1-5.16-.42l-.18.48c3.84,2.28,4.44,4.8,4.68,6.06,6.72-1.62,6.72-4.68,6.72-6.54,0-1.74-.3-10.2-.36-12.12-.06-4.74-.24-12.66-.24-16.92,1.38-.84,1.74-1.2,1.74-1.8a1.818,1.818,0,0,0-.66-1.2l-2.52-2.22a1.47,1.47,0,0,0-.96-.48c-.3,0-.54.3-.72.48l-1.68,1.74ZM537.66-3c-13.68-2.16-18.18-9.3-19.74-11.82a68.029,68.029,0,0,0,10.86-4.44h1.08c.48,0,1.26-.18,1.26-.96a1.21,1.21,0,0,0-.54-.9l-4.02-3.06c-2.04,3.78-8.22,7.8-9.18,8.4a32.755,32.755,0,0,1-3.6-10.62H524.1c0,.42,0,1.8,1.44,1.8,1.08,0,3.06-.72,3.06-2.22,0-.6-.42-6.24-.36-7.44.24-.3,1.98-1.62,1.98-2.04s-.3-.66-.66-.96L527.22-39a1.8,1.8,0,0,0-.9-.42c-.24,0-.66.3-1.2.78l-1.68,1.38H509.76c.96-.54,1.14-.6,7.74-4.86,3-.36,3.3-.42,3.3-1.32a1.232,1.232,0,0,0-.48-.84l-2.76-1.86a2.965,2.965,0,0,0-1.5-.66,2.4,2.4,0,0,0-1.32.6l-2.34,1.74H501.9c.54-.6.78-.9,1.56-1.86a13.057,13.057,0,0,0,1.74-.3c.3-.12.72-.36.72-.72a1.2,1.2,0,0,0-.72-.9l-4.98-2.64c-1.26,5.04-11.4,15.18-18.06,20.52v.24A55.648,55.648,0,0,0,492-35.7c-.06,1.5-.48,8.94-.48,10.62,0,1.14.96,1.26,1.5,1.26.42,0,3.12-.12,3.12-2.58H507c-5.28,3.72-14.58,8.1-24.18,10.92v.36c8.7-.78,17.28-3.06,24.66-7.68a6.668,6.668,0,0,1,1.2,1.56A91.819,91.819,0,0,1,483.18-8.7v.3c9.72-.42,18.9-4.14,27.18-9.3.24.78.3.9.48,1.56C504.6-10.38,490.08-1.74,481.5.06V.54c12.3-.9,23.4-6.72,30.24-12.3a19.428,19.428,0,0,1,.18,2.58c0,4.38-1.8,9.3-4.8,9.3a53.988,53.988,0,0,1-7.26-1.44l-.12.36a10.946,10.946,0,0,1,4.32,6.9,12.807,12.807,0,0,0,6.12-1.86c3.6-2.28,5.52-6.9,5.52-10.56,0-6.6-4.14-14.4-7.44-16.8a21.327,21.327,0,0,0,4.08-3.12h.6c1.5,19.38,11.58,24.78,19.02,28.68,1.86-3.06,3.54-4.08,5.64-4.8ZM507.72-27.84H496.08v-7.98h11.64Zm16.32,0h-12.3v-7.98h12.3ZM512.22-43.02a36.543,36.543,0,0,1-4.14,5.76H496.56l-1.44-.78a50.044,50.044,0,0,0,5.46-4.98Zm41.88,5.28a34.093,34.093,0,0,0,5.82-7.2c1.32-.48,2.1-.72,2.1-1.38,0-.42-.36-.66-1.08-.96l-6-2.34a26.5,26.5,0,0,1-2.1,11.88h-1.56l-5.04-3a81.533,81.533,0,0,1,.66,12.06c0,6.6-.12,15.66-.48,22.14-.06.72-.48,5.88-.48,6.12,0,.6,0,1.74,1.86,1.74,3.12,0,3.12-2.64,3.06-4.92h11.16c-.06,2.58-.06,3.3,1.38,3.3,3.12,0,3.12-2.7,3.12-3.84,0-.66-.12-3.84-.12-4.56-.12-6.9-.24-19.38-.06-25.8,1.62-1.26,1.8-1.38,1.8-1.92a.924.924,0,0,0-.54-.78l-2.64-1.92a2.6,2.6,0,0,0-1.08-.54c-.3,0-.6.36-.84.54l-1.26,1.38Zm7.98,1.44v14.7H550.86V-36.3Zm0,16.14V-5.04H550.86V-20.16ZM577.14-36.6c1.92-3.9,2.58-5.7,3.3-7.5,1.92-.54,2.1-1.02,2.1-1.56a1.2,1.2,0,0,0-.78-1.02l-5.7-2.46a11.869,11.869,0,0,1-.54,4.14c-3.3,12.48-6.36,18.66-8.76,22.38l.3.3a53.979,53.979,0,0,0,9.36-12.84H589.5v7.8c0,24.18-3.78,24.84-6.84,24.84a53.845,53.845,0,0,1-8.88-1.2l-.12.54c7.26,2.88,7.68,4.74,8.22,7.26,4.38-1.08,8.1-2.04,10.32-10.74,1.32-5.1,1.56-16.14,1.56-26.94,1.74-1.02,1.92-1.44,1.92-1.98a1.368,1.368,0,0,0-.66-1.08l-2.7-1.92a3.75,3.75,0,0,0-1.2-.6,1.01,1.01,0,0,0-.84.48l-1.56,2.1Zm-5.46,11.52a22.917,22.917,0,0,1,4.68,6.96c1.14,2.94,1.56,4.2,3.48,4.2,1.68,0,2.34-1.5,2.34-2.88,0-4.98-7.02-7.44-10.32-8.64ZM637.2-38.76c0-1.14-2.64-1.98-3.42-1.98-.72,0-1.02.18-3.66,1.38-1.26.6-3.3,1.32-4.5,1.74a28.723,28.723,0,0,1,2.22-3.78c1.5-2.16,1.5-2.16,1.5-2.76,0-1.56-3.66-4.08-6-4.08a4.179,4.179,0,0,0-2.94,1.2c3.18.84,3.54,2.28,3.54,2.94,0,1.26-1.14,4.2-2.52,7.62a33.359,33.359,0,0,1-7.02.96c-2.4,0-4.38-.36-5.82-2.4-.48,3.6,2.52,5.46,6.06,5.46a22.584,22.584,0,0,0,5.4-.78c-1.8,3.9-5.64,11.82-9.96,17.52a5.866,5.866,0,0,0-1.44,3.6c0,2.04,1.26,2.28,1.68,2.28,1.2,0,2.46-2.22,3.84-4.56,1.56-2.7,8.1-16.62,9.66-19.74a109.431,109.431,0,0,0,12.42-3.42A1.425,1.425,0,0,0,637.2-38.76Zm15.6,14.4c0-2.82-4.8-8.4-12.24-8.4a11.346,11.346,0,0,0-3.84.6c6.06,1.56,8.22,3.78,8.22,4.56,0,.72-.54.84-1.02.96-4.14.78-10.5,3.36-10.5,9.96,0,1.38.24,4.2.42,6.3-.9-.06-1.8-.18-3.12-.18-5.82,0-11.28,2.16-11.28,6.66,0,3.72,4.32,6.42,9.3,6.42A10.97,10.97,0,0,0,636,0a7.732,7.732,0,0,0,2.28-5.7,16.59,16.59,0,0,1,4.68,2.52c1.5,1.08,3.9,2.76,4.62,2.76a1.862,1.862,0,0,0,1.68-1.98c0-3.9-6.6-6.42-11.4-7.44a46.093,46.093,0,0,1-1.02-8.7c0-2.82.9-6.24,7.2-6.24,2.34,0,3.06.42,5.1,1.5a4.215,4.215,0,0,0,2.1.66A1.535,1.535,0,0,0,652.8-24.36ZM634.08-7.08c.18,5.76-4.38,6.3-6.48,6.3-2.04,0-5.88-.66-5.88-3.18,0-3.24,5.58-3.72,7.86-3.72A14.313,14.313,0,0,1,634.08-7.08ZM55.02,86.28c0-2.22-3.9-4.44-5.88-4.44-.3,0-2.04.36-2.52.42a19.381,19.381,0,0,1-3.54.12c-2.04,0-3,.06-12,.42.72-13.26.72-13.74.96-15.48.06-.48.78-2.7.78-3.18,0-.54-.18-.66-1.62-1.86,3.12-.24,7.74-.36,12.66-.36.48,0,1.92-.06,1.92-1.32,0-1.92-4.02-2.88-4.62-2.88a17.961,17.961,0,0,0-2.28.9c-1.92.72-16.02,1.8-18.12,1.8a12.146,12.146,0,0,1-7.5-2.28c.12,2.64,3.3,5.7,5.04,5.7.18,0,1.56-.24,1.86-.3,1.74-.3,1.92-.3,5.64-.78,1.38.96,2.16,1.56,2.16,7.2,0,1.56-.06,3.54-.36,13.02-1.2.12-7.26.6-8.64.72-.84.06-7.02.6-7.44.6a6.764,6.764,0,0,1-6.24-3.84,5.968,5.968,0,0,0-.36,1.92c0,2.82,3.48,6.54,5.22,6.54.24,0,2.52-1.02,3-1.14,4.26-1.32,16.86-2.46,23.1-2.46a79.049,79.049,0,0,1,13.5,1.26c.6.12,3.48.96,4.14.96C54.72,87.54,55.02,86.94,55.02,86.28Zm32.7-25.2C87.72,56.1,79.2,53.52,72,54a29.512,29.512,0,0,1,9.84,6.84c1.92,1.92,2.64,2.64,3.66,2.64A2.336,2.336,0,0,0,87.72,61.08Zm24.36-1.86-.3-.18A114.485,114.485,0,0,1,92.64,77.16c-2.58,1.98-11.88,8.88-13.86,8.88-1.26,0-3-1.26-4.38-3.96a7.459,7.459,0,0,0-.6,2.64c0,2.82,3.96,7.86,6.06,7.86a1.629,1.629,0,0,0,1.02-.36c.3-.3,1.62-1.8,1.92-2.1,1.02-1.02,6.66-5.1,7.92-6.06C103.92,73.92,110.64,63.6,112.08,59.22Zm53.94,18.24a5.483,5.483,0,0,0-1.8-4.02c-3.3-2.88-9.36-5.52-15.48-6.48.06-2.94.18-9.84.84-12.12a28.018,28.018,0,0,0,.84-3c0-1.92-5.88-3.18-6.78-3.18a8.377,8.377,0,0,0-3.96,1.44c3.12,1.08,4.44,1.68,4.8,3,.48,1.92.54,13.86.54,16.44,0,5.1-.06,14.58-.78,19.32a26.739,26.739,0,0,0-.42,4.02c0,1.56.84,5.04,2.82,5.04,2.34,0,2.34-3.54,2.34-4.8,0-1.38-.36-8.28-.36-9.84-.06-2.16.06-12.6.06-14.94,4.14,1.56,7.26,3.72,12.78,9.84.96,1.02,1.74,1.8,2.64,1.8C164.82,79.98,166.02,79.44,166.02,77.46Zm58.26-22.08c0-1.86-3.84-2.7-4.92-2.7-.54,0-.72.12-1.92.66-2.52,1.14-10.26,1.98-14.28,1.98-3.3,0-5.16-.36-7.8-2.82,0,3.78,2.88,6.48,4.8,6.48a27.042,27.042,0,0,0,4.2-.48c1.38-.24,11.1-1.08,15.72-1.32C223.5,57,224.28,56.58,224.28,55.38Zm4.74,11.76c0-1.38-4.44-4.56-5.1-4.56-.48,0-2.16,1.92-2.7,2.16-.9.42-21.18,1.98-24.06,1.98-3.18,0-5.22-2.34-6.24-3.9a5.488,5.488,0,0,0-.42,2.04c0,3.6,4.38,7.14,5.88,7.14a12.1,12.1,0,0,0,2.16-1.08c3.84-1.68,21.12-3.24,22.86-3.36-4.92,19.02-21.72,28.5-25.44,30.06l.12.42c3.3-.3,19.44-3.3,29.16-26.58.78-1.8.9-2.04,2.04-2.64C228.24,68.34,229.02,67.92,229.02,67.14Zm38.7-6.06c0-4.98-8.52-7.56-15.72-7.08a29.512,29.512,0,0,1,9.84,6.84c1.92,1.92,2.64,2.64,3.66,2.64A2.336,2.336,0,0,0,267.72,61.08Zm24.36-1.86-.3-.18a114.485,114.485,0,0,1-19.14,18.12c-2.58,1.98-11.88,8.88-13.86,8.88-1.26,0-3-1.26-4.38-3.96a7.459,7.459,0,0,0-.6,2.64c0,2.82,3.96,7.86,6.06,7.86a1.629,1.629,0,0,0,1.02-.36c.3-.3,1.62-1.8,1.92-2.1,1.02-1.02,6.66-5.1,7.92-6.06C283.92,73.92,290.64,63.6,292.08,59.22ZM349.8,90.66c0-5.64-9.96-12.78-17.16-15.96a79.735,79.735,0,0,0,7.98-13.2c.78-1.44.84-1.56,1.26-1.74,1.92-.72,2.34-.84,2.34-1.5,0-1.02-4.44-4.8-5.1-4.8-.48,0-2.34,1.44-2.76,1.68-2.46,1.44-15.48,2.7-17.16,2.7-1.2,0-2.22-.06-4.5-3.66a5.517,5.517,0,0,0-.54,2.58c0,3.12,3.3,6.06,4.2,6.06a21.509,21.509,0,0,0,3.24-1.44c3.24-1.26,13.2-3.12,15.48-3.42-3.3,11.16-17.94,29.52-31.86,35.64l.06.48c5.64-1.14,15.84-4.92,26.52-18.36,5.34,3.96,8.64,7.92,13.44,15.84.54.9,1.2,1.92,2.46,1.92C349.14,93.48,349.8,92.28,349.8,90.66Zm62.16-6.06c0-5.04-9.06-10.68-15.36-12.42A47.1,47.1,0,0,1,406.8,84.3c1.68,2.82,1.86,3.12,3,3.12C411.3,87.42,411.96,85.8,411.96,84.6Zm.42-18.36c0-1.44-1.14-2.1-2.16-2.58a13.018,13.018,0,0,0-3.66-1.14,21.551,21.551,0,0,0-2.46.66c-1.5.36-7.5.78-12.18,1.08.12-5.1.12-6.78.78-8.34.18-.42.9-2.16.9-2.34,0-1.98-5.76-3.84-7.08-3.84-1.02,0-1.98.42-3.9,1.62,1.92.36,4.38.96,5.04,2.82.48,1.44.54,2.28.66,10.32-1.5.12-12.66.84-13.86.84-2.16,0-3.78-.6-5.88-4.08a11.968,11.968,0,0,0-.3,2.46c0,3.6,4.02,6.48,4.92,6.48a9.078,9.078,0,0,0,1.86-.72c2.22-1.08,3.72-1.2,13.32-2.46.06,5.52.18,15.42-.12,20.52-.06.72-.18,1.2-.9,1.2a38.028,38.028,0,0,1-7.38-1.56l-.12.42c1.56,1.2,3.3,2.64,5.04,4.14a5.488,5.488,0,0,1,1.62,2.46c.54,1.62,1.02,2.94,2.4,2.94,1.62,0,3.24-2.4,3.24-7.62,0-2.22-.42-12.9-.42-15.36,0-1.02.12-6.54.12-7.56,1.14-.06,2.76-.18,5.52-.18.96,0,2.94,0,5.82.18,1.32.06,7.56,1.08,7.98,1.08C411.96,67.68,412.38,67.08,412.38,66.24Zm-33.06,5.88a28.515,28.515,0,0,1-8.76,9.84c-2.94,2.16-3.24,2.4-3.24,4.02,0,.3.06,2.52,2.16,2.52C371.76,88.5,378.36,83.46,379.32,72.12Zm93.3,1.2c0-2.34-6-3-6.36-3s-2.1.48-2.46.54c-2.76.66-22.26.72-26.4.72-6.24,0-8.1,0-10.14-4.56a6.933,6.933,0,0,0-.72,2.88c0,2.76,3.24,6.6,4.8,6.6.18,0,2.1-.48,2.28-.54,2.7-.72,8.1-1.08,26.4-1.08a59.876,59.876,0,0,1,6.78.24c.12,0,1.56.12,2.1.12C469.62,75.24,472.62,75.18,472.62,73.32Zm62.64-7.38-.48-.36c-9.42,12-20.28,18.9-21.72,18.9-.42,0-.42-.78-.42-1.02,0-3.66.3-20.46.9-23.52a31.618,31.618,0,0,0,.84-3.42c0-1.8-4.68-3.6-6.48-3.6a6.584,6.584,0,0,0-3.36,1.26c2.88.96,4.08,1.74,4.32,2.82.3,1.44.36,12.54.36,14.76,0,1.62,0,9.42-.54,11.94-.06.42-.78,2.22-.78,2.64,0,.78,2.7,5.7,3.84,5.7.36,0,.9-.6,1.2-.9a17.19,17.19,0,0,1,3.78-3.36C522.54,83.64,531.18,75.78,535.26,65.94ZM502.8,60.12c0-1.68-4.08-3-5.64-3a7.005,7.005,0,0,0-3.96,1.56c4.56,1.2,4.62,1.2,4.62,6.18,0,5.04,0,18-11.1,28.44l.3.36c5.1-2.1,12.84-8.94,14.4-21.84.12-1.26.6-7.44.72-8.82C502.2,62.58,502.8,60.6,502.8,60.12Zm58.44,29.76a8.672,8.672,0,1,0-8.7,8.88A8.733,8.733,0,0,0,561.24,89.88Zm-1.74.06a6.932,6.932,0,1,1-6.96-7.14A7.029,7.029,0,0,1,559.5,89.94Z" transform="translate(160 153)"/>
  </g>
</svg>
