<?xml version="1.0" encoding="UTF-8"?>
<svg id="_レイヤー_2" data-name="レイヤー 2" xmlns="http://www.w3.org/2000/svg" viewBox="0 0 960 94.73">
  <defs>
    <style>
      .cls-1 {
        fill: #debe68;
      }

      .cls-2 {
        fill: none;
        stroke: #debe68;
        stroke-miterlimit: 10;
      }
    </style>
  </defs>
  <g id="_レイヤー_1-2" data-name="レイヤー 1">
    <g>
      <g>
        <path class="cls-1" d="M20.16,50.51h-2.16c-1.84,2.44-4.12,4.72-6.84,6.4l-.28-.4c3.12-2.8,5.52-6.36,6.76-9.16,.56-1.28,.8-2.52,.8-3.44,1.28,.68,2.32,1.28,3.2,1.84,.24,.16,.28,.28,.28,.44,0,.32-.84,.76-1.6,.88-.48,.8-.96,1.56-1.52,2.36h5.32l1.32-1.28c.08-.08,.24-.2,.36-.2s.24,.04,.6,.32c.56,.44,1.2,1,1.68,1.44,.28,.24,.36,.36,.36,.56,0,.16-.16,.24-.36,.24h-7c1.72,1.16,2.64,2.36,2.64,3.44,0,.92-.64,1.44-1.12,1.44-.6,0-.88-.56-1.08-1.64-.12-.56-.36-1.84-1.36-3.24Zm7.84,30.15c-.52,0-.88-.52-.88-1.16,0-.72,.12-4.04,.16-4.8,.04-.84,.12-4.72,.12-5.56v-.88c-3.72,4.88-9.6,9.48-15.52,11.16l-.24-.32c5.12-2.24,10.16-6.84,13.36-11.32h-8.44c-.08,.24-.2,.56-.28,.76-.16,.44-1.08,.96-1.72,.96-.44,0-.68-.28-.68-.76,0-.16,.04-.28,.12-.44,.52-1,.8-1.76,1.4-3.4,.4-1.08,.64-1.84,.8-2.72,.08-.44,.12-.88,.12-1.32,0-.28,0-.52-.04-.8,1,.4,1.72,.72,2.6,1.16,.24,.12,.32,.2,.36,.28h8.16v-.52c0-1.4-.04-2.44-.2-3.6h-6.2c-.68,0-2.04,.04-2.72,.56-.72-.24-1.64-.76-2.08-1.92,1.36,.28,2.52,.28,3.8,.28h17.88l.72-.76c.2-.2,.32-.28,.44-.28,.16,0,.24,.04,.44,.16,.52,.32,.96,.64,1.4,.96,.16,.12,.28,.24,.28,.4,0,.24-.4,.64-.84,1.04,0,.84,.08,2.2,.12,2.8,.04,.64,.08,1.28,.08,1.8,0,.56-.68,1.28-1.44,1.28-.48,0-.68-.48-.68-.84v-.28h-9.08v4.12h11.68l.8-.84c.08-.08,.2-.2,.32-.2s.2,.04,.44,.2c.6,.4,1.04,.72,1.64,1.2,.24,.2,.28,.24,.28,.36,0,.36-.8,.88-1.16,1.12-.32,2.32-.76,4.32-1.76,5.96-.76,1.24-1.96,2.08-3.48,2.48-.44-.68-.92-1.12-1.64-1.56-.64-.4-1.64-1.32-2.2-2.16l.2-.36c1.12,.52,2.84,1.12,3.64,1.12,.68,0,1.36-.32,1.76-1,.88-1.44,1.16-3.24,1.4-5.24h-11.92v1.24c0,.84,.04,4.28,.08,5.44,.04,1.2,.12,3.92,.12,4.4,0,.72-.8,1.8-1.52,1.8Zm-.6-13.96v-4.12h-9.24c-.28,1.04-.76,2.68-1.24,4.12h10.48Zm6.2-16.2h-1.88c-1.4,1.84-3.12,3.56-5.08,5.08l-.36-.32c2.36-2.52,4.24-5.6,5.04-8,.44-1.32,.6-1.88,.6-3.36,1.28,.6,2.36,1.16,3.32,1.72,.2,.12,.28,.24,.28,.4,0,.32-.8,.8-1.56,.96-.44,.8-.92,1.64-1.48,2.44h8.6l1.32-1.28c.08-.08,.24-.2,.36-.2s.24,.04,.6,.32c.52,.44,1.16,1,1.64,1.44,.28,.24,.4,.36,.4,.56,0,.16-.16,.24-.36,.24h-10.4c1.64,1,3,2.16,3,3.32,0,.92-.52,1.4-1.08,1.4-.68,0-1-.88-1.2-1.68-.2-.8-.72-1.76-1.76-3.04Zm-4.28,11h9.08v-4.12h-9.44c.36,.12,.68,.24,.88,.32,.28,.12,.4,.24,.4,.4,0,.36-.4,.64-.84,.92-.08,1-.08,1.28-.08,2.08v.4Z"/>
        <path class="cls-1" d="M52.28,60.95c1.36,.28,2.52,.28,3.8,.28h26.36l1.6-1.72c.12-.12,.24-.2,.4-.2,.2,0,.4,.12,.68,.32,.88,.6,1.92,1.32,2.76,1.92,.28,.2,.36,.36,.36,.48,0,.24-.28,.4-.52,.4h-30.55c-.68,0-2.04,.08-2.72,.6-.72-.24-1.72-.92-2.16-2.08Z"/>
        <path class="cls-1" d="M101.16,80.59c-.6,0-.84-.64-.84-1.36,0-.48,.08-3.12,.16-4.8,.08-1.92,.08-4.24,.08-6.68v-6.76c-1.76,4.08-4.52,7.64-8.16,10.4l-.32-.24c4-4.08,6.88-9.72,8.08-15.08h-1.96c-.68,0-2.04,.12-2.72,.64-.72-.24-1.64-.88-2.08-2.04,1.36,.28,2.52,.32,3.8,.32h3.32c0-1.4-.04-2.36-.12-3.76-.04-1.04-.12-1.88-.24-2.64-1.8,.2-3.76,.32-6.04,.32l-.04-.32c3.64-.48,7.48-1.6,9.44-2.68,.72-.4,1.32-.84,1.56-1.36,.8,.72,1.8,1.72,2.36,2.28,.16,.16,.2,.28,.2,.44,0,.24-.32,.36-.76,.36-.24,0-.76-.08-1.16-.2-1.2,.36-2.48,.68-3.84,.92,.44,.12,.84,.28,1.12,.4,.28,.12,.48,.24,.48,.44,0,.4-.36,.68-1.08,1.04-.04,1.56-.08,3.48-.08,4.76h2.28l.92-.92c.08-.08,.2-.16,.36-.16,.08,0,.2,.04,.4,.2,.64,.48,1.16,.92,1.72,1.44,.12,.12,.2,.24,.2,.32,0,.12-.16,.2-.36,.2h-5.52v2.76c3,1.48,5.04,3.44,5.04,4.84,0,1.04-.52,1.56-.92,1.56-.56,0-.92-.52-1.2-1.4-.36-1.12-1.24-2.76-2.92-4.48v8.28c0,1.88,.08,5.48,.12,6.68,.04,1.16,.08,3.56,.08,4.24,0,.8-.56,2.04-1.36,2.04Zm6.2-1.4c-.72-.24-1.64-.88-2.08-2.04,1.36,.28,2.52,.32,3.8,.32h7.72v-4.24h-3.6c-.68,0-2.04,.12-2.72,.64-.72-.24-1.64-.88-2.08-2.04,1.36,.28,2.52,.32,3.8,.32h4.6v-4.04h-4.72v.56c0,.44-.84,1.28-1.36,1.28s-.76-.28-.76-.84c0-.2,0-.68,.04-1.52,.04-1.28,.12-3.84,.12-5.72,0-1.6,0-4.76-.32-6.84,.96,.44,1.72,.8,2.36,1.16,.24,.12,.36,.28,.4,.4h4.24v-3.52h-5.4c-.68,0-2.04,.12-2.72,.64-.72-.24-1.64-.88-2.08-2.04,1.36,.28,2.52,.32,3.8,.32h6.4c0-.68,0-2.12-.24-3.44-2.52,.48-5.28,.84-7.8,.84l-.04-.4c3.76-.44,10.64-2.4,12.56-3.68,.72-.48,1.36-.92,1.6-1.44,.84,.76,1.8,1.72,2.44,2.36,.16,.16,.2,.28,.2,.44,0,.24-.4,.32-.8,.32-.36,0-.8-.08-1.2-.16-1.32,.4-3.16,.88-5.24,1.36,.48,.16,.88,.32,1.16,.44,.2,.08,.28,.24,.28,.4,0,.28-.36,.56-.88,.92-.08,.52-.12,1.48-.12,2.04h6.8l1.16-1.12c.08-.08,.24-.2,.36-.2s.24,.04,.48,.24c.64,.52,1.28,1.04,1.88,1.64,.12,.12,.2,.2,.2,.28,0,.16-.16,.24-.36,.24h-10.52v3.52h4.28l.8-.88c.2-.2,.36-.32,.48-.32,.16,0,.36,.12,.56,.24,.6,.4,.96,.64,1.48,1.04,.16,.12,.32,.24,.32,.44,0,.24-.44,.68-.92,1.12,0,1.56,.04,3.36,.12,6,.04,1.32,.08,3,.08,3.92,0,.64-.64,1.44-1.48,1.44-.6,0-.72-.6-.72-.92v-.56h-5v4.04h4.68l1.04-1c.08-.08,.24-.2,.36-.2s.28,.08,.48,.24c.6,.48,1.24,1.04,1.72,1.52,.12,.12,.2,.2,.2,.28,0,.16-.16,.24-.32,.24h-8.16v4.24h6.96l1.24-1.2c.12-.12,.28-.24,.4-.24s.32,.12,.52,.28c.64,.48,1.28,1.04,1.72,1.44,.32,.28,.44,.44,.44,.56,0,.2-.2,.24-.36,.24h-19.56c-.68,0-2.04,.12-2.72,.64Zm9.44-17.52v-4h-4.72v4h4.72Zm0,5.36v-4.28h-4.72v4.28h4.72Zm6.92-5.36v-4h-5v4h5Zm0,5.36v-4.28h-5v4.28h5Z"/>
        <path class="cls-1" d="M140.64,80.75c-.44,0-.72-.28-.72-1.24,0-1.08,.08-3.36,.16-5.4,.08-2.2,.16-4.44,.16-6.16v-5.68c0-1.08,0-3.24-.08-4.6-1.52,2.36-3.4,4.64-5.92,6.96l-.24-.32c4.36-5.76,6.96-12.08,8.12-16.32,.2-.68,.32-1.4,.32-2.04,0-.48,0-.96-.08-1.32,1.16,.52,2.56,1.16,3.28,1.56,.36,.2,.4,.32,.4,.44,0,.36-.76,.76-1.28,.92-1.04,3-2.12,5.76-3.6,8.44,.6,.36,1.2,.72,1.64,1.08,.16,.12,.32,.28,.32,.44,0,.4-.48,.72-.88,.96-.04,1.08-.04,2.28-.04,3.52v5.92c0,1.32,.04,3.4,.08,5.48,.04,2.16,.08,4.32,.08,5.56,0,.64-.92,1.8-1.72,1.8Zm28.92-2.92c-1.44,0-3.8-1.2-5.32-2.92-2.92-3.24-4.76-8.84-5.88-14.48h-8.12v10.08c2.32-.6,5.4-1.48,8-2.68l.16,.4c-2.24,1.72-7.36,3.92-11.08,5.32-.16,.56-.36,1.2-.8,1.2-.28,0-.48-.16-.88-.84-.32-.56-.72-1.36-1.28-2.6,.36,.04,.64,.04,.96,.04,.88,0,1.68-.08,2.96-.4v-16.72c0-1.4,0-1.84-.04-2.6-.04-1.04-.2-2-.6-3.16,1.56,.6,2.36,.96,3,1.28,.24,.12,.32,.28,.32,.44,0,.08-.04,.16-.12,.24,3.52-.8,8.56-2.44,10.92-3.68,.76-.4,1.48-.96,1.76-1.48,.68,.76,1.48,1.72,2.08,2.48,.12,.16,.16,.24,.16,.36,0,.24-.36,.32-.8,.32-.4,0-.92-.08-1.2-.2-1.44,.56-3.52,1.16-5.68,1.64,.44,.12,.84,.28,1.2,.44,.36,.16,.48,.28,.48,.44,0,.28-.28,.72-.56,1.12,.16,2.24,.48,4.84,.96,7.48h5.56l1.28-1.4c.12-.12,.24-.2,.4-.2s.28,.04,.56,.24c.84,.56,1.8,1.24,2.64,1.84,.16,.12,.2,.2,.2,.32s-.12,.28-.32,.28h-10.12c1.2,5.96,3.32,11.8,6.44,13.56,.36,.2,.68,.28,.92,.28,.52,0,.96-.64,1.44-1.84,.32-.76,.92-2.84,1.2-4.04l.4,.04c0,1.52-.12,3.56-.2,4.28-.08,.72-.16,1.64-.16,2.08,0,.8,.24,1.4,.68,1.8,0,.72-.6,1.24-1.52,1.24Zm-20.88-.6h9.68l1.36-1.48c.16-.16,.24-.24,.4-.24,.12,0,.24,.04,.52,.24,.76,.52,1.88,1.32,2.72,1.96,.16,.12,.2,.2,.2,.32s-.12,.28-.36,.28h-13.52c-.68,0-2.04,.04-2.72,.56-.72-.24-1.64-.8-2.08-1.92,1.36,.28,2.52,.28,3.8,.28Zm7.84-27.04c-2.24,.44-4.52,.8-6.28,.92v8.24h7.92c-.32-1.84-.56-3.64-.76-5.4-.16-1.52-.48-2.72-.88-3.76Z"/>
        <path class="cls-1" d="M206.75,52.19h-22.72c0,12.16-1.2,20.32-7.68,27.4l-.36-.2c4.72-6.92,5.88-15.76,5.88-26.36,0-1.92-.04-3.8-.12-5.6-.04-.8-.16-1.8-.52-3.04,1,.4,2.16,.88,3.04,1.36,.24,.12,.4,.24,.48,.36h21.36l.76-.88c.2-.24,.32-.28,.44-.28s.28,.08,.48,.2c.52,.32,1.2,.76,1.56,1.04,.28,.2,.36,.28,.36,.44,0,.2-.52,.68-.96,1.04,0,.32,.04,1.2,.08,2.08,.04,.96,.08,1.96,.08,2.32,0,.56-.84,1.24-1.48,1.24-.56,0-.68-.52-.68-.8v-.32Zm0-1.08v-3.92h-22.72v3.92h22.72Zm-19.6,17.04c-.52,0-.72-.32-.72-.84,0-.28,.04-1.8,.08-3.2,.04-1.48,.04-2.24,.04-3.64,0-1.56-.04-2.68-.28-4.32,1,.44,1.48,.68,2.24,1.12,.28,.16,.4,.28,.4,.32h4.52c-.32-.16-.52-.64-.64-1.2-.24-1.08-.88-2.44-2.16-3.68l.24-.32c2.08,.92,4.04,2.32,4.04,3.76,0,.76-.48,1.24-.88,1.44h5.92c.76-1.28,1.24-2.4,1.56-3.48,.16-.56,.2-1.12,.2-1.88,1,.48,2.08,1,2.76,1.52,.16,.12,.2,.2,.2,.28,0,.4-.88,.64-1.32,.68-.72,.96-1.44,1.72-2.68,2.88h6l.76-.84c.2-.2,.32-.28,.44-.28,.16,0,.32,.08,.52,.2,.44,.28,.96,.64,1.36,.96,.16,.12,.28,.24,.28,.4,0,.24-.4,.64-.84,1.04,0,1.12,.08,3.4,.12,4.56,.04,1.12,.08,2.32,.08,3.12,0,.56-.68,1.32-1.44,1.32-.52,0-.72-.52-.72-.88v-.4h-18.68v.12c0,.44-.92,1.24-1.4,1.24Zm9.56-6.52v-2.96h-8.16v2.96h8.16Zm0,4.08v-3h-8.16v3h8.16Zm-7.08,15c-.52,0-.72-.32-.72-.84,0-.28,.04-1.8,.08-3.2,.04-1.48,.04-2.68,.04-4.08,0-1.76-.04-2.68-.28-4.32,.96,.44,1.48,.68,2.24,1.12,.28,.16,.4,.28,.4,.32h12.76l.76-.84c.2-.2,.32-.28,.44-.28,.16,0,.32,.08,.52,.2,.44,.28,.96,.64,1.36,.96,.16,.12,.28,.24,.28,.4,0,.24-.4,.64-.84,1.04,0,1.12,.08,3.64,.12,4.84,.04,1.16,.08,2.52,.08,3.28,0,.56-.68,1.32-1.44,1.32-.52,0-.72-.52-.72-.88v-.96h-13.68v.68c0,.44-.92,1.24-1.4,1.24Zm15.08-7.08v-2.84h-13.68v2.84h13.68Zm0,4.08v-3h-13.68v3h13.68Zm2.52-16.08v-2.96h-8.44v2.96h8.44Zm0,4.08v-3h-8.44v3h8.44Z"/>
        <path class="cls-1" d="M224.64,80.63c-.44,0-.72-.28-.72-1.24,0-1.04,.08-3.48,.16-5.6,.08-2.32,.16-4.64,.16-6.36v-6.08c0-.96,0-2.72-.08-4.08-1.88,2.84-4.16,5.52-7,7.72l-.28-.32c4.56-5,7.88-12.24,9.48-16.68,.44-1.16,.52-2.12,.52-2.64,0-.36-.04-.72-.08-1.04,1.16,.6,2.56,1.36,3.32,1.8,.36,.2,.44,.36,.44,.48,0,.4-.88,.76-1.44,.88-.96,2.52-2.16,5.16-3.68,7.76,.52,.32,1,.64,1.4,.92,.16,.12,.32,.28,.32,.44,0,.4-.48,.72-.88,.96-.04,1.08-.04,2.28-.04,3.52v6.32c0,1.36,.04,3.64,.08,5.88,.04,2.12,.08,4.32,.08,5.56,0,.64-.88,1.8-1.76,1.8Zm5.28-1.92c-.72-.24-1.56-.8-2-1.96,1.36,.28,2.44,.28,3.72,.28h7.72v-11.64h-3.6c-.68,0-2.04,.04-2.72,.56-.72-.24-1.64-.8-2.08-1.92,1.36,.28,2.52,.28,3.8,.28h4.6v-9.72h-5.12c-.68,0-2.04,.08-2.72,.6-.72-.24-1.64-.8-2.08-1.96,1.36,.28,2.52,.28,3.8,.28h14.48l1.36-1.36c.12-.12,.28-.24,.44-.24,.12,0,.32,.12,.56,.28,.8,.56,1.64,1.2,2.4,1.8,.16,.12,.24,.24,.24,.36s-.16,.24-.32,.24h-10.84v9.72h5.28l1.08-1.16c.16-.16,.24-.24,.4-.24,.12,0,.2,.04,.48,.24,.64,.44,1.52,1.08,2.28,1.64,.16,.12,.2,.2,.2,.32s-.12,.28-.36,.28h-9.36v11.64h7.6l1.28-1.4c.12-.12,.24-.2,.4-.2s.28,.04,.56,.24c.84,.56,1.8,1.24,2.64,1.84,.16,.12,.2,.2,.2,.32s-.12,.28-.32,.28h-21.28c-.68,0-2.04,.08-2.72,.6Zm6-33.15l.12-.4c2.96,.88,6.44,2.48,6.44,4.4,0,.8-.48,1.56-1.08,1.56-.56,0-.88-.48-1.24-1.2-.68-1.36-2.44-3.24-4.24-4.36Z"/>
        <path class="cls-1" d="M288.51,54.87h-20.28c-.04,8.64-.88,17.8-8.48,25.08l-.36-.2c5.12-7.48,6.76-15.12,6.76-25.44,0-2.2,0-3.8-.08-5.6-.04-.8-.16-1.8-.48-3.04,.88,.32,2.36,.96,3.04,1.28,.32,.16,.44,.28,.48,.4h18.68l.88-1c.2-.24,.32-.28,.44-.28s.28,.08,.48,.2c.52,.32,1.12,.72,1.56,1.04,.24,.16,.36,.28,.36,.44,0,.2-.52,.68-.96,1.04,.08,2.24,.16,5.6,.16,6.36,0,.56-.84,1.24-1.48,1.24-.56,0-.72-.52-.72-.8v-.72Zm-16,25.76c-.52,0-.76-.32-.76-.84,0-.32,.04-1.36,.12-2.4,.04-.64,.04-3.76,.04-5.24,0-1.76-.04-3.72-.32-5.48,1,.48,1.64,.8,2.36,1.2,.28,.16,.4,.24,.4,.32h5.24v-5.72h-6.72c-.68,0-2.04,.08-2.72,.6-.72-.24-1.64-.8-2.08-1.96,1.36,.28,2.52,.28,3.8,.28h7.72c0-.76,0-1.48-.08-2.44-.08-1.08-.28-2.16-.52-3,1.32,.36,2.24,.64,3.08,.92,.52,.16,.64,.28,.64,.52,0,.4-.48,.64-1,.88-.08,1.16-.08,2.04-.08,3.12h9.36l1.2-1.32c.12-.12,.24-.2,.4-.2,.12,0,.24,.04,.52,.24,.92,.6,1.72,1.16,2.52,1.76,.16,.12,.2,.2,.2,.32s-.12,.28-.32,.28h-13.88v5.72h5.4l.76-.84c.2-.2,.36-.32,.48-.32,.16,0,.28,.04,.52,.2,.56,.36,.96,.64,1.44,1,.16,.12,.28,.24,.28,.44,0,.24-.4,.64-.84,1.08,0,1.32,.04,3.44,.08,5.4,.04,1.52,.08,3.2,.08,4.04,0,.6-.68,1.36-1.48,1.36-.6,0-.76-.56-.76-.88v-1.32h-13.6v1c0,.44-.96,1.28-1.48,1.28Zm16-26.83v-5.36h-20.28v5.36h20.28Zm-.92,23.48v-8h-13.6v8h13.6Z"/>
        <path class="cls-1" d="M323.6,80.75c-.64-.8-1.36-1.16-2.12-1.56-.76-.4-1.72-1.16-2.48-2.24l.2-.28c1.04,.52,2.56,1.08,3.84,1.08,1.16,0,1.72-.56,1.72-1.72v-6.4h-18.64c-.68,0-2.04,.08-2.72,.6-.72-.24-1.64-.84-2.08-1.96,1.36,.28,2.52,.28,3.8,.28h19.64v-.92c0-1.24-.16-2.4-.4-3.28h-13.16v.44c0,.44-.96,1.32-1.48,1.32-.56,0-.8-.32-.8-.88,0-.48,0-.68,.04-1.84,.04-1.48,.12-4.44,.12-5.92,0-1.72-.04-4.08-.32-5.96,1.08,.52,1.76,.88,2.44,1.28,.28,.16,.44,.28,.44,.36h7.28v-3.44h-9.84c-.68,0-2.04,.08-2.72,.6-.72-.24-1.64-.8-2.08-1.96,1.36,.28,2.52,.28,3.8,.28h10.84c0-.36-.04-1.12-.08-1.88-.08-1.08-.28-2.16-.52-3,1.08,.32,2.4,.8,3.08,1.08,.48,.2,.68,.32,.68,.56,0,.4-.6,.8-1.04,1.04-.04,.68-.08,1.48-.08,2.2h9.76l1.36-1.36c.12-.12,.28-.24,.44-.24,.12,0,.32,.12,.56,.28,.84,.56,1.72,1.24,2.4,1.8,.16,.12,.24,.24,.24,.36s-.16,.24-.32,.24h-14.44v3.44h7.32l.8-.88c.2-.2,.36-.32,.48-.32,.16,0,.36,.12,.56,.24,.6,.4,.96,.64,1.48,1.04,.16,.12,.32,.24,.32,.44,0,.24-.44,.68-.92,1.12,0,1.36,.08,4.36,.12,5.52,.04,1.28,.08,3.2,.08,3.96,0,.64-.68,1.44-1.52,1.44-.6,0-.76-.6-.76-.92v-.44h-4.44c1.08,.4,2.4,1.04,2.84,1.28,.28,.16,.32,.24,.32,.36,0,.32-.48,.68-1,.92v1.64h5.88l1.44-1.44c.08-.08,.24-.24,.4-.24,.12,0,.32,.12,.64,.32,1,.6,1.92,1.16,2.8,1.84,.16,.12,.2,.2,.2,.32,0,.16-.2,.28-.36,.28h-11v.36c0,1.16,0,2.4,.04,3.8,.04,1.4,.04,2.48,.04,3.44,0,1.76-1.36,2.76-3.12,3.52Zm-7.4-4.16c-.76,0-1.16-.76-1.72-1.84-.52-1-1.52-2.28-3.52-3.72l.16-.4c3.16,.96,6.04,2.6,6.04,4.6,0,.72-.4,1.36-.96,1.36Zm2.72-18.52v-3.84h-7.72v3.84h7.72Zm0,5.2v-4.12h-7.72v4.12h7.72Zm10-5.2v-3.84h-7.96v3.84h7.96Zm0,5.2v-4.12h-7.96v4.12h7.96Z"/>
        <path class="cls-1" d="M358.44,66.15h-9.16c-.48,4.16-2,9.28-7.24,13.88l-.4-.28c3.92-5.08,5.16-9.56,5.6-16.16,.16-2.28,.16-5.88,.16-9.52v-3.4c0-1.6-.36-3.52-.68-4.32,1.16,.44,2.76,1.12,3.4,1.4,.2,.08,.28,.16,.32,.28h19.12l.8-1c.2-.24,.32-.36,.48-.36,.12,0,.4,.16,.6,.28,.52,.32,1.36,.88,1.8,1.2,.2,.16,.32,.28,.32,.44,0,.32-.64,.8-1.24,1.2-.08,.92-.08,2.36-.08,3.84,0,2.84,.08,12.28,.16,15.24,.04,1.88,.12,5.68,.12,6.72,0,2.04-1.6,3.32-3.24,4.04-.52-.76-1.2-1.24-2.2-1.84-1.16-.68-2.12-1.28-2.8-2.2l.2-.36c1.84,.84,3.44,1,4.52,1,.64,0,1-.24,1.12-.96,.08-.56,.12-2.2,.12-3.2v-5.92h-9.84v.12c0,2.24,.08,5.56,.12,6.68,.04,1.16,.12,3.44,.12,4.24s-.76,2.04-1.56,2.04c-.6,0-.96-.64-.96-1.36,0-.6,.12-3.16,.2-4.84,.08-1.92,.12-4.2,.12-6.64v-.24Zm0-1.08v-7.56h-8.84c0,2.72-.08,5.56-.24,7.56h9.08Zm-.36-15.96h-8.48v7.32h8.84c0-1.4-.04-3.24-.12-4.76-.04-.8-.08-1.72-.24-2.56Zm2.32,7.32h9.84v-7.32h-9.76c.72,.2,.92,.4,.92,.6,0,.4-.32,.64-.92,1-.08,1.76-.08,3.92-.08,5.72Zm9.84,8.64v-7.56h-9.84v7.56h9.84Z"/>
        <path class="cls-1" d="M383.76,75.55c-.16,0-.32-.08-.48-.32-.24-.36-.8-1.24-1.76-2.88,1.8-.04,4.24-.6,6.6-1.32v-13.68h-1.96c-.68,0-2.04,.08-2.72,.6-.72-.24-1.64-.8-2.08-1.96,1.36,.28,2.52,.28,3.8,.28h2.96v-4.72c0-1,0-1.8-.08-3.04-.08-1.08-.28-2.16-.52-3,1.32,.36,2.24,.64,3.08,.92,.52,.16,.64,.28,.64,.52,0,.4-.48,.64-1,.88-.08,1.32-.08,2.28-.08,3.6v4.84h1.68l1.04-1.04c.12-.12,.24-.24,.36-.24s.24,.08,.44,.24c.4,.32,1.28,1.08,1.84,1.64,.12,.12,.16,.2,.16,.28,0,.12-.16,.2-.28,.2h-5.24v13.04c2.04-.68,3.88-1.4,5.16-1.96l.2,.36c-2.8,1.88-7.64,4.32-10.96,5.68-.12,.56-.4,1.08-.8,1.08Zm23.84,3.4c-1.92,0-5.28-.04-6.92-.28-1.92-.28-3.92-1.56-3.92-4.64v-12.76l-.96,.36c-.64,.24-1.92,.8-2.32,1.44-.96,0-1.84-.08-2.68-1.04,1.4-.2,2.6-.68,3.64-1.08l2.32-.88v-5.84c0-2.16-.16-3.44-.6-4.68,1.48,.52,2.48,.92,3.36,1.32,.28,.12,.36,.28,.36,.44,0,.32-.4,.64-.92,1.04-.08,.4-.12,1.08-.12,2v4.92l4.92-1.88v-6c0-1.72,0-4.64-.56-6.56,1.32,.44,2.28,.76,3.16,1.08,.4,.16,.6,.28,.6,.48,0,.4-.4,.68-1.2,1.04-.04,1.28-.04,2.92-.04,3.72v5.48l5.28-2.04,.88-1.16c.12-.16,.2-.2,.32-.2s.24,.04,.48,.2c.6,.4,1.16,.84,1.68,1.28,.2,.16,.28,.28,.28,.44,0,.28-.76,.84-1.16,1.08,0,4.04,0,9.8-.76,11.88-.48,1.32-1.56,2.24-3.32,2.72-.24-.48-.8-1.12-1.48-1.64-.48-.36-1.04-.96-1.52-1.68l.24-.36c1.16,.56,2.36,.84,3,.84,.68,0,1-.28,1.24-1,.52-1.52,.6-4.56,.6-7.6,0-1.28,0-2.6-.04-3.8l-5.72,2.24v4.56c0,.4,0,4.32,.04,5,.04,.8,.12,2.64,.12,3.08,0,.92-.92,1.72-1.56,1.72-.52,0-.76-.4-.76-1,0-.56,.08-2.72,.12-3.48,.04-1,.08-4.76,.08-5.2v-3.96l-4.92,1.92v12.96c0,2.44,1,2.88,2.76,3.16,1.08,.16,3.4,.28,5.56,.28,5.08,0,6.12-.12,7-2.6,.44-1.24,.88-3.28,1.12-5.16h.4c.2,1.68,.28,3.48,.28,4.72,0,1.08,.28,1.92,.96,2.48,0,1.16-1.56,1.76-3.04,2.16-1.24,.32-4.36,.48-6.28,.48Z"/>
        <path class="cls-1" d="M423.88,75.11c-.2,0-.36-.12-.56-.44-.32-.48-.84-1.48-1.4-2.68,1.32,0,2.16-.16,3.4-.48,.8-.2,1.56-.44,2.4-.72v-13.64h-.92c-.68,0-2.04,.08-2.72,.6-.72-.24-1.64-.84-2.08-1.96,1.36,.28,2.52,.28,3.8,.28h1.92v-4.56c0-1,0-1.8-.08-3.04-.08-1.08-.28-2.16-.52-3,1.28,.36,2.32,.72,3.16,1.04,.4,.16,.6,.28,.6,.48,0,.4-.52,.8-1.04,1.08-.08,1.32-.08,2-.08,3.32v4.68h1.52l1.16-1.12c.08-.08,.24-.2,.36-.2s.24,.04,.48,.24c.64,.52,1.4,1.16,1.88,1.64,.12,.12,.2,.2,.2,.28,0,.16-.16,.24-.36,.24h-5.24v12.84c1.44-.56,2.92-1.2,4.36-1.92l.12,.4c-2.96,2.16-6.48,4.2-9.6,5.52-.12,.56-.4,1.12-.76,1.12Zm10.2,.32c-.24-.36-.76-1.28-1.64-2.96,.64,0,1.92-.04,3.36-.24,3.2-.48,7.04-1.68,9.92-2.92l.16,.4c-2.92,1.84-6.36,3.6-10.48,4.92-.16,.6-.4,1.12-.8,1.12-.16,0-.32-.04-.52-.32Zm15.32-3.76c-2.64,3.28-6.28,5.96-11.88,7.68l-.32-.36c4.6-1.72,8.48-5.16,11.32-9.2-.32-.72-.6-1.48-.84-2.28-1.16-3.64-2.04-8.24-2.56-13.64h-6.44c-.68,0-2.04,.08-2.72,.6-.72-.24-1.64-.8-2.08-1.96,1.36,.28,2.52,.28,3.8,.28h7.36c-.12-1.32-.2-2.64-.28-4.04-.12-2.2-.52-3.52-1.04-4.48,1.16,.28,2.56,.68,3.2,.92,.4,.16,.56,.32,.56,.48,0,.28-.32,.72-.76,1.2,0,2.12,.08,4.08,.2,5.92h6.68l1.36-1.36c.12-.12,.28-.24,.44-.24,.12,0,.32,.12,.56,.28,.8,.56,1.64,1.2,2.4,1.8,.2,.16,.24,.24,.24,.36s-.16,.24-.32,.24h-11.28c.4,4.76,1.2,8.72,2.32,12.44,.12,.44,.32,.96,.52,1.44,1.44-2.48,2.52-5.12,3.16-7.68,.36-1.44,.52-2.64,.52-4.04,1.04,.68,2.2,1.48,2.96,2.08,.36,.28,.56,.44,.56,.64,0,.48-.84,.64-1.4,.76-1.44,3.64-2.84,7.16-4.88,10.28,.92,1.8,2.04,3.52,3.08,4.64,.6,.64,1.16,1,1.76,1,.48,0,.96-.96,1.36-2,.36-.96,.64-2.12,.8-3.44h.4c.08,.84,.12,1.72,.12,2.64,0,.48-.04,1.36-.08,2-.04,.56-.04,.76-.04,1,0,1.12,.16,1.76,.68,2.24,0,.68-.52,1.16-1.4,1.16-1.72,0-5.36-2.2-8.04-7.36Zm-13.4-2.88c-.44,0-.6-.28-.6-.72,0-.4,0-.76,.04-1.64,.08-1.8,.12-3.32,.12-5.04,0-.76,0-2.36-.28-3.84,.84,.36,1.6,.76,2.2,1.08,.16,.08,.24,.16,.28,.24h3.56l.68-.76c.2-.24,.28-.24,.36-.24s.2,.04,.44,.2c.44,.28,.92,.6,1.36,.92,.12,.08,.32,.24,.32,.4,0,.2-.48,.6-.88,.92,0,.64,.04,2,.08,3.24,.04,1.28,.08,2.68,.08,3.32,0,.52-.84,1.12-1.4,1.12-.52,0-.72-.48-.72-.72v-.8h-4.2v1.28c0,.48-.96,1.04-1.44,1.04Zm5.64-3.4v-5.44h-4.2v5.44h4.2Zm9.88-15.6c-.4-1-1.4-2.08-2.64-3.16l.12-.4c1.84,.6,4.48,1.52,4.48,3.48,0,.52-.48,1.12-.96,1.12-.4,0-.8-.52-1-1.04Z"/>
      </g>
      <g>
        <path class="cls-1" d="M540.06,66.71c0-.4-.04-.8-.12-1.24,1.04,.4,2.08,.84,2.8,1.24,.36,.2,.4,.28,.4,.36,0,.28-.56,.6-.92,.76-1.12,3.56-2.6,6.64-5.12,9.48l-.36-.2c1.8-2.76,2.92-6.88,3.28-9.52,.04-.28,.04-.56,.04-.88Zm4.88,14c-.56,0-.88-.56-.88-1.12,0-.6,.12-3.24,.2-4.96,.08-1.64,.12-3.68,.12-6.2v-5.8c-1.4,.24-2.96,.48-4.76,.72-.24,.36-.72,.92-.96,.92-.2,0-.4-.16-.64-.68-.24-.48-.52-1.28-.92-2.52,1.16,.32,2.16,.36,4.32,.36,2.96-3.32,5.2-7.16,6.52-9.8,.24-.48,.52-1.36,.52-2.36,1,.6,2.2,1.36,2.84,1.8,.24,.16,.28,.24,.28,.36,0,.36-.92,.76-1.36,.84-2.48,3.56-4.64,6.28-8.04,9.16,2.04,0,4.68-.12,6.96-.52-.4-.96-1-1.96-1.84-2.76l.24-.36c2.04,1.2,4.6,3.76,4.6,5.28,0,.92-.52,1.48-1,1.48-.72,0-1.08-.8-1.28-1.56-.12-.44-.28-1-.52-1.52-.96,.32-1.96,.6-3.08,.84v6.04c0,1.84,.04,4.24,.08,6.24,.04,1.84,.08,3.72,.08,4.16,0,.76-.72,1.96-1.48,1.96Zm-1.48-24.28c-.6,0-1-.72-1.36-1.44-.6-1.24-1.76-3.12-3.6-4.52l.24-.36c1,.4,2.16,1.04,3.2,1.76,1.24-1.8,2.08-3.52,2.64-5.28,.24-.76,.28-1.4,.28-2.28,1.04,.56,2.4,1.36,3.08,1.76,.2,.12,.24,.2,.24,.28,0,.48-1,.72-1.48,.76-1.2,2.04-2.52,3.44-4.32,5.08,1.2,.96,2.12,2,2.12,2.84,0,.72-.48,1.4-1.04,1.4Zm3.96,8.84l.32-.28c2.04,1.8,3.52,3.6,3.52,5.44,0,.84-.56,1.64-1.08,1.64s-.92-.48-1.08-1.96c-.16-1.4-.68-3.24-1.68-4.84Zm6.36,7.56c-.04,2.76-.96,5.2-2.88,5.2-.6,0-.72-.68-.72-1.28,0-.56,.4-1.16,.76-1.56,1.08-1.28,1.92-3.12,2.24-5.36h.4c.12,.96,.2,2,.2,3Zm-3.48-15.52c2.36-2.4,3.92-5.16,4.92-7.88,.48-1.28,.48-2.28,.48-3.2,1.28,.64,2.28,1.2,2.92,1.6,.24,.16,.32,.28,.32,.44,0,.36-.72,.64-1.24,.76-1.76,3.6-3.52,6.08-7.12,8.6l-.28-.32Zm4.24,6.68c-.28,0-.44-.12-.72-.92-.2-.52-.4-1.16-.76-2.4,1.04,.28,1.8,.36,2.84,.36,1.04-1.72,2.16-3.96,2.48-5.52,.12-.56,.24-1.24,.28-2.08,1.12,.44,2.2,.88,2.96,1.2,.28,.12,.32,.24,.32,.32,0,.44-.92,.72-1.48,.84-1,1.92-2.24,3.64-3.76,5.24,1.72-.04,5.04-.12,8.04-.6-.48-.84-1.2-1.72-2.2-2.48l.2-.36c2.2,.96,5.12,3.44,5.12,4.72,0,.8-.36,1.48-1,1.48-.44,0-1-.52-1.32-1.52-.12-.4-.28-.84-.52-1.32-2.76,.96-5.68,1.64-9.6,2.12-.2,.4-.6,.92-.88,.92Zm11.64,14.6c-.92,.16-1.84,.2-3.16,.2-1.84,0-3.12-.64-3.84-1.24-2-1.64-2.48-5.8-2.88-9.36-.08-.8-.36-1.76-.64-2.44,.92,.4,2.08,1,2.64,1.32,.28,.16,.36,.32,.36,.52,0,.24-.28,.48-.6,.76,.08,1.72,.52,6,2,7.52,.72,.76,1.52,1.04,2.84,1.04,2.92,0,2.92-.92,2.92-2.52,0-.84-.08-1.8-.2-2.48l.4-.16c.52,.88,1,1.92,1.28,2.92,.24,.92,.56,1.88,1.2,2.04-.16,1.24-.64,1.56-2.32,1.88Zm-3.56-9.16c-.4-1.36-1.16-2.64-2.48-4.16l.24-.32c2.6,1.2,4.24,2.76,4.24,4.04,0,.72-.52,1.56-1.04,1.56-.48,0-.8-.56-.96-1.12Zm-2-23.08l.08-.68c.6,.08,1.64,.24,2.28,.68,.24,.16,.44,.36,.6,.6,.36,.56,.76,1.48,1.2,2.48,1.36,3.08,3.92,6.16,8.96,7.44-.4,.56-.96,.92-2.08,1-.48,.04-.68,.2-.96,.44-.28,.24-.48,.4-.68,.4-.24,0-.48-.12-.76-.36-2.68-2.28-4.16-5-5.68-8.92-.6-1.56-.92-2.2-1.4-2.52-.44-.28-1.16-.48-1.56-.56Zm11.28,29.68c-.56,0-.84-.68-1.04-1.52-.4-1.68-1.44-3.88-2.92-5.52l.24-.32c3.08,1.8,4.96,4.4,4.96,5.68s-.72,1.68-1.24,1.68Z"/>
        <path class="cls-1" d="M593.94,71.87h-5.24c-1.4,3.76-4.48,7.28-9.4,8.68l-.16-.4c6.24-3.32,8.24-8.44,8.24-11.28,0-.24,0-.84-.04-1h-3.72c-.68,0-2.04,.04-2.72,.56-.72-.24-1.64-.76-2.08-1.92,1.36,.28,2.52,.28,3.8,.28h5.72v-.96c0-.84-.12-2-.32-2.76,.92,.32,1.96,.68,2.48,.92,.4,.2,.6,.36,.6,.56,0,.32-.32,.48-.92,.76-.04,.32-.04,1.04-.04,1.4v.08h6.32l1-1.08c.12-.12,.2-.2,.36-.2,.12,0,.24,.04,.48,.2,.8,.56,1.36,.96,2.12,1.56,.16,.12,.2,.2,.2,.32s-.08,.28-.32,.28h-12.48c.8,.32,1.76,.72,2.28,.96,.16,.08,.32,.16,.32,.36,0,.36-.68,.68-1.12,.76-.08,.36-.12,.52-.24,.84h4.68l.48-.56c.16-.2,.32-.32,.48-.32,.2,0,.36,.08,.56,.24,.48,.36,.96,.76,1.32,1.12,.24,.24,.28,.32,.28,.52,0,.28-.6,.64-1.24,.96-.44,3.4-1,5.72-2.2,6.6-.88,.64-1.44,.84-2.48,1-.12-.64-.6-1.08-1.4-1.48-.48-.24-1.12-.68-1.92-1.4l.2-.36c1.12,.4,2.2,.64,3.04,.64,1.04,0,1.84-.2,2.2-1.24,.44-1.28,.76-2.8,.88-4.64Zm-10.96-7.48c-.52,0-.76-.32-.76-.84,0-.32,.08-2.16,.12-3.04,.04-1.16,.04-2.8,.04-4.04,0-1.52-.08-2.92-.28-4.4,1,.48,1.56,.76,2.28,1.16,.28,.16,.4,.24,.44,.32h4.08v-2.8h-5.16c-.68,0-2.04,.04-2.72,.56-.72-.24-1.64-.76-2.08-1.92,1.36,.28,2.52,.28,3.8,.28h6.16v-.48c0-.4,0-.84-.08-1.76-.08-1.08-.28-2.16-.52-3,1.36,.4,1.96,.6,2.84,.92,.52,.2,.76,.36,.76,.64,0,.52-.56,.88-1.12,1.2-.08,1-.08,1.4-.08,1.88v.6h6.4l.92-1c.12-.12,.2-.2,.36-.2,.12,0,.2,.04,.44,.2,.76,.56,1.24,.92,2,1.52,.16,.12,.2,.2,.2,.32,0,.08-.08,.24-.32,.24h-10v2.8h4l.76-.84c.2-.2,.36-.32,.48-.32s.24,.04,.48,.2c.56,.36,.96,.64,1.44,1,.16,.12,.28,.24,.28,.44s-.4,.64-.84,1.04c0,1.08,.04,2.84,.08,4.2,.04,1.4,.08,3,.08,3.68,0,.6-.56,1.36-1.36,1.36-.56,0-.72-.52-.72-.88v-.48h-11.08v.2c0,.4-.8,1.24-1.32,1.24Zm5.92-6.72v-3.04h-4.6v3.04h4.6Zm0,4.2v-3.12h-4.6v3.12h4.6Zm6.48-4.2v-3.04h-4.68v3.04h4.68Zm0,4.2v-3.12h-4.68v3.12h4.68Zm1.4-14.08c0,.56-.36,1.08-.84,1.08-.44,0-.72-.28-1-.76-.56-.96-1.24-1.84-2.48-2.24l.12-.4c2.36,.32,4.2,1.08,4.2,2.32Zm15.84,32.39c-.6,0-1.88-.88-4.2-4.16-.88-1.24-1.68-2.88-2.4-4.56-2,3.8-4.88,6.64-9.36,8.6l-.32-.4c4.2-2.68,6.96-6.16,8.84-10.44-.44-1.28-.84-2.48-1.12-3.52-.64-2.28-1.16-3.96-1.48-4.76-.2-.48-.88-1.4-1.24-1.6l.24-.48c1.12,.72,1.68,1.44,2.04,2.44,.72,2.12,1.48,4.16,2.32,6.04,1.08-3.04,1.76-6.4,2.24-10.12,.08-.72,.12-1.4,.12-2,0-.28,0-.56-.04-.8h-5.08c-1.08,2.88-2.56,5.76-4.64,7.84l-.32-.28c3.48-5.04,4.76-13.56,4.76-16.28,0-.4-.04-.88-.08-1.28,1.16,.48,2.08,.88,3.12,1.44,.36,.2,.48,.4,.48,.64,0,.36-.76,.64-1.36,.8-.32,1.72-.84,3.88-1.56,6.04h7.4l1.16-1.12c.08-.08,.24-.2,.36-.2s.24,.04,.48,.24c.64,.52,1.4,1.16,1.88,1.64,.12,.12,.2,.2,.2,.28,0,.16-.16,.24-.36,.24h-5.6c.8,.44,1.6,.88,2.16,1.2,.28,.16,.36,.24,.36,.48,0,.36-.6,.6-1.16,.76-.96,4.92-1.96,9.16-3.48,12.64,2.2,4.28,5.12,7.48,9.72,8.96-.6,.76-1.32,.8-2.48,.92-.44,.04-.56,.16-.84,.44-.2,.2-.52,.36-.76,.36Z"/>
        <path class="cls-1" d="M623.22,75.55c-.16,0-.32-.08-.48-.32-.24-.36-.8-1.24-1.76-2.88,1.8-.04,4.24-.6,6.6-1.32v-13.68h-1.96c-.68,0-2.04,.08-2.72,.6-.72-.24-1.64-.8-2.08-1.96,1.36,.28,2.52,.28,3.8,.28h2.96v-4.72c0-1,0-1.8-.08-3.04-.08-1.08-.28-2.16-.52-3,1.32,.36,2.24,.64,3.08,.92,.52,.16,.64,.28,.64,.52,0,.4-.48,.64-1,.88-.08,1.32-.08,2.28-.08,3.6v4.84h1.68l1.04-1.04c.12-.12,.24-.24,.36-.24s.24,.08,.44,.24c.4,.32,1.28,1.08,1.84,1.64,.12,.12,.16,.2,.16,.28,0,.12-.16,.2-.28,.2h-5.24v13.04c2.04-.68,3.88-1.4,5.16-1.96l.2,.36c-2.8,1.88-7.64,4.32-10.96,5.68-.12,.56-.4,1.08-.8,1.08Zm23.84,3.4c-1.92,0-5.28-.04-6.92-.28-1.92-.28-3.92-1.56-3.92-4.64v-12.76l-.96,.36c-.64,.24-1.92,.8-2.32,1.44-.96,0-1.84-.08-2.68-1.04,1.4-.2,2.6-.68,3.64-1.08l2.32-.88v-5.84c0-2.16-.16-3.44-.6-4.68,1.48,.52,2.48,.92,3.36,1.32,.28,.12,.36,.28,.36,.44,0,.32-.4,.64-.92,1.04-.08,.4-.12,1.08-.12,2v4.92l4.92-1.88v-6c0-1.72,0-4.64-.56-6.56,1.32,.44,2.28,.76,3.16,1.08,.4,.16,.6,.28,.6,.48,0,.4-.4,.68-1.2,1.04-.04,1.28-.04,2.92-.04,3.72v5.48l5.28-2.04,.88-1.16c.12-.16,.2-.2,.32-.2s.24,.04,.48,.2c.6,.4,1.16,.84,1.68,1.28,.2,.16,.28,.28,.28,.44,0,.28-.76,.84-1.16,1.08,0,4.04,0,9.8-.76,11.88-.48,1.32-1.56,2.24-3.32,2.72-.24-.48-.8-1.12-1.48-1.64-.48-.36-1.04-.96-1.52-1.68l.24-.36c1.16,.56,2.36,.84,3,.84,.68,0,1-.28,1.24-1,.52-1.52,.6-4.56,.6-7.6,0-1.28,0-2.6-.04-3.8l-5.72,2.24v4.56c0,.4,0,4.32,.04,5,.04,.8,.12,2.64,.12,3.08,0,.92-.92,1.72-1.56,1.72-.52,0-.76-.4-.76-1,0-.56,.08-2.72,.12-3.48,.04-1,.08-4.76,.08-5.2v-3.96l-4.92,1.92v12.96c0,2.44,1,2.88,2.76,3.16,1.08,.16,3.4,.28,5.56,.28,5.08,0,6.12-.12,7-2.6,.44-1.24,.88-3.28,1.12-5.16h.4c.2,1.68,.28,3.48,.28,4.72,0,1.08,.28,1.92,.96,2.48,0,1.16-1.56,1.76-3.04,2.16-1.24,.32-4.36,.48-6.28,.48Z"/>
        <path class="cls-1" d="M666.62,80.15c-.36,0-.72-.28-.72-.88,0-.52,.04-1.68,.08-2.68,.08-1.56,.16-3.88,.16-5.72v-10.32c0-3.76-.12-4.64-.36-6.08,.96,.44,1.92,.88,2.52,1.24,.2,.12,.28,.2,.32,.28h7.4c.92-1.88,1.92-4.6,2.08-5.96,.04-.32,.04-.72,.04-1.16h-10.64c-.68,0-2.04,.08-2.72,.6-.72-.24-1.64-.8-2.08-1.96,1.36,.28,2.52,.28,3.8,.28h25.72l1.52-1.48c.08-.08,.2-.2,.36-.2,.2,0,.36,.12,.64,.32,.84,.6,1.68,1.2,2.52,1.84,.16,.12,.24,.2,.24,.32,0,.16-.12,.28-.32,.28h-17.8c.72,.36,1.32,.68,2.04,1.16,.12,.08,.28,.2,.28,.4,0,.32-1.04,.6-1.56,.72-.76,1.52-2.24,3.48-3.32,4.84h14.4l.8-.84c.24-.24,.4-.36,.52-.36,.16,0,.24,.04,.48,.2,.6,.4,1.08,.72,1.56,1.08,.28,.2,.36,.32,.36,.48,0,.24-.4,.56-.88,.92-.08,.72-.08,1.92-.08,2.48v10.32c0,.84,.04,2.64,.08,4.36,.04,1.52,.08,3.08,.08,3.8,0,.52-.88,1.44-1.48,1.44-.52,0-.8-.32-.8-.92v-2.16h-23.6v2c0,.48-1.04,1.36-1.64,1.36Zm7.8-4.44v-18.64h-6.16v18.64h6.16Zm8.76-13.32v-5.32h-6.72v5.32h6.72Zm0,6.48v-5.4h-6.72v5.4h6.72Zm0,6.84v-5.76h-6.72v5.76h6.72Zm8.68,0v-18.64h-6.64v18.64h6.64Z"/>
        <path class="cls-1" d="M710.82,80.63c-.6,0-.84-.64-.84-1.36,0-.48,.16-3.36,.24-4.8,.16-3.48,.28-8.92,.32-13.76-1.72,4.36-4.52,8.08-8.32,10.96l-.32-.24c4-4.08,6.88-9.72,8.08-15.08h-1.64c-.68,0-2.04,.04-2.72,.56-.72-.24-1.64-.76-2.08-1.92,1.36,.28,2.52,.28,3.8,.28h3.2v-1.44c0-1.56,0-2.48-.04-3.44-.04-.52-.08-1-.2-1.56-2,.32-4.16,.56-6.4,.6l-.04-.4c3.64-.56,8.12-1.88,10.04-2.96,.72-.4,1.32-.84,1.56-1.36,.76,.72,1.76,1.68,2.32,2.24,.16,.16,.24,.28,.24,.44,0,.24-.44,.28-.8,.28-.24,0-.76-.04-1.16-.12-1.16,.36-2.52,.68-4,.96,.44,.16,.76,.28,1.04,.4,.28,.12,.48,.24,.48,.44,0,.4-.36,.68-1.08,1.04-.08,2-.16,4.68-.16,4.88h1.4l.92-1c.12-.12,.2-.2,.36-.2,.12,0,.2,.04,.44,.2,.76,.56,1.24,.92,2,1.52,.16,.12,.2,.2,.2,.32,0,.08-.08,.24-.32,.24h-5v2.8c2.96,1.48,4.96,3.44,4.96,4.8,0,1.04-.52,1.56-.92,1.56-.56,0-.92-.52-1.2-1.4-.36-1.12-1.24-2.72-2.84-4.4v7.96c0,1.88,.04,5.48,.08,6.68,.04,1.16,.04,3.56,.04,4.24,0,.8-.84,2.04-1.64,2.04Zm12.32-6.68c.8,.64,1.64,1.36,2.36,2,.28,.24,.28,.32,.28,.48,0,.4-1.04,.4-1.72,.4-2.16,1.76-5.64,3.04-9.72,3.64l-.12-.4c3.8-1.16,6.72-3.08,8.16-4.72,.28-.32,.64-.92,.76-1.4Zm-4.52-15.04c-.88-.24-1.64-.88-2.08-2.04,1.36,.28,2.36,.32,3.64,.32h6.16v-3.24h-1.92c-.68,0-2.04,.12-2.72,.64-.72-.24-1.64-.88-2.08-2.04,1.36,.28,2.52,.32,3.8,.32h2.92v-2.96h-3.72c-.68,0-2.04,.12-2.72,.64-.72-.24-1.64-.88-2.08-2.04,1.36,.28,2.52,.32,3.8,.32h4.72c0-.4,0-.76-.08-1.64-.08-1.08-.28-2.16-.52-3,1.4,.4,2.2,.68,3.08,1.04,.48,.2,.64,.28,.64,.52,0,.4-.6,.88-1.12,1.12-.08,1-.08,1.48-.08,1.96h5.36l1.04-1c.12-.12,.24-.2,.32-.2,.16,0,.32,.12,.48,.24,.6,.44,1.16,.88,1.76,1.48,.12,.12,.2,.24,.2,.32,0,.16-.16,.24-.36,.24h-8.8v2.96h3.84l.92-.92c.08-.08,.2-.16,.32-.16s.2,.04,.44,.2c.56,.4,1.12,.84,1.68,1.4,.12,.12,.2,.24,.2,.36s-.16,.2-.32,.2h-7.08v3.24h7.28l1.16-1.12c.08-.08,.24-.2,.36-.2s.24,.04,.48,.24c.64,.52,1.28,1.04,1.88,1.64,.12,.12,.2,.2,.2,.28,0,.16-.16,.24-.36,.24h-18.08c-.68,0-2.04,.12-2.56,.64Zm2.6,15.52c-.52,0-.72-.32-.72-.84,0-.28,0-1.8,.08-4.4,.04-1.48,.04-3.24,.04-4.64,0-1.56-.04-3.48-.28-5.12,1,.48,1.4,.68,2.16,1.12,.28,.16,.4,.28,.4,.32h9.12l.76-.84c.2-.2,.32-.28,.44-.28,.16,0,.32,.08,.52,.2,.44,.28,.96,.64,1.36,.96,.16,.12,.28,.24,.28,.4,0,.24-.4,.64-.84,1.04,0,1.12,.08,4.72,.12,6.44,.04,1.6,.08,3.48,.08,4.24,0,.56-.6,1.32-1.36,1.32-.52,0-.72-.52-.72-.88v-.36h-10.12v.08c0,.44-.84,1.24-1.32,1.24Zm11.44-10.08v-2.4h-10.12v2.4h10.12Zm0,3.68v-2.6h-10.12v2.6h10.12Zm0,4v-2.92h-10.12v2.92h10.12Zm-3.24,2.96l.04-.4c3.48,.76,8.64,2.68,8.64,4.72,0,.84-.36,1.52-1,1.52-.48,0-1.12-.72-1.68-1.36-1.16-1.32-2.6-2.68-6-4.48Z"/>
        <path class="cls-1" d="M759.94,77.67c-2.08-.16-4.12-.2-5.72-.2s-3.6,.04-5.68,.2v-.6c2.92-.48,4.52-1,4.52-3.36v-20.72c0-1-.16-1.56-1-1.56-1,0-2.92,.52-4.04,.92v-.8c1.64-.6,4.16-1.92,5.04-2.6,1-.8,1.24-1,1.64-1,.52,0,.92,.2,.92,.92,0,.6-.04,1.4-.08,2.16-.04,.88-.08,1.72-.08,2.72v19.96c0,2.36,1.36,2.88,4.48,3.36v.6Z"/>
        <path class="cls-1" d="M778.58,47.95c5.36,0,9.12,5,9.12,14.44s-4.04,15.68-9.52,15.68-9.2-5.28-9.2-14.8,4.2-15.32,9.6-15.32Zm-.36,1.28c-4.12,0-6.44,5.4-6.44,13.64s2.52,13.88,6.68,13.88,6.4-5.56,6.4-13.76-2.56-13.76-6.64-13.76Z"/>
        <path class="cls-1" d="M792.7,83.51c1.96-1.48,2.72-3.52,2.72-5,0-.48-.08-.92-.24-1.32-.24-.56-.48-.92-.72-1.16-.56-.52-.64-.68-.64-1.08,0-.88,1.36-2,2.28-2,.72,0,1.08,.64,1.48,1.36,.4,.76,.52,1.48,.52,2.32,0,2.24-1.88,5.52-4.96,7.48l-.44-.6Z"/>
        <path class="cls-1" d="M814.18,47.95c5.36,0,9.12,5,9.12,14.44s-4.04,15.68-9.52,15.68-9.2-5.28-9.2-14.8,4.2-15.32,9.6-15.32Zm-.36,1.28c-4.12,0-6.44,5.4-6.44,13.64s2.52,13.88,6.68,13.88,6.4-5.56,6.4-13.76-2.56-13.76-6.64-13.76Z"/>
        <path class="cls-1" d="M838.18,47.95c5.36,0,9.12,5,9.12,14.44s-4.04,15.68-9.52,15.68-9.2-5.28-9.2-14.8,4.2-15.32,9.6-15.32Zm-.36,1.28c-4.12,0-6.44,5.4-6.44,13.64s2.52,13.88,6.68,13.88,6.4-5.56,6.4-13.76-2.56-13.76-6.64-13.76Z"/>
        <path class="cls-1" d="M862.18,47.95c5.36,0,9.12,5,9.12,14.44s-4.04,15.68-9.52,15.68-9.2-5.28-9.2-14.8,4.2-15.32,9.6-15.32Zm-.36,1.28c-4.12,0-6.44,5.4-6.44,13.64s2.52,13.88,6.68,13.88,6.4-5.56,6.4-13.76-2.56-13.76-6.64-13.76Z"/>
        <path class="cls-1" d="M904.22,77.47c-1.28,0-2.48,.04-3.8,.16v-.6c2.12-.4,2.68-.96,2.68-3.04v-7.92c0-3.88-1.64-5.28-4.04-5.28-1.76,0-3.76,1.08-5.68,3.88v9.32c0,2.08,.28,2.64,2.56,3.04v.6c-1.28-.12-2.48-.16-3.76-.16s-2.52,.04-3.8,.16v-.6c2.12-.4,2.6-.96,2.6-3.04v-7.92c0-3.88-1.6-5.28-4-5.28-1.76,0-3.76,1.08-5.72,3.88v9.32c0,2.08,.4,2.64,2.72,3.04v.6c-1.28-.12-2.56-.16-3.88-.16s-2.4,.04-3.68,.16v-.6c2.12-.4,2.48-.96,2.48-3.04v-10.6c0-2-.64-2.52-2.64-2.68v-.52c1.36-.2,2.52-.4,3.72-.92,.48-.2,.56-.2,.84-.2s.56,.2,.56,.52c0,.36,0,.52-.04,1.04-.04,.52-.08,1.4-.08,2.12,1.64-2.08,4.2-3.88,6.56-3.88,3.04,0,4.88,1.44,5.36,4.12,1.84-2.32,4.4-4.12,6.76-4.12,3.64,0,5.56,2.08,5.56,5.8v9.32c0,2.08,.2,2.64,2.48,3.04v.6c-1.28-.12-2.48-.16-3.76-.16Zm-2.32-19.96c-.28,0-.44-.24-.44-.48,0-.16,.12-.44,.4-.72,1.32-1.32,1.92-2.12,2.48-3.04,1-1.64,1.2-2.4,1.2-3.28,0-1.08-.52-1.64-1.32-1.64s-1.36,.6-1.52,1.32c-.08,.4-.28,.44-.4,.44s-.32-.12-.36-.32c-.04-.16-.12-.72-.12-1.04s.12-.68,.48-.88c.56-.32,1.28-.56,2.04-.56,1.88,0,3.04,1.12,3.04,2.48,0,1.16-.32,2.12-1.48,3.52-.72,.88-1.24,1.52-2.56,2.8h1.84c1.28,0,1.6-.24,1.92-.96h.56c-.04,.76-.12,1.36-.36,1.84-.04,.36-.16,.52-.6,.52h-4.8Z"/>
        <path class="cls-1" d="M917.58,71.15c-1.16,3.88-2.96,7.12-5.04,9.32l-.28-.32c2.68-3.76,4.44-11.24,4.44-16.36,0-.8-.16-1.64-.48-2.44,1.56,.52,2.4,.84,3.2,1.2,.36,.16,.64,.36,.64,.56,0,.4-.68,.76-1.28,1.04-.12,2.04-.44,4.04-.92,5.88,.48,.36,1,.84,1.48,1.32,.76,.72,1.6,1.48,2.48,2.12v-9.28c0-1,0-1.8-.08-3.04-.08-1.08-.28-2.16-.52-3,1.4,.4,2.08,.6,2.96,.92,.52,.2,.64,.32,.64,.56,0,.32-.56,.8-1,1.04-.08,1.32-.08,2.08-.08,3.4v.96h1.92l1.08-1.12c.08-.08,.24-.2,.36-.2s.2,.04,.44,.24c.56,.48,1.2,1.04,1.8,1.64,.12,.12,.2,.2,.2,.28,0,.16-.16,.24-.36,.24h-5.44v8.56c.28,.16,.6,.32,.92,.44,2.96,1.2,9.4,2.04,15.48,2.04,3.92,0,7.68-.36,10.24-1.2-.4,1.12-1.2,1.76-1.88,2-.8,.28-1.2,.6-1.36,.88-.16,.28-.4,.56-.64,.68-.24,.12-.8,.28-2.96,.28-4.08,0-14.44-1.12-18.96-3.2-2-.92-3.8-2-5.32-3.76-.4-.44-1.08-1.12-1.68-1.68Zm-2.68-12.44c-.72-.24-1.64-.84-2.08-1.96,1.36,.28,2.52,.28,3.8,.28h5.04v-4.84h-1.48c-.68,0-2.04,.04-2.72,.56-.72-.24-1.64-.76-2.08-1.92,1.36,.28,2.52,.28,3.8,.28h2.48v-.88c0-1,0-1.8-.08-3.04-.08-1.08-.28-2.16-.52-3,1.4,.4,2.08,.6,2.96,.92,.52,.2,.64,.32,.64,.56,0,.32-.52,.76-1,1.04-.08,1.32-.08,2.08-.08,3.4v1h2.64l.96-1.04c.12-.12,.24-.24,.32-.24,.12,0,.2,.04,.44,.24,.56,.48,1.16,1.04,1.76,1.64,.12,.12,.16,.16,.16,.28s-.12,.2-.24,.2h-6.04v4.84h4.28l1-1c.12-.12,.24-.24,.36-.24s.24,.08,.44,.24c.48,.4,1.44,1.2,1.84,1.56,.24,.2,.24,.24,.24,.32,0,.12-.16,.2-.28,.2h-13.84c-.68,0-2.04,.08-2.72,.6Zm28.91-9.76h-4.48c-1.16,6.48-3.68,10.48-10.08,13.36l-.32-.32c4.32-2.72,7.76-6.92,8.28-13.04h-1.16c-.68,0-2.04,.08-2.72,.6-.72-.24-1.64-.8-2.08-1.96,1.36,.28,2.52,.28,3.8,.28h8.64l.56-.6c.08-.08,.2-.2,.28-.2,.12,0,.2,.04,.44,.2,.56,.36,1.2,.84,1.56,1.16,.24,.2,.24,.32,.24,.36,0,.28-.6,.76-1,1-.16,3.24-.4,6.6-1.24,8.4-.56,1.2-1.6,2-3.08,2.48-.28-.64-1-1.2-1.64-1.6-.6-.36-1.28-1.12-1.72-1.72l.24-.32c.72,.4,2.08,.84,2.96,.84,.8,0,1.12-.36,1.44-1.04,.8-1.72,1.04-4.52,1.08-7.88Zm-10.48,25.44c-.48,0-.72-.28-.72-.8s.04-1.6,.08-2.36c.04-1,.04-1.96,.04-3.2,0-2.52,0-5.04-.32-6.68,.72,.28,1.76,.72,2.32,1.04,.2,.12,.28,.24,.28,.32h7.36l.6-.68c.16-.2,.28-.28,.4-.28,.16,0,.36,.12,.56,.24,.56,.36,1.08,.72,1.6,1.12,.16,.12,.28,.2,.28,.4s-.64,.88-1.08,1.28c0,1.96,.04,3.32,.08,4.56,.04,1,.08,2.16,.08,3.08,0,.56-.72,1.24-1.36,1.24-.56,0-.76-.52-.76-.8v-.76h-8.08v1.04c0,.44-.84,1.24-1.36,1.24Zm9.44-3.36v-7.24h-8.08v7.24h8.08Z"/>
      </g>
      <g>
        <path class="cls-1" d="M75.26,18.56c-.26,0-.36-.26-.36-.48,0-1.02,.02-2.08,.02-3.18-1.1,.54-2.36,1.04-3.92,1.32-.06,.28-.18,.56-.34,.56-.06,0-.12-.02-.18-.12-.18-.3-.42-.88-.68-1.52,.16,.02,.34,.04,.54,.04,.38,0,.78-.02,1.18-.04v-6.16h-1.5c-.2,3.6-.84,6-3.12,8.88l-.18-.14c1.96-3.14,2.38-6.66,2.38-10.68,0-.76-.02-1.64-.06-2.42-.02-.4-.1-.86-.26-1.4,.66,.24,1.12,.42,1.54,.6,.14,.06,.24,.18,.24,.26h7.68c.8-.9,1.62-2.08,1.98-3.14,.06-.18,.1-.38,.1-.62,0-.08,0-.16-.02-.26,.6,.34,1.14,.66,1.7,1.02,.06,.04,.08,.1,.08,.14,0,.2-.44,.3-.72,.32-.76,.98-1.66,1.82-2.64,2.54h3.36l.68-.68c.06-.06,.14-.12,.22-.12,.06,0,.16,.06,.28,.14,.4,.28,.82,.6,1.2,.9,.08,.06,.12,.12,.12,.18s-.08,.12-.16,.12h-14.28c-.02,1.42-.04,2.68-.08,3.82h3.12v-1.72c-.36,0-.96,.06-1.28,.3-.36-.12-.82-.42-1.04-.98,.68,.14,1.26,.14,1.9,.14h2.28l.4-.44c.1-.1,.14-.12,.18-.12s.08,0,.2,.12c.22,.2,.44,.42,.68,.66,.12,.12,.14,.16,.14,.2,0,.08-.08,.12-.14,.12h-2.34v1.72h1.9l.46-.44c.06-.06,.12-.12,.18-.12s.12,.04,.22,.12c.2,.16,.56,.46,.84,.74,.06,.06,.08,.1,.08,.14,0,.06-.08,.1-.14,.1h-1.9c0,2.7,.04,5.62,.08,7.08,.02,.6,.04,1.46,.04,1.64,0,.5-.38,.86-.66,.86Zm-2.68-15.04c-.32,0-.52-.36-.72-.88-.26-.68-.84-1.4-1.56-1.84l.08-.2c1.32,.32,2.72,1.22,2.72,2.14,0,.42-.26,.78-.52,.78Zm2.34,7v-1.54h-2.48v1.54h2.48Zm0,2.12v-1.58h-2.48v1.58h2.48Zm-2.48,2.42c.8-.1,1.62-.24,2.48-.46v-1.42h-2.48v1.88Zm4.02-11.62c-.3,0-.48-.32-.6-.8-.16-.64-.7-1.52-1.5-2.24l.12-.18c1.3,.54,2.56,1.34,2.56,2.44,0,.46-.3,.78-.58,.78Zm7.32,14.68c-.14,0-.34-.1-.68-.4-1.2-1.12-1.9-2.06-2.6-3.48-.92,1.42-2.24,2.66-4.26,3.44l-.08-.2c1.9-1.04,3.12-2.66,3.9-4.18-.26-.58-.54-1.22-.84-1.98-.2-.5-.48-.82-.7-.92l.14-.22c.18,.06,.54,.24,.86,.88,.28,.56,.56,1.08,.84,1.56,.56-1.3,.78-2.48,.78-3.02,0-.18,0-.38-.04-.58,.62,.28,1.1,.5,1.4,.68,.16,.1,.22,.16,.22,.24,0,.22-.28,.32-.54,.38-.32,1.08-.7,2.18-1.26,3.22,1.28,1.96,2.66,3.24,4.64,3.64-.18,.32-.54,.48-.9,.54-.22,.04-.44,.08-.56,.2-.1,.1-.2,.2-.32,.2Zm-4.76-9.2c-.64,1-1.48,2.02-2.54,2.84l-.14-.16c1.32-1.36,2.54-3.96,2.78-5.4,.04-.2,.04-.36,.04-.52,0-.12,0-.24-.02-.38,.64,.24,1.16,.5,1.48,.66,.16,.08,.2,.14,.2,.26,0,.18-.38,.32-.64,.38-.2,.54-.48,1.16-.84,1.78h3.48l.66-.64s.12-.12,.2-.12,.14,.04,.26,.14c.34,.28,.66,.56,.98,.88,.04,.04,.1,.1,.1,.16s-.08,.12-.16,.12h-5.84Z"/>
        <path class="cls-1" d="M91.8,1.06s.08,0,.12,.02c.72,.34,2.04,1.62,2.04,2.38,0,.22-.08,.56-.2,.98-.2,.72-.3,1.88-.4,2.98-.1,1.12-.18,2.22-.18,3.22,0,1.64,.16,3.06,.84,4.14,.82,1.3,2.08,2.12,3.2,2.84l-.08,.18c-1.7-.62-2.9-1.36-3.78-2.38-.96-1.1-1.22-2.44-1.22-4.22,0-.64,.04-2.22,.08-2.8,.06-.76,.22-2.94,.22-4.06,0-.8-.06-1.3-.18-1.68-.16-.54-.44-1.16-.64-1.54,.06-.04,.14-.06,.18-.06Z"/>
        <path class="cls-1" d="M103.26,4.4c.06-.12,.14-.22,.34-.22,.4,0,.86,.18,1.28,.44,.8,.48,.92,1.06,.92,1.74,0,.28,0,.52-.02,.84-.02,.36-.08,1.44-.08,1.9,0,.94,.08,1.98,.3,2.62,.24,.68,.72,1.36,.94,1.36,.12,0,.24-.16,.36-.32,.3-.4,1.94-2.34,2.44-2.92l.18,.14c-.58,.72-1.3,2.02-1.64,2.86-.08,.22-.16,.56-.16,.8,0,.06,.02,.2,.04,.26,.06,.2,.08,.36,.08,.5,0,.24-.12,.78-.54,.78-.34,0-1.08-.32-1.66-1.14-.64-.92-.92-2-1.06-3.34-.04-.46-.12-1.58-.18-2.66-.08-1.66-.22-2.78-1.54-3.64Zm9.98,1.96c.52-.48,.94-.5,1.12-.5,.76,0,1.7,.52,2.5,1.3,.88,.86,1.66,2.2,1.66,2.66,0,.74-.34,1.12-.62,1.12-.3,0-.54-.28-.68-.66-.82-2.28-1.8-3.88-3.22-3.88-.26,0-.46,.06-.64,.14l-.12-.18Z"/>
        <path class="cls-1" d="M125.88,14.48c-1,1.82-2.42,3.14-4.36,3.98l-.12-.2c1.76-1.12,3-2.66,3.82-4.5-.44-.54-.84-1.14-1.22-1.88-.16-.32-.34-.68-.52-.94-.16-.24-.48-.52-1.04-.66l.06-.32c.26,.04,.5,.12,.76,.22,.56,.22,.74,.56,1.16,1.34,.32,.58,.68,1.1,1.08,1.56,.56-1.52,.88-3.24,1-5.1h-1.78c-.06,.18-.14,.38-.2,.52-.16,.4-.64,.48-.86,.48-.26,0-.32-.2-.32-.34s.08-.32,.14-.46c.88-1.96,1.74-4.2,2.24-6.04h-1.26c-.34,0-1.02,.04-1.36,.3-.36-.12-.82-.4-1.04-.98,.68,.14,1.26,.14,1.9,.14h1.76l.46-.32c.06-.04,.12-.08,.22-.08,.08,0,.18,.06,.26,.12,.18,.14,.46,.42,.66,.62,.06,.06,.12,.12,.12,.24,0,.22-.56,.48-.82,.6-.6,1.66-1.1,3.04-1.7,4.66h1.38l.34-.38c.1-.12,.2-.14,.24-.14,.08,0,.18,.06,.28,.14,.24,.18,.48,.38,.66,.56,.1,.1,.16,.16,.16,.26,0,.12-.28,.36-.42,.46-.24,2.14-.68,3.98-1.36,5.5,.22,.22,.46,.44,.68,.6,1.24,.98,3.16,1.62,5.5,1.92,1.06,.14,2.06,.2,3.02,.2,1.7,0,3.26-.2,4.82-.58-.2,.56-.6,.92-.94,1.04-.42,.14-.6,.3-.68,.44-.08,.14-.2,.28-.32,.34-.12,.06-.4,.08-1.48,.08-4.2,0-7.52-.74-9.52-2.22-.54-.4-1-.78-1.4-1.18Zm6.84,1.16c-.3,0-.46-.32-.46-.68,0-.24,.02-.74,.04-1.12,.02-.36,.08-1.44,.08-1.54h-2.42c-.34,0-1.02,.04-1.36,.3-.36-.12-.82-.42-1.04-.98,.68,.14,1.26,.14,1.9,.14h2.92c.02-.66,.02-1.44,.02-1.84h-1.44c-.34,0-1.02,.04-1.36,.3-.36-.12-.82-.4-1.04-.98,.68,.14,1.26,.14,1.9,.14h1.94v-1.8h-1.24c-.34,0-1.02,.04-1.36,.3-.36-.12-.82-.4-1.04-.98,.68,.14,1.26,.14,1.9,.14h1.74v-1.82h-2.96c-.34,0-1.02,.04-1.36,.3-.36-.12-.82-.42-1.04-.98,.68,.14,1.26,.14,1.9,.14h3.46v-1.76h-1.1c-.34,0-1.02,.04-1.36,.3-.36-.12-.82-.4-1.04-.98,.68,.14,1.26,.14,1.9,.14h1.58c0-.48-.04-1.56-.34-2.26,.54,.16,.96,.32,1.58,.58,.14,.06,.2,.16,.2,.26,0,.14-.18,.36-.44,.52-.02,.26-.04,.56-.04,.9h2.18l.32-.36c.1-.12,.16-.14,.22-.14s.16,.06,.26,.12c.28,.18,.54,.36,.78,.54,.08,.06,.14,.1,.14,.2,0,.14-.3,.4-.52,.56,0,.48,0,.94,.02,1.38h1.26l.58-.56s.12-.1,.18-.1,.12,.02,.24,.12c.32,.26,.7,.58,.94,.82,.06,.06,.1,.1,.1,.14,0,.08-.08,.12-.18,.12h-3.12c0,.16,0,.32,.02,.94,.02,.68,.02,1.14,.02,1.56,0,.26-.3,.6-.62,.6-.28,0-.36-.26-.36-.4v-.34h-2.48v1.8h2.42l.46-.44c.06-.06,.12-.12,.18-.12s.12,.04,.22,.12c.2,.16,.56,.46,.84,.74,.06,.06,.08,.1,.08,.14,0,.06-.08,.1-.14,.1h-4.06c0,.32,.04,1.38,.06,1.84h3.54l.58-.56s.12-.1,.18-.1,.12,.02,.24,.12c.32,.26,.7,.58,.94,.82,.06,.06,.1,.1,.1,.14,0,.08-.08,.12-.18,.12h-5.38c0,.26,.02,.78,.04,1.28,.02,.44,.02,.86,.02,1.04,0,.4-.34,1.02-.74,1.02Zm3.08-12.72h-2.48v1.76h2.48v-1.76Zm0,2.3h-2.48v1.82h2.48v-1.82Z"/>
        <path class="cls-1" d="M150.62,18.48c-.26,0-.4-.2-.4-.48s.02-.9,.04-1.26c.02-.46,.04-1.66,.04-1.9v-1.78c-2.02,2.7-4.86,4.1-8,4.74l-.14-.18c2.66-.86,5.16-2.36,6.86-4.74h-4.64c-.34,0-1.02,.04-1.36,.3-.36-.12-.82-.4-1.04-.98,.68,.14,1.26,.14,1.9,.14h6.42c0-.08-.02-.58-.04-.88-.02-.42-.1-.8-.22-1.1,.46,.16,1,.36,1.44,.56,.18,.08,.26,.14,.26,.24,0,.18-.2,.34-.46,.5-.02,.22-.02,.44-.02,.68h5.84l.7-.68c.06-.06,.12-.12,.2-.12,.06,0,.16,.06,.26,.12,.46,.28,.98,.62,1.38,.9,.12,.08,.14,.14,.14,.2s-.08,.12-.16,.12h-7.78c.44,.34,.82,.64,1.2,1,1.74,1.66,3.9,2.66,6.48,2.86-.26,.44-.74,.66-1.22,.66-.3,0-.58,.12-.86,.3-.12,.08-.2,.12-.28,.12-.36,0-1.34-.62-1.84-.96-1.04-.72-1.82-1.52-2.84-2.76-.42-.5-.78-.86-1.24-1.18v1.86c0,.2,.04,1.5,.06,1.82,.02,.26,.04,.84,.04,1.06,0,.44-.42,.82-.72,.82Zm-4.04-15.1h-1.18c-.84,1.04-1.84,2-2.98,2.7l-.12-.18c1.44-1.3,2.54-2.94,3.12-4.24,.26-.58,.36-1.16,.36-1.58,.6,.32,1.02,.56,1.44,.82,.14,.08,.16,.14,.16,.22,0,.16-.38,.36-.72,.42-.26,.44-.54,.86-.86,1.3h2.84l.66-.64s.12-.1,.18-.1,.12,.02,.3,.16c.26,.22,.58,.5,.82,.72,.14,.12,.2,.2,.2,.28s-.08,.12-.18,.12h-3.58c.72,.52,1.12,1.06,1.12,1.54,0,.38-.3,.64-.48,.64-.3,0-.42-.28-.52-.72-.08-.36-.22-.92-.58-1.46Zm-2.94,7.84c-.08,0-.16-.04-.24-.16-.1-.16-.54-.88-.82-1.38,.84,0,2.06-.14,3.34-.4v-2.66h-.26c-.34,0-1.02,.02-1.36,.28-.36-.12-.82-.38-1.04-.96,.68,.14,1.26,.14,1.9,.14h2.92l.42-.46c.06-.06,.1-.1,.18-.1,.06,0,.1,.02,.22,.1,.38,.28,.56,.42,.94,.72,.08,.06,.1,.1,.1,.16,0,.04-.04,.12-.16,.12h-2.94v2.48c1.04-.26,2.08-.56,2.92-.94l.1,.18c-1.44,.9-3.78,1.68-5.84,2.34-.08,.3-.24,.54-.38,.54Zm10.88-4.66h-2.72c-.18,2.62-1.4,3.78-4.08,4.48l-.06-.2c2.36-.98,3.1-2.2,3.1-4.4,0-.34-.06-.74-.16-1.02,.44,.14,.86,.3,1.28,.46,.1,.04,.18,.08,.22,.14h2.06l.34-.4c.1-.12,.18-.16,.24-.16,.04,0,.12,.04,.22,.1,.26,.16,.5,.32,.78,.52,.08,.06,.16,.14,.16,.22,0,.12-.26,.36-.48,.52-.02,.22-.02,1.54-.02,2.22,0,.38,.26,.52,.62,.58,.14,.02,.42,.02,.7,.02,.32,0,.68-.04,.8-.1,.26-.12,.32-.3,.44-.62,.14-.36,.26-.94,.3-1.42h.22c.1,.72,.14,1.06,.16,1.28,.04,.36,.16,.68,.4,.9,0,.26-.32,.6-.68,.72-.34,.12-.92,.16-2,.16-1.44,0-1.88-.34-1.88-1.4,0-.04,0-.5,.02-1.42,.02-.5,.02-.92,.02-1.18Zm1.12-1.02c-.3,0-.44-.4-.56-.76-.12-.36-.34-.8-.82-1.4h-2.16c-.6,.74-1.32,1.46-2.14,2.1l-.16-.16c1.1-1.16,1.94-2.58,2.32-3.68,.22-.62,.28-.88,.28-1.56,.6,.3,1.08,.54,1.5,.76,.14,.08,.16,.14,.16,.22,0,.14-.36,.36-.72,.44-.24,.46-.52,.9-.82,1.34h4.2l.66-.64s.12-.1,.18-.1,.12,.02,.3,.16c.26,.22,.58,.5,.82,.72,.14,.12,.2,.18,.2,.28,0,.08-.08,.12-.18,.12h-3.98c.76,.46,1.42,.98,1.42,1.52,0,.4-.24,.64-.5,.64Zm-2.2,4.36c-.18,0-.34-.18-.5-.56-.18-.44-.5-.98-1.16-1.52l.12-.16c.9,.38,2.02,.9,2.02,1.64,0,.34-.22,.6-.48,.6Z"/>
        <path class="cls-1" d="M167.12,18.26c-.3,0-.44-.32-.44-.68,0-.3,.04-1.1,.08-1.84,.04-.86,.06-2.4,.06-3.62v-1.92h-2.26c-.04,.36-.04,.62-.04,.88v2.24c0,.2,.02,1.8,.02,2.1,0,.46-.42,.84-.7,.84-.22,0-.38-.18-.38-.44,0-.2,0-.4,.02-.86,.02-.54,.04-1.34,.04-1.62v-2.24c0-.68-.08-1.68-.24-2.14,.62,.2,1.06,.36,1.5,.54,.1,.04,.16,.08,.2,.16h1.84v-2.28h-2.32c-.34,0-1.02,.02-1.36,.28-.36-.12-.82-.4-1.04-.96,.68,.14,1.26,.14,1.9,.14h2.82v-2.32h-2.66c-.4,.64-.92,1.24-1.5,1.76l-.16-.12c.86-1.08,1.44-2.74,1.62-4.06,.02-.14,.02-.24,.02-.42,0-.2-.02-.42-.06-.64,.52,.2,1.04,.42,1.4,.58,.18,.08,.2,.14,.2,.18,0,.14-.28,.34-.46,.42-.16,.6-.42,1.2-.72,1.76h2.32c0-.64-.02-1.2-.06-1.96-.02-.54-.08-1.22-.3-1.74,.68,.2,1.1,.34,1.58,.52,.24,.1,.28,.2,.28,.3,0,.14-.18,.3-.48,.44-.04,.9-.04,1.56-.04,2.44h1.96l.5-.54c.06-.06,.1-.1,.18-.1,.06,0,.12,.02,.24,.1,.4,.28,.68,.48,1.06,.78,.1,.08,.1,.12,.1,.16,0,.06-.04,.14-.16,.14h-3.88v2.32h2.74l.54-.58c.08-.08,.12-.12,.2-.12,.06,0,.1,.02,.24,.12,.32,.22,.76,.54,1.14,.82,.08,.06,.1,.1,.1,.16s-.06,.14-.18,.14h-4.78v2.28h2.06l.4-.48c.1-.12,.16-.12,.22-.12,.08,0,.16,.04,.28,.12,.26,.18,.5,.38,.68,.54,.12,.1,.18,.16,.18,.24,0,.1-.18,.28-.42,.46,0,.86,0,1.56,.02,2.48,.02,.68,.02,1.6,.02,1.8,0,.88-.5,1.24-1.28,1.66-.22-.24-.5-.46-.84-.64-.38-.2-.64-.48-.98-.88l.12-.16c.56,.24,1,.38,1.48,.38,.42,0,.54-.36,.54-.8v-4.06h-2.48v2.16c0,1.44,.02,2.78,.04,3.34,.02,.58,.04,1.14,.04,1.54s-.36,1.02-.76,1.02Zm6.36-14.52c-.02-.48-.1-1.22-.26-1.64,.62,.2,1,.34,1.48,.52,.18,.06,.24,.12,.24,.22,0,.18-.24,.46-.44,.62-.02,.6-.04,1.78-.04,2.16v2.62c0,.2,.04,2.14,.06,2.46,.02,.4,.04,1.36,.04,1.58,0,.44-.48,.82-.78,.82-.26,0-.4-.2-.4-.48s.04-1.34,.06-1.78c.02-.46,.08-2.3,.08-2.54v-2.56c0-.4,0-1.06-.04-2Zm.2,12.32l.1-.18c.88,.36,1.7,.56,2.44,.56,.62,0,.82-.54,.82-1.78V4.82c0-1.18-.04-2.18-.06-2.62-.02-.6-.16-1.26-.32-1.78,.72,.26,1.44,.54,1.74,.7,.12,.06,.16,.16,.16,.22,0,.18-.3,.48-.5,.62-.04,.6-.04,1.74-.04,2.9,0,3.26,.02,5.58,.08,7.18,.04,1.12,.08,2.3,.08,3.4,0,1.64-.68,2.04-1.96,2.64-.32-.46-.74-.72-1.44-1.14-.44-.26-.74-.5-1.1-.88Z"/>
        <path class="cls-1" d="M183.9,18.14c-.3,0-.46-.32-.46-.68,0-.3,.06-1.58,.1-2.42,.04-.96,.06-2.1,.06-3.32V6.4c0-1.38-.02-2.62-.08-3.58-.04-.54-.12-1.44-.28-1.98,.44,.18,.98,.5,1.36,.74,.1,.06,.18,.14,.18,.22h2.34l.46-.46c.08-.08,.14-.1,.2-.1s.16,.06,.26,.14c.3,.24,.62,.54,.84,.76,.12,.12,.2,.22,.2,.32,0,.2-.52,.46-.72,.52-.82,1.58-1.44,2.56-2.68,3.84,1.7,1.36,3.06,2.66,3.06,4.5,0,1.14-.56,2.1-1.74,2.52-.18-.24-.38-.38-.68-.5-.7-.28-1.14-.6-1.6-1.16l.12-.16c.54,.24,1.14,.48,1.76,.48,.54,0,1.06-.36,1.06-1.28,0-1.42-.74-2.56-2.3-4.48,.92-1.18,1.72-2.94,2.04-4.4h-2.78c-.04,1.04-.04,2.46-.04,3.94v5.38c0,1.12,.06,2.78,.08,3.34,.02,.58,.06,1.72,.06,2.12s-.42,1.02-.82,1.02Zm14.42-.16c-.22,0-.64-.34-.84-.52-.88-.8-1.68-1.76-2.44-2.88-1.6,.98-3.8,1.94-5.98,2.62-.08,.32-.22,.6-.44,.6-.08,0-.14-.02-.3-.26-.16-.22-.42-.66-.9-1.5,.22,.02,.44,.04,.62,.04,.34,0,.68-.04,1.04-.1,.4-.06,.84-.16,1.28-.26V3.14c0-.18-.04-.76-.06-.94-.04-.38-.08-.76-.16-1.12,.64,.32,1,.52,1.3,.7,.12,.08,.18,.12,.18,.18h4.02l.42-.46c.08-.08,.16-.14,.22-.14s.16,.06,.26,.12c.28,.18,.54,.36,.8,.56,.08,.06,.14,.1,.14,.2s-.32,.44-.54,.64c0,.74,.02,2.18,.04,3.52,.02,1.02,.04,2.22,.04,2.68,0,.28-.36,.62-.68,.62-.28,0-.38-.26-.38-.4v-.26h-3.64c.34,.36,.62,.76,.82,1.08,.48,.82,.98,1.62,1.48,2.34,.86-.54,1.6-1.08,2.08-1.56,.28-.28,.6-.62,.68-1.06,.44,.36,.9,.74,1.32,1.1,.12,.1,.16,.14,.16,.22,0,.14-.26,.2-.56,.2-.16,0-.32-.02-.46-.04-.8,.48-1.98,1-3.06,1.36,1.52,2.16,3.18,3.78,5.56,4.46-.18,.28-.54,.44-1.02,.44-.28,0-.5,.1-.72,.28-.1,.08-.2,.12-.28,.12Zm-2.36-12.82V2.5h-4.66v2.66h4.66Zm0,3.34v-2.8h-4.66v2.8h4.66Zm-4.12,.54h-.54v6.46c1.28-.3,2.6-.7,3.6-1.12-.68-1.04-1.3-2.22-1.9-3.52-.28-.62-.7-1.28-1.16-1.82Z"/>
        <path class="cls-1" d="M204.28,1.94c.1,0,.72,.56,1.1,.94,.66,.68,.86,1.08,.86,1.78,0,.26-.04,.9-.22,1.48-.42,1.4-1,3.38-1,5.18,0,1.3,.24,2.16,.54,2.78,.24,.48,.48,.98,.48,1.18,0,.98-.28,1.4-.64,1.4-.44,0-1.28-2-1.28-3.64,0-2.12,.36-3.88,.62-5.08,.16-.7,.24-1.3,.3-1.92,.02-.22,.02-.48,.02-.74,0-1.16-.28-2.3-.98-3.28,.06-.06,.12-.08,.2-.08Zm4.7,4.82c1.3-1.94,3.72-2.68,5.88-2.68,.88,0,1.96,.48,1.96,1.14,0,.34-.34,.54-.98,.58-1.5,.08-2.76,.76-3.54,1.36-.64,.5-1.58,1.44-1.58,2.76s.7,2.56,2.08,3.16c.96,.42,2.58,.46,3.14,.46s1.52,.4,1.52,.86c0,.56-.72,.56-1.68,.56-.58,0-1.88-.14-2.44-.34-2.24-.82-3.12-2.04-3.12-4.18,0-1.36,1-2.68,1.64-3.36,.72-.76,1.9-1.48,2.54-1.78-.14-.06-.4-.12-.86-.12-1.02,0-2.72,.34-4.42,1.7l-.14-.12Z"/>
        <path class="cls-1" d="M232.46,17.18c-.3,0-.56-.26-.9-.58-.42-.38-1.78-1.2-2.78-1.68-.4,1.02-1.8,1.86-3.1,1.86-1.18,0-1.88-.88-2-1.04-.08-.12-.32-.4-.44-.54-.2-.22-.28-.46-.28-.74,0-.94,1.1-1.46,2.26-1.46,.62,0,1.42,.14,2.46,.48-.02-.62-.06-1.28-.1-1.74-.02-.32-.14-1.04-.22-1.52-.1-.56-.2-1.22-.24-1.6-.08-.66-.28-2.38-.28-3.32,0-1.1,.12-2.54,.3-3.04,.2-.54,.6-1.02,1.1-1.02,.42,0,.92,.46,.92,1.06,0,.26,.58,.84,1.2,1.44,.3,.3,.74,.58,1.1,.8,.42,.26,.64,.48,.64,.96,0,.14-.02,.26-.08,.36-.2,.36-.8,.62-1.62,.62s-1.72-.18-2.64-.98v.38c0,.72,.18,2,.28,2.66,.06,.44,.18,1.1,.28,1.56,.12,.54,.22,1.14,.28,1.54,.16,.92,.26,1.54,.3,2.3,1.84,.74,2.52,1.04,2.84,1.24,.7,.42,1.08,1.04,1.08,1.58,0,.24-.2,.42-.36,.42Zm-6.72-1.32c1.1,0,1.74-.58,1.9-1.46-1.3-.56-1.86-.74-2.48-.74-.58,0-1.36,.16-1.36,.82,0,.74,1.02,1.38,1.94,1.38Zm2.04-10.86c.62,.36,1.24,.46,1.82,.46,.22,0,.44-.02,.66-.04,.26-.02,.44-.08,.56-.16-.68-.96-1.78-2.52-2.16-3.1-.08-.12-.16-.2-.28-.2-.24,0-.36,.5-.46,1.12-.06,.42-.12,1.2-.14,1.92Z"/>
        <path class="cls-1" d="M237.64,9.36c0-.1,.08-.32,.12-.32,.46,.42,.94,.62,1.54,.62,.36,0,.84-.06,1.36-.2,1.2-.32,2.66-.74,3.44-.98,.68-.22,1.7-.46,2.3-.46,1.1,0,1.76,.28,2.36,.8,.62,.54,1,1.38,1,2.26,0,3.02-3.5,4.72-7.1,4.72l-.02-.18c3.04-.36,6.18-2.26,6.18-4.78,0-.72-.34-1.32-.76-1.62-.48-.36-.92-.52-1.84-.52-1.04,0-3.64,1.04-5.9,2.02-.28,.12-.62,.2-1.06,.2-.54,0-1.02-.42-1.26-.8-.14-.2-.36-.54-.36-.76Z"/>
        <path class="cls-1" d="M264.7,16.4c-.86,0-2.58-.96-3.66-1.76-1.3-.98-2.24-2.56-2.24-4.28s.76-3.18,1.1-3.74c.26-.42,.88-1.28,1.38-1.88-1.36,.28-3.62,.82-5,1.24-.26,.08-.56,.18-.74,.26-.2,.08-.36,.12-.54,.12-.24,0-.46-.08-.66-.2-.36-.22-.78-.64-1.06-1.02-.2-.26-.52-.7-.52-.82,0-.1,.06-.2,.18-.24,.46,.44,1.28,.88,2,.88,.4,0,1.02-.06,1.28-.1,1.9-.24,4.88-.82,6.36-1.26,.72-.22,1.52-.48,2.12-.68,.32-.1,.64-.18,.76-.18,.22,0,.52,.16,.8,.34,.56,.34,.86,.52,.86,.7,0,.22-.18,.44-.44,.44-.08,0-.38-.02-.62-.04-.32-.02-.46-.02-.7-.02-.4,0-.94,.04-1.48,.12-1.12,.4-2.16,1.14-2.96,2.1-.82,1-1.42,1.96-1.42,3.7,0,1.14,.62,2.32,1.46,3.06,.98,.86,2,1.26,2.28,1.32,.8,.18,1.24,.52,1.58,1.12,.1,.16,.14,.4,.14,.5,0,.18-.12,.32-.26,.32Z"/>
        <path class="cls-1" d="M280.7,18.34c-.32-.48-.68-.68-1.4-1.1-.42-.24-.92-.66-1.24-1.06l.08-.2c.96,.46,1.84,.72,2.56,.72,.62,0,.84-.6,.84-1.36v-6.16h-7.94c-.34,0-1.02,.04-1.36,.3-.36-.12-.82-.42-1.04-.98,.68,.14,1.26,.14,1.9,.14h8.44c0-1.28,0-1.78-.02-2.14-.02-.58-.16-1.18-.32-1.66,.68,.22,1.24,.4,1.62,.56,.2,.08,.24,.2,.24,.28,0,.16-.28,.46-.48,.6-.02,.54-.02,.64-.02,1.24v1.12h3.16l.72-.78c.1-.1,.14-.12,.2-.12,.08,0,.14,.04,.3,.14,.42,.26,.98,.64,1.46,1,.08,.06,.1,.1,.1,.16s-.08,.14-.18,.14h-5.76c0,1.36,.02,2.86,.04,3.68,.02,.76,.06,2.3,.06,2.98,0,1.6-.72,1.98-1.96,2.5Zm-8.68-12.02c-.3,0-.48-.2-.48-.56,0-.48,.22-.76,.52-1.02,.8-.7,1.4-1.42,1.44-2.56h.24c.06,.34,.08,.68,.08,1.02h5.3v-.56c0-.2,0-.42-.04-.88-.04-.54-.14-1.08-.26-1.5,.66,.18,1.16,.32,1.58,.46,.26,.08,.34,.18,.34,.32,0,.18-.24,.38-.52,.54-.04,.5-.04,.76-.04,1v.62h5.54l.58-.52c.12-.1,.16-.12,.22-.12s.1,.02,.18,.08c.38,.3,.76,.64,1.1,.98,.08,.08,.14,.16,.14,.22,0,.24-.54,.38-.86,.44-.46,.42-1.08,.86-1.88,1.4l-.14-.16c.44-.68,.7-1.2,.94-1.78h-12.2c-.1,.76-.44,1.54-.84,2.04-.28,.36-.6,.54-.94,.54Zm3.22,3.94l.16-.12c1.28,.84,2.48,1.9,2.48,2.86,0,.6-.22,1.18-.64,1.18-.44,0-.6-.62-.7-1.08-.16-.74-.52-1.8-1.3-2.84Z"/>
        <path class="cls-1" d="M296.12,17.26l-.04-.26c1.7-.48,5.84-1.66,5.84-4.9,0-1.64-1.48-2.4-2.72-2.4-1.56,0-3.48,1.66-4.3,3.38-.14,.3-.24,.4-.5,.4-.62,0-1.18-1-1.18-1.76,0-.48,.24-2.24,.38-3.24,.06-.44,.08-1.18,.08-1.64,0-.1-.02-.3-.04-.5-.02-.18-.04-.38-.04-.44,0-.24,.08-.48,.36-.88,.42-.6,1.34-1.24,2.14-1.4,.74-.14,1.28-.24,1.38-.46,.02-.04,.04-.1,.04-.16,0-.12-.08-.28-.28-.54-.3-.4-.78-.94-1.6-1.3,.04-.08,.12-.14,.22-.14,.56,0,2.12,.64,2.6,1.12,.36,.36,.46,.72,.46,1.06,0,.48-.28,1.04-.7,1.04-.06,0-.2-.04-.34-.08-.28-.08-.68-.2-1.08-.2-.86,0-2.14,.48-2.3,1.44-.04,.2-.06,.72-.06,1.14s-.02,.8-.08,1.38c-.1,1.12-.16,2.42-.16,2.96,0,.4,.06,.54,.14,.58,1.06-.8,3.34-2.26,5.16-2.26,1.62,0,3.7,.96,3.7,3.22,0,3.64-5.84,4.72-7.08,4.84Z"/>
        <path class="cls-1" d="M311.6,17.08c-.18,0-.5-.44-.5-.76,0-1.1-.5-3.1-1.04-4.46-.64,.72-1,1.18-1.22,1.46-.2,.26-.42,.4-.6,.4-.2,0-.26-.24-.26-.52,0-.58,.22-.88,.56-1.28,.22-.26,.54-.6,.96-1.02,.04-.04,.06-.06,.08-.1-.14-.32-.36-.76-.58-1.2-.32-.66-.54-1.4-.54-1.76,0-.96,1.02-2.12,1.68-2.78,.12-.12,.36-.32,.76-.32,.16,0,.44,.08,.72,.18,.12-.76,.24-1.66,.24-2.22,0-.88-.56-1.4-1.06-1.86,.02-.04,.08-.1,.16-.1,.18,0,.46,.12,.64,.2,.58,.26,1.4,.9,1.4,1.52,0,.14-.08,.46-.22,.84-.16,.42-.28,.92-.34,1.3-.02,.1-.06,.34-.1,.7,.38,.24,.68,.52,.68,.74,0,.18-.02,.32-.22,.54-.18,.18-.38,.5-.48,.74-.08,.2-.16,.38-.24,.56-.02,.2-.04,.42-.04,.64,1.74-1.58,3.66-3.2,4.76-3.94,.74-.5,1.34-.88,1.98-.88,.96,0,1.6,.66,1.6,2.02,0,.26-.02,.52-.06,.82-.18,1.3-.44,4.36-.44,5.42,0,1.32,.54,2.22,1.94,2.22,1.12,0,2.26-.96,3.1-2.02l.18,.1c-.56,1.06-1.72,2.98-3.76,2.98s-2.52-1.56-2.52-2.96,.4-4.2,.66-5.76c.08-.46,.14-.9,.14-1.26,0-.6-.18-.98-.88-.98-.4,0-.96,.32-1.66,.78-1.4,.94-2.98,2.46-5.06,4.68,.02,1.84,.14,3.76,.22,4.3,.06,.36,.14,.84,.14,1.28,0,.84-.24,1.76-.78,1.76Zm-1.76-6.64c.54-.82,1.12-1.94,1.48-2.9,.02-.54,.08-1.08,.14-1.62-.16-.06-.36-.1-.48-.1-.64,0-1.82,1.18-1.82,2.1,0,.58,.26,1.58,.68,2.52Zm1.44,.08c-.34,.36-.66,.72-.96,1.06,.46,1.1,1.02,2.56,1.16,2.96-.08-1.2-.16-2.78-.2-4.02Z"/>
        <path class="cls-1" d="M334.56,16.86c-1.44,0-3.04-.56-3.04-1.9,0-1.04,.94-1.6,1.92-1.6,1.32,0,2.3,1.12,2.72,2.26,1.4-.66,2.6-1.96,2.6-3.7,0-2.02-1.5-3.12-3.42-3.12-1.18,0-2.44,.38-3.54,1.06-1.4,.88-2.4,2.22-3.06,3.22-.12,.18-.24,.26-.38,.26-.38,0-.5-.54-.5-.96,0-.34,.16-.6,.52-1.04,1.8-2.2,4.46-5.1,6.5-7.24,.58-.6,.82-.96,.82-1.06,0-.16-.26-.38-.46-.38-.32,0-1.64,.66-2.22,.98-.44,.24-.78,.4-1.24,.4-.54,0-1.04-.58-1.36-1.14-.1-.16-.2-.34-.2-.46,0-.08,.06-.14,.1-.16,.08,.08,.5,.5,1.3,.5,.86,0,2.38-.58,3-.84,.28-.12,.58-.2,.86-.2,.44,0,1.24,.46,1.64,1.2,.08,.16,.1,.28,.1,.38,0,.28-.22,.4-.46,.54-.34,.2-.86,.56-1.52,1.16-1.1,1-3.92,3.88-4.84,4.82,1.5-1.02,3.52-1.64,4.92-1.64,2.86,0,4.56,1.94,4.56,3.86,0,3.04-3.18,4.8-5.32,4.8Zm-.4-.78c.32,0,.64-.04,.98-.12-.34-1.06-1.08-1.9-2-1.9-.54,0-1.02,.32-1.02,.82,0,.82,.9,1.2,2.04,1.2Z"/>
        <path class="cls-1" d="M346.82,18.44c-.22,0-.36-.14-.36-.62,0-.52,.04-1.74,.08-2.8,.04-1.16,.08-2.32,.08-3.18v-3.04c0-.48,0-1.36-.04-2.04-.94,1.42-2.08,2.76-3.5,3.86l-.14-.16c2.28-2.5,3.94-6.12,4.74-8.34,.22-.58,.26-1.06,.26-1.32,0-.18-.02-.36-.04-.52,.58,.3,1.28,.68,1.66,.9,.18,.1,.22,.18,.22,.24,0,.2-.44,.38-.72,.44-.48,1.26-1.08,2.58-1.84,3.88,.26,.16,.5,.32,.7,.46,.08,.06,.16,.14,.16,.22,0,.2-.24,.36-.44,.48-.02,.54-.02,1.14-.02,1.76v3.16c0,.68,.02,1.82,.04,2.94,.02,1.06,.04,2.16,.04,2.78,0,.32-.44,.9-.88,.9Zm2.64-.96c-.36-.12-.78-.4-1-.98,.68,.14,1.22,.14,1.86,.14h3.86v-5.82h-1.8c-.34,0-1.02,.02-1.36,.28-.36-.12-.82-.4-1.04-.96,.68,.14,1.26,.14,1.9,.14h2.3V5.42h-2.56c-.34,0-1.02,.04-1.36,.3-.36-.12-.82-.4-1.04-.98,.68,.14,1.26,.14,1.9,.14h7.24l.68-.68c.06-.06,.14-.12,.22-.12,.06,0,.16,.06,.28,.14,.4,.28,.82,.6,1.2,.9,.08,.06,.12,.12,.12,.18s-.08,.12-.16,.12h-5.42v4.86h2.64l.54-.58c.08-.08,.12-.12,.2-.12,.06,0,.1,.02,.24,.12,.32,.22,.76,.54,1.14,.82,.08,.06,.1,.1,.1,.16s-.06,.14-.18,.14h-4.68v5.82h3.8l.64-.7c.06-.06,.12-.1,.2-.1s.14,.02,.28,.12c.42,.28,.9,.62,1.32,.92,.08,.06,.1,.1,.1,.16s-.06,.14-.16,.14h-10.64c-.34,0-1.02,.04-1.36,.3Zm3-16.58l.06-.2c1.48,.44,3.22,1.24,3.22,2.2,0,.4-.24,.78-.54,.78-.28,0-.44-.24-.62-.6-.34-.68-1.22-1.62-2.12-2.18Z"/>
        <path class="cls-1" d="M364.82,14.94c-.1,0-.2-.06-.32-.22-.18-.26-.44-.68-.86-1.46,.26,0,.7,0,.88-.02,.66-.1,1.32-.22,2-.4V7.76h-.36c-.34,0-1.02,.04-1.36,.3-.36-.12-.82-.4-1.04-.98,.68,.14,1.26,.14,1.9,.14h.86V2.54h-.5c-.34,0-1.02,.04-1.36,.3-.36-.12-.82-.42-1.04-.98,.68,.14,1.26,.14,1.9,.14h2.8l.58-.56s.12-.1,.18-.1,.12,.02,.24,.12c.32,.26,.7,.58,.94,.82,.06,.06,.1,.1,.1,.14,0,.08-.08,.12-.18,.12h-2.64V7.22h.62l.46-.44c.06-.06,.12-.12,.18-.12s.12,.04,.22,.12c.2,.16,.56,.46,.84,.74,.06,.06,.08,.1,.08,.14,0,.06-.08,.1-.14,.1h-2.26v4.78c.88-.28,1.8-.62,2.76-1.04l.08,.22c-1.96,1.14-2.92,1.66-5.1,2.54-.1,.38-.26,.68-.46,.68Zm9.8,3.58c-.28,0-.48-.22-.48-.52,0-.14,.02-.58,.04-1,.04-.64,.12-2.1,.12-2.96v-.66c0-.16,0-.44-.02-.68-2.08,2.32-4.58,3.92-7.44,4.84l-.14-.18c3-1.52,5.72-3.5,7.3-6.02h-1.62v.04c0,.18-.48,.62-.74,.62-.22,0-.3-.12-.3-.42,0-.1,0-.24,.02-.56,.02-.54,.04-1.44,.04-1.86,0-.5-.04-1.12-.12-1.76,.4,.2,.84,.44,1.16,.62,.04,.02,.1,.06,.14,.1h5.56l.3-.34c.1-.12,.16-.16,.22-.16,.04,0,.1,.02,.22,.1,.24,.16,.6,.4,.74,.5,.12,.08,.12,.14,.12,.18,0,.1-.2,.28-.4,.46,0,.32,.02,.86,.06,1.34,.02,.3,.04,.72,.04,.86,0,.3-.34,.66-.74,.66-.28,0-.36-.26-.36-.38h-2.94l-.22,.3c.08,.02,.18,.06,.28,.1,.26,.1,.3,.18,.3,.28,0,.18-.2,.34-.44,.5-.02,.3-.04,.66-.04,.9v.64c0,1.02,.02,1.66,.06,2.54,.02,.54,.02,.96,.02,1.1,0,.3-.38,.82-.74,.82Zm7.04-11.92h-9.26c-.34,0-1.02,.04-1.36,.3-.36-.12-.82-.42-1.04-.98,.68,.14,1.26,.14,1.9,.14h7.68l.6-.58c.06-.06,.14-.12,.2-.12,.08,0,.14,.04,.28,.14,.36,.26,.76,.58,1.06,.82,.1,.08,.12,.12,.12,.16,0,.06-.06,.12-.18,.12Zm-2.88-1.82h-6.62c-.16,.2-.44,.44-.64,.44-.22,0-.3-.12-.3-.42,0-.08,0-.28,.02-.74,.02-.62,.04-1.4,.04-1.94,0-.5-.04-1.12-.12-1.76,.42,.2,.84,.42,1.16,.6,.1,.06,.12,.08,.16,.12h6.06l.3-.34c.1-.12,.16-.16,.22-.16s.14,.02,.24,.08c.24,.16,.58,.4,.72,.52,.1,.08,.12,.12,.12,.18,0,.1-.2,.28-.4,.46,0,.34,.04,1.24,.06,1.68,.02,.38,.04,.84,.04,1,0,.3-.34,.66-.74,.66-.28,0-.32-.26-.32-.38Zm-4.96-.54V1.62h-1.58v2.62h1.58Zm4.52,6.56v-2.14h-5.96v2.14h5.96Zm-2.06-6.56V1.62h-1.6v2.62h1.6Zm4.22,13.66c-.16,0-.34-.1-.58-.26-.82-.58-2.22-2.2-3.22-4.4-.3-.66-.52-1.14-.84-1.36l.2-.16c.34,.22,.58,.58,.72,.84,.3,.52,.6,1,.92,1.4,.62-.42,1-.82,1.36-1.26,.16-.2,.32-.46,.36-.74,.44,.34,.84,.68,1.22,1.02,.12,.1,.16,.14,.16,.22,0,.16-.2,.22-.46,.22-.16,0-.32-.02-.48-.06-.68,.38-1.24,.62-2,.84,1.32,1.66,2.74,2.4,4.74,2.88-.28,.32-.56,.36-1.12,.4-.18,.02-.48,.14-.64,.26-.1,.08-.26,.16-.34,.16Zm-1.72-13.66V1.62h-1.64v2.62h1.64Z"/>
        <path class="cls-1" d="M384.74,14.28c-.08,0-.16-.04-.28-.22-.14-.22-.36-.62-.7-1.34,.66,0,1.08-.08,1.7-.24,.38-.1,.78-.22,1.18-.34V6h-.34c-.34,0-1.02,.04-1.36,.3-.36-.12-.82-.4-1.04-.98,.68,.14,1.26,.14,1.9,.14h.84v-1.56c0-.5,0-.9-.04-1.52-.04-.54-.14-1.08-.26-1.5,.66,.18,1.12,.32,1.54,.46,.26,.08,.32,.14,.32,.26,0,.2-.24,.32-.5,.44-.04,.66-.04,1.14-.04,1.8v1.62h.64l.52-.52c.06-.06,.12-.12,.18-.12s.12,.04,.22,.12c.2,.16,.64,.54,.92,.82,.06,.06,.08,.1,.08,.14,0,.06-.08,.1-.14,.1h-2.42v5.78c.74-.28,1.54-.64,2.36-1.08l.12,.22c-1.64,1.12-3.2,2.04-5.02,2.8-.06,.28-.2,.56-.38,.56Zm2.28,4.08l-.08-.2c2.98-.7,4.96-2.26,5.78-4.04,.22-.48,.26-.9,.26-1.24,.46,.28,.98,.66,1.3,.9,.16,.12,.2,.2,.2,.26,0,.16-.38,.26-.66,.34-.8,1.7-2.98,3.56-6.8,3.98Zm3.22-11.04c-.36-.12-.82-.38-1.04-.96,.68,.14,1.26,.14,1.9,.14h4.88c.36-.74,.64-1.64,.72-2.22,.02-.14,.04-.32,.04-.4s0-.14-.02-.28c.52,.18,1.04,.4,1.4,.58,.08,.04,.16,.08,.16,.16,0,.18-.36,.28-.58,.34-.34,.56-.86,1.22-1.36,1.82h3.28l.46-.5c.06-.06,.1-.1,.18-.1,.06,0,.1,.02,.22,.1,.36,.26,.66,.48,1,.76,.08,.06,.1,.1,.1,.16,0,.04-.04,.12-.16,.12h-9.82c-.34,0-1.02,.02-1.36,.28Zm1.08-3.46c-.36-.12-.82-.38-1.04-.96,.68,.14,1.26,.14,1.9,.14h2.36v-.42c0-.2,0-.42-.04-.88-.04-.54-.14-1.08-.26-1.5,.72,.2,1.12,.32,1.54,.46,.26,.08,.32,.14,.32,.26,0,.2-.24,.32-.5,.44-.04,.5-.04,.92-.04,1.16v.48h2.9l.42-.46c.06-.06,.1-.1,.18-.1,.06,0,.1,.02,.22,.1,.38,.26,.6,.44,.94,.72,.08,.06,.1,.1,.1,.16,0,.04-.04,.12-.16,.12h-7.48c-.34,0-1.02,.02-1.36,.28Zm6.28,13.96c-1.56,0-2.08-.38-2.08-1.48,0-.12,0-.3,.02-.62,.02-.44,.04-1.12,.04-1.44v-1.42h-3.5v.1c0,.22-.46,.62-.7,.62-.26,0-.36-.16-.36-.42,0-.14,.02-.52,.04-.9,.02-.74,.02-1.28,.02-1.98,0-.78-.02-1.74-.14-2.56,.52,.24,.72,.34,1.12,.56,.14,.08,.18,.12,.2,.16h5.64l.38-.42c.1-.1,.16-.14,.22-.14,.08,0,.16,.04,.26,.1,.22,.14,.48,.32,.68,.48,.08,.06,.14,.12,.14,.2,0,.12-.2,.32-.42,.52,0,.52,.02,1.28,.04,1.92,.02,.46,.06,1.36,.06,1.78,0,.28-.34,.66-.72,.66-.26,0-.36-.26-.36-.44v-.24h-1.64v1.38c0,.7-.02,1.24-.02,1.96,0,.4,.3,.56,.56,.6,.32,.04,1.04,.04,1.44,.04,.36,0,1.2-.08,1.42-.18,.26-.12,.36-.3,.48-.66,.12-.34,.3-1.16,.42-2.06h.2c.02,.42,.06,1.04,.12,1.92,.02,.36,.2,.7,.46,.94,0,.4-.4,.68-.78,.8-.38,.12-1.7,.22-3.24,.22Zm.58-7.5v-1.34h-6.1v1.34h6.1Zm0,2v-1.46h-6.1v1.46h6.1Zm-5.82-8.5l.12-.18c.78,.54,1.72,1.3,1.72,2,0,.48-.36,.74-.62,.74s-.38-.3-.44-.66c-.1-.56-.26-1.22-.78-1.9Z"/>
      </g>
      <g>
        <path class="cls-1" d="M551.84,1.58c-2.2,4.02-5.24,7.14-9.28,8.62l-.12-.2c3.52-1.82,6.3-5.34,7.66-7.94,.42-.8,.7-1.4,.7-2,.64,.22,1.28,.46,1.82,.7,.14,.06,.16,.14,.16,.18,0,.22-.54,.4-.76,.42,.12,.08,.22,.18,.3,.28,.34,.44,.86,1.02,1.32,1.52,1.84,2.02,3.9,4.22,7.98,5.18-.22,.5-.88,.6-1.44,.6-.26,0-.4,.06-.52,.2-.12,.14-.2,.22-.36,.22s-.5-.18-.8-.4c-2.04-1.5-3.76-3.2-5.66-6-.26-.4-.52-.8-.78-1.16-.04-.06-.12-.14-.22-.22Zm-6.94,16c-.36-.12-.82-.4-1.04-.98,.68,.14,1.26,.14,1.9,.14h5.62v-3.78h-2.4c-.34,0-1.02,.04-1.36,.3-.36-.12-.82-.4-1.04-.98,.68,.14,1.26,.14,1.9,.14h2.9v-.64c0-.5,0-.9-.04-1.52-.02-.38-.12-.94-.22-1.32h-1.68c-.34,0-1.02,.04-1.36,.3-.36-.12-.82-.42-1.04-.98,.68,.14,1.26,.14,1.9,.14h5.46l.58-.56s.12-.1,.18-.1,.12,.02,.24,.12c.32,.26,.7,.58,.94,.82,.06,.06,.1,.1,.1,.14,0,.08-.08,.12-.18,.12h-4.52c.36,.1,.7,.2,.94,.28,.26,.08,.32,.14,.32,.26,0,.18-.26,.38-.5,.5-.04,.66-.04,1.08-.04,1.74v.7h2.5l.66-.64s.12-.12,.2-.12,.14,.04,.26,.14c.34,.28,.66,.56,.98,.88,.04,.04,.1,.1,.1,.16s-.08,.12-.16,.12h-4.54v3.78h5.16l.76-.74s.1-.1,.18-.1c.1,0,.18,.06,.32,.16,.42,.3,.84,.6,1.26,.92,.08,.06,.12,.1,.12,.16,0,.08-.06,.14-.16,.14h-13.84c-.34,0-1.02,.04-1.36,.3Z"/>
        <path class="cls-1" d="M570.21,16.96c-1.04-.08-2.06-.1-2.86-.1s-1.8,.02-2.84,.1v-.3c1.46-.24,2.26-.5,2.26-1.68V4.62c0-.5-.08-.78-.5-.78-.5,0-1.46,.26-2.02,.46v-.4c.82-.3,2.08-.96,2.52-1.3,.5-.4,.62-.5,.82-.5,.26,0,.46,.1,.46,.46,0,.3-.02,.7-.04,1.08-.02,.44-.04,.86-.04,1.36V14.98c0,1.18,.68,1.44,2.24,1.68v.3Z"/>
        <path class="cls-1" d="M582.81,16.96c-.6-.08-1.5-.1-2.3-.1s-1.58,.02-2.16,.1v-.3c.98-.2,1.68-.46,1.68-1.42v-2.48h-6.14c-.2,0-.26-.08-.26-.26,0-.22,.06-.32,.18-.5l6.74-9.7c.1-.16,.24-.2,.4-.2,.2,0,.36,.1,.36,.26,0,.36-.02,.86-.04,1.36-.02,.48-.04,1.06-.04,1.58v6.56c.72,0,1.4,0,1.82-.02,.28-.02,.38-.02,.44-.02,.14,0,.16,.06,.16,.1s-.06,.18-.08,.22l-.24,.5c-.06,.12-.14,.18-.3,.18-.06,0-.1,0-.32-.02-.32-.02-.9-.04-1.48-.04v2.48c0,.96,.48,1.22,1.58,1.42v.3Zm-2.78-12.68l-5.26,7.58h5.26V4.28Z"/>
        <path class="cls-1" d="M590.6,8.78c2.26,.54,3.5,1.66,3.5,3.76,0,2.66-2.22,4.62-5.34,4.62-1.24,0-1.98-.22-2.68-.44-.34-.1-.4-.34-.48-.74-.14-.66-.18-1.02-.18-1.5,0-.26,.1-.38,.34-.38,.2,0,.3,.08,.38,.26,.68,1.4,1.44,2.1,2.94,2.1,1.92,0,3.64-1.34,3.64-3.56s-1.4-3.52-4.1-3.52c-.2,0-.34,0-.5,.02-.18,.02-.22,.02-.32,.02-.22,0-.3-.12-.3-.42,0-.26,.08-.42,.3-.42,.08,0,.12,0,.24,.02,.12,.02,.26,.04,.38,.04,2.24,0,3.66-1.3,3.66-3.18,0-1.72-1.28-2.7-2.62-2.7-1.58,0-2.22,.98-2.68,2.04-.14,.3-.2,.36-.34,.36-.28,0-.46-.4-.46-1.36,0-.58,.16-.8,.72-1.06,.8-.38,1.82-.62,2.96-.62,2.16,0,3.8,1.16,3.8,3.04s-1.08,2.96-2.86,3.56v.06Z"/>
        <path class="cls-1" d="M606.42,15.46c-.62,0-1.18-.38-1.64-.84-1.28-1.32-1.92-4.36-2.18-7.28h-2.78v5.54c.92-.28,1.96-.64,3.04-1.18l.08,.2c-1.12,.86-3.12,1.86-4.98,2.56-.08,.28-.22,.6-.38,.6-.14,0-.26-.08-.46-.42-.16-.28-.34-.62-.62-1.24,.18,.02,.32,.02,.48,.02,.44,0,.84-.04,1.34-.16,.16-.04,.34-.08,.52-.12V4.68c0-.7,0-.92-.02-1.3-.02-.52-.1-1-.3-1.58,.78,.3,1.18,.48,1.5,.64,.12,.06,.16,.14,.16,.22,0,.04-.04,.1-.08,.16,1.08-.32,2.46-.8,3.3-1.32,.58-.36,1.2-.8,1.44-1.24,.46,.36,.8,.64,1.26,1.04,.1,.08,.1,.12,.1,.18,0,.16-.3,.22-.6,.22-.12,0-.26-.02-.36-.04-.68,.28-1.42,.54-2.22,.78,.18,.06,.38,.14,.58,.22,.16,.06,.24,.14,.24,.22,0,.18-.3,.42-.48,.56,0,1.24,.04,2.36,.12,3.36h1.44l.62-.62c.06-.06,.14-.12,.2-.12s.16,.06,.26,.14c.34,.28,.7,.58,.98,.86,.06,.06,.12,.12,.12,.18s-.08,.1-.2,.1h-3.38c.32,3.58,1.06,5.52,1.72,6.18,.16,.16,.3,.24,.48,.24,.4,0,.76-1.14,1.02-2.34l.2,.02c0,.76-.1,1.84-.18,2.42-.02,.14-.02,.18-.02,.28,0,.34,.1,.68,.32,.88,0,.3-.38,.44-.64,.44Zm-1.46,1.26h-4.48c-.34,0-1.02,.04-1.36,.3-.36-.12-.82-.4-1.04-.98,.68,.14,1.26,.14,1.9,.14h3.14l.54-.64c.08-.1,.14-.12,.18-.12,.08,0,.12,.02,.24,.12,.4,.36,.58,.52,.96,.9,.06,.06,.08,.1,.08,.14,0,.06-.06,.14-.16,.14Zm-2.74-14.06c-.8,.22-1.62,.38-2.4,.5v3.64h2.72c-.06-.84-.08-1.6-.1-2.32-.02-.74-.08-1.3-.22-1.82Zm6.08,15.8c-.3,0-.5-.32-.5-.68,0-.24,.06-1.56,.1-2.4,.04-.96,.06-2.12,.06-3.34V6.6c0-1.38,0-2.88-.04-3.84-.02-.54-.1-1.22-.26-1.74,.34,.16,1,.54,1.28,.72,.16,.1,.26,.18,.26,.26h2.64l.4-.4c.08-.08,.14-.1,.2-.1,.08,0,.16,.06,.26,.14,.3,.24,.62,.54,.84,.76,.12,.12,.2,.22,.2,.32,0,.2-.52,.46-.72,.52-.72,1.58-1.66,3.12-2.76,4.42,2.22,1.36,3.46,2.96,3.46,4.94,0,1.14-.56,2.26-1.7,2.84-.24-.26-.66-.48-1-.6-.48-.18-1-.5-1.42-1.2l.12-.16c.62,.3,1.48,.5,1.88,.5,.72,0,.98-.92,.98-1.56,0-1.46-1-3.02-2.72-4.8,1.04-1.56,1.76-3.46,2.2-5.08h-3.08c-.04,1.04-.04,2.46-.04,3.94v5.5c0,.94,.06,2.74,.08,3.34,.02,.58,.06,1.78,.06,2.12,0,.4-.38,1.02-.78,1.02Z"/>
        <path class="cls-1" d="M625.36,4.48c.1,.08,.34,.28,.34,.46,0,4.06-1.52,6.48-4.62,8.46-.64,.4-1.26,.62-1.58,.62-.12,0-.22-.1-.34-.38-.04-.1-.14-.24-.26-.4-.3-.42-.48-1.08-.48-2.1,0-2.16,.86-4.32,2.52-5.84,1.7-1.56,3.86-1.92,5.02-1.92,3.84,0,6.54,2.88,6.54,6.28,0,2.16-.82,3.96-2.58,4.96-1.52,.86-3.52,1.16-4.74,1.2l-.02-.2c1.56-.32,3-.96,4.1-1.86,1.26-1.02,2.02-2.64,2.02-4.2,0-3.08-1.78-5.5-5.54-5.5-1.5,0-3.22,.64-4.36,1.76-1.3,1.28-1.92,3.02-1.92,4.44,0,.9,.18,2.16,.56,2.16,.22,0,1.12-.44,1.6-.76,2.4-1.64,3.4-4.38,3.74-7.18Z"/>
        <path class="cls-1" d="M645.04,10.26c-2.3,2.62-4.94,4.6-8.42,5.58l-.1-.18c4.46-2.04,8.68-6.56,10.84-10.42,.04-.08,.06-.14,.06-.2,0-.14-.04-.2-.14-.2-.06,0-.16,0-.24,.02-.96,.2-3.34,.86-4.48,1.24-.4,.14-.7,.2-.92,.2-.44,0-1.02-.42-1.52-.9-.4-.38-.78-.84-.78-.98,0-.12,.06-.2,.1-.24,.62,.4,1.52,.9,2.18,.9,.56,0,3.88-.78,4.9-1.06,.3-.08,.58-.16,.74-.26,.2-.12,.4-.24,.56-.24,.4,0,1.56,1.38,1.56,1.64,0,.24-.3,.44-.62,.6-.24,.12-.56,.34-.72,.58-.9,1.32-1.8,2.56-2.78,3.68,1.82,.72,4.3,2.06,5.3,3.28,.36,.44,.62,1.16,.62,1.64s-.2,.7-.5,.7c-.16,0-.3-.08-.4-.22-1.86-2.76-2.98-3.6-5.24-5.16Z"/>
        <path class="cls-1" d="M658.12,17.26l-.14-.14c3.2-2.04,5.22-4.5,6.04-8.3,.08-.38,.1-.66,.1-.88,0-.42-.2-.76-.48-1.12-.72,.12-1.32,.22-1.68,.3-.2,.04-.52,.08-.74,.08-.54,0-1.04-.42-1.56-.98-1.18,2.28-2.22,3.48-3.98,4.5l-.14-.14c1.9-1.56,3.42-4.66,3.7-6.4,.04-.24,.06-.44,.06-.6,0-.78-.5-1.16-.98-1.5,.04-.08,.14-.2,.34-.2,.26,0,.98,.28,1.48,.68,.48,.4,.76,.76,.76,1.14,0,.18-.06,.28-.14,.36-.12,.12-.18,.24-.3,.5-.16,.38-.38,.86-.58,1.24,.5,.34,.9,.54,1.4,.54,.86,0,4.56-.86,5.48-1.08,.3-.08,.5-.18,.66-.28,.18-.12,.32-.2,.46-.2,.26,0,1.28,.68,1.6,.9,.12,.08,.16,.18,.16,.28,0,.26-.36,.28-.52,.28-.18,0-.48-.02-.8-.02-.58,0-2.38,.24-3.96,.5,.7,.56,1.38,1.16,1.38,1.52,0,.14-.06,.28-.16,.42-.12,.16-.28,.38-.32,.54-1.14,3.9-3.46,6.76-7.14,8.06Z"/>
        <path class="cls-1" d="M686.8,8.7c.5,0,1.4,.02,1.4,.42,0,.52-.88,.64-5.12,.78-4.88,.16-6.5,.24-7.1,.3-.22,.02-.38,.06-.52,.14-.28,.16-.44,.24-.62,.24-.32,0-.58-.14-.96-.66-.36-.48-.68-1.08-.68-1.36,0-.2,.08-.38,.24-.52,.18,.42,.5,.68,.84,.8,.32,.12,.92,.2,1.92,.2s5.56-.16,8.9-.28c.92-.04,1.38-.06,1.7-.06Z"/>
        <path class="cls-1" d="M691.45,15.54c.86-.62,3.38-2.3,3.84-6.52,.02-.18,.04-.38,.04-.5,0-1.28-.68-1.7-1.36-2.12,.04-.08,.08-.18,.28-.18,.74,0,2.56,1.36,2.56,2.14,0,.2-.12,.38-.2,.5-.08,.12-.14,.22-.18,.42-.6,3.28-2.08,5.24-4.86,6.4l-.12-.14Zm8.36-.84c-.22,0-1.08-.68-1.22-1.38-.02-.12-.04-.3-.04-.52,0-.2,0-.68,.02-.94,.06-1.14,.16-3.04,.16-4.78,0-.58-.02-1.18-.04-1.7-.04-.72-.1-1.14-.76-1.14-.1,0-.34,.04-.44,.08,.02-.32,.38-.6,.94-.6,.76,0,1.98,.78,1.98,1.34,0,.1-.06,.16-.2,.28-.18,.16-.2,.3-.24,.58-.1,.66-.38,5.94-.38,6.32,0,.32,.02,.48,.24,.48,.16,0,.58-.2,1.1-.46,1.9-.94,4.78-2.92,6.3-6.2l.2,.08c-.74,3.06-3.98,6.24-6.24,7.6-.66,.4-.88,.6-.98,.74-.1,.14-.18,.22-.4,.22Z"/>
        <path class="cls-1" d="M721.06,16.5c-.86,0-2.58-.96-3.66-1.76-1.3-.98-2.24-2.56-2.24-4.28s.76-3.18,1.1-3.74c.26-.42,.88-1.28,1.38-1.88-1.36,.28-3.62,.82-5,1.24-.26,.08-.56,.18-.74,.26-.2,.08-.36,.12-.54,.12-.24,0-.46-.08-.66-.2-.36-.22-.78-.64-1.06-1.02-.2-.26-.52-.7-.52-.82,0-.1,.06-.2,.18-.24,.46,.44,1.28,.88,2,.88,.4,0,1.02-.06,1.28-.1,1.9-.24,4.88-.82,6.36-1.26,.78-.24,1.52-.48,2.12-.68,.32-.1,.64-.18,.76-.18,.22,0,.48,.14,.8,.34,.64,.38,.86,.52,.86,.7,0,.22-.18,.44-.44,.44-.1,0-.44-.02-.7-.04-.2-.02-.42-.02-.62-.02-.4,0-.94,.04-1.48,.12-1.12,.4-2.16,1.14-2.96,2.1-.82,1-1.42,1.96-1.42,3.7,0,1.14,.62,2.32,1.46,3.06,.98,.86,1.96,1.24,2.28,1.32,.8,.18,1.34,.6,1.66,1.3,.04,.08,.06,.22,.06,.32,0,.18-.12,.32-.26,.32Zm-.44-9.14l.04-.16c1.6,.18,2.76,1.08,2.76,1.74,0,.4-.18,.62-.42,.62-.14,0-.26-.16-.54-.6-.28-.42-.94-1.2-1.84-1.6Zm1.12-.98v-.14c.3-.06,.58-.08,.82-.08,1.42,0,2.34,.72,2.34,1.3,0,.34-.22,.54-.4,.54-.14,0-.32-.14-.58-.44-.38-.44-1.22-1-2.18-1.18Z"/>
        <path class="cls-1" d="M730.45,18.36c-.34-.4-.68-.56-1.08-.76-.4-.2-.88-.6-1.24-1.1l.1-.18c.6,.32,1.28,.54,1.94,.54,.3,0,.74-.2,.74-.7v-5.7c-.58,.3-1.22,.6-1.92,.88-.04,.34-.14,.64-.28,.64-.12,0-.2-.04-.38-.26-.14-.18-.38-.52-.76-1.1,.38-.04,.78-.12,1.24-.26,.7-.22,1.4-.46,2.1-.76V5.3h-.98c-.34,0-1.02,.06-1.36,.32-.36-.12-.82-.44-1.04-1.02,.68,.14,1.26,.16,1.9,.16h1.48V2.1c0-.42-.1-1.08-.24-1.58,.6,.22,1.3,.52,1.6,.68,.14,.08,.16,.14,.16,.2,0,.16-.2,.34-.48,.58-.04,.5-.04,1.04-.04,2.78h1.04l.46-.5s.12-.1,.18-.1,.12,.02,.24,.12c.32,.26,.54,.46,.84,.76,.06,.06,.1,.1,.1,.14,0,.08-.08,.12-.18,.12h-2.68c0,.88,0,2.26,.02,3.84,.9-.42,1.74-.9,2.44-1.4l.14,.2c-.8,.72-1.62,1.34-2.58,1.94,.02,1.38,.04,2.8,.06,3.42,.02,.92,.06,2.78,.06,3.3,0,.72-.82,1.38-1.6,1.76Zm10.54-11.64c-.24,0-.4-.2-.4-.46,0-.34,.02-.86,.04-1.32,.02-.36,.04-.86,.04-.98h-2.58c0,.28,0,.6,.02,.84,.02,.42,.04,1,.04,1.16,0,.38-.36,.76-.66,.76-.24,0-.4-.2-.4-.46,0-.34,.02-.86,.04-1.32,.02-.4,.04-.84,.04-.98h-.74c-.34,0-1.02,.02-1.36,.28-.36-.12-.82-.38-1.04-.96,.68,.14,1.26,.14,1.9,.14h1.24c0-.8-.02-1.26-.04-1.68-.02-.34-.08-.64-.18-1.06,.58,.16,.92,.26,1.36,.42,.16,.06,.18,.14,.18,.2,0,.16-.18,.28-.38,.4-.02,.46-.04,.98-.04,1.72h2.6c0-.8-.02-1.26-.04-1.68-.02-.34-.08-.64-.18-1.06,.58,.16,.92,.26,1.36,.42,.16,.06,.18,.14,.18,.2,0,.16-.18,.28-.38,.4-.02,.46-.04,.98-.04,1.72h1.84l.5-.54c.06-.06,.1-.1,.18-.1,.06,0,.12,.02,.24,.1,.4,.28,.68,.48,1.06,.78,.08,.06,.1,.1,.1,.16s-.04,.14-.16,.14h-3.74c0,.28,0,.6,.02,.84,.02,.42,.04,1,.04,1.16,0,.38-.36,.76-.66,.76Zm-5.62,11.28c-.26,0-.38-.16-.38-.42,0-.22,.04-1.86,.06-2.5,.02-1.16,.02-3.56,.02-4.66,0-1.02,0-2.24-.14-3.22,.5,.24,.78,.38,1.14,.58,.14,.08,.2,.12,.22,.16h6.18l.38-.42c.1-.1,.18-.16,.24-.16s.12,.02,.24,.1c.28,.18,.48,.32,.72,.5,.08,.06,.14,.12,.14,.22s-.2,.32-.42,.52c0,.92,.02,2.96,.04,4.86,.02,1.56,.04,3.14,.04,3.72,0,.3-.34,.68-.74,.68-.28,0-.36-.26-.36-.44v-.94h-6.66v.8c0,.2-.46,.62-.72,.62Zm3.52-6.08v-3.44h-2.8v3.44h2.8Zm0,4.12v-3.58h-2.8v3.58h2.8Zm3.86-4.12v-3.44h-2.88v3.44h2.88Zm0,4.12v-3.58h-2.88v3.58h2.88Z"/>
        <path class="cls-1" d="M753.54,.9c.06-.08,.14-.14,.2-.14,.24,0,1.06,.54,1.64,1.1,.3,.28,.46,.6,.46,.8,0,.54-.44,.96-.64,1.16-.22,.2-4,3.96-4.22,4.18-.4,.42-.58,.66-.58,.94,0,.44,.94,1.48,1.5,2.02,1.18,1.12,2.28,2.18,2.76,2.78,.66,.84,1.5,2.08,1.5,2.68s-.24,.96-.68,.96c-.22,0-.46-.18-.6-.56-.26-.74-.66-1.44-1.1-2.12-.64-.96-2.16-2.7-3.7-4.46-.5-.58-.68-.86-.68-1.22,0-.26,.22-.62,.44-.86,.78-.82,3.26-3.44,3.78-4.06,.44-.54,.72-1.02,.72-1.5,0-.52-.28-1.04-.8-1.7Z"/>
        <path class="cls-1" d="M762.03,14.94c-.1,0-.2-.06-.32-.22-.18-.26-.44-.68-.86-1.46,.26,0,.7,0,.88-.02,.66-.1,1.32-.22,2-.4V7.76h-.36c-.34,0-1.02,.04-1.36,.3-.36-.12-.82-.4-1.04-.98,.68,.14,1.26,.14,1.9,.14h.86V2.54h-.5c-.34,0-1.02,.04-1.36,.3-.36-.12-.82-.42-1.04-.98,.68,.14,1.26,.14,1.9,.14h2.8l.58-.56s.12-.1,.18-.1,.12,.02,.24,.12c.32,.26,.7,.58,.94,.82,.06,.06,.1,.1,.1,.14,0,.08-.08,.12-.18,.12h-2.64V7.22h.62l.46-.44c.06-.06,.12-.12,.18-.12s.12,.04,.22,.12c.2,.16,.56,.46,.84,.74,.06,.06,.08,.1,.08,.14,0,.06-.08,.1-.14,.1h-2.26v4.78c.88-.28,1.8-.62,2.76-1.04l.08,.22c-1.96,1.14-2.92,1.66-5.1,2.54-.1,.38-.26,.68-.46,.68Zm9.8,3.58c-.28,0-.48-.22-.48-.52,0-.14,.02-.58,.04-1,.04-.64,.12-2.1,.12-2.96v-.66c0-.16,0-.44-.02-.68-2.08,2.32-4.58,3.92-7.44,4.84l-.14-.18c3-1.52,5.72-3.5,7.3-6.02h-1.62v.04c0,.18-.48,.62-.74,.62-.22,0-.3-.12-.3-.42,0-.1,0-.24,.02-.56,.02-.54,.04-1.44,.04-1.86,0-.5-.04-1.12-.12-1.76,.4,.2,.84,.44,1.16,.62,.04,.02,.1,.06,.14,.1h5.56l.3-.34c.1-.12,.16-.16,.22-.16,.04,0,.1,.02,.22,.1,.24,.16,.6,.4,.74,.5,.12,.08,.12,.14,.12,.18,0,.1-.2,.28-.4,.46,0,.32,.02,.86,.06,1.34,.02,.3,.04,.72,.04,.86,0,.3-.34,.66-.74,.66-.28,0-.36-.26-.36-.38h-2.94l-.22,.3c.08,.02,.18,.06,.28,.1,.26,.1,.3,.18,.3,.28,0,.18-.2,.34-.44,.5-.02,.3-.04,.66-.04,.9v.64c0,1.02,.02,1.66,.06,2.54,.02,.54,.02,.96,.02,1.1,0,.3-.38,.82-.74,.82Zm7.04-11.92h-9.26c-.34,0-1.02,.04-1.36,.3-.36-.12-.82-.42-1.04-.98,.68,.14,1.26,.14,1.9,.14h7.68l.6-.58c.06-.06,.14-.12,.2-.12,.08,0,.14,.04,.28,.14,.36,.26,.76,.58,1.06,.82,.1,.08,.12,.12,.12,.16,0,.06-.06,.12-.18,.12Zm-2.88-1.82h-6.62c-.16,.2-.44,.44-.64,.44-.22,0-.3-.12-.3-.42,0-.08,0-.28,.02-.74,.02-.62,.04-1.4,.04-1.94,0-.5-.04-1.12-.12-1.76,.42,.2,.84,.42,1.16,.6,.1,.06,.12,.08,.16,.12h6.06l.3-.34c.1-.12,.16-.16,.22-.16s.14,.02,.24,.08c.24,.16,.58,.4,.72,.52,.1,.08,.12,.12,.12,.18,0,.1-.2,.28-.4,.46,0,.34,.04,1.24,.06,1.68,.02,.38,.04,.84,.04,1,0,.3-.34,.66-.74,.66-.28,0-.32-.26-.32-.38Zm-4.96-.54V1.62h-1.58v2.62h1.58Zm4.52,6.56v-2.14h-5.96v2.14h5.96Zm-2.06-6.56V1.62h-1.6v2.62h1.6Zm4.22,13.66c-.16,0-.34-.1-.58-.26-.82-.58-2.22-2.2-3.22-4.4-.3-.66-.52-1.14-.84-1.36l.2-.16c.34,.22,.58,.58,.72,.84,.3,.52,.6,1,.92,1.4,.62-.42,1-.82,1.36-1.26,.16-.2,.32-.46,.36-.74,.44,.34,.84,.68,1.22,1.02,.12,.1,.16,.14,.16,.22,0,.16-.2,.22-.46,.22-.16,0-.32-.02-.48-.06-.68,.38-1.24,.62-2,.84,1.32,1.66,2.74,2.4,4.74,2.88-.28,.32-.56,.36-1.12,.4-.18,.02-.48,.14-.64,.26-.1,.08-.26,.16-.34,.16Zm-1.72-13.66V1.62h-1.64v2.62h1.64Z"/>
        <path class="cls-1" d="M781.95,14.28c-.08,0-.16-.04-.28-.22-.14-.22-.36-.62-.7-1.34,.66,0,1.08-.08,1.7-.24,.38-.1,.78-.22,1.18-.34V6h-.34c-.34,0-1.02,.04-1.36,.3-.36-.12-.82-.4-1.04-.98,.68,.14,1.26,.14,1.9,.14h.84v-1.56c0-.5,0-.9-.04-1.52-.04-.54-.14-1.08-.26-1.5,.66,.18,1.12,.32,1.54,.46,.26,.08,.32,.14,.32,.26,0,.2-.24,.32-.5,.44-.04,.66-.04,1.14-.04,1.8v1.62h.64l.52-.52c.06-.06,.12-.12,.18-.12s.12,.04,.22,.12c.2,.16,.64,.54,.92,.82,.06,.06,.08,.1,.08,.14,0,.06-.08,.1-.14,.1h-2.42v5.78c.74-.28,1.54-.64,2.36-1.08l.12,.22c-1.64,1.12-3.2,2.04-5.02,2.8-.06,.28-.2,.56-.38,.56Zm2.28,4.08l-.08-.2c2.98-.7,4.96-2.26,5.78-4.04,.22-.48,.26-.9,.26-1.24,.46,.28,.98,.66,1.3,.9,.16,.12,.2,.2,.2,.26,0,.16-.38,.26-.66,.34-.8,1.7-2.98,3.56-6.8,3.98Zm3.22-11.04c-.36-.12-.82-.38-1.04-.96,.68,.14,1.26,.14,1.9,.14h4.88c.36-.74,.64-1.64,.72-2.22,.02-.14,.04-.32,.04-.4s0-.14-.02-.28c.52,.18,1.04,.4,1.4,.58,.08,.04,.16,.08,.16,.16,0,.18-.36,.28-.58,.34-.34,.56-.86,1.22-1.36,1.82h3.28l.46-.5c.06-.06,.1-.1,.18-.1,.06,0,.1,.02,.22,.1,.36,.26,.66,.48,1,.76,.08,.06,.1,.1,.1,.16,0,.04-.04,.12-.16,.12h-9.82c-.34,0-1.02,.02-1.36,.28Zm1.08-3.46c-.36-.12-.82-.38-1.04-.96,.68,.14,1.26,.14,1.9,.14h2.36v-.42c0-.2,0-.42-.04-.88-.04-.54-.14-1.08-.26-1.5,.72,.2,1.12,.32,1.54,.46,.26,.08,.32,.14,.32,.26,0,.2-.24,.32-.5,.44-.04,.5-.04,.92-.04,1.16v.48h2.9l.42-.46c.06-.06,.1-.1,.18-.1,.06,0,.1,.02,.22,.1,.38,.26,.6,.44,.94,.72,.08,.06,.1,.1,.1,.16,0,.04-.04,.12-.16,.12h-7.48c-.34,0-1.02,.02-1.36,.28Zm6.28,13.96c-1.56,0-2.08-.38-2.08-1.48,0-.12,0-.3,.02-.62,.02-.44,.04-1.12,.04-1.44v-1.42h-3.5v.1c0,.22-.46,.62-.7,.62-.26,0-.36-.16-.36-.42,0-.14,.02-.52,.04-.9,.02-.74,.02-1.28,.02-1.98,0-.78-.02-1.74-.14-2.56,.52,.24,.72,.34,1.12,.56,.14,.08,.18,.12,.2,.16h5.64l.38-.42c.1-.1,.16-.14,.22-.14,.08,0,.16,.04,.26,.1,.22,.14,.48,.32,.68,.48,.08,.06,.14,.12,.14,.2,0,.12-.2,.32-.42,.52,0,.52,.02,1.28,.04,1.92,.02,.46,.06,1.36,.06,1.78,0,.28-.34,.66-.72,.66-.26,0-.36-.26-.36-.44v-.24h-1.64v1.38c0,.7-.02,1.24-.02,1.96,0,.4,.3,.56,.56,.6,.32,.04,1.04,.04,1.44,.04,.36,0,1.2-.08,1.42-.18,.26-.12,.36-.3,.48-.66,.12-.34,.3-1.16,.42-2.06h.2c.02,.42,.06,1.04,.12,1.92,.02,.36,.2,.7,.46,.94,0,.4-.4,.68-.78,.8-.38,.12-1.7,.22-3.24,.22Zm.58-7.5v-1.34h-6.1v1.34h6.1Zm0,2v-1.46h-6.1v1.46h6.1Zm-5.82-8.5l.12-.18c.78,.54,1.72,1.3,1.72,2,0,.48-.36,.74-.62,.74s-.38-.3-.44-.66c-.1-.56-.26-1.22-.78-1.9Z"/>
        <path class="cls-1" d="M806.86,1.52c-1.8,2.9-3.8,4.96-6.34,6.24l-.12-.16c2.14-1.48,4.12-3.94,5.38-6.32,.2-.38,.4-.94,.42-1.28,.52,.3,1.04,.62,1.36,.82,.12,.08,.16,.12,.16,.22,0,.18-.4,.26-.64,.28,2.2,.72,4.38,2.04,4.38,3.04,0,.42-.18,.76-.48,.76-.24,0-.48-.18-.74-.64-.52-.9-1.64-2.1-3.38-2.96Zm2.44,9.84h-4.92c-.34,2.32-1.34,3.98-3.6,5.58l-.16-.12c1.9-1.92,2.92-4.06,2.92-7.54v-1.06c0-1-.12-1.8-.28-2.26,.52,.18,1.04,.38,1.38,.54,.12,.06,.18,.12,.2,.18h4.18l.38-.42c.1-.1,.16-.14,.22-.14,.08,0,.16,.04,.26,.1,.24,.16,.46,.32,.68,.48,.08,.06,.14,.12,.14,.2,0,.12-.2,.32-.42,.52,0,.56,.04,1.72,.06,2.3,.02,.58,.04,1.22,.04,1.6,0,.28-.34,.66-.72,.66-.26,0-.36-.26-.36-.44v-.18Zm-4.52,6.86c-.24,0-.34-.14-.34-.4,0-.14,.02-.84,.04-1.46,.02-.68,.02-1.24,.02-1.82,0-.74-.02-1.22-.14-2,.48,.24,.76,.38,1.08,.56,.12,.06,.18,.1,.2,.14h3.74l.36-.4c.1-.12,.16-.14,.22-.14,.08,0,.12,.02,.24,.1,.22,.14,.46,.3,.68,.46,.08,.06,.12,.12,.12,.2,0,.12-.18,.32-.4,.5,0,.44,.02,1.16,.04,1.84,.02,.6,.04,1.42,.04,1.64,0,.28-.32,.64-.7,.64-.24,0-.34-.22-.34-.42v-.44h-4.18v.42c0,.2-.44,.58-.68,.58Zm4.52-7.4v-1.54h-4.78c0,.54-.04,1.06-.08,1.54h4.86Zm0-2.08v-1.52h-4.78v1.52h4.78Zm-2.72-4.02h1.22l.42-.46c.06-.06,.1-.1,.18-.1,.06,0,.1,.02,.22,.1,.28,.2,.62,.46,.94,.72,.08,.06,.1,.1,.1,.16,0,.04-.04,.12-.16,.12h-2.42c-.34,0-1.02,.02-1.36,.28-.36-.12-.82-.38-1.04-.96,.68,.14,1.26,.14,1.9,.14Zm3.06,11.96v-2.9h-4.18v2.9h4.18Zm3.18-12.54c-.02-.48-.1-1.22-.26-1.64,.62,.2,1,.34,1.48,.52,.18,.06,.24,.12,.24,.22,0,.18-.24,.46-.44,.62-.02,.6-.04,1.78-.04,2.16v2.42c0,.2,.04,2.14,.06,2.46,.02,.4,.04,1.36,.04,1.58,0,.44-.48,.82-.78,.82-.26,0-.4-.2-.4-.48s.04-1.34,.06-1.78c.02-.46,.08-2.3,.08-2.54v-2.36c0-.4,0-1.06-.04-2Zm.3,12.3l.1-.18c.88,.36,1.68,.56,2.42,.56,.62,0,.8-.54,.8-1.76V4.82c0-1.18-.02-2.18-.04-2.62-.02-.6-.16-1.26-.32-1.78,.72,.26,1.44,.54,1.74,.7,.12,.06,.16,.16,.16,.22,0,.18-.3,.48-.5,.62-.04,.6-.04,1.74-.04,2.9,0,3.26,.02,5.98,.08,7.58,.04,1.12,.06,2.16,.06,3.4,0,1.62-.68,2.02-1.94,2.6-.32-.44-.74-.72-1.42-1.12-.44-.26-.78-.52-1.1-.88Z"/>
        <path class="cls-1" d="M835.62,17.98c-2.74,0-5.1-.34-7.1-.96-.84-.26-1.44-.5-2.24-1.08-.44-.32-.9-.64-1.4-.64-.56,0-1.56,1.08-2.08,1.7-.04,.32-.16,.66-.32,.66-.06,0-.16-.04-.28-.16-.22-.22-.6-.6-1.06-1.26,.18,0,.32,0,.52-.08,.5-.2,.94-.42,1.4-.7,.42-.26,.94-.52,1.5-.64v-5.92h-.94c-.34,0-1.02,.04-1.36,.3-.36-.12-.82-.42-1.04-.98,.68,.14,1.26,.14,1.9,.14h1.28l.44-.44s.1-.1,.18-.1c.06,0,.14,.04,.26,.12,.28,.18,.64,.42,.84,.56,.08,.06,.14,.12,.14,.2,0,.14-.38,.44-.68,.66v5.54c.28,.12,.58,.32,.88,.52,.76,.52,1.38,.72,2.28,.9,1.36,.28,3.02,.42,5.14,.42s3.66-.16,5.64-.6c-.14,.52-.54,.82-1,.98-.28,.1-.42,.2-.52,.34-.1,.14-.2,.26-.32,.36-.2,.16-.98,.16-2.06,.16Zm-10.4-13.54c-.34,0-.54-.3-.72-.82-.24-.68-.8-1.58-1.7-2.34l.08-.22c1.42,.48,2.92,1.34,2.92,2.5,0,.56-.3,.88-.58,.88Zm2.42,3.9c-.36-.12-.82-.4-1.04-.98,.68,.14,1.26,.14,1.9,.14h3.32v-2.8h-3.14c-.48,.82-1.1,1.62-1.92,2.36l-.16-.14c1-1.18,1.72-3.18,1.88-4.36,.04-.32,.06-.54,.06-.76,0-.24-.02-.44-.08-.74,.66,.26,1.24,.5,1.7,.72,.12,.06,.16,.12,.16,.18,0,.2-.4,.38-.66,.46-.18,.56-.4,1.16-.7,1.74h2.86v-.8c0-.5,0-.9-.04-1.52-.04-.54-.14-1.08-.26-1.5,.66,.18,1.1,.32,1.52,.46,.26,.08,.32,.14,.32,.26,0,.2-.24,.32-.5,.44-.04,.66-.04,1.14-.04,1.8v.86h2.36l.58-.62c.08-.08,.12-.12,.2-.12,.06,0,.12,.02,.26,.12,.44,.3,.78,.54,1.2,.86,.08,.06,.1,.1,.1,.16s-.06,.14-.18,.14h-4.52v2.8h3.5l.6-.66c.06-.06,.12-.1,.2-.1,.06,0,.12,.02,.26,.12,.44,.3,.84,.58,1.26,.88,.08,.06,.1,.1,.1,.16s-.06,.14-.16,.14h-9.36c-.56,0-1.24,.04-1.58,.3Zm1.42,7c-.26,0-.36-.16-.36-.42,0-.14,.02-.9,.04-1.6,.02-.74,.02-1.08,.02-1.78,0-.38-.02-1.34-.14-2.16,.48,.22,.74,.34,1.12,.56,.14,.08,.2,.14,.2,.16h4.74l.38-.42c.1-.1,.16-.14,.22-.14,.08,0,.16,.04,.26,.1,.22,.14,.48,.32,.68,.48,.08,.06,.14,.12,.14,.2,0,.12-.2,.32-.42,.52,0,.56,.04,1.72,.06,2.28,.02,.58,.04,1.14,.04,1.52,0,.28-.34,.66-.72,.66-.26,0-.36-.26-.36-.44v-.58h-5.2v.44c0,.22-.46,.62-.7,.62Zm5.9-1.6v-3.1h-5.2v3.1h5.2Z"/>
        <path class="cls-1" d="M843.48,16.68c2.82-1.22,6-3.6,7.62-7.7,.82-2.1,1-3.14,1.08-3.76,.02-.12,.04-.24,.04-.28,0-.08-.1-.18-.2-.18-.04,0-.28,.04-.4,.06-2.1,.32-4.2,.9-5.76,1.4-.5,.16-.88,.28-1.18,.28-.56,0-1.08-.3-1.48-.72-.38-.4-.84-1.16-.84-1.44,0-.12,.06-.18,.1-.22,.86,.66,1.38,1.06,2.26,1.06,.16,0,.46-.04,.58-.06,.64-.1,4.82-.88,5.8-1.12,.24-.06,.32-.1,.46-.2,.08-.06,.2-.12,.34-.12,.56,0,2.3,.8,2.3,1.32,0,.18-.08,.3-.24,.52-.16,.2-.26,.34-.34,.54-.28,.74-.64,1.66-1.16,2.82-1.32,3-3.54,6.84-8.88,7.98l-.1-.18Zm12.4-12.02c-.96,0-1.8-.78-1.8-1.72s.84-1.72,1.8-1.72,1.8,.78,1.8,1.72-.82,1.72-1.8,1.72Zm.02-.52c.68,0,1.22-.56,1.22-1.2s-.54-1.2-1.22-1.2-1.24,.56-1.24,1.2,.54,1.2,1.24,1.2Z"/>
        <path class="cls-1" d="M863.5,14.7c-.46,0-.8-.66-.94-1.3-.04-.16-.08-.38-.08-.6s0-.42,.02-.64c.02-.24,.02-.44,.02-.64,0-.32-.1-1.86-.24-3.18-.06-.56-.18-1.34-.22-1.56-.14-.78-1.04-1.92-1.46-2.16,.12-.06,.2-.08,.4-.08,.16,0,.36,.06,.58,.16,.54,.22,1.16,.66,1.46,.96h.2c1,0,7-.72,8-.88,.42-.06,.72-.14,.9-.2,.16-.06,.28-.1,.38-.1,.38,0,1.96,1.66,1.96,1.94,0,.1-.06,.18-.16,.28-.14,.14-.34,.34-.44,.66-.5,1.5-1.14,3.5-1.64,5.06,.46,.3,.84,.62,.84,.82,0,.14-.1,.22-.28,.22-.16,0-.6-.06-1.38-.18-.36-.06-1.02-.08-1.74-.08-1.62,0-3.74,.1-4.58,.16-.26,.02-.6,.06-.66,.1-.06,.04-.22,.1-.32,.1-.12,0-.24-.04-.36-.12v.42c0,.48-.06,.84-.26,.84Zm.14-2.14c.26,.04,.52,.04,.78,.04,.36,0,.8-.02,1.1-.04,1.82-.16,4.8-.4,5.8-.46,.52-1.88,1.2-5.06,1.2-5.92,0-.36-.16-.38-.6-.38-1.14,0-4.1,.2-5.96,.44-.76,.1-1.24,.18-1.62,.3-.28,.08-.5,.12-.7,.12-.14,0-.28-.04-.42-.1,.1,1.12,.28,3.88,.36,5.22,.02,.3,.04,.56,.06,.78Z"/>
        <path class="cls-1" d="M882.98,9.72c-.26,0-.48-.18-.68-.46-.5-.7-.96-1.24-2.12-1.62l.06-.18c.14-.02,.22-.02,.36-.02,1.38,0,2.86,.46,2.86,1.66,0,.36-.26,.62-.48,.62Zm-1.72,2.98c0,.82,.32,1.54,.84,1.54,.12,0,.24-.04,.52-.14,2.62-.92,8.12-4.96,11.48-8.78l.16,.12c-1.56,3.34-8.54,8.78-11.08,10.06-.24,.12-.44,.16-.6,.16-.38,0-.9-.28-1.4-.78-.34-.34-.52-.56-.52-1.04,0-.34,.14-.78,.3-1.02,.06-.1,.18-.12,.3-.12Zm.46-8.54c.18-.02,.28-.02,.44-.02,1.52,0,3.12,.44,3.12,1.66,0,.5-.2,.7-.46,.7-.2,0-.4-.12-.56-.32-.72-.94-1.42-1.58-2.6-1.82l.06-.2Zm6.24-.64l.04-.14c1.58,.16,2.76,1.1,2.76,1.76,0,.4-.2,.6-.42,.6-.16,0-.28-.12-.56-.58-.26-.42-.9-1.22-1.82-1.64Zm1.1-.94v-.14c.28-.06,.58-.08,.84-.08,1.42,0,2.36,.72,2.36,1.32,0,.34-.22,.54-.4,.54-.16,0-.36-.18-.6-.44-.38-.44-1.22-1.02-2.2-1.2Z"/>
        <path class="cls-1" d="M899.78,15.22c-.24,0-.4,0-.82-.28-.5-.34-1-.96-1-1.24,0-.06,.02-.16,.12-.24,.52,.48,.92,.72,1.52,.72,.38,0,.98-.08,1.56-.16,.56-.08,1.48-.2,2.4-.28,.1-.7,.18-1.72,.18-2.72,0-.68-.12-1.3-.32-1.82-.48,.08-.9,.18-1.2,.28-.38,.12-.72,.2-.8,.2-.14,0-.26-.02-.42-.16-.2-.18-.38-.36-.58-.56-.14-.14-.32-.34-.32-.46s.04-.2,.1-.22c.4,.32,.9,.46,1.3,.46,.12,0,.26,0,.46-.04,.36-.06,1.82-.3,2.84-.46,1.22-.2,1.44-.32,1.74-.46,.22-.1,.36-.16,.46-.16,.04,0,.12,.04,.28,.14,.34,.2,.9,.6,.9,.86,0,.14-.14,.26-.62,.26-.4,0-.74-.02-1.14-.02-.62,0-1.52,.1-2.36,.22,.56,.38,1.14,.9,1.14,1.12,0,.08-.06,.16-.22,.32-.1,.1-.14,.18-.16,.38-.06,.5-.28,1.9-.44,2.76,1.56-.14,2.3-.18,3.34-.24,.32-.02,.68-.16,.92-.28,.18-.1,.32-.14,.4-.14,.16,0,.24,.06,.5,.24,.34,.22,.66,.44,1.02,.7,.16,.12,.2,.24,.2,.42,0,.14-.16,.28-.4,.28-.26,0-.8-.12-1.14-.2-.36-.08-.96-.14-1.3-.14-.98,0-3.26,.12-4.18,.22-.76,.08-1.82,.24-2.56,.38-.4,.08-.68,.14-.84,.2-.18,.06-.4,.12-.56,.12Z"/>
        <path class="cls-1" d="M914.94,17.26l-.1-.16c2.18-1.3,5.14-3.2,8.84-8.76,.88-1.34,1.38-2.36,1.38-2.5,0-.16-.06-.28-.18-.28-.16,0-.72,.22-1.3,.46-.46,.18-1.22,.46-1.44,.46-.48,0-.96-.26-1.36-.58-1.12,1.6-3.64,3.76-5.32,4.24l-.12-.16c2.36-1.54,4.38-3.92,5.04-5.5,.16-.38,.24-.6,.24-.86,0-.5-.44-.94-.8-1.3,.08-.02,.18-.04,.28-.04,.16,0,.34,.04,.48,.1,.76,.34,1.46,1.16,1.46,1.54,0,.1-.04,.16-.14,.26-.06,.06-.14,.18-.3,.44-.16,.26-.28,.44-.44,.68,.26,.12,.52,.2,.7,.2,.78,0,2.42-.7,2.68-.82,.3-.14,.46-.2,.66-.2,.3,0,1.58,1.24,1.58,1.66,0,.12-.14,.24-.46,.46-.16,.12-.36,.3-.52,.58-2.64,4.86-6.7,8.68-10.86,10.08Z"/>
        <path class="cls-1" d="M935.38,16.92c-.16,0-.32-.08-.4-.36-.06-.24-.06-.98-.06-2.16V4.48c0-1.16-.4-1.9-1.46-2.54,0-.04,.14-.12,.24-.12,.3,0,1.12,.22,1.48,.36,.74,.28,1.2,.64,1.2,1.2,0,.12,0,.24-.04,.4-.06,.24-.12,.54-.18,.94-.1,.7-.14,1.7-.14,2.84,2.62,.32,4.94,1.22,4.94,2.8,0,.32-.2,.56-.46,.56-.3,0-.44-.14-.76-.58-.68-.9-2.06-1.88-3.72-2.48,0,1.04,.04,2.58,.14,5.58,.02,.58,.04,1.2,.04,1.46,0,.6-.02,1.04-.22,1.44-.2,.38-.38,.58-.6,.58Z"/>
      </g>
      <polyline class="cls-2" points="0 30.18 468.96 30.18 526.28 94.23 699.23 94.23"/>
      <polyline class="cls-2" points="960 30.18 526.28 30.18 468.96 94.23 301.98 94.23"/>
    </g>
  </g>
</svg>