<svg xmlns="http://www.w3.org/2000/svg" width="374.12" height="109.32" viewBox="0 0 374.12 109.32">
  <g id="mv02-text" transform="translate(-50.04 -105.72)">
    <path id="パス_31" data-name="パス 31" d="M14.2-17.76a8.745,8.745,0,0,0-.12-1.44h-.24c-.44,1.2-.88,1.72-2.76,2.8-.6.36-1.28.76-1.28,1.64a1.443,1.443,0,0,0,1.48,1.44c1.12,0,2.52-1.04,2.88-3.48H32.68a22.146,22.146,0,0,1-.8,2.56l.32.2c.08-.04,2.08-1.04,2.4-1.16a7.025,7.025,0,0,0,1.8.28c.6,0,1.08-.16,1.08-.68a.937.937,0,0,0-.32-.72L35-18.52q-.42-.48-.72-.48c-.28,0-.44.16-.72.36l-1.28.88H30.12v-6.52c.96-.68,1.36-.92,1.36-1.32a.819.819,0,0,0-.36-.6L29.6-27.4c-.2-.16-.36-.32-.52-.32-.2,0-.36.16-.56.36l-1.04.96h-5.8a39.19,39.19,0,0,0,3.16-3.04H35.92c.24,0,.64-.04.64-.4,0-.32-.16-.44-.4-.64L34-32.12c-.36-.28-.52-.4-.72-.4s-.32.16-.68.48L30.88-30.4H18.84c-1.92,0-4.2-.12-6.12-.28l.76,1.6a35.4,35.4,0,0,1,4.72-.36h2.6c0,.48-.08,2.08-.2,3.04H18.96L16-27.72c.32,2.16.32,3.44.24,9.96ZM27.72-22.6v1.88H18.76V-22.6Zm-8.96,4.84v-2h8.96v2Zm8.96-7.68v1.88H18.76v-1.88Zm-7.2,17.8L20.88-8c.76-.2,1.12-.32,1.12-.64,0-.12-.12-.28-.44-.44l-1.32-.68c1.12,0,3.4,0,5.08-.12,1.8-.16,3.32-1.12,3.32-2.16,0-.28-.16-.36-.4-.52-.72-.44-1-1.64-1.12-2.76h-.24c-.76,3.48-1.8,3.64-4.48,3.64-2.44,0-3.44.08-3.72-.32a5.258,5.258,0,0,1-.2-2.08c.56-.4.8-.56.8-.88s-.2-.48-.68-.56L16-16.08c.12.44.24,2.76.32,4.12.12,1.72,1.04,2.08,2.6,2.2-.88,1.52-3.08,4.48-8.48,8.28l.2.36a26.775,26.775,0,0,0,8.56-5.2,17.646,17.646,0,0,0,2.44,3.28A32.984,32.984,0,0,1,9.16,2.16v.4c6.2-.48,10.04-1.52,14.12-4.08,3.24,2.6,7.52,3.76,10.6,4.36A7.082,7.082,0,0,1,37.2-.56l-.12-.32a27.149,27.149,0,0,1-3.04.16,20.319,20.319,0,0,1-9.12-1.92,29.1,29.1,0,0,0,3.4-2.96c1.4-.32,1.76-.4,1.76-.76,0-.28-.16-.48-.48-.72l-1.76-1.4c-.2-.16-.32-.28-.48-.28-.2,0-.36.2-.56.32l-1.12.8Zm5.32.96a23.139,23.139,0,0,1-3.04,2.8,11.291,11.291,0,0,1-2.92-2.8ZM8.2-24.28a44.462,44.462,0,0,0,2.64-5.44c1.04-.32,1.36-.48,1.36-.88,0-.32-.2-.48-.64-.72l-3.48-1.8a12.407,12.407,0,0,1-.4,2.72c-.36,1.24-3.64,10.56-7.64,16l.32.24c.84-.68,2.44-2.04,5.36-6.16C5.72-13.4,5.68-5.6,5.28.24c-.04.28-.16,1.64-.16,1.92,0,.6.24,1.08,1.36,1.08,1.64,0,1.96-.84,1.96-2.08,0-3.28-.12-19.56-.12-23.24.4-.28,1.12-.76,1.12-1.2,0-.24-.2-.44-.64-.68Zm11.76,8.2a5.507,5.507,0,0,1,1.72,1.76c.72,1.28.88,1.56,1.52,1.56a1.145,1.145,0,0,0,1.16-1.12c0-2.08-3.32-2.4-4.32-2.48ZM28.8-14.4a7.1,7.1,0,0,1,2.4,3.68c.52,1.44.72,2,1.72,2a1.574,1.574,0,0,0,1.52-1.64c0-2.36-3.44-3.56-5.48-4.28Zm-14.56.2a5.239,5.239,0,0,1-1.76,2.4c-1.28.96-1.64,1.2-1.64,1.92a1.324,1.324,0,0,0,1.28,1.32c1.04,0,2.56-1.04,2.56-3.68a12.458,12.458,0,0,0-.16-1.96ZM56.56-29c0-1.56-1.88-3.84-6.52-4.36l-.12.32a8.832,8.832,0,0,1,2.92,3.64c.72,1.4,1.08,2.08,2.16,2.08A1.546,1.546,0,0,0,56.56-29ZM78.36-.96l-.04-.28c-.8.04-1.24.08-1.8.08C70-1.16,64.04-4.24,61.24-8.84H76.92c.24,0,.6-.08.6-.44,0-.28-.2-.44-.44-.64l-2.24-1.8a1.382,1.382,0,0,0-.76-.44c-.24,0-.4.24-.64.52L71.96-9.8H60.28a15.156,15.156,0,0,0,.44-3.16c.44-.24.96-.52.96-.96,0-.4-.52-.6-.8-.68l-2.16-.56H77.48c.28,0,.64-.04.64-.44,0-.2-.16-.4-.44-.64L75.44-18.2a1.363,1.363,0,0,0-.76-.44c-.2,0-.4.2-.64.52l-1.52,2H60.64v-4.8h11c.28,0,.6-.04.6-.44a.86.86,0,0,0-.4-.6L70-23.36c-.36-.28-.56-.44-.76-.44-.28,0-.4.24-.64.56l-.96,1.36h-7v-3.88H75.36c.24,0,.6-.04.6-.44a.969.969,0,0,0-.4-.64l-1.92-1.8c-.28-.24-.48-.44-.76-.44-.24,0-.4.24-.64.52l-1.56,1.84H62.52c3.56-2.8,3.96-3.12,4.64-3.72,1.28-.32,1.48-.52,1.48-.92a.65.65,0,0,0-.44-.6l-3.88-2.32a18.215,18.215,0,0,1-2.52,7.56H49.84c-1.16,0-3.64-.08-6.16-.28l.8,1.6a28.484,28.484,0,0,1,4.72-.36h8.6v3.88H52.12c-.6,0-3.44-.04-6.16-.28l.8,1.6a28.484,28.484,0,0,1,4.72-.36H57.8v4.8H48.48c-.72,0-3.48-.04-6.16-.28l.8,1.6a28.387,28.387,0,0,1,4.72-.36h9.72a7.494,7.494,0,0,1,.12,1.44,19.43,19.43,0,0,1-.52,3.92H48.24c-.56,0-3.4-.04-6.12-.28l.76,1.6a24.685,24.685,0,0,1,4.72-.36h9.32c-1.6,5.72-7.88,9.76-14,10.96v.32c3.92-.28,14-1.36,17.08-11.28h.52a16.493,16.493,0,0,0,5.32,7.36,19.351,19.351,0,0,0,9.12,3.92A6.573,6.573,0,0,1,78.36-.96ZM104.8-25.84c0-.76-1.76-1.32-2.28-1.32-.48,0-.68.12-2.44.92-.84.4-2.2.88-3,1.16a19.149,19.149,0,0,1,1.48-2.52c1-1.44,1-1.44,1-1.84,0-1.04-2.44-2.72-4-2.72a2.786,2.786,0,0,0-1.96.8c2.12.56,2.36,1.52,2.36,1.96a21.517,21.517,0,0,1-1.68,5.08,22.24,22.24,0,0,1-4.68.64c-1.6,0-2.92-.24-3.88-1.6-.32,2.4,1.68,3.64,4.04,3.64a15.056,15.056,0,0,0,3.6-.52,68.774,68.774,0,0,1-6.64,11.68,3.911,3.911,0,0,0-.96,2.4c0,1.36.84,1.52,1.12,1.52.8,0,1.64-1.48,2.56-3.04,1.04-1.8,5.4-11.08,6.44-13.16a72.955,72.955,0,0,0,8.28-2.28A.95.95,0,0,0,104.8-25.84Zm10.4,9.6c0-1.88-3.2-5.6-8.16-5.6a7.564,7.564,0,0,0-2.56.4c4.04,1.04,5.48,2.52,5.48,3.04,0,.48-.36.56-.68.64-2.76.52-7,2.24-7,6.64,0,.92.16,2.8.28,4.2-.6-.04-1.2-.12-2.08-.12-3.88,0-7.52,1.44-7.52,4.44,0,2.48,2.88,4.28,6.2,4.28A7.313,7.313,0,0,0,104,0a5.154,5.154,0,0,0,1.52-3.8,11.059,11.059,0,0,1,3.12,1.68,11.925,11.925,0,0,0,3.08,1.84,1.242,1.242,0,0,0,1.12-1.32c0-2.6-4.4-4.28-7.6-4.96a30.727,30.727,0,0,1-.68-5.8c0-1.88.6-4.16,4.8-4.16a5.743,5.743,0,0,1,3.4,1,2.81,2.81,0,0,0,1.4.44A1.023,1.023,0,0,0,115.2-16.24ZM102.72-4.72c.12,3.84-2.92,4.2-4.32,4.2-1.36,0-3.92-.44-3.92-2.12,0-2.16,3.72-2.48,5.24-2.48A9.542,9.542,0,0,1,102.72-4.72Zm50.24-23.52c0-.32-.28-.48-.68-.72l-3.6-2.16c-.72,3.4-3.88,8.52-5.28,10.52l.24.2a42.079,42.079,0,0,0,7.76-7C152.64-27.52,152.96-27.84,152.96-28.24ZM134.4-23.48c0-2.32-3.44-5.04-7.12-6.56l-.2.2a13.664,13.664,0,0,1,3.28,5.32c.84,2.2,1.12,3,2.4,3A1.759,1.759,0,0,0,134.4-23.48ZM158.8-1c0-.52-.2-.68-.68-1.08-.76-.64-.8-1.32-1.48-7.64h-.24c-.36,1.84-1.12,5.12-1.68,6.8C154-.84,152.76-.84,149.88-.84a30.676,30.676,0,0,1-4.36-.2c-.8-.32-.8-.64-.8-3.44,0-1.28.12-11.04.16-13.32h13c.28,0,.6-.04.6-.4,0-.24-.08-.36-.4-.64l-2.4-2.24c-.24-.24-.48-.44-.68-.44-.24,0-.4.2-.68.52l-1.84,2.24H141.56V-30.72c.6-.36,1.4-.92,1.4-1.32,0-.36-.28-.44-.76-.56l-4.44-.96a9.646,9.646,0,0,1,.76,3.68c.16,2.56.16,3.6.16,11.12H128.24c-.56,0-3.4-.04-6.16-.28l.8,1.6a28.484,28.484,0,0,1,4.72-.36h6.12a11.489,11.489,0,0,1,.16,2.6c0,8.68-2.56,13.92-11.84,17.68l.12.36c12.48-2.2,14.08-9.6,14.96-17.48.88-.52,1.2-.72,1.2-1.08,0-.32-.4-.48-.6-.6l-3-1.48H142c0,2-.08,11.64-.08,13.84,0,5.72,0,5.84,8.04,5.84C153.84,1.88,158.8,1.88,158.8-1Zm40.36-26.28c0-3.04-5.04-3.2-5.76-3.2a11.8,11.8,0,0,0-2.48.28,14.035,14.035,0,0,1,4.72,2.16c.4.28,2.16,1.88,2.68,1.88C198.96-26.16,199.16-26.76,199.16-27.28Zm-3.68,3.04c0-2.32-4.28-3.28-6.4-3.28a8.252,8.252,0,0,0-1.6.16,14.033,14.033,0,0,1,5,3c.96.8,1.56,1.32,1.92,1.32A1.125,1.125,0,0,0,195.48-24.24Zm1.96,11.28c0-5.4-7.04-10.04-11.12-10.2,5.64,3.48,7.48,7.44,7.48,7.84,0,1.36-4.4,1.72-5,1.76v.32a16.422,16.422,0,0,1,5.44,1.4,13.7,13.7,0,0,0,2.2,1C197.44-10.84,197.44-12.64,197.44-12.96Zm-13.4-2.52c0-3.16-.2-6.92-4.88-6.92a9.407,9.407,0,0,0-2.16.24c.76-1.72,1.44-3.16,2.32-4.76a3.554,3.554,0,0,0,.6-1.64c0-1-2.44-2.84-4.56-2.84a3.361,3.361,0,0,0-2,.64c.56.2,2.92,1.24,2.92,2.84,0,1.44-1.2,4.68-1.8,6.28-1.32.32-7.24,1.96-8.2,1.96-1.12,0-2-.72-2.72-2.08a3.281,3.281,0,0,0-.48,1.6,4.058,4.058,0,0,0,3.32,3.68,3.086,3.086,0,0,0,1.68-.72,33.647,33.647,0,0,1,5.64-2.56c-3.68,8.88-5.84,11.96-8.44,15.68a3.506,3.506,0,0,0-.88,2.2c0,.92.48,1.88,1.28,1.88.88,0,1.76-1.56,2.28-2.56a194.89,194.89,0,0,0,8.36-17.96,11.369,11.369,0,0,1,2.64-.4c2.68,0,2.68,2.8,2.68,4.36a26.41,26.41,0,0,1-2.8,11.96,1.815,1.815,0,0,1-1.56,1.16c-.72,0-1.48-.28-4.96-2.68l-.12.16c2.6,3.76,2.68,4.08,2.96,5.76.12.68.28,1.32,1.2,1.32,1.16,0,2.8-1.28,3.88-2.56C182.44-4,184.04-10.76,184.04-15.48Zm42.36,2.44c0-.24-.24-.52-.6-.76l-1.24-.84c-.32-.2-.44-.28-.6-.28a1.164,1.164,0,0,0-.8.48l-.84.96h-3.88L215.48-15a16.54,16.54,0,0,1,.2,3.24c0,4.96-.08,6.6-.12,7.96-.04.6-.24,3.44-.24,3.88a1.028,1.028,0,0,0,1.12,1.16A1.5,1.5,0,0,0,218-.28V-1.56h4.76c-.04.44-.04,1.08.8,1.08a1.632,1.632,0,0,0,1.8-1.64c0-1.48-.2-8.04-.08-9.4C226.12-12.36,226.4-12.64,226.4-13.04Zm-3.6,5H218v-4.48h4.8Zm0,5.52H218V-7.08h4.8Zm3.68-23.92c0-.2-.08-.36-.4-.6l-1.24-1c-.36-.28-.56-.4-.76-.4s-.4.16-.64.48l-.84,1h-1.36v-3.68c1.12-.8,1.2-.88,1.2-1.16,0-.44-.52-.6-.84-.68l-3.6-.96c.72,1.88.72,2.68.72,6.44-1.12-.04-2.56-.08-4.44-.24l.8,1.6A26.907,26.907,0,0,1,219.8-26h6.08C226.12-26,226.48-26.08,226.48-26.44Zm9.44,2.08c0-2.24-2.12-3-5.6-4.28l-.16.28c1.2,1.08,1.56,1.84,2.52,3.84.6,1.28.92,1.8,1.8,1.8A1.468,1.468,0,0,0,235.92-24.36Zm2.8,25.8a2.609,2.609,0,0,0-.24-1,9.476,9.476,0,0,1-.52-1.28c-.12-.76,0-4.64,0-5.52l-.32-.12c-.24.76-1.64,4.16-2.24,4.16-.2,0-1.8-.92-3.24-4.08a37.767,37.767,0,0,0,3.04-6.04c.4-.2.44-.2,1-.44a.6.6,0,0,0,.44-.52c0-.32-.24-.52-.64-.72l-3.2-1.76a16.525,16.525,0,0,1-1.68,6.6,42.585,42.585,0,0,1-1.52-8.2h7.52c.28,0,.6-.08.6-.44,0-.28-.2-.44-.4-.6L235.56-20a1.387,1.387,0,0,0-.76-.44c-.2,0-.36.12-.64.48l-1.32,1.52h-3.32a48.894,48.894,0,0,1-.2-4.92,62.442,62.442,0,0,1,.36-7.16c.88-.44,1.28-.68,1.28-1.16,0-.44-.32-.52-.76-.64l-3.8-.92a19.171,19.171,0,0,1,.44,3.32c.08,1.64.16,9.68.32,11.48h-5.88c.24-.28,2.08-3.04,2.88-4.44,1.04-.4,1.32-.48,1.32-1,0-.2-.12-.44-.64-.64l-3.12-1.24a7.164,7.164,0,0,1,.08.96,23.239,23.239,0,0,1-1.4,6.36c-2.56-.04-4.16-.12-6.16-.28l.76,1.6a24.685,24.685,0,0,1,4.72-.36h7.52a39.079,39.079,0,0,0,2.28,11.12,30.468,30.468,0,0,1-7.88,8.76l.2.28a20.462,20.462,0,0,0,8.68-6.72c1.6,3.48,4.56,6.76,6.92,6.76A1.265,1.265,0,0,0,238.72,1.44ZM219.28-20.8c0-1.72-1.92-3.24-4-4.16l-.16.12a8.614,8.614,0,0,1,1.16,3.44c.24,1.48.36,2.28,1.56,2.28A1.5,1.5,0,0,0,219.28-20.8ZM211.8-30.92c0-.36-.32-.52-.68-.68l-3.52-1.72a21.36,21.36,0,0,1-1.96,7.6,9.138,9.138,0,0,0-3.08-1.08l-.16.2a9.959,9.959,0,0,1,2.48,3.52c.72,1.52.92,1.96,1.8,1.96a1.472,1.472,0,0,0,1.48-1.48c0-.68-.44-1.68-1.92-2.76,2.32-2.56,3.16-3.6,4-4.68C211.4-30.32,211.8-30.4,211.8-30.92Zm2.88,24.6c0-1.64-1.24-3.52-4-5.24l-.24.2a10.086,10.086,0,0,1,1.32,4.52c.08.8.28,2.28,1.52,2.28C213.88-4.56,214.68-5,214.68-6.32Zm.24-8.72c0-.48-.24-2.64-4.04-4.52l-.24.2a7.69,7.69,0,0,1,1.16,2.56c-1.48.08-2.76.12-4.84.12a78.06,78.06,0,0,0,6.08-7.36c1.28-.4,1.44-.44,1.44-.88,0-.36-.2-.48-.72-.8l-2.6-1.6c-.44,2.96-4,8.8-5.24,10.68a18.832,18.832,0,0,1-4.56-.24l1.16,3.2c.2.6.28.76.64.76.44,0,.52-.16.88-1.08a22.2,22.2,0,0,1,3.24-.92c-.12,11.4-.16,13.24-.28,15.32,0,.28-.16,1.48-.16,1.76a.949.949,0,0,0,1.08,1.08,1.735,1.735,0,0,0,1.92-2c0-.36-.12-2.04-.12-2.44,0-2.04.08-12.08.12-14.36.52-.16,1.08-.32,2.12-.68.04.2.16,1.08.2,1.28.16.84.52,1.48,1.28,1.48A1.494,1.494,0,0,0,214.92-15.04Zm-8.08,4.4c0-.24-.28-.44-.76-.6l-3.36-1a9.842,9.842,0,0,1,.32,2.32A40.616,40.616,0,0,1,201.28.32l.32.08a30.741,30.741,0,0,0,4.2-10.04C206.72-10.32,206.84-10.4,206.84-10.64Zm61.64-5.76c0-4-.52-11.84-5.52-11.84-4.72,0-8.16,10.24-9.08,13.52-.04.2-.12.4-.36.4-.4,0-.4-2.28-.4-2.88a28.724,28.724,0,0,1,2.24-10.72,4.628,4.628,0,0,0,.48-1.76c0-1.4-1.68-2.88-3.52-2.88a7.7,7.7,0,0,0-1.8.28,4.171,4.171,0,0,1,2.32,3.64,9.763,9.763,0,0,1-.16,1.52,85.051,85.051,0,0,0-1.4,11.56c0,3.6.72,8.28,3.08,8.28.8,0,.96-.68.96-1.12,0-.4-.28-2.44-.28-2.88,0-4.8,2.64-10.92,4.24-13.24.36-.52,1.48-2.16,3.08-2.16,3,0,3.16,7.28,3.16,9.92,0,7.16-2.04,14.88-8.96,19.88l.08.2C258.48,2.92,261,1,262.32-.2,266.8-4.28,268.48-9.04,268.48-16.4Zm36.32-9.44c0-.76-1.76-1.32-2.28-1.32-.48,0-.68.12-2.44.92-.84.4-2.2.88-3,1.16a19.149,19.149,0,0,1,1.48-2.52c1-1.44,1-1.44,1-1.84,0-1.04-2.44-2.72-4-2.72a2.786,2.786,0,0,0-1.96.8c2.12.56,2.36,1.52,2.36,1.96a21.516,21.516,0,0,1-1.68,5.08,22.24,22.24,0,0,1-4.68.64c-1.6,0-2.92-.24-3.88-1.6-.32,2.4,1.68,3.64,4.04,3.64a15.055,15.055,0,0,0,3.6-.52,68.772,68.772,0,0,1-6.64,11.68,3.911,3.911,0,0,0-.96,2.4c0,1.36.84,1.52,1.12,1.52.8,0,1.64-1.48,2.56-3.04,1.04-1.8,5.4-11.08,6.44-13.16a72.956,72.956,0,0,0,8.28-2.28A.95.95,0,0,0,304.8-25.84Zm10.4,9.6c0-1.88-3.2-5.6-8.16-5.6a7.564,7.564,0,0,0-2.56.4c4.04,1.04,5.48,2.52,5.48,3.04,0,.48-.36.56-.68.64-2.76.52-7,2.24-7,6.64,0,.92.16,2.8.28,4.2-.6-.04-1.2-.12-2.08-.12-3.88,0-7.52,1.44-7.52,4.44,0,2.48,2.88,4.28,6.2,4.28A7.313,7.313,0,0,0,304,0a5.154,5.154,0,0,0,1.52-3.8,11.059,11.059,0,0,1,3.12,1.68,11.924,11.924,0,0,0,3.08,1.84,1.242,1.242,0,0,0,1.12-1.32c0-2.6-4.4-4.28-7.6-4.96a30.728,30.728,0,0,1-.68-5.8c0-1.88.6-4.16,4.8-4.16a5.743,5.743,0,0,1,3.4,1,2.81,2.81,0,0,0,1.4.44A1.023,1.023,0,0,0,315.2-16.24ZM302.72-4.72c.12,3.84-2.92,4.2-4.32,4.2-1.36,0-3.92-.44-3.92-2.12,0-2.16,3.72-2.48,5.24-2.48A9.542,9.542,0,0,1,302.72-4.72ZM357-23.4c0-1.12-1.92-2.04-3.28-2.04-.04,0-10.32.92-11.24,1A36.157,36.157,0,0,1,343-29c.08-.28.36-1.44.36-1.56,0-1.28-3-2.36-4.04-2.36A3.7,3.7,0,0,0,337-32c3.32,1.24,3.32,1.36,3.6,7.76-2.56.24-5.52.68-9.28,1.32-1.8.28-4.96.84-5.4.84A3.657,3.657,0,0,1,323-23.96a2.15,2.15,0,0,0-.32,1.12c0,1.64,1.92,4.12,3.28,4.12.36,0,.48-.08,1.64-.68,3.92-2.12,10.6-3,13.04-3.28,0,1.44.08,4.12.08,4.32a7.038,7.038,0,0,0-2.32-.48c-2.76,0-4.68,2.88-4.68,5.8,0,3.44,2.52,6.08,4.52,6.08a4.393,4.393,0,0,0,2.64-1.32c-.56,4.28-3.64,8.6-8.12,11.4l.16.28c7.36-2.6,11.24-8.24,11.24-14.28a11.85,11.85,0,0,0-1.72-6.32c-.04-.72-.08-1.44-.08-2.48s0-1.96.04-3.2c1.24-.08,3.12-.2,4.8-.2,1,0,2.28.04,3.76.16,1.32.12,3.44.6,4.76.6A1.15,1.15,0,0,0,357-23.4ZM340.76-13.08c0,2.32-1.08,3.76-2.4,3.76-1.48,0-3.24-1.84-3.24-4.12s1.56-3.64,2.68-3.64C340.6-17.08,340.76-14.04,340.76-13.08ZM371.56-.76c0-2.4-2.04-4.32-2.72-4.92a16.947,16.947,0,0,0-6.36-3.16l-.12.36A15.577,15.577,0,0,1,367.6-.8c.4,1.32.72,2.36,2,2.36A2.154,2.154,0,0,0,371.56-.76ZM36,44.92c0-.28-.2-.44-.4-.6l-2.64-2.2c-.32-.24-.52-.4-.76-.4s-.36.2-.6.48l-1.8,2.16H11.72C12.56,43,13,42.2,13.48,41.28c1-.32,1.56-.48,1.56-.92,0-.36-.36-.56-.56-.64l-4.04-1.64a8.854,8.854,0,0,1-.24,2.48c-.28,1.36-4.52,10.52-9.16,14.92l.28.24c4.88-2.92,8.32-8.04,9.8-10.4H35.4C35.68,45.32,36,45.28,36,44.92Zm-5.8,5.36c0-.24-.16-.36-.4-.6l-2.12-1.92a1.841,1.841,0,0,0-.72-.4c-.28,0-.4.2-.64.48l-1.6,1.92H16.84c-1.2,0-3.68-.08-6.16-.28l.8,1.6a26.517,26.517,0,0,1,4.68-.36H29.6C29.88,50.72,30.2,50.64,30.2,50.28Zm7.76,23.4a5.607,5.607,0,0,0-.52-1.32,3.281,3.281,0,0,1-.36-1.56c0-.96.4-4.52.6-6.08l-.28-.08a27.415,27.415,0,0,1-2.6,4.72c-.28.4-.48.52-.8.52-.92,0-1.88-1.52-1.96-1.64-1.84-2.96-2.52-5.96-2.4-12,.56-.24,1.64-.64,1.64-1.2,0-.24-.12-.32-.32-.48l-2-1.6c-.16-.12-.36-.32-.52-.32-.2,0-.32.16-.6.44L26.2,54.8H11.48c-.48,0-2.88,0-6.16-.28l.8,1.6a28.344,28.344,0,0,1,4.68-.36H26.92c.04,3.36.12,10.8,3.48,15.16C32.64,73.76,35.6,75,36.76,75A1.2,1.2,0,0,0,37.96,73.68ZM23.24,59.24a.671.671,0,0,0-.4-.64l-3.68-2.2c-.04,1.2-.12,2.48-3.08,6.44A24.6,24.6,0,0,0,8.6,60.08l-.04.24a28.428,28.428,0,0,1,6.12,4.28A44.483,44.483,0,0,1,1.44,74.8l.04.24A30.686,30.686,0,0,0,16.56,66.4a25.381,25.381,0,0,1,2.6,3.16c.68,1.16,1.16,1.96,2.16,1.96A1.446,1.446,0,0,0,22.72,70c0-2.44-3.48-5.04-4.28-5.64a37.747,37.747,0,0,0,3.08-4.32c.16-.04,1-.16,1.16-.2A.581.581,0,0,0,23.24,59.24Zm47.56-18a.869.869,0,0,0-.44-.64l-1.52-1.08c-.44-.32-.64-.44-.88-.44a1.1,1.1,0,0,0-.76.48l-.92,1.04H54.24l-3.6-1.84a27.829,27.829,0,0,1,.44,5.52c0,2.32-.12,5-.16,5.92-.04.76-.12,1.96-.12,2.72,0,.44,0,1.2,1.16,1.2,1.84,0,1.84-1.32,1.84-2.04H66.68c-.08,1.2.04,1.84,1,1.84a1.822,1.822,0,0,0,1.96-1.8c0-1.08-.24-6.36-.24-7.52,0-.92.04-1.52.08-2.08C70.28,42,70.8,41.6,70.8,41.24Zm-4.08,9.88H53.8V41.56H66.72Zm9.88,8.16a.869.869,0,0,0-.44-.64l-1.48-1.12a1.561,1.561,0,0,0-.84-.44c-.24,0-.4.16-.72.48l-1,1.08h-6.6l-3.68-1.96c.32,1.12.56,1.96.56,5.96,0,1.52-.32,8.96-.32,10.64,0,.44,0,1.2,1.24,1.2a1.836,1.836,0,0,0,1.6-.76,5.662,5.662,0,0,0,.2-2.36H72.6c-.04,2.12,0,2.88,1.2,2.88a1.62,1.62,0,0,0,1.84-1.8c0-.2-.2-6.04-.2-6.28l-.04-5.72C76.04,60.04,76.6,59.6,76.6,59.28Zm-4,11.12H65.12V59.6H72.6ZM58.2,59.36c0-.28-.16-.44-.44-.64L56.2,57.56a1.793,1.793,0,0,0-.8-.44c-.2,0-.4.2-.64.44l-.96,1.08H47.68l-3.52-2c.24,1.28.36,1.8.36,6.48,0,2.8-.04,5.28-.12,7.16,0,.36-.08,2.08-.08,2.48,0,.44,0,1.4,1.12,1.4,1.88,0,1.88-1.6,1.84-2.88h6.96c-.16,1.8.16,2.2,1.08,2.2,1.84,0,1.84-1.12,1.84-1.76,0-1.6-.16-9.44-.2-11.2C57.72,60,58.2,59.6,58.2,59.36ZM54.28,70.32h-7V59.6h7ZM116,56.6c0-8.04-7.04-12.56-14.8-12.56-9.76,0-17.04,7.08-17.04,15.68a7.427,7.427,0,0,0,1.12,4.08c.28.36,1.88,1.84,2.16,2.24,1.2,1.68,1.56,2.2,2.48,2.2a2.318,2.318,0,0,0,1.28-.44c2.72-2.24,6.48-10.28,9.04-15.76,1.24-2.6,1.36-2.88,1.36-3.32,0-.56-.6-2.04-2.76-3.2a3.156,3.156,0,0,1,1.64-.24c6.96,0,12.4,4,12.4,10.76,0,6.08-4,11.72-12.56,14.76l.04.32C109.52,70.32,116,64.36,116,56.6ZM98.44,48.32c0,2.08-1.32,4.68-5.32,12.72-.68,1.36-2.24,4.2-3.32,4.2-1.56,0-3.12-3-3.12-5.72,0-7.36,6.12-13.04,10.52-13.76A3.5,3.5,0,0,1,98.44,48.32Zm58.24,17.2c0-1.48-2.6-2.96-3.92-2.96-.2,0-1.36.24-1.68.28a12.92,12.92,0,0,1-2.36.08c-1.36,0-2,.04-8,.28.48-8.84.48-9.16.64-10.32.04-.32.52-1.8.52-2.12,0-.36-.12-.44-1.08-1.24,2.08-.16,5.16-.24,8.44-.24.32,0,1.28-.04,1.28-.88,0-1.28-2.68-1.92-3.08-1.92a11.974,11.974,0,0,0-1.52.6c-1.28.48-10.68,1.2-12.08,1.2a8.1,8.1,0,0,1-5-1.52c.08,1.76,2.2,3.8,3.36,3.8.12,0,1.04-.16,1.24-.2,1.16-.2,1.28-.2,3.76-.52.92.64,1.44,1.04,1.44,4.8,0,1.04-.04,2.36-.24,8.68-.8.08-4.84.4-5.76.48-.56.04-4.68.4-4.96.4a4.509,4.509,0,0,1-4.16-2.56,3.978,3.978,0,0,0-.24,1.28c0,1.88,2.32,4.36,3.48,4.36.16,0,1.68-.68,2-.76,2.84-.88,11.24-1.64,15.4-1.64a52.7,52.7,0,0,1,9,.84c.4.08,2.32.64,2.76.64C156.48,66.36,156.68,65.96,156.68,65.52Zm21.8-16.8c0-3.32-5.68-5.04-10.48-4.72a19.675,19.675,0,0,1,6.56,4.56c1.28,1.28,1.76,1.76,2.44,1.76A1.557,1.557,0,0,0,178.48,48.72Zm16.24-1.24-.2-.12a76.324,76.324,0,0,1-12.76,12.08c-1.72,1.32-7.92,5.92-9.24,5.92-.84,0-2-.84-2.92-2.64a4.972,4.972,0,0,0-.4,1.76c0,1.88,2.64,5.24,4.04,5.24a1.086,1.086,0,0,0,.68-.24c.2-.2,1.08-1.2,1.28-1.4.68-.68,4.44-3.4,5.28-4.04C189.28,57.28,193.76,50.4,194.72,47.48Zm35.96,12.16a3.655,3.655,0,0,0-1.2-2.68,22.093,22.093,0,0,0-10.32-4.32c.04-1.96.12-6.56.56-8.08a18.678,18.678,0,0,0,.56-2c0-1.28-3.92-2.12-4.52-2.12a5.585,5.585,0,0,0-2.64.96c2.08.72,2.96,1.12,3.2,2,.32,1.28.36,9.24.36,10.96a113.275,113.275,0,0,1-.52,12.88,17.825,17.825,0,0,0-.28,2.68c0,1.04.56,3.36,1.88,3.36,1.56,0,1.56-2.36,1.56-3.2,0-.92-.24-5.52-.24-6.56-.04-1.44.04-8.4.04-9.96,2.76,1.04,4.84,2.48,8.52,6.56.64.68,1.16,1.2,1.76,1.2C229.88,61.32,230.68,60.96,230.68,59.64Zm38.84-14.72c0-1.24-2.56-1.8-3.28-1.8-.36,0-.48.08-1.28.44-1.68.76-6.84,1.32-9.52,1.32a6.339,6.339,0,0,1-5.2-1.88c0,2.52,1.92,4.32,3.2,4.32a18.028,18.028,0,0,0,2.8-.32c.92-.16,7.4-.72,10.48-.88C269,46,269.52,45.72,269.52,44.92Zm3.16,7.84c0-.92-2.96-3.04-3.4-3.04-.32,0-1.44,1.28-1.8,1.44-.6.28-14.12,1.32-16.04,1.32a5.14,5.14,0,0,1-4.16-2.6,3.659,3.659,0,0,0-.28,1.36c0,2.4,2.92,4.76,3.92,4.76a8.065,8.065,0,0,0,1.44-.72c2.56-1.12,14.08-2.16,15.24-2.24-3.28,12.68-14.48,19-16.96,20.04l.08.28c2.2-.2,12.96-2.2,19.44-17.72.52-1.2.6-1.36,1.36-1.76C272.16,53.56,272.68,53.28,272.68,52.76Zm25.8-4.04c0-3.32-5.68-5.04-10.48-4.72a19.675,19.675,0,0,1,6.56,4.56c1.28,1.28,1.76,1.76,2.44,1.76A1.557,1.557,0,0,0,298.48,48.72Zm16.24-1.24-.2-.12a76.322,76.322,0,0,1-12.76,12.08c-1.72,1.32-7.92,5.92-9.24,5.92-.84,0-2-.84-2.92-2.64a4.972,4.972,0,0,0-.4,1.76c0,1.88,2.64,5.24,4.04,5.24a1.086,1.086,0,0,0,.68-.24c.2-.2,1.08-1.2,1.28-1.4.68-.68,4.44-3.4,5.28-4.04C309.28,57.28,313.76,50.4,314.72,47.48ZM353.2,68.44c0-3.76-6.64-8.52-11.44-10.64a53.156,53.156,0,0,0,5.32-8.8c.52-.96.56-1.04.84-1.16,1.28-.48,1.56-.56,1.56-1,0-.68-2.96-3.2-3.4-3.2a9.849,9.849,0,0,0-1.84,1.12c-1.64.96-10.32,1.8-11.44,1.8-.8,0-1.48-.04-3-2.44a3.678,3.678,0,0,0-.36,1.72c0,2.08,2.2,4.04,2.8,4.04a14.338,14.338,0,0,0,2.16-.96,76.345,76.345,0,0,1,10.32-2.28c-2.2,7.44-11.96,19.68-21.24,23.76l.04.32c3.76-.76,10.56-3.28,17.68-12.24,3.56,2.64,5.76,5.28,8.96,10.56.36.6.8,1.28,1.64,1.28C352.76,70.32,353.2,69.52,353.2,68.44Zm20.96-.52a5.782,5.782,0,1,0-5.8,5.92A5.822,5.822,0,0,0,374.16,67.92Zm-1.16.04a4.622,4.622,0,1,1-4.64-4.76A4.686,4.686,0,0,1,373,67.96Z" transform="translate(50 140)" fill="#fff"/>
  </g>
</svg>
