<svg id="name" xmlns="http://www.w3.org/2000/svg" width="460.395" height="23.637" viewBox="0 0 460.395 23.637">
  <path id="パス_1" data-name="パス 1" d="M134.239,168.621a1.116,1.116,0,0,1-.9-.591,4.709,4.709,0,0,0-2.721-2.08l.078-.228a2.931,2.931,0,0,1,.484-.028c1.767,0,3.669.591,3.669,2.151a.763.763,0,0,1-.613.769Zm-2.23,3.818c0,1.054.435,1.973,1.076,1.973a1.969,1.969,0,0,0,.691-.157c3.362-1.2,10.408-6.362,14.718-11.256l.207.128c-2,4.281-10.949,11.256-14.233,12.9a1.542,1.542,0,0,1-.741.207,3.038,3.038,0,0,1-1.824-.976,1.658,1.658,0,0,1-.641-1.361,2.718,2.718,0,0,1,.385-1.311.373.373,0,0,1,.356-.157Zm.613-10.921a3.73,3.73,0,0,1,.541-.028c1.973,0,4.025.541,4.025,2.1,0,.67-.285.9-.591.9a.96.96,0,0,1-.741-.385,5.189,5.189,0,0,0-3.305-2.358l.078-.228Z" transform="translate(-130.62 -156.617)" fill="#fff"/>
  <path id="パス_2" data-name="パス 2" d="M172.447,178.4l-.178-.178a11.992,11.992,0,0,0,5.336-6.746,13.03,13.03,0,0,0,.848-4.26,2.7,2.7,0,0,0-.385-1.076c-1.332.157-2.465.285-3.256.413a6.3,6.3,0,0,0-1.439.413,4.435,4.435,0,0,1-1.332.335,2.938,2.938,0,0,1-1.895-.947,4.945,4.945,0,0,1-1.026-1.254.312.312,0,0,1,.05-.178,5.774,5.774,0,0,0,2.821.848c.128,0,.463-.028.8-.05,3.847-.435,7.487-.848,11.54-1.282a2.9,2.9,0,0,0,.719-.228,1.238,1.238,0,0,1,.563-.178c.463,0,2.486,1.154,2.486,1.7,0,.256-.157.356-.463.356-.207,0-1.539-.306-1.845-.385a4.563,4.563,0,0,0-.848-.05c-1.183,0-3.719.207-6.027.435.769.719,1.311,1.311,1.311,1.638a3.048,3.048,0,0,1-.228.926c-.228.67-.563,1.7-.819,2.643a10.225,10.225,0,0,1-6.718,7.131Zm3.049-16.335a2.649,2.649,0,0,1-1.46-.9,3.231,3.231,0,0,1-.819-1.126.252.252,0,0,1,.05-.157,6.036,6.036,0,0,0,2.465.8,37.336,37.336,0,0,0,5.079-.8,4.1,4.1,0,0,1,.869-.256c.613,0,1.51.641,1.51,1a.67.67,0,0,1-.641.513c-.356.05-.67.078-1.411.128-.67.05-4.566.541-5,.67a2.923,2.923,0,0,1-.641.128Z" transform="translate(-141.693 -156.082)" fill="#fff"/>
  <path id="パス_3" data-name="パス 3" d="M214.679,178.591c-.306,0-.513-.484-.641-.819a3.315,3.315,0,0,1-.356-1.154,2.818,2.818,0,0,1,.078-.641,11.848,11.848,0,0,0,.128-2.465c0-1.183-.028-2.664-.05-3.028a5.191,5.191,0,0,0-.178-.848,18.767,18.767,0,0,1-7.152,3.868l-.128-.207a26.737,26.737,0,0,0,6.49-4.41A12.075,12.075,0,0,0,216,164.557a.954.954,0,0,0,.1-.435,1.1,1.1,0,0,0-.741-.976.5.5,0,0,1,.513-.256,3.154,3.154,0,0,1,1.183.484c.463.285.869.641.869,1a3.171,3.171,0,0,1-.335.67,26.411,26.411,0,0,1-3.256,3.975,7.27,7.27,0,0,1,.819.869.8.8,0,0,1,.157.413,1.607,1.607,0,0,1-.078.435,11.662,11.662,0,0,0-.078,2.052c0,1.382.028,2.308.05,3,.028.848.028,1.282.028,1.638,0,.613-.128,1.154-.541,1.154Z" transform="translate(-152.41 -157.02)" fill="#fff"/>
  <path id="パス_4" data-name="パス 4" d="M244.227,178.4l-.178-.178a11.992,11.992,0,0,0,5.336-6.746,13.03,13.03,0,0,0,.848-4.26,2.7,2.7,0,0,0-.385-1.076c-1.332.157-2.465.285-3.256.413a6.3,6.3,0,0,0-1.439.413,4.435,4.435,0,0,1-1.332.335,2.938,2.938,0,0,1-1.895-.947A4.944,4.944,0,0,1,240.9,165.1a.312.312,0,0,1,.05-.178,5.774,5.774,0,0,0,2.821.848c.128,0,.463-.028.8-.05,3.847-.435,7.487-.848,11.54-1.282a2.9,2.9,0,0,0,.72-.228,1.237,1.237,0,0,1,.563-.178c.463,0,2.486,1.154,2.486,1.7,0,.256-.157.356-.463.356-.207,0-1.539-.306-1.845-.385a4.563,4.563,0,0,0-.848-.05c-1.183,0-3.719.207-6.027.435.769.719,1.311,1.311,1.311,1.638a3.049,3.049,0,0,1-.228.926c-.228.67-.563,1.7-.819,2.643a10.225,10.225,0,0,1-6.718,7.131Zm3.049-16.335a2.649,2.649,0,0,1-1.46-.9,3.231,3.231,0,0,1-.819-1.126.252.252,0,0,1,.05-.157,6.036,6.036,0,0,0,2.465.8,37.336,37.336,0,0,0,5.079-.8,4.1,4.1,0,0,1,.869-.256c.613,0,1.51.641,1.51,1a.67.67,0,0,1-.641.513c-.356.05-.67.078-1.411.128-.67.05-4.566.541-5,.67a2.923,2.923,0,0,1-.641.128Z" transform="translate(-162.339 -156.082)" fill="#fff"/>
  <path id="パス_5" data-name="パス 5" d="M284.363,177.729l-.128-.228c2.978-1.667,6.768-4.36,8.641-7.615a17.478,17.478,0,0,0,2.18-4.794.258.258,0,0,0-.256-.256,4.756,4.756,0,0,0-.741.1c-1.382.228-7,1.2-8.178,1.539a4.492,4.492,0,0,1-1.183.256,2.476,2.476,0,0,1-1.439-.848,3.469,3.469,0,0,1-.819-1.439.527.527,0,0,1,.128-.285,4.207,4.207,0,0,0,2.486.819c.228,0,.719-.05,1.183-.1,2.151-.256,6.283-.769,7.744-1.026a3.978,3.978,0,0,0,1.076-.335,1.4,1.4,0,0,1,.563-.207c.413,0,1.923,1.439,1.923,1.952,0,.157-.207.285-.435.413-.256.128-.356.335-.591.848-1.361,2.978-3.64,8.356-12.153,11.206Zm4-16.356c-.67.1-1.126.157-1.282.157a2.194,2.194,0,0,1-1.567-.719,3.107,3.107,0,0,1-.719-.976.354.354,0,0,1,.078-.228,4.921,4.921,0,0,0,2.436.67,23.875,23.875,0,0,0,4.488-.819,10.188,10.188,0,0,1,1.46-.356,1.855,1.855,0,0,1,1.539,1.282c0,.256-.256.285-.463.285-.513,0-1.126.029-1.589.078-.563.078-3.077.435-4.388.641Z" transform="translate(-174.287 -155.93)" fill="#fff"/>
  <path id="パス_6" data-name="パス 6" d="M328.5,169.534a22.043,22.043,0,0,1-10.792,7.152l-.128-.228c5.72-2.614,11.127-8.413,13.9-13.357a.581.581,0,0,0,.078-.256c0-.178-.05-.256-.178-.256a1.2,1.2,0,0,0-.306.029c-1.232.256-4.281,1.1-5.742,1.589a3.805,3.805,0,0,1-1.183.256,3.555,3.555,0,0,1-1.952-1.154,3.827,3.827,0,0,1-1-1.254.425.425,0,0,1,.128-.306,6.289,6.289,0,0,0,2.793,1.154,59.6,59.6,0,0,0,6.283-1.361,3.866,3.866,0,0,0,.947-.335,1.642,1.642,0,0,1,.719-.306c.513,0,2,1.767,2,2.1,0,.306-.385.563-.8.769a2.651,2.651,0,0,0-.926.741,48.847,48.847,0,0,1-3.562,4.716c2.337.926,5.514,2.643,6.8,4.2a3.817,3.817,0,0,1,.8,2.1c0,.613-.256.9-.641.9a.611.611,0,0,1-.513-.285,20.566,20.566,0,0,0-6.718-6.618Z" transform="translate(-184.394 -156.448)" fill="#fff"/>
  <path id="パス_7" data-name="パス 7" d="M361.939,178.482c-.385,0-.613-.413-.613-.869,0-.306.05-3.028.128-4.1.078-1.232.128-4.26.128-5.82V165.1a18.989,18.989,0,0,1-4.566,7.9l-.207-.157a30.546,30.546,0,0,0,4.388-11.127h-.741a3.315,3.315,0,0,0-1.745.385,2.179,2.179,0,0,1-1.332-1.254,11.461,11.461,0,0,0,2.436.178h1.767c-.029-1.311-.05-2.465-.1-3.412a7.463,7.463,0,0,0-.356-2.23c1.026.285,1.361.385,2.13.641.228.078.335.178.335.306,0,.256-.256.413-.72.641-.05,1.183-.078,2.614-.1,4.053h1.154l.591-.563c.078-.078.157-.157.228-.157a.517.517,0,0,1,.285.157c.335.285.591.513.9.819.128.128.178.178.178.285,0,.078-.1.157-.228.157h-3.106v1.7c1.382.563,2.821,1.46,2.821,2.436,0,.541-.335.819-.591.819-.413,0-.641-.385-.819-.869a4.553,4.553,0,0,0-1.411-1.874v3.69c0,1.2.029,5.051.05,5.82.029.741.078,3.305.078,3.747,0,.513-.435,1.311-.947,1.311Zm16.178-.435c-.413,0-.8-.385-1.332-.9a25.853,25.853,0,0,0-4-3,12.826,12.826,0,0,1-8.641,3.669l-.05-.306a12.709,12.709,0,0,0,7.565-4.025,29.533,29.533,0,0,0-3.106-1.46,5.042,5.042,0,0,1-.285.563,1.6,1.6,0,0,1-1.232.67.456.456,0,0,1-.484-.484.754.754,0,0,1,.1-.356c.513-.848,1.254-2.08,1.845-3.256a12.938,12.938,0,0,0,.613-1.332h-2.13a3.352,3.352,0,0,0-1.745.356,2.119,2.119,0,0,1-1.332-1.232,11.461,11.461,0,0,0,2.436.178h3.077a19.807,19.807,0,0,0,.819-2.13,4.137,4.137,0,0,0,.128-.947,3.723,3.723,0,0,0-.029-.563c.741.306,1.2.513,1.845.819.207.1.285.178.285.306,0,.207-.435.435-.769.513-.228.563-.541,1.254-.869,2h6.618l.741-.8c.1-.1.157-.157.256-.157.078,0,.157.028.335.157.484.335,1,.691,1.539,1.1.1.078.128.128.128.207a.206.206,0,0,1-.228.178H374.8c.513.306,1.1.67,1.46.926.178.128.285.207.285.306,0,.207-.463.356-.848.435a15.2,15.2,0,0,1-2.208,3.875c2.9,1.232,5.207,2.721,5.207,4a.651.651,0,0,1-.591.691ZM366.3,157.482l.207-.157c1.567,1.026,2.871,2.358,2.871,3.512,0,.741-.256,1.382-.8,1.382s-.741-.8-.8-1.126a7.876,7.876,0,0,0-1.489-3.619Zm8.157,10.337H370.53c-.641,1.361-1.311,2.793-1.8,3.847,1.154.335,2.337.741,3.462,1.183a11.611,11.611,0,0,0,1.767-3.106,7.548,7.548,0,0,0,.484-1.923Zm-4.075-11.305.207-.178c1.361.9,2.949,2.593,2.949,3.847,0,.613-.385,1.254-.819,1.254-.385,0-.591-.335-.8-1.361a11.851,11.851,0,0,0-1.539-3.562Zm6.846.335c.741.435,1.717,1.026,2.08,1.254.228.157.306.228.306.335,0,.335-.741.484-1.1.484a19.88,19.88,0,0,1-4.182,4.773l-.228-.128a21.184,21.184,0,0,0,2.849-5.029,4.624,4.624,0,0,0,.285-1.7Z" transform="translate(-195.677 -154.86)" fill="#fff"/>
  <path id="パス_8" data-name="パス 8" d="M401.922,177.094a2.179,2.179,0,0,1-1.332-1.254,11.463,11.463,0,0,0,2.436.178h7.644V161.45c0-.691-.029-2.743-.078-3.64a6.426,6.426,0,0,0-.463-2.18c.848.285,1.589.591,2.151.819.385.157.541.285.541.435,0,.285-.356.541-.67.719-.078.926-.078,2.821-.078,3.768v3.434h5.564l.869-1c.128-.157.207-.207.285-.207.1,0,.178.05.356.207a16.448,16.448,0,0,1,1.382,1.232c.157.157.178.178.178.256a.227.227,0,0,1-.228.207h-8.413v10.515h8.306l.926-1c.128-.128.178-.157.256-.157.1,0,.178.05.385.178.541.335,1.254.819,1.874,1.282.1.078.128.128.128.207a.222.222,0,0,1-.228.178H403.66a3.315,3.315,0,0,0-1.745.385Z" transform="translate(-208.27 -154.932)" fill="#fff"/>
  <path id="パス_9" data-name="パス 9" d="M443.117,174.743l-.157-.228a17.07,17.07,0,0,0,7.744-11.284H447.4a3.315,3.315,0,0,0-1.745.385,2.179,2.179,0,0,1-1.332-1.254,11.461,11.461,0,0,0,2.436.178h3.59l.591-.719c.128-.157.207-.178.285-.178a.83.83,0,0,1,.356.157c.306.178.869.563,1.2.8.178.128.228.228.228.285,0,.157-.356.513-.769.848-1.46,4.823-3.747,8.435-9.126,11.028Zm10.614,3.412a6.667,6.667,0,0,0-2-1.7,5.861,5.861,0,0,1-1.667-1.489l.1-.256a12.632,12.632,0,0,0,3.64,1.183c.67,0,.72-.641.72-1.767v-12.2c0-2.515,0-4.025-.029-4.538a8.276,8.276,0,0,0-.435-2.18c.9.306,1.767.613,2.18.8a.406.406,0,0,1,.285.335c0,.228-.435.591-.691.769-.05.641-.05,2.08-.05,4.2.691,1.332,1.382,2.593,2.08,3.719a24.144,24.144,0,0,0,4.538-4.281,3.812,3.812,0,0,0,.719-1.617c.591.563,1.1,1.126,1.617,1.7.285.306.335.413.335.541,0,.207-.306.285-.641.285a2.017,2.017,0,0,1-.413-.028,32.131,32.131,0,0,1-5.92,3.768c2.793,4.488,5.692,7.359,9.8,8.228a2.17,2.17,0,0,1-1.8.8,2.2,2.2,0,0,0-1.282.356.952.952,0,0,1-.513.207c-.541,0-2.18-1.638-3.156-2.921a38.048,38.048,0,0,1-5.357-9.952c0,2.308,0,4.823.05,6.639.05,1.667.157,5.1.157,5.977,0,2.13-.285,2.664-2.258,3.434Z" transform="translate(-220.456 -154.811)" fill="#fff"/>
  <path id="パス_10" data-name="パス 10" d="M492.352,180.7a3,3,0,0,1,1.282,2.308c0,.819-.413,1.361-.869,1.361-.435,0-.819-.413-1.232-1.539a8.558,8.558,0,0,0-3.362-4.025l.05-.207a10.126,10.126,0,0,1,4.132,2.1Z" transform="translate(-233.46 -161.539)" fill="#fff"/>
  <path id="パス_11" data-name="パス 11" d="M523.843,156.6c-2.821,5.15-6.718,9.154-11.9,11.049l-.157-.256a25.238,25.238,0,0,0,9.824-10.18,5.777,5.777,0,0,0,.9-2.565c.819.285,1.638.591,2.337.9.178.078.207.178.207.228,0,.285-.691.513-.976.541a1.547,1.547,0,0,1,.385.356c.435.563,1.1,1.311,1.7,1.952,2.358,2.593,5,5.407,10.23,6.639-.285.641-1.126.769-1.845.769a.781.781,0,0,0-.67.256c-.157.178-.256.285-.463.285a2.45,2.45,0,0,1-1.026-.513,29.352,29.352,0,0,1-7.259-7.694c-.335-.513-.67-1.026-1-1.489a1.51,1.51,0,0,0-.285-.285Zm-8.9,20.516a2.1,2.1,0,0,1-1.332-1.254,11.461,11.461,0,0,0,2.436.178h7.2V171.2h-3.077a3.315,3.315,0,0,0-1.745.385,2.1,2.1,0,0,1-1.332-1.254,11.461,11.461,0,0,0,2.436.178h3.719v-.819c0-.641,0-1.154-.05-1.952a10.144,10.144,0,0,0-.285-1.7h-2.151a3.315,3.315,0,0,0-1.745.385,2.179,2.179,0,0,1-1.332-1.254,11.461,11.461,0,0,0,2.436.178h7l.741-.719a.433.433,0,0,1,.228-.128.481.481,0,0,1,.306.157,15.69,15.69,0,0,1,1.2,1.054c.078.078.128.128.128.178,0,.1-.1.157-.228.157h-5.8c.463.128.9.256,1.2.356.335.1.413.178.413.335,0,.228-.335.484-.641.641-.05.848-.05,1.382-.05,2.23v.9h3.206l.848-.819c.05-.05.157-.157.256-.157s.178.05.335.178c.435.356.848.719,1.254,1.126.05.05.128.128.128.207s-.1.157-.207.157h-5.82v4.844h6.618l.976-.947a.347.347,0,0,1,.228-.128c.128,0,.228.078.413.207.541.385,1.076.769,1.617,1.183.1.078.157.128.157.207a.185.185,0,0,1-.207.178H516.691a3.315,3.315,0,0,0-1.745.385Z" transform="translate(-240.253 -154.65)" fill="#fff"/>
  <path id="パス_12" data-name="パス 12" d="M565.914,177.389c-1.332-.1-2.643-.128-3.669-.128s-2.308.029-3.64.128V177c1.874-.306,2.9-.641,2.9-2.151V161.567c0-.641-.1-1-.641-1a10.165,10.165,0,0,0-2.593.591v-.513a16.51,16.51,0,0,0,3.234-1.667c.641-.513.8-.641,1.054-.641a.517.517,0,0,1,.591.591c0,.385-.029.9-.05,1.382-.029.563-.05,1.1-.05,1.745v12.794c0,1.51.869,1.845,2.871,2.151v.385Z" transform="translate(-253.622 -155.711)" fill="#fff"/>
  <path id="パス_13" data-name="パス 13" d="M594.126,177.386a26.137,26.137,0,0,0-2.949-.128,22.707,22.707,0,0,0-2.771.128V177c1.254-.256,2.151-.591,2.151-1.824V172h-7.872c-.256,0-.335-.1-.335-.335a.994.994,0,0,1,.228-.641l8.641-12.438a.54.54,0,0,1,.513-.256c.256,0,.463.128.463.335,0,.463-.029,1.1-.05,1.745-.029.613-.05,1.361-.05,2.023v8.413c.926,0,1.8,0,2.337-.029.356-.028.484-.028.563-.028.178,0,.207.078.207.128a1.707,1.707,0,0,1-.1.285l-.306.641a.37.37,0,0,1-.385.228,3.456,3.456,0,0,1-.413-.028c-.413-.028-1.154-.05-1.895-.05v3.177c0,1.232.613,1.567,2.023,1.824v.385Zm-3.562-16.256-6.746,9.717h6.746Z" transform="translate(-260.548 -155.708)" fill="#fff"/>
  <path id="パス_14" data-name="パス 14" d="M617.4,166.9c2.9.691,4.488,2.13,4.488,4.823,0,3.412-2.85,5.92-6.846,5.92a10.335,10.335,0,0,1-3.434-.563c-.435-.128-.513-.435-.613-.947a8.332,8.332,0,0,1-.228-1.923c0-.335.128-.484.435-.484a.462.462,0,0,1,.484.335c.869,1.8,1.845,2.693,3.768,2.693a4.481,4.481,0,0,0,4.666-4.566c0-2.85-1.8-4.516-5.257-4.516a4.467,4.467,0,0,0-.641.028,2.567,2.567,0,0,1-.413.028c-.285,0-.385-.157-.385-.541,0-.335.1-.541.385-.541a1.312,1.312,0,0,1,.306.028,2.867,2.867,0,0,0,.484.05c2.871,0,4.695-1.667,4.695-4.075a3.311,3.311,0,0,0-3.362-3.462c-2.023,0-2.849,1.254-3.434,2.614-.178.385-.256.463-.435.463-.356,0-.591-.513-.591-1.745,0-.741.207-1.026.926-1.361a8.978,8.978,0,0,1,3.8-.8c2.771,0,4.873,1.489,4.873,3.9s-1.382,3.8-3.669,4.566Z" transform="translate(-268.722 -155.717)" fill="#fff"/>
  <path id="パス_15" data-name="パス 15" d="M650.626,174.514a3.108,3.108,0,0,1-2.1-1.076c-1.638-1.7-2.465-5.592-2.793-9.332H642.17v7.1a24.215,24.215,0,0,0,3.9-1.51l.1.256a27.927,27.927,0,0,1-6.383,3.284c-.1.356-.285.769-.484.769-.178,0-.335-.1-.591-.541-.207-.356-.435-.8-.8-1.589a4.619,4.619,0,0,0,.613.028,6.831,6.831,0,0,0,1.717-.207c.207-.05.435-.1.67-.157V160.693c0-.9,0-1.183-.029-1.667A6.741,6.741,0,0,0,640.5,157c1,.385,1.51.613,1.923.819a.309.309,0,0,1,.207.285.533.533,0,0,1-.1.207,19.728,19.728,0,0,0,4.232-1.7,5.534,5.534,0,0,0,1.845-1.589c.591.463,1.026.819,1.617,1.332.128.1.128.157.128.228,0,.207-.385.285-.769.285a2.974,2.974,0,0,1-.463-.05c-.869.356-1.824.691-2.85,1,.228.078.484.178.741.285.207.078.306.178.306.285,0,.228-.385.541-.613.719q0,2.383.157,4.31H648.7l.8-.8a.458.458,0,0,1,.256-.157.731.731,0,0,1,.335.178,16.3,16.3,0,0,1,1.254,1.1c.078.078.157.157.157.228s-.1.128-.256.128h-4.331c.413,4.588,1.361,7.074,2.208,7.922a.836.836,0,0,0,.613.306c.513,0,.976-1.46,1.311-3l.256.028a27.778,27.778,0,0,1-.228,3.106,1.726,1.726,0,0,0-.029.356,1.516,1.516,0,0,0,.413,1.126c0,.385-.484.563-.819.563Zm-1.874,1.617h-5.742a3.315,3.315,0,0,0-1.745.385,2.1,2.1,0,0,1-1.332-1.254,11.462,11.462,0,0,0,2.436.178h4.025l.691-.819c.1-.128.178-.157.228-.157.1,0,.157.028.306.157.513.463.741.67,1.232,1.154.078.078.1.128.1.178a.2.2,0,0,1-.207.178Zm-3.512-18.023a27.528,27.528,0,0,1-3.078.641v4.666h3.491c-.078-1.076-.1-2.052-.128-2.978a9.735,9.735,0,0,0-.285-2.337Zm7.793,20.26c-.385,0-.641-.413-.641-.869,0-.306.078-2,.128-3.077.05-1.232.078-2.721.078-4.281v-6.974c0-1.767,0-3.69-.05-4.923a9.43,9.43,0,0,0-.335-2.23,18.634,18.634,0,0,1,1.638.926c.207.128.335.228.335.335h3.384l.513-.513a.35.35,0,0,1,.256-.128.643.643,0,0,1,.335.178,12.538,12.538,0,0,1,1.076.976c.157.157.256.285.256.413,0,.256-.67.591-.926.67a24.759,24.759,0,0,1-3.54,5.663c2.849,1.745,4.438,3.8,4.438,6.333a4,4,0,0,1-2.18,3.64,3.449,3.449,0,0,0-1.282-.769,3.462,3.462,0,0,1-1.824-1.539l.157-.207a6.9,6.9,0,0,0,2.408.641c.926,0,1.254-1.183,1.254-2,0-1.874-1.282-3.868-3.491-6.155a22.982,22.982,0,0,0,2.821-6.511H653.9c-.05,1.332-.05,3.156-.05,5.051v7.053c0,1.2.078,3.512.1,4.281.029.741.078,2.28.078,2.721,0,.513-.484,1.311-1,1.311Z" transform="translate(-276.528 -154.759)" fill="#fff"/>
  <path id="パス_16" data-name="パス 16" d="M680.81,160.122a11.461,11.461,0,0,0,2.436.178h3.847l.484-.541a.358.358,0,0,1,.228-.128.679.679,0,0,1,.335.157c.435.306.769.563,1.1.848.128.1.157.157.157.228s-.078.128-.178.128h-5.336a3.315,3.315,0,0,0-1.745.385,2.1,2.1,0,0,1-1.332-1.254Zm1.054,3a11.462,11.462,0,0,0,2.436.178h1.539l.591-.613a.358.358,0,0,1,.228-.128c.071,0,.128.028.285.157.356.306.691.613,1.026.947.078.078.128.128.128.178a.172.172,0,0,1-.178.157h-2.978a3.315,3.315,0,0,0-1.745.385,2.1,2.1,0,0,1-1.332-1.254Zm.741,14.589c-.306,0-.463-.178-.463-.513s0-.67.028-1.539c.029-.926.05-2.28.05-2.743a22.335,22.335,0,0,0-.207-4.025c.385.157,1.126.513,1.489.719.128.078.178.157.178.207h2.308l.435-.484c.128-.157.207-.178.285-.178a.9.9,0,0,1,.335.157c.356.228.691.463,1.026.719.1.078.178.128.178.256s-.413.563-.691.819c0,.513.029,1.51.05,2.23.029.819.05,1.617.05,2.308a.964.964,0,0,1-.869.8.5.5,0,0,1-.484-.513v-.691h-2.821v1.7a1.155,1.155,0,0,1-.869.8Zm-.484-11.362a11.461,11.461,0,0,0,2.436.178h1.154l.591-.613a.359.359,0,0,1,.228-.128c.071,0,.128.028.285.157.356.306.691.613,1.026.947.078.078.128.128.128.178a.172.172,0,0,1-.178.157H685.2a3.352,3.352,0,0,0-1.745.356,2.045,2.045,0,0,1-1.332-1.232Zm.028-9.439a11.461,11.461,0,0,0,2.436.178h1.332l.563-.591c.05-.05.128-.128.207-.128s.128.028.256.128c.335.285.72.641,1.026.947.078.078.128.128.128.178a.172.172,0,0,1-.178.157h-2.693a3.315,3.315,0,0,0-1.745.385,2.179,2.179,0,0,1-1.332-1.254Zm4.153,17.617V170.5h-2.821v4.025Zm5.279-1.46a10.857,10.857,0,0,1-5.564,5.229l-.157-.207a12.683,12.683,0,0,0,5.029-6.233,19.165,19.165,0,0,1-1.026-2.308,2.725,2.725,0,0,0-.435-.741,2.263,2.263,0,0,0-1.311-.8l-.05-.435a5.463,5.463,0,0,1,1.076.285,2.736,2.736,0,0,1,1.46,1.667c.207.513.413.976.613,1.41a22.708,22.708,0,0,0,1.054-5.792h-1.361c-.05.157-.128.356-.178.484a1.089,1.089,0,0,1-1,.563.367.367,0,0,1-.413-.385,1.753,1.753,0,0,1,.178-.563,51.623,51.623,0,0,0,2.486-7.231h-.128a3.315,3.315,0,0,0-1.745.385,2.1,2.1,0,0,1-1.332-1.254,11.462,11.462,0,0,0,2.436.178h.719l.613-.413a.487.487,0,0,1,.285-.1.679.679,0,0,1,.335.157,10.249,10.249,0,0,1,.8.719.375.375,0,0,1,.157.306c0,.256-.67.591-1,.719-.385,1.126-.8,2.358-1.1,3.334-.256.8-.541,1.589-.848,2.408h.848l.435-.463c.128-.128.228-.207.306-.207a.764.764,0,0,1,.356.178c.285.228.591.484.819.691.178.157.207.228.207.306,0,.178-.356.484-.541.613a22.237,22.237,0,0,1-1.638,6.689,7.473,7.473,0,0,0,1.46,1.7c1.745,1.489,4.566,1.845,7.822,1.845a12.191,12.191,0,0,0,3.491-.435,1.263,1.263,0,0,1-.719,1.054,1.4,1.4,0,0,0-.691.541.98.98,0,0,1-.356.413,6.082,6.082,0,0,1-1.489.1c-2.515,0-6.3-.691-8.285-2.486a10.721,10.721,0,0,1-1.617-1.923Zm2.771-.691a2.045,2.045,0,0,1-1.332-1.232,10.774,10.774,0,0,0,2.208.178v-5.207c0-.641,0-1.154-.05-1.952a9.313,9.313,0,0,0-.335-1.895c.691.207,1.311.435,1.824.641.335.128.385.256.385.356,0,.228-.306.513-.591.741-.05.8-.078,1.183-.078,2.023v5.286h1.895V163.7c0-.641-.029-2.465-.078-3.256a9.268,9.268,0,0,0-.178-1.311,34.512,34.512,0,0,1-4,.67l-.029-.256a26.591,26.591,0,0,0,6.589-2.408,2.987,2.987,0,0,0,1.1-.947c.435.463.976,1.076,1.361,1.567a.345.345,0,0,1,.1.207c0,.128-.207.207-.513.207a2.386,2.386,0,0,1-.769-.128c-.9.306-1.874.613-2.9.869a5.268,5.268,0,0,1,.741.335c.285.128.356.228.356.335,0,.228-.256.463-.484.67-.05.848-.05,2.536-.05,3.384v.719h1.845l.563-.641c.128-.157.178-.178.256-.178s.128.028.256.157c.413.385.641.613,1.026,1.026.078.078.1.128.1.178s-.05.157-.207.157h-3.847v6.283h1.589l.641-.691c.078-.078.128-.128.228-.128a.552.552,0,0,1,.306.128c.513.356.869.613,1.361,1,.1.078.128.128.128.207a.18.18,0,0,1-.207.178h-7.487a3.352,3.352,0,0,0-1.745.356Z" transform="translate(-288.867 -155.093)" fill="#fff"/>
  <path id="パス_17" data-name="パス 17" d="M724.912,176.9a2.1,2.1,0,0,1-1.332-1.254,11.461,11.461,0,0,0,2.436.178h8.741v-6.589h-3.541a3.315,3.315,0,0,0-1.745.385,2.1,2.1,0,0,1-1.332-1.254,11.462,11.462,0,0,0,2.436.178h4.182v-5.82h-5.8a16.082,16.082,0,0,1-4.153,5.87l-.228-.207a22.072,22.072,0,0,0,3.875-8.819,5.7,5.7,0,0,0,.128-1.076,7.27,7.27,0,0,0-.078-1.054c.848.335,1.767.741,2.386,1.054.157.078.207.157.207.228,0,.285-.563.484-.9.591-.306.947-.613,1.845-.948,2.721h5.514v-3.028c0-.641,0-1.154-.05-1.952a9.708,9.708,0,0,0-.335-1.923c.848.228,1.489.413,2.023.591.335.1.413.178.413.335,0,.256-.306.413-.641.563-.05.848-.05,1.46-.05,2.308v3.106h5.129l.769-.848a.358.358,0,0,1,.256-.128c.078,0,.157.029.335.157.541.356,1.076.741,1.617,1.126.1.078.128.128.128.207a.2.2,0,0,1-.207.178h-8.029v5.82H740.2l.769-.848a.358.358,0,0,1,.256-.128c.078,0,.157.028.335.157.541.356,1.076.741,1.617,1.126.1.078.128.128.128.207a.2.2,0,0,1-.207.178h-6.974v6.589h7.181l1.026-1.1a.358.358,0,0,1,.256-.128.816.816,0,0,1,.435.207c.541.385,1.026.741,1.567,1.154.178.128.228.228.228.306,0,.157-.178.256-.335.256H726.665a3.315,3.315,0,0,0-1.745.385Z" transform="translate(-301.169 -154.788)" fill="#fff"/>
  <path id="パス_18" data-name="パス 18" d="M771.309,184.385a3.078,3.078,0,0,1,0-6.155,3.078,3.078,0,1,1,0,6.155Zm-2.28-3.106a2.308,2.308,0,1,0,2.308-2.308A2.317,2.317,0,0,0,769.029,181.279Z" transform="translate(-314.02 -161.432)" fill="#fff"/>
</svg>
