<svg xmlns="http://www.w3.org/2000/svg" width="908.56" height="93.03" viewBox="0 0 908.56 93.03">
  <g id="title" transform="translate(0 0.01)">
    <path id="パス_45" data-name="パス 45" d="M5.25,39.44A8.682,8.682,0,0,1,0,34.3a44.724,44.724,0,0,0,9.58.81H20.37V26.64H16.23a10.35,10.35,0,0,0-4.84,1.61,8.648,8.648,0,0,1-5.24-5.14,44.724,44.724,0,0,0,9.58.81h4.64V16.15H15.02c-1.71,0-5.14.3-6.86,1.61a8.637,8.637,0,0,1-5.24-5.15,44.724,44.724,0,0,0,9.58.81h7.87V12.41c0-1.01,0-2.12-.2-4.44A39.619,39.619,0,0,0,18.86.4a68.338,68.338,0,0,1,7.77,2.62c1.21.5,1.61.71,1.61,1.31,0,1.01-1.51,2.22-2.82,2.82-.2,2.52-.2,3.73-.2,4.94V13.4H34.2l2.62-2.52a1.476,1.476,0,0,1,.81-.5,2.3,2.3,0,0,1,1.21.6,36.615,36.615,0,0,1,4.44,3.73,1.444,1.444,0,0,1,.5.81c0,.4-.4.6-.91.6H25.22v7.77h5.85l2.32-2.32a1.236,1.236,0,0,1,.81-.4c.31,0,.5.1,1.11.5a33.72,33.72,0,0,1,4.24,3.53,1.4,1.4,0,0,1,.5.91c0,.3-.4.5-.81.5H25.22v8.47h11.4l2.92-2.82a1.65,1.65,0,0,1,.91-.5c.3,0,.61.1,1.21.61a58.992,58.992,0,0,1,4.74,4.14c.3.3.5.5.5.71,0,.4-.4.6-.91.6H12.1c-1.71,0-5.14.3-6.86,1.61ZM30.67,91.59a15.9,15.9,0,0,0-4.24-3.33,19.9,19.9,0,0,1-6.15-5.45l.5-.91a18.1,18.1,0,0,0,8.57,2.22c2.42,0,2.92-2.32,2.92-4.13V69.4H14.12V86.25c0,2.62-2.22,4.74-3.93,4.74-1.11,0-1.71-.71-1.71-2.12,0-.81.2-3.83.3-5.35.3-4.34.61-17.15.61-25.02,0-3.23,0-6.25-.1-8.67a33.05,33.05,0,0,0-1.01-8.07c3.33,1.31,4.44,1.81,6.56,2.82a1.481,1.481,0,0,1,.71.61H29.97l1.82-2.12c.5-.61.81-.71,1.21-.71s.71.2,1.31.61c1.41.91,2.52,1.71,4.04,2.82.4.3.81.61.81,1.01,0,.61-1.11,1.72-2.22,2.72,0,2.93.1,9.58.2,14.52.1,3.73.4,16.04.4,17.85,0,4.84-2.82,7.06-6.86,9.68Zm1.61-35.91V47.91H14.12v7.77Zm0,10.99V58.4H14.12v8.27ZM57.3,91.79a16.015,16.015,0,0,0-5.85-4.24,20.791,20.791,0,0,1-6.35-5.04l.61-.81A23.8,23.8,0,0,0,56.2,84.32c2.32,0,2.92-1.31,3.03-3.43.2-4.64.3-11,.3-18.16H54.08c-1.71,0-5.14.1-6.86,1.41a8.139,8.139,0,0,1-5.25-4.84,44.482,44.482,0,0,0,9.58.71h7.97V47.4H52.66c-1.71,0-5.14.2-6.86,1.51a8.269,8.269,0,0,1-5.24-4.94,44.482,44.482,0,0,0,9.58.71h9.38V32.47H57.5c-1.71,0-5.14.1-5.85,1.41-2.82-.6-5.14-1.92-6.25-4.84a44.482,44.482,0,0,0,9.58.71h4.64A70.661,70.661,0,0,0,69,14.52H55.18A51.307,51.307,0,0,1,42.67,28.84l-.81-.71A52.143,52.143,0,0,0,54.06,5.64a22.632,22.632,0,0,0,.61-5.65c2.32,1.31,5.25,3.03,6.96,4.14a.9.9,0,0,1,.5.81c0,.81-2.02,1.51-2.82,1.61-.81,1.71-1.61,3.43-2.62,5.25h11.4l3.13-3.13a1.38,1.38,0,0,1,.91-.5,2.1,2.1,0,0,1,1.21.5c2.02,1.61,3.33,2.72,4.54,3.83.81.71.91,1.11.91,1.41,0,1.11-2.82,1.61-4.54,1.82A88.9,88.9,0,0,1,61.24,29.75h12l2.12-2.32c.5-.5.91-.81,1.21-.81a2.158,2.158,0,0,1,1.21.5c1.41.91,2.42,1.61,3.63,2.52a1.37,1.37,0,0,1,.71,1.11c0,.51-1.01,1.61-2.12,2.62,0,2.32,0,6.66.1,11.3h3.73l2.72-3.23c.4-.5.71-.61.91-.61.4,0,.61.1,1.21.61,2.02,1.81,2.93,2.62,4.84,4.54.3.3.4.5.4.71a.785.785,0,0,1-.81.71H80.19c0,3.43.2,13.92.2,16.44a3.8,3.8,0,0,1-3.63,3.43c-1.41,0-1.82-1.31-1.82-2.22V62.73H64.25c0,3.33.1,6.66.2,9.89.1,3.13.2,6.76.2,10.19,0,4.04-1.82,6.46-7.36,8.98ZM74.95,32.48H64.26V44.69H74.95Zm0,14.93H64.26V60.02H74.95Z" fill="#fff"/>
    <path id="パス_46" data-name="パス 46" d="M146.27,57.39c-1.61,0-2.42-2.93-2.42-4.74a8.1,8.1,0,0,1,2.32-5.25c3.93-4.34,8.98-13.11,11.5-18.86-1.92.6-3.43,1.11-4.34,1.41-2.32.81-5.45,1.92-7.36,1.92-2.22,0-4.74-1.61-6.36-3.23-1.92-1.92-3.33-3.83-3.33-4.54,0-.3.2-.5.51-.71a14.536,14.536,0,0,0,8.17,2.83,38.791,38.791,0,0,0,6.56-.91c2.32-.5,5.24-1.21,8.17-1.92,1.11-2.72,2.62-6.56,3.83-9.68a17.647,17.647,0,0,0,1.31-5.85c0-2.82-2.62-4.54-3.93-5.35a1.218,1.218,0,0,1,1.11-.81,14.657,14.657,0,0,1,4.54,1.71c1.81.91,3.63,2.22,3.63,3.73,0,1.92-.71,4.03-2.02,6.96-1.11,2.42-2.42,5.35-3.53,7.97a38.938,38.938,0,0,0,5.35-2.32,8.009,8.009,0,0,1,3.53-1.31c1.01,0,3.93.91,3.93,2.82,0,1.41-1.82,2.12-4.24,2.72-2.22.6-6.46,1.82-10.59,3.03-3.43,8.67-9.89,22.8-13.42,28.24-1.11,1.71-2.02,2.12-2.93,2.12ZM172.9,86.74c-2.32,0-4.13-1.51-5.55-3.23a17.366,17.366,0,0,1-2.32-4.54c-.5-1.71-.91-3.02-1.21-3.93a18.493,18.493,0,0,1-1.11-5.45c0-2.22,2.02-3.63,4.64-4.44a23.2,23.2,0,0,1,7.36-1.11,34.79,34.79,0,0,1,4.54.4,86.5,86.5,0,0,1-.71-10.49c0-5.15,1.11-9.28,4.14-12.1,3.83-3.53,12.1-4.54,15.63-4.54-2.32-3.73-7.87-4.94-12.81-4.94a27.915,27.915,0,0,0-4.14.3c0-.4,0-.71.3-.91a16.1,16.1,0,0,1,8.68-2.32c11.3,0,16.95,6.86,17.55,8.68a9.646,9.646,0,0,1,.5,3.63,1.971,1.971,0,0,1-2.22,2.02,5.82,5.82,0,0,1-3.23-.91,22.171,22.171,0,0,0-11.7-2.93c-4.84,0-8.98,3.33-8.98,9.78a48.346,48.346,0,0,0,2.02,13.11c.3,1.11.5,2.12.71,3.23,4.94,1.82,13.42,5.95,15.43,8.57a6.652,6.652,0,0,1,1.41,3.83,2.457,2.457,0,0,1-2.32,2.72c-.81,0-2.02-.81-4.04-2.72a51.278,51.278,0,0,0-9.98-7.26v.71a14.691,14.691,0,0,1-3.13,9.48c-1.92,2.42-5.55,5.35-9.48,5.35Zm1.01-5.85c3.23,0,6.35-5.04,6.35-8.67a20.308,20.308,0,0,0-.3-3.13,30.837,30.837,0,0,0-7.77-1.01c-3.13,0-6.05,1.11-6.05,3.43C166.14,73.63,169.87,80.89,173.91,80.89Z" fill="#fff"/>
    <path id="パス_47" data-name="パス 47" d="M295.86,84.23c-7.26,0-15.33-2.82-15.33-9.58,0-5.25,4.74-8.07,9.68-8.07,6.66,0,11.6,5.65,13.72,11.4,7.06-3.33,13.11-9.89,13.11-18.66,0-10.19-7.57-15.74-17.25-15.74a34.63,34.63,0,0,0-17.85,5.35c-7.06,4.44-12.1,11.2-15.43,16.24a2.33,2.33,0,0,1-1.92,1.31c-1.92,0-2.52-2.72-2.52-4.84,0-1.71.81-3.03,2.62-5.25,9.08-11.1,22.49-25.72,32.78-36.51,2.93-3.03,4.14-4.84,4.14-5.35,0-.81-1.31-1.92-2.32-1.92-1.61,0-8.27,3.33-11.2,4.94-2.22,1.21-3.93,2.02-6.25,2.02-2.72,0-5.25-2.93-6.86-5.75a5.692,5.692,0,0,1-1.01-2.32.972.972,0,0,1,.5-.81,9.021,9.021,0,0,0,6.56,2.52c4.34,0,12-2.93,15.13-4.24a11.2,11.2,0,0,1,4.34-1.01c2.22,0,6.25,2.32,8.27,6.05a4.181,4.181,0,0,1,.5,1.92c0,1.41-1.11,2.02-2.32,2.72a47.96,47.96,0,0,0-7.67,5.85c-5.55,5.04-19.77,19.57-24.41,24.31,7.57-5.14,17.75-8.27,24.81-8.27,14.42,0,23,9.78,23,19.47,0,15.33-16.04,24.21-26.83,24.21Zm-2.02-3.93a21.5,21.5,0,0,0,4.94-.6c-1.71-5.35-5.45-9.58-10.09-9.58-2.72,0-5.14,1.61-5.14,4.14,0,4.14,4.54,6.05,10.29,6.05Z" fill="#fff"/>
    <path id="パス_48" data-name="パス 48" d="M401.07,88.56a11.459,11.459,0,0,0-4.44-3.93,26.689,26.689,0,0,1-6.35-5.55l.5-.91a27.658,27.658,0,0,0,10.49,2.92c1.81,0,2.82-1.01,3.83-2.92,2.82-5.35,3.93-17.05,4.04-27.74H395.22c-2.93,14.53-9.58,27.23-23.2,36.31l-.81-1.01c14.93-14.83,19.67-30.56,20.48-51.75h-5.04V36.2c0,1.11-2.42,3.23-3.73,3.23-1.41,0-2.02-.71-2.02-2.12,0-.61.1-2.42.2-4.24.1-2.72.2-6.66.2-12a117.389,117.389,0,0,0-.81-16.24c2.72,1.21,4.64,2.12,6.15,2.93a1.928,1.928,0,0,1,1.01,1.01h21.18l2.02-2.22c.5-.5.91-.81,1.21-.81a3.315,3.315,0,0,1,1.41.6c1.51,1.01,2.42,1.61,3.73,2.62.4.3.81.6.81,1.11,0,.6-1.11,1.72-2.32,2.82,0,4.64.1,8.37.3,13.41.1,3.23.2,6.56.2,8.57a4.024,4.024,0,0,1-3.83,3.63,2.19,2.19,0,0,1-2.02-2.32V33.96H397.23a119.936,119.936,0,0,1-1.51,13.72h13.01l1.61-1.72c.2-.2.5-.5.81-.5s.5.1,1.11.5a35.687,35.687,0,0,1,4.54,3.33.838.838,0,0,1,.3.71c0,.71-2.02,2.12-2.93,2.72-.5,10.99-1.31,24.21-4.44,28.95-2.22,3.33-4.54,5.75-8.67,6.86Zm9.28-57.29V11.5h-23.7V31.27h23.7ZM436.48,11.8c.91.3,1.31.71,1.31,1.31,0,1.01-1.01,1.92-2.82,3.03-.2,5.35-.2,9.18-.2,13.01V39.94c0,4.24.2,9.28.3,11.8.1,2.32.3,6.96.3,8.67a4.189,4.189,0,0,1-3.83,3.83,1.918,1.918,0,0,1-2.12-2.12c0-2.22.2-8.27.3-9.88.2-3.93.3-7.36.3-12V29.75c0-3.03-.1-6.86-.41-11.7A37.82,37.82,0,0,0,428,9.27a74.151,74.151,0,0,1,8.47,2.52Zm18.76-6.56a1.327,1.327,0,0,1,.81,1.11c0,.91-1.51,2.42-2.52,3.13-.2,3.03-.2,8.77-.2,14.63,0,13.92.1,30.76.3,41.36.1,3.13.2,8.47.2,12,0,8.57-3.53,10.59-10.19,13.82-1.61-2.42-3.83-3.83-7.46-5.95a24.514,24.514,0,0,1-6.56-5.65l.61-.81c5.04,2.22,9.58,3.73,13.42,3.73,3.33,0,4.64-3.03,4.64-11.4V23.91c0-5.95-.1-11-.2-13.21a36.65,36.65,0,0,0-1.61-8.98,89.757,89.757,0,0,1,8.78,3.53Z" fill="#fff"/>
    <path id="パス_49" data-name="パス 49" d="M522.83,90.78c-1.51,0-2.42-1.61-2.42-3.43,0-1.51.3-7.97.5-12.2.2-4.84.3-10.59.3-16.74V33.8h-7.26c-1.72,0-5.14.2-6.86,1.51a8.576,8.576,0,0,1-5.25-4.94,44.482,44.482,0,0,0,9.58.71h9.78c0-5.95-.1-11.2-.4-15.43-.2-2.72-.5-6.46-1.61-9.08,3.93,1.11,6.35,1.92,8.98,2.82.91.3,1.31.71,1.31,1.21,0,1.01-1.01,1.61-2.82,2.52-.2,4.84-.2,10.99-.2,17.95h17.75V27.34c0-6.96,0-10.19-.4-15.03a29.632,29.632,0,0,0-1.61-8.78c2.93.71,6.46,1.71,8.88,2.52.91.3,1.31.71,1.31,1.21,0,1.01-1.01,1.61-2.83,2.52-.2,5.35-.2,9.18-.2,16.95v4.34h17.35V16.45c0-2.62-.2-7.67-1.41-11.2a76.978,76.978,0,0,1,8.78,2.62c.5.2.81.5.81.91,0,.81-1.51,1.82-2.62,2.32a52.5,52.5,0,0,0-.2,5.35V31.07h12.1l3.23-3.83c.4-.5.71-.71,1.01-.71.4,0,.61.1,1.31.71,2.42,2.02,3.43,2.93,5.55,4.94.4.4.5.5.5.81a.892.892,0,0,1-.91.81h-22.8v8.07c0,2.12.2,10.09.3,13.21.1,2.52.2,5.45.2,6.66,0,1.82-2.42,4.14-4.24,4.14-1.31,0-2.12-.91-2.12-2.52a25.724,25.724,0,0,1,.1-2.62H549.76c.1,1.21.1,2.22.1,2.82,0,2.02-2.22,4.64-4.03,4.64-1.51,0-2.12-1.31-2.12-3.13,0-1.51.3-9.58.4-12,.1-4.34.1-10.59.1-16.74V33.81H526.46V58.12c0,5.65.3,14.02.4,16.85.1,1.82.2,4.54.2,6.96h47.71l3.93-4.34a1.573,1.573,0,0,1,1.11-.61,3.245,3.245,0,0,1,1.61.71c2.22,1.41,5.75,3.73,7.97,5.35.4.3.5.5.5.81a.892.892,0,0,1-.91.81H527.15v1.01c0,2.02-2.32,5.14-4.34,5.14ZM549.76,58H566.4c.2-3.33.3-12.71.3-15.84V33.79H549.35v2.22c0,5.65.1,14.02.2,16.85,0,1.31.1,3.23.2,5.14Z" fill="#fff"/>
    <path id="パス_50" data-name="パス 50" d="M646.9,92.6l-.4-1.01c16.04-7.36,21.18-16.64,21.18-34.6a15.176,15.176,0,0,0-.71-3.93,75.93,75.93,0,0,1-33.39,17.25l-.4-1.01c15.13-5.65,30.87-17.15,38.13-29.66H657.29v2.02c0,1.11-2.52,3.23-3.83,3.23s-1.92-.71-1.92-2.12c0-.4,0-1.01.1-3.53.1-2.93.3-11.2.3-19.27,0-4.03,0-12.41-.81-17.25,2.72,1.31,4.54,2.22,6.15,3.13a3.014,3.014,0,0,1,1.01.81h43.78l2.02-2.22c.51-.5.91-.81,1.21-.81a3.225,3.225,0,0,1,1.41.61c1.51,1.01,2.42,1.61,3.73,2.62.41.3.81.61.81,1.11,0,.6-1.11,1.72-2.32,2.82,0,4.74.2,14.22.31,18.76.1,4.44.2,9.28.2,10.59a4.016,4.016,0,0,1-3.83,3.63,2.19,2.19,0,0,1-2.02-2.32V39.63H686.85a33.172,33.172,0,0,1,3.03,2.72c13.41,13.42,21.79,18.86,38.23,20.07-1.01,1.92-3.43,3.23-6.05,3.73a4.57,4.57,0,0,0-2.22,1.21c-.4.4-1.01,1.01-1.61,1.01a12.448,12.448,0,0,1-4.24-1.41c-9.58-4.84-16.24-11.2-25.42-22.8a29.754,29.754,0,0,0-4.24-4.54h-5.55a77.592,77.592,0,0,1-10.69,12.31c2.52.91,5.25,1.92,6.35,2.42,1.01.4,1.51.61,1.51,1.21,0,1.01-1.51,1.92-2.62,2.42-1.21,19.37-7.06,28.65-26.43,34.6Zm30.46-70.91V9.38H657.29V21.69Zm0,15.23V24.41H657.29V36.92Zm26.23-15.23V9.38H682.51V21.69Zm0,15.23V24.41H682.51V36.92ZM688.36,51.55a63.971,63.971,0,0,1,7.97,3.03,1.08,1.08,0,0,1,.71.91c0,.81-1.31,2.02-2.32,2.52-.2,2.52-.2,5.75-.2,7.77v7.26c0,2.12.1,5.25.3,9.18.2,3.03.3,5.45.3,6.66a4.922,4.922,0,0,1-4.14,4.14c-1.31,0-1.82-.91-1.82-2.52,0-1.82.2-5.75.3-7.67.1-2.12.3-7.36.3-9.48V65.78c0-2.62-.1-10.89-1.41-14.22Z" fill="#fff"/>
    <path id="パス_51" data-name="パス 51" d="M767.85,44.38a6.013,6.013,0,0,0,4.34,1.72,17.306,17.306,0,0,0,6.86-2.32,150.865,150.865,0,0,0,15.13-10.69c2.42-1.92,4.94-3.43,6.86-3.43a7.358,7.358,0,0,1,3.63,1.21c3.13,2.22,5.35,3.73,8.98,6.05,12.41,8.17,21.08,13.72,27.84,16.74,4.14,1.82,6.86,3.03,8.98,4.14,2.93,1.51,4.64,3.93,4.64,5.65,0,1.21-1.31,1.82-2.52,1.82a15.255,15.255,0,0,1-3.73-.3c-4.74-1.21-12.11-5.85-20.07-11.5-8.17-5.85-17.05-12.71-22.9-17.25-2.22-1.72-3.93-2.72-5.04-2.72-2.02,0-3.73,1.61-5.85,3.63-2.32,2.22-5.24,5.14-7.46,7.56-2.22,2.32-8.37,7.67-10.89,7.67-2.32,0-4.84-1.61-6.86-3.63-1.31-1.31-2.62-2.82-2.62-3.53a.978.978,0,0,1,.71-.81Z" fill="#fff"/>
    <path id="パス_52" data-name="パス 52" d="M896.36,89.77a12.1,12.1,0,0,1,0-24.2,12.1,12.1,0,1,1,0,24.2Zm-8.98-12.2a9.08,9.08,0,1,0,9.08-9.08A9.112,9.112,0,0,0,887.38,77.57Z" fill="#fff"/>
  </g>
</svg>
