<?xml version="1.0" encoding="UTF-8"?>
<svg id="_レイヤー_2" data-name="レイヤー 2" xmlns="http://www.w3.org/2000/svg" viewBox="0 0 645.71 526.75">
  <defs>
    <style>
      .cls-1 {
        fill: #040000;
      }

      .cls-2 {
        fill: #fff;
      }

      .cls-3 {
        fill: #b71c25;
      }

      .cls-4 {
        fill: #d2cead;
      }

      .cls-5 {
        fill: #093420;
      }

      .cls-6 {
        stroke-dasharray: 0 0 5.35 5.35;
      }

      .cls-6, .cls-7 {
        stroke: #c6c7c7;
        stroke-width: .66px;
      }

      .cls-6, .cls-7, .cls-8 {
        fill: none;
        stroke-miterlimit: 10;
      }

      .cls-8 {
        stroke: #fff;
        stroke-width: 1.33px;
      }
    </style>
  </defs>
  <g id="_レイヤー_1-2" data-name="レイヤー 1">
    <g>
      <g>
        <path class="cls-2" d="m14.55,482.42c-1.37,0-2.53-.95-3.26-2.15-.83-1.37-1.21-3.82-1.21-5.67,0-4.23,1.81-7.46,4.47-7.46,2.05,0,4.47,2.21,4.47,7.63,0,4.87-2.05,7.63-4.47,7.63Zm-2.23-11.95c-.28.99-.46,2.66-.46,4.31,0,4.43,1.05,6.96,2.68,6.96,1.37,0,1.99-1.83,2.21-2.58.28-1.01.48-2.7.48-4.37,0-4.53-1.09-6.96-2.68-6.96-1.41,0-2.03,1.95-2.23,2.64Z"/>
        <g>
          <path class="cls-2" d="m1.31,392.46h1.09c1.03,0,1.39-.4,1.39-1.21v-10.76c0-.62-.58-.72-.95-.72h-1.51v-.62h.36c1.53,0,3-.7,3.24-.83.14-.08.2-.12.28-.12.18,0,.22.12.22.28v12.76c0,.85.42,1.21,1.39,1.21h1.09v.64H1.31v-.64Z"/>
          <path class="cls-2" d="m14.55,393.48c-1.37,0-2.53-.95-3.26-2.15-.83-1.37-1.21-3.82-1.21-5.67,0-4.23,1.81-7.46,4.47-7.46,2.05,0,4.47,2.21,4.47,7.63,0,4.87-2.05,7.63-4.47,7.63Zm-2.23-11.95c-.28.99-.46,2.66-.46,4.31,0,4.43,1.05,6.96,2.68,6.96,1.37,0,1.99-1.83,2.21-2.58.28-1.01.48-2.7.48-4.37,0-4.53-1.09-6.96-2.68-6.96-1.41,0-2.03,1.95-2.23,2.64Z"/>
        </g>
        <g>
          <path class="cls-2" d="m7.97,303.41H.16v-.54c.4-1.25,1.33-2.64,2.92-4.45,2.92-3.38,3.92-4.51,3.92-6.5,0-1.49-.95-2.72-2.64-2.72-1.39,0-2.23.84-2.23,1.55,0,.06,0,.32.2.62.26.4.42.62.42.99,0,.6-.48,1.11-1.07,1.11-.7,0-1.13-.66-1.13-1.39,0-1.45,1.41-3.56,4.27-3.56,2.47,0,3.98,1.55,3.98,3.7,0,2.01-1.15,3.1-2.94,4.63-.68.56-3.3,2.8-4.29,4.99h2.74c2.78,0,3.44-1.07,4.04-2.72l.6.22-.95,4.08Z"/>
          <path class="cls-2" d="m14.55,303.79c-1.37,0-2.53-.95-3.26-2.15-.83-1.37-1.21-3.82-1.21-5.67,0-4.23,1.81-7.46,4.47-7.46,2.05,0,4.47,2.21,4.47,7.63,0,4.87-2.05,7.63-4.47,7.63Zm-2.23-11.95c-.28.99-.46,2.66-.46,4.31,0,4.43,1.05,6.96,2.68,6.96,1.37,0,1.99-1.83,2.21-2.58.28-1.01.48-2.7.48-4.37,0-4.53-1.09-6.96-2.68-6.96-1.41,0-2.03,1.95-2.23,2.64Z"/>
        </g>
        <g>
          <path class="cls-2" d="m7.56,206.96c.91.78,1.35,1.77,1.35,2.94,0,2.45-2.01,4.2-4.63,4.2-2.15,0-3.96-1.21-3.96-2.8,0-.87.58-1.27,1.13-1.27.68,0,.97.58.97.99,0,.3-.06.48-.12.64-.04.12-.06.26-.06.46,0,.76.86,1.31,1.79,1.31,1.53,0,3.08-1.51,3.08-3.52s-1.51-3.64-3.1-3.64c-.12,0-.68.08-.8.08-.3,0-.44-.18-.44-.42,0-.26.2-.46.46-.46.12,0,.72.12.85.12,1.67,0,2.72-1.49,2.72-3.1s-.93-2.98-2.5-2.98c-1.05,0-1.61.76-1.61,1.33,0,.1.04.2.06.3.04.14.06.34.06.48,0,.62-.46,1.09-1.01,1.09-.66,0-.99-.58-.99-1.09,0-1.09,1.27-2.78,3.82-2.78s3.98,1.59,3.98,3.34c0,.7-.26,1.37-.74,2.03-.82,1.07-1.71,1.41-2.53,1.69.91.28,1.51.48,2.21,1.07Z"/>
          <path class="cls-2" d="m14.55,214.1c-1.37,0-2.53-.95-3.26-2.15-.83-1.37-1.21-3.82-1.21-5.67,0-4.23,1.81-7.46,4.47-7.46,2.05,0,4.47,2.21,4.47,7.63,0,4.87-2.05,7.63-4.47,7.63Zm-2.23-11.95c-.28.99-.46,2.66-.46,4.31,0,4.43,1.05,6.96,2.68,6.96,1.37,0,1.99-1.83,2.21-2.58.28-1.01.48-2.7.48-4.37,0-4.53-1.09-6.96-2.68-6.96-1.41,0-2.03,1.95-2.23,2.64Z"/>
        </g>
        <g>
          <path class="cls-2" d="m6.16,109.64h.81v10.1h2.25v.64h-2.25v2.31c0,.88.44,1.21,1.39,1.21h.32v.64H3.64v-.64h.32c.93,0,1.39-.32,1.39-1.21v-2.31H0v-.7l6.16-10.04Zm-.82,2.62l-4.59,7.48h4.59v-7.48Z"/>
          <path class="cls-2" d="m14.55,124.91c-1.37,0-2.53-.95-3.26-2.15-.83-1.37-1.21-3.82-1.21-5.67,0-4.23,1.81-7.46,4.47-7.46,2.05,0,4.47,2.21,4.47,7.63,0,4.87-2.05,7.63-4.47,7.63Zm-2.23-11.95c-.28.99-.46,2.66-.46,4.31,0,4.43,1.05,6.96,2.68,6.96,1.37,0,1.99-1.83,2.21-2.58.28-1.01.48-2.7.48-4.37,0-4.53-1.09-6.96-2.68-6.96-1.41,0-2.03,1.95-2.23,2.64Z"/>
        </g>
        <g>
          <path class="cls-2" d="m1.81,21.9l-.18,5.01c.86-.76,1.61-1.37,3.08-1.37,2.86,0,4.23,2.37,4.23,4.55,0,2.88-2.29,5.13-4.91,5.13-2.27,0-3.76-1.69-3.76-2.92,0-.76.48-1.23,1.15-1.23.6,0,1.03.4,1.03,1.03,0,.2-.02.28-.1.6-.04.16-.06.44-.06.56,0,.86.9,1.29,1.69,1.29,1.61,0,3.12-1.53,3.12-4.19,0-2.53-1.33-3.92-2.78-3.92-.8,0-2.01.44-3.1,1.73l-.3-.16.3-7.67h6.92l-.4,1.57H1.81Z"/>
          <path class="cls-2" d="m14.55,35.22c-1.37,0-2.53-.95-3.26-2.15-.83-1.37-1.21-3.82-1.21-5.67,0-4.23,1.81-7.46,4.47-7.46,2.05,0,4.47,2.21,4.47,7.63,0,4.87-2.05,7.63-4.47,7.63Zm-2.23-11.95c-.28.99-.46,2.66-.46,4.31,0,4.43,1.05,6.96,2.68,6.96,1.37,0,1.99-1.83,2.21-2.58.28-1.01.48-2.7.48-4.37,0-4.53-1.09-6.96-2.68-6.96-1.41,0-2.03,1.95-2.23,2.64Z"/>
        </g>
      </g>
      <g>
        <path class="cls-2" d="m52.14,491.64c-.34,0-.51-.13-1.17-.64-2.11-1.66-2.9-1.98-4.01-2.3.75-.15,1.56-.3,2.6-.3,2.73,0,3.63,1.22,3.63,2.09,0,.55-.3,1.15-1.05,1.15Zm1.69-4.95c-.41,0-.68-.23-.96-.49-2.05-1.83-2.75-2.35-3.93-2.69.53-.09,1.07-.19,1.83-.19,2.26,0,4.03.94,4.03,2.2,0,.43-.23,1.17-.98,1.17Zm-.19,11.18c-1.04.73-1.15.81-1.66,1.41-.04.06-.21.23-.49.23-.26,0-2.47-1.07-2.47-3.37,0-.26.04-.41.11-.66.49.68,1.32,1.26,1.66,1.26,1.56,0,8.9-5.82,11.8-9.75l.15.06c-1.13,3.46-4.65,7.66-9.09,10.81Z"/>
        <path class="cls-2" d="m79.88,490.19c-.15,0-2.18-.23-2.43-.26-.53-.06-.98-.09-1.47-.09-.41,0-1.02,0-2.84.15.19.13.98.62,1.15.75.06.06.19.21.19.34,0,.15-.06.23-.41.53-.11.11-.19.3-.36.81-1.15,3.52-3.78,6.93-7.12,7.85l-.11-.11c2.94-2.24,5.12-7.4,5.12-9.09,0-.51-.11-.62-.36-.87-2.43.36-2.94.58-4.12,1.07-.3.13-.49.19-.77.19-.73,0-2.05-1.49-2.05-2.58,0-.41.11-.7.21-.98.45.68.94,1.37,2.13,1.37h.19c.09,0,4.93-.53,5.12-.55,1.64-.19,4.82-.51,4.97-.55.21-.06,1.09-.34,1.28-.34.68,0,2.47.49,2.47,1.6,0,.77-.58.77-.81.77Zm-4.78-4.35c-1.49.04-1.56.06-5.4.51-.11.02-.28.04-.45.04-1.3,0-1.86-1.43-1.86-2.09,0-.17.02-.28.09-.49.73.85,1.92.9,2.47.9.96,0,2.58-.17,3.93-.53.09-.02,1.26-.32,1.3-.32.64,0,1.88.32,1.88,1.09,0,.83-.73.85-1.96.9Z"/>
        <path class="cls-2" d="m92.4,488.1c-.32.15-.58.38-.68.49-1.69,1.79-1.88,2.01-2.41,2.52.64.34.92.49.92.75,0,.11-.15.58-.17.66-.02.09-.11,1.09-.11,1.79,0,.75.13,4.12.13,4.8,0,.34,0,1.3-.87,1.3-.68,0-1.07-1.3-1.07-1.54,0-.17.13-.92.15-1.07.13-1.17.17-3.75.17-4.5,0-.6,0-.83-.17-1.26-2.09,1.77-4.01,3.03-5.93,3.58l-.06-.21c3.73-2.37,8.15-7.7,8.15-8.64,0-.38-.26-.58-.87-1.02.23-.06.38-.09.58-.09,1.34,0,2.84,1.54,2.84,1.92,0,.17-.13.3-.58.51Z"/>
        <path class="cls-2" d="m111.88,490.19c-.15,0-2.18-.23-2.43-.26-.53-.06-.98-.09-1.47-.09-.41,0-1.02,0-2.84.15.19.13.98.62,1.15.75.06.06.19.21.19.34,0,.15-.06.23-.41.53-.11.11-.19.3-.36.81-1.15,3.52-3.78,6.93-7.12,7.85l-.11-.11c2.94-2.24,5.12-7.4,5.12-9.09,0-.51-.11-.62-.36-.87-2.43.36-2.94.58-4.12,1.07-.3.13-.49.19-.77.19-.73,0-2.05-1.49-2.05-2.58,0-.41.11-.7.21-.98.45.68.94,1.37,2.13,1.37h.19c.09,0,4.93-.53,5.12-.55,1.64-.19,4.82-.51,4.97-.55.21-.06,1.09-.34,1.28-.34.68,0,2.47.49,2.47,1.6,0,.77-.58.77-.81.77Zm-4.78-4.35c-1.49.04-1.56.06-5.4.51-.11.02-.28.04-.45.04-1.3,0-1.86-1.43-1.86-2.09,0-.17.02-.28.09-.49.73.85,1.92.9,2.47.9.96,0,2.58-.17,3.93-.53.09-.02,1.26-.32,1.3-.32.64,0,1.88.32,1.88,1.09,0,.83-.73.85-1.96.9Z"/>
        <path class="cls-2" d="m128.79,490.13c-.45.28-.51.38-1.02,1.45-.9,1.9-1.96,4.16-4.65,6.25-1.19.94-3.37,2.33-5.82,2.56l-.02-.15c2.22-1.13,7.17-4.84,8.66-10.58-3.16.19-6.87,1.02-7.49,1.26-.13.04-.83.36-.94.36-.68,0-2.11-1.43-2.11-2.73,0-.36.09-.62.26-.96.77,1.43,1.75,1.43,2.39,1.43,1.41,0,7.59-.62,8.02-.79.15-.11.77-.58.9-.66.09-.06.17-.08.3-.08.32,0,2.13,1.43,2.13,1.98,0,.28-.19.43-.6.66Zm-3.18-4.16c-1.26,0-4.14.26-5.31.47-.96.17-1.07.19-1.32.19-.81,0-1.86-1.15-1.86-2.35,0-.13.02-.19.06-.41.92.9,1.88.94,2.69.94,2.37,0,4.2-.47,4.65-.62.49-.17.9-.3,1.09-.3.55,0,2.18.43,2.18,1.32,0,.7-.77.73-2.18.75Z"/>
        <path class="cls-2" d="m146.65,498.92c-.55,0-.85-.45-1.09-.83-1.86-3.03-2.56-4.18-4.37-5.65-2.62,3.18-5.89,5.89-9.9,6.7l-.04-.17c5.55-2.71,10.43-10.13,11.18-12.84-1.24.23-4.2.94-5.14,1.41-.9.47-1,.51-1.17.51-.53,0-1.77-1.26-1.77-2.58,0-.41.04-.79.19-1.15.68,1.11,1.22,1.45,2.01,1.45.85,0,5.61-.53,6.08-.94.11-.09.53-.51.64-.58.08-.06.15-.09.28-.09.26,0,2.2,1.58,2.2,1.98,0,.23-.11.32-.51.51-.41.17-.53.28-.75.64-1.07,1.96-1.62,2.97-3.01,4.78,2.58.92,4.35,2.39,5.16,3.16.58.58,1.19,1.26,1.19,2.24,0,.79-.47,1.45-1.17,1.45Z"/>
        <path class="cls-2" d="m73.31,517.36c-.68,0-.85-.49-1.17-1.39-.09-.26-.34-1-.73-1.41,0,2.92,0,6.25.02,8.77,0,.3.04,1.66.04,1.92,0,1.22-1.43,1.28-1.45,1.28-.81,0-.81-.53-.81-.83,0-.19.06-.98.06-1.15.02-1.09.11-5.87.15-6.85-.26.45-1.51,2.71-3.31,4.12l-.13-.13c1.49-2.39,2.77-6.78,3.09-9.3-1.3,0-1.79.02-2.45.15l-.36-.79c1.15.11,2.41.13,3.2.13-.06-3.31-.17-3.69-.47-4.88l2.65.7c.32.09.38.15.38.32,0,.19-.06.23-.6.58-.02.26-.02,2.37-.02,3.29h.13l.49-1.09c.09-.17.21-.26.32-.26.15,0,.26.09.38.21l1.09,1.09c.13.13.21.19.21.32,0,.19-.19.23-.32.23h-2.3v1.6c1.94.58,2.9,1.3,2.9,2.33,0,.68-.53,1.05-1,1.05Zm12.14.96h-3.52l1.26.58c.08.04.34.17.34.36,0,.26-.23.36-.81.58-.21.51-.55,1.41-1.43,2.5,2.56.98,3.29,1.77,3.29,2.71,0,.62-.49,1.17-1.11,1.17-.38,0-.73-.13-1.51-.94-.66-.66-1.39-1.28-1.86-1.64-1.09.98-2.92,2.41-7.64,2.77l-.02-.15c2.3-.75,4.48-1.96,6.14-3.73-.77-.49-1.32-.79-1.96-1.07-.58,1.28-.66,1.49-1.28,1.49-.04,0-1.34,0-1.34-.87,0-.23.09-.41.19-.62.53-1.02,1.17-2.22,1.54-3.14h-.43c-1.43,0-1.86.09-2.26.15l-.36-.79c.98.09,1.96.13,2.92.13h.36c.47-1.17,1.02-2.47,1.07-3.6l2.24.83c.21.09.41.15.41.38s-.19.32-.62.49c-.28.66-.55,1.26-.83,1.9h4.24l.87-1.34c.11-.17.21-.28.32-.28s.23.09.38.23l1.54,1.34c.09.09.21.19.21.34,0,.21-.21.21-.34.21Zm-9.54-4.93c-.85,0-.92-.36-1.17-1.64-.15-.73-.41-1.92-1.13-2.94l.13-.13c2.22.9,3.31,2.39,3.31,3.52,0,.83-.64,1.19-1.13,1.19Zm2.09,4.93c-.32.75-.83,1.9-1.26,2.84.43.04,1.17.13,2.52.51.58-.83,1.02-1.66,1.45-3.35h-2.71Zm1.3-6.04c-.79,0-.88-.36-1.17-1.62-.21-.9-.6-2.43-1.05-3.01l.13-.11c1,.45,3.18,1.62,3.18,3.43,0,.9-.53,1.3-1.09,1.3Zm5.59-1.94c-1.13,1.45-2.65,3.03-4.69,4.37l-.09-.11c1.3-2.45,2.54-4.93,2.65-6.76l2.54,1.71c.19.13.3.26.3.38,0,.41-.34.43-.7.41Z"/>
        <path class="cls-2" d="m106.76,525.06h-16.32c-1.3,0-1.77.04-2.3.15l-.34-.79c1.28.11,2.79.13,3.03.13h4.63c.06-3.03,0-13.61-.06-14.95-.06-1.15-.21-1.69-.34-2.2l3.16.79c.15.04.36.09.36.32,0,.21-.11.32-.7.77-.02.88-.02,4.78-.02,5.57h3.6l1.07-1.64c.11-.15.17-.26.3-.26s.3.15.41.23l1.81,1.62c.13.11.21.21.21.32,0,.21-.19.23-.34.23h-7.06c-.02,6.29-.02,8.06,0,9.19h5.42l1.13-1.69c.15-.21.23-.28.34-.28s.23.09.38.23l1.77,1.69c.11.11.19.19.19.32,0,.21-.17.23-.32.23Z"/>
        <path class="cls-2" d="m119.79,508.74c-.02.64-.06,1.56-.06,3.58,0,1.75.11,9.45.11,11.03,0,1.77,0,2.92-3.01,3.39-.34-1.28-.73-2.41-2.6-3.05l.04-.17c.41.02,2.24.19,2.62.19.66,0,.75-.51.75-1.11,0-2.39-.04-6.23-.04-8.62-.15.19-.58.38-.75.45-.7,3.48-3.05,8.02-8.08,10.28l-.11-.15c.98-.92,3.37-3.37,4.59-6.29.85-2.03,1.28-3.82,1.39-4.8h-2.54c-1.3,0-1.77.06-2.3.15l-.34-.79c1.28.13,2.79.13,3.03.13h2.11l.7-.83c.11-.13.19-.21.3-.21s.19.06.34.21l1.49,1.37c.09.09.13.13.17.19-.02-4.93-.02-5.1-.47-6.66l3.16.66c.19.04.38.09.38.32,0,.26-.3.45-.88.73Zm9.19,13.46c-1.32.28-1.73.66-2.79,1.98-4.22-2.71-5.87-8.49-6.14-13.57h.17c.11.66.36,2.37,1.34,4.46.73-.73,2.52-2.71,3.01-4.59l2.69,1.9c.11.09.17.19.17.32,0,.38-.45.38-.6.38-.13,0-.26,0-.49-.04-1.3.98-2.65,1.88-4.48,2.65,1.6,3.07,4.22,5.44,7.17,6.36l-.04.15Z"/>
      </g>
      <g>
        <path class="cls-2" d="m175.06,482.36v15.03h-.58v-15.77h4.6v.75h-4.02Z"/>
        <path class="cls-2" d="m182.68,491.3c-.22,0-.96,0-1.62.16l-.28-.69c1.01.1,1.89.12,2.14.12h.54c0-1.02-.01-1.79-.12-2.5l1.26.43c.11.04.19.12.19.24s-.07.24-.43.47c-.03.38-.04.68-.06,1.35h1.14l.47-.62c.11-.14.18-.23.24-.23.08,0,.19.1.26.17l.62.64c.07.07.14.16.14.26,0,.16-.12.19-.22.19h-2.65c-.01.16-.01.29-.01.85.72.12,1.93.59,1.93,1.66,0,.49-.28.71-.51.71-.33,0-.47-.4-.57-.69-.12-.38-.35-1.02-.85-1.47,0,.68.1,3.61.1,4.2,0,.54-.24.75-.65.75-.31,0-.43-.17-.43-.49,0-.23.17-3,.17-3.47,0-.14-.01-.83-.01-.95-.53,1-1.71,2.63-3.16,3.47l-.06-.1c1.39-1.56,2.36-3.52,2.76-4.45h-.32Zm3.08-3.36l.42-.61c.1-.14.15-.23.21-.23.1,0,.18.12.25.19l.57.61c.07.07.14.17.14.28,0,.16-.11.17-.21.17h-4.59c-.24,0-.96,0-1.64.16l-.26-.68c1.01.09,1.9.1,2.12.1h1.53c.14-.36.8-2.22.75-3.57l1.25.87c.1.07.14.16.14.28,0,.29-.29.31-.5.33-.14.24-.85,1.35-1.43,2.1h1.26Zm-.31-4.13l.49-.66c.07-.1.17-.21.22-.21.08,0,.17.09.25.17l.61.66c.08.09.14.16.14.28,0,.16-.11.17-.21.17h-3.95c-.24,0-.96,0-1.64.16l-.26-.69c.71.09,1.41.12,2.12.12h.44c.01-.76-.03-1.54-.22-2.37l1.4.47c.12.03.21.1.21.24,0,.17-.19.35-.47.54,0,.17-.03.88-.03,1.13h.9Zm-3.29.85c.51.35,1.54,1.11,1.54,2.12,0,.47-.22.76-.51.76-.37,0-.54-.29-.61-.99-.06-.57-.12-1.06-.51-1.8l.1-.09Zm10.1-2.04c.06.07.08.14.08.24s-.07.21-.22.21c-.1,0-.21-.03-.54-.14-.87.29-2.57.49-2.94.5-.01,1.06-.03,2.77-.04,3.93h2.84l.51-.81c.06-.1.14-.23.24-.23.04,0,.17.09.25.19l.72.8c.07.07.14.17.14.28,0,.17-.12.19-.21.19h-2.09c0,1.09.07,5.65.07,5.75,0,.47.07,2.51.07,2.98,0,.55-.42.8-.75.8s-.37-.23-.37-.45c0-.1,0-.29.01-.5.06-1.39.1-4.06.1-6.85,0-.52-.01-1.14-.03-1.73h-1.5c-.03,4.06-.49,7.11-3.19,9.08l-.08-.1c1.75-2.25,2.37-4.13,2.37-10.37,0-1.06-.01-3.17-.22-4.07l1.23.75c.46-.16,1.91-.69,2.51-1.63l1.04,1.18Z"/>
        <path class="cls-2" d="m198.35,486.43c-.28.59-.62,1.33-1.05,2.15l.5.21c.08.03.25.1.25.29,0,.16-.04.19-.36.47-.01,1,.03,5.93.03,7.04,0,.49-.39.76-.75.76-.29,0-.35-.19-.35-.42,0-.19.06-1.14.06-1.37.06-1.94.1-4.89.07-6-.5.9-1.37,2.31-2.58,3.28l-.07-.09c.62-.87,3.38-5.82,3.36-7.77l1.19.73c.11.07.19.21.19.35,0,.24-.17.28-.49.36Zm7.34-1.59c-.26.14-.42.23-1.44,1.04l-.07-.12c.43-1.09.49-1.21.6-1.68h-8.11c-.01,1.96-1,2.29-1.26,2.29-.37,0-.57-.38-.57-.68,0-.47.24-.68.69-1.07.71-.62.8-1.39.86-1.89h.08c.07.26.12.49.18.94h3.58c-.01-1.02-.06-1.25-.22-2.18l1.37.42c.07.02.22.1.22.26s-.1.26-.42.55v.95h3.47l.49-.43c.12-.1.22-.21.29-.21.12,0,.22.12.31.23l.74.88c.07.07.12.17.12.29,0,.28-.08.38-.9.42Zm.93,2.5h-3.3c-.4.8-1.07,1.73-1.42,2.15h2.46l.29-.4c.11-.16.19-.28.28-.28s.19.1.26.17l.61.57c.06.05.14.16.14.26,0,.12-.07.23-.5.66-.03.94.04,3.85.08,4.94,0,.17.06.88.06,1.02,0,.59-.35.88-.67.88-.4,0-.44-.33-.4-1.02h-3.63c.01.33.04,1.06-.65,1.06-.39,0-.39-.35-.39-.47,0-.28.06-1.47.06-1.73.01-.9.03-2.13.03-3.54,0-1.79-.01-1.99-.11-2.84l1.22.71h.6c.11-.43.32-1.23.39-2.15h-1.26c-.35,0-1.01.02-1.64.16l-.28-.69c.96.1,1.94.12,2.14.12h4.11l.5-.73c.07-.09.14-.21.21-.21s.18.09.26.17l.64.71c.1.1.14.19.14.28,0,.17-.11.19-.21.19Zm-2.11,2.57h-3.66v2.63h3.66v-2.63Zm0,3.05h-3.65v2.93h3.65v-2.93Z"/>
        <path class="cls-2" d="m208.53,497.25v-.75h4.02v-15.03h.58v15.77h-4.6Z"/>
        <path class="cls-2" d="m215.74,495.93c-.29,0-.46-.26-.46-.64,0-.33.47-1.7.53-1.99.06-.29.04-.54.03-.75l.12-.02c.24.49.51,1.14.51,2.06,0,.47-.11,1.34-.74,1.34Zm5.12-5.04c-.19,2.7-.62,4.16-.85,4.78-.32.87-.82,1.21-1.5,1.44-.18-1.08-.85-1.54-1.14-1.72l.03-.12c.78.19,1.3.19,1.35.19.28,0,.39-.03.54-.45.4-1.13.61-3.38.61-4.52h-3.09c.01.28-.01.85-.6.85-.28,0-.35-.17-.35-.47,0-.1.03-.52.03-.61.06-1.09.07-4.11.07-5.3,0-.61,0-1.85-.14-2.88l1.04.64h2.58l.33-.5c.1-.14.17-.23.24-.23.08,0,.15.09.28.19l.54.5c.1.09.15.21.15.28,0,.12-.12.17-.22.17h-1.91v2.01h.6l.26-.42c.11-.17.15-.24.22-.24s.15.09.28.19l.44.42c.07.07.15.16.15.28,0,.16-.12.19-.22.19h-1.73v1.99h.61l.33-.49c.1-.14.15-.21.22-.21.08,0,.14.05.25.17l.42.49c.08.09.12.21.12.28,0,.1-.08.17-.21.17h-1.75v2.1h.93l.36-.5c.08-.12.15-.21.22-.21s.15.07.28.23l.54.62c.06.07.1.14.1.23,0,.21-.32.4-.42.45Zm-3.51,4.3c-.46,0-.46-.73-.46-1.09,0-1.07,0-1.44-.15-1.91l.08-.05c.1.14.6.76.67.92.33.64.39,1.09.39,1.33,0,.5-.31.8-.53.8Zm.67-12.05h-1.22v2.01h1.22v-2.01Zm0,2.43h-1.22v1.99h1.22v-1.99Zm0,2.41h-1.22v2.1h1.22v-2.1Zm.49,6.08c-.36,0-.4-.29-.51-1.28-.04-.38-.11-.83-.26-1.27l.06-.05c.74.8,1.15,1.27,1.15,1.94,0,.3-.14.66-.43.66Zm.78-1.28c-.28,0-.33-.28-.49-.97-.11-.45-.22-.64-.32-.8l.08-.1c.65.38,1.07.75,1.07,1.32,0,.28-.12.55-.35.55Zm9.18,3.19c-.67.05-1.15.78-1.32,1.02-1.55-1.58-2.7-4.56-2.7-8.65h-1.48c-.14,4.26-.82,6.88-2.84,8.7l-.07-.07c1.94-2.63,2.01-7.47,2.01-11.08,0-2.15-.1-2.72-.24-3.67l1.32.73h2.86l.4-.49c.08-.1.15-.16.22-.16s.12.04.24.16l.55.59c.08.09.12.17.12.28,0,.12-.26.36-.43.5-.01.29-.03.62-.03,1.09,0,.55.08,2.98.08,3.52s-.43.69-.65.69c-.44,0-.42-.38-.4-.8h-1.42c.32,3.78,2.32,6.78,3.79,7.52v.1Zm-2.34-12.6h-3.08c-.01.66-.07,3.85-.07,4.56h3.15v-4.56Z"/>
      </g>
      <g>
        <path class="cls-2" d="m264.77,482.36v15.03h-.58v-15.77h4.6v.75h-4.02Z"/>
        <path class="cls-2" d="m280.19,483.38l.39-.45c.08-.09.12-.19.21-.19s.14.07.21.12l.75.69c.08.09.15.16.15.3,0,.24-.46.5-.58.57-.04,1.7-.01,6.67.06,9.5,0,.26.08,1.49.08,1.73,0,.71-.49.9-.79.9-.44,0-.42-.31-.39-1.01h-7.85c0,.1,0,.62-.01.69-.1.4-.51.54-.75.54-.19,0-.42-.1-.42-.49,0-.21.04-1.09.04-1.28.06-2.51.1-5.03.1-7.52,0-3.4-.07-4-.19-5.01l1.32.9h7.68Zm-7.77.42v5.37h3.4v-5.37h-3.4Zm0,5.79v5.55h3.4v-5.55h-3.4Zm7.85-.42v-5.37h-3.5v5.37h3.5Zm0,5.96v-5.55h-3.5v5.55h3.5Z"/>
        <path class="cls-2" d="m294.07,482.69l.4-.42c.08-.09.17-.16.25-.16.06,0,.15.07.19.12l.6.64c.07.07.15.17.15.28,0,.21-.15.33-.46.59-.01.95-.03,2.95,0,6.07,0,1.01.06,5.44.06,6.34,0,.57-.32.94-.68.94-.43,0-.4-.4-.37-1.01h-8.61c.01.21,0,.49-.01.57-.04.38-.44.59-.69.59-.29,0-.36-.24-.36-.54,0-.23.07-1.27.07-1.47.04-1.16.06-2.01.06-8.25,0-3.17-.03-4.04-.14-5.01l1.19.71h8.36Zm-8.47.42v12.57h8.61v-12.57h-8.61Zm7.17,8.42c.04.05.08.12.08.21,0,.23-.15.26-.26.26-.06,0-.14,0-.25-.02-.44.23-.58.28-1.05.47.58.26,1.82.83,1.82,1.73,0,.31-.18.57-.43.57-.17,0-.24-.05-.78-.8-.47-.64-1.08-1.27-1.68-1.68,0,.33.04,1.94.04,2.11,0,.52-.39.78-.64.78-.22,0-.31-.24-.31-.52,0-.52.06-2.79.06-3.26-.44.66-1.69,2.13-3.48,2.84l-.06-.1c1.21-1.01,2.39-2.29,3.16-3.66h-.82c0,.47-.31.66-.55.66-.36,0-.36-.31-.36-.5,0-.09.06-1.51.06-1.79,0-.54-.01-.9-.1-1.37l1.04.52h3.15l.25-.29c.07-.09.14-.17.19-.17s.14.07.19.14l.49.54c.07.07.11.16.11.24,0,.07-.08.17-.32.43,0,.23.03,1.21.03,1.4,0,.36-.11.47-.22.57l.64.68Zm-1.33-6.57l.29-.52c.07-.14.14-.21.21-.21.06,0,.14.05.26.17l.49.52c.07.07.15.16.15.26,0,.16-.12.19-.22.19h-2.39v1.28h1.91l.4-.59c.08-.12.14-.21.22-.21s.17.07.26.17l.56.59c.08.09.14.16.14.26,0,.17-.12.19-.21.19h-5.74c-.14,0-1,0-1.64.16l-.28-.69c.71.09,1.43.12,2.14.12h1.36v-1.28h-.94c-.24,0-.97,0-1.64.16l-.28-.69c.86.09,1.87.12,2.14.12h.72c-.03-.62-.17-1.2-.25-1.54l1.29.42c.08.04.18.07.18.21,0,.19-.14.29-.35.45v.47h1.21Zm.01,5.1v-1.65h-3.27v1.65h3.27Zm-1.23.42c-.01.75-.01,1.21-.01,1.63.19.03.37.07.79.23.28-.29.79-1.01.98-1.4-.32.1-.53-.09-.53-.45h-1.23Z"/>
        <path class="cls-2" d="m301.12,484.73l.42-.61c.12-.17.15-.21.22-.21.06,0,.11.03.25.17l.6.61c.08.09.14.16.14.28,0,.14-.11.17-.21.17h-3.72c-.62,0-.94.05-1.15.1l-.18-.61c.68.07,1.26.09,1.51.09h2.12Zm-.5,2.12l.33-.55c.08-.12.14-.23.22-.23.07,0,.18.12.25.19l.53.55c.07.07.14.16.14.26,0,.16-.11.19-.21.19h-2.39c-.39,0-.82.02-1.15.1l-.18-.61c.69.07,1.48.09,1.51.09h.94Zm.07,2.08l.32-.59c.06-.09.14-.21.22-.21s.21.14.25.17l.54.59c.1.1.14.17.14.26,0,.14-.1.19-.22.19h-2.37c-.67,0-.94.05-1.15.1l-.19-.61c.76.07,1.4.09,1.51.09h.96Zm-.31-6.33l.39-.57c.12-.17.15-.21.22-.21.08,0,.21.12.25.17l.53.57c.07.07.14.14.14.26,0,.16-.1.19-.21.19h-2.12c-.39,0-.82.02-1.15.1l-.18-.61c.65.05,1.21.09,1.46.09h.68Zm.51,8.6l.31-.55c.04-.07.1-.17.18-.17.06,0,.12.05.21.12l.53.45c.1.09.15.16.15.26,0,.23-.36.49-.42.54,0,.45.06,2.43.06,2.84,0,.5-.24.81-.64.81-.12,0-.28-.12-.28-.45h-1.64c0,.26.03,1.37.01,1.59-.04.59-.57.59-.62.59-.22,0-.39-.07-.39-.42,0-.07.07-1.04.07-1.23.04-.97.06-2.98.06-3.57,0-.55-.01-.8-.11-1.66l1.15.85h1.37Zm-1.53.42v3.02h1.62v-3.02h-1.62Zm4.56-8.6c0,3.64-.01,5.08-.01,5.41-.11,5.01-.85,6.92-2.72,8.63l-.07-.1c1.35-1.73,1.91-3.87,1.91-9.71,0-1.49-.01-4.04-.26-5.36l1.28.71h4.13l.36-.43c.07-.09.14-.16.19-.16.04,0,.12.07.21.14l.64.57c.07.05.15.17.15.29,0,.16-.15.3-.49.57-.03,1.39-.04,2.79-.04,4.16,0,1.14.04,6.19.04,7.21,0,.69,0,1.8-1.5,2.06-.08-.92-.92-1.47-1.29-1.72v-.09c.39.03.97.1,1.35.1.5,0,.5-.14.5-.71v-11.6h-4.38Zm2.86,2.24l.29-.47c.06-.09.11-.16.18-.16s.15.07.25.17l.37.42c.06.07.14.14.14.26,0,.16-.1.19-.21.19h-1.44v1.84h.42l.31-.59c.04-.07.1-.17.19-.17.07,0,.17.1.25.19l.49.54c.06.07.14.16.14.26,0,.14-.1.19-.22.19h-2.46c-.68,0-.96.05-1.15.1l-.18-.61c.24.02.74.07,1.46.09,0-.47-.03-1.37-.03-1.84-.08,0-.72-.02-1.17.1l-.18-.61c.19.02.71.07,1.35.07-.04-1.23-.12-1.58-.19-1.92l1.18.42c.08.03.21.09.21.24,0,.23-.22.35-.4.45v.83h.42Zm-.24,4.25l.3-.38c.08-.1.15-.19.19-.19.06,0,.14.09.22.17l.47.49c.06.05.12.1.12.21s-.14.24-.4.5c0,.5.07,2.77.07,3.22s-.31.69-.61.69c-.35,0-.33-.19-.33-1.02h-1.17c0,.16.03.85.01.99-.03.33-.18.59-.58.59-.35,0-.35-.33-.35-.47,0-.57.06-3.15.06-3.67,0-.9-.03-1.18-.11-1.79l1.07.66h1.03Zm-1.12.42v2.86h1.17v-2.86h-1.17Z"/>
        <path class="cls-2" d="m323.45,485.36h-6.82c-.58,1.49-1.01,2.43-1.19,2.83l.53.28h1.87c-.03-1.58-.07-1.8-.33-2.69l1.43.43c.21.07.28.16.28.28,0,.17-.07.26-.46.5v1.47h2.18l.36-.45c.1-.12.17-.19.24-.19s.14.05.26.17l.51.5c.11.12.18.21.18.29,0,.14-.08.24-.47.54-.03,1.21.08,3.14.08,4.35,0,.75,0,1.66-1.54,2.08-.1-.88-.62-1.33-.98-1.63v-.14c.24.03.68.12,1.18.12.31,0,.33-.16.33-.61,0-.95,0-3.76-.03-4.63h-2.3c.01,2.34.01,4.89.1,7.02.01.21.03.57.03.64,0,.92-.58.92-.69.92-.32,0-.42-.24-.42-.54,0-.1.01-.57.03-.66.03-1.07.07-6.31.06-7.38h-2.08c0,.99.07,5.3.07,6.19,0,.78-.54.83-.68.83-.37,0-.4-.31-.4-.5,0-.23.07-1.51.08-1.8.01-.64.01-.99.01-4.21-1.32,2.48-2.86,3.83-3.59,4.44l-.08-.14c1.89-2.32,3.66-6.17,4.41-8.32h-2.3c-.25,0-.96,0-1.64.16l-.28-.69c.89.09,1.75.12,2.14.12h2.23c.83-2.55.83-2.95.82-3.8l1.47.94c.11.07.17.16.17.28,0,.17-.14.29-.62.43-.33.94-.54,1.53-.79,2.15h4.73l.62-.9c.1-.16.17-.23.25-.23.07,0,.18.09.32.23l.82.87c.07.07.14.17.14.28,0,.12-.07.17-.21.17Z"/>
        <path class="cls-2" d="m325.47,497.25v-.75h4.02v-15.03h.58v15.77h-4.6Z"/>
        <path class="cls-2" d="m332.68,495.93c-.29,0-.46-.26-.46-.64,0-.33.47-1.7.53-1.99.06-.29.04-.54.03-.75l.12-.02c.24.49.51,1.14.51,2.06,0,.47-.11,1.34-.74,1.34Zm5.12-5.04c-.19,2.7-.62,4.16-.85,4.78-.32.87-.82,1.21-1.5,1.44-.18-1.08-.85-1.54-1.14-1.72l.03-.12c.78.19,1.3.19,1.35.19.28,0,.39-.03.54-.45.4-1.13.61-3.38.61-4.52h-3.09c.01.28-.01.85-.6.85-.28,0-.35-.17-.35-.47,0-.1.03-.52.03-.61.06-1.09.07-4.11.07-5.3,0-.61,0-1.85-.14-2.88l1.04.64h2.58l.33-.5c.1-.14.17-.23.24-.23.08,0,.15.09.28.19l.54.5c.1.09.15.21.15.28,0,.12-.12.17-.22.17h-1.91v2.01h.6l.26-.42c.11-.17.15-.24.22-.24s.15.09.28.19l.44.42c.07.07.15.16.15.28,0,.16-.12.19-.22.19h-1.73v1.99h.61l.33-.49c.1-.14.15-.21.22-.21.08,0,.14.05.25.17l.42.49c.08.09.12.21.12.28,0,.1-.08.17-.21.17h-1.75v2.1h.93l.36-.5c.08-.12.15-.21.22-.21s.15.07.28.23l.54.62c.06.07.1.14.1.23,0,.21-.32.4-.42.45Zm-3.51,4.3c-.46,0-.46-.73-.46-1.09,0-1.07,0-1.44-.15-1.91l.08-.05c.1.14.6.76.67.92.33.64.39,1.09.39,1.33,0,.5-.31.8-.53.8Zm.67-12.05h-1.22v2.01h1.22v-2.01Zm0,2.43h-1.22v1.99h1.22v-1.99Zm0,2.41h-1.22v2.1h1.22v-2.1Zm.49,6.08c-.36,0-.4-.29-.51-1.28-.04-.38-.11-.83-.26-1.27l.06-.05c.74.8,1.15,1.27,1.15,1.94,0,.3-.14.66-.43.66Zm.78-1.28c-.28,0-.33-.28-.49-.97-.11-.45-.22-.64-.32-.8l.08-.1c.65.38,1.07.75,1.07,1.32,0,.28-.12.55-.35.55Zm9.18,3.19c-.67.05-1.15.78-1.32,1.02-1.55-1.58-2.7-4.56-2.7-8.65h-1.48c-.14,4.26-.82,6.88-2.84,8.7l-.07-.07c1.94-2.63,2.01-7.47,2.01-11.08,0-2.15-.1-2.72-.24-3.67l1.32.73h2.86l.4-.49c.08-.1.15-.16.22-.16s.12.04.24.16l.55.59c.08.09.12.17.12.28,0,.12-.26.36-.43.5-.01.29-.03.62-.03,1.09,0,.55.08,2.98.08,3.52s-.43.69-.65.69c-.44,0-.42-.38-.4-.8h-1.42c.32,3.78,2.32,6.78,3.79,7.52v.1Zm-2.34-12.6h-3.08c-.01.66-.07,3.85-.07,4.56h3.15v-4.56Z"/>
      </g>
      <g>
        <path class="cls-2" d="m563.04,11.09c-.63,0-.74-.41-1.06-1.51-.36-1.26-.59-1.58-.83-1.83-.02,6.96-.02,7.75.02,9.85,0,.34.09,1.78.09,2.07,0,.83-.63.95-1.01.95-.45,0-.72-.25-.72-.86,0-1.06.25-8.41.29-9.58-1.33,3.49-3.02,4.8-3.63,5.27l-.11-.09c1.8-2.88,3.18-6.99,3.65-9.8-.83,0-1.85.04-2.66.2l-.43-.88c.56.05,1.49.11,3.18.14-.09-3.67-.34-4.33-.59-4.85l2.37.63c.23.07.38.16.38.34,0,.25-.16.41-.81.83,0,.32,0,1.96-.02,3.04h.54l.5-.72c.11-.18.23-.29.36-.29.11,0,.27.09.41.25l.68.72c.14.14.23.29.23.41,0,.14-.14.18-.34.18h-2.37v1.96c.25.11,2.7,1.33,2.7,2.66,0,.43-.32.9-.81.9Zm3.18,5.3c-.92,1.33-2.95,2.75-4.1,3.25l-.11-.07c1.71-1.87,2.91-3.94,3.07-4.8l1.71.88c.16.09.29.18.29.36,0,.23-.18.38-.86.38Zm10.3-2.25h-6.24v1.74c0,.18.04,2.52.04,2.68,0,1.01-.14,1.94-2.25,2.25-.05-.47-.14-1.08-1.76-2.16v-.14c.2.02,1.56.18,1.83.18.52,0,.59-.2.59-.54.02-.56,0-3.38,0-4.01h-3.06c-.54,0-1.67.02-2.66.2l-.43-.9c1.76.16,3.07.16,3.45.16h7.87l.81-1.01c.16-.2.27-.29.38-.29s.27.09.45.27l1.1.99c.14.11.23.25.23.36,0,.16-.18.23-.34.23Zm-.27-11.97h-4.35v2.39h1.44l.45-.47c.18-.18.29-.25.41-.25s.25.07.43.2l.74.56c.11.09.23.2.23.32,0,.23-.27.45-.52.65,0,.43.07,2.59.07,3.06,0,.54-.47.97-1.04.97s-.56-.29-.52-.79h-7.6c.09.79-.36,1.15-1.04,1.15-.5,0-.5-.2-.5-.63,0-.47.04-2.88.04-3.43,0-.74,0-1.08-.2-2.19l1.76.83h1.51v-2.39h-1.1c-.61,0-1.67.02-2.66.2l-.45-.9c1.15.09,2.32.16,3.47.16h7.03l.65-.86c.14-.18.25-.27.38-.27.09,0,.25.09.45.25l1.01.83c.14.11.23.23.23.36,0,.18-.16.23-.34.23Zm-2.28,9.4h-6.04c-.56,0-1.65.02-2.66.2l-.45-.9c1.56.14,3.18.16,3.47.16h3.47l.68-.83c.16-.18.27-.27.38-.27s.23.09.41.25l.88.81c.14.11.2.25.2.36,0,.16-.14.23-.34.23Zm-6.4-6.47h-1.6v3.18h1.6v-3.18Zm2.98-2.93h-1.6v2.39h1.6v-2.39Zm0,2.93h-1.6v3.18h1.6v-3.18Zm4.85,14.29c-.56,0-.86-.41-1.83-1.8-.74-1.06-1.33-1.53-2.03-2.12l.04-.13c2.46.5,4.6,1.87,4.6,3.18,0,.41-.36.88-.79.88Zm-1.8-14.29h-1.69v3.18h1.69v-3.18Z"/>
        <path class="cls-2" d="m598.8,3.92h-16.02c-.23,0-1.62,0-2.66.2l-.45-.9c1.56.14,3.27.16,3.47.16h5.5c.02-.9.04-2.12-.5-3.38l2.5.77c.11.04.34.14.34.34,0,.29-.59.52-.72.56,0,.27-.02,1.46-.02,1.71h5.54l1.01-1.22c.13-.18.27-.29.36-.29.11,0,.32.16.41.25l1.33,1.19c.16.16.25.25.25.36,0,.2-.2.25-.34.25Zm-1.04,8.5c-.05.88.09,4.71.09,5.5,0,.7,0,2.25-2.75,2.84-.11-1.15-1.42-1.96-2.03-2.23v-.16c1.28.11,2.41.11,2.5.11.72,0,.72-.29.72-1.31,0-.27-.04-4.3-.09-5.18h-13.52c-.02.83-.02,1.06-.02,1.49,0,.88.07,4.67.07,5.43,0,.72,0,1.6-1.15,1.6-.47,0-.65-.25-.65-.68,0-.23.23-3.9.23-4.4,0-3.56,0-3.88-.23-5.05l2.01,1.06h12.94l.7-.77c.09-.11.2-.23.34-.23.11,0,.27.11.36.18l1.01.77c.18.14.23.23.23.32,0,.18-.07.25-.74.7Zm-3.25-5.95c0,.45.11,2.43.11,2.84,0,.54-.59.9-1.1.9s-.59-.36-.52-.97h-7.59c-.02.5-.05,1.19-1.22,1.19-.43,0-.45-.27-.45-.45,0-.14.04-.79.04-.92.02-.43.05-1.01.05-1.78s-.05-2.01-.11-2.7l1.8.88h7.35l.52-.59c.07-.07.2-.18.32-.18s.2.07.34.16l1.01.77c.09.07.16.16.16.27,0,.16-.09.27-.7.59Zm-1.35,7.91c0,.43.09,2.34.09,2.73,0,.54-.5.95-1.06.95-.52,0-.52-.27-.52-.88h-4.87c.05.52.09,1.26-.97,1.26-.56,0-.59-.32-.59-.54,0-.11.11-2.41.11-2.88,0-.77-.02-1.53-.2-2.3l1.8.95h4.53l.54-.63c.09-.11.18-.23.29-.23s.23.09.32.16l.88.68c.11.09.18.2.18.29,0,.18-.18.27-.54.45Zm-.14-8.38h-7.62v2.7h7.62v-2.7Zm-1.35,8.2h-4.87v2.43h4.87v-2.43Z"/>
        <path class="cls-2" d="m611.6,8.18h-4.91c-.02,1.56-.04,6.54-.07,8.43,3.11-.77,4.44-1.15,5.25-1.44l.04.18c-1.87,1.13-2.32,1.31-8.02,3.58-.09.05-.2.07-.29.11-.13.68-.25.79-.45.79-.14,0-.27-.18-.36-.32l-1.38-2.21c.32.05.52.07.79.07,1.06,0,2.07-.23,2.86-.41.02-1.94.04-10.5.04-12.24,0-2.7,0-2.93-.45-4.06l2.52.63c.16.05.41.14.41.34s-.14.34-.88.72c0,.27,0,.77-.02,5.27h2.23l.86-1.19c.11-.16.2-.27.34-.27s.34.18.41.25l1.22,1.17c.11.11.23.2.23.34,0,.2-.2.25-.36.25Zm6.22,11.38c-1.35,0-3.43-.02-4.03-.18-1.35-.38-1.35-1.24-1.35-2.5,0-1.78.16-9.67.16-11.29,0-3.52-.11-3.94-.43-4.71l2.41.68c.27.07.52.16.52.36,0,.23-.18.38-.86.77-.07,1.08-.11,5.93-.14,6.92,1.04-.65,2.75-2.16,4.01-3.67.56-.65.7-1.08.86-1.53l1.89,1.62c.09.09.23.23.23.34,0,.41-.27.41-1.08.38-1.8,1.33-4.33,2.7-5.93,3.29.02.92-.05,4.98-.05,5.81,0,2.12,0,2.16,2.64,2.16q2.95,0,3.74-4.1h.18c.29,3.02.36,3.16.56,3.38.07.07.43.34.5.43.09.11.11.25.11.36,0,1.49-2.86,1.49-3.94,1.49Z"/>
        <path class="cls-2" d="m641.48,14.72l.92-1.04c.11-.11.23-.29.36-.29.18,0,.29.14.43.25l1.26,1.04c.11.09.23.2.23.36,0,.2-.18.23-.34.23h-9.1c0,.54,0,1.06.02,1.56,0,.47.09,2.57.09,3,0,1.13-1.04,1.13-1.1,1.13-.54,0-.74-.47-.74-.79,0-.25.11-1.38.14-1.6.04-.97.09-1.92.09-3.29h-6.36c-.56,0-1.65.02-2.64.23l-.45-.9c1.4.11,2.77.14,3.45.14h5.97c-.02-1.22-.07-1.94-.43-2.97l2.19.59c.2.05.38.16.38.32,0,.2-.27.41-.59.65,0,.23,0,1.22-.02,1.42h6.24Zm-11.22-6.76c-.2.25-.43.5-.77.83-.41.41-2.21,2.12-2.57,2.46-.04.54-.09.92-.36.92-.13,0-.2-.07-.38-.32l-1.38-1.8c1.65-.11,4.53-1.69,5.36-2.21l.09.11Zm10.91-4.85l.7-.99c.09-.14.2-.32.38-.32s.29.14.43.23l1.33,1.04c.11.09.25.18.25.36,0,.2-.2.23-.36.23h-9.96l1.24.83c.09.05.2.16.2.32,0,.32-.5.32-.79.32-.29.23-1.67,1.17-1.94,1.35.68.36.81.86.81,1.22,0,.59-.38.9-.81.9-.47,0-.61-.27-.99-.97-.05-.07-.52-.97-1.46-1.76l.05-.07c.47.02,1.13.14,2.05.5.14-.2.99-1.74,1.19-2.64h-5.54c-.59,0-1.67.02-2.66.2l-.45-.9c1.56.14,3.18.16,3.47.16h5.39c-.02-1.69-.18-2.37-.59-3.11l2.55.68c.18.04.32.18.32.32,0,.23-.25.38-.65.68-.02.47-.02.95-.02,1.44h5.88Zm-15.69,1.28c1.35.27,3.22.97,3.22,2.32,0,.41-.27.92-.86.92-.5,0-.56-.14-1.1-1.26-.5-1.06-.83-1.4-1.31-1.89l.04-.09Zm10.23,4.12c1.01.29,3.43,1.38,3.43,2.75,0,.65-.41,1.06-.79,1.06-.61,0-.81-.61-1.13-1.35-.18-.41-.32-.65-.41-.83-2.43.77-4.53,1.33-5.81,1.67-.14.32-.23.61-.52.61-.16,0-.27-.14-.36-.27l-1.08-1.78c.36.02.68.07,1.19.07.74,0,1.28-.05,1.67-.07.88-.77,3.49-3.72,3.97-4.51.18-.32.29-.63.41-1.01l1.65,1.17c.11.09.18.2.18.34,0,.36-.68.38-1.01.41-.25.18-.45.36-2.39,1.92-.99.79-1.67,1.26-2.32,1.67,1.1-.09,1.42-.14,4.28-.45-.47-.79-.74-1.04-1.01-1.28l.07-.09Zm6.42-3.4c.14.09.25.2.25.38,0,.11-.11.23-.23.27-.09.02-.36.07-.54.09-.5.34-2.59,1.89-3.06,2.16l-.09-.04c.86-1.22,1.65-2.48,2.03-3.9l1.65,1.04Zm-2.91,3.29c.92.27,3.99,1.24,3.99,2.77,0,.5-.29,1.04-.83,1.04-.63,0-.86-.43-1.31-1.28-.04-.07-1.01-1.67-1.92-2.39l.07-.14Z"/>
      </g>
      <g>
        <path class="cls-2" d="m367.97,482.36v15.03h-.58v-15.77h4.6v.75h-4.02Z"/>
        <path class="cls-2" d="m383.4,494.25l.76-1.07c.07-.1.17-.23.24-.23.1,0,.15.09.25.19l.98,1.14c.07.09.12.19.12.26,0,.16-.1.19-.21.19h-9.99c-.24,0-.96,0-1.64.16l-.28-.75c1.01.1,1.9.1,2.14.1h7.61Zm-1.12-9.79l.61-1c.06-.1.11-.23.22-.23.06,0,.18.12.25.21l.98,1.04c.06.07.14.16.14.26,0,.17-.14.19-.22.19h-7.73c-.14,0-1,0-1.64.16l-.28-.75c.71.07,1.41.12,2.14.12h5.52Z"/>
        <path class="cls-2" d="m399.65,489.52h-5.59v5.65c0,.66,0,1.92-1.78,2.15-.04-.52-.14-1.13-1.62-1.98v-.12c.62.1,1.1.17,1.53.17.65,0,.85-.07.85-.73v-5.15h-3.83c-.25,0-.97,0-1.64.16l-.28-.69c.86.09,1.72.12,2.14.12h3.61v-1.75c0-1.28-.1-1.58-.24-2.05l1.29.45c1.01-1.86,1.21-2.18,1.39-2.65h-4.74c-.25,0-.96,0-1.64.16l-.26-.69c.86.09,1.71.12,2.12.12h4.6l.54-.59c.14-.14.17-.17.26-.17.06,0,.11.05.24.17l.97.99c.11.12.14.23.14.29,0,.26-.17.33-1.03.36-1.43,1.37-1.58,1.53-2.32,2.11.1.03.17.14.17.23,0,.23-.22.38-.47.57v2.44h3.51l.72-.99c.12-.16.15-.23.21-.23.07,0,.14.07.26.19l.96.99c.07.07.14.16.14.28,0,.16-.11.17-.21.17Z"/>
        <path class="cls-2" d="m413.44,496.19h-10.13c-.24,0-.98.02-1.62.16l-.28-.68c1.08.1,1.9.1,2.12.1h3.25v-6.64h-2.52c-.37,0-1.03.02-1.64.16l-.28-.68c.71.07,1.43.1,2.14.1h2.3v-5.22h-3.11c-.37,0-1.03.02-1.64.16l-.28-.69c.71.09,1.43.12,2.14.12h6.87l.62-1.02c.07-.1.15-.23.22-.23.08,0,.17.1.25.19l.83,1.02c.1.1.14.16.14.26,0,.19-.14.19-.21.19h-4.85v5.22h2.43l.64-.94c.08-.14.14-.23.22-.23s.17.09.26.21l.78.92c.08.1.14.17.14.28,0,.17-.14.17-.21.17h-4.26v6.64h3.76l.58-1.06c.06-.1.12-.24.22-.24.07,0,.17.1.25.19l.93,1.07c.07.07.14.17.14.26,0,.19-.14.19-.21.19Zm-3.09-2.41c-.4,0-.55-.49-.62-.73-.47-1.51-.86-1.98-1.18-2.36l.04-.1c.61.21,2.33.76,2.33,2.36,0,.43-.24.83-.57.83Z"/>
        <path class="cls-2" d="m418.01,483.57c.03,1.35.04,2.5.04,3.15,0,3.64-.04,8.32-2.9,10.12l-.06-.09c1.39-1.82,1.97-3.92,1.97-9.27,0-1.53-.03-3.8-.21-5.23l1.43.47c.18.05.28.17.28.31s-.1.31-.55.54Zm3.7.26c-.01.5-.03,1.47-.03,2.98,0,2.18.11,5.67.11,7.85,0,.85-.62.85-.74.85-.39,0-.4-.33-.4-.55,0-.17.07-1.77.07-2.03.03-1.21.06-2.24.06-5.5,0-1.4,0-3.61-.21-4.82l1.35.43c.12.03.24.14.24.24,0,.16-.08.29-.44.54Zm4.24-.4c-.04,2.36-.04,3.9-.04,4.91,0,1.2.1,6.54.1,7.63,0,.28,0,.99-.75.99-.43,0-.43-.4-.43-.55,0-.35.06-1.84.07-2.15.04-2.03.06-4.06.06-6.07,0-2.96-.01-4.04-.08-4.89-.04-.62-.1-.87-.17-1.2l1.48.57c.15.05.24.16.24.26,0,.21-.14.33-.47.5Z"/>
        <path class="cls-2" d="m428.92,497.25v-.75h4.02v-15.03h.58v15.77h-4.6Z"/>
        <path class="cls-2" d="m436.13,495.93c-.29,0-.46-.26-.46-.64,0-.33.47-1.7.53-1.99.06-.29.04-.54.03-.75l.12-.02c.24.49.51,1.14.51,2.06,0,.47-.11,1.34-.74,1.34Zm5.12-5.04c-.19,2.7-.62,4.16-.85,4.78-.32.87-.82,1.21-1.5,1.44-.18-1.08-.85-1.54-1.14-1.72l.03-.12c.78.19,1.3.19,1.35.19.28,0,.39-.03.54-.45.4-1.13.61-3.38.61-4.52h-3.09c.01.28-.01.85-.6.85-.28,0-.35-.17-.35-.47,0-.1.03-.52.03-.61.06-1.09.07-4.11.07-5.3,0-.61,0-1.85-.14-2.88l1.04.64h2.58l.33-.5c.1-.14.17-.23.24-.23.08,0,.15.09.28.19l.54.5c.1.09.15.21.15.28,0,.12-.12.17-.22.17h-1.91v2.01h.6l.26-.42c.11-.17.15-.24.22-.24s.15.09.28.19l.44.42c.07.07.15.16.15.28,0,.16-.12.19-.22.19h-1.73v1.99h.61l.33-.49c.1-.14.15-.21.22-.21.08,0,.14.05.25.17l.42.49c.08.09.12.21.12.28,0,.1-.08.17-.21.17h-1.75v2.1h.93l.36-.5c.08-.12.15-.21.22-.21s.15.07.28.23l.54.62c.06.07.1.14.1.23,0,.21-.32.4-.42.45Zm-3.51,4.3c-.46,0-.46-.73-.46-1.09,0-1.07,0-1.44-.15-1.91l.08-.05c.1.14.6.76.67.92.33.64.39,1.09.39,1.33,0,.5-.31.8-.53.8Zm.67-12.05h-1.22v2.01h1.22v-2.01Zm0,2.43h-1.22v1.99h1.22v-1.99Zm0,2.41h-1.22v2.1h1.22v-2.1Zm.49,6.08c-.36,0-.4-.29-.51-1.28-.04-.38-.11-.83-.26-1.27l.06-.05c.74.8,1.15,1.27,1.15,1.94,0,.3-.14.66-.43.66Zm.78-1.28c-.28,0-.33-.28-.49-.97-.11-.45-.22-.64-.32-.8l.08-.1c.65.38,1.07.75,1.07,1.32,0,.28-.12.55-.35.55Zm9.18,3.19c-.67.05-1.15.78-1.32,1.02-1.55-1.58-2.7-4.56-2.7-8.65h-1.48c-.14,4.26-.82,6.88-2.84,8.7l-.07-.07c1.94-2.63,2.01-7.47,2.01-11.08,0-2.15-.1-2.72-.24-3.67l1.32.73h2.86l.4-.49c.08-.1.15-.16.22-.16s.12.04.24.16l.55.59c.08.09.12.17.12.28,0,.12-.26.36-.43.5-.01.29-.03.62-.03,1.09,0,.55.08,2.98.08,3.52s-.43.69-.65.69c-.44,0-.42-.38-.4-.8h-1.42c.32,3.78,2.32,6.78,3.79,7.52v.1Zm-2.34-12.6h-3.08c-.01.66-.07,3.85-.07,4.56h3.15v-4.56Z"/>
      </g>
      <g>
        <line class="cls-7" x1="25.02" y1="118.1" x2="27.71" y2="118.1"/>
        <line class="cls-6" x1="33.06" y1="118.1" x2="640.34" y2="118.1"/>
        <line class="cls-7" x1="643.01" y1="118.1" x2="645.71" y2="118.1"/>
      </g>
      <g>
        <line class="cls-7" x1="25.02" y1="28.66" x2="27.71" y2="28.66"/>
        <line class="cls-6" x1="33.06" y1="28.66" x2="640.34" y2="28.66"/>
        <line class="cls-7" x1="643.01" y1="28.66" x2="645.71" y2="28.66"/>
      </g>
      <g>
        <line class="cls-7" x1="25.02" y1="207.54" x2="27.71" y2="207.54"/>
        <line class="cls-6" x1="33.06" y1="207.54" x2="640.34" y2="207.54"/>
        <line class="cls-7" x1="643.01" y1="207.54" x2="645.71" y2="207.54"/>
      </g>
      <g>
        <line class="cls-7" x1="25.02" y1="297.22" x2="27.71" y2="297.22"/>
        <line class="cls-6" x1="33.06" y1="297.22" x2="640.34" y2="297.22"/>
        <line class="cls-7" x1="643.01" y1="297.22" x2="645.71" y2="297.22"/>
      </g>
      <g>
        <line class="cls-7" x1="25.02" y1="386.91" x2="27.71" y2="386.91"/>
        <line class="cls-6" x1="33.06" y1="386.91" x2="640.34" y2="386.91"/>
        <line class="cls-7" x1="643.01" y1="386.91" x2="645.71" y2="386.91"/>
      </g>
      <rect class="cls-4" x="375.73" y="347.5" width="63.33" height="128.36"/>
      <rect class="cls-4" x="272.4" y="205.4" width="63.32" height="270.46"/>
      <rect class="cls-4" x="169.07" y="143.79" width="63.33" height="332.07"/>
      <rect class="cls-5" x="65.75" y="72.95" width="63.32" height="402.91"/>
      <g>
        <path class="cls-3" d="m60.48,49.49c.17.08.27.21.27.38,0,.19-.23.32-.88.44-.27.34-.86,1.03-1.77,2.15-.8.97-1.49,1.75-2.06,2.34.11,0,1.87-.08,2.99-.23-.08-.15-.34-.63-.86-1.2l.1-.13c1.64.63,2.9,1.58,2.9,2.55,0,.4-.23.86-.8.86-.51,0-.72-.25-.9-.97-.02-.06-.11-.36-.23-.67l-1.91.42c0,.9.06,5.22.06,5.62.02.42.08,2.31.08,2.69,0,.55-.48.9-1.01.9-.44,0-.57-.27-.57-.63,0-.34.08-1.73.08-2.02.02-.67.04-2.74.06-6.29-1.33.29-2.38.53-2.65.59-.13.21-.34.61-.53.61-.21,0-.34-.25-.38-.38l-.46-1.79c.36.08.97.15,1.49.15.65,0,1.62-.02,1.96-.04,1.43-1.94,2.71-4.61,3.01-5.45.08-.21.13-.59.13-.84l1.87.95Zm-8.31,13.85c.9-2.04,1.52-4.71,1.47-6.14l1.73.63c.15.06.29.19.29.29,0,.15-.13.25-.67.46-.67,1.96-1.28,3.14-2.71,4.82l-.11-.06Zm.8-13.82c.59.15,1.28.34,1.81.59.59-1.18,1.51-3.47,1.39-4.71l2,.99c.17.08.25.21.25.32,0,.32-.32.38-.8.46-.99,1.26-1.14,1.45-2.57,3.09.61.38,1.24.95,1.24,1.66,0,.48-.32,1.01-.86,1.01-.48,0-.61-.25-1.07-1.28-.48-1.09-.97-1.56-1.41-2l.02-.13Zm4.97,8.02c.86.38,2.97,1.33,2.97,2.76,0,.67-.48,1.03-.93,1.03-.57,0-.67-.42-.95-1.39-.3-1.09-.69-1.7-1.16-2.31l.06-.08Zm10.06-6.8l.63-.59c.11-.11.23-.23.29-.23.08,0,.23.13.29.19l1.01.86c.11.08.19.21.19.32,0,.15-.4.44-.78.72-.13,5.83-.17,8.44-1.28,10.58-.78,1.49-2.1,2.04-3.26,2.06-.17-.99-.82-1.64-1.91-2.38l.02-.13c.97.19,2.25.42,2.8.42,2.12,0,2.23-6.94,2.23-9.11,0-.36-.02-1.85-.02-2.21h-5.68c-1.03,1.96-1.75,2.67-2.06,3.01l-.13-.08c1.56-3.09,2.27-6.65,2.27-7.74,0-.21-.06-.61-.1-.8l2.27.97c.11.04.23.15.23.29,0,.21-.32.36-.82.59-.23.67-.61,1.73-1.39,3.26h5.2Zm-5.74,4.02c2,.82,2.99,1.49,2.99,2.63,0,.5-.25.99-.84.99-.55,0-.72-.23-1.18-1.68-.17-.55-.57-1.26-1.05-1.81l.08-.13Z"/>
        <path class="cls-3" d="m81.3,42.97h1.15v14.25h3.17v.9h-3.17v3.25c0,1.23.62,1.71,1.96,1.71h.45v.9h-7.13v-.9h.45c1.32,0,1.96-.45,1.96-1.71v-3.25h-7.55v-.98l8.7-14.17Zm-1.15,3.7l-6.48,10.55h6.48v-10.55Z"/>
        <path class="cls-3" d="m97.29,54.45c1.29,1.09,1.91,2.5,1.91,4.15,0,3.45-2.83,5.92-6.54,5.92-3.03,0-5.58-1.71-5.58-3.96,0-1.23.81-1.8,1.6-1.8.95,0,1.38.81,1.38,1.4,0,.42-.08.67-.17.9-.06.17-.08.36-.08.65,0,1.07,1.21,1.85,2.53,1.85,2.16,0,4.35-2.13,4.35-4.97s-2.13-5.14-4.38-5.14c-.17,0-.95.11-1.12.11-.42,0-.62-.25-.62-.59,0-.36.28-.65.65-.65.17,0,1.01.17,1.21.17,2.36,0,3.84-2.1,3.84-4.38s-1.32-4.21-3.54-4.21c-1.49,0-2.27,1.07-2.27,1.88,0,.14.06.28.08.42.06.2.08.48.08.67,0,.87-.65,1.54-1.43,1.54-.93,0-1.4-.81-1.4-1.54,0-1.54,1.8-3.93,5.39-3.93s5.61,2.24,5.61,4.71c0,.98-.36,1.94-1.04,2.86-1.15,1.52-2.41,1.99-3.56,2.39,1.29.39,2.13.67,3.11,1.52Z"/>
        <path class="cls-3" d="m104.39,62.9c.03.93-.76,1.63-1.63,1.63-.93,0-1.63-.73-1.63-1.63s.7-1.63,1.63-1.63c.87,0,1.63.73,1.63,1.63Z"/>
        <path class="cls-3" d="m118.61,43.51v1.49c-4.46,6.88-6.03,10.78-6.4,17.03-.06.73-.14,2.5-1.57,2.5-.7,0-1.43-.59-1.43-1.54,0-1.99,1.96-7.89,7.88-17.26h-4.8c-4.07,0-4.69,1.88-5.3,3.68l-.84-.2,1.15-5.7h11.31Z"/>
        <path class="cls-3" d="m124.28,50.19v2.22c.76-.76,2.22-2.22,4.63-2.22,2.64,0,3.14,1.71,3.37,2.53.95-.93,2.5-2.53,5.02-2.53s3.59,1.49,3.59,4.6v6.62c0,1.07.56,1.68,1.4,1.68h.53v.9h-5.86v-.9h.5c.98,0,1.43-.76,1.43-1.68v-6.45c0-.79-.14-3.56-2.47-3.56-.79,0-2.55.45-3.96,2.44,0,.22.03.45.03.95v6.62c0,1.18.65,1.68,1.4,1.68h.81v.9h-6.43v-.9h.81c.76,0,1.4-.53,1.4-1.68v-6.45c0-.59-.06-3.56-2.44-3.56-.67,0-2.47.36-3.79,2.22v7.8c0,1.18.67,1.68,1.4,1.68h.51v.9h-5.84v-.9h.51c.84,0,1.4-.59,1.4-1.68v-8.45c0-.87-.48-1.32-1.15-1.32-.31,0-.59.03-.84.11l-.11-.53,4.12-1.04Z"/>
      </g>
      <g>
        <path class="cls-1" d="m177.97,155.35c.1.05.16.12.16.22,0,.11-.13.18-.5.25-.16.19-.49.59-1.01,1.22-.46.55-.85,1-1.18,1.33.06,0,1.07-.05,1.7-.13-.05-.08-.19-.36-.49-.68l.06-.07c.94.36,1.66.9,1.66,1.45,0,.23-.13.49-.46.49-.29,0-.41-.14-.52-.55-.01-.04-.06-.2-.13-.38l-1.09.24c0,.52.04,2.97.04,3.2.01.24.05,1.32.05,1.54,0,.31-.28.52-.58.52-.25,0-.32-.16-.32-.36,0-.19.05-.98.05-1.15.01-.38.02-1.56.04-3.59-.76.17-1.35.3-1.51.34-.07.12-.19.35-.3.35-.12,0-.19-.14-.22-.22l-.26-1.02c.2.05.55.08.85.08.37,0,.92-.01,1.12-.02.82-1.1,1.55-2.63,1.72-3.11.05-.12.07-.34.07-.48l1.07.54Zm-4.74,7.89c.52-1.16.86-2.69.84-3.5l.98.36c.08.04.17.11.17.17,0,.08-.07.14-.38.26-.38,1.12-.73,1.79-1.55,2.75l-.06-.04Zm.46-7.88c.34.08.73.19,1.03.34.34-.67.86-1.98.79-2.69l1.14.56c.1.05.14.12.14.18,0,.18-.18.22-.46.26-.56.72-.65.83-1.46,1.76.35.22.71.54.71.95,0,.28-.18.58-.49.58-.28,0-.35-.14-.61-.73-.28-.62-.55-.89-.8-1.14v-.07Zm2.83,4.57c.49.22,1.69.76,1.69,1.57,0,.38-.28.59-.53.59-.32,0-.38-.24-.54-.79-.17-.62-.4-.97-.66-1.32l.04-.05Zm5.73-3.87l.36-.34c.06-.06.13-.13.17-.13.05,0,.13.07.17.11l.58.49c.06.05.11.12.11.18,0,.08-.23.25-.44.41-.07,3.32-.1,4.81-.73,6.03-.44.85-1.2,1.16-1.86,1.18-.1-.56-.47-.94-1.09-1.36v-.07c.56.11,1.3.24,1.61.24,1.21,0,1.27-3.96,1.27-5.19,0-.2-.01-1.06-.01-1.26h-3.24c-.59,1.12-1,1.52-1.18,1.72l-.07-.05c.89-1.76,1.3-3.79,1.3-4.41,0-.12-.04-.35-.06-.46l1.3.55c.06.02.13.08.13.17,0,.12-.18.2-.47.34-.13.38-.35.98-.79,1.86h2.96Zm-3.27,2.29c1.14.47,1.7.85,1.7,1.5,0,.29-.14.56-.48.56-.31,0-.41-.13-.67-.96-.1-.31-.32-.72-.6-1.03l.05-.07Z"/>
        <path class="cls-1" d="m191.49,157.9c.8.68,1.18,1.54,1.18,2.57,0,2.13-1.75,3.66-4.04,3.66-1.87,0-3.45-1.06-3.45-2.44,0-.76.5-1.11.99-1.11.59,0,.85.5.85.87,0,.26-.05.42-.1.55-.03.1-.05.23-.05.4,0,.66.75,1.14,1.56,1.14,1.33,0,2.69-1.32,2.69-3.07s-1.32-3.17-2.7-3.17c-.1,0-.59.07-.69.07-.26,0-.38-.16-.38-.36,0-.23.17-.4.4-.4.1,0,.62.1.75.1,1.46,0,2.38-1.3,2.38-2.7s-.81-2.6-2.18-2.6c-.92,0-1.4.66-1.4,1.16,0,.09.03.17.05.26.03.12.05.29.05.42,0,.54-.4.95-.88.95-.57,0-.87-.5-.87-.95,0-.95,1.11-2.43,3.33-2.43s3.47,1.39,3.47,2.91c0,.61-.23,1.2-.64,1.77-.71.94-1.49,1.23-2.2,1.47.8.24,1.32.42,1.92.94Z"/>
        <path class="cls-1" d="m201.46,151.14v.92c-2.76,4.25-3.73,6.66-3.95,10.52-.04.45-.09,1.54-.97,1.54-.43,0-.88-.36-.88-.95,0-1.23,1.21-4.87,4.87-10.66h-2.96c-2.51,0-2.89,1.16-3.28,2.27l-.52-.12.71-3.52h6.99Z"/>
        <path class="cls-1" d="m204.55,163.11c.02.57-.47,1-1,1-.57,0-1.01-.45-1.01-1s.43-1.01,1.01-1.01c.54,0,1,.45,1,1.01Z"/>
        <path class="cls-1" d="m213.39,160.31c0,2.01-1.58,3.81-4.09,3.81-1.98,0-3.74-1.14-3.74-3.12,0-1.87,1.49-2.76,3.09-3.69-.92-.54-2.58-1.51-2.58-3.4,0-1.72,1.35-3.1,3.47-3.1,2.38,0,3.17,1.77,3.17,2.74,0,1.47-1.42,2.55-2.17,3.1,1.63,1.01,2.86,1.87,2.86,3.66Zm-6.38.64c0,1.53,1.14,2.58,2.5,2.58,1.51,0,2.63-1.33,2.63-2.62,0-1.65-1.72-2.62-2.98-3.33-.78.59-2.15,1.65-2.15,3.36Zm4.42-7.21c0-1.32-.88-2.34-2.15-2.34s-2.05.94-2.05,2.06c0,1.21.99,1.82,2.79,2.89.5-.43,1.4-1.18,1.4-2.62Z"/>
        <path class="cls-1" d="m216.84,155.26v1.37c.47-.47,1.37-1.37,2.86-1.37,1.63,0,1.94,1.06,2.08,1.56.59-.57,1.54-1.56,3.1-1.56s2.22.92,2.22,2.84v4.09c0,.66.35,1.04.87,1.04h.33v.55h-3.62v-.55h.31c.61,0,.88-.47.88-1.04v-3.99c0-.49-.09-2.2-1.53-2.2-.49,0-1.58.28-2.44,1.51,0,.14.02.28.02.59v4.09c0,.73.4,1.04.87,1.04h.5v.55h-3.97v-.55h.5c.47,0,.87-.33.87-1.04v-3.99c0-.36-.03-2.2-1.51-2.2-.42,0-1.53.23-2.34,1.37v4.82c0,.73.42,1.04.87,1.04h.31v.55h-3.61v-.55h.31c.52,0,.87-.36.87-1.04v-5.22c0-.54-.29-.81-.71-.81-.19,0-.36.02-.52.07l-.07-.33,2.55-.64Z"/>
      </g>
      <g>
        <path class="cls-1" d="m281.29,216.96c.1.05.16.12.16.22,0,.11-.13.18-.5.25-.16.19-.49.59-1.01,1.22-.46.55-.85,1-1.18,1.33.06,0,1.07-.05,1.7-.13-.05-.08-.19-.36-.49-.68l.06-.07c.94.36,1.66.9,1.66,1.45,0,.23-.13.49-.46.49-.29,0-.41-.14-.52-.55-.01-.04-.06-.2-.13-.38l-1.09.24c0,.52.04,2.97.04,3.2.01.24.05,1.32.05,1.54,0,.31-.28.52-.58.52-.25,0-.32-.16-.32-.36,0-.19.05-.98.05-1.15.01-.38.02-1.56.04-3.59-.76.17-1.35.3-1.51.34-.07.12-.19.35-.3.35-.12,0-.19-.14-.22-.22l-.26-1.02c.2.05.55.08.85.08.37,0,.92-.01,1.12-.02.82-1.1,1.55-2.63,1.72-3.11.05-.12.07-.34.07-.48l1.07.54Zm-4.74,7.89c.52-1.16.86-2.69.84-3.5l.98.36c.08.04.17.11.17.17,0,.08-.07.14-.38.26-.38,1.12-.73,1.79-1.55,2.75l-.06-.04Zm.46-7.88c.34.08.73.19,1.03.34.34-.67.86-1.98.79-2.69l1.14.56c.1.05.14.12.14.18,0,.18-.18.22-.46.26-.56.72-.65.83-1.46,1.76.35.22.71.54.71.95,0,.28-.18.58-.49.58-.28,0-.35-.14-.61-.73-.28-.62-.55-.89-.8-1.14v-.07Zm2.83,4.57c.49.22,1.69.76,1.69,1.57,0,.38-.28.59-.53.59-.32,0-.38-.24-.54-.79-.17-.62-.4-.97-.66-1.32l.04-.05Zm5.73-3.87l.36-.34c.06-.06.13-.13.17-.13.05,0,.13.07.17.11l.58.49c.06.05.11.12.11.18,0,.08-.23.25-.44.41-.07,3.32-.1,4.81-.73,6.03-.44.85-1.2,1.16-1.86,1.18-.1-.56-.47-.94-1.09-1.36v-.07c.56.11,1.3.24,1.61.24,1.21,0,1.27-3.96,1.27-5.19,0-.2-.01-1.06-.01-1.26h-3.24c-.59,1.12-1,1.52-1.18,1.72l-.07-.05c.89-1.76,1.3-3.79,1.3-4.41,0-.12-.04-.35-.06-.46l1.3.55c.06.02.13.08.13.17,0,.12-.18.2-.47.34-.13.38-.35.98-.79,1.86h2.96Zm-3.27,2.29c1.14.47,1.7.85,1.7,1.5,0,.29-.14.56-.48.56-.31,0-.41-.13-.67-.96-.1-.31-.32-.72-.6-1.03l.05-.07Z"/>
        <path class="cls-1" d="m294.82,219.5c.8.68,1.18,1.54,1.18,2.57,0,2.13-1.75,3.66-4.04,3.66-1.87,0-3.45-1.06-3.45-2.44,0-.76.5-1.11.99-1.11.59,0,.85.5.85.87,0,.26-.05.42-.1.55-.03.1-.05.23-.05.4,0,.66.75,1.14,1.56,1.14,1.33,0,2.69-1.32,2.69-3.07s-1.32-3.17-2.7-3.17c-.1,0-.59.07-.69.07-.26,0-.38-.16-.38-.36,0-.23.17-.4.4-.4.1,0,.62.1.75.1,1.46,0,2.38-1.3,2.38-2.7s-.81-2.6-2.18-2.6c-.92,0-1.4.66-1.4,1.16,0,.09.03.17.05.26.03.12.05.29.05.42,0,.54-.4.95-.88.95-.57,0-.87-.5-.87-.95,0-.95,1.11-2.43,3.33-2.43s3.47,1.39,3.47,2.91c0,.61-.23,1.2-.64,1.77-.71.94-1.49,1.23-2.2,1.47.8.24,1.32.42,1.92.94Z"/>
        <path class="cls-1" d="m300.92,225.73c-1.2,0-2.2-.83-2.84-1.87-.73-1.2-1.06-3.33-1.06-4.94,0-3.69,1.58-6.5,3.9-6.5,1.79,0,3.9,1.92,3.9,6.66,0,4.25-1.79,6.66-3.9,6.66Zm-1.94-10.42c-.24.87-.4,2.32-.4,3.76,0,3.87.92,6.07,2.34,6.07,1.2,0,1.73-1.59,1.92-2.25.24-.88.42-2.36.42-3.81,0-3.95-.95-6.07-2.34-6.07-1.23,0-1.77,1.7-1.94,2.31Z"/>
        <path class="cls-1" d="m307.87,224.72c.02.57-.47,1-1,1-.57,0-1.01-.45-1.01-1s.43-1.01,1.01-1.01c.54,0,1,.45,1,1.01Z"/>
        <path class="cls-1" d="m315.36,219.5c.8.68,1.18,1.54,1.18,2.57,0,2.13-1.75,3.66-4.04,3.66-1.87,0-3.45-1.06-3.45-2.44,0-.76.5-1.11.99-1.11.59,0,.85.5.85.87,0,.26-.05.42-.1.55-.03.1-.05.23-.05.4,0,.66.75,1.14,1.56,1.14,1.33,0,2.69-1.32,2.69-3.07s-1.32-3.17-2.7-3.17c-.1,0-.59.07-.69.07-.26,0-.38-.16-.38-.36,0-.23.17-.4.4-.4.1,0,.62.1.75.1,1.46,0,2.37-1.3,2.37-2.7s-.81-2.6-2.18-2.6c-.92,0-1.4.66-1.4,1.16,0,.09.03.17.05.26.04.12.05.29.05.42,0,.54-.4.95-.88.95-.57,0-.87-.5-.87-.95,0-.95,1.11-2.43,3.33-2.43s3.47,1.39,3.47,2.91c0,.61-.23,1.2-.64,1.77-.71.94-1.49,1.23-2.2,1.47.8.24,1.32.42,1.92.94Z"/>
        <path class="cls-1" d="m320.16,216.87v1.37c.47-.47,1.37-1.37,2.86-1.37,1.63,0,1.94,1.06,2.08,1.56.59-.57,1.54-1.56,3.1-1.56s2.22.92,2.22,2.84v4.09c0,.66.35,1.04.87,1.04h.33v.55h-3.62v-.55h.31c.61,0,.88-.47.88-1.04v-3.99c0-.49-.09-2.2-1.53-2.2-.49,0-1.58.28-2.44,1.51,0,.14.02.28.02.59v4.09c0,.73.4,1.04.87,1.04h.5v.55h-3.97v-.55h.5c.47,0,.87-.33.87-1.04v-3.99c0-.36-.03-2.2-1.51-2.2-.42,0-1.53.23-2.34,1.37v4.82c0,.73.42,1.04.87,1.04h.31v.55h-3.61v-.55h.31c.52,0,.87-.36.87-1.04v-5.22c0-.54-.29-.81-.71-.81-.19,0-.36.02-.52.07l-.07-.33,2.55-.64Z"/>
      </g>
      <g>
        <path class="cls-1" d="m384.62,359.06c.1.05.16.12.16.22,0,.11-.13.18-.5.25-.16.19-.49.59-1.01,1.22-.46.55-.85,1-1.18,1.33.06,0,1.07-.05,1.7-.13-.05-.08-.19-.36-.49-.68l.06-.07c.94.36,1.66.9,1.66,1.45,0,.23-.13.49-.46.49-.29,0-.41-.14-.52-.55-.01-.04-.06-.2-.13-.38l-1.09.24c0,.52.04,2.97.04,3.2.01.24.05,1.32.05,1.54,0,.31-.28.52-.58.52-.25,0-.32-.16-.32-.36,0-.19.05-.98.05-1.15.01-.38.02-1.56.04-3.59-.76.17-1.35.3-1.51.34-.07.12-.19.35-.3.35-.12,0-.19-.14-.22-.22l-.26-1.02c.2.05.55.08.85.08.37,0,.92-.01,1.12-.02.82-1.1,1.55-2.63,1.72-3.11.05-.12.07-.34.07-.48l1.07.54Zm-4.74,7.89c.52-1.16.86-2.69.84-3.5l.98.36c.08.04.17.11.17.17,0,.08-.07.14-.38.26-.38,1.12-.73,1.79-1.55,2.75l-.06-.04Zm.46-7.88c.34.08.73.19,1.03.34.34-.67.86-1.98.79-2.69l1.14.56c.1.05.14.12.14.18,0,.18-.18.22-.46.26-.56.72-.65.83-1.46,1.76.35.22.71.54.71.95,0,.28-.18.58-.49.58-.28,0-.35-.14-.61-.73-.28-.62-.55-.89-.8-1.14v-.07Zm2.83,4.57c.49.22,1.69.76,1.69,1.57,0,.38-.28.59-.53.59-.32,0-.38-.24-.54-.79-.17-.62-.4-.97-.66-1.32l.04-.05Zm5.73-3.87l.36-.34c.06-.06.13-.13.17-.13.05,0,.13.07.17.11l.58.49c.06.05.11.12.11.18,0,.08-.23.25-.44.41-.07,3.32-.1,4.81-.73,6.03-.44.85-1.2,1.16-1.86,1.18-.1-.56-.47-.94-1.09-1.36v-.07c.56.11,1.3.24,1.61.24,1.21,0,1.27-3.96,1.27-5.19,0-.2-.01-1.06-.01-1.26h-3.24c-.59,1.12-1,1.52-1.18,1.72l-.07-.05c.89-1.76,1.3-3.79,1.3-4.41,0-.12-.04-.35-.06-.46l1.3.55c.06.02.13.08.13.17,0,.12-.18.2-.47.34-.13.38-.35.98-.79,1.86h2.96Zm-3.27,2.29c1.14.47,1.7.85,1.7,1.5,0,.29-.14.56-.48.56-.31,0-.41-.13-.67-.96-.1-.31-.32-.72-.6-1.03l.05-.07Z"/>
        <path class="cls-1" d="m392.7,366.94h.95c.9,0,1.21-.35,1.21-1.06v-9.38c0-.54-.5-.62-.83-.62h-1.32v-.54h.31c1.33,0,2.62-.61,2.83-.73.12-.07.17-.1.24-.1.16,0,.19.1.19.24v11.13c0,.75.36,1.06,1.21,1.06h.95v.55h-5.75v-.55Z"/>
        <path class="cls-1" d="m406.81,361.6c.8.68,1.18,1.54,1.18,2.57,0,2.13-1.75,3.66-4.04,3.66-1.87,0-3.45-1.06-3.45-2.44,0-.76.5-1.11.99-1.11.59,0,.85.5.85.87,0,.26-.05.42-.1.55-.03.1-.05.23-.05.4,0,.66.75,1.14,1.56,1.14,1.34,0,2.69-1.32,2.69-3.07s-1.32-3.17-2.7-3.17c-.1,0-.59.07-.69.07-.26,0-.38-.16-.38-.36,0-.23.17-.4.4-.4.1,0,.62.1.75.1,1.46,0,2.37-1.3,2.37-2.7s-.81-2.6-2.18-2.6c-.92,0-1.4.66-1.4,1.16,0,.09.03.17.05.26.04.12.05.3.05.42,0,.54-.4.95-.88.95-.57,0-.87-.5-.87-.95,0-.95,1.11-2.43,3.33-2.43s3.47,1.39,3.47,2.91c0,.61-.23,1.2-.64,1.77-.71.94-1.49,1.23-2.2,1.47.8.24,1.32.42,1.92.94Z"/>
        <path class="cls-1" d="m411.2,366.82c.02.57-.47,1-1.01,1-.57,0-1-.45-1-1s.43-1.01,1-1.01c.54,0,1.01.45,1.01,1.01Z"/>
        <path class="cls-1" d="m420.04,364.01c0,2.01-1.58,3.81-4.09,3.81-1.98,0-3.74-1.14-3.74-3.12,0-1.87,1.49-2.76,3.09-3.69-.92-.54-2.58-1.51-2.58-3.4,0-1.72,1.35-3.1,3.47-3.1,2.37,0,3.17,1.77,3.17,2.74,0,1.47-1.42,2.55-2.17,3.1,1.63,1.01,2.86,1.87,2.86,3.66Zm-6.38.64c0,1.53,1.14,2.58,2.5,2.58,1.51,0,2.63-1.33,2.63-2.62,0-1.65-1.72-2.62-2.98-3.33-.78.59-2.15,1.65-2.15,3.36Zm4.42-7.21c0-1.32-.88-2.34-2.15-2.34s-2.04.94-2.04,2.06c0,1.21.99,1.82,2.79,2.89.5-.43,1.4-1.18,1.4-2.62Z"/>
        <path class="cls-1" d="m423.49,358.97v1.37c.47-.47,1.37-1.37,2.86-1.37,1.63,0,1.94,1.06,2.08,1.56.59-.57,1.54-1.56,3.1-1.56s2.22.92,2.22,2.84v4.09c0,.66.35,1.04.87,1.04h.33v.55h-3.62v-.55h.31c.61,0,.88-.47.88-1.04v-3.99c0-.49-.09-2.2-1.53-2.2-.49,0-1.58.28-2.44,1.51,0,.14.02.28.02.59v4.09c0,.73.4,1.04.87,1.04h.5v.55h-3.97v-.55h.5c.47,0,.87-.33.87-1.04v-3.99c0-.36-.04-2.2-1.51-2.2-.42,0-1.53.23-2.34,1.37v4.82c0,.73.42,1.04.87,1.04h.31v.55h-3.61v-.55h.31c.52,0,.87-.36.87-1.04v-5.22c0-.54-.29-.81-.71-.81-.19,0-.36.02-.52.07l-.07-.33,2.55-.64Z"/>
      </g>
      <g>
        <path class="cls-2" d="m485.04,482.36v15.03h-.58v-15.77h4.61v.75h-4.02Z"/>
        <path class="cls-2" d="m502.43,489.52c-.37,0-.62-.42-.79-.71-.53-.94-.94-1.47-1.11-1.68-1.51.35-2.47.55-4.34.85-.65.1-3.55.52-4.15.62-.22.42-.29.54-.42.54-.11,0-.19-.16-.22-.28l-.5-2.01c.19.12.39.24.83.29.39.05,1.53.03,2.29.03,1.16-2.53,2.07-4.59,1.98-5.82l1.57.99c.07.03.11.16.11.23,0,.31-.46.38-.65.42-.82,1.47-1.73,2.86-2.69,4.19,1.94-.05,2.55-.09,5.98-.31-.75-.92-1.41-1.46-1.79-1.77v-.09c1.66.42,4.47,2.15,4.47,3.67,0,.38-.21.83-.57.83Zm-1.43,1.65c-.01.24-.03.52-.03.95,0,.66.14,3.61.14,4.14,0,.9-.65.9-.71.9-.47,0-.44-.55-.4-1.04h-6.14c.01.4.04,1.3-.71,1.3-.21,0-.43-.1-.43-.54,0-.17.06-.9.06-1.06.04-1.27.04-2.77.04-4.78,0-.61,0-1.09-.12-1.61l1.46.9h5.64l.39-.66c.03-.05.1-.16.17-.16.06,0,.14.05.19.1l.83.68s.14.16.14.26c0,.16-.31.42-.51.61Zm-.98-.42h-6.16v4.96h6.16v-4.96Z"/>
        <path class="cls-2" d="m509.07,486.46h-1.8c-.01,1.61,0,3.33,0,4.99,1.22-.62,1.48-.78,1.79-.97l.06.12c-.68.78-2.44,2.18-3.75,3.21-.08.43-.15.57-.29.57-.11,0-.21-.21-.25-.29l-.65-1.56c.79,0,.93-.07,2.15-.61,0-1.59-.01-3.95-.01-5.46-.49,0-1.08.05-1.57.16l-.26-.69c.51.05.94.09,1.83.12-.01-.8-.04-3.05-.15-3.69-.06-.28-.11-.5-.19-.76l1.48.55c.17.07.31.1.31.29,0,.23-.26.36-.47.47-.01.49-.01,2.69-.01,3.14h.42l.39-.71c.04-.09.12-.23.19-.23.08,0,.18.09.26.19l.61.71c.11.12.14.19.14.26,0,.17-.12.19-.21.19Zm7.85,2.74h-5.66c-.32.81-.58,1.28-.79,1.61h4.42l.35-.57c.06-.1.12-.19.18-.19.07,0,.17.1.24.17l.69.64c.07.05.14.14.14.24,0,.26-.32.42-.51.52-.29,5.44-1.46,5.75-2.48,5.81-.04-.5-.21-1.02-.94-1.77v-.14c.8.21,1.1.24,1.36.24.32,0,.53-.12.8-1.47.21-.99.29-2.03.32-3.07h-.9c-.86,3.03-2.68,5.32-4.48,6.05l-.06-.09c1.58-1.46,2.91-3.95,3.45-5.96h-.83c-1.11,2.58-2.9,4.87-5.03,5.69l-.04-.1c1.82-1.27,3.52-4.46,3.97-5.58h-.9c-.71,1.13-1.6,2.06-2.61,2.7l-.07-.09c1.53-1.8,2.29-3.74,2.62-4.65h-.33c-.35,0-1.01.02-1.64.16l-.28-.69c.87.09,1.73.12,2.14.12h5.12l.5-.87c.06-.09.14-.21.21-.21s.12.05.25.17l.87.87c.07.07.14.16.14.26,0,.17-.12.19-.21.19Zm-2.39-5.96c0,1.47.01,2.06.03,2.67.01.24.04,1.33.04,1.56,0,.57-.51.68-.67.68-.36,0-.35-.35-.32-.78h-2.47c0,.35.01.9-.64.9-.37,0-.37-.28-.37-.4,0-.09.03-.33.03-.38.03-.78.06-2.46.06-3.26,0-1.46-.04-1.89-.14-2.53l1.14.73h2.34l.32-.43c.07-.1.11-.16.17-.16s.11.05.19.12l.58.54c.07.05.15.14.15.24,0,.17-.22.35-.44.5Zm-.9-.4h-2.5v1.75h2.5v-1.75Zm0,2.17h-2.5v1.94h2.5v-1.94Z"/>
        <path class="cls-2" d="m518.51,497.25v-.75h4.02v-15.03h.58v15.77h-4.6Z"/>
        <path class="cls-2" d="m525.72,495.93c-.29,0-.46-.26-.46-.64,0-.33.47-1.7.53-1.99.06-.29.04-.54.03-.75l.12-.02c.24.49.51,1.14.51,2.06,0,.47-.11,1.34-.74,1.34Zm5.12-5.04c-.19,2.7-.62,4.16-.85,4.78-.32.87-.82,1.21-1.5,1.44-.18-1.08-.85-1.54-1.14-1.72l.03-.12c.78.19,1.3.19,1.35.19.28,0,.39-.03.54-.45.4-1.13.61-3.38.61-4.52h-3.09c.01.28-.01.85-.6.85-.28,0-.35-.17-.35-.47,0-.1.03-.52.03-.61.06-1.09.07-4.11.07-5.3,0-.61,0-1.85-.14-2.88l1.04.64h2.58l.33-.5c.1-.14.17-.23.24-.23.08,0,.15.09.28.19l.54.5c.1.09.15.21.15.28,0,.12-.12.17-.22.17h-1.91v2.01h.6l.26-.42c.11-.17.15-.24.22-.24s.15.09.28.19l.44.42c.07.07.15.16.15.28,0,.16-.12.19-.22.19h-1.73v1.99h.61l.33-.49c.1-.14.15-.21.22-.21.08,0,.14.05.25.17l.42.49c.08.09.12.21.12.28,0,.1-.08.17-.21.17h-1.75v2.1h.93l.36-.5c.08-.12.15-.21.22-.21s.15.07.28.23l.54.62c.06.07.1.14.1.23,0,.21-.32.4-.42.45Zm-3.51,4.3c-.46,0-.46-.73-.46-1.09,0-1.07,0-1.44-.15-1.91l.08-.05c.1.14.6.76.67.92.33.64.39,1.09.39,1.33,0,.5-.31.8-.53.8Zm.67-12.05h-1.22v2.01h1.22v-2.01Zm0,2.43h-1.22v1.99h1.22v-1.99Zm0,2.41h-1.22v2.1h1.22v-2.1Zm.49,6.08c-.36,0-.4-.29-.51-1.28-.04-.38-.11-.83-.26-1.27l.06-.05c.74.8,1.15,1.27,1.15,1.94,0,.3-.14.66-.43.66Zm.78-1.28c-.28,0-.33-.28-.49-.97-.11-.45-.22-.64-.32-.8l.08-.1c.65.38,1.07.75,1.07,1.32,0,.28-.12.55-.35.55Zm9.18,3.19c-.67.05-1.15.78-1.32,1.02-1.55-1.58-2.7-4.56-2.7-8.65h-1.48c-.14,4.26-.82,6.88-2.84,8.7l-.07-.07c1.94-2.63,2.01-7.47,2.01-11.08,0-2.15-.1-2.72-.24-3.67l1.32.73h2.86l.4-.49c.08-.1.15-.16.22-.16s.12.04.24.16l.55.59c.08.09.12.17.12.28,0,.12-.26.36-.43.5-.01.29-.03.62-.03,1.09,0,.55.08,2.98.08,3.52s-.43.69-.65.69c-.44,0-.42-.38-.4-.8h-1.41c.32,3.78,2.32,6.78,3.79,7.52v.1Zm-2.34-12.6h-3.08c-.01.66-.07,3.85-.07,4.56h3.15v-4.56Z"/>
      </g>
      <rect class="cls-4" x="479.05" y="423.18" width="63.33" height="52.68"/>
      <g>
        <path class="cls-1" d="m492.28,434.74c.1.05.16.12.16.22,0,.11-.13.18-.5.25-.16.19-.49.59-1.01,1.22-.46.55-.85,1-1.18,1.33.06,0,1.07-.05,1.7-.13-.05-.08-.19-.36-.49-.68l.06-.07c.94.36,1.66.9,1.66,1.45,0,.23-.13.49-.46.49-.29,0-.41-.14-.52-.55-.01-.04-.06-.2-.13-.38l-1.09.24c0,.52.04,2.97.04,3.2.01.24.05,1.32.05,1.54,0,.31-.28.52-.58.52-.25,0-.32-.16-.32-.36,0-.19.05-.98.05-1.15.01-.38.02-1.56.04-3.59-.76.17-1.36.3-1.51.34-.07.12-.19.35-.3.35-.12,0-.19-.14-.22-.22l-.26-1.02c.2.05.55.08.85.08.37,0,.92-.01,1.12-.02.82-1.1,1.55-2.63,1.72-3.11.05-.12.07-.34.07-.48l1.07.54Zm-4.74,7.89c.52-1.16.86-2.69.84-3.5l.98.36c.08.04.17.11.17.17,0,.08-.07.14-.38.26-.38,1.12-.73,1.79-1.55,2.75l-.06-.04Zm.46-7.88c.34.08.73.19,1.03.34.34-.67.86-1.98.79-2.69l1.14.56c.1.05.14.12.14.18,0,.18-.18.22-.46.26-.56.72-.65.83-1.46,1.76.35.22.71.54.71.95,0,.28-.18.58-.49.58-.28,0-.35-.14-.61-.73-.28-.62-.55-.89-.8-1.14v-.07Zm2.83,4.57c.49.22,1.69.76,1.69,1.57,0,.38-.28.59-.53.59-.32,0-.38-.24-.54-.79-.17-.62-.4-.97-.66-1.32l.04-.05Zm5.73-3.87l.36-.34c.06-.06.13-.13.17-.13.05,0,.13.07.17.11l.58.49c.06.05.11.12.11.18,0,.08-.23.25-.44.41-.07,3.32-.1,4.81-.73,6.03-.44.85-1.2,1.16-1.86,1.18-.1-.56-.47-.94-1.09-1.36v-.07c.56.11,1.3.24,1.61.24,1.21,0,1.27-3.96,1.27-5.19,0-.2-.01-1.06-.01-1.26h-3.24c-.59,1.12-1,1.52-1.18,1.72l-.07-.05c.89-1.76,1.3-3.79,1.3-4.41,0-.12-.04-.35-.06-.46l1.3.55c.06.02.13.08.13.17,0,.12-.18.2-.47.34-.13.38-.35.98-.79,1.86h2.96Zm-3.27,2.29c1.14.47,1.7.85,1.7,1.5,0,.29-.14.56-.48.56-.31,0-.41-.13-.67-.96-.1-.31-.32-.72-.6-1.03l.05-.07Z"/>
        <path class="cls-1" d="m502.48,435.57c.36-.23.9-.45,1.51-.45,1.72,0,3.1,1.73,3.1,3.83,0,2.41-1.72,4.56-3.71,4.56s-3.99-2.24-3.99-5.98c0-4,2.25-7.33,4.91-7.33,1.16,0,1.98.69,1.98,1.53,0,.62-.49.9-.88.9-.35,0-.92-.23-.95-1.21-.02-.38-.05-.62-.52-.62s-.94.26-1.27.62c-1.54,1.7-1.63,4.25-1.7,5.81.33-.54.69-1.14,1.53-1.65Zm-.57,6.41c.29.47.75.94,1.4.94.92,0,2.22-.95,2.22-3.81,0-.78-.19-3.21-1.98-3.21-.66,0-1.77.49-2.58,2.36.07.95.21,2.62.94,3.73Z"/>
        <path class="cls-1" d="m510.19,442.5c.02.57-.47,1-1.01,1-.57,0-1-.45-1-1s.43-1.01,1-1.01c.54,0,1.01.45,1.01,1.01Z"/>
        <path class="cls-1" d="m512.67,431.9l-.16,4.37c.75-.66,1.4-1.2,2.69-1.2,2.5,0,3.69,2.06,3.69,3.97,0,2.51-1.99,4.47-4.28,4.47-1.98,0-3.28-1.47-3.28-2.55,0-.66.42-1.07,1.01-1.07.52,0,.9.35.9.9,0,.17-.02.24-.09.52-.04.14-.05.38-.05.49,0,.75.78,1.13,1.47,1.13,1.4,0,2.72-1.33,2.72-3.66,0-2.2-1.16-3.41-2.43-3.41-.69,0-1.75.38-2.7,1.51l-.26-.14.26-6.69h6.03l-.35,1.37h-5.18Z"/>
        <path class="cls-1" d="m522.48,434.65v1.37c.47-.47,1.37-1.37,2.86-1.37,1.63,0,1.94,1.06,2.08,1.56.59-.57,1.54-1.56,3.1-1.56s2.22.92,2.22,2.84v4.09c0,.66.35,1.04.87,1.04h.33v.55h-3.62v-.55h.31c.61,0,.88-.47.88-1.04v-3.99c0-.49-.09-2.2-1.53-2.2-.49,0-1.58.28-2.44,1.51,0,.14.02.28.02.59v4.09c0,.73.4,1.04.87,1.04h.5v.55h-3.97v-.55h.5c.47,0,.87-.33.87-1.04v-3.99c0-.36-.04-2.2-1.51-2.2-.42,0-1.53.23-2.34,1.37v4.82c0,.73.42,1.04.87,1.04h.31v.55h-3.61v-.55h.31c.52,0,.87-.36.87-1.04v-5.22c0-.54-.29-.81-.71-.81-.19,0-.36.02-.52.07l-.07-.33,2.55-.64Z"/>
      </g>
      <g>
        <path class="cls-2" d="m588.36,482.36v15.03h-.58v-15.77h4.61v.75h-4.02Z"/>
        <path class="cls-2" d="m599.73,489.98h-2.09v4.7c.64-.23,1.6-.59,1.79-.68l.03.07c-.93.9-2.7,1.91-4.12,2.72-.03.16-.06.42-.25.42-.08,0-.11-.03-.17-.14l-.8-1.51c.72,0,1.01,0,2.59-.54v-5.04h-.86c-.35,0-1.01.02-1.64.16l-.26-.69c.94.1,1.93.12,2.12.12h.64v-2.27c-.62.04-.83.09-1.07.14l-.21-.52c-.64.92-1.17,1.56-1.69,2.03l-.04-.03c.97-1.44,2.98-5.86,3.04-7.44l1.22.73c.08.05.14.16.14.23,0,.19-.22.26-.42.35.74.17,2.08.87,2.08,1.89,0,.14-.04.68-.53.68-.33,0-.39-.1-.85-1.11-.14-.31-.36-.8-.8-1.23-.87,1.96-1.79,3.4-2.05,3.78.74.07,1.62.09,2.15.09l.31-.54c.07-.1.15-.23.21-.23.08,0,.15.09.26.19l.55.54c.08.09.14.17.14.28,0,.16-.11.17-.21.17h-1.3v2.29h.8l.42-.54c.07-.1.17-.21.22-.21.08,0,.17.07.25.17l.47.54c.07.07.14.16.14.26,0,.17-.11.19-.21.19Zm-4.06,4.35c-.46,0-.51-.5-.57-1.42-.03-.33-.1-.85-.4-1.49l.07-.1c.78.62,1.46,1.39,1.46,2.25,0,.64-.4.76-.55.76Zm4.02-2.05c-.06.04-.26.1-.37.14-.11.14-.57.75-.68.85-.12.14-.67.75-.76.87l-.06-.03c.1-.28.64-1.96.71-3.09l1.15.82c.06.03.12.16.12.24,0,.12-.06.17-.11.21Zm5.81,4.42c-2.66-2.53-3.37-6.24-3.44-7.33h-.75c0,.85-.01,4.58-.01,5.34.46-.21,1.64-.78,1.96-.95v.05c-.31.35-.86.94-1.69,1.56-.39.29-1.43,1.07-1.65,1.3-.03.26-.07.59-.29.59-.06,0-.12-.02-.18-.1l-.85-1.56c.46,0,.65-.03,1.75-.47,0-1.84.04-7.7.04-9.17,0-1.84-.01-2.05-.14-3.95l1.19.87h2.69l.36-.49c.04-.05.11-.12.21-.12.06,0,.12.05.18.1l.6.64c.06.05.11.14.11.24,0,.09-.06.17-.1.21-.06.07-.31.35-.36.42-.03,1.47.07,3.83.07,5.3,0,.49-.39.71-.71.71s-.3-.33-.3-.52h-1.89c.26,1.27.68,2.08.93,2.57.43-.4,1.18-1.11,1.58-1.96l1.15,1.16c.04.05.08.12.08.19,0,.26-.22.24-.65.21-.46.19-1.37.4-2.07.57.78,1.37,2.22,3.07,3.58,3.4v.09c-.65.24-.85.4-1.4,1.11Zm-1.3-13.42h-2.87v2.57h2.87v-2.57Zm0,2.98h-2.87v2.69h2.87v-2.69Z"/>
        <path class="cls-2" d="m619.67,484.07h-9.81c.08,6.38-.15,9.22-2.25,12.17l-.11-.1c1.39-2.79,1.39-6.26,1.39-9.55,0-1.07,0-2.62-.17-3.66l1.26.73h3.51c.01-1.06.01-1.39-.22-2.18l1.3.43c.17.05.28.09.28.24,0,.19-.18.33-.4.49v1.02h3.31l.6-.94c.1-.14.14-.21.21-.21s.12.05.25.17l.93.94c.04.05.14.16.14.26,0,.17-.12.19-.22.19Zm.32,12.48h-9.08c-.35,0-1.01,0-1.64.16l-.26-.69c.94.1,1.93.12,2.12.12h2.87v-3.35h-1.23c-.35,0-1.01.02-1.64.17l-.28-.69c.94.1,1.94.1,2.14.1h1.01c-.01-4.14-.01-5.65-.04-6.14-.03-.47-.11-.83-.26-1.42l1.35.47c.28.1.31.19.31.3,0,.21-.15.33-.4.54-.03,1.27-.03,3.83-.03,5.2v1.06h1.87l.42-.71c.07-.1.14-.23.22-.23.06,0,.17.12.25.19l.82.73c.06.05.14.12.14.26,0,.16-.12.17-.21.17h-3.51v3.35h3.2l.64-.94c.08-.12.14-.23.22-.23s.14.05.25.17l.83.95c.1.1.14.16.14.26,0,.16-.11.19-.21.19Zm-6.99-5.11c-.26,0-.49-.19-.67-.81-.26-.97-.31-1.13-.64-1.61-.43.88-.83,1.61-1.79,2.7l-.11-.1c.49-.92,1.97-4.56,1.86-6.1l1.19.75c.08.05.21.14.21.3,0,.21-.15.26-.47.36-.22.59-.42,1.07-.8,1.91.24.09,1.69.78,1.69,1.98,0,.33-.17.64-.47.64Zm6.13.07c-.32,0-.37-.12-.89-1.14-.25-.5-.54-1.04-.97-1.4-.68,1.27-1.11,1.87-1.89,2.7l-.11-.12c.92-1.51,2.05-4.66,1.98-6.26l1.32.9c.11.07.19.16.19.26,0,.19-.06.23-.58.43-.44,1.13-.65,1.56-.83,1.91.42.12,2.29.69,2.29,1.98,0,.26-.11.75-.51.75Z"/>
        <path class="cls-2" d="m621.83,497.25v-.75h4.02v-15.03h.58v15.77h-4.61Z"/>
        <path class="cls-2" d="m629.05,495.93c-.29,0-.46-.26-.46-.64,0-.33.47-1.7.53-1.99.06-.29.04-.54.03-.75l.12-.02c.24.49.51,1.14.51,2.06,0,.47-.11,1.34-.74,1.34Zm5.12-5.04c-.19,2.7-.62,4.16-.85,4.78-.32.87-.82,1.21-1.5,1.44-.18-1.08-.85-1.54-1.14-1.72l.03-.12c.78.19,1.3.19,1.35.19.28,0,.39-.03.54-.45.4-1.13.61-3.38.61-4.52h-3.09c.01.28-.01.85-.6.85-.28,0-.35-.17-.35-.47,0-.1.03-.52.03-.61.06-1.09.07-4.11.07-5.3,0-.61,0-1.85-.14-2.88l1.04.64h2.58l.33-.5c.1-.14.17-.23.24-.23.08,0,.15.09.28.19l.54.5c.1.09.15.21.15.28,0,.12-.12.17-.22.17h-1.91v2.01h.6l.26-.42c.11-.17.15-.24.22-.24s.15.09.28.19l.44.42c.07.07.15.16.15.28,0,.16-.12.19-.22.19h-1.73v1.99h.61l.33-.49c.1-.14.15-.21.22-.21.08,0,.14.05.25.17l.42.49c.08.09.12.21.12.28,0,.1-.08.17-.21.17h-1.75v2.1h.93l.36-.5c.08-.12.15-.21.22-.21s.15.07.28.23l.54.62c.06.07.1.14.1.23,0,.21-.32.4-.42.45Zm-3.51,4.3c-.46,0-.46-.73-.46-1.09,0-1.07,0-1.44-.15-1.91l.08-.05c.1.14.6.76.67.92.33.64.39,1.09.39,1.33,0,.5-.31.8-.53.8Zm.67-12.05h-1.22v2.01h1.22v-2.01Zm0,2.43h-1.22v1.99h1.22v-1.99Zm0,2.41h-1.22v2.1h1.22v-2.1Zm.49,6.08c-.36,0-.4-.29-.51-1.28-.04-.38-.11-.83-.26-1.27l.06-.05c.74.8,1.15,1.27,1.15,1.94,0,.3-.14.66-.43.66Zm.78-1.28c-.28,0-.33-.28-.49-.97-.11-.45-.22-.64-.32-.8l.08-.1c.65.38,1.07.75,1.07,1.32,0,.28-.12.55-.35.55Zm9.18,3.19c-.67.05-1.15.78-1.32,1.02-1.55-1.58-2.7-4.56-2.7-8.65h-1.48c-.14,4.26-.82,6.88-2.84,8.7l-.07-.07c1.94-2.63,2.01-7.47,2.01-11.08,0-2.15-.1-2.72-.24-3.67l1.32.73h2.86l.4-.49c.08-.1.15-.16.22-.16s.12.04.24.16l.55.59c.08.09.12.17.12.28,0,.12-.26.36-.43.5-.01.29-.03.62-.03,1.09,0,.55.08,2.98.08,3.52s-.43.69-.65.69c-.44,0-.42-.38-.4-.8h-1.42c.32,3.78,2.32,6.78,3.79,7.52v.1Zm-2.34-12.6h-3.08c-.01.66-.07,3.85-.07,4.56h3.15v-4.56Z"/>
      </g>
      <rect class="cls-4" x="582.38" y="443.36" width="63.33" height="32.49"/>
      <g>
        <path class="cls-1" d="m595.61,454.92c.1.05.16.12.16.22,0,.11-.13.18-.5.25-.16.19-.49.59-1.01,1.22-.46.55-.85,1-1.18,1.33.06,0,1.07-.05,1.7-.13-.05-.08-.19-.36-.49-.68l.06-.07c.94.36,1.66.9,1.66,1.45,0,.23-.13.49-.46.49-.29,0-.41-.14-.52-.55-.01-.04-.06-.2-.13-.38l-1.09.24c0,.52.04,2.97.04,3.2.01.24.05,1.32.05,1.54,0,.31-.28.52-.58.52-.25,0-.32-.16-.32-.36,0-.19.05-.98.05-1.15.01-.38.02-1.56.04-3.59-.76.17-1.35.3-1.51.34-.07.12-.19.35-.3.35-.12,0-.19-.14-.22-.22l-.26-1.02c.2.05.55.08.85.08.37,0,.92-.01,1.12-.02.82-1.1,1.55-2.63,1.72-3.11.05-.12.07-.34.07-.48l1.07.54Zm-4.74,7.89c.52-1.16.86-2.69.84-3.5l.98.36c.08.04.17.11.17.17,0,.08-.07.14-.38.26-.38,1.12-.73,1.79-1.55,2.75l-.06-.04Zm.46-7.88c.34.08.73.19,1.03.34.34-.67.86-1.98.79-2.69l1.14.56c.1.05.14.12.14.18,0,.18-.18.22-.46.26-.56.72-.65.83-1.46,1.76.35.22.71.54.71.95,0,.28-.18.58-.49.58-.28,0-.35-.14-.61-.73-.28-.62-.55-.89-.8-1.14v-.07Zm2.83,4.57c.49.22,1.69.76,1.69,1.57,0,.38-.28.59-.53.59-.32,0-.38-.24-.54-.79-.17-.62-.4-.97-.66-1.32l.04-.05Zm5.73-3.87l.36-.34c.06-.06.13-.13.17-.13.05,0,.13.07.17.11l.58.49c.06.05.11.12.11.18,0,.08-.23.25-.44.41-.07,3.32-.1,4.81-.73,6.03-.44.85-1.2,1.16-1.86,1.18-.1-.56-.47-.94-1.09-1.36v-.07c.56.11,1.3.24,1.61.24,1.21,0,1.27-3.96,1.27-5.19,0-.2-.01-1.06-.01-1.26h-3.24c-.59,1.12-1,1.52-1.18,1.72l-.07-.05c.89-1.76,1.3-3.79,1.3-4.41,0-.12-.04-.35-.06-.46l1.3.55c.06.02.13.08.13.17,0,.12-.18.2-.47.34-.13.38-.35.98-.79,1.86h2.96Zm-3.27,2.29c1.14.47,1.7.85,1.7,1.5,0,.29-.14.56-.48.56-.31,0-.41-.13-.67-.96-.1-.31-.32-.72-.6-1.03l.05-.07Z"/>
        <path class="cls-1" d="m609.13,457.47c.8.68,1.18,1.54,1.18,2.57,0,2.13-1.75,3.66-4.04,3.66-1.87,0-3.45-1.06-3.45-2.44,0-.76.5-1.11.99-1.11.59,0,.85.5.85.87,0,.26-.05.42-.1.55-.03.1-.05.23-.05.4,0,.66.75,1.14,1.56,1.14,1.34,0,2.69-1.32,2.69-3.07s-1.32-3.17-2.7-3.17c-.1,0-.59.07-.69.07-.26,0-.38-.16-.38-.36,0-.23.17-.4.4-.4.1,0,.62.1.75.1,1.46,0,2.37-1.3,2.37-2.7s-.81-2.6-2.18-2.6c-.92,0-1.4.66-1.4,1.16,0,.09.03.17.05.26.04.12.05.29.05.42,0,.54-.4.95-.88.95-.57,0-.87-.5-.87-.95,0-.95,1.11-2.43,3.33-2.43s3.47,1.39,3.47,2.91c0,.61-.23,1.2-.64,1.77-.71.94-1.49,1.23-2.2,1.47.8.24,1.32.42,1.92.94Z"/>
        <path class="cls-1" d="m613.52,462.69c.02.57-.47,1-1.01,1-.57,0-1-.45-1-1s.43-1.01,1-1.01c.54,0,1.01.45,1.01,1.01Z"/>
        <path class="cls-1" d="m622.36,459.88c0,2.01-1.58,3.81-4.09,3.81-1.98,0-3.74-1.14-3.74-3.12,0-1.87,1.49-2.76,3.09-3.69-.92-.54-2.58-1.51-2.58-3.4,0-1.72,1.35-3.1,3.47-3.1,2.37,0,3.17,1.77,3.17,2.74,0,1.47-1.42,2.55-2.17,3.1,1.63,1.01,2.86,1.87,2.86,3.66Zm-6.38.64c0,1.53,1.14,2.58,2.5,2.58,1.51,0,2.63-1.33,2.63-2.62,0-1.65-1.72-2.62-2.98-3.33-.78.59-2.15,1.65-2.15,3.36Zm4.42-7.21c0-1.32-.88-2.34-2.15-2.34s-2.04.94-2.04,2.06c0,1.21.99,1.82,2.79,2.89.5-.43,1.4-1.18,1.4-2.62Z"/>
        <path class="cls-1" d="m625.81,454.83v1.37c.47-.47,1.37-1.37,2.86-1.37,1.63,0,1.94,1.06,2.08,1.56.59-.57,1.54-1.56,3.1-1.56s2.22.92,2.22,2.84v4.09c0,.66.35,1.04.87,1.04h.33v.55h-3.62v-.55h.31c.61,0,.88-.47.88-1.04v-3.99c0-.49-.09-2.2-1.53-2.2-.49,0-1.58.28-2.44,1.51,0,.14.02.28.02.59v4.09c0,.73.4,1.04.87,1.04h.5v.55h-3.97v-.55h.5c.47,0,.87-.33.87-1.04v-3.99c0-.36-.04-2.2-1.51-2.2-.42,0-1.53.23-2.34,1.37v4.82c0,.73.42,1.04.87,1.04h.31v.55h-3.61v-.55h.31c.52,0,.87-.36.87-1.04v-5.22c0-.54-.29-.81-.71-.81-.19,0-.36.02-.52.07l-.07-.33,2.55-.64Z"/>
      </g>
      <polyline class="cls-8" points="25.02 28.66 25.02 475.86 645.71 475.86"/>
    </g>
  </g>
</svg>