<?xml version="1.0" encoding="UTF-8"?>
<svg id="_レイヤー_2" data-name="レイヤー 2" xmlns="http://www.w3.org/2000/svg" xmlns:xlink="http://www.w3.org/1999/xlink" viewBox="0 0 1280 330">
  <defs>
    <style>
      .cls-1 {
        fill: none;
      }

      .cls-2 {
        clip-path: url(#clippath);
      }

      .cls-3 {
        fill: #fff;
      }

      .cls-4 {
        fill: #bdddb5;
      }

      .cls-5 {
        fill: #c30d75;
      }

      .cls-6 {
        fill: #888;
      }

      .cls-7 {
        fill: #595757;
      }
    </style>
    <clipPath id="clippath">
      <rect class="cls-1" width="1280" height="330"/>
    </clipPath>
  </defs>
  <g id="_レイヤー_1-2" data-name="レイヤー 1">
    <g>
      <g class="cls-2">
        <g>
          <g>
            <g>
              <path class="cls-7" d="m1255.45,84.82c-24.28,9.73-46.28,18.34-75.54,29.7-.08.03-.16.04-.25.04-.46,0-1.09-.33-1.73-.66-.64-.33-1.27-.66-1.73-.66-.09,0-.17.01-.25.04-5.28,2.04-10.58,4.1-15.87,6.14-1.27.49-1.28,3.26-2.54,3.75-34.56,13.34-69.08,26.52-100.26,38.36-8.96,3.4-11.34,4.28-19.67,7.43-.04.01-.08.02-.12.02-.63,0-1.97-1.37-3.3-2.75-1.33-1.37-2.66-2.75-3.28-2.75-.04,0-.08,0-.12.02-2.16.82-10.41,3.94-18.82,7.13.9,4.34,1.88,9.1,2.83,13.74l-10.35,2.1c-.82-4.04-1.67-8.18-2.47-12.05-4.9,1.85-8.83,3.34-10.16,3.84-1.08.4.24,7.9-.82,8.3-15.68,5.93-8.92,3.4-20.5,7.77-10.94,4.12-19.74,7.45-25.88,9.78,0,0-9.59,3.69-9.8,3.78-.12.05-.64.24-1.57.85,0,0-15.4,7.24-28.35,9.34-12.92,2.13-28.94,3.14-47.2,3.14h-.12l-2.45-2.59c-3.61-.04-10.9-.14-16.51-.3h-.01c-.52,0-.96.62-1.39,1.24-.42.62-.83,1.24-1.28,1.24h-.02c-33.86-1.23-73.4-5.13-115.17-10.65.27-3.43.68-12.7.83-13.05-1.85-.29-47.34-7.07-48.9-7.31,0,0-7.59-4.88-15.06-10.47-4.59-1.3-20.23-3.88-24.1-4.6-4.58.54-21.78,2.61-25.54,2.61-.25,0-.44,0-.57-.03-.01,0-.02,0-.03,0-.59,0-.65,3.75-.71,7.5-.06,3.75-.12,7.5-.7,7.5,0,0-.01,0-.02,0-37.08-6.06-35.6-6.3-70.81-13.13l-2.4-2.85c-2.03-.4-19.57-4.07-21.59-4.46l-2.95,1.78c-28.42-5.61-57.1-11.93-78.21-16.42.27-.33-2.19-7.17-2.19-7.17-7.34-1.72-55.47-13.1-81.23-16.34-.01,0-.03,0-.05,0-.9,0-10.51,2.65-10.51,2.65-1.59-.28-12.27-2.57-13.91-2.79-6.29-.84-12.96-1.24-19.99-1.24-13.02.02-28.96,1.6-44.62,4.27l-4.27-1.25s-12.02,2.14-12.36,2.25l-3.58,3.22c-37.35,8.38-67.05,17.25-111.37,33.77-1.29-.71-10.46-5.49-10.46-5.49l-25.93,10.84-2.55,9.06c-21.33,8.21-91.34,38.08-114.95,48.34v18.99c22.79-9.97,92.66-41.91,117.69-51.55.02-.01.05-.01.09-.01.6,0,3.26.86,5.91,1.73,2.65.86,5.3,1.73,5.91,1.73.04,0,.07,0,.09-.01,5.17-1.99,25.22-9.27,25.3-9.33,1.11-3.09,1.88-9.05,5.79-10.44,36.19-12.88,77.61-26.08,107.58-32.53l3.51,1.12c3.56-.73,10.05-2.3,13.5-2.92l2.78-2.01c15.34-2.56,29.35-3.93,41.73-3.93h.22c8.02,0,15.33.57,21.84,1.7.91.22,4.27,1.03,9.77,2.33,3.96.93,8.52,6.67,14.58,8.08,5.53,1.28,60.72,15.07,73.7,17.88.03,0,.07.01.11.01,1.26,0,4.84-4.61,4.86-4.99,23.31,5.02,49.38,10.42,80.75,16.61l1.61,2.23c1.66.33,21.2,4.52,21.2,4.52l2.63-1.62c35.6,6.89,34.65,7.12,72.1,13.22,1.25.21,3.91,8.41,5.16,8.61,4.62.75,95.23,14.77,99.84,15.49.01,0,.03,0,.05,0,.63,0,2.58-1.58,4.54-3.16,1.96-1.58,3.92-3.16,4.55-3.16.02,0,.03,0,.05,0,61.6,9.58,67.12,8.95,116.34,10.72.87.03,1.72,1.75,2.59,1.78,5.89.19,11.63.3,17.19.32.67,0,1.33-1.69,1.99-1.69,18.89,0,35.69-1.01,49.9-3.35,13.84-2.32,43.71-15.16,55.05-19.44,13.25-5,12.17-4.54,34.22-12.87.04-.02.09-.03.15-.03.5,0,1.3.74,2.1,1.47.8.74,1.6,1.48,2.11,1.48.05,0,.11,0,.15-.03,4.64-1.75,33.7-12.45,38.6-14.3.56-.21,1.06-6.03,1.62-6.24,37.45-14.17,76.04-28.14,120.96-45.48.2-.08.4-.11.61-.11.4,0,.81.11,1.22.22.41.11.82.22,1.22.22.21,0,.41-.03.6-.1,5.73-2.22,11.47-4.43,17.17-6.65.72-.27,1.2-2.1,1.91-2.37,5.59-2.17,11.18-4.34,16.71-6.5,17.45-6.8,36.31-14.28,53.62-21.18v-17"/>
              <path class="cls-4" d="m721.57,197.11s0,0,0,.01c0,0,.01,0,.02,0,0,0,0-.01,0-.01"/>
            </g>
            <g>
              <path class="cls-6" d="m-120.53,280.44C-52.66,247.28,24.38,211.57,86.62,187.63l.47,1.23-1.27-.36,2.55-9.06c.11-.39.39-.7.76-.86l25.93-10.84c.36-.15.77-.13,1.12.05,0,0,9.16,4.78,10.49,5.5l-.63,1.16-.46-1.24c44.35-16.53,74.13-25.42,111.54-33.82l.29,1.29-.88-.98,3.58-3.22c.14-.12.3-.22.48-.27l.18-.05c.31-.07,1.19-.23,2.39-.45,3.61-.66,9.95-1.79,9.96-1.79.2-.03.41-.02.6.03l4.28,1.25-.37,1.27-.22-1.3c15.72-2.68,31.72-4.26,44.84-4.29h0c7.08,0,13.81.4,20.16,1.25.5.07,1.45.25,2.73.5,1.89.38,4.41.9,6.61,1.35,2.19.45,4.08.84,4.63.94l-.23,1.3-.35-1.27s2.41-.66,4.94-1.33c1.26-.33,2.55-.66,3.6-.91.52-.13.98-.23,1.35-.31.19-.04.35-.07.5-.09.16-.02.27-.04.48-.05.1,0,.19,0,.45.07l-.4,1.26.17-1.31c12.96,1.63,31.44,5.29,47.63,8.76,16.18,3.47,30.06,6.74,33.73,7.6.43.1.79.42.94.84,0,0,.56,1.55,1.12,3.23.28.84.56,1.71.78,2.44.11.37.2.7.27.99.07.31.12.51.13.87,0,.08,0,.18-.03.31-.03.14-.07.33-.28.6l-1.04-.82.27-1.29c21.1,4.5,49.78,10.81,78.18,16.42l-.26,1.3-.68-1.13,2.96-1.78c.28-.17.61-.23.93-.17,1.03.2,5.91,1.22,10.8,2.23,4.89,1.02,9.79,2.03,10.78,2.22.3.06.56.21.76.45l2.4,2.86-1.01.85.25-1.3c35.24,6.83,33.7,7.06,70.77,13.11h.01s-.2,1.17-.2,1.17v-1.19l.2.02-.2,1.17v-1.19,1.16l-.76-.88c.13-.13.44-.28.76-.28v1.16l-.76-.88.59.69-.8-.43s.07-.13.21-.25l.59.69-.8-.43.34.18-.35-.15.02-.03.34.18-.35-.15.02-.06c.05-.16.12-.59.16-1.11.17-1.88.17-5.18.24-8,.03-1.42.08-2.71.19-3.71.06-.5.12-.93.24-1.34.06-.21.13-.41.32-.68.09-.13.22-.28.43-.42.2-.14.5-.25.81-.25h.19s.05.02.05.02h.02c.05,0,.17.01.34.01.84,0,2.62-.12,4.81-.33,6.61-.6,17.15-1.87,20.58-2.28h.39c1.91.37,6.8,1.19,11.77,2.09,2.49.45,5,.92,7.18,1.35,2.19.44,4.04.84,5.25,1.19.16.05.3.12.43.21,3.71,2.78,7.46,5.39,10.28,7.3,1.41.95,2.59,1.73,3.42,2.28.83.54,1.29.84,1.29.84l-.71,1.11.21-1.3c.75.12,12.61,1.89,24.44,3.66,11.84,1.77,23.67,3.53,24.46,3.66l-.21,1.3-1.25.42,1.22-.41-1.05.74c-.12-.18-.14-.27-.17-.34l1.22-.41-1.05.74,1.07-.76-.74,1.08c-.17-.12-.27-.24-.33-.32l1.07-.76-.74,1.08.74-1.09v1.31c-.3,0-.58-.11-.74-.23l.74-1.09v1.31-1.31l.91.95c-.14.14-.45.37-.91.37v-1.31l.91.95-.89-.93,1.21.45c-.04.08-.04.19-.31.48l-.89-.93,1.21.45-.88-.33.93.17s0,.02-.04.16l-.88-.33.93.17s-.03.25-.05.56c-.09,1.13-.22,3.49-.35,5.9-.13,2.42-.27,4.9-.39,6.38l-1.31-.11.17-1.31c41.74,5.52,81.24,9.42,115.06,10.65h0l-.04,1v-1h.04s-.04,1-.04,1v-1,.71l-.39-.61s.18-.1.39-.1v.71l-.39-.61.13.21-.15-.2h.02s.13.2.13.2l-.15-.2v-.02c.07-.05.2-.21.35-.43.23-.32.5-.75.86-1.17.18-.21.39-.42.69-.62.29-.19.69-.37,1.17-.37h.05c5.59.15,12.88.25,16.49.29.36,0,.7.15.94.41l2.45,2.59-.96.91v-1.32h.04c18.23,0,34.23-1.01,47.05-3.13h.05c3.08-.39,9.16-2.13,16.6-4.61,22.38-7.45,57.61-21.63,69.13-26.8l.08-.03.35.94-.75-.67c.07-.08.21-.2.4-.27l.35.94-.75-.67.53.48-.64-.32.11-.15.53.48-.64-.32.28.14-.29-.12v-.02s.29.14.29.14l-.29-.12v-.02c.06-.15.12-.77.11-1.48,0-1.09-.08-2.48-.08-3.69,0-.64.02-1.23.11-1.78.05-.28.11-.54.24-.84.07-.15.16-.31.31-.48.15-.17.37-.34.64-.44,4.22-1.59,34.54-13.07,38.98-14.76.21-.08.41-.11.59-.11.64.02.97.25,1.31.45.57.37,1.1.87,1.68,1.43.86.85,1.78,1.84,2.56,2.6.39.38.74.69.99.88l.25.17h0s-.23.58-.23.58v-.61c.16,0,.22.03.23.04l-.23.57v-.61.98l-.35-.91.35-.07v.98l-.35-.91h.01c8.34-3.16,10.71-4.03,19.67-7.44,31.17-11.84,65.7-25.02,100.26-38.35h0l.08.2-.12-.18.04-.02.08.2-.12-.18.03.05-.04-.04h0s.03.04.03.04l-.04-.04s.12-.13.24-.39c.19-.38.38-.98.66-1.6.15-.31.31-.64.57-.96.25-.32.61-.64,1.1-.83h0c5.31-2.05,10.6-4.1,15.89-6.14h0c.26-.1.51-.13.73-.13.54,0,.93.16,1.3.31.55.23,1.05.52,1.48.73.21.11.4.19.53.24l.14.04h.02s-.03.22-.03.22v-.21h.03l-.03.21v-.21.64l-.23-.59.23-.05v.64l-.23-.59h0c29.45-11.42,58.38-22.78,84.77-33.34h-.01s3.33-1.37,3.33-1.37l1,2.44-3.33,1.37h-.01c-26.39,10.57-55.34,21.93-84.79,33.35h.01c-.26.1-.52.13-.74.13-.55,0-.93-.16-1.31-.31-.55-.23-1.05-.52-1.48-.73-.21-.11-.4-.19-.53-.23l-.14-.04h-.02s.03-.23.03-.23v.23h-.03s.03-.23.03-.23v.23-.64l.23.6-.23.05v-.64l.23.6h0c-5.29,2.05-10.58,4.1-15.9,6.14h0s-.08-.2-.08-.2l.12.18-.05.02-.08-.2.12.18-.04-.05.04.05h0s-.04-.05-.04-.05l.04.05s-.12.13-.24.39c-.19.38-.38.98-.66,1.6-.15.31-.32.64-.57.96-.25.32-.61.64-1.1.83h0c-34.56,13.34-69.09,26.52-100.27,38.36-8.97,3.41-11.34,4.29-19.68,7.44h0c-.21.08-.41.11-.6.11-.64-.02-.97-.24-1.31-.45-.57-.37-1.1-.87-1.68-1.43-.86-.85-1.78-1.84-2.56-2.6-.39-.38-.74-.69-.99-.88l-.25-.16h0s.23-.58.23-.58v.61c-.16,0-.22-.03-.23-.04l.23-.57v.61-.98l.35.91-.35.06v-.98l.35.91c-4.45,1.68-34.76,13.16-38.98,14.75l-.35-.93.74.66c-.07.08-.21.2-.39.26l-.35-.93.74.66-.53-.47.63.32-.11.15-.53-.47.63.32-.27-.13.28.11v.02s-.28-.13-.28-.13l.28.11v.02c-.06.16-.12.78-.11,1.5,0,1.1.08,2.49.08,3.69,0,.64-.02,1.22-.11,1.77-.05.27-.11.54-.24.84-.07.15-.17.31-.31.48-.15.16-.37.34-.64.44l-.46-1.24.54,1.21c-7.77,3.49-25.99,10.94-43.96,17.75-8.98,3.41-17.9,6.65-25.41,9.15-7.53,2.5-13.59,4.26-17.11,4.71l-.17-1.31.22,1.3c-13.04,2.15-29.16,3.16-47.49,3.16h-.05c-.36,0-.71-.15-.95-.41l-2.45-2.59.96-.91v1.32c-3.64-.04-10.93-.14-16.55-.29l.03-1.32v1.32h-.02v-.55l.27.49s-.13.06-.27.06v-.55l.27.49-.07-.13.08.13h-.01s-.07-.13-.07-.13l.08.13-.08.08c-.19.19-.5.67-.85,1.16-.18.25-.38.5-.66.76-.14.13-.31.25-.54.36-.22.11-.5.2-.82.19h-.07s0,0,0,0c-33.95-1.23-73.51-5.14-115.3-10.67-.7-.09-1.2-.72-1.14-1.42.14-1.71.31-4.98.47-7.81.08-1.42.15-2.72.22-3.69.03-.48.06-.88.09-1.17.02-.15.03-.27.05-.39l.05-.23c.02-.06.03-.13.11-.28.05-.08.1-.18.25-.33.14-.14.46-.37.92-.37.3,0,.58.11.75.23.26.19.35.34.41.45l.1.24c.15.44.05.92-.25,1.27-.3.35-.76.52-1.21.45-.75-.12-12.61-1.89-24.44-3.65-11.85-1.77-23.66-3.53-24.47-3.66-.18-.03-.35-.09-.5-.19-.02-.01-7.63-4.9-15.15-10.53l.79-1.06-.36,1.27c-1.07-.3-2.9-.71-5.05-1.14-6.48-1.3-15.99-2.88-18.92-3.43l.24-1.3.16,1.31c-2.28.27-7.73.92-13.09,1.51-2.68.29-5.33.57-7.56.77-2.23.2-4.01.33-5.06.34-.29,0-.51,0-.78-.05l.21-1.3-.16,1.31.14-1.12v1.13h-.14s.14-1.13.14-1.13v1.13-1.16l.76.88c-.14.12-.43.28-.76.28v-1.16l.76.88-.59-.68.8.43s-.07.13-.21.25l-.59-.68.8.43-.33-.18.35.15-.02.03-.33-.18.35.15-.02.06c-.05.16-.12.58-.16,1.11-.17,1.88-.17,5.19-.24,8-.03,1.42-.08,2.71-.19,3.71-.06.5-.12.93-.24,1.34-.07.21-.14.41-.32.67-.09.13-.22.28-.42.42-.2.14-.5.25-.81.25l-.25-.02.23-1.3-.21,1.3c-37.09-6.06-35.67-6.31-70.85-13.13-.3-.06-.56-.21-.76-.45l-2.4-2.86,1.01-.85-.25,1.3c-1.04-.2-5.92-1.21-10.82-2.23-4.89-1.01-9.79-2.03-10.77-2.23l.25-1.3.68,1.13-2.95,1.78c-.28.17-.62.23-.94.16-28.44-5.61-57.13-11.93-78.22-16.42-.44-.1-.81-.42-.97-.84-.16-.43-.08-.91.21-1.27l.97.77-1.21-.24c.03-.1.05-.27.25-.53l.97.77-1.21-.24.99.19h-1.01l.02-.19.99.19h-1.01.4l-.4.05v-.05s.4,0,.4,0l-.4.05s-.04-.22-.1-.46c-.22-.87-.74-2.45-1.19-3.78-.45-1.34-.85-2.43-.85-2.44l1.24-.45-.3,1.29c-3.67-.86-17.53-4.13-33.68-7.59-16.15-3.46-34.61-7.11-47.41-8.72l-.23-.05.34-1.09v1.15c-.05,0-.11.01-.34-.06l.34-1.09v1.15-.62l.05.62h-.05v-.62l.05.62h0c-.07,0-.35.06-.71.14-1.27.28-3.67.9-5.72,1.44-2.05.55-3.77,1.02-3.78,1.02-.18.05-.39.06-.58.03-.85-.15-3.89-.79-6.97-1.42-1.54-.32-3.07-.63-4.32-.88-1.24-.25-2.24-.43-2.56-.48-6.22-.84-12.83-1.22-19.81-1.22h0c-12.92.02-28.81,1.59-44.4,4.25-.2.03-.4.02-.59-.03l-4.28-1.25.37-1.27.23,1.3s-3,.54-6.05,1.08c-1.52.27-3.06.55-4.23.77-.59.11-1.08.2-1.44.27-.18.03-.32.06-.42.08l-.11.02h-.01s-.23-.93-.23-.93l.3.92-.07.02-.23-.94.3.92-.41-1.26.88.98-3.58,3.22c-.17.15-.38.26-.59.31-37.31,8.38-66.91,17.21-111.2,33.72-.36.13-.75.1-1.09-.08-.63-.34-3.25-1.72-5.7-3-2.45-1.28-4.74-2.48-4.75-2.48l.61-1.17.51,1.22-25.34,10.59-2.37,8.45c-.11.4-.41.72-.8.88-62.11,23.9-139.11,59.58-206.94,92.72l-1.16-2.37Z"/>
              <path class="cls-6" d="m-114.52,295.14c18.44-9.12,36.67-18.06,48.94-23.89,56.75-27,100.47-46.84,154.95-67.85h0c.29-.1.44-.1.57-.1.23,0,.38.03.56.06.64.12,1.54.39,2.65.73,1.65.51,3.69,1.19,5.41,1.74.86.28,1.64.52,2.25.69.3.08.56.15.74.19l.21.04h.04s-.03.36-.03.36v-.36h.03s-.03.36-.03.36v-.36,1.07l-.4-.99c.26-.1.35-.08.4-.08v1.07l-.4-.99h.02c2.61-1.01,8.79-3.24,14.35-5.24,2.78-1,5.4-1.94,7.32-2.63.96-.35,1.76-.63,2.31-.83.27-.1.49-.18.63-.23l.16-.06h.03s.32.79.32.79l-.34-.79h.03s.32.79.32.79l-.34-.79.49,1.13-.54-1.1.05-.02.49,1.13-.54-1.1.57,1.18-.78-1.05c.15-.11.17-.1.2-.12l.57,1.18-.78-1.05.78,1.06-1.09-.75c.25-.36.72-1.23,1.24-2.26.79-1.56,1.74-3.53,2.65-5.21.46-.84.9-1.6,1.34-2.23.22-.31.44-.59.68-.85.25-.25.49-.49.92-.67l.09-.03s19.41-6.52,42.57-13.85c23.17-7.33,50.05-15.47,65.15-18.72.23-.05.46-.04.68.03l3.51,1.12-.4,1.26-.27-1.29c3.52-.73,10.02-2.29,13.53-2.92l.23,1.3-.77-1.07,2.78-2.01c.16-.12.36-.2.56-.23,15.4-2.58,29.49-3.95,41.97-3.95h.2c8.08,0,15.47.57,22.07,1.72l.08.02c.91.21,4.27,1.02,9.77,2.32,1.23.29,2.36.91,3.5,1.63,1.7,1.1,3.43,2.48,5.27,3.71,1.84,1.23,3.76,2.27,5.8,2.74,2.8.65,17.96,4.41,34.07,8.37,16.1,3.96,33.16,8.11,39.61,9.51h.04s-.22.87-.22.87v-.89l.22.03-.22.87v-.89.53l-.18-.51.18-.03v.53l-.18-.51.08-.04c.2-.11.62-.44,1.05-.87.65-.64,1.37-1.48,1.91-2.17.27-.34.5-.65.64-.87l.14-.22h0s.58.28.58.28l-.61-.23.03-.07.58.29-.61-.23,1.09.4-1.16-.05c.02-.23.05-.3.07-.35l1.09.4-1.16-.05c.02-.39.21-.75.51-.99.31-.24.71-.33,1.08-.24,23.31,5.01,49.37,10.41,80.73,16.59.33.06.62.25.82.52l1.61,2.23-1.07.77.25-1.3c.87.17,6.15,1.3,11.25,2.39,5.09,1.09,9.98,2.14,9.98,2.14l-.28,1.29-.69-1.12,2.63-1.62c.28-.17.62-.23.94-.17,35.63,6.89,34.62,7.12,72.07,13.22h0c.41.07.67.25.86.41.36.3.58.61.82.97.4.62.79,1.39,1.2,2.23.6,1.25,1.22,2.65,1.76,3.71.27.53.52.97.71,1.23l.17.21-.25.28.18-.32.07.04-.25.28.18-.32-.44.76.14-.87c.15.03.25.08.3.11l-.44.76.14-.87c4.61.75,95.23,14.77,99.84,15.49h.01l-.17,1.01v-1.02h.17s-.17,1.02-.17,1.02v-1.02.76l-.18-.74.18-.02v.76l-.18-.74.07.28-.09-.27h.02s.07.27.07.27l-.09-.27s.23-.1.5-.28c1-.64,2.78-2.11,4.38-3.39.81-.65,1.59-1.25,2.26-1.73.34-.23.66-.44.97-.6.16-.08.31-.16.49-.22.18-.06.38-.12.68-.12h.22s.03.02.03.02c61.6,9.57,66.94,8.93,116.2,10.7.66.04,1.09.32,1.4.56.48.37.81.76,1.08,1.02l.28.24h.01s-.22.43-.22.43l.02-.47.2.04-.22.42.02-.47c5.89.19,11.61.3,17.16.32h0v.8l-.39-.71c.05-.03.19-.09.39-.09v.8l-.39-.71.17.31-.21-.28.04-.03.17.31-.21-.28h0c.09-.07.34-.41.64-.78.16-.18.33-.38.58-.58.25-.19.63-.43,1.2-.44,18.83,0,35.57-1.02,49.68-3.33h0c6.76-1.13,15.22-3.96,21.94-6.51,3.36-1.28,6.3-2.48,8.4-3.37,1.05-.44,1.88-.81,2.46-1.06.57-.25.88-.39.88-.39l.05-.02c2.07-.83,9.73-3.74,21.08-8.02,13.26-5.01,12.18-4.55,34.21-12.87.21-.08.43-.11.62-.11.45,0,.76.14,1.03.27.46.24.82.54,1.2.85.55.48,1.1,1.01,1.55,1.39.22.19.42.34.54.41l.09.05-.19.5v-.53l.19.03-.19.5v-.53.89l-.31-.83.31-.06v.89l-.31-.83c4.64-1.76,33.71-12.46,38.61-14.31l.39,1.02-.94-.59c.05-.05.12-.25.55-.44l.38,1.02-.94-.59.4.25-.43-.2.03-.05.4.25-.43-.2.03-.09c.08-.22.19-.73.3-1.3.17-.87.34-1.92.52-2.81.09-.45.18-.85.3-1.21.06-.18.12-.35.23-.56l.24-.35c.12-.13.29-.3.61-.42l.45,1.24-.47-1.24c37.45-14.18,76.03-28.15,120.93-45.48h0c.37-.14.75-.19,1.08-.19.64,0,1.15.16,1.56.27.41.11.73.18.88.17l.14-.02c5.72-2.21,11.45-4.43,17.17-6.64h0s.19.48.19.48l-.35-.38.17-.1.19.47-.35-.38.06-.07c.13-.17.36-.59.62-1.03.14-.22.28-.46.49-.69.2-.23.46-.5.92-.68,5.59-2.17,11.16-4.34,16.72-6.5,23.79-9.27,47-18.41,68.53-27.03h0s2.85-1.15,2.85-1.15l.99,2.45-2.85,1.16h0c-21.54,8.63-44.76,17.77-68.55,27.04-5.56,2.16-11.13,4.33-16.73,6.5l-.18-.46.34.37-.16.09-.18-.46.34.37-.06.07c-.14.17-.36.58-.61,1.02-.13.22-.28.45-.47.69-.2.23-.45.5-.91.69h0c-5.72,2.22-11.45,4.44-17.18,6.65-.38.14-.75.19-1.09.19-.64,0-1.15-.16-1.56-.26-.41-.11-.72-.18-.88-.18l-.14.02h0c-44.93,17.34-83.52,31.31-120.94,45.48h-.02s-.37-1.01-.37-1.01l.92.6c-.05.05-.13.25-.55.42l-.37-1.02.92.6-.41-.26.43.21-.03.05-.41-.26.43.21v.02c-.06.13-.19.62-.3,1.19-.17.87-.35,1.96-.53,2.89-.09.46-.18.88-.29,1.25-.06.19-.12.36-.22.57-.05.1-.11.21-.23.35-.11.13-.28.31-.62.45-4.93,1.86-33.99,12.56-38.61,14.31-.21.08-.43.11-.62.11-.45,0-.76-.14-1.03-.27-.46-.24-.83-.54-1.21-.85-.56-.48-1.1-1.01-1.55-1.39-.22-.19-.42-.34-.54-.41l-.07-.04h-.02s.2-.49.2-.49v.5c-.15,0-.2-.03-.2-.03l.2-.48v.5-.9l.32.84-.32.06v-.9l.32.84c-22.03,8.33-20.96,7.87-34.21,12.87-11.33,4.27-19.02,7.2-21.03,8l-.49-1.23.54,1.21s-5.08,2.29-11.88,4.88c-6.81,2.58-15.35,5.46-22.44,6.65h0c-14.32,2.35-31.18,3.36-50.11,3.37v-.79l.39.7c-.05.03-.19.09-.39.09v-.79l.39.7-.17-.31.21.28-.04.02-.17-.31.21.28h0c-.09.07-.34.41-.64.77-.16.18-.33.38-.58.58-.25.19-.63.44-1.2.45h0c-5.57-.02-11.32-.13-17.23-.32-.67-.04-1.09-.33-1.41-.56-.47-.37-.8-.76-1.07-1.01l-.28-.24h-.02s.2-.41.2-.41l-.02.44-.19-.04.2-.4-.02.44c-49.18-1.76-54.91-1.15-116.51-10.73l.2-1.31-.18,1.31.13-.96v.97h-.13s.13-.97.13-.97v.97-.76l.18.74-.18.02v-.76l.18.74-.07-.28.09.28h-.02s-.07-.28-.07-.28l.09.28s-.22.1-.5.28c-1,.64-2.78,2.1-4.38,3.39-.81.65-1.59,1.25-2.26,1.72-.34.24-.66.44-.97.6-.16.08-.31.16-.49.22-.18.06-.38.12-.68.12l-.26-.02h0c-4.6-.72-95.21-14.74-99.85-15.49-.41-.07-.67-.25-.87-.4-.36-.3-.58-.62-.83-.97-.4-.62-.79-1.39-1.2-2.23-.6-1.25-1.22-2.65-1.76-3.71-.27-.53-.52-.97-.71-1.23l-.17-.21.25-.27-.19.31-.06-.04.25-.27-.19.31.45-.76-.14.87c-.16-.03-.25-.08-.31-.11l.45-.76-.14.87h0c-37.47-6.1-36.57-6.35-72.15-13.23l.25-1.3.69,1.12-2.63,1.62c-.29.18-.63.24-.97.16,0,0-1.22-.26-3.08-.66-2.79-.6-7-1.5-10.68-2.29-3.67-.79-6.83-1.45-7.42-1.57-.33-.06-.62-.25-.82-.52l-1.61-2.23,1.07-.77-.25,1.3c-31.37-6.19-57.45-11.59-80.77-16.61l.28-1.29,1.32.06c-.02.25-.06.36-.09.45-.06.17-.11.26-.17.36-.21.36-.52.78-.93,1.31-.61.78-1.41,1.72-2.21,2.5-.4.39-.8.75-1.21,1.04-.21.15-.42.28-.66.39-.25.11-.53.21-.91.21-.13,0-.28-.02-.43-.05l.32-1.28-.28,1.29c-6.53-1.42-23.56-5.57-39.68-9.53-16.1-3.96-31.3-7.73-34.04-8.36-3.35-.78-6.14-2.69-8.56-4.43-1.21-.87-2.33-1.71-3.35-2.36-1.02-.66-1.93-1.11-2.68-1.29-5.5-1.3-8.87-2.11-9.77-2.33l.31-1.28-.23,1.3c-6.42-1.12-13.66-1.68-21.61-1.68h0-.2c-12.29,0-26.24,1.36-41.53,3.92l-.22-1.3.78,1.07-2.78,2.01c-.17.12-.35.2-.54.23-3.36.6-9.87,2.17-13.46,2.91-.22.04-.46.03-.67-.04l-3.5-1.12.4-1.26.28,1.29c-14.88,3.2-41.78,11.33-64.91,18.66-11.57,3.66-22.2,7.12-29.94,9.67-3.87,1.27-7.02,2.32-9.2,3.04-2.18.73-3.39,1.13-3.39,1.13l-.42-1.25.51,1.22-.18-.43.26.39-.08.04-.18-.43.26.39s-.21.2-.41.48c-.36.48-.82,1.25-1.3,2.13-.72,1.32-1.5,2.91-2.21,4.32-.35.71-.69,1.37-.99,1.94-.31.58-.58,1.06-.84,1.45l-.3.31c-.16.11-.17.11-.21.13l-.12.05c-.14.06-.51.19-1.12.41-4.24,1.53-19.3,6.91-23.7,8.6l-.47-1.23.49,1.23c-.31.11-.46.1-.59.11-.23,0-.38-.03-.56-.06-.64-.12-1.54-.39-2.64-.73-1.65-.51-3.68-1.2-5.41-1.74-.86-.27-1.65-.52-2.25-.69-.3-.08-.56-.15-.74-.19l-.21-.04h-.04s.03-.35.03-.35v.35h-.03s.03-.35.03-.35v.35-1.06l.38.98c-.25.09-.33.07-.38.07v-1.06l.38.98h0c-54.4,20.97-98.03,40.78-154.77,67.77-12.24,5.82-30.47,14.76-48.9,23.87l-1.17-2.37Z"/>
            </g>
          </g>
          <rect class="cls-5" x="89.81" y="68.91" width="38.53" height="206.15"/>
          <g>
            <path class="cls-3" d="m121,95.88v6.9h-1.14v-5.71h-17.38v-1.19h18.52Z"/>
            <path class="cls-3" d="m108.49,129.62c-.41,0-.73-.76-.73-1.25,0-.41.11-2.49.14-3,.08-2.17.08-4.55.08-6.2v-2.82h-7.85c-.46,0-1.38.05-1.84.41-.49-.16-1.11-.54-1.41-1.33.92.19,1.71.19,2.57.19h8.53c0-1.68-.03-3.19-.11-4.38-.03-.49-.11-1.14-.22-1.71-3.03.73-6.25,1.25-8.47,1.27l-.11-.27c5.33-.84,10.5-2.76,13.37-4.33.54-.3.87-.65,1.08-1,.73.57,1.46,1.16,2.08,1.68.13.11.22.19.22.3,0,.16-.27.24-.59.24-.27,0-.65-.03-.97-.11-.3.16-2.06,1.03-5.47,1.92.35.13.7.27,1,.41.19.08.33.16.33.32,0,.27-.33.65-.62.89-.05,1.43-.05,2.98-.05,4.76h7.25l1.11-1.08c.05-.05.16-.16.27-.16.14,0,.35.14.51.24.68.43,1.33.87,1.98,1.33.11.08.14.14.14.22,0,.11-.11.19-.22.19h-11.04v2.73c0,1.52.08,4.55.11,5.31.03.79.08,2.98.08,3.52s-.41,1.71-1.14,1.71Z"/>
            <path class="cls-3" d="m96.94,156.31l-.22-.16c1.81-2.92,2.54-6.23,2.54-10.67,0-.87-.03-1.92-.08-2.9-.03-.54-.08-1.14-.24-1.84.97.35,1.46.57,1.79.73.35.16.41.24.41.3h8.8c0-.05-.03-.38-.05-.7-.08-1.11-.35-1.76-.62-2.22.76.19,1.41.35,1.81.46.27.08.49.24.49.35,0,.22-.3.41-.54.54.03.54.08,1.06.14,1.57h5.04l.92-.92c.08-.08.19-.16.3-.16.08,0,.22.08.38.19.57.41,1.08.79,1.62,1.22.11.08.16.16.16.24s-.11.16-.22.16h-8.12c.38,2.68,1.11,4.93,2.08,6.74.59-1.03,1.03-1.98,1.33-2.79.3-.81.49-1.52.54-2.33.7.38,1.33.73,1.87,1.06.22.14.3.22.3.33,0,.24-.46.41-.87.43-.81,1.62-1.54,3.09-2.46,4.44,1.25,1.73,3.33,3.38,4.63,3.38.33,0,.51-.38.7-.76.3-.62.57-1.62.73-2.3h.27c.03.38.05.79.05,1.22,0,.41,0,.92-.05,1.3-.03.22-.03.38-.03.54,0,.41.19.73.41.92,0,.62-.3.95-1,.95-2.11,0-4.82-1.84-6.55-4.14-1.41,1.79-3.25,3.33-6.06,4.66l-.14-.27c2.46-1.54,4.28-3.49,5.55-5.36-1.3-2.17-2.11-4.9-2.52-8.01h-9.34v3.44c0,3.65-.73,7.39-3.74,10.37Zm1.73-17.51c-.49-.16-1.11-.57-1.41-1.33.92.19,1.71.19,2.57.19h2.62v-1.92c0-.41,0-.81-.03-1.16-.05-.7-.14-1.08-.41-1.87,1.08.3,2,.6,2.44.81.16.08.22.19.22.3,0,.19-.32.38-.73.6-.03.3-.05,1.06-.05,1.33v1.92h4.2v-2.95c0-.41,0-.81-.03-1.16-.05-.7-.13-1.08-.41-1.87,1.08.3,2,.6,2.44.81.16.08.22.19.22.3,0,.19-.33.38-.73.6-.03.3-.05,1.06-.05,1.33v.08h3.57l.92-.92c.08-.08.19-.16.3-.16.08,0,.22.08.38.19.57.41,1.08.78,1.62,1.22.11.08.16.16.16.24s-.11.16-.22.16h-6.74v2.14h7.09l.97-.97c.05-.05.16-.16.27-.16.08,0,.22.08.43.22.65.41,1.27.81,1.89,1.25.11.08.14.14.14.22,0,.11-.14.19-.24.19h-19.57c-.46,0-1.38.05-1.84.41Zm2.38,14.02l-.22-.16c.7-.89,1.52-3.41,1.62-4.28.03-.27.05-.7.05-.95.65.3,1.19.57,1.76.87.11.05.19.11.19.19,0,.24-.46.38-.79.43-.43,1.14-1.87,3.25-2.63,3.9Zm3.74,2.06c-.24-.41-.65-.68-1.19-.92-.54-.24-.95-.65-1.41-1.14l.16-.24c.92.35,1.54.49,2.14.49.33,0,.51-.16.6-.68.05-.41.11-1.44.11-2.03v-4.6h-.46c-.46,0-1.38.05-1.84.41-.49-.16-1.11-.57-1.41-1.33.92.19,1.71.19,2.57.19h2.92l.62-.6c.08-.08.16-.16.24-.16s.16.05.3.16c.35.27.89.7,1.22.97.13.11.16.16.16.22,0,.08-.11.13-.19.13h-2.87c0,.97,0,2.52.03,3.76.03,1.19.03,2.76.03,3.06,0,1.27-.68,1.73-1.73,2.3Zm4.58-3.41c-.3,0-.49-.35-.65-.81-.24-.68-.89-1.95-1.52-2.63l.14-.24c1.6.7,2.81,1.84,2.81,2.63,0,.6-.41,1.06-.78,1.06Zm5.66-9.96c-.24,0-.51-.27-.68-.7-.27-.68-.6-1.25-1.49-1.87l.14-.24c1.33.46,2.76,1.06,2.76,2.06,0,.43-.41.76-.73.76Z"/>
            <path class="cls-3" d="m98.61,182.14c-.27,0-.65-.33-.65-.97,0-.43.33-.81.68-1.16.76-.76,1.25-1.35,1.54-3.17h.27c.05.54.08,1.06.08,1.52,0,1.38-.3,2.38-.81,3.17-.3.46-.7.62-1.11.62Zm15.86,1.16c-.35-.43-.65-.7-1.16-1-.62-.35-1.27-.89-1.76-1.6l.16-.22c.7.38,1.89.79,2.71.79.6,0,1-.14,1.52-.57,1.03-.87,1.49-3.55,1.6-6.09h-14.46v.54c0,.3-.68.89-1,.89-.38,0-.54-.22-.54-.6,0-.3.05-1.79.08-2.52.05-1.11.05-7.04.05-8.09,0-1.22-.05-2.73-.24-3.95.73.35,1.16.57,1.62.81.16.08.27.19.27.24h3.22c.6-1.16.81-2.06.81-2.84,0-.14,0-.35-.05-.68.81.27,1.62.57,2.36.89.16.08.22.11.22.19,0,.27-.65.43-1.06.49-.46.68-.97,1.27-1.68,1.95h6.09l.54-.6c.13-.14.24-.22.32-.22.11,0,.19.05.35.16.38.24.65.43.97.68.11.08.22.16.22.3s-.27.43-.59.73c0,.7.05,2,.08,2.57.03.62.05,1.27.05,1.89,0,.41-.49.95-1.03.95-.41,0-.54-.41-.54-.62v-.41h-10.53v2.92h14.51l.81-.97c.11-.14.16-.19.27-.19s.16.03.35.19c.6.49.84.73,1.41,1.3.08.08.11.14.11.19,0,.11-.08.22-.22.22h-17.24v2.84h14.21l.54-.6c.08-.08.16-.11.22-.11.08,0,.16.05.3.16.35.3.73.62,1.06.95.19.19.27.27.27.38,0,.22-.38.43-.76.65-.27,2.65-.73,5.17-1.84,6.44-.62.7-1.43,1.22-2.6,1.54Zm-.87-16.65v-3.98h-10.53v3.98h10.53Zm-10.42,10.34l.22-.19c1.3,1.06,2.38,2.06,2.38,3.19,0,.65-.51,1.22-.89,1.22-.33,0-.6-.32-.68-1.06-.08-.84-.24-1.89-1.03-3.17Zm3.9-.43l.14-.24c1.27.62,2.73,1.68,2.73,2.65,0,.65-.46.97-.76.97-.35,0-.51-.38-.62-.87-.16-.73-.54-1.65-1.49-2.52Zm3.84-.6l.14-.24c1.38.46,2.95,1.43,2.95,2.41,0,.65-.46.97-.76.97-.35,0-.49-.38-.62-.87-.19-.73-.73-1.57-1.71-2.27Z"/>
            <path class="cls-3" d="m117.29,209.73c-.41,0-.68-.38-.68-.87,0-.27.03-1.14.08-1.84h-15.81c.03.51.05,1.11.05,1.3,0,.68-.68,1.25-1.14,1.25-.38,0-.62-.3-.62-.73,0-.41.05-1.9.08-2.46.03-.7.11-3.36.11-3.71v-5.55c0-.89,0-3.03-.43-4.66,1,.3,1.73.54,2.33.76.27.11.41.19.41.35,0,.3-.3.54-.84.79-.03.92-.05,2.03-.05,2.6v5.6c0,.3.05,3.25.08,3.71h7.07v-13.91c0-.68-.03-2.6-.08-3.44-.05-.87-.22-1.6-.41-2.11.59.22,1.57.6,2.14.84.3.13.38.22.38.32,0,.24-.27.51-.51.73-.05.89-.05,2.68-.05,3.57v13.99h7.34c.05-1.14.08-3.36.08-4.95v-2.27c0-1.54,0-2.95-.11-4.25-.05-.73-.16-1.76-.46-2.46,1.16.33,1.57.46,2.46.76.3.11.41.22.41.35,0,.27-.27.43-.76.68-.05,1.43-.05,3.3-.05,4.76v2.36c0,1.49.08,3.74.11,4.25.05,1.14.08,2.52.08,2.92,0,.54-.65,1.33-1.19,1.33Z"/>
            <path class="cls-3" d="m96.8,219.51v-6.9h1.14v5.71h17.38v1.19h-18.52Z"/>
            <path class="cls-3" d="m97.75,243.5h.27c.22.87.33,1.9.33,2.41,0,.68-.19,1.25-.57,1.65-.27.3-.6.46-1,.46-.3,0-.51-.16-.51-.51,0-.27.35-.79.7-1.3.46-.7.79-1.65.79-2.71Zm5.98,7.34c-.22-.35-.62-.73-1.08-1-.51-.3-1.38-.84-1.79-1.46l.14-.24c.7.32,1.98.76,2.73.76.54,0,.81-.24,1.08-.68.87-1.41,1.22-4.87,1.41-7.55h-6.36v.33c0,.43-.54,1.11-.95,1.11-.27,0-.49-.24-.49-.7,0-.32.03-.95.05-1.49.08-1.76.11-3.63.11-5.33,0-1.92-.03-3.63-.08-4.68-.03-.79-.05-1.46-.19-2,.76.32,1.19.54,1.76.84.11.05.16.11.22.19h5.55l.62-.6c.08-.08.16-.16.24-.16s.16.05.3.16c.27.22.76.62,1.14,1,.08.08.11.14.11.19,0,.08-.11.14-.19.14h-4.33v2.87h1.46l.62-.6c.08-.08.16-.16.24-.16s.16.05.3.16c.27.22.76.62,1.14,1,.08.08.11.14.11.19,0,.08-.11.14-.19.14h-3.68v2.9h1.57l.62-.6c.08-.08.16-.16.24-.16s.16.05.3.16c.27.22.76.62,1.14,1,.08.08.11.14.11.19,0,.08-.11.14-.19.14h-3.79v3.06h2.38l.43-.46c.05-.05.13-.14.22-.14s.16.05.32.16c.41.27.65.46,1,.73.16.14.22.19.22.3,0,.19-.51.54-.76.7-.27,2.73-.78,6.69-1.62,7.96-.51.79-1.19,1.3-2.19,1.65Zm-3.92-5.52c0-.65-.11-1.35-.35-2.11l.27-.14c.89,1.25,1.35,2.11,1.35,3,0,.57-.41,1.19-.92,1.19-.35,0-.46-.35-.46-.65,0-.19.03-.38.05-.57.03-.24.05-.49.05-.73Zm.05-12.8h2.6v-2.87h-2.6v2.87Zm0,3.63h2.6v-2.9h-2.6v2.9Zm2.6,3.79v-3.06h-2.6v3.06h2.6Zm-1.25,2.68l.22-.16c1.14.97,1.87,1.81,1.87,2.68,0,.65-.43.92-.73.92-.35,0-.46-.3-.49-.87-.03-.57-.3-1.71-.87-2.57Zm1.73-.65l.16-.22c1.22.68,1.98,1.38,1.98,2,0,.68-.41.79-.6.79-.35,0-.43-.41-.54-.87-.11-.43-.38-1.06-1-1.71Zm9.75-5.49h-1.06c-.05,3.92-.08,10.18-5.41,14.27l-.22-.19c3.68-4.01,4.28-9.37,4.28-15.05,0-1.6-.05-3.74-.08-4.82-.03-1.14-.14-1.95-.38-2.73.95.43,1.6.76,1.98.95.11.05.22.14.3.22h5.04l.54-.6c.14-.14.24-.22.33-.22.11,0,.24.08.38.16.41.27.65.43,1,.7.11.08.22.16.22.3,0,.16-.3.46-.62.76,0,1.57.05,3.44.08,4.33.03.84.05,1.81.05,2.44,0,.43-.46.97-1.03.97-.41,0-.54-.41-.54-.62v-.87h-4.2c.49.68.89,1.73,1.14,2.49.79,2.41,1.25,3.74,1.84,4.79,1.38,2.44,3.25,4.76,6.17,5.74-.32.46-1.08.68-1.81.68-.27,0-.43.05-.62.19-.19.14-.35.24-.49.24-.22,0-.49-.19-1.25-1.08-1.95-2.27-3.44-5.66-4.6-10.37-.19-.76-.51-2.06-1.03-2.68Zm4.85-.73v-5.9h-5.85c0,1.25-.03,4.09-.05,5.9h5.9Z"/>
          </g>
          <rect class="cls-5" x="227.19" y="26.95" width="38.53" height="206.15"/>
          <g>
            <path class="cls-3" d="m258.38,53.92v6.9h-1.14v-5.71h-17.38v-1.19h18.52Z"/>
            <path class="cls-3" d="m252.91,80.32h-13.37c-.41,2.63-1.68,5.5-5.22,7.42l-.19-.22c2.41-2.11,3.71-4.22,4.09-7.61.16-1.43.22-2.73.22-5.17,0-2.08-.11-4.01-.35-4.87.7.3,1.52.68,2.22,1.06.19.11.24.19.24.33s-.14.32-.54.51c3.46-.27,7.47-.84,10.26-1.54,1.08-.27,2.14-.62,2.82-1.27.46.38,1.25,1.11,1.84,1.71.05.05.11.14.11.22,0,.14-.16.24-.49.24-.22,0-.62-.11-.92-.19-3.55.73-8.72,1.19-13.7,1.22-.03.95-.03,1.76-.03,2.46h12.61l.51-.6c.14-.16.22-.19.3-.19s.19.05.33.14c.35.22.76.49,1.06.7.16.11.24.22.24.3,0,.14-.32.43-.59.68,0,1.44,0,2.92.03,3.68.03.57.05,1.14.05,1.33,0,.41-.6.87-1.08.87-.35,0-.43-.27-.43-.6v-.6Zm-10.69-11.07c-.41,0-.43-.38-.43-.68s.03-1.16.05-1.95h-4.03c-.46,0-1.38.05-1.84.41-.49-.16-1.11-.57-1.41-1.33.92.19,1.71.19,2.57.19h4.74v-.92c0-.76-.05-1.38-.32-2.08.87.24,1.73.49,2.11.65.13.05.19.14.19.24,0,.14-.27.46-.57.68-.05.38-.05.73-.05,1.43h5.52v-.73c0-.7-.11-1.62-.38-2.36.92.27,1.81.54,2.19.7.14.05.19.16.19.24,0,.16-.24.41-.57.6-.05.41-.05.81-.05,1.54h4.55l.81-.78c.08-.08.19-.16.27-.16.11,0,.19.05.38.19.49.35,1.03.78,1.43,1.11.14.11.16.16.16.22,0,.08-.08.16-.24.16h-7.34c0,.14,0,.32.03.81.03.43.03.7.03.84,0,.3-.76.78-1.11.78-.41,0-.43-.38-.43-.62,0-.3.03-1.11.05-1.81h-5.5c0,.16,0,.27.03.79.03.62.03.95.03,1.11,0,.3-.68.73-1.06.73Zm10.69,10.34v-4.25h-13.05c-.05,2.63-.14,3.6-.22,4.25h13.26Z"/>
            <path class="cls-3" d="m240.89,114.33c-.27,0-.54-.24-.54-.73,0-.3.03-1.03.08-2.03.05-1.16.11-2.63.11-3v-2.87c0-.84,0-1.62-.03-2.22,0-.11,0-.22-.03-.32-1.62,2.57-3.68,4.55-6.47,6.17l-.16-.22c3.22-2.65,5.82-6.5,6.96-9.75.16-.49.3-.97.3-1.46,0-.11,0-.24-.03-.46.92.49,1.49.81,2.03,1.14.22.14.33.24.33.35,0,.32-.68.54-1.03.62-.41.95-.87,1.84-1.33,2.65.51.32.92.6,1.16.76.16.11.22.22.22.32,0,.22-.24.43-.62.73-.03.57-.05,1.76-.05,2.33v2.57c0,.35.03,1.49.05,2.46.03.81.03,1.46.03,1.65,0,.51-.49,1.3-.97,1.3Zm7.85-17.38c-.43,0-.43-.43-.43-.7,0-.16,0-.32.03-.78.03-.32.05-.87.05-1h-4.95c0,.27,0,.49.03.84.03.46.03.65.03.81,0,.3-.68.73-1.06.73-.41,0-.43-.38-.43-.68,0-.16,0-.32.03-.79.03-.38.05-.84.05-.92h-3.95c-.46,0-1.38.05-1.84.41-.49-.16-1.11-.54-1.41-1.33.92.19,1.71.19,2.57.19h4.63c0-.81-.03-1.52-.05-1.95-.03-.46-.08-1-.27-1.57.87.24,1.73.49,2.11.65.14.05.19.14.19.24,0,.13-.27.49-.57.7-.03.49-.05,1.43-.05,1.92h4.95c0-.73,0-1.71-.05-2.08-.05-.46-.14-1-.33-1.54.95.27,1.81.54,2.19.7.13.05.19.16.19.24,0,.16-.24.43-.57.62-.03.49-.05,1.54-.05,2.06h4.55l1.03-1c.05-.05.14-.14.24-.14.13,0,.24.08.43.22.57.41,1.14.81,1.71,1.25.11.08.16.14.16.22,0,.11-.08.19-.22.19h-7.88c0,.14,0,.27.03.68.03.57.03.81.03,1.03,0,.3-.76.79-1.11.79Zm3.98,16.59c-1.25,0-2.84-.08-3.76-.38-1.11-.35-1.79-1.33-1.79-2.46,0-.41,0-2.14.03-4.11.03-2.68.03-5.85.03-6.9,0-.7-.14-1.46-.33-2,.76.22,1.57.49,2.19.81.16.08.24.16.24.27,0,.22-.35.54-.62.7-.03.24-.08,2.65-.11,5.17,2.17-1.27,4.49-3.36,5.31-4.41.19-.24.35-.54.41-.79.68.49,1.41,1.03,1.98,1.46.11.08.11.14.11.22,0,.22-.43.32-.7.32-.16,0-.35,0-.54-.03-1.71,1.25-4.17,2.79-6.55,3.74-.03,1.14-.03,2.27-.03,3.19,0,.27.03,1.79.03,2.03,0,.84.46,1.35,1.49,1.54.87.16,1.73.22,2.54.22.62,0,1.22-.03,1.76-.08,1.06-.08,1.73-.43,2.06-1.19.24-.57.59-3,.65-4.11h.27c.19,1.19.35,2.63.43,3.63.05.6.27,1.08.62,1.33,0,.84-1.03,1.35-2.11,1.57-1.03.22-2.38.27-3.6.27Z"/>
            <path class="cls-3" d="m234.51,130.2l-.16-.24c4.52-3.09,8.01-8.31,8.2-10.83.03-.32.03-.65.03-.84.89.49,1.68.92,2.49,1.44.16.11.22.19.22.3,0,.33-.81.49-1.16.54-1.92,4.11-4.82,7.31-9.61,9.64Zm19.33,10.39c-.57,0-.87-.49-1.08-1.22-.27-.92-.76-2.06-1.41-3.22-4.39,1.52-8.09,2.25-12.24,2.6-.27.49-.68,1.03-.97,1.03-.27,0-.41-.14-.68-.79-.19-.46-.46-1.16-.84-2.22.65.16,1.52.33,2.49.33.38,0,.79,0,1.25-.03,1.65-2.46,3.71-6.36,4.28-8.69.08-.32.16-.89.16-1.41,0-.16,0-.35-.03-.49.92.46,1.65.84,2.44,1.27.3.16.41.27.41.41,0,.32-.79.57-1.16.65-1.16,2.87-3.28,5.85-5.33,8.23,2.98-.19,7.09-.68,9.99-1.27-.7-1.19-1.57-2.3-2.52-3.14l.24-.24c3.06,1.89,6.01,5.03,6.01,6.63,0,.89-.46,1.57-1,1.57Zm-6.98-21.98v-.43c.65.11,1.79.46,2.22,1.3,1.41,2.73,4.44,7.9,10.58,8.96-.43.62-1.06.92-1.92.97-.35.03-.57.11-.76.3-.13.14-.32.32-.57.32-.43,0-2.08-1.16-3.63-3-1.79-2.11-3.71-5.71-4.44-7.23-.33-.68-1.03-1.08-1.49-1.19Z"/>
            <path class="cls-3" d="m255.35,168.42c-.38,0-.57-.27-.57-.79v-.97h-17.08v.6c0,.46-.6,1.16-1.03,1.16-.32,0-.6-.27-.6-.79,0-.43.03-1.22.05-2,.08-3.93.11-14.43.11-17.49,0-.24-.03-1.14-.05-1.52-.03-.51-.08-1.16-.19-1.68.89.33,1.46.54,1.95.76.11.05.16.08.19.16h16.27l.35-.38c.16-.19.27-.22.35-.22.13,0,.24.05.41.16.43.3.87.62,1.3.95.19.14.3.24.3.32,0,.19-.46.6-.84.92v6.47c0,2.44,0,5.14.05,7.34.05,2.11.14,5.31.14,5.9,0,.43-.68,1.08-1.11,1.08Zm-.57-2.49v-19.33h-17.08v19.33h17.08Zm-8.91-.76c-.3,0-.46-.27-.46-.65,0-.24,0-.57.03-1.06.03-.51.05-1.27.05-1.65v-.73c0-.54-.05-1.19-.14-1.76-2.25,2.36-4.33,3.76-6.96,4.79l-.11-.27c2.79-1.71,4.9-3.49,6.44-5.6h-1.89v.24c0,.27-.49.68-.87.68-.24,0-.41-.16-.41-.46,0-.14,0-.35.03-.84.03-.62.05-1.38.05-1.89,0-1.03-.05-1.73-.22-2.3.41.13.95.35,1.43.57.11.05.16.08.19.14h5.98l.41-.46c.14-.16.22-.19.27-.19.08,0,.16.03.3.11.35.22.62.41.89.6.16.11.22.19.22.27,0,.16-.3.46-.54.68,0,.32,0,.7.03,1.46.03.76.03,1.06.03,1.3,0,.33-.46.73-.84.73-.35,0-.43-.27-.43-.49v-.14h-3c-.14.16-.27.3-.43.46.41.14.79.27,1.16.41.16.05.19.16.19.24,0,.24-.19.41-.54.62-.03.24-.05.65-.05.73.6.11,1.16.24,1.7.41.81-.54,1.41-1.08,1.87-1.65.16-.19.3-.41.43-.68.41.32.76.62,1.11.95.22.19.27.27.27.38,0,.3-.62.3-1.14.3-.51.32-1.25.6-2.06.87,1.14.41,2.11.89,2.68,1.3.81.57,1.03,1.11,1.03,1.6,0,.27-.22.54-.54.54-.38,0-.59-.22-1.46-1.14-.68-.73-2.27-2.06-3.9-2.6v.76c0,.38.05,1.11.08,1.43.03.32.05.68.05.97,0,.51-.54,1.03-.95,1.03Zm-6.04-12.05c-.49-.16-1.11-.57-1.41-1.33.92.19,1.71.19,2.57.19h4.52v-1.87h-1.68c-.46,0-1.38.05-1.84.41-.49-.16-1.11-.57-1.41-1.33.92.19,1.71.19,2.57.19h2.35c0-.08-.03-.49-.05-.76-.05-.51-.14-1.08-.27-1.46.92.27,1.19.35,1.79.57.35.14.41.19.41.33,0,.19-.33.51-.6.68-.03.27-.05.57-.05.65h2.62l.6-.57c.14-.14.22-.19.3-.19.05,0,.16.03.3.16.35.33.6.57.92.89.16.16.19.22.19.27,0,.11-.11.16-.19.16h-4.74v1.87h4.6l.62-.6c.08-.08.16-.16.24-.16s.16.05.3.16c.35.27.89.7,1.22.97.14.11.16.16.16.22,0,.08-.11.14-.19.14h-12.02c-.46,0-1.38.05-1.84.41Zm9.53,4.39v-2.41h-6.52v2.41h6.52Z"/>
            <path class="cls-3" d="m234.18,177.55v-6.9h1.14v5.71h17.38v1.19h-18.52Z"/>
            <path class="cls-3" d="m235.13,201.54h.27c.22.87.33,1.9.33,2.41,0,.68-.19,1.25-.57,1.65-.27.3-.6.46-1,.46-.3,0-.51-.16-.51-.51,0-.27.35-.79.7-1.3.46-.7.79-1.65.79-2.71Zm5.98,7.34c-.22-.35-.62-.73-1.08-1-.51-.3-1.38-.84-1.79-1.46l.14-.24c.7.32,1.98.76,2.73.76.54,0,.81-.24,1.08-.68.87-1.41,1.22-4.87,1.41-7.55h-6.36v.33c0,.43-.54,1.11-.95,1.11-.27,0-.49-.24-.49-.7,0-.32.03-.95.05-1.49.08-1.76.11-3.63.11-5.33,0-1.92-.03-3.63-.08-4.68-.03-.79-.05-1.46-.19-2,.76.32,1.19.54,1.76.84.11.05.16.11.22.19h5.55l.62-.6c.08-.08.16-.16.24-.16s.16.05.3.16c.27.22.76.62,1.14,1,.08.08.11.14.11.19,0,.08-.11.14-.19.14h-4.33v2.87h1.46l.62-.6c.08-.08.16-.16.24-.16s.16.05.3.16c.27.22.76.62,1.14,1,.08.08.11.14.11.19,0,.08-.11.14-.19.14h-3.68v2.9h1.57l.62-.6c.08-.08.16-.16.24-.16s.16.05.3.16c.27.22.76.62,1.14,1,.08.08.11.14.11.19,0,.08-.11.14-.19.14h-3.79v3.06h2.38l.43-.46c.05-.05.13-.14.22-.14s.16.05.32.16c.41.27.65.46,1,.73.16.14.22.19.22.3,0,.19-.51.54-.76.7-.27,2.73-.78,6.69-1.62,7.96-.51.79-1.19,1.3-2.19,1.65Zm-3.92-5.52c0-.65-.11-1.35-.35-2.11l.27-.14c.89,1.25,1.35,2.11,1.35,3,0,.57-.41,1.19-.92,1.19-.35,0-.46-.35-.46-.65,0-.19.03-.38.05-.57.03-.24.05-.49.05-.73Zm.05-12.8h2.6v-2.87h-2.6v2.87Zm0,3.63h2.6v-2.9h-2.6v2.9Zm2.6,3.79v-3.06h-2.6v3.06h2.6Zm-1.25,2.68l.22-.16c1.14.97,1.87,1.81,1.87,2.68,0,.65-.43.92-.73.92-.35,0-.46-.3-.49-.87-.03-.57-.3-1.7-.87-2.57Zm1.73-.65l.16-.22c1.22.68,1.98,1.38,1.98,2,0,.68-.41.79-.6.79-.35,0-.43-.41-.54-.87-.11-.43-.38-1.06-1-1.71Zm9.75-5.49h-1.06c-.05,3.92-.08,10.18-5.41,14.27l-.22-.19c3.68-4.01,4.28-9.37,4.28-15.05,0-1.6-.05-3.74-.08-4.82-.03-1.14-.14-1.95-.38-2.73.95.43,1.6.76,1.98.95.11.05.22.14.3.22h5.04l.54-.6c.14-.14.24-.22.33-.22.11,0,.24.08.38.16.41.27.65.43,1,.7.11.08.22.16.22.3,0,.16-.3.46-.62.76,0,1.57.05,3.44.08,4.33.03.84.05,1.81.05,2.44,0,.43-.46.97-1.03.97-.41,0-.54-.41-.54-.62v-.87h-4.2c.49.68.89,1.73,1.14,2.49.79,2.41,1.25,3.74,1.84,4.79,1.38,2.44,3.25,4.76,6.17,5.74-.32.46-1.08.68-1.81.68-.27,0-.43.05-.62.19-.19.14-.35.24-.49.24-.22,0-.49-.19-1.25-1.08-1.95-2.27-3.44-5.66-4.6-10.37-.19-.76-.51-2.06-1.03-2.68Zm4.85-.73v-5.9h-5.85c0,1.25-.03,4.09-.05,5.9h5.9Z"/>
          </g>
          <rect class="cls-5" x="825.63" y="72.3" width="38.53" height="206.15"/>
          <g>
            <path class="cls-3" d="m856.82,99.27v6.9h-1.14v-5.71h-17.38v-1.19h18.52Z"/>
            <path class="cls-3" d="m843.78,132.36c-.41,0-.68-.41-.68-.87,0-.41,0-1.16.03-1.87.05-1.84.11-5.17.11-11.72,0-1.92,0-3.6-.05-5.06-.03-.46-.05-.79-.11-1.11h-6.85c-.46,0-1.38.05-1.84.41-.49-.16-1.11-.57-1.41-1.33.92.19,1.71.19,2.57.19h17.08l.97-.97c.05-.05.16-.16.27-.16.08,0,.22.08.43.22.65.41,1.3.81,1.89,1.25.11.08.14.14.14.22,0,.11-.14.19-.24.19h-11.48c.32.13.57.24.62.27.16.08.22.16.22.27,0,.19-.3.49-.68.7-.03.54-.05,1.65-.05,3.19,3.14.84,6.96,3.06,6.96,4.95,0,.81-.46,1.16-.81,1.16-.38,0-.73-.43-1.06-.95-1.14-1.81-2.76-3.6-5.09-4.82v.97c0,4.57.03,7.42.05,9.61.03,1.49.03,2.71.03,3.98,0,.46-.54,1.27-1.03,1.27Z"/>
            <path class="cls-3" d="m834.82,140.08c-.49-.16-1.11-.54-1.41-1.33.92.19,1.71.19,2.57.19h7.99v-.32c0-.54,0-.76-.03-1.27-.03-.73-.14-1.43-.41-2.25,1.11.32,1.79.54,2.49.87.16.08.22.16.22.27,0,.19-.3.51-.7.73-.05.54-.05,1.11-.05,1.68v.3h7.09l.92-.92c.08-.08.19-.16.3-.16.08,0,.22.08.38.19.54.38,1.11.81,1.62,1.22.11.08.16.16.16.24s-.11.16-.22.16h-19.08c-.46,0-1.38.05-1.84.41Zm18,19.84c-.35-.35-.87-.7-1.38-.92-.87-.38-1.27-.81-1.73-1.41l.13-.27c.89.41,1.71.54,2.63.54.68,0,.81-.62.81-1.14v-7.55h-16.65v9.58c0,.3-.73.87-1.08.87s-.51-.19-.51-.57c0-.22.03-.81.05-1.35.03-.68.05-1.46.05-1.9v-5.28c0-.62,0-2.06-.22-3.14.76.35,1.27.6,1.7.84.14.08.24.16.27.22h15.75l.6-.68c.13-.16.24-.19.32-.19.11,0,.19.05.35.16.38.24.73.49,1.14.79.11.08.22.16.22.27,0,.16-.33.49-.62.76,0,1.25,0,2.63.03,4.03.03.95.08,2.87.08,3.68,0,1.33-.81,1.95-1.95,2.65Zm-13.32-12.61c-.38,0-.54-.22-.54-.6,0-.14.03-.65.05-.97.05-.81.08-1.71.08-2.41,0-.97-.08-1.65-.24-2.65.73.35,1.14.57,1.6.81.11.05.19.11.24.19h7.58l.54-.6c.13-.13.24-.22.33-.22.11,0,.19.05.35.16.33.22.62.43.89.65.13.11.24.19.24.33s-.27.43-.6.73c0,.54.03,1.54.05,2.27.03.57.03.97.03,1.16,0,.41-.38.95-.92.95-.41,0-.54-.41-.54-.62v-.38h-8.17v.3c0,.3-.65.89-.97.89Zm.92,9.85c-.38,0-.54-.22-.54-.6,0-.16.05-.97.08-1.38.05-.89.05-1.35.05-2.06,0-.92-.08-1.7-.24-2.71.73.35,1.16.57,1.62.81.11.05.14.08.19.14h5.87l.54-.6c.14-.14.24-.22.33-.22.11,0,.19.05.35.16.38.24.65.43.97.68.11.08.22.16.22.3s-.27.43-.6.73c0,.57.05,1.6.08,2,.03.54.05,1.08.05,1.49s-.49.95-1.03.95c-.41,0-.54-.41-.54-.62v-.65h-6.42v.68c0,.3-.68.89-1,.89Zm8.23-11.77v-2.98h-8.17v2.98h8.17Zm-.81,9.47v-2.76h-6.42v2.76h6.42Z"/>
            <path class="cls-3" d="m848.13,187.07c-.41,0-.65-.43-.65-.92,0-.41.08-2.25.13-3.38.05-1.27.08-2.79.08-4.39v-1.03h-6.12c-.87,5.09-3.22,7.77-7.96,9.61l-.14-.27c4.17-2.41,5.98-5.39,6.66-9.34h-4.63c-.46,0-1.38.05-1.84.41-.49-.16-1.11-.57-1.41-1.33.92.19,1.71.19,2.57.19h5.41c.13-1,.22-2.08.24-3.22.03-1.11.05-2.92.05-3.9h-2.73c-.46,0-1.38.05-1.84.41-.49-.16-1.11-.57-1.41-1.33.92.19,1.71.19,2.57.19h3.41v-2.03c0-1.65-.22-3.38-.49-4.17.92.24,2.03.6,2.65.84.22.08.24.22.24.32,0,.35-.54.68-.87.81-.03.27-.08,1.7-.08,2v2.22h5.68c0-1.54-.03-2.73-.11-3.87-.05-.73-.19-1.65-.49-2.35.84.19,1.79.41,2.46.68.27.11.38.19.38.38,0,.27-.3.51-.79.81-.05,1.27-.05,2.63-.05,4.36h2.11l.97-1.06c.13-.14.19-.16.27-.16.11,0,.19.05.41.19.57.38,1.33.89,1.98,1.35.11.08.14.11.14.22,0,.08-.11.19-.24.19h-5.63v7.12h3.82l1.06-1.16c.11-.11.19-.16.3-.16s.22.05.43.19c.59.38,1.52,1,2.14,1.43.11.08.14.14.14.22,0,.11-.11.22-.24.22h-7.63v.95c0,1.49.08,3.65.11,4.39.03.87.08,2.6.08,3,0,.54-.62,1.38-1.16,1.38Zm-6.44-10.45h6.01v-7.12h-5.68c0,1.08-.03,2.98-.08,4.2-.05,1.06-.11,2.03-.24,2.92Z"/>
            <path class="cls-3" d="m851.41,204.21h-12.88c-.3,4.17-2.17,7.99-6.25,10.02l-.16-.24c2.44-2,4.41-4.66,4.87-9.2.16-1.65.22-4.76.22-5.77,0-.46-.11-1.49-.19-2-.11-.65-.19-1.03-.33-1.38.81.32,1.65.68,2.44,1.03.13.05.22.11.24.19h11.64l.54-.6c.13-.14.24-.22.32-.22.11,0,.24.08.38.16.41.24.65.43,1,.7.11.08.22.16.22.3,0,.16-.3.46-.62.76,0,.76.03,2.06.08,3.82.03,1.06.05,2.38.05,3.06,0,.43-.46.97-1.03.97-.41,0-.54-.41-.54-.62v-.97Zm4.55-11.18h-19.19c-.46,0-1.38.05-1.84.41-.49-.16-1.11-.57-1.41-1.33.92.19,1.71.19,2.57.19h16.4l.97-.97c.05-.05.16-.16.27-.16.08,0,.22.08.43.22.65.41,1.3.81,1.9,1.25.11.08.13.14.13.22,0,.11-.13.19-.24.19Zm-4.55,10.45v-5.9h-12.67c-.03,2.38-.08,4.17-.16,5.9h12.83Z"/>
            <path class="cls-3" d="m832.62,222.9v-6.9h1.14v5.71h17.38v1.19h-18.52Z"/>
            <path class="cls-3" d="m833.57,246.88h.27c.22.87.33,1.9.33,2.41,0,.68-.19,1.25-.57,1.65-.27.3-.6.46-1,.46-.3,0-.51-.16-.51-.51,0-.27.35-.79.7-1.3.46-.7.79-1.65.79-2.71Zm5.98,7.34c-.22-.35-.62-.73-1.08-1-.51-.3-1.38-.84-1.79-1.46l.13-.24c.7.33,1.98.76,2.73.76.54,0,.81-.24,1.08-.68.87-1.41,1.22-4.87,1.41-7.55h-6.36v.32c0,.43-.54,1.11-.95,1.11-.27,0-.49-.24-.49-.7,0-.32.03-.95.05-1.49.08-1.76.11-3.63.11-5.33,0-1.92-.03-3.63-.08-4.68-.03-.79-.05-1.46-.19-2,.76.32,1.19.54,1.76.84.11.05.16.11.22.19h5.55l.62-.6c.08-.08.16-.16.24-.16s.16.05.3.16c.27.22.76.62,1.14,1,.08.08.11.13.11.19,0,.08-.11.13-.19.13h-4.33v2.87h1.46l.62-.6c.08-.08.16-.16.24-.16s.16.05.3.16c.27.22.76.62,1.14,1,.08.08.11.14.11.19,0,.08-.11.14-.19.14h-3.68v2.9h1.57l.62-.6c.08-.08.16-.16.24-.16s.16.05.3.16c.27.22.76.62,1.14,1,.08.08.11.14.11.19,0,.08-.11.13-.19.13h-3.79v3.06h2.38l.43-.46c.05-.05.13-.13.22-.13s.16.05.32.16c.41.27.65.46,1,.73.16.14.22.19.22.3,0,.19-.51.54-.76.7-.27,2.73-.78,6.69-1.62,7.96-.51.79-1.19,1.3-2.19,1.65Zm-3.92-5.52c0-.65-.11-1.35-.35-2.11l.27-.14c.89,1.25,1.35,2.11,1.35,3,0,.57-.41,1.19-.92,1.19-.35,0-.46-.35-.46-.65,0-.19.03-.38.05-.57.03-.24.05-.49.05-.73Zm.05-12.8h2.6v-2.87h-2.6v2.87Zm0,3.63h2.6v-2.9h-2.6v2.9Zm2.6,3.79v-3.06h-2.6v3.06h2.6Zm-1.25,2.68l.22-.16c1.14.97,1.87,1.81,1.87,2.68,0,.65-.43.92-.73.92-.35,0-.46-.3-.49-.87-.03-.57-.3-1.71-.87-2.57Zm1.73-.65l.16-.22c1.22.68,1.98,1.38,1.98,2,0,.68-.41.79-.6.79-.35,0-.43-.41-.54-.87-.11-.43-.38-1.06-1-1.71Zm9.75-5.5h-1.06c-.05,3.93-.08,10.18-5.41,14.27l-.22-.19c3.68-4.01,4.28-9.37,4.28-15.05,0-1.6-.05-3.74-.08-4.82-.03-1.14-.14-1.95-.38-2.73.95.43,1.6.76,1.98.95.11.05.22.14.3.22h5.04l.54-.6c.14-.14.24-.22.33-.22.11,0,.24.08.38.16.41.27.65.43,1,.7.11.08.22.16.22.3,0,.16-.3.46-.62.76,0,1.57.05,3.44.08,4.33.03.84.05,1.81.05,2.44,0,.43-.46.97-1.03.97-.41,0-.54-.41-.54-.62v-.87h-4.2c.49.68.89,1.73,1.14,2.49.79,2.41,1.25,3.74,1.84,4.79,1.38,2.44,3.25,4.76,6.17,5.74-.32.46-1.08.68-1.81.68-.27,0-.43.05-.62.19-.19.14-.35.24-.49.24-.22,0-.49-.19-1.25-1.08-1.95-2.27-3.44-5.66-4.6-10.37-.19-.76-.51-2.06-1.03-2.68Zm4.85-.73v-5.9h-5.85c0,1.25-.03,4.09-.05,5.9h5.9Z"/>
          </g>
          <rect class="cls-5" x="504.42" y="75.54" width="38.53" height="178.21"/>
          <g>
            <path class="cls-3" d="m535.61,102.51v6.9h-1.14v-5.71h-17.38v-1.19h18.52Z"/>
            <path class="cls-3" d="m512.52,134.65c-.49-.16-1.11-.57-1.41-1.33.92.19,1.71.19,2.57.19h8.07v-15.38c0-.73-.03-2.9-.08-3.84-.05-.97-.24-1.71-.49-2.3.89.3,1.68.62,2.27.87.41.16.57.3.57.46,0,.3-.38.57-.7.76-.08.97-.08,2.98-.08,3.98v3.63h5.87l.92-1.06c.13-.16.22-.22.3-.22.11,0,.19.05.38.22.65.54.95.79,1.46,1.3.16.16.19.19.19.27,0,.11-.11.22-.24.22h-8.88v11.1h8.77l.97-1.06c.14-.14.19-.16.27-.16.11,0,.19.05.41.19.57.35,1.33.87,1.98,1.35.11.08.14.13.14.22s-.11.19-.24.19h-21.17c-.46,0-1.38.05-1.84.41Z"/>
            <path class="cls-3" d="m519.37,162.43c-.41,0-.65-.49-.65-.97,0-.38.05-1.41.08-1.92.05-.89.14-2.63.16-4.33-1.71,1.16-3.74,2.17-5.6,3-.14.43-.35.81-.6.81-.11,0-.24-.03-.41-.24-.22-.3-.92-1.52-1.27-2.19.27.03.57.05.87.05,1.57,0,4.74-.92,7.01-1.92v-7.31h-3.93c-.46,0-1.38.03-1.84.38-.49-.16-1.11-.51-1.41-1.3.92.19,1.71.19,2.57.19h4.6c0-1.87,0-3.52-.11-4.82-.05-.73-.14-1.65-.43-2.35,1.14.3,1.6.43,2.38.68.24.08.35.19.35.32,0,.27-.27.43-.76.68-.05,1.43-.05,3.28-.05,5.36v7.12c0,1.52.05,3.76.08,4.52.03.79.08,2.46.08,3s-.6,1.25-1.14,1.25Zm9.75-.38c-.65,0-2.46,0-3.33-.43-.76-.38-1.14-1.11-1.14-2.11,0-.41.03-1.52.03-1.98v-14.91c0-2.03-.19-2.76-.38-3.36.95.3,1.79.57,2.27.73.24.08.3.19.3.33,0,.19-.32.43-.73.65-.03.27-.05.73-.05,1.65v6.98c1.95-1.27,4.09-3.17,5.33-4.68.38-.46.79-1.06.92-1.6.79.62,1.38,1.14,1.98,1.65.16.14.22.24.22.35,0,.22-.41.27-.81.27-.22,0-.46-.03-.65-.05-2,1.81-4.49,3.46-6.98,4.49v7.2c0,.41-.03,1.35-.03,1.73,0,.79.3,1.22.92,1.43.54.19,1.79.19,2.06.19.79,0,3.09-.11,3.57-.46.79-.57.92-2.82,1.03-4.6h.27c.08.57.19,1.46.24,2.06.05.6.13,1.08.16,1.25.08.51.33,1.14.7,1.41,0,.43-.14,1.08-1.33,1.49-.89.3-3.6.32-4.58.32Z"/>
            <path class="cls-3" d="m511.3,172.2l.14-.24c1.62.54,4.49,1.68,4.49,3.38,0,.57-.35,1-.68,1-.46,0-.68-.27-1.11-1.22-.49-1.06-2.03-2.49-2.84-2.92Zm.81,8.91l.11-.3c.51.3,1.11.73,1.52,1.06.27.22.41.22.54.22s.22,0,.41-.22c1.08-1.33,3.38-6.39,4.36-9.72l.27.08c-.46,3.49-2.44,8.2-3.52,10.48-.16.33-.22.65-.22.95,0,.51.19.95.32,1.22.33.62.46,1.38.46,2,0,.46-.08.87-.22,1.16-.11.24-.43.51-.7.51-.49,0-1.03-.62-1.03-1.41,0-.19.03-.62.03-.84,0-2.52-1.25-4.25-2.33-5.2Zm1.57-14.45l.11-.27c1.98.38,4.36,1.79,4.36,3.11,0,.54-.3,1.08-.76,1.08-.41,0-.76-.68-1.11-1.35-.49-.95-1.76-2.19-2.6-2.57Zm11.88,8.82h-2.41c-.08,7.34-1.84,11.42-6.12,14.48l-.22-.16c3.22-3.63,4.84-6.58,4.84-15.75,0-3.41-.03-5.85-.43-7.34.65.19,1.49.49,1.95.68.19.08.24.16.27.24h7.77l.54-.6c.13-.14.24-.22.32-.22.11,0,.24.08.38.16.41.24.65.43,1,.7.11.08.22.16.22.3,0,.16-.3.46-.62.76,0,.97.05,3.22.08,4.25.03,1,.05,2.14.05,2.76,0,.43-.49.97-1.06.97-.41,0-.57-.41-.57-.62v-.62h-5.25c.6.65.95,1.41,1.16,2,1.6,4.44,4.47,9.88,8.99,10.85-.38.57-.89.76-1.76.76-.43,0-.65.11-.97.38-.16.13-.33.22-.49.22-.19,0-.41-.19-.7-.57-2.79-3.38-4.76-7.36-5.77-11.45-.24-1.03-.59-1.54-1.22-2.19Zm6.01-.73v-6.39h-8.42v6.39h8.42Z"/>
            <path class="cls-3" d="m511.41,199.06v-6.9h1.14v5.71h17.38v1.19h-18.52Z"/>
            <path class="cls-3" d="m512.36,223.05h.27c.22.87.33,1.89.33,2.41,0,.68-.19,1.25-.57,1.65-.27.3-.6.46-1,.46-.3,0-.51-.16-.51-.51,0-.27.35-.79.7-1.3.46-.7.79-1.65.79-2.71Zm5.98,7.34c-.22-.35-.62-.73-1.08-1-.51-.3-1.38-.84-1.79-1.46l.14-.24c.7.32,1.98.76,2.73.76.54,0,.81-.24,1.08-.68.87-1.41,1.22-4.87,1.41-7.55h-6.36v.33c0,.43-.54,1.11-.95,1.11-.27,0-.49-.24-.49-.7,0-.32.03-.95.05-1.49.08-1.76.11-3.63.11-5.33,0-1.92-.03-3.63-.08-4.68-.03-.79-.05-1.46-.19-2,.76.32,1.19.54,1.76.84.11.05.16.11.22.19h5.55l.62-.6c.08-.08.16-.16.24-.16s.16.05.3.16c.27.22.76.62,1.14,1,.08.08.11.14.11.19,0,.08-.11.14-.19.14h-4.33v2.87h1.46l.62-.6c.08-.08.16-.16.24-.16s.16.05.3.16c.27.22.76.62,1.14,1,.08.08.11.14.11.19,0,.08-.11.14-.19.14h-3.68v2.9h1.57l.62-.6c.08-.08.16-.16.24-.16s.16.05.3.16c.27.22.76.62,1.14,1,.08.08.11.14.11.19,0,.08-.11.14-.19.14h-3.79v3.06h2.38l.43-.46c.05-.05.13-.14.22-.14s.16.05.32.16c.41.27.65.46,1,.73.16.14.22.19.22.3,0,.19-.51.54-.76.7-.27,2.73-.78,6.69-1.62,7.96-.51.79-1.19,1.3-2.19,1.65Zm-3.92-5.52c0-.65-.11-1.35-.35-2.11l.27-.14c.89,1.25,1.35,2.11,1.35,3,0,.57-.41,1.19-.92,1.19-.35,0-.46-.35-.46-.65,0-.19.03-.38.05-.57.03-.24.05-.49.05-.73Zm.05-12.8h2.6v-2.87h-2.6v2.87Zm0,3.63h2.6v-2.9h-2.6v2.9Zm2.6,3.79v-3.06h-2.6v3.06h2.6Zm-1.25,2.68l.22-.16c1.14.97,1.87,1.81,1.87,2.68,0,.65-.43.92-.73.92-.35,0-.46-.3-.49-.87-.03-.57-.3-1.71-.87-2.57Zm1.73-.65l.16-.22c1.22.68,1.98,1.38,1.98,2,0,.68-.41.79-.6.79-.35,0-.43-.41-.54-.87-.11-.43-.38-1.06-1-1.71Zm9.75-5.49h-1.06c-.05,3.92-.08,10.18-5.41,14.27l-.22-.19c3.68-4.01,4.28-9.37,4.28-15.05,0-1.6-.05-3.74-.08-4.82-.03-1.14-.14-1.95-.38-2.73.95.43,1.6.76,1.98.95.11.05.22.14.3.22h5.04l.54-.6c.14-.14.24-.22.33-.22.11,0,.24.08.38.16.41.27.65.43,1,.7.11.08.22.16.22.3,0,.16-.3.46-.62.76,0,1.57.05,3.44.08,4.33.03.84.05,1.81.05,2.44,0,.43-.46.97-1.03.97-.41,0-.54-.41-.54-.62v-.87h-4.2c.49.68.89,1.73,1.14,2.49.79,2.41,1.25,3.74,1.84,4.79,1.38,2.44,3.25,4.76,6.17,5.74-.32.46-1.08.68-1.81.68-.27,0-.43.05-.62.19-.19.14-.35.24-.49.24-.22,0-.49-.19-1.25-1.08-1.95-2.27-3.44-5.66-4.6-10.37-.19-.76-.51-2.06-1.03-2.68Zm4.85-.73v-5.9h-5.85c0,1.25-.03,4.09-.05,5.9h5.9Z"/>
          </g>
          <rect class="cls-5" x="638.63" y="100.57" width="38.53" height="178.21"/>
          <g>
            <path class="cls-3" d="m669.82,127.54v6.9h-1.14v-5.71h-17.38v-1.19h18.52Z"/>
            <path class="cls-3" d="m650.3,161.22c-.41,0-.65-.43-.65-.92,0-.33.05-3.19.14-4.33.08-1.3.13-4.49.13-6.14v-2.73c-1.11,3.46-2.65,6.17-4.82,8.34l-.22-.16c2.14-3.25,3.76-7.17,4.63-11.75h-.79c-.46,0-1.38.05-1.84.41-.49-.16-1.11-.57-1.41-1.33.92.19,1.7.19,2.57.19h1.87c-.03-1.38-.05-2.6-.11-3.6-.05-.87-.11-1.65-.38-2.36,1.08.3,1.44.41,2.25.68.24.08.35.19.35.32,0,.27-.27.43-.76.68-.05,1.25-.08,2.76-.11,4.28h1.22l.62-.6c.08-.08.16-.16.24-.16s.16.05.3.16c.35.3.62.54.95.87.13.14.19.19.19.3,0,.08-.11.16-.24.16h-3.28v1.79c1.46.6,2.98,1.54,2.98,2.57,0,.57-.35.87-.62.87-.43,0-.68-.41-.87-.92-.24-.65-.7-1.33-1.49-1.98v3.9c0,1.27.03,5.33.05,6.14.03.79.08,3.49.08,3.95,0,.54-.46,1.38-1,1.38Zm17.08-.46c-.43,0-.84-.41-1.41-.95-1.27-1.16-2.68-2.22-4.22-3.17-2.22,2.3-5.22,3.57-9.12,3.87l-.05-.32c3.09-.41,5.96-2.03,7.99-4.25-1.06-.57-2.14-1.08-3.28-1.54-.11.24-.22.46-.3.6-.19.35-.81.7-1.3.7-.32,0-.51-.22-.51-.51,0-.11.03-.24.11-.38.54-.89,1.33-2.19,1.95-3.44.19-.35.43-.87.65-1.41h-2.25c-.46,0-1.38.03-1.84.38-.49-.16-1.11-.54-1.41-1.3.92.19,1.71.19,2.57.19h3.25c.41-.95.79-1.89.87-2.25.08-.35.14-.68.14-1,0-.22,0-.38-.03-.6.79.32,1.27.54,1.95.87.22.11.3.19.3.32,0,.22-.46.46-.81.54-.24.6-.57,1.33-.92,2.11h6.98l.79-.84c.11-.11.16-.16.27-.16.08,0,.16.03.35.16.51.35,1.06.73,1.62,1.16.11.08.13.14.13.22s-.08.19-.24.19h-5.71c.54.33,1.16.7,1.54.97.19.14.3.22.3.33,0,.22-.49.38-.89.46-.62,1.57-1.41,2.92-2.33,4.09,3.06,1.3,5.5,2.87,5.5,4.22,0,.35-.24.73-.62.73Zm-12.48-21.71l.22-.16c1.65,1.08,3.03,2.49,3.03,3.71,0,.78-.27,1.46-.84,1.46s-.79-.84-.84-1.19c-.16-1.11-.57-2.49-1.57-3.82Zm8.61,10.91h-4.14c-.68,1.43-1.38,2.95-1.89,4.06,1.22.35,2.46.79,3.65,1.25.81-1.03,1.43-2.14,1.87-3.28.27-.73.43-1.33.51-2.03Zm-4.3-11.94l.22-.19c1.43.95,3.11,2.73,3.11,4.06,0,.65-.41,1.33-.87,1.33-.41,0-.62-.35-.84-1.43-.16-.81-.81-2.57-1.62-3.76Zm7.23.35c.79.46,1.81,1.08,2.19,1.33.24.16.33.24.33.35,0,.35-.79.51-1.16.51-1.06,1.65-2.79,3.82-4.41,5.03l-.24-.14c1.14-1.38,2.44-3.79,3-5.31.22-.57.27-.97.3-1.79Z"/>
            <path class="cls-3" d="m646.73,186.75c-.49-.16-1.11-.57-1.41-1.33.92.19,1.71.19,2.57.19h8.07v-15.38c0-.73-.03-2.9-.08-3.84-.05-.97-.24-1.71-.49-2.3.89.3,1.68.62,2.27.87.41.16.57.3.57.46,0,.3-.38.57-.7.76-.08.97-.08,2.98-.08,3.98v3.63h5.87l.92-1.06c.13-.16.22-.22.3-.22.11,0,.19.05.38.22.65.54.95.79,1.46,1.3.16.16.19.19.19.27,0,.11-.11.22-.24.22h-8.88v11.1h8.77l.97-1.06c.14-.13.19-.16.27-.16.11,0,.19.05.41.19.57.35,1.33.87,1.98,1.35.11.08.14.14.14.22s-.11.19-.24.19h-21.17c-.46,0-1.38.05-1.84.41Z"/>
            <path class="cls-3" d="m644.86,211.47l-.16-.24c5.41-3.36,7.47-8.42,8.17-11.91h-3.49c-.46,0-1.38.05-1.84.41-.49-.16-1.11-.57-1.41-1.33.92.19,1.71.19,2.57.19h3.79l.62-.76c.14-.16.22-.19.3-.19s.19.05.38.16c.33.19.92.6,1.27.84.19.14.24.24.24.3,0,.16-.38.54-.81.89-1.54,5.09-3.95,8.91-9.64,11.64Zm11.21,3.6c-.49-.65-1.27-1.33-2.11-1.79-.59-.32-1.25-.92-1.76-1.57l.11-.27c1.49.73,3.33,1.25,3.84,1.25.7,0,.76-.68.76-1.87v-12.88c0-2.65,0-4.25-.03-4.79-.03-.78-.24-1.65-.46-2.3.95.32,1.87.65,2.3.84.24.11.3.27.3.35,0,.24-.46.62-.73.81-.05.68-.05,2.19-.05,4.44.73,1.41,1.46,2.73,2.19,3.93,1.71-1.22,3.6-3,4.79-4.52.41-.51.62-1.08.76-1.71.62.6,1.16,1.19,1.71,1.79.3.32.35.43.35.57,0,.22-.32.3-.68.3-.13,0-.3,0-.43-.03-1.71,1.38-4.01,2.9-6.25,3.98,2.95,4.74,6.01,7.77,10.34,8.69-.38.57-1.11.81-1.89.84-.62.03-.87.08-1.35.38-.22.14-.35.22-.54.22-.57,0-2.3-1.73-3.33-3.09-2.08-2.73-3.84-5.79-5.66-10.5,0,2.44,0,5.09.05,7.01.05,1.76.16,5.39.16,6.31,0,2.25-.3,2.81-2.38,3.63Z"/>
            <path class="cls-3" d="m645.62,224.09v-6.9h1.14v5.71h17.38v1.19h-18.52Z"/>
            <path class="cls-3" d="m646.57,248.08h.27c.22.87.33,1.89.33,2.41,0,.68-.19,1.25-.57,1.65-.27.3-.6.46-1,.46-.3,0-.51-.16-.51-.51,0-.27.35-.79.7-1.3.46-.7.79-1.65.79-2.71Zm5.98,7.34c-.22-.35-.62-.73-1.08-1-.51-.3-1.38-.84-1.79-1.46l.13-.24c.7.32,1.98.76,2.73.76.54,0,.81-.24,1.08-.68.87-1.41,1.22-4.87,1.41-7.55h-6.36v.32c0,.43-.54,1.11-.95,1.11-.27,0-.49-.24-.49-.7,0-.32.03-.95.05-1.49.08-1.76.11-3.63.11-5.33,0-1.92-.03-3.63-.08-4.68-.03-.78-.05-1.46-.19-2,.76.32,1.19.54,1.76.84.11.05.16.11.22.19h5.55l.62-.6c.08-.08.16-.16.24-.16s.16.05.3.16c.27.22.76.62,1.14,1,.08.08.11.14.11.19,0,.08-.11.14-.19.14h-4.33v2.87h1.46l.62-.6c.08-.08.16-.16.24-.16s.16.05.3.16c.27.22.76.62,1.14,1,.08.08.11.14.11.19,0,.08-.11.14-.19.14h-3.68v2.9h1.57l.62-.6c.08-.08.16-.16.24-.16s.16.05.3.16c.27.22.76.62,1.14,1,.08.08.11.14.11.19,0,.08-.11.14-.19.14h-3.79v3.06h2.38l.43-.46c.05-.05.13-.14.22-.14s.16.05.32.16c.41.27.65.46,1,.73.16.14.22.19.22.3,0,.19-.51.54-.76.7-.27,2.73-.78,6.69-1.62,7.96-.51.79-1.19,1.3-2.19,1.65Zm-3.92-5.52c0-.65-.11-1.35-.35-2.11l.27-.14c.89,1.25,1.35,2.11,1.35,3,0,.57-.41,1.19-.92,1.19-.35,0-.46-.35-.46-.65,0-.19.03-.38.05-.57.03-.24.05-.49.05-.73Zm.05-12.8h2.6v-2.87h-2.6v2.87Zm0,3.63h2.6v-2.9h-2.6v2.9Zm2.6,3.79v-3.06h-2.6v3.06h2.6Zm-1.25,2.68l.22-.16c1.14.97,1.87,1.81,1.87,2.68,0,.65-.43.92-.73.92-.35,0-.46-.3-.49-.87-.03-.57-.3-1.71-.87-2.57Zm1.73-.65l.16-.22c1.22.68,1.98,1.38,1.98,2,0,.68-.41.79-.6.79-.35,0-.43-.41-.54-.87-.11-.43-.38-1.06-1-1.71Zm9.75-5.5h-1.06c-.05,3.93-.08,10.18-5.41,14.27l-.22-.19c3.68-4.01,4.28-9.37,4.28-15.05,0-1.6-.05-3.74-.08-4.82-.03-1.14-.14-1.95-.38-2.73.95.43,1.6.76,1.98.95.11.05.22.14.3.22h5.04l.54-.6c.14-.14.24-.22.33-.22.11,0,.24.08.38.16.41.27.65.43,1,.7.11.08.22.16.22.3,0,.16-.3.46-.62.76,0,1.57.05,3.44.08,4.33.03.84.05,1.81.05,2.44,0,.43-.46.97-1.03.97-.41,0-.54-.41-.54-.62v-.87h-4.2c.49.68.89,1.73,1.14,2.49.79,2.41,1.25,3.74,1.84,4.79,1.38,2.44,3.25,4.76,6.17,5.74-.32.46-1.08.68-1.81.68-.27,0-.43.05-.62.19-.19.14-.35.24-.49.24-.22,0-.49-.19-1.25-1.08-1.95-2.27-3.44-5.66-4.6-10.37-.19-.76-.51-2.06-1.03-2.68Zm4.85-.73v-5.9h-5.85c0,1.25-.03,4.09-.05,5.9h5.9Z"/>
          </g>
          <rect class="cls-5" x="996.32" y="77.74" width="38.53" height="178.21"/>
          <g>
            <path class="cls-3" d="m1027.51,104.72v6.9h-1.14v-5.71h-17.38v-1.19h18.52Z"/>
            <path class="cls-3" d="m1005.5,132.17c-.32,0-.51-.24-.51-.6,0-.3.08-2.9.11-3.74.08-2.92.08-6.69.08-8.39s0-3.36-.22-4.52c.41.19,1.19.57,1.57.81.13.08.19.16.19.22h4.11l.51-.57c.11-.11.22-.19.3-.19s.22.08.35.16c.38.24.73.49,1.08.76.11.08.19.14.19.27s-.43.6-.73.87c0,1.43.03,5.09.05,8.2.03,2.19.05,4.39.05,4.9,0,.38-.51.89-.95.89-.38,0-.51-.35-.51-.54v-1h-4.68v1.62c0,.3-.65.84-1,.84Zm5.68-9.83v-5.66h-4.68v5.66h4.68Zm0,6.63v-5.9h-4.68v5.9h4.68Zm12.13,9.15c-.51-.49-1.06-.84-1.57-1.08-1.06-.51-1.95-1.06-2.76-2.03l.14-.27c1.14.49,2.92,1.06,3.79,1.06.62,0,.87-.43.87-.87v-7.63h-6.66c-.79,5.36-3.11,8.66-8.5,10.69l-.14-.3c5.01-2.6,6.9-6.47,7.39-12.42.13-1.76.22-3.74.22-5.85,0-1.03-.03-2.08-.05-3.17-.03-.73-.14-1.6-.41-2.41.7.3,1.62.73,2.14,1,.22.11.27.16.3.27h5.04l.7-.87c.14-.16.22-.22.3-.22s.19.05.38.16c.35.19.97.62,1.35.92.11.08.16.19.16.24,0,.24-.38.57-.78.89-.05,1.73-.08,3.6-.08,4.93,0,1.81.03,4.22.11,6.44.11,3.19.22,6.52.22,7.88,0,1.08-.84,1.92-2.14,2.63Zm-6.09-11.56h6.55v-5.04h-6.28c-.03,1.95-.14,3.49-.27,5.04Zm6.55-5.77v-4.95h-6.25c0,1.84,0,3.44-.03,4.95h6.28Z"/>
            <path class="cls-3" d="m1024.34,164.93c-.19,0-.49-.16-.87-.49-3.19-2.84-5.98-7.74-7.61-12.45-.27-.78-.54-1.35-.81-1.81-.84,7.5-4.74,12.15-11.59,14.73l-.13-.32c6.6-3.33,9.72-8.93,10.31-15.05h-6.9c-.46,0-1.38.05-1.84.41-.49-.16-1.11-.57-1.41-1.33.92.19,1.7.19,2.57.19h7.63c.14-1.52.22-3.17.22-4.95,0-.51,0-.79-.03-1.03-.05-.65-.19-1.46-.35-1.98.89.33,1.6.6,2.46,1.03.16.08.27.19.27.3,0,.32-.46.65-.84.92-.03,1.84-.14,3.68-.27,5.71h8.23l1.06-1.16c.11-.11.19-.16.3-.16s.22.05.43.19c.62.38,1.54.97,2.14,1.44.11.08.13.14.13.22,0,.11-.11.22-.24.22h-11.94c.38.49.65.97.92,1.65,2.57,6.31,6.69,11.31,12.07,12.32-.41.57-1.14.89-2,.89-.62,0-.89.03-1.35.32-.24.16-.38.22-.57.22Z"/>
            <path class="cls-3" d="m1004.69,174.03c-.49-.16-1.11-.54-1.41-1.33.92.19,1.71.19,2.57.19h10.85c.92-1.14,1.62-2.33,2.06-3.41.14-.35.22-.76.22-1.14,0-.16,0-.38-.03-.54.81.38,1.65.81,2.22,1.11.22.11.33.22.33.3,0,.3-.68.51-1.03.54-1,1.16-1.95,2.14-3.17,3.14h6.82l.92-.92c.08-.08.19-.16.3-.16.08,0,.22.08.38.19.54.38,1.11.81,1.62,1.22.11.08.16.16.16.24s-.11.16-.22.16h-20.76c-.46,0-1.38.05-1.84.41Zm7.77,17.97c-.27-.35-.65-.7-1.33-1.06-.43-.22-.95-.7-1.25-1.11l.16-.22c.7.3,1.57.54,2.27.54.38,0,.57-.35.57-.7v-4.25h-4.95v5.79c0,.32-.79.84-1.14.84-.27,0-.43-.19-.43-.57,0-.49.05-1.62.08-2.16.05-.95.14-5.52.14-8.55,0-1.33,0-1.98-.03-2.54-.03-.65-.08-1.62-.19-2.38.49.19,1.62.7,1.76.78.08.05.11.08.14.14h4.41l.6-.73c.08-.11.16-.14.22-.14.08,0,.16.05.35.19.27.19.68.49.89.65.11.08.24.19.24.3,0,.22-.27.43-.68.7,0,.92,0,6.5.03,8.34.03,1.68.03,3.44.03,4.22,0,.87-.84,1.57-1.89,1.92Zm.43-11.53v-3.19h-4.95v3.19h4.95Zm0,4.01v-3.28h-4.95v3.28h4.95Zm-.68-12.05c-.46,0-.7-.46-.92-1.16-.24-.84-.97-2.03-2.08-2.95l.16-.22c1.92.7,3.68,1.73,3.68,3.19,0,.68-.46,1.14-.84,1.14Zm7.17,7.8v2.76c0,.27.03,1.19.05,1.62.03.35.05,1.14.05,1.43,0,.6-.57,1.11-.97,1.11-.35,0-.54-.27-.54-.65s.03-1.22.05-1.71c.03-.62.05-1.41.05-1.73v-2.68c0-1.76,0-3.17-.38-4.22.95.3,1.35.43,2.09.68.24.08.35.19.35.35,0,.27-.24.49-.7.81-.05.95-.05,1.71-.05,2.22Zm-.43,9.5l.13-.24c.89.41,1.46.54,2.46.54,1.3,0,1.3-.89,1.3-3.03v-9.31c0-.3-.05-1.71-.43-2.6.76.22,1.62.49,2.11.65.24.08.38.16.38.3,0,.3-.43.57-.62.68-.05.3-.05.46-.05.89,0,2.36,0,6.2.05,9.39.03.87.03,1.79.03,2,0,1.79-.92,2.65-2.36,3.22-.41-.49-.76-.84-1.27-1.08-.7-.32-1.19-.78-1.73-1.41Z"/>
            <path class="cls-3" d="m1003.31,201.27v-6.9h1.14v5.71h17.38v1.19h-18.52Z"/>
            <path class="cls-3" d="m1004.26,225.26h.27c.22.87.33,1.9.33,2.41,0,.68-.19,1.25-.57,1.65-.27.3-.6.46-1,.46-.3,0-.51-.16-.51-.51,0-.27.35-.79.7-1.3.46-.7.79-1.65.79-2.71Zm5.98,7.34c-.22-.35-.62-.73-1.08-1-.51-.3-1.38-.84-1.79-1.46l.14-.24c.7.33,1.98.76,2.73.76.54,0,.81-.24,1.08-.68.87-1.41,1.22-4.87,1.41-7.55h-6.36v.32c0,.43-.54,1.11-.95,1.11-.27,0-.49-.24-.49-.7,0-.32.03-.95.05-1.49.08-1.76.11-3.63.11-5.33,0-1.92-.03-3.63-.08-4.68-.03-.79-.05-1.46-.19-2,.76.32,1.19.54,1.76.84.11.05.16.11.22.19h5.55l.62-.6c.08-.08.16-.16.24-.16s.16.05.3.16c.27.22.76.62,1.14,1,.08.08.11.13.11.19,0,.08-.11.13-.19.13h-4.33v2.87h1.46l.62-.6c.08-.08.16-.16.24-.16s.16.05.3.16c.27.22.76.62,1.14,1,.08.08.11.14.11.19,0,.08-.11.14-.19.14h-3.68v2.9h1.57l.62-.6c.08-.08.16-.16.24-.16s.16.05.3.16c.27.22.76.62,1.14,1,.08.08.11.14.11.19,0,.08-.11.13-.19.13h-3.79v3.06h2.38l.43-.46c.05-.05.13-.13.22-.13s.16.05.32.16c.41.27.65.46,1,.73.16.14.22.19.22.3,0,.19-.51.54-.76.7-.27,2.73-.78,6.69-1.62,7.96-.51.79-1.19,1.3-2.19,1.65Zm-3.92-5.52c0-.65-.11-1.35-.35-2.11l.27-.14c.89,1.25,1.35,2.11,1.35,3,0,.57-.41,1.19-.92,1.19-.35,0-.46-.35-.46-.65,0-.19.03-.38.05-.57.03-.24.05-.49.05-.73Zm.05-12.8h2.6v-2.87h-2.6v2.87Zm0,3.63h2.6v-2.9h-2.6v2.9Zm2.6,3.79v-3.06h-2.6v3.06h2.6Zm-1.25,2.68l.22-.16c1.14.97,1.87,1.81,1.87,2.68,0,.65-.43.92-.73.92-.35,0-.46-.3-.49-.87-.03-.57-.3-1.71-.87-2.57Zm1.73-.65l.16-.22c1.22.68,1.98,1.38,1.98,2,0,.68-.41.79-.6.79-.35,0-.43-.41-.54-.87-.11-.43-.38-1.06-1-1.71Zm9.75-5.5h-1.06c-.05,3.93-.08,10.18-5.41,14.27l-.22-.19c3.68-4.01,4.28-9.37,4.28-15.05,0-1.6-.05-3.74-.08-4.82-.03-1.14-.14-1.95-.38-2.73.95.43,1.6.76,1.98.95.11.05.22.14.3.22h5.04l.54-.6c.14-.14.24-.22.33-.22.11,0,.24.08.38.16.41.27.65.43,1,.7.11.08.22.16.22.3,0,.16-.3.46-.62.76,0,1.57.05,3.44.08,4.33.03.84.05,1.81.05,2.44,0,.43-.46.97-1.03.97-.41,0-.54-.41-.54-.62v-.87h-4.2c.49.68.89,1.73,1.14,2.49.79,2.41,1.25,3.74,1.84,4.79,1.38,2.44,3.25,4.76,6.17,5.74-.32.46-1.08.68-1.81.68-.27,0-.43.05-.62.19-.19.14-.35.24-.49.24-.22,0-.49-.19-1.25-1.08-1.95-2.27-3.44-5.66-4.6-10.37-.19-.76-.51-2.06-1.03-2.68Zm4.85-.73v-5.9h-5.85c0,1.25-.03,4.09-.05,5.9h5.9Z"/>
          </g>
          <rect class="cls-5" x="1150.66" y="26.95" width="38.53" height="178.21"/>
          <g>
            <path class="cls-3" d="m1181.85,53.92v6.9h-1.14v-5.71h-17.38v-1.19h18.52Z"/>
            <path class="cls-3" d="m1162.42,87.55c-.3,0-.49-.19-.49-.84,0-.54.05-1.76.11-2.98.08-1.92.16-4.47.16-5.85v-2.84c0-.73,0-2.17-.05-3.11-1.38,2.06-3.03,4.03-5.06,5.68l-.16-.22c3.11-3.65,5.95-8.69,6.82-11.83.13-.46.27-1,.27-1.44,0-.3-.03-.6-.08-.84.81.41,1.71.87,2.22,1.19.27.16.32.24.32.32,0,.27-.59.54-.95.6-.7,1.73-1.57,3.57-2.68,5.39.38.24.76.49,1.06.73.11.08.22.19.22.3,0,.27-.33.49-.6.65-.03.73-.03,1.54-.03,2.38v3c0,.92,0,3.22.03,4.41.03,1.68.03,3.25.03,4.06,0,.43-.6,1.22-1.14,1.22Zm17.84-.19c-1.79,0-5.39-2.3-7.34-8.12-.62-1.87-1.11-3.92-1.52-6.44l-3.55.43c-.46.05-1.38.22-1.79.62-.51-.08-1.16-.41-1.57-1.14.27.03.51.03.76.03.65,0,1.22-.05,1.84-.14l4.2-.51c-.19-1.46-.38-3.09-.54-4.9-.14-1.52-.41-2.41-.79-3.09.84.22,1.87.51,2.36.73.24.11.35.22.35.33,0,.22-.24.49-.57.81.11,2,.3,4.01.54,5.96l5.52-.68.79-1.08c.08-.11.16-.19.24-.19s.16.03.41.14c.65.32,1.38.7,1.87.97.24.14.3.22.3.3s-.03.16-.19.19l-8.82,1.06c.33,2.06.73,4.03,1.3,5.82.95,2.95,2.87,5.33,4.25,6.25.24.16.43.22.65.22.54,0,.87-1.08,1.14-1.95.22-.65.51-1.79.65-2.63l.27.03c.03.32.05,1.11.05,1.49,0,.49,0,1.03-.05,1.65-.05.54-.11,1.22-.11,1.38,0,.68.03,1.25.46,1.49,0,.65-.49.97-1.11.97Zm-2.82-18.41c-.43,0-.62-.38-.92-1-.3-.6-1-1.65-2.19-2.6l.13-.24c1.62.46,3.71,1.33,3.71,2.79,0,.62-.38,1.06-.73,1.06Z"/>
            <path class="cls-3" d="m1160.9,112.19c-.35,0-.51-.19-.51-.57,0-.22.03-1.16.05-1.84.03-.97.05-2.06.05-2.46v-12.51c0-.62-.05-2.19-.22-3.28.76.41,1.3.7,1.62.89.19.11.35.22.38.3h14.54l.65-.73c.14-.16.22-.22.33-.22s.24.08.38.16c.35.22.7.43,1.16.76.16.11.22.19.22.3,0,.16-.27.43-.6.73-.05.41-.05.7-.05,1.27v10.88c0,.24.05,2,.08,2.76.03.92.05,1.87.05,2.17,0,.43-.54.97-1.11.97-.41,0-.57-.41-.57-.62v-.92h-15.35v1.08c0,.3-.76.87-1.11.87Zm8.01-11.31v-7.42h-6.9v7.42h6.9Zm0,8.63v-7.9h-6.9v7.9h6.9Zm8.45-8.63v-7.42h-7.06v7.42h7.06Zm0,8.63v-7.9h-7.06v7.9h7.06Z"/>
            <path class="cls-3" d="m1162.12,140.91c-.41,0-.65-.43-.65-.92,0-.32.08-2.11.14-3.25.05-1.3.08-2.87.08-4.52v-5.95c-1.19,3.46-2.95,6.31-5.2,8.55l-.22-.16c2.38-3.44,4.2-7.23,5.12-11.86h-.89c-.46,0-1.38.05-1.84.41-.49-.16-1.11-.57-1.41-1.33.92.19,1.71.19,2.57.19h1.87c0-1.08-.03-2.3-.11-3.44-.05-.73-.13-1.65-.43-2.36,1.08.3,1.33.38,2.25.68.24.08.35.19.35.32,0,.27-.27.43-.76.68-.05,1.27-.05,2.9-.05,4.11h.92l.79-.76c.05-.05.16-.14.24-.14s.16.03.33.16c.43.35.95.79,1.27,1.11.08.08.14.14.14.19,0,.11-.11.16-.24.16h-3.44v3c1.6,1.08,2.73,2.3,2.73,3.28,0,.41-.24.97-.65.97-.38,0-.6-.33-.68-.7-.19-.89-.68-1.87-1.41-2.87v5.66c0,1.27.08,3.71.11,4.52.03.79.08,2.41.08,2.87,0,.54-.46,1.38-1,1.38Zm8.09-11.04c-.3,0-.41-.19-.41-.49,0-.11,0-.16.03-.57.03-.35.08-1.44.08-1.76,0-.57,0-1.33-.08-2.08-1,1.11-2.3,2.22-4.09,3.19l-.19-.27c2.19-1.54,3.84-3.55,4.87-5.71h-.54c-.46,0-1.38.05-1.84.41-.49-.16-1.11-.54-1.41-1.33.92.19,1.71.19,2.57.19h1.54c.27-.73.46-1.25.6-2.08-1.38.16-2.84.3-4.28.35l-.11-.27c3.33-.49,6.15-1.06,7.85-1.84.6-.27,1.19-.79,1.49-1.16.62.51,1.41,1.16,1.76,1.49.19.16.19.22.19.27,0,.14-.27.16-.57.16-.24,0-.33,0-.7-.05-1.19.32-2.65.62-4.28.87l.46.24c.19.11.24.19.24.33,0,.16-.35.38-.81.49-.14.38-.3.79-.49,1.22h5.87l.89-.87c.05-.05.16-.16.27-.16s.19.05.35.19c.46.38.89.76,1.33,1.19.05.05.14.14.14.22s-.11.16-.22.16h-5.82c.49.46,1,1.03,1.35,1.44,1.54,1.68,3.98,2.98,6.14,3.17-.27.41-.65.7-1.3.7-.41,0-.62.08-.81.27-.16.16-.27.27-.41.27-.41,0-.84-.35-1.46-.89-1.14-1-2.41-2.73-3.17-3.76-.3-.41-.62-.78-1.08-1.19h-2.44c-.38.73-.87,1.49-1.49,2.27.81.38,1.11.54,1.14.65h3.25l.46-.51c.13-.16.22-.16.24-.16.08,0,.14.03.3.14.3.19.62.41.92.62.08.05.22.16.22.27,0,.14-.32.41-.6.62,0,.27.03.97.05,1.54.03.54.05,1.14.05,1.3,0,.35-.57.76-.95.76-.35,0-.43-.33-.43-.49v-.22h-3.79v.19c0,.33-.6.7-.92.7Zm-2.87,11.04c-.35,0-.54-.24-.54-.68,0-.32.08-2.46.11-3.17.05-1.08.05-2.06.05-3.19,0-.62,0-1.25-.05-1.95-.03-.51-.08-1.25-.3-1.87.87.32,1.41.54,1.89.78.11.05.16.11.19.19h9.23l.57-.65c.11-.14.22-.19.32-.19.08,0,.19.05.35.16.43.27.76.49,1.11.76.19.14.24.19.24.3,0,.16-.3.43-.62.7,0,.81.03,1.95.05,2.95.05,1.54.08,2.6.08,3.14,0,1.3-.73,1.9-1.87,2.57-.33-.49-.97-.7-1.52-.89-.7-.24-1.16-.6-1.6-1.22l.08-.27c.62.24,1.46.49,2.33.49,1,0,1.16-.65,1.16-1.19v-5.93h-10.39c-.03.65-.05,1.43-.05,2.11,0,1.27,0,2.06.05,3.22.03.49.11,2.46.11,2.71,0,.49-.51,1.11-1,1.11Zm3.36-3.06c-.27,0-.38-.16-.38-.43,0-.16,0-.43.03-1.11.03-.79.03-1.11.03-1.81,0-.3,0-1.06-.22-1.84.38.11,1.03.32,1.43.49.14.05.16.11.19.16h2.92l.33-.35c.11-.11.16-.16.24-.16s.16.05.24.11c.33.22.73.49.87.6.16.14.19.16.19.22,0,.16-.27.46-.51.65,0,.38.03,1.25.05,1.79.03.49.03.7.03.92,0,.32-.43.62-.76.62s-.43-.19-.43-.51v-.19h-3.38v.22c0,.24-.6.65-.87.65Zm4.22-9.61v-2.41h-3.79v2.41h3.79Zm.03,8.01v-2.22h-3.38v2.22h3.38Z"/>
            <path class="cls-3" d="m1157.65,149.66v-6.9h1.14v5.71h17.38v1.19h-18.52Z"/>
            <path class="cls-3" d="m1158.6,173.65h.27c.22.87.33,1.9.33,2.41,0,.68-.19,1.25-.57,1.65-.27.3-.6.46-1,.46-.3,0-.51-.16-.51-.51,0-.27.35-.79.7-1.3.46-.7.79-1.65.79-2.71Zm5.98,7.34c-.22-.35-.62-.73-1.08-1-.51-.3-1.38-.84-1.79-1.46l.13-.24c.7.33,1.98.76,2.73.76.54,0,.81-.24,1.08-.68.87-1.41,1.22-4.87,1.41-7.55h-6.36v.32c0,.43-.54,1.11-.95,1.11-.27,0-.49-.24-.49-.7,0-.32.03-.95.05-1.49.08-1.76.11-3.63.11-5.33,0-1.92-.03-3.63-.08-4.68-.03-.79-.05-1.46-.19-2,.76.32,1.19.54,1.76.84.11.05.16.11.22.19h5.55l.62-.6c.08-.08.16-.16.24-.16s.16.05.3.16c.27.22.76.62,1.14,1,.08.08.11.13.11.19,0,.08-.11.13-.19.13h-4.33v2.87h1.46l.62-.6c.08-.08.16-.16.24-.16s.16.05.3.16c.27.22.76.62,1.14,1,.08.08.11.14.11.19,0,.08-.11.14-.19.14h-3.68v2.9h1.57l.62-.6c.08-.08.16-.16.24-.16s.16.05.3.16c.27.22.76.62,1.14,1,.08.08.11.14.11.19,0,.08-.11.13-.19.13h-3.79v3.06h2.38l.43-.46c.05-.05.13-.13.22-.13s.16.05.32.16c.41.27.65.46,1,.73.16.14.22.19.22.3,0,.19-.51.54-.76.7-.27,2.73-.78,6.69-1.62,7.96-.51.79-1.19,1.3-2.19,1.65Zm-3.92-5.52c0-.65-.11-1.35-.35-2.11l.27-.14c.89,1.25,1.35,2.11,1.35,3,0,.57-.41,1.19-.92,1.19-.35,0-.46-.35-.46-.65,0-.19.03-.38.05-.57.03-.24.05-.49.05-.73Zm.05-12.8h2.6v-2.87h-2.6v2.87Zm0,3.63h2.6v-2.9h-2.6v2.9Zm2.6,3.79v-3.06h-2.6v3.06h2.6Zm-1.25,2.68l.22-.16c1.14.97,1.87,1.81,1.87,2.68,0,.65-.43.92-.73.92-.35,0-.46-.3-.49-.87-.03-.57-.3-1.71-.87-2.57Zm1.73-.65l.16-.22c1.22.68,1.98,1.38,1.98,2,0,.68-.41.79-.6.79-.35,0-.43-.41-.54-.87-.11-.43-.38-1.06-1-1.71Zm9.75-5.5h-1.06c-.05,3.93-.08,10.18-5.41,14.27l-.22-.19c3.68-4.01,4.28-9.37,4.28-15.05,0-1.6-.05-3.74-.08-4.82-.03-1.14-.14-1.95-.38-2.73.95.43,1.6.76,1.98.95.11.05.22.14.3.22h5.04l.54-.6c.14-.14.24-.22.33-.22.11,0,.24.08.38.16.41.27.65.43,1,.7.11.08.22.16.22.3,0,.16-.3.46-.62.76,0,1.57.05,3.44.08,4.33.03.84.05,1.81.05,2.44,0,.43-.46.97-1.03.97-.41,0-.54-.41-.54-.62v-.87h-4.2c.49.68.89,1.73,1.14,2.49.79,2.41,1.25,3.74,1.84,4.79,1.38,2.44,3.25,4.76,6.17,5.74-.32.46-1.08.68-1.81.68-.27,0-.43.05-.62.19-.19.14-.35.24-.49.24-.22,0-.49-.19-1.25-1.08-1.95-2.27-3.44-5.66-4.6-10.37-.19-.76-.51-2.06-1.03-2.68Zm4.85-.73v-5.9h-5.85c0,1.25-.03,4.09-.05,5.9h5.9Z"/>
          </g>
          <rect class="cls-5" x="363.16" y="96.67" width="30.83" height="141.18"/>
          <g>
            <path class="cls-3" d="m388.13,118.25v5.53h-.91v-4.57h-13.91v-.95h14.82Z"/>
            <path class="cls-3" d="m375.15,128.67c0-.2,0-.37-.02-.56.56.33,1.28.76,1.71,1.06.22.15.3.24.3.35,0,.26-.43.35-.74.41-1.43,5.48-3.66,9.64-7.91,12.18l-.17-.2c3.1-2.58,5.74-7.43,6.63-11.68.11-.56.19-1.06.19-1.56Zm1.71-2.93c.37.02,1.19.13,1.6.24.3.09.54.19.76.41.22.22.46.65.59,1.02,2.32,6.63,4.22,11.9,9.17,13.72-.26.39-.69.52-1.32.56-.3.02-.45.11-.63.28-.15.15-.26.22-.43.22-.46,0-2.08-1.73-3.38-3.9s-2.12-4.51-3.81-9.77c-.2-.61-.5-1.37-1.02-1.8-.28-.24-.8-.46-1.52-.61v-.37Z"/>
            <path class="cls-3" d="m372.46,164.56c-.33,0-.54-.35-.54-.74,0-.26.07-1.69.11-2.6.04-1.04.07-3.81.07-5.14v-6.7h-1.56v9.12c0,.33-.5.89-.87.89-.15,0-.33-.2-.33-.56,0-.22.02-1.06.04-1.45.04-1.43.07-4.14.07-7.13,0-.82-.04-1.52-.22-2.21.56.24,1.02.48,1.34.65.09.04.11.07.13.11h1.39c0-.82-.02-2.08-.11-3.08-.04-.5-.11-.91-.22-1.21.54.17,1.15.41,1.6.61.2.09.26.17.26.26,0,.15-.11.3-.5.5-.02.95-.02,2.12-.02,2.92h1.19l.3-.35c.09-.11.17-.17.26-.17s.13.02.24.09c.41.26.61.39.89.61.09.06.17.13.17.24s-.22.32-.46.52c.02,1.6.04,3.21.07,4.23.02,1.32.04,2.71.04,3.4,0,.85-.54,1.28-1.32,1.67-.09-.13-.2-.28-.37-.39-.22-.13-.39-.24-.56-.41-.15-.15-.3-.35-.43-.54l.09-.22c.28.11.74.26.97.26.48,0,.54-.33.54-.74v-7.61h-1.62v6.63c0,1.02.06,4.49.09,5.14.02.63.07,1.93.07,2.3,0,.43-.37,1.1-.8,1.1Zm14.39-8.93c-.22,0-.67-.28-.89-.43-.95-.67-2.38-1.97-3.27-3.49-.13-.22-.35-.5-.56-.71v1.24c0,.22.04.95.06,1.3.02.28.07.91.07,1.15,0,.48-.43.89-.76.89-.28,0-.43-.22-.43-.52s.02-.97.04-1.37c.02-.5.04-1.13.04-1.39v-.84c-1.21,1.95-2.69,3.06-4.96,3.86l-.13-.19c1.93-1.04,3.21-2.32,4.18-4.12h-1.47c-.37,0-1.11.04-1.47.33-.39-.13-.89-.43-1.13-1.06.74.15,1.37.15,2.06.15h2.92v-.65c0-.59-.02-1.99-.15-2.93-1.17.15-2.3.22-3.4.22-.32,0-.65,0-1-.02l-.04-.22c2.41-.26,4.33-.67,6.33-1.34.52-.17,1.3-.43,1.58-.84.46.39.91.78,1.32,1.17.07.06.13.13.13.17,0,.11-.22.15-.41.15-.17,0-.39-.04-.54-.09-1.06.28-2.08.5-3.05.67.15.04.33.11.52.19.2.09.24.15.24.24,0,.15-.11.26-.5.45-.02.65-.04,1.63-.04,2.04v.78h.8c.65-.93,1-1.71,1.28-2.62.06-.22.13-.69.13-.97.52.28,1.02.58,1.37.8.17.11.24.17.24.26,0,.22-.52.3-.76.33-.43.71-1.15,1.6-1.88,2.21h2.41l.63-.61s.13-.11.2-.11.13.02.26.13c.35.28.69.56,1.02.89.06.06.11.11.11.15,0,.09-.09.13-.2.13h-5.11c.19.2.43.46.69.76,1.34,1.63,3.55,2.73,5.26,2.9-.17.35-.5.46-1.02.54-.13.02-.28.11-.39.24-.09.11-.17.19-.3.19Zm-8.75,8.54c-.28,0-.41-.15-.41-.45,0-.11,0-.43.02-.91.02-.76.07-2.99.07-3.94,0-.76,0-2.58-.17-3.6.65.28.93.41,1.28.61.15.09.24.15.24.2h5.35l.35-.39c.11-.13.17-.17.26-.17s.2.06.3.13c.3.2.52.35.78.54.09.07.17.13.17.24,0,.13-.24.37-.5.61,0,.61.02,2.17.04,3.25.02.82.07,2.6.07,2.97,0,.35-.35.76-.8.76-.33,0-.39-.3-.39-.48v-.72h-5.87v.67c0,.24-.5.69-.78.69Zm1.37-14.15c-.22,0-.46-.22-.56-.61-.15-.52-.37-1.15-1.11-1.86l.15-.17c1.34.56,2.06,1.13,2.06,1.86,0,.37-.17.78-.54.78Zm1.78,9.04v-2.41h-2.36v2.41h2.36Zm0,3.16v-2.58h-2.36v2.58h2.36Zm3.51-3.16v-2.41h-2.47v2.41h2.47Zm0,3.16v-2.58h-2.47v2.58h2.47Z"/>
            <path class="cls-3" d="m385.16,185.29c-.33,0-.54-.3-.54-.69,0-.22.02-.91.07-1.47h-12.65c.02.41.04.89.04,1.04,0,.54-.54,1-.91,1-.3,0-.5-.24-.5-.58,0-.33.04-1.52.07-1.97.02-.56.09-2.69.09-2.97v-4.44c0-.72,0-2.43-.35-3.73.8.24,1.39.43,1.86.61.22.09.33.15.33.28,0,.24-.24.43-.67.63-.02.74-.04,1.63-.04,2.08v4.49c0,.24.04,2.6.06,2.97h5.66v-11.14c0-.54-.02-2.08-.07-2.75-.04-.69-.17-1.28-.32-1.69.48.17,1.26.48,1.71.67.24.11.3.17.3.26,0,.19-.22.41-.41.59-.04.71-.04,2.15-.04,2.86v11.2h5.87c.04-.91.06-2.69.06-3.96v-1.82c0-1.23,0-2.36-.09-3.4-.04-.59-.13-1.41-.37-1.97.93.26,1.26.37,1.97.61.24.09.32.17.32.28,0,.22-.22.35-.61.54-.04,1.15-.04,2.64-.04,3.81v1.88c0,1.19.06,2.99.09,3.4.04.91.06,2.01.06,2.34,0,.43-.52,1.06-.95,1.06Z"/>
            <path class="cls-3" d="m368.76,193.11v-5.53h.91v4.57h13.91v.95h-14.82Z"/>
            <path class="cls-3" d="m369.52,212.3h.22c.17.69.26,1.52.26,1.93,0,.54-.15,1-.46,1.32-.22.24-.48.37-.8.37-.24,0-.41-.13-.41-.41,0-.22.28-.63.56-1.04.37-.56.63-1.32.63-2.17Zm4.79,5.87c-.17-.28-.5-.59-.87-.8-.41-.24-1.1-.67-1.43-1.17l.11-.2c.56.26,1.58.61,2.19.61.43,0,.65-.19.87-.54.69-1.13.98-3.9,1.13-6.05h-5.09v.26c0,.35-.43.89-.76.89-.22,0-.39-.19-.39-.56,0-.26.02-.76.04-1.19.06-1.41.09-2.9.09-4.27,0-1.54-.02-2.9-.06-3.75-.02-.63-.04-1.17-.15-1.6.61.26.95.43,1.41.67.09.04.13.09.17.15h4.44l.5-.48c.06-.06.13-.13.2-.13s.13.04.24.13c.22.17.61.5.91.8.07.07.09.11.09.15,0,.07-.09.11-.15.11h-3.47v2.3h1.17l.5-.48c.07-.06.13-.13.2-.13s.13.04.24.13c.22.17.61.5.91.8.07.06.09.11.09.15,0,.07-.09.11-.15.11h-2.95v2.32h1.26l.5-.48c.07-.06.13-.13.2-.13s.13.04.24.13c.22.17.61.5.91.8.06.06.09.11.09.15,0,.07-.09.11-.15.11h-3.03v2.45h1.91l.35-.37s.11-.11.17-.11.13.04.26.13c.33.22.52.37.8.58.13.11.17.15.17.24,0,.15-.41.43-.61.56-.22,2.19-.63,5.35-1.3,6.37-.41.63-.95,1.04-1.75,1.32Zm-3.14-4.42c0-.52-.09-1.08-.28-1.69l.22-.11c.71,1,1.08,1.69,1.08,2.41,0,.46-.33.95-.74.95-.28,0-.37-.28-.37-.52,0-.15.02-.3.04-.46.02-.2.04-.39.04-.58Zm.04-10.25h2.08v-2.3h-2.08v2.3Zm0,2.9h2.08v-2.32h-2.08v2.32Zm2.08,3.03v-2.45h-2.08v2.45h2.08Zm-1,2.15l.17-.13c.91.78,1.5,1.45,1.5,2.14,0,.52-.35.74-.58.74-.28,0-.37-.24-.39-.69-.02-.46-.24-1.37-.69-2.06Zm1.39-.52l.13-.17c.97.54,1.58,1.1,1.58,1.6,0,.54-.33.63-.48.63-.28,0-.35-.32-.43-.69-.09-.35-.3-.84-.8-1.36Zm7.8-4.4h-.84c-.04,3.14-.07,8.15-4.33,11.42l-.17-.15c2.95-3.21,3.42-7.5,3.42-12.05,0-1.28-.04-2.99-.06-3.86-.02-.91-.11-1.56-.3-2.19.76.35,1.28.61,1.58.76.09.04.17.11.24.17h4.03l.43-.48c.11-.11.2-.17.26-.17.09,0,.19.06.3.13.33.22.52.35.8.56.09.07.17.13.17.24,0,.13-.24.37-.5.61,0,1.26.04,2.75.06,3.47.02.67.04,1.45.04,1.95,0,.35-.37.78-.82.78-.33,0-.43-.33-.43-.5v-.69h-3.36c.39.54.72,1.39.91,1.99.63,1.93,1,2.99,1.47,3.83,1.11,1.95,2.6,3.81,4.94,4.59-.26.37-.87.54-1.45.54-.22,0-.35.04-.5.15-.15.11-.28.19-.39.19-.17,0-.39-.15-1-.87-1.56-1.82-2.75-4.53-3.68-8.3-.15-.61-.41-1.65-.82-2.15Zm3.88-.58v-4.72h-4.68c0,1-.02,3.27-.04,4.72h4.72Z"/>
          </g>
        </g>
      </g>
      <g>
        <rect class="cls-3" y="176.14" width="30.83" height="98.91"/>
        <g>
          <path d="m6.85,209.13c-.39-.13-.89-.43-1.13-1.06.74.15,1.37.15,2.06.15h6.83v-4.27h-3.66c-.37,0-1.1.04-1.47.33-.39-.13-.89-.43-1.13-1.06.74.15,1.37.15,2.06.15h4.2v-.69c0-.54,0-.97-.04-1.65-.04-.59-.15-1.17-.28-1.62.74.19,1.28.35,1.71.5.26.09.35.15.35.28,0,.22-.26.35-.54.48-.04.71-.04,1.23-.04,1.95v.76h3.88l.74-.74c.06-.07.15-.13.24-.13.06,0,.17.06.3.15.46.3.93.67,1.3.98.09.06.13.13.13.19s-.09.13-.17.13h-6.41v4.27h6.17l.82-.8s.11-.11.2-.11c.11,0,.2.07.35.17.46.32.91.65,1.37,1,.09.06.13.11.13.17,0,.09-.06.15-.17.15H8.32c-.37,0-1.11.04-1.47.33Zm15.1-9.08c-.39,0-.67-.46-1.06-1.19-.13-.26-.37-.65-.65-1.06-2.99.8-7.71,1.37-10.64,1.56-.04.19-.33.63-.61.63-.11,0-.19-.04-.32-.26-.17-.26-.39-.78-.78-1.8.54.13,1.13.22,1.56.22.54,0,1.13,0,1.75-.02.91-1.24,1.99-3.21,2.3-4.25.07-.22.13-.52.15-.82h-4.18c-.37,0-1.11.04-1.47.33-.39-.13-.89-.43-1.13-1.06.74.15,1.37.15,2.06.15h11.87l.69-.76c.06-.06.13-.11.22-.11s.17.04.3.13c.46.3.97.67,1.43,1,.09.06.11.11.11.17s-.06.15-.17.15h-9.27c.48.28.89.54,1.39.87.06.04.15.11.15.22,0,.2-.63.33-.91.37-.69,1.06-1.91,2.6-3.01,3.62,2.64-.07,5.83-.24,8.3-.63-.61-.8-1.41-1.69-2.34-2.27l.11-.19c2.06.82,4.75,2.88,4.75,4.16,0,.46-.24.87-.58.87Z"/>
          <path d="m9.1,239.34c-.24,0-.39-.22-.39-.74,0-.24.09-2.12.13-3.06.09-1.88.09-4.53.09-7.43,0-.22,0-.63-.02-1.08-.93,1.65-2.08,3.21-3.53,4.33l-.17-.13c2.56-2.97,4.29-7.67,4.81-9.92.07-.3.13-.65.13-1.02,0-.19-.02-.41-.06-.63.76.37,1.43.72,2.08,1.08.11.06.19.13.19.24,0,.26-.54.41-.97.48-.48,1.32-1.13,2.99-1.97,4.66.35.22.69.46.93.63.13.09.2.15.2.22,0,.24-.22.39-.46.54-.04,1.36-.04,2.58-.04,3.66,0,1.93,0,3.66.04,5.24.02.78.02,1.78.02,1.97,0,.35-.56.95-1,.95Zm13.63-.48c-.33,0-.39-.35-.39-.74v-1.54h-7.91v1.26c0,.43-.41,1.02-.84,1.02-.33,0-.5-.35-.5-.74,0-.17.06-.98.09-1.23.02-.39.13-3.29.13-4.98v-1.41c0-1.5,0-2.62-.09-3.66-.04-.59-.11-1.32-.35-1.89.89.22,1.17.28,1.93.54.19.07.26.15.26.26,0,.22-.2.35-.58.54-.04,1.15-.04,2.41-.04,4.07v5.63h3.32v-10.38c0-1.5,0-2.84-.09-3.88-.04-.59-.11-1.32-.35-1.89.89.22,1.17.28,1.93.54.2.06.28.15.28.26,0,.22-.22.35-.61.54-.04,1.15-.04,2.62-.04,4.29v10.51h3.47v-5.66c0-1.5,0-2.62-.09-3.66-.04-.59-.11-1.32-.35-1.89.89.22,1.17.28,1.93.54.2.06.28.15.28.26,0,.22-.22.35-.61.54-.04,1.15-.04,2.4-.04,4.07v1.62c0,1.13.04,2.54.09,3.66.04.91.07,1.99.07,2.38,0,.43-.45.98-.89.98Z"/>
          <path d="m8.69,252.53c.17-1.8.17-3.79.17-5.94v-1.97c0-.71-.13-2.02-.28-2.4.63.26,1.19.5,1.78.78.15.06.2.13.2.22,0,.15-.35.37-.52.48v2.82c0,2.32-.04,4.38-.19,6.11-.28,3.16-1.45,5.81-4.07,7.37l-.17-.15c2.12-2.17,2.86-4.88,3.1-7.3Zm5.72-9.69c.74.22,1.39.41,1.86.59.2.07.3.17.3.28,0,.24-.24.37-.67.59-.02.71-.02,1.62-.02,2.06v5.83c0,.61.02,2.3.07,2.82.02.3.06,1.45.06,1.71,0,.52-.58,1-.93,1-.3,0-.5-.28-.5-.61s.04-1.52.06-1.95c.02-.54.09-2.62.09-2.9v-5.74c0-.71,0-2.41-.33-3.66Zm6.87,10.38v-5.4c0-1.5,0-2.84-.09-3.88-.04-.58-.13-1.43-.37-1.99.84.24,1.28.37,1.95.63.22.09.32.17.32.33,0,.22-.24.41-.63.65-.04,1.15-.04,2.47-.04,4.14v5.46c0,1.21.06,3.01.09,3.62.02.63.07,1.86.07,2.3s-.52,1.1-.95,1.1c-.33,0-.52-.35-.52-.74,0-.33.07-1.71.11-2.62.04-1.04.07-2.27.07-3.6Z"/>
        </g>
      </g>
      <g>
        <rect class="cls-3" x="1249.17" y="51.61" width="30.83" height="98.91"/>
        <g>
          <path d="m1256.02,84.38c-.39-.13-.89-.43-1.13-1.06.74.15,1.37.15,2.06.15h6.83v-4.27h-3.66c-.37,0-1.1.04-1.47.32-.39-.13-.89-.43-1.13-1.06.74.15,1.37.15,2.06.15h4.2v-.69c0-.54,0-.98-.04-1.65-.04-.58-.15-1.17-.28-1.62.74.2,1.28.35,1.71.5.26.09.35.15.35.28,0,.22-.26.35-.54.48-.04.71-.04,1.23-.04,1.95v.76h3.88l.74-.74c.06-.06.15-.13.24-.13.06,0,.17.07.3.15.46.3.93.67,1.3.98.09.06.13.13.13.19s-.09.13-.17.13h-6.41v4.27h6.17l.82-.8s.11-.11.2-.11c.11,0,.2.06.35.17.45.33.91.65,1.37,1,.09.06.13.11.13.17,0,.09-.06.15-.17.15h-16.29c-.37,0-1.11.04-1.47.32Zm15.1-9.08c-.39,0-.67-.46-1.06-1.19-.13-.26-.37-.65-.65-1.06-2.99.8-7.71,1.37-10.64,1.56-.04.19-.33.63-.61.63-.11,0-.19-.04-.32-.26-.17-.26-.39-.78-.78-1.8.54.13,1.13.22,1.56.22.54,0,1.13,0,1.75-.02.91-1.24,1.99-3.21,2.3-4.25.07-.22.13-.52.15-.82h-4.18c-.37,0-1.11.04-1.47.33-.39-.13-.89-.43-1.13-1.06.74.15,1.37.15,2.06.15h11.87l.69-.76c.06-.06.13-.11.22-.11s.17.04.3.13c.46.3.97.67,1.43,1,.09.07.11.11.11.17s-.06.15-.17.15h-9.27c.48.28.89.54,1.39.87.06.04.15.11.15.22,0,.19-.63.32-.91.37-.69,1.06-1.91,2.6-3.01,3.62,2.64-.06,5.83-.24,8.3-.63-.61-.8-1.41-1.69-2.34-2.27l.11-.2c2.06.82,4.75,2.88,4.75,4.16,0,.46-.24.87-.59.87Z"/>
          <path d="m1259.14,114.36c-.33,0-.52-.19-.52-.48,0-.37.02-1.84.04-3.16.02-1.26.06-4.44.06-4.98h-1.37c-.37,0-1.1.04-1.47.32-.39-.13-.89-.45-1.13-1.06.74.15,1.37.15,2.06.15h1.91c0-.98,0-1.47-.04-2.02-.04-.45-.13-.93-.26-1.41.65.15,1.32.33,1.67.43.15.04.2.11.2.22,0,.13-.17.28-.37.39-.07.43-.09,1.43-.09,1.93v.45h4.01c0-.87,0-1.39-.04-1.93-.04-.46-.13-.93-.26-1.41.65.15,1.32.32,1.67.43.15.04.2.11.2.22,0,.13-.17.28-.37.39-.07.43-.09,1.43-.09,1.93v.37h2.97v-.15c0-.5,0-1.23-.07-1.88-.04-.41-.11-.82-.22-1.24.61.15,1.28.33,1.71.5.11.04.15.11.15.19,0,.17-.19.3-.43.41-.04.54-.04,1.47-.04,2.17h2.73l.69-.82c.09-.11.15-.15.22-.15.09,0,.13.02.28.15.54.46.71.61,1.19,1.06.09.09.11.11.11.17,0,.09-.09.17-.19.17h-5.03c.02.97.04,1.71.09,2.34.02.41.04.84.04,1.15,0,.39-.54.89-.93.89-.28,0-.3-.19-.3-.52v-.04h-2.97v.28c0,.52-.35.85-.69.85-.33,0-.52-.19-.52-.48,0-.37.02-1.02.04-1.67.02-.58.06-2.54.06-2.79h-4.01v6.63h10.29l.74-.84c.09-.11.15-.17.22-.17.09,0,.13.02.3.17.56.46.76.63,1.23,1.08.09.09.11.11.11.17,0,.09-.09.17-.19.17h-12.7v.56c0,.52-.35.84-.69.84Zm.52-15.62h-1.02c-1,1.28-2.21,2.49-3.66,3.38l-.15-.17c1.69-1.52,2.99-3.45,3.66-4.96.3-.69.43-1.37.43-1.86.69.35,1.3.65,1.73,1,.11.09.15.15.15.24,0,.17-.45.41-.87.48-.26.43-.54.89-.87,1.32h2.93l.63-.61s.13-.11.2-.11.13.02.26.13c.35.28.69.56,1.02.89.06.06.11.11.11.15,0,.09-.09.13-.2.13h-3.88c1.19.65,1.95,1.3,1.95,2.02,0,.63-.35.93-.63.93-.35,0-.5-.41-.67-.98-.17-.56-.46-1.26-1.13-1.97Zm7.76,0h-1.08c-.76,1.04-1.71,1.99-3.14,2.97l-.17-.17c1.52-1.32,2.56-3.12,3.06-4.59.24-.71.33-1.06.33-1.82.69.3,1.28.63,1.8.93.11.06.15.13.15.22,0,.17-.43.43-.85.52-.24.48-.5.93-.78,1.37h4.07l.67-.65s.13-.11.2-.11.13.02.33.17c.3.24.65.52.93.8.09.09.17.17.17.24,0,.09-.09.13-.2.13h-4.83c1,.59,1.67,1.21,1.67,1.86s-.3,1-.63,1-.46-.41-.61-.89c-.17-.52-.46-1.26-1.08-1.97Zm.5,7h-2.97v3.23h2.97v-3.23Z"/>
          <path d="m1255.44,131.79c-.15,0-.26-.09-.48-.48-.15-.26-.39-.69-.72-1.3.15.02.33.02.48.02.56,0,1.75-.26,3.01-.61v-6.37h-.72c-.37,0-1.1.04-1.47.32-.39-.13-.89-.46-1.13-1.06.74.15,1.37.15,2.06.15h1.26v-2.06c0-.54,0-.98-.04-1.65-.04-.59-.11-1.02-.3-1.62.87.24,1.13.32,1.65.5.35.11.45.19.45.35,0,.26-.28.46-.65.67-.04.72-.04.91-.04,1.63v2.19h1.1l.43-.48c.11-.11.15-.13.2-.13s.09,0,.22.13c.28.26.46.43.74.72.13.13.15.17.15.22,0,.09-.09.13-.15.13h-2.69v6.04c1.13-.37,2.17-.76,2.77-1.11l.11.19c-1.69,1.24-4.05,2.36-5.72,2.88-.13.41-.3.71-.52.71Zm10.7,4.42c-.15-.35-.54-.76-.91-1.04-.35-.28-.69-.61-1.04-1.04l.15-.19c1.02.52,1.62.69,2.12.69,1.34,0,1.84-1.91,1.84-3.51,0-.61-.04-1.3-.15-1.99-1.52,2.21-4.9,4.62-8.32,5.63l-.15-.22c2.43-1.13,4.33-2.49,5.87-4.12-.04.02-.09.04-.15.04-.35,0-.5-.39-.71-.95-.04-.11-.11-.26-.17-.39-1.32.91-2.84,1.73-4.25,2.23l-.13-.22c1.37-.69,2.77-1.71,3.99-2.77-.3-.48-.69-1-1.17-1.45-.58.3-1.15.59-1.71.78l-.15-.22c1.91-1.04,4.53-3.01,5.33-4.7h-1.04c-.37,0-1.11.04-1.47.33-.39-.13-.89-.46-1.13-1.06.74.15,1.37.15,2.06.15h5.87l.65-.63c.06-.07.15-.13.22-.13.09,0,.15.04.3.15.39.28.82.63,1.15.89.11.09.13.13.13.17,0,.07-.06.13-.2.13h-5.09c-.26.41-.61.82-1,1.24.54.59,1,1.37,1.34,2.17.17.17.46.48.61.82,1.02-.78,1.75-1.65,2.17-2.32.22-.35.26-.56.33-.95.56.39.98.72,1.28.98.22.17.3.26.3.37,0,.22-.52.3-.91.33-.58.46-1.8,1.23-3.03,1.84,1.8,3.38,3.86,5.55,6.07,6.22-.24.32-.67.45-1.17.48-.28.02-.41.09-.56.22-.17.15-.33.19-.48.19-.24,0-.54-.35-.87-.76-.54-.69-1.73-2.56-3.23-6,.46,1.56.65,3.08.65,3.86,0,2.47-.71,4.31-3.23,4.77Zm-3.29-15.02c-.28,0-.5-.28-.5-.69s.22-.65.5-.89c.69-.61.91-1.06,1.08-2.12l.22.02c.04.19.07.5.09.84h7.34l.52-.5c.11-.11.17-.13.22-.13.09,0,.13.02.3.15.3.22.72.56,1.11.93.11.11.11.17.11.22,0,.26-.78.37-1.06.37-.48.43-1,.8-1.89,1.3l-.13-.17c.43-.56.74-1.04.95-1.58h-7.48c-.04.91-.26,1.52-.71,1.97-.2.2-.41.28-.67.28Zm1.93,6.59c1-.93,1.8-1.89,2.27-2.66-.13-.3-.28-.59-.43-.85-.95.93-2.17,1.82-3.4,2.51.54.26,1.08.61,1.56,1Zm1.04,2.38c.76-.82,1.43-1.71,2.01-2.69-.09-.37-.2-.74-.3-1.11-.48.65-1.21,1.39-2.12,2.1.3.39.5.8.5,1.23,0,.2-.04.35-.09.45Z"/>
        </g>
      </g>
    </g>
  </g>
</svg>