<svg xmlns="http://www.w3.org/2000/svg" width="345.38" height="19.36" viewBox="0 0 345.38 19.36">
  <path id="address" d="M14.28-5.78c-.04.64-.06,1.06.48,1.06.44,0,1.02-.2,1.02-.84,0-.18-.1-2.32-.12-2.6-.06-1.48-.06-2.06-.04-2.5.52-.32.64-.4.64-.58a.44.44,0,0,0-.2-.32l-.9-.72a.47.47,0,0,0-.28-.14.48.48,0,0,0-.24.14l-.66.58H10.56v-2.06h8.12c.12,0,.3-.04.3-.22,0-.1-.06-.18-.2-.3l-1.22-1c-.14-.12-.26-.22-.36-.22s-.18.1-.32.26l-.86,1H10.58v-1.12c.18-.12.66-.44.66-.66,0-.16-.16-.24-.34-.28l-2.08-.54a7.515,7.515,0,0,1,.4,2.6H4.12c-.3,0-1.6-.02-3.08-.14l.4.8a13.454,13.454,0,0,1,2.36-.18H9.24c.02.5.04,1.6.04,2.06H5.88l-1.86-.82a12.1,12.1,0,0,1,.26,3.26c0,1.08-.02,2.16-.06,2.82,0,.2-.1,1.18-.1,1.4,0,.24.08.44.5.44.9,0,1.04-.5,1.04-1.18H8.34C7.94-5.12,3.78-.92.76.3L.82.46A18.056,18.056,0,0,0,9.26-4.82c0,2.34-.12,4.06-.22,5.44-.02.22-.02.38-.02.44a.49.49,0,0,0,.52.56A1.032,1.032,0,0,0,10.66.64c0-.1-.02-.58-.02-.68-.04-.8-.06-4.74-.08-5.64C12.3-2.1,16.76.2,17.38.4a3.18,3.18,0,0,1,2.14-1.82v-.16a12.488,12.488,0,0,1-8.6-4.2Zm-3.74-.48c0-.36.02-2,.02-2.32h3.72v2.32Zm-4.9,0V-8.58H9.26v2.32Zm3.64-4.96L9.26-9.06H5.64v-2.16Zm1.28,2.16v-2.16h3.72v2.16ZM36-10.68c0-.1-.04-.16-.24-.32l-.94-.76a.467.467,0,0,0-.28-.14.409.409,0,0,0-.26.16l-.6.66H26.24l-1.86-1.04a12.2,12.2,0,0,1,.2,3.2c0,.72-.04,2.58-.06,3.18,0,.1-.02.36-.02.44,0,.3.1.54.54.54,1.04,0,1-.7.96-1.26h3.5v4.76c0,.82,0,.94-.6.94a16.155,16.155,0,0,1-2.32-.26l-.02.14c.36.16,2.08.92,2.24,2.22C30.9,1.3,30.9.12,30.9-.6c0-.78-.06-4.56-.06-5.42h3c-.04.72-.04,1,.52,1a.981.981,0,0,0,.98-.94c0-.3-.1-1.84-.12-2.2-.02-.92-.02-1.42-.02-1.84C35.84-10.36,36-10.42,36-10.68ZM33.84-6.5H26v-4.1h7.84Zm5.24-7.06a.472.472,0,0,0-.2-.32l-1.38-.98a1.054,1.054,0,0,0-.42-.22c-.1,0-.14.08-.3.26l-.92.98H30.72c0-.84,0-.94.02-1.6.5-.28.68-.38.68-.6,0-.16-.2-.22-.34-.26l-2.22-.5a7.146,7.146,0,0,1,.42,2.96h-5.2c-.3,0-1.72,0-3.08-.12l.4.8a12.339,12.339,0,0,1,2.34-.2H38.78C38.9-13.36,39.08-13.38,39.08-13.56ZM37.8-.36c0-1.84-3.16-3.48-5.22-3.82l-.04.14A9.52,9.52,0,0,1,35.56-.88C36.4.34,36.5.52,37.04.52A.816.816,0,0,0,37.8-.36Zm-9.78-2.9a.376.376,0,0,0-.2-.3L26.16-4.82C25.62-3.04,22.54-.1,20.74,1l.06.14A16.029,16.029,0,0,0,27.2-3C27.82-2.98,28.02-3,28.02-3.26ZM46.1-9.68c-.74.92-1.1,1.34-1.8,2.08l-.48-.26c.04.26.06.52.08.7a31.154,31.154,0,0,1-3.74,3.34l.14.14a19.107,19.107,0,0,0,3.64-2.4C44-4.4,43.84-1.2,43.82-.8c0,.24-.1,1.36-.1,1.52,0,.3.1.48.46.48,1.08,0,1.06-.62,1.04-1.3h3.16c-.02.72-.04.94.44.94.34,0,1.04-.14,1.04-.82,0-.26-.08-1.54-.1-1.84-.06-2.02-.04-3.46-.02-4.2.6-.34.72-.42.72-.62,0-.1-.04-.2-.28-.36l-.94-.64a.547.547,0,0,0-.3-.14.368.368,0,0,0-.28.18l-.52.58H45.4l-.26-.12a31.875,31.875,0,0,0,2.32-2.54h3.78c.14,0,.3-.02.3-.2a.407.407,0,0,0-.18-.32l-.94-.82a.767.767,0,0,0-.36-.22c-.1,0-.16.1-.3.26l-.66.82H47.84c.88-1.04,1.72-2.2,2.82-3.74.5-.06.72-.08.72-.36a.339.339,0,0,0-.18-.28l-1.54-1.12c-.16,1.32-2.1,4.06-3.18,5.5h-.4c0-.42.02-2.48.02-2.94h2.08c.18,0,.3-.06.3-.22,0-.1-.08-.18-.2-.3l-.6-.62c-.16-.16-.24-.22-.38-.22-.12,0-.18.08-.3.26l-.44.62h-.44a7.789,7.789,0,0,1,.1-1.72c.48-.22.62-.3.62-.54,0-.16-.12-.24-.28-.28l-1.96-.6a4.673,4.673,0,0,1,.22.8c.02.2.04,1.56.04,2.34h-1c-.4,0-1.28-.02-2.18-.1l.26.7a8.024,8.024,0,0,1,1.66-.12h1.26v2.94h-.92c-.26,0-1.72,0-3.08-.12l.4.78a13.887,13.887,0,0,1,2.34-.18Zm2.3,3.14v2.7H45.2v-2.7Zm0,3.18V-.58H45.2V-3.36Zm5.34-11.8-1.82-.8a22,22,0,0,1,.34,4.86c0,.2-.04,6.94-.12,10.34,0,.48-.08,1.28-.08,1.76,0,.4.16.54.5.54.08,0,1.12,0,1.1-.96,0-.24-.02-.48-.02-.6-.18-4.32-.16-10.3-.1-14.66h2.84A52.667,52.667,0,0,1,54.3-9.24c2.08,1.7,2.98,3.5,2.98,5.28,0,.22,0,1.38-1.18,1.38a8.338,8.338,0,0,1-1.8-.26l-.06.12A2.864,2.864,0,0,1,55.68-.66c1.92-.24,3.08-1.28,3.08-3.2,0-3.2-3.2-5.02-4.04-5.48.1-.12,1.94-2.72,3.04-4.24.62-.1.94-.22.94-.5a.559.559,0,0,0-.18-.34L57.38-15.5c-.06-.04-.2-.2-.3-.2a.4.4,0,0,0-.26.14l-.46.4ZM79.12-9.92a.53.53,0,0,0-.2-.3L77.5-11.36a.7.7,0,0,0-.38-.2c-.08,0-.18.1-.3.26l-.78,1.12H74.62c0-.5.02-3.94.02-4.26.46-.32.72-.48.72-.68,0-.14-.12-.22-.28-.28l-2.24-.72a4.9,4.9,0,0,1,.32,1.68c.04.78.04,1.56.06,4.26H70.2c.04-2.24.04-2.48.04-4.76.4-.22.68-.42.68-.64,0-.16-.18-.26-.28-.28l-2.02-.58a5.168,5.168,0,0,1,.22,1.24c.08,1.1.08,2.5.06,5.02H65.88v-4.4c.2-.1.72-.38.72-.62,0-.18-.16-.26-.32-.3l-2.2-.62a2.954,2.954,0,0,1,.32,1.4c.12,1.38.14,3.4.14,4.54h-.5c-.6,0-1.84-.04-3.08-.14l.4.8a13.573,13.573,0,0,1,2.36-.18h.82c-.02,6.1-.02,6.52-.1,8.38-.02.28-.16,1.66-.16,1.96a.617.617,0,0,0,.7.64c1.02,0,.96-.94.94-1.28H77.88c.14,0,.32-.04.32-.2,0-.1-.08-.2-.2-.32l-1.34-1.2a.55.55,0,0,0-.36-.2c-.1,0-.2.08-.34.26L75-.48H65.92c-.04-4.12-.04-4.62-.04-9.22H68.9c-.04,3.52-.04,3.92-.08,4.68-.02.62-.08,1.6-.08,2.22a.514.514,0,0,0,.58.6c1.02,0,.96-.92.9-1.46h3c-.02.8-.02,1,.48,1a.9.9,0,0,0,1-1c0-.26-.04-1.5-.04-1.78-.02-.66-.02-1.02-.04-4.26h4.2C79-9.7,79.12-9.78,79.12-9.92Zm-5.9,5.78H70.2V-9.7h3.02ZM84.48-14.58l-1.9-1.04a31.181,31.181,0,0,1,.28,5.78c0,2.88-.06,5.78-.14,8.68,0,.22-.06,1.24-.06,1.48a.532.532,0,0,0,.6.56c.34,0,.94-.16,1.08-.62.02-.08.02-.68.02-.8H95.68c-.04.8-.08,1.16.56,1.16A1.042,1.042,0,0,0,97.38-.42c0-.28-.12-1.7-.12-2-.1-3.26-.14-9-.08-10.96.18-.08.84-.38.84-.66,0-.16-.1-.24-.22-.34l-1.08-.8a.593.593,0,0,0-.3-.14c-.12,0-.18.12-.3.22l-.56.52Zm4.78.48v6.2h-4.9v-6.2Zm0,6.68v6.4h-4.9v-6.4Zm1.38,6.4v-6.4h5.04v6.4Zm0-6.88v-6.2h5.04v6.2Zm24.54,2.22c0-.12-.12-.22-.26-.34l-.78-.64c-.14-.12-.22-.18-.32-.18-.12,0-.2.1-.34.22L112.8-6h-5.72l-1.72-.8a29.853,29.853,0,0,1,.12,3.08c0,.68-.02,2.56-.12,4.04-.02.18-.04.3-.04.36,0,.26.08.6.68.6a.945.945,0,0,0,.94-.62,1.517,1.517,0,0,0,.02-.6h6.18a2.559,2.559,0,0,0-.06.56c0,.44.2.64.58.64A.949.949,0,0,0,114.68.4c0-.88-.12-4.7-.12-5.48C115-5.38,115.18-5.52,115.18-5.68ZM113.16-.42h-6.22v-5.1h6.22Zm4-12.44c0-1.48-2.88-3.1-5.72-3.48l-.02.14a12.356,12.356,0,0,1,3.62,3.22c.74.96.82,1.06,1.24,1.06A.889.889,0,0,0,117.16-12.86Zm2.6,5.62v-.12a13.032,13.032,0,0,1-3.08-.58,11.5,11.5,0,0,1-5.84-4.08.308.308,0,0,0,.2-.3.421.421,0,0,0-.22-.38l-1.58-.98a8.339,8.339,0,0,1-1.92,3.04,32.914,32.914,0,0,1-6.64,5.82l.06.12a22.531,22.531,0,0,0,9.46-7.16c.16-.04.26-.06.36-.08a13.579,13.579,0,0,0,7.5,6.56A3.592,3.592,0,0,1,119.76-7.24Zm-11.32-7.88a.4.4,0,0,0-.22-.3l-1.74-1.3a3.75,3.75,0,0,1-1,1.76,21.583,21.583,0,0,1-4.06,3.84l.1.14a17.375,17.375,0,0,0,5.94-3.84C108.18-14.82,108.44-14.94,108.44-15.12Zm27.36,2.7a.411.411,0,0,0-.2-.3l-1.78-1.22c-.14,1.68-1.4,3.64-2.62,5.3a20.022,20.022,0,0,0-5.18-3.12l-.08.14a31.629,31.629,0,0,1,4.58,3.9A29.44,29.44,0,0,1,124.86-2l.06.16c1.08-.42,3.3-1.32,6.46-4.94A17.833,17.833,0,0,1,133.5-3.7c.38.7.58,1.08,1.12,1.08a.767.767,0,0,0,.78-.82c0-1.34-1.84-3.16-3.2-4.34a35.352,35.352,0,0,0,2.88-4.24C135.46-12.06,135.8-12.1,135.8-12.42ZM138.62-.06c0-.12-.12-.22-.2-.3L137.16-1.4a.826.826,0,0,0-.36-.2c-.1,0-.18.08-.32.24l-.92,1.04h-11.5c-.02-1.04-.02-5.18-.02-7.48,0-1,.08-5.92.08-7.04h13.6c.14,0,.32-.02.32-.22a.43.43,0,0,0-.2-.3l-1.16-.94c-.16-.12-.28-.22-.38-.22s-.18.12-.3.24l-.84.96H124.42l-2.04-1.02a17.592,17.592,0,0,1,.26,4.02c0,.18-.06,8.62-.18,11.2-.02.32-.1,1.92-.1,2,0,.22.04.48.54.48a1.04,1.04,0,0,0,1.16-1.2H138.3C138.44.16,138.62.14,138.62-.06Zm20.4-.18c0-.12-.08-.2-.2-.3l-1.36-1.18a.731.731,0,0,0-.36-.2c-.12,0-.18.08-.32.24L155.84-.5h-6c0-.96-.02-3.3-.02-3.54V-9.1h6.6c.14,0,.3-.02.3-.2,0-.14-.1-.22-.2-.3l-1.38-1.18c-.16-.12-.26-.22-.36-.22-.08,0-.2.12-.3.26l-.88,1.16h-3.78V-11.5c0-.46.06-2.62.06-3.12.66-.42.66-.56.66-.68,0-.2-.18-.26-.3-.3L148-16.26a4.049,4.049,0,0,1,.28,1.38c.14,1.94.12,10.64.1,14.38H144.1c-.3,0-1.72-.02-3.08-.14l.4.8a14.242,14.242,0,0,1,2.36-.18h14.94C158.86-.02,159.02-.06,159.02-.24Zm2.74-1.04c.08.18.18.34.36.34.22,0,.32-.26.44-.64.24-.16,1.5-.9,2.26-1.36a18.32,18.32,0,0,0,1.66-1.08c-.02,1.16-.02,1.28-.02,1.62-.02.42-.1,2.52-.1,3,0,.32.04.6.54.6.52,0,1.14-.18,1.14-1.06,0-.54-.06-1.42-.08-1.96-.06-2.52-.08-5.04-.08-7.58,0-2.12,0-3.76.06-5.34.6-.3.68-.46.68-.64,0-.1-.14-.18-.34-.24l-2.16-.58a7.267,7.267,0,0,1,.3,1.32c.1.82.1,3.26.08,4.16h-2c-.16,0-1.68-.02-3.06-.14l.38.8a14.455,14.455,0,0,1,2.36-.18h2.32c0,1.5-.02,5.1-.02,5.86a21.543,21.543,0,0,1-4.88,1.14,4.544,4.544,0,0,1-.82-.08Zm15.92-3.04A10.477,10.477,0,0,1,176.82-1c-.36.44-1.92.44-2.58.44-2.04,0-2.18-.2-2.2-.98C172-3.22,172-4.32,172-7.88a33.79,33.79,0,0,0,5.48-3.26c.62.08.94-.02.94-.32a.353.353,0,0,0-.18-.3l-1.92-1.54a2.357,2.357,0,0,1-.3.76A20.785,20.785,0,0,1,172-8.32c.02-4.14.02-4.48.1-6.28.54-.34.64-.48.64-.66,0-.14-.12-.22-.32-.26l-2.04-.5a37.146,37.146,0,0,1,.28,5.72c0,1.3-.06,7.3-.06,8.22,0,2.84.6,2.86,4.26,2.86,2.2,0,2.84-.14,3.42-.46a1.557,1.557,0,0,0,.78-1.1.234.234,0,0,0-.1-.22,2.075,2.075,0,0,1-.52-.46,24.908,24.908,0,0,1-.62-2.86ZM199.74.14V.04c-1.74-.76-4.9-2.32-6.3-8.54h2.64c-.02.68-.02,1.14.62,1.14.92,0,.92-.74.92-1.18,0-.16-.16-2.76-.16-3.3v-2.42c.46-.22.82-.46.82-.66,0-.1-.1-.2-.16-.26l-.94-.72a.575.575,0,0,0-.3-.14.418.418,0,0,0-.26.14l-.7.7h-6.08l-2-1.12a30.488,30.488,0,0,1,.42,5.72c0,2.96,0,8.42-3.36,11.84l.12.1c3.28-2.24,4.24-4.82,4.56-9.84h3.56c.22,5.84,2.76,8.36,4.42,9.86A3.486,3.486,0,0,1,199.74.14Zm-3.66-9.12H189.6v-5.74h6.48Zm-10.86-5.1c0-1.46-2.4-1.96-3-2.08l-.06.1a10.5,10.5,0,0,1,1.32,1.86c.42.74.56,1.02,1,1.02C185.02-13.18,185.22-13.74,185.22-14.08Zm-1.18,4.4c0-1.38-2.3-1.8-3.12-1.92l-.04.1a5.372,5.372,0,0,1,1.1,1.32c.7,1.26.78,1.38,1.26,1.38A.856.856,0,0,0,184.04-9.68Zm2.62-3.52h-.16c-.6,1.9-3.54,8.5-3.78,8.88a1.835,1.835,0,0,1-1.48.74l-.04.1c1.44.7,1.44,1.54,1.44,3.4,0,.38,0,1.48,1,1.48.58,0,.92-.44.92-1.1a4.7,4.7,0,0,0-.48-1.72,3.791,3.791,0,0,1-.38-1.3,3.183,3.183,0,0,1,.32-1.18C184.5-5.24,186.26-11.06,186.66-13.2ZM213.74,0V-.64H212.5c-1.06,0-1.58-.32-1.58-1.22V-14.7c0-.16-.06-.28-.24-.28a.8.8,0,0,0-.32.12,9.607,9.607,0,0,1-3.68.84h-.4v.54H208c.34,0,1.08.08,1.08.74V-1.86c0,.86-.46,1.22-1.58,1.22h-1.24V0Zm25.14-14.4a.44.44,0,0,0-.2-.32L237.2-15.9a.659.659,0,0,0-.36-.2c-.12,0-.24.16-.32.24l-1.12,1.18H224c-.6,0-1.84-.04-3.08-.12l.4.78a13.572,13.572,0,0,1,2.36-.18h5.68c.02,1.64,0,9.6,0,11.4a11.1,11.1,0,0,1-.06,1.46c-.08.32-.38.4-1,.4a19.13,19.13,0,0,1-2.66-.28l-.04.14c2.24,1.22,2.38,1.62,2.48,2.46,2.78-.28,2.78-1.72,2.78-3.44,0-.6-.08-11.58-.08-12.14h7.8C238.7-14.2,238.88-14.22,238.88-14.4Zm7.56-.8-2-.98a31.788,31.788,0,0,1,.26,5.56c0,2-.02,6.86-.1,8.78-.02.32-.14,1.92-.14,2.3,0,.24.02.52.54.52A1.329,1.329,0,0,0,246.06.5c.12-.18.12-.3.08-.7h7.6c-.02.34-.06.84.52.84.08,0,1.12-.06,1.12-.9,0-.08-.02-.4-.02-.42-.12-3.7-.22-6.26-.22-11.1,0-.88,0-1.22.04-2.12.46-.32.74-.5.74-.74,0-.1-.04-.2-.22-.36l-.98-.82a.659.659,0,0,0-.36-.2c-.12,0-.22.1-.34.24l-.56.58Zm7.32,5.26v4.32h-7.62V-9.94Zm0-4.78v4.3h-7.62v-4.3Zm0,9.58V-.68h-7.62V-5.14Zm21.16.36a4.556,4.556,0,0,0-4.82-4.58,4.962,4.962,0,0,0-3.48,1.38l.22-5.04h6.72L274-14.6h-7.82l-.34,7.72.34.16a5.023,5.023,0,0,1,3.52-1.74c1.58,0,3.14,1.36,3.14,3.94,0,2.7-1.74,4.22-3.54,4.22-.9,0-1.92-.44-1.92-1.3,0-.18.2-.98.2-1.16A1.059,1.059,0,0,0,266.4-3.8a1.226,1.226,0,0,0-1.32,1.22c0,1.28,1.74,2.96,4.26,2.96A5.414,5.414,0,0,0,274.92-4.78ZM298.78,1.8a13.132,13.132,0,0,1-3.8-9.4,13.132,13.132,0,0,1,3.8-9.4l-.18-.28a12.423,12.423,0,0,0-4.74,9.68,12.423,12.423,0,0,0,4.74,9.68ZM318.82-.72c0-.2-.34-.38-.46-.58a7.069,7.069,0,0,1-.38-2.38h-.14a17.312,17.312,0,0,1-.88,2.42c-.42.74-1.04.74-3.1.74-.38,0-3.24,0-3.5-.08a.662.662,0,0,1-.48-.56c-.02-.24-.04-6.38-.02-7.18l2.18-.98c-.02,3.52-.02,4.28-.06,5.56,0,.2-.06,1.22-.06,1.44,0,.42.2.52.48.52a.944.944,0,0,0,1.02-1c0-.24-.06-1.42-.06-1.68-.02-.54-.04-2.46-.06-5.4l2.38-1.08c.02.58.04.8.04,2.16,0,4.22-.22,4.4-1.62,4.4a4.328,4.328,0,0,1-.62-.04v.1a2.537,2.537,0,0,1,1.2,1.68c2.34-.62,2.38-2,2.38-8,.28-.26.5-.46.5-.7a.413.413,0,0,0-.2-.32l-.94-.58a.71.71,0,0,0-.38-.16c-.14,0-.24.18-.34.34l-.48.8-1.94.86c0-2.28,0-2.54.04-4.34.42-.32.7-.56.7-.74,0-.14-.14-.24-.34-.3l-1.92-.64a13.336,13.336,0,0,1,.24,1.76c.06,1.4.06,2.82.04,4.82l-2.18.98c0-.52.02-3.12.04-3.72.48-.34.64-.48.64-.66,0-.16-.16-.24-.3-.28l-1.86-.64a10.136,10.136,0,0,1,.22,2.32v3.54c-.3.14-1.54.68-2.62,1.04l.68.56a10.656,10.656,0,0,1,1.94-1.06c0,.18.02,1.08.02,1.28,0,.7-.06,4.14-.06,4.92,0,2.18.58,2.34,3.86,2.34.56,0,4.1,0,4.56-.08C318.48.42,318.82-.44,318.82-.72ZM308.34-9.78c0-.12-.08-.2-.18-.3l-.7-.66c-.1-.08-.22-.22-.34-.22-.1,0-.16.06-.34.26l-.6.66h-.48c.02-2.18.02-2.86.06-4.26.28-.18.68-.48.68-.72,0-.18-.18-.26-.28-.3L304.14-16a11.194,11.194,0,0,1,.26,2.96c.02,1,.02,2,.02,3-.76,0-1.96-.04-3.14-.14l.38.8a13.573,13.573,0,0,1,2.36-.18h.4V-7.1c0,.62-.02,3.66-.02,4.34a8.114,8.114,0,0,1-3.28.54l1.04,1.78c.06.1.18.24.32.24.24,0,.32-.22.5-.64.6-.3,1.64-.82,2.46-1.24a21.513,21.513,0,0,0,2.88-1.7l-.08-.16c-.46.16-.92.34-2.54.82V-9.56h2.34C308.16-9.56,308.34-9.58,308.34-9.78Zm27.32,4.14a.368.368,0,0,0-.16-.28l-1.02-.74a.654.654,0,0,0-.32-.18c-.1,0-.16.08-.28.2l-.48.54h-6.9l-1.72-.84a13.767,13.767,0,0,1,.2,3.22c0,1.14-.04,2.78-.12,4.26,0,.1-.04.5-.04.58,0,.14,0,.48.52.48,1.02,0,1-.72.98-1.1h7.34c-.04.78-.04,1,.46,1a.95.95,0,0,0,1.04-.92c0-.22-.1-1.2-.1-1.42-.04-.72-.02-2.8-.02-4.18C335.2-5.12,335.66-5.36,335.66-5.64Zm-2,2.56h-3.02V-5.62h3.02Zm0,3.1h-3.02V-2.6h3.02Zm-4.36-3.1h-2.98V-5.62h2.98Zm0,3.1h-2.98V-2.6h2.98Zm9.98-7.64V-7.8a11.8,11.8,0,0,1-8.38-3.54h7.74c.12,0,.3-.02.3-.22a.445.445,0,0,0-.2-.3l-1.12-1c-.12-.1-.24-.22-.36-.22s-.22.12-.32.24l-.9,1.02H332.3a15.217,15.217,0,0,0,1.96-1.54c.48-.06.86-.12.86-.44,0-.14-.16-.28-.26-.34l-1.48-.92a8.719,8.719,0,0,1-1.54,3.24H330.6v-3.24c1.32-.16,1.9-.22,3.58-.54a3.523,3.523,0,0,0,.68.08c.1,0,.48,0,.48-.28,0-.1-.12-.22-.22-.32l-1.2-1.04a2.562,2.562,0,0,1-1.1.5A50.107,50.107,0,0,1,322.8-15.1v.16a21.893,21.893,0,0,0,2.96.16c1.6,0,2.84-.1,3.52-.16v3.12h-5.16c-.56,0-1.8-.04-3.06-.14l.38.8a13.573,13.573,0,0,1,2.36-.18h4.06a27.909,27.909,0,0,1-7.24,6.04l.04.12c3-.66,6.96-3.66,8.6-5.74v1.34c0,.34-.1,2.02-.1,2.42,0,.38.18.58.54.58a.929.929,0,0,0,.96-1.04c0-.22-.06-1.68-.06-2v-1.6a14.72,14.72,0,0,0,7,5.32A3.678,3.678,0,0,1,339.28-7.62Zm-11.8-5.16c0-.48-.44-1.3-2.42-1.84l-.1.14a6.038,6.038,0,0,1,.96,1.74c.12.34.26.72.76.72A.788.788,0,0,0,327.48-12.78ZM346.14-7.6a12.423,12.423,0,0,0-4.74-9.68l-.18.28a13.132,13.132,0,0,1,3.8,9.4,13.132,13.132,0,0,1-3.8,9.4l.18.28A12.423,12.423,0,0,0,346.14-7.6Z" transform="translate(-0.76 17.28)" fill="#524d45"/>
</svg>
